<!DOCTYPE svg PUBLIC "-//W3C//DTD SVG 1.1//EN" "http://www.w3.org/Graphics/SVG/1.1/DTD/svg11.dtd">
<svg xmlns="http://www.w3.org/2000/svg" version="1.1" width="12.0mm" height="12.0mm" viewBox="18400000.0 7400000.0 1200000.0 1200000.0">
            <title>Picture generated by PcbDraw </title>
            <desc>Picture generated by PcbDraw</desc>
        <defs><clipPath id="cut-off"><path d=" M 19500000.0 8500000.0 L 18500000.0 8500000.0 L 18500000.0 7500000.0 L 19500000.0 7500000.0 L 19500000.0 8500000.0 " style="fill-rule: evenodd;"/></clipPath><mask id="pads-mask"><g style="fill:#ffffff; fill-opacity:0.0;  stroke:#ffffff; stroke-width:0.000000; stroke-opacity:1;  stroke-linecap:round; stroke-linejoin:round;">
<g style="fill:#ffffff; fill-opacity:1.0;  stroke:#ffffff; stroke-width:0.100000; stroke-opacity:1;  stroke-linecap:round; stroke-linejoin:round;">
<path style="fill:#ffffff; fill-opacity:1.0;  stroke:#ffffff; stroke-width:0.100000; stroke-opacity:1;  stroke-linecap:round; stroke-linejoin:round;fill-rule:evenodd;" d="M 19275000.000000,7535000.000000 19276522.400000,7527346.300000 19280857.900000,7520857.900000 19287346.300000,7516522.400000 19295000.000000,7515000.000000 19465000.000000,7515000.000000 19472653.700000,7516522.400000 19479142.100000,7520857.900000 19483477.600000,7527346.300000 19485000.000000,7535000.000000 19485000.000000,7705000.000000 19483477.600000,7712653.700000 19479142.100000,7719142.100000 19472653.700000,7723477.600000 19465000.000000,7725000.000000 19295000.000000,7725000.000000 19287346.300000,7723477.600000 19280857.900000,7719142.100000 19276522.400000,7712653.700000 19275000.000000,7705000.000000 Z"/> 
<circle cx="19380000.000000" cy="7874000.000000" r="105000.000000"/> 
<circle cx="19380000.000000" cy="8128000.000000" r="105000.000000"/> 
<circle cx="19380000.000000" cy="8382000.000000" r="105000.000000"/> 
</g>
<g style="fill:#ffffff; fill-opacity:1.0;  stroke:#ffffff; stroke-width:0.100000; stroke-opacity:1;  stroke-linecap:round; stroke-linejoin:round;">
<path style="fill:#ffffff; fill-opacity:1.0;  stroke:#ffffff; stroke-width:0.100000; stroke-opacity:1;  stroke-linecap:round; stroke-linejoin:round;fill-rule:evenodd;" d="M 18735000.000000,7655625.000000 18732950.500000,7668565.100000 18727002.600000,7680238.500000 18717738.500000,7689502.600000 18706065.100000,7695450.500000 18693125.000000,7697500.000000 18649375.000000,7697500.000000 18636434.900000,7695450.500000 18624761.500000,7689502.600000 18615497.400000,7680238.500000 18609549.500000,7668565.100000 18607500.000000,7655625.000000 18607500.000000,7604375.000000 18609549.500000,7591434.900000 18615497.400000,7579761.500000 18624761.500000,7570497.400000 18636434.900000,7564549.500000 18649375.000000,7562500.000000 18693125.000000,7562500.000000 18706065.100000,7564549.500000 18717738.500000,7570497.400000 18727002.600000,7579761.500000 18732950.500000,7591434.900000 18735000.000000,7604375.000000 Z"/> 
<path style="fill:#ffffff; fill-opacity:1.0;  stroke:#ffffff; stroke-width:0.100000; stroke-opacity:1;  stroke-linecap:round; stroke-linejoin:round;fill-rule:evenodd;" d="M 18892500.000000,7655625.000000 18890450.500000,7668565.100000 18884502.600000,7680238.500000 18875238.500000,7689502.600000 18863565.100000,7695450.500000 18850625.000000,7697500.000000 18806875.000000,7697500.000000 18793934.900000,7695450.500000 18782261.500000,7689502.600000 18772997.400000,7680238.500000 18767049.500000,7668565.100000 18765000.000000,7655625.000000 18765000.000000,7604375.000000 18767049.500000,7591434.900000 18772997.400000,7579761.500000 18782261.500000,7570497.400000 18793934.900000,7564549.500000 18806875.000000,7562500.000000 18850625.000000,7562500.000000 18863565.100000,7564549.500000 18875238.500000,7570497.400000 18884502.600000,7579761.500000 18890450.500000,7591434.900000 18892500.000000,7604375.000000 Z"/> 
</g>
<g style="fill:#ffffff; fill-opacity:1.0;  stroke:#ffffff; stroke-width:0.100000; stroke-opacity:1;  stroke-linecap:round; stroke-linejoin:round;">
<path style="fill:#ffffff; fill-opacity:1.0;  stroke:#ffffff; stroke-width:0.100000; stroke-opacity:1;  stroke-linecap:round; stroke-linejoin:round;fill-rule:evenodd;" d="M 18892500.000000,8395625.000000 18890450.500000,8408565.100000 18884502.600000,8420238.500000 18875238.500000,8429502.600000 18863565.100000,8435450.500000 18850625.000000,8437500.000000 18806875.000000,8437500.000000 18793934.900000,8435450.500000 18782261.500000,8429502.600000 18772997.400000,8420238.500000 18767049.500000,8408565.100000 18765000.000000,8395625.000000 18765000.000000,8344375.000000 18767049.500000,8331434.900000 18772997.400000,8319761.500000 18782261.500000,8310497.400000 18793934.900000,8304549.500000 18806875.000000,8302500.000000 18850625.000000,8302500.000000 18863565.100000,8304549.500000 18875238.500000,8310497.400000 18884502.600000,8319761.500000 18890450.500000,8331434.900000 18892500.000000,8344375.000000 Z"/> 
<path style="fill:#ffffff; fill-opacity:1.0;  stroke:#ffffff; stroke-width:0.100000; stroke-opacity:1;  stroke-linecap:round; stroke-linejoin:round;fill-rule:evenodd;" d="M 18735000.000000,8395625.000000 18732950.500000,8408565.100000 18727002.600000,8420238.500000 18717738.500000,8429502.600000 18706065.100000,8435450.500000 18693125.000000,8437500.000000 18649375.000000,8437500.000000 18636434.900000,8435450.500000 18624761.500000,8429502.600000 18615497.400000,8420238.500000 18609549.500000,8408565.100000 18607500.000000,8395625.000000 18607500.000000,8344375.000000 18609549.500000,8331434.900000 18615497.400000,8319761.500000 18624761.500000,8310497.400000 18636434.900000,8304549.500000 18649375.000000,8302500.000000 18693125.000000,8302500.000000 18706065.100000,8304549.500000 18717738.500000,8310497.400000 18727002.600000,8319761.500000 18732950.500000,8331434.900000 18735000.000000,8344375.000000 Z"/> 
</g>
<g style="fill:#ffffff; fill-opacity:1.0;  stroke:#ffffff; stroke-width:0.100000; stroke-opacity:1;  stroke-linecap:round; stroke-linejoin:round;">
<path style="fill:#ffffff; fill-opacity:1.0;  stroke:#ffffff; stroke-width:0.100000; stroke-opacity:1;  stroke-linecap:round; stroke-linejoin:round;fill-rule:evenodd;" d="M 18522500.000000,7779500.000000 18524022.400000,7771846.300000 18528357.900000,7765357.900000 18534846.300000,7761022.400000 18542500.000000,7759500.000000 18697500.000000,7759500.000000 18705153.700000,7761022.400000 18711642.100000,7765357.900000 18715977.600000,7771846.300000 18717500.000000,7779500.000000 18717500.000000,7839500.000000 18715977.600000,7847153.700000 18711642.100000,7853642.100000 18705153.700000,7857977.600000 18697500.000000,7859500.000000 18542500.000000,7859500.000000 18534846.300000,7857977.600000 18528357.900000,7853642.100000 18524022.400000,7847153.700000 18522500.000000,7839500.000000 Z"/> 
<path style="fill:#ffffff; fill-opacity:1.0;  stroke:#ffffff; stroke-width:0.100000; stroke-opacity:1;  stroke-linecap:round; stroke-linejoin:round;fill-rule:evenodd;" d="M 18522500.000000,7906500.000000 18524022.400000,7898846.300000 18528357.900000,7892357.900000 18534846.300000,7888022.400000 18542500.000000,7886500.000000 18697500.000000,7886500.000000 18705153.700000,7888022.400000 18711642.100000,7892357.900000 18715977.600000,7898846.300000 18717500.000000,7906500.000000 18717500.000000,7966500.000000 18715977.600000,7974153.700000 18711642.100000,7980642.100000 18705153.700000,7984977.600000 18697500.000000,7986500.000000 18542500.000000,7986500.000000 18534846.300000,7984977.600000 18528357.900000,7980642.100000 18524022.400000,7974153.700000 18522500.000000,7966500.000000 Z"/> 
<path style="fill:#ffffff; fill-opacity:1.0;  stroke:#ffffff; stroke-width:0.100000; stroke-opacity:1;  stroke-linecap:round; stroke-linejoin:round;fill-rule:evenodd;" d="M 18522500.000000,8033500.000000 18524022.400000,8025846.300000 18528357.900000,8019357.900000 18534846.300000,8015022.400000 18542500.000000,8013500.000000 18697500.000000,8013500.000000 18705153.700000,8015022.400000 18711642.100000,8019357.900000 18715977.600000,8025846.300000 18717500.000000,8033500.000000 18717500.000000,8093500.000000 18715977.600000,8101153.700000 18711642.100000,8107642.100000 18705153.700000,8111977.600000 18697500.000000,8113500.000000 18542500.000000,8113500.000000 18534846.300000,8111977.600000 18528357.900000,8107642.100000 18524022.400000,8101153.700000 18522500.000000,8093500.000000 Z"/> 
<path style="fill:#ffffff; fill-opacity:1.0;  stroke:#ffffff; stroke-width:0.100000; stroke-opacity:1;  stroke-linecap:round; stroke-linejoin:round;fill-rule:evenodd;" d="M 18522500.000000,8160500.000000 18524022.400000,8152846.300000 18528357.900000,8146357.900000 18534846.300000,8142022.400000 18542500.000000,8140500.000000 18697500.000000,8140500.000000 18705153.700000,8142022.400000 18711642.100000,8146357.900000 18715977.600000,8152846.300000 18717500.000000,8160500.000000 18717500.000000,8220500.000000 18715977.600000,8228153.700000 18711642.100000,8234642.100000 18705153.700000,8238977.600000 18697500.000000,8240500.000000 18542500.000000,8240500.000000 18534846.300000,8238977.600000 18528357.900000,8234642.100000 18524022.400000,8228153.700000 18522500.000000,8220500.000000 Z"/> 
<path style="fill:#ffffff; fill-opacity:1.0;  stroke:#ffffff; stroke-width:0.100000; stroke-opacity:1;  stroke-linecap:round; stroke-linejoin:round;fill-rule:evenodd;" d="M 19062500.000000,8160500.000000 19064022.400000,8152846.300000 19068357.900000,8146357.900000 19074846.300000,8142022.400000 19082500.000000,8140500.000000 19237500.000000,8140500.000000 19245153.700000,8142022.400000 19251642.100000,8146357.900000 19255977.600000,8152846.300000 19257500.000000,8160500.000000 19257500.000000,8220500.000000 19255977.600000,8228153.700000 19251642.100000,8234642.100000 19245153.700000,8238977.600000 19237500.000000,8240500.000000 19082500.000000,8240500.000000 19074846.300000,8238977.600000 19068357.900000,8234642.100000 19064022.400000,8228153.700000 19062500.000000,8220500.000000 Z"/> 
<path style="fill:#ffffff; fill-opacity:1.0;  stroke:#ffffff; stroke-width:0.100000; stroke-opacity:1;  stroke-linecap:round; stroke-linejoin:round;fill-rule:evenodd;" d="M 19062500.000000,8033500.000000 19064022.400000,8025846.300000 19068357.900000,8019357.900000 19074846.300000,8015022.400000 19082500.000000,8013500.000000 19237500.000000,8013500.000000 19245153.700000,8015022.400000 19251642.100000,8019357.900000 19255977.600000,8025846.300000 19257500.000000,8033500.000000 19257500.000000,8093500.000000 19255977.600000,8101153.700000 19251642.100000,8107642.100000 19245153.700000,8111977.600000 19237500.000000,8113500.000000 19082500.000000,8113500.000000 19074846.300000,8111977.600000 19068357.900000,8107642.100000 19064022.400000,8101153.700000 19062500.000000,8093500.000000 Z"/> 
<path style="fill:#ffffff; fill-opacity:1.0;  stroke:#ffffff; stroke-width:0.100000; stroke-opacity:1;  stroke-linecap:round; stroke-linejoin:round;fill-rule:evenodd;" d="M 19062500.000000,7906500.000000 19064022.400000,7898846.300000 19068357.900000,7892357.900000 19074846.300000,7888022.400000 19082500.000000,7886500.000000 19237500.000000,7886500.000000 19245153.700000,7888022.400000 19251642.100000,7892357.900000 19255977.600000,7898846.300000 19257500.000000,7906500.000000 19257500.000000,7966500.000000 19255977.600000,7974153.700000 19251642.100000,7980642.100000 19245153.700000,7984977.600000 19237500.000000,7986500.000000 19082500.000000,7986500.000000 19074846.300000,7984977.600000 19068357.900000,7980642.100000 19064022.400000,7974153.700000 19062500.000000,7966500.000000 Z"/> 
<path style="fill:#ffffff; fill-opacity:1.0;  stroke:#ffffff; stroke-width:0.100000; stroke-opacity:1;  stroke-linecap:round; stroke-linejoin:round;fill-rule:evenodd;" d="M 19062500.000000,7779500.000000 19064022.400000,7771846.300000 19068357.900000,7765357.900000 19074846.300000,7761022.400000 19082500.000000,7759500.000000 19237500.000000,7759500.000000 19245153.700000,7761022.400000 19251642.100000,7765357.900000 19255977.600000,7771846.300000 19257500.000000,7779500.000000 19257500.000000,7839500.000000 19255977.600000,7847153.700000 19251642.100000,7853642.100000 19245153.700000,7857977.600000 19237500.000000,7859500.000000 19082500.000000,7859500.000000 19074846.300000,7857977.600000 19068357.900000,7853642.100000 19064022.400000,7847153.700000 19062500.000000,7839500.000000 Z"/> 
</g>
<g style="fill:#ffffff; fill-opacity:1.0;  stroke:#ffffff; stroke-width:0.100000; stroke-opacity:1;  stroke-linecap:round; stroke-linejoin:round;">
<path style="fill:#ffffff; fill-opacity:1.0;  stroke:#ffffff; stroke-width:0.100000; stroke-opacity:1;  stroke-linecap:round; stroke-linejoin:round;fill-rule:evenodd;" d="M 19075000.000000,7604375.000000 19077049.500000,7591434.900000 19082997.400000,7579761.500000 19092261.500000,7570497.400000 19103934.900000,7564549.500000 19116875.000000,7562500.000000 19160625.000000,7562500.000000 19173565.100000,7564549.500000 19185238.500000,7570497.400000 19194502.600000,7579761.500000 19200450.500000,7591434.900000 19202500.000000,7604375.000000 19202500.000000,7655625.000000 19200450.500000,7668565.100000 19194502.600000,7680238.500000 19185238.500000,7689502.600000 19173565.100000,7695450.500000 19160625.000000,7697500.000000 19116875.000000,7697500.000000 19103934.900000,7695450.500000 19092261.500000,7689502.600000 19082997.400000,7680238.500000 19077049.500000,7668565.100000 19075000.000000,7655625.000000 Z"/> 
<path style="fill:#ffffff; fill-opacity:1.0;  stroke:#ffffff; stroke-width:0.100000; stroke-opacity:1;  stroke-linecap:round; stroke-linejoin:round;fill-rule:evenodd;" d="M 18917500.000000,7604375.000000 18919549.500000,7591434.900000 18925497.400000,7579761.500000 18934761.500000,7570497.400000 18946434.900000,7564549.500000 18959375.000000,7562500.000000 19003125.000000,7562500.000000 19016065.100000,7564549.500000 19027738.500000,7570497.400000 19037002.600000,7579761.500000 19042950.500000,7591434.900000 19045000.000000,7604375.000000 19045000.000000,7655625.000000 19042950.500000,7668565.100000 19037002.600000,7680238.500000 19027738.500000,7689502.600000 19016065.100000,7695450.500000 19003125.000000,7697500.000000 18959375.000000,7697500.000000 18946434.900000,7695450.500000 18934761.500000,7689502.600000 18925497.400000,7680238.500000 18919549.500000,7668565.100000 18917500.000000,7655625.000000 Z"/> 
</g>
<g style="fill:#ffffff; fill-opacity:1.0;  stroke:#ffffff; stroke-width:0.100000; stroke-opacity:1;  stroke-linecap:round; stroke-linejoin:round;">
<path style="fill:#ffffff; fill-opacity:1.0;  stroke:#ffffff; stroke-width:0.100000; stroke-opacity:1;  stroke-linecap:round; stroke-linejoin:round;fill-rule:evenodd;" d="M 18917500.000000,8344375.000000 18919549.500000,8331434.900000 18925497.400000,8319761.500000 18934761.500000,8310497.400000 18946434.900000,8304549.500000 18959375.000000,8302500.000000 19003125.000000,8302500.000000 19016065.100000,8304549.500000 19027738.500000,8310497.400000 19037002.600000,8319761.500000 19042950.500000,8331434.900000 19045000.000000,8344375.000000 19045000.000000,8395625.000000 19042950.500000,8408565.100000 19037002.600000,8420238.500000 19027738.500000,8429502.600000 19016065.100000,8435450.500000 19003125.000000,8437500.000000 18959375.000000,8437500.000000 18946434.900000,8435450.500000 18934761.500000,8429502.600000 18925497.400000,8420238.500000 18919549.500000,8408565.100000 18917500.000000,8395625.000000 Z"/> 
<path style="fill:#ffffff; fill-opacity:1.0;  stroke:#ffffff; stroke-width:0.100000; stroke-opacity:1;  stroke-linecap:round; stroke-linejoin:round;fill-rule:evenodd;" d="M 19075000.000000,8344375.000000 19077049.500000,8331434.900000 19082997.400000,8319761.500000 19092261.500000,8310497.400000 19103934.900000,8304549.500000 19116875.000000,8302500.000000 19160625.000000,8302500.000000 19173565.100000,8304549.500000 19185238.500000,8310497.400000 19194502.600000,8319761.500000 19200450.500000,8331434.900000 19202500.000000,8344375.000000 19202500.000000,8395625.000000 19200450.500000,8408565.100000 19194502.600000,8420238.500000 19185238.500000,8429502.600000 19173565.100000,8435450.500000 19160625.000000,8437500.000000 19116875.000000,8437500.000000 19103934.900000,8435450.500000 19092261.500000,8429502.600000 19082997.400000,8420238.500000 19077049.500000,8408565.100000 19075000.000000,8395625.000000 Z"/> 
</g>
</g> 
</mask><mask id="pads-mask-silkscreen"><rect x="18382500.0" y="7437500.0" width="1180000.0" height="1125000.0" fill="white"/><g style="fill:#000000; fill-opacity:0.0;  stroke:#000000; stroke-width:0.000000; stroke-opacity:1;  stroke-linecap:round; stroke-linejoin:round;">
<g style="fill:#000000; fill-opacity:1.0;  stroke:#000000; stroke-width:0.100000; stroke-opacity:1;  stroke-linecap:round; stroke-linejoin:round;">
<path style="fill:#000000; fill-opacity:1.0;  stroke:#000000; stroke-width:0.100000; stroke-opacity:1;  stroke-linecap:round; stroke-linejoin:round;fill-rule:evenodd;" d="M 19275000.000000,7535000.000000 19276522.400000,7527346.300000 19280857.900000,7520857.900000 19287346.300000,7516522.400000 19295000.000000,7515000.000000 19465000.000000,7515000.000000 19472653.700000,7516522.400000 19479142.100000,7520857.900000 19483477.600000,7527346.300000 19485000.000000,7535000.000000 19485000.000000,7705000.000000 19483477.600000,7712653.700000 19479142.100000,7719142.100000 19472653.700000,7723477.600000 19465000.000000,7725000.000000 19295000.000000,7725000.000000 19287346.300000,7723477.600000 19280857.900000,7719142.100000 19276522.400000,7712653.700000 19275000.000000,7705000.000000 Z"/> 
<circle cx="19380000.000000" cy="7874000.000000" r="105000.000000"/> 
<circle cx="19380000.000000" cy="8128000.000000" r="105000.000000"/> 
<circle cx="19380000.000000" cy="8382000.000000" r="105000.000000"/> 
</g>
<g style="fill:#000000; fill-opacity:1.0;  stroke:#000000; stroke-width:0.100000; stroke-opacity:1;  stroke-linecap:round; stroke-linejoin:round;">
<path style="fill:#000000; fill-opacity:1.0;  stroke:#000000; stroke-width:0.100000; stroke-opacity:1;  stroke-linecap:round; stroke-linejoin:round;fill-rule:evenodd;" d="M 18735000.000000,7655625.000000 18732950.500000,7668565.100000 18727002.600000,7680238.500000 18717738.500000,7689502.600000 18706065.100000,7695450.500000 18693125.000000,7697500.000000 18649375.000000,7697500.000000 18636434.900000,7695450.500000 18624761.500000,7689502.600000 18615497.400000,7680238.500000 18609549.500000,7668565.100000 18607500.000000,7655625.000000 18607500.000000,7604375.000000 18609549.500000,7591434.900000 18615497.400000,7579761.500000 18624761.500000,7570497.400000 18636434.900000,7564549.500000 18649375.000000,7562500.000000 18693125.000000,7562500.000000 18706065.100000,7564549.500000 18717738.500000,7570497.400000 18727002.600000,7579761.500000 18732950.500000,7591434.900000 18735000.000000,7604375.000000 Z"/> 
<path style="fill:#000000; fill-opacity:1.0;  stroke:#000000; stroke-width:0.100000; stroke-opacity:1;  stroke-linecap:round; stroke-linejoin:round;fill-rule:evenodd;" d="M 18892500.000000,7655625.000000 18890450.500000,7668565.100000 18884502.600000,7680238.500000 18875238.500000,7689502.600000 18863565.100000,7695450.500000 18850625.000000,7697500.000000 18806875.000000,7697500.000000 18793934.900000,7695450.500000 18782261.500000,7689502.600000 18772997.400000,7680238.500000 18767049.500000,7668565.100000 18765000.000000,7655625.000000 18765000.000000,7604375.000000 18767049.500000,7591434.900000 18772997.400000,7579761.500000 18782261.500000,7570497.400000 18793934.900000,7564549.500000 18806875.000000,7562500.000000 18850625.000000,7562500.000000 18863565.100000,7564549.500000 18875238.500000,7570497.400000 18884502.600000,7579761.500000 18890450.500000,7591434.900000 18892500.000000,7604375.000000 Z"/> 
</g>
<g style="fill:#000000; fill-opacity:1.0;  stroke:#000000; stroke-width:0.100000; stroke-opacity:1;  stroke-linecap:round; stroke-linejoin:round;">
<path style="fill:#000000; fill-opacity:1.0;  stroke:#000000; stroke-width:0.100000; stroke-opacity:1;  stroke-linecap:round; stroke-linejoin:round;fill-rule:evenodd;" d="M 18892500.000000,8395625.000000 18890450.500000,8408565.100000 18884502.600000,8420238.500000 18875238.500000,8429502.600000 18863565.100000,8435450.500000 18850625.000000,8437500.000000 18806875.000000,8437500.000000 18793934.900000,8435450.500000 18782261.500000,8429502.600000 18772997.400000,8420238.500000 18767049.500000,8408565.100000 18765000.000000,8395625.000000 18765000.000000,8344375.000000 18767049.500000,8331434.900000 18772997.400000,8319761.500000 18782261.500000,8310497.400000 18793934.900000,8304549.500000 18806875.000000,8302500.000000 18850625.000000,8302500.000000 18863565.100000,8304549.500000 18875238.500000,8310497.400000 18884502.600000,8319761.500000 18890450.500000,8331434.900000 18892500.000000,8344375.000000 Z"/> 
<path style="fill:#000000; fill-opacity:1.0;  stroke:#000000; stroke-width:0.100000; stroke-opacity:1;  stroke-linecap:round; stroke-linejoin:round;fill-rule:evenodd;" d="M 18735000.000000,8395625.000000 18732950.500000,8408565.100000 18727002.600000,8420238.500000 18717738.500000,8429502.600000 18706065.100000,8435450.500000 18693125.000000,8437500.000000 18649375.000000,8437500.000000 18636434.900000,8435450.500000 18624761.500000,8429502.600000 18615497.400000,8420238.500000 18609549.500000,8408565.100000 18607500.000000,8395625.000000 18607500.000000,8344375.000000 18609549.500000,8331434.900000 18615497.400000,8319761.500000 18624761.500000,8310497.400000 18636434.900000,8304549.500000 18649375.000000,8302500.000000 18693125.000000,8302500.000000 18706065.100000,8304549.500000 18717738.500000,8310497.400000 18727002.600000,8319761.500000 18732950.500000,8331434.900000 18735000.000000,8344375.000000 Z"/> 
</g>
<g style="fill:#000000; fill-opacity:1.0;  stroke:#000000; stroke-width:0.100000; stroke-opacity:1;  stroke-linecap:round; stroke-linejoin:round;">
<path style="fill:#000000; fill-opacity:1.0;  stroke:#000000; stroke-width:0.100000; stroke-opacity:1;  stroke-linecap:round; stroke-linejoin:round;fill-rule:evenodd;" d="M 18522500.000000,7779500.000000 18524022.400000,7771846.300000 18528357.900000,7765357.900000 18534846.300000,7761022.400000 18542500.000000,7759500.000000 18697500.000000,7759500.000000 18705153.700000,7761022.400000 18711642.100000,7765357.900000 18715977.600000,7771846.300000 18717500.000000,7779500.000000 18717500.000000,7839500.000000 18715977.600000,7847153.700000 18711642.100000,7853642.100000 18705153.700000,7857977.600000 18697500.000000,7859500.000000 18542500.000000,7859500.000000 18534846.300000,7857977.600000 18528357.900000,7853642.100000 18524022.400000,7847153.700000 18522500.000000,7839500.000000 Z"/> 
<path style="fill:#000000; fill-opacity:1.0;  stroke:#000000; stroke-width:0.100000; stroke-opacity:1;  stroke-linecap:round; stroke-linejoin:round;fill-rule:evenodd;" d="M 18522500.000000,7906500.000000 18524022.400000,7898846.300000 18528357.900000,7892357.900000 18534846.300000,7888022.400000 18542500.000000,7886500.000000 18697500.000000,7886500.000000 18705153.700000,7888022.400000 18711642.100000,7892357.900000 18715977.600000,7898846.300000 18717500.000000,7906500.000000 18717500.000000,7966500.000000 18715977.600000,7974153.700000 18711642.100000,7980642.100000 18705153.700000,7984977.600000 18697500.000000,7986500.000000 18542500.000000,7986500.000000 18534846.300000,7984977.600000 18528357.900000,7980642.100000 18524022.400000,7974153.700000 18522500.000000,7966500.000000 Z"/> 
<path style="fill:#000000; fill-opacity:1.0;  stroke:#000000; stroke-width:0.100000; stroke-opacity:1;  stroke-linecap:round; stroke-linejoin:round;fill-rule:evenodd;" d="M 18522500.000000,8033500.000000 18524022.400000,8025846.300000 18528357.900000,8019357.900000 18534846.300000,8015022.400000 18542500.000000,8013500.000000 18697500.000000,8013500.000000 18705153.700000,8015022.400000 18711642.100000,8019357.900000 18715977.600000,8025846.300000 18717500.000000,8033500.000000 18717500.000000,8093500.000000 18715977.600000,8101153.700000 18711642.100000,8107642.100000 18705153.700000,8111977.600000 18697500.000000,8113500.000000 18542500.000000,8113500.000000 18534846.300000,8111977.600000 18528357.900000,8107642.100000 18524022.400000,8101153.700000 18522500.000000,8093500.000000 Z"/> 
<path style="fill:#000000; fill-opacity:1.0;  stroke:#000000; stroke-width:0.100000; stroke-opacity:1;  stroke-linecap:round; stroke-linejoin:round;fill-rule:evenodd;" d="M 18522500.000000,8160500.000000 18524022.400000,8152846.300000 18528357.900000,8146357.900000 18534846.300000,8142022.400000 18542500.000000,8140500.000000 18697500.000000,8140500.000000 18705153.700000,8142022.400000 18711642.100000,8146357.900000 18715977.600000,8152846.300000 18717500.000000,8160500.000000 18717500.000000,8220500.000000 18715977.600000,8228153.700000 18711642.100000,8234642.100000 18705153.700000,8238977.600000 18697500.000000,8240500.000000 18542500.000000,8240500.000000 18534846.300000,8238977.600000 18528357.900000,8234642.100000 18524022.400000,8228153.700000 18522500.000000,8220500.000000 Z"/> 
<path style="fill:#000000; fill-opacity:1.0;  stroke:#000000; stroke-width:0.100000; stroke-opacity:1;  stroke-linecap:round; stroke-linejoin:round;fill-rule:evenodd;" d="M 19062500.000000,8160500.000000 19064022.400000,8152846.300000 19068357.900000,8146357.900000 19074846.300000,8142022.400000 19082500.000000,8140500.000000 19237500.000000,8140500.000000 19245153.700000,8142022.400000 19251642.100000,8146357.900000 19255977.600000,8152846.300000 19257500.000000,8160500.000000 19257500.000000,8220500.000000 19255977.600000,8228153.700000 19251642.100000,8234642.100000 19245153.700000,8238977.600000 19237500.000000,8240500.000000 19082500.000000,8240500.000000 19074846.300000,8238977.600000 19068357.900000,8234642.100000 19064022.400000,8228153.700000 19062500.000000,8220500.000000 Z"/> 
<path style="fill:#000000; fill-opacity:1.0;  stroke:#000000; stroke-width:0.100000; stroke-opacity:1;  stroke-linecap:round; stroke-linejoin:round;fill-rule:evenodd;" d="M 19062500.000000,8033500.000000 19064022.400000,8025846.300000 19068357.900000,8019357.900000 19074846.300000,8015022.400000 19082500.000000,8013500.000000 19237500.000000,8013500.000000 19245153.700000,8015022.400000 19251642.100000,8019357.900000 19255977.600000,8025846.300000 19257500.000000,8033500.000000 19257500.000000,8093500.000000 19255977.600000,8101153.700000 19251642.100000,8107642.100000 19245153.700000,8111977.600000 19237500.000000,8113500.000000 19082500.000000,8113500.000000 19074846.300000,8111977.600000 19068357.900000,8107642.100000 19064022.400000,8101153.700000 19062500.000000,8093500.000000 Z"/> 
<path style="fill:#000000; fill-opacity:1.0;  stroke:#000000; stroke-width:0.100000; stroke-opacity:1;  stroke-linecap:round; stroke-linejoin:round;fill-rule:evenodd;" d="M 19062500.000000,7906500.000000 19064022.400000,7898846.300000 19068357.900000,7892357.900000 19074846.300000,7888022.400000 19082500.000000,7886500.000000 19237500.000000,7886500.000000 19245153.700000,7888022.400000 19251642.100000,7892357.900000 19255977.600000,7898846.300000 19257500.000000,7906500.000000 19257500.000000,7966500.000000 19255977.600000,7974153.700000 19251642.100000,7980642.100000 19245153.700000,7984977.600000 19237500.000000,7986500.000000 19082500.000000,7986500.000000 19074846.300000,7984977.600000 19068357.900000,7980642.100000 19064022.400000,7974153.700000 19062500.000000,7966500.000000 Z"/> 
<path style="fill:#000000; fill-opacity:1.0;  stroke:#000000; stroke-width:0.100000; stroke-opacity:1;  stroke-linecap:round; stroke-linejoin:round;fill-rule:evenodd;" d="M 19062500.000000,7779500.000000 19064022.400000,7771846.300000 19068357.900000,7765357.900000 19074846.300000,7761022.400000 19082500.000000,7759500.000000 19237500.000000,7759500.000000 19245153.700000,7761022.400000 19251642.100000,7765357.900000 19255977.600000,7771846.300000 19257500.000000,7779500.000000 19257500.000000,7839500.000000 19255977.600000,7847153.700000 19251642.100000,7853642.100000 19245153.700000,7857977.600000 19237500.000000,7859500.000000 19082500.000000,7859500.000000 19074846.300000,7857977.600000 19068357.900000,7853642.100000 19064022.400000,7847153.700000 19062500.000000,7839500.000000 Z"/> 
</g>
<g style="fill:#000000; fill-opacity:1.0;  stroke:#000000; stroke-width:0.100000; stroke-opacity:1;  stroke-linecap:round; stroke-linejoin:round;">
<path style="fill:#000000; fill-opacity:1.0;  stroke:#000000; stroke-width:0.100000; stroke-opacity:1;  stroke-linecap:round; stroke-linejoin:round;fill-rule:evenodd;" d="M 19075000.000000,7604375.000000 19077049.500000,7591434.900000 19082997.400000,7579761.500000 19092261.500000,7570497.400000 19103934.900000,7564549.500000 19116875.000000,7562500.000000 19160625.000000,7562500.000000 19173565.100000,7564549.500000 19185238.500000,7570497.400000 19194502.600000,7579761.500000 19200450.500000,7591434.900000 19202500.000000,7604375.000000 19202500.000000,7655625.000000 19200450.500000,7668565.100000 19194502.600000,7680238.500000 19185238.500000,7689502.600000 19173565.100000,7695450.500000 19160625.000000,7697500.000000 19116875.000000,7697500.000000 19103934.900000,7695450.500000 19092261.500000,7689502.600000 19082997.400000,7680238.500000 19077049.500000,7668565.100000 19075000.000000,7655625.000000 Z"/> 
<path style="fill:#000000; fill-opacity:1.0;  stroke:#000000; stroke-width:0.100000; stroke-opacity:1;  stroke-linecap:round; stroke-linejoin:round;fill-rule:evenodd;" d="M 18917500.000000,7604375.000000 18919549.500000,7591434.900000 18925497.400000,7579761.500000 18934761.500000,7570497.400000 18946434.900000,7564549.500000 18959375.000000,7562500.000000 19003125.000000,7562500.000000 19016065.100000,7564549.500000 19027738.500000,7570497.400000 19037002.600000,7579761.500000 19042950.500000,7591434.900000 19045000.000000,7604375.000000 19045000.000000,7655625.000000 19042950.500000,7668565.100000 19037002.600000,7680238.500000 19027738.500000,7689502.600000 19016065.100000,7695450.500000 19003125.000000,7697500.000000 18959375.000000,7697500.000000 18946434.900000,7695450.500000 18934761.500000,7689502.600000 18925497.400000,7680238.500000 18919549.500000,7668565.100000 18917500.000000,7655625.000000 Z"/> 
</g>
<g style="fill:#000000; fill-opacity:1.0;  stroke:#000000; stroke-width:0.100000; stroke-opacity:1;  stroke-linecap:round; stroke-linejoin:round;">
<path style="fill:#000000; fill-opacity:1.0;  stroke:#000000; stroke-width:0.100000; stroke-opacity:1;  stroke-linecap:round; stroke-linejoin:round;fill-rule:evenodd;" d="M 18917500.000000,8344375.000000 18919549.500000,8331434.900000 18925497.400000,8319761.500000 18934761.500000,8310497.400000 18946434.900000,8304549.500000 18959375.000000,8302500.000000 19003125.000000,8302500.000000 19016065.100000,8304549.500000 19027738.500000,8310497.400000 19037002.600000,8319761.500000 19042950.500000,8331434.900000 19045000.000000,8344375.000000 19045000.000000,8395625.000000 19042950.500000,8408565.100000 19037002.600000,8420238.500000 19027738.500000,8429502.600000 19016065.100000,8435450.500000 19003125.000000,8437500.000000 18959375.000000,8437500.000000 18946434.900000,8435450.500000 18934761.500000,8429502.600000 18925497.400000,8420238.500000 18919549.500000,8408565.100000 18917500.000000,8395625.000000 Z"/> 
<path style="fill:#000000; fill-opacity:1.0;  stroke:#000000; stroke-width:0.100000; stroke-opacity:1;  stroke-linecap:round; stroke-linejoin:round;fill-rule:evenodd;" d="M 19075000.000000,8344375.000000 19077049.500000,8331434.900000 19082997.400000,8319761.500000 19092261.500000,8310497.400000 19103934.900000,8304549.500000 19116875.000000,8302500.000000 19160625.000000,8302500.000000 19173565.100000,8304549.500000 19185238.500000,8310497.400000 19194502.600000,8319761.500000 19200450.500000,8331434.900000 19202500.000000,8344375.000000 19202500.000000,8395625.000000 19200450.500000,8408565.100000 19194502.600000,8420238.500000 19185238.500000,8429502.600000 19173565.100000,8435450.500000 19160625.000000,8437500.000000 19116875.000000,8437500.000000 19103934.900000,8435450.500000 19092261.500000,8429502.600000 19082997.400000,8420238.500000 19077049.500000,8408565.100000 19075000.000000,8395625.000000 Z"/> 
</g>
</g> 
</mask><mask id="hole-mask"><g><rect x="18382500.0" y="7437500.0" fill="white" width="1180000.0" height="1125000.0"/><polyline stroke-linecap="round" stroke="black" stroke-width="100000.0" points="-0.0 0 0.0 0" transform="translate(19380000.0 7620000.0) rotate(-0.0)"/><polyline stroke-linecap="round" stroke="black" stroke-width="100000.0" points="-0.0 0 0.0 0" transform="translate(19380000.0 7874000.0) rotate(-0.0)"/><polyline stroke-linecap="round" stroke="black" stroke-width="100000.0" points="-0.0 0 0.0 0" transform="translate(19380000.0 8128000.0) rotate(-0.0)"/><polyline stroke-linecap="round" stroke="black" stroke-width="100000.0" points="-0.0 0 0.0 0" transform="translate(19380000.0 8382000.0) rotate(-0.0)"/><polyline stroke-linecap="round" stroke="black" stroke-width="30000.0" points="-0.0 0 0.0 0" transform="translate(18807499.0 7984577.9) rotate(0)"/><polyline stroke-linecap="round" stroke="black" stroke-width="30000.0" points="-0.0 0 0.0 0" transform="translate(18807499.0 8077890.7) rotate(0)"/><polyline stroke-linecap="round" stroke="black" stroke-width="30000.0" points="-0.0 0 0.0 0" transform="translate(18788632.5 8155635.5) rotate(0)"/><polyline stroke-linecap="round" stroke="black" stroke-width="30000.0" points="-0.0 0 0.0 0" transform="translate(19140000.0 7730000.0) rotate(0)"/></g></mask></defs><g transform="" id="boardContainer"><g id="substrate" clip-path="url(#cut-off)" mask="url(#hole-mask)"><g id="substrate-board" style="fill:#4ca06c; stroke:#4ca06c;"><path d=" M 19500000.0 8500000.0 L 18500000.0 8500000.0 L 18500000.0 7500000.0 L 19500000.0 7500000.0 L 19500000.0 8500000.0 " style="fill-rule: evenodd;"/><g style="fill-opacity: 0.0;stroke-width: 20000.000000;stroke-opacity: 1;stroke-linecap: round;stroke-linejoin: round">
<path d="M19500000 7500000 L19500000 8500000 "/>
<path d="M18500000 7500000 L19500000 7500000 "/>
<path d="M18500000 8500000 L18500000 7500000 "/>
<path d="M19500000 8500000 L18500000 8500000 "/>
</g> 
</g><g id="substrate-clad" style="fill:#9c6b28; stroke:#9c6b28;"><g style="fill-opacity: 0.0;stroke-width: 0.000000;stroke-opacity: 1;stroke-linecap: round;stroke-linejoin: round">
<g style="fill-opacity: 1.0;stroke-width: 0.100000;stroke-opacity: 1;stroke-linecap: round;stroke-linejoin: round">
<path style="fill-opacity: 1.0;stroke-width: 0.100000;stroke-opacity: 1;stroke-linecap: round;stroke-linejoin: round;fill-rule: evenodd" d="M 19275000.000000,7535000.000000 19276522.400000,7527346.300000 19280857.900000,7520857.900000 19287346.300000,7516522.400000 19295000.000000,7515000.000000 19465000.000000,7515000.000000 19472653.700000,7516522.400000 19479142.100000,7520857.900000 19483477.600000,7527346.300000 19485000.000000,7535000.000000 19485000.000000,7705000.000000 19483477.600000,7712653.700000 19479142.100000,7719142.100000 19472653.700000,7723477.600000 19465000.000000,7725000.000000 19295000.000000,7725000.000000 19287346.300000,7723477.600000 19280857.900000,7719142.100000 19276522.400000,7712653.700000 19275000.000000,7705000.000000 Z"/> 
<circle cx="19380000.000000" cy="7874000.000000" r="105000.000000"/> 
<circle cx="19380000.000000" cy="8128000.000000" r="105000.000000"/> 
<circle cx="19380000.000000" cy="8382000.000000" r="105000.000000"/> 
</g>
<g style="fill-opacity: 1.0;stroke-width: 0.100000;stroke-opacity: 1;stroke-linecap: round;stroke-linejoin: round">
<path style="fill-opacity: 1.0;stroke-width: 0.100000;stroke-opacity: 1;stroke-linecap: round;stroke-linejoin: round;fill-rule: evenodd" d="M 18735000.000000,7655625.000000 18732950.500000,7668565.100000 18727002.600000,7680238.500000 18717738.500000,7689502.600000 18706065.100000,7695450.500000 18693125.000000,7697500.000000 18649375.000000,7697500.000000 18636434.900000,7695450.500000 18624761.500000,7689502.600000 18615497.400000,7680238.500000 18609549.500000,7668565.100000 18607500.000000,7655625.000000 18607500.000000,7604375.000000 18609549.500000,7591434.900000 18615497.400000,7579761.500000 18624761.500000,7570497.400000 18636434.900000,7564549.500000 18649375.000000,7562500.000000 18693125.000000,7562500.000000 18706065.100000,7564549.500000 18717738.500000,7570497.400000 18727002.600000,7579761.500000 18732950.500000,7591434.900000 18735000.000000,7604375.000000 Z"/> 
<path style="fill-opacity: 1.0;stroke-width: 0.100000;stroke-opacity: 1;stroke-linecap: round;stroke-linejoin: round;fill-rule: evenodd" d="M 18892500.000000,7655625.000000 18890450.500000,7668565.100000 18884502.600000,7680238.500000 18875238.500000,7689502.600000 18863565.100000,7695450.500000 18850625.000000,7697500.000000 18806875.000000,7697500.000000 18793934.900000,7695450.500000 18782261.500000,7689502.600000 18772997.400000,7680238.500000 18767049.500000,7668565.100000 18765000.000000,7655625.000000 18765000.000000,7604375.000000 18767049.500000,7591434.900000 18772997.400000,7579761.500000 18782261.500000,7570497.400000 18793934.900000,7564549.500000 18806875.000000,7562500.000000 18850625.000000,7562500.000000 18863565.100000,7564549.500000 18875238.500000,7570497.400000 18884502.600000,7579761.500000 18890450.500000,7591434.900000 18892500.000000,7604375.000000 Z"/> 
</g>
<g style="fill-opacity: 1.0;stroke-width: 0.100000;stroke-opacity: 1;stroke-linecap: round;stroke-linejoin: round">
<path style="fill-opacity: 1.0;stroke-width: 0.100000;stroke-opacity: 1;stroke-linecap: round;stroke-linejoin: round;fill-rule: evenodd" d="M 18892500.000000,8395625.000000 18890450.500000,8408565.100000 18884502.600000,8420238.500000 18875238.500000,8429502.600000 18863565.100000,8435450.500000 18850625.000000,8437500.000000 18806875.000000,8437500.000000 18793934.900000,8435450.500000 18782261.500000,8429502.600000 18772997.400000,8420238.500000 18767049.500000,8408565.100000 18765000.000000,8395625.000000 18765000.000000,8344375.000000 18767049.500000,8331434.900000 18772997.400000,8319761.500000 18782261.500000,8310497.400000 18793934.900000,8304549.500000 18806875.000000,8302500.000000 18850625.000000,8302500.000000 18863565.100000,8304549.500000 18875238.500000,8310497.400000 18884502.600000,8319761.500000 18890450.500000,8331434.900000 18892500.000000,8344375.000000 Z"/> 
<path style="fill-opacity: 1.0;stroke-width: 0.100000;stroke-opacity: 1;stroke-linecap: round;stroke-linejoin: round;fill-rule: evenodd" d="M 18735000.000000,8395625.000000 18732950.500000,8408565.100000 18727002.600000,8420238.500000 18717738.500000,8429502.600000 18706065.100000,8435450.500000 18693125.000000,8437500.000000 18649375.000000,8437500.000000 18636434.900000,8435450.500000 18624761.500000,8429502.600000 18615497.400000,8420238.500000 18609549.500000,8408565.100000 18607500.000000,8395625.000000 18607500.000000,8344375.000000 18609549.500000,8331434.900000 18615497.400000,8319761.500000 18624761.500000,8310497.400000 18636434.900000,8304549.500000 18649375.000000,8302500.000000 18693125.000000,8302500.000000 18706065.100000,8304549.500000 18717738.500000,8310497.400000 18727002.600000,8319761.500000 18732950.500000,8331434.900000 18735000.000000,8344375.000000 Z"/> 
</g>
<g style="fill-opacity: 1.0;stroke-width: 0.100000;stroke-opacity: 1;stroke-linecap: round;stroke-linejoin: round">
<path style="fill-opacity: 1.0;stroke-width: 0.100000;stroke-opacity: 1;stroke-linecap: round;stroke-linejoin: round;fill-rule: evenodd" d="M 18522500.000000,7779500.000000 18524022.400000,7771846.300000 18528357.900000,7765357.900000 18534846.300000,7761022.400000 18542500.000000,7759500.000000 18697500.000000,7759500.000000 18705153.700000,7761022.400000 18711642.100000,7765357.900000 18715977.600000,7771846.300000 18717500.000000,7779500.000000 18717500.000000,7839500.000000 18715977.600000,7847153.700000 18711642.100000,7853642.100000 18705153.700000,7857977.600000 18697500.000000,7859500.000000 18542500.000000,7859500.000000 18534846.300000,7857977.600000 18528357.900000,7853642.100000 18524022.400000,7847153.700000 18522500.000000,7839500.000000 Z"/> 
<path style="fill-opacity: 1.0;stroke-width: 0.100000;stroke-opacity: 1;stroke-linecap: round;stroke-linejoin: round;fill-rule: evenodd" d="M 18522500.000000,7906500.000000 18524022.400000,7898846.300000 18528357.900000,7892357.900000 18534846.300000,7888022.400000 18542500.000000,7886500.000000 18697500.000000,7886500.000000 18705153.700000,7888022.400000 18711642.100000,7892357.900000 18715977.600000,7898846.300000 18717500.000000,7906500.000000 18717500.000000,7966500.000000 18715977.600000,7974153.700000 18711642.100000,7980642.100000 18705153.700000,7984977.600000 18697500.000000,7986500.000000 18542500.000000,7986500.000000 18534846.300000,7984977.600000 18528357.900000,7980642.100000 18524022.400000,7974153.700000 18522500.000000,7966500.000000 Z"/> 
<path style="fill-opacity: 1.0;stroke-width: 0.100000;stroke-opacity: 1;stroke-linecap: round;stroke-linejoin: round;fill-rule: evenodd" d="M 18522500.000000,8033500.000000 18524022.400000,8025846.300000 18528357.900000,8019357.900000 18534846.300000,8015022.400000 18542500.000000,8013500.000000 18697500.000000,8013500.000000 18705153.700000,8015022.400000 18711642.100000,8019357.900000 18715977.600000,8025846.300000 18717500.000000,8033500.000000 18717500.000000,8093500.000000 18715977.600000,8101153.700000 18711642.100000,8107642.100000 18705153.700000,8111977.600000 18697500.000000,8113500.000000 18542500.000000,8113500.000000 18534846.300000,8111977.600000 18528357.900000,8107642.100000 18524022.400000,8101153.700000 18522500.000000,8093500.000000 Z"/> 
<path style="fill-opacity: 1.0;stroke-width: 0.100000;stroke-opacity: 1;stroke-linecap: round;stroke-linejoin: round;fill-rule: evenodd" d="M 18522500.000000,8160500.000000 18524022.400000,8152846.300000 18528357.900000,8146357.900000 18534846.300000,8142022.400000 18542500.000000,8140500.000000 18697500.000000,8140500.000000 18705153.700000,8142022.400000 18711642.100000,8146357.900000 18715977.600000,8152846.300000 18717500.000000,8160500.000000 18717500.000000,8220500.000000 18715977.600000,8228153.700000 18711642.100000,8234642.100000 18705153.700000,8238977.600000 18697500.000000,8240500.000000 18542500.000000,8240500.000000 18534846.300000,8238977.600000 18528357.900000,8234642.100000 18524022.400000,8228153.700000 18522500.000000,8220500.000000 Z"/> 
<path style="fill-opacity: 1.0;stroke-width: 0.100000;stroke-opacity: 1;stroke-linecap: round;stroke-linejoin: round;fill-rule: evenodd" d="M 19062500.000000,8160500.000000 19064022.400000,8152846.300000 19068357.900000,8146357.900000 19074846.300000,8142022.400000 19082500.000000,8140500.000000 19237500.000000,8140500.000000 19245153.700000,8142022.400000 19251642.100000,8146357.900000 19255977.600000,8152846.300000 19257500.000000,8160500.000000 19257500.000000,8220500.000000 19255977.600000,8228153.700000 19251642.100000,8234642.100000 19245153.700000,8238977.600000 19237500.000000,8240500.000000 19082500.000000,8240500.000000 19074846.300000,8238977.600000 19068357.900000,8234642.100000 19064022.400000,8228153.700000 19062500.000000,8220500.000000 Z"/> 
<path style="fill-opacity: 1.0;stroke-width: 0.100000;stroke-opacity: 1;stroke-linecap: round;stroke-linejoin: round;fill-rule: evenodd" d="M 19062500.000000,8033500.000000 19064022.400000,8025846.300000 19068357.900000,8019357.900000 19074846.300000,8015022.400000 19082500.000000,8013500.000000 19237500.000000,8013500.000000 19245153.700000,8015022.400000 19251642.100000,8019357.900000 19255977.600000,8025846.300000 19257500.000000,8033500.000000 19257500.000000,8093500.000000 19255977.600000,8101153.700000 19251642.100000,8107642.100000 19245153.700000,8111977.600000 19237500.000000,8113500.000000 19082500.000000,8113500.000000 19074846.300000,8111977.600000 19068357.900000,8107642.100000 19064022.400000,8101153.700000 19062500.000000,8093500.000000 Z"/> 
<path style="fill-opacity: 1.0;stroke-width: 0.100000;stroke-opacity: 1;stroke-linecap: round;stroke-linejoin: round;fill-rule: evenodd" d="M 19062500.000000,7906500.000000 19064022.400000,7898846.300000 19068357.900000,7892357.900000 19074846.300000,7888022.400000 19082500.000000,7886500.000000 19237500.000000,7886500.000000 19245153.700000,7888022.400000 19251642.100000,7892357.900000 19255977.600000,7898846.300000 19257500.000000,7906500.000000 19257500.000000,7966500.000000 19255977.600000,7974153.700000 19251642.100000,7980642.100000 19245153.700000,7984977.600000 19237500.000000,7986500.000000 19082500.000000,7986500.000000 19074846.300000,7984977.600000 19068357.900000,7980642.100000 19064022.400000,7974153.700000 19062500.000000,7966500.000000 Z"/> 
<path style="fill-opacity: 1.0;stroke-width: 0.100000;stroke-opacity: 1;stroke-linecap: round;stroke-linejoin: round;fill-rule: evenodd" d="M 19062500.000000,7779500.000000 19064022.400000,7771846.300000 19068357.900000,7765357.900000 19074846.300000,7761022.400000 19082500.000000,7759500.000000 19237500.000000,7759500.000000 19245153.700000,7761022.400000 19251642.100000,7765357.900000 19255977.600000,7771846.300000 19257500.000000,7779500.000000 19257500.000000,7839500.000000 19255977.600000,7847153.700000 19251642.100000,7853642.100000 19245153.700000,7857977.600000 19237500.000000,7859500.000000 19082500.000000,7859500.000000 19074846.300000,7857977.600000 19068357.900000,7853642.100000 19064022.400000,7847153.700000 19062500.000000,7839500.000000 Z"/> 
</g>
<g style="fill-opacity: 1.0;stroke-width: 0.100000;stroke-opacity: 1;stroke-linecap: round;stroke-linejoin: round">
<path style="fill-opacity: 1.0;stroke-width: 0.100000;stroke-opacity: 1;stroke-linecap: round;stroke-linejoin: round;fill-rule: evenodd" d="M 19075000.000000,7604375.000000 19077049.500000,7591434.900000 19082997.400000,7579761.500000 19092261.500000,7570497.400000 19103934.900000,7564549.500000 19116875.000000,7562500.000000 19160625.000000,7562500.000000 19173565.100000,7564549.500000 19185238.500000,7570497.400000 19194502.600000,7579761.500000 19200450.500000,7591434.900000 19202500.000000,7604375.000000 19202500.000000,7655625.000000 19200450.500000,7668565.100000 19194502.600000,7680238.500000 19185238.500000,7689502.600000 19173565.100000,7695450.500000 19160625.000000,7697500.000000 19116875.000000,7697500.000000 19103934.900000,7695450.500000 19092261.500000,7689502.600000 19082997.400000,7680238.500000 19077049.500000,7668565.100000 19075000.000000,7655625.000000 Z"/> 
<path style="fill-opacity: 1.0;stroke-width: 0.100000;stroke-opacity: 1;stroke-linecap: round;stroke-linejoin: round;fill-rule: evenodd" d="M 18917500.000000,7604375.000000 18919549.500000,7591434.900000 18925497.400000,7579761.500000 18934761.500000,7570497.400000 18946434.900000,7564549.500000 18959375.000000,7562500.000000 19003125.000000,7562500.000000 19016065.100000,7564549.500000 19027738.500000,7570497.400000 19037002.600000,7579761.500000 19042950.500000,7591434.900000 19045000.000000,7604375.000000 19045000.000000,7655625.000000 19042950.500000,7668565.100000 19037002.600000,7680238.500000 19027738.500000,7689502.600000 19016065.100000,7695450.500000 19003125.000000,7697500.000000 18959375.000000,7697500.000000 18946434.900000,7695450.500000 18934761.500000,7689502.600000 18925497.400000,7680238.500000 18919549.500000,7668565.100000 18917500.000000,7655625.000000 Z"/> 
</g>
<g style="fill-opacity: 1.0;stroke-width: 0.100000;stroke-opacity: 1;stroke-linecap: round;stroke-linejoin: round">
<path style="fill-opacity: 1.0;stroke-width: 0.100000;stroke-opacity: 1;stroke-linecap: round;stroke-linejoin: round;fill-rule: evenodd" d="M 18917500.000000,8344375.000000 18919549.500000,8331434.900000 18925497.400000,8319761.500000 18934761.500000,8310497.400000 18946434.900000,8304549.500000 18959375.000000,8302500.000000 19003125.000000,8302500.000000 19016065.100000,8304549.500000 19027738.500000,8310497.400000 19037002.600000,8319761.500000 19042950.500000,8331434.900000 19045000.000000,8344375.000000 19045000.000000,8395625.000000 19042950.500000,8408565.100000 19037002.600000,8420238.500000 19027738.500000,8429502.600000 19016065.100000,8435450.500000 19003125.000000,8437500.000000 18959375.000000,8437500.000000 18946434.900000,8435450.500000 18934761.500000,8429502.600000 18925497.400000,8420238.500000 18919549.500000,8408565.100000 18917500.000000,8395625.000000 Z"/> 
<path style="fill-opacity: 1.0;stroke-width: 0.100000;stroke-opacity: 1;stroke-linecap: round;stroke-linejoin: round;fill-rule: evenodd" d="M 19075000.000000,8344375.000000 19077049.500000,8331434.900000 19082997.400000,8319761.500000 19092261.500000,8310497.400000 19103934.900000,8304549.500000 19116875.000000,8302500.000000 19160625.000000,8302500.000000 19173565.100000,8304549.500000 19185238.500000,8310497.400000 19194502.600000,8319761.500000 19200450.500000,8331434.900000 19202500.000000,8344375.000000 19202500.000000,8395625.000000 19200450.500000,8408565.100000 19194502.600000,8420238.500000 19185238.500000,8429502.600000 19173565.100000,8435450.500000 19160625.000000,8437500.000000 19116875.000000,8437500.000000 19103934.900000,8435450.500000 19092261.500000,8429502.600000 19082997.400000,8420238.500000 19077049.500000,8408565.100000 19075000.000000,8395625.000000 Z"/> 
</g>
</g> 
</g><g id="substrate-copper" style="fill:#417e5a; stroke:#417e5a;"><g style="fill-opacity: 0.0;stroke-width: 0.000000;stroke-opacity: 1;stroke-linecap: round;stroke-linejoin: round">
<g style="fill-opacity: 1.0;stroke-width: 0.100000;stroke-opacity: 1;stroke-linecap: round;stroke-linejoin: round">
<path style="fill-opacity: 1.0;stroke-width: 0.100000;stroke-opacity: 1;stroke-linecap: round;stroke-linejoin: round;fill-rule: evenodd" d="M 19295000.000000,7705000.000000 19295000.000000,7535000.000000 19465000.000000,7535000.000000 19465000.000000,7705000.000000 Z"/> 
<circle cx="19380000.000000" cy="7874000.000000" r="85000.000000"/> 
<circle cx="19380000.000000" cy="8128000.000000" r="85000.000000"/> 
<circle cx="19380000.000000" cy="8382000.000000" r="85000.000000"/> 
</g>
<g style="fill-opacity: 1.0;stroke-width: 0.100000;stroke-opacity: 1;stroke-linecap: round;stroke-linejoin: round">
<path style="fill-opacity: 1.0;stroke-width: 0.100000;stroke-opacity: 1;stroke-linecap: round;stroke-linejoin: round;fill-rule: evenodd" d="M 18715000.000000,7655625.000000 18713334.900000,7663996.200000 18708593.000000,7671093.000000 18701496.200000,7675834.900000 18693125.000000,7677500.000000 18649375.000000,7677500.000000 18641003.800000,7675834.900000 18633907.000000,7671093.000000 18629165.100000,7663996.200000 18627500.000000,7655625.000000 18627500.000000,7604375.000000 18629165.100000,7596003.800000 18633907.000000,7588907.000000 18641003.800000,7584165.100000 18649375.000000,7582500.000000 18693125.000000,7582500.000000 18701496.200000,7584165.100000 18708593.000000,7588907.000000 18713334.900000,7596003.800000 18715000.000000,7604375.000000 Z"/> 
<path style="fill-opacity: 1.0;stroke-width: 0.100000;stroke-opacity: 1;stroke-linecap: round;stroke-linejoin: round;fill-rule: evenodd" d="M 18872500.000000,7655625.000000 18870834.900000,7663996.200000 18866093.000000,7671093.000000 18858996.200000,7675834.900000 18850625.000000,7677500.000000 18806875.000000,7677500.000000 18798503.800000,7675834.900000 18791407.000000,7671093.000000 18786665.100000,7663996.200000 18785000.000000,7655625.000000 18785000.000000,7604375.000000 18786665.100000,7596003.800000 18791407.000000,7588907.000000 18798503.800000,7584165.100000 18806875.000000,7582500.000000 18850625.000000,7582500.000000 18858996.200000,7584165.100000 18866093.000000,7588907.000000 18870834.900000,7596003.800000 18872500.000000,7604375.000000 Z"/> 
</g>
<g style="fill-opacity: 1.0;stroke-width: 0.100000;stroke-opacity: 1;stroke-linecap: round;stroke-linejoin: round">
<path style="fill-opacity: 1.0;stroke-width: 0.100000;stroke-opacity: 1;stroke-linecap: round;stroke-linejoin: round;fill-rule: evenodd" d="M 18872500.000000,8395625.000000 18870834.900000,8403996.200000 18866093.000000,8411093.000000 18858996.200000,8415834.900000 18850625.000000,8417500.000000 18806875.000000,8417500.000000 18798503.800000,8415834.900000 18791407.000000,8411093.000000 18786665.100000,8403996.200000 18785000.000000,8395625.000000 18785000.000000,8344375.000000 18786665.100000,8336003.800000 18791407.000000,8328907.000000 18798503.800000,8324165.100000 18806875.000000,8322500.000000 18850625.000000,8322500.000000 18858996.200000,8324165.100000 18866093.000000,8328907.000000 18870834.900000,8336003.800000 18872500.000000,8344375.000000 Z"/> 
<path style="fill-opacity: 1.0;stroke-width: 0.100000;stroke-opacity: 1;stroke-linecap: round;stroke-linejoin: round;fill-rule: evenodd" d="M 18715000.000000,8395625.000000 18713334.900000,8403996.200000 18708593.000000,8411093.000000 18701496.200000,8415834.900000 18693125.000000,8417500.000000 18649375.000000,8417500.000000 18641003.800000,8415834.900000 18633907.000000,8411093.000000 18629165.100000,8403996.200000 18627500.000000,8395625.000000 18627500.000000,8344375.000000 18629165.100000,8336003.800000 18633907.000000,8328907.000000 18641003.800000,8324165.100000 18649375.000000,8322500.000000 18693125.000000,8322500.000000 18701496.200000,8324165.100000 18708593.000000,8328907.000000 18713334.900000,8336003.800000 18715000.000000,8344375.000000 Z"/> 
</g>
<g style="fill-opacity: 1.0;stroke-width: 0.100000;stroke-opacity: 1;stroke-linecap: round;stroke-linejoin: round">
<path style="fill-opacity: 1.0;stroke-width: 0.100000;stroke-opacity: 1;stroke-linecap: round;stroke-linejoin: round;fill-rule: evenodd" d="M 18542500.000000,7839500.000000 18542500.000000,7779500.000000 18697500.000000,7779500.000000 18697500.000000,7839500.000000 Z"/> 
<path style="fill-opacity: 1.0;stroke-width: 0.100000;stroke-opacity: 1;stroke-linecap: round;stroke-linejoin: round;fill-rule: evenodd" d="M 18542500.000000,7966500.000000 18542500.000000,7906500.000000 18697500.000000,7906500.000000 18697500.000000,7966500.000000 Z"/> 
<path style="fill-opacity: 1.0;stroke-width: 0.100000;stroke-opacity: 1;stroke-linecap: round;stroke-linejoin: round;fill-rule: evenodd" d="M 18542500.000000,8093500.000000 18542500.000000,8033500.000000 18697500.000000,8033500.000000 18697500.000000,8093500.000000 Z"/> 
<path style="fill-opacity: 1.0;stroke-width: 0.100000;stroke-opacity: 1;stroke-linecap: round;stroke-linejoin: round;fill-rule: evenodd" d="M 18542500.000000,8220500.000000 18542500.000000,8160500.000000 18697500.000000,8160500.000000 18697500.000000,8220500.000000 Z"/> 
<path style="fill-opacity: 1.0;stroke-width: 0.100000;stroke-opacity: 1;stroke-linecap: round;stroke-linejoin: round;fill-rule: evenodd" d="M 19082500.000000,8220500.000000 19082500.000000,8160500.000000 19237500.000000,8160500.000000 19237500.000000,8220500.000000 Z"/> 
<path style="fill-opacity: 1.0;stroke-width: 0.100000;stroke-opacity: 1;stroke-linecap: round;stroke-linejoin: round;fill-rule: evenodd" d="M 19082500.000000,8093500.000000 19082500.000000,8033500.000000 19237500.000000,8033500.000000 19237500.000000,8093500.000000 Z"/> 
<path style="fill-opacity: 1.0;stroke-width: 0.100000;stroke-opacity: 1;stroke-linecap: round;stroke-linejoin: round;fill-rule: evenodd" d="M 19082500.000000,7966500.000000 19082500.000000,7906500.000000 19237500.000000,7906500.000000 19237500.000000,7966500.000000 Z"/> 
<path style="fill-opacity: 1.0;stroke-width: 0.100000;stroke-opacity: 1;stroke-linecap: round;stroke-linejoin: round;fill-rule: evenodd" d="M 19082500.000000,7839500.000000 19082500.000000,7779500.000000 19237500.000000,7779500.000000 19237500.000000,7839500.000000 Z"/> 
</g>
<g style="fill-opacity: 1.0;stroke-width: 0.100000;stroke-opacity: 1;stroke-linecap: round;stroke-linejoin: round">
<path style="fill-opacity: 1.0;stroke-width: 0.100000;stroke-opacity: 1;stroke-linecap: round;stroke-linejoin: round;fill-rule: evenodd" d="M 19095000.000000,7604375.000000 19096665.100000,7596003.800000 19101407.000000,7588907.000000 19108503.800000,7584165.100000 19116875.000000,7582500.000000 19160625.000000,7582500.000000 19168996.200000,7584165.100000 19176093.000000,7588907.000000 19180834.900000,7596003.800000 19182500.000000,7604375.000000 19182500.000000,7655625.000000 19180834.900000,7663996.200000 19176093.000000,7671093.000000 19168996.200000,7675834.900000 19160625.000000,7677500.000000 19116875.000000,7677500.000000 19108503.800000,7675834.900000 19101407.000000,7671093.000000 19096665.100000,7663996.200000 19095000.000000,7655625.000000 Z"/> 
<path style="fill-opacity: 1.0;stroke-width: 0.100000;stroke-opacity: 1;stroke-linecap: round;stroke-linejoin: round;fill-rule: evenodd" d="M 18937500.000000,7604375.000000 18939165.100000,7596003.800000 18943907.000000,7588907.000000 18951003.800000,7584165.100000 18959375.000000,7582500.000000 19003125.000000,7582500.000000 19011496.200000,7584165.100000 19018593.000000,7588907.000000 19023334.900000,7596003.800000 19025000.000000,7604375.000000 19025000.000000,7655625.000000 19023334.900000,7663996.200000 19018593.000000,7671093.000000 19011496.200000,7675834.900000 19003125.000000,7677500.000000 18959375.000000,7677500.000000 18951003.800000,7675834.900000 18943907.000000,7671093.000000 18939165.100000,7663996.200000 18937500.000000,7655625.000000 Z"/> 
</g>
<g style="fill-opacity: 1.0;stroke-width: 0.100000;stroke-opacity: 1;stroke-linecap: round;stroke-linejoin: round">
<path style="fill-opacity: 1.0;stroke-width: 0.100000;stroke-opacity: 1;stroke-linecap: round;stroke-linejoin: round;fill-rule: evenodd" d="M 18937500.000000,8344375.000000 18939165.100000,8336003.800000 18943907.000000,8328907.000000 18951003.800000,8324165.100000 18959375.000000,8322500.000000 19003125.000000,8322500.000000 19011496.200000,8324165.100000 19018593.000000,8328907.000000 19023334.900000,8336003.800000 19025000.000000,8344375.000000 19025000.000000,8395625.000000 19023334.900000,8403996.200000 19018593.000000,8411093.000000 19011496.200000,8415834.900000 19003125.000000,8417500.000000 18959375.000000,8417500.000000 18951003.800000,8415834.900000 18943907.000000,8411093.000000 18939165.100000,8403996.200000 18937500.000000,8395625.000000 Z"/> 
<path style="fill-opacity: 1.0;stroke-width: 0.100000;stroke-opacity: 1;stroke-linecap: round;stroke-linejoin: round;fill-rule: evenodd" d="M 19095000.000000,8344375.000000 19096665.100000,8336003.800000 19101407.000000,8328907.000000 19108503.800000,8324165.100000 19116875.000000,8322500.000000 19160625.000000,8322500.000000 19168996.200000,8324165.100000 19176093.000000,8328907.000000 19180834.900000,8336003.800000 19182500.000000,8344375.000000 19182500.000000,8395625.000000 19180834.900000,8403996.200000 19176093.000000,8411093.000000 19168996.200000,8415834.900000 19160625.000000,8417500.000000 19116875.000000,8417500.000000 19108503.800000,8415834.900000 19101407.000000,8411093.000000 19096665.100000,8403996.200000 19095000.000000,8395625.000000 Z"/> 
</g>
<g style="fill-opacity: 1.0;stroke-width: 0.100000;stroke-opacity: 1;stroke-linecap: round;stroke-linejoin: round">
<circle cx="18807499.000000" cy="7984577.900000" r="30000.000000"/> 
</g>
<g style="fill-opacity: 1.0;stroke-width: 0.100000;stroke-opacity: 1;stroke-linecap: round;stroke-linejoin: round">
<circle cx="18807499.000000" cy="8077890.700000" r="30000.000000"/> 
</g>
<g style="fill-opacity: 1.0;stroke-width: 0.100000;stroke-opacity: 1;stroke-linecap: round;stroke-linejoin: round">
<circle cx="18788632.500000" cy="8155635.500000" r="30000.000000"/> 
</g>
<g style="fill-opacity: 1.0;stroke-width: 0.100000;stroke-opacity: 1;stroke-linecap: round;stroke-linejoin: round">
<circle cx="19140000.000000" cy="7730000.000000" r="30000.000000"/> 
</g>
<g style="fill-opacity: 0.0;stroke-width: 60000.000000;stroke-opacity: 1;stroke-linecap: round;stroke-linejoin: round">
<path d="M19188500 8190500 L19380000 8382000 "/>
<path d="M19160000 8190500 L19188500 8190500 "/>
</g>
<g style="fill-opacity: 0.0;stroke-width: 25000.000000;stroke-opacity: 1;stroke-linecap: round;stroke-linejoin: round">
<path d="M19184292 8457499 L19259791 8382000 "/>
<path d="M18699999 8457499 L19184292 8457499 "/>
<path d="M18670000 8427500 L18699999 8457499 "/>
<path d="M18870000 7886250 L18870000 8170000 "/>
<path d="M18670000 8370000 L18670000 8427500 "/>
<path d="M18671250 7630000 L18671250 7687500 "/>
<path d="M19259791 8382000 L19380000 8382000 "/>
<path d="M18870000 8170000 L18670000 8370000 "/>
<path d="M18671250 7687500 L18870000 7886250 "/>
</g>
<g style="fill-opacity: 0.0;stroke-width: 20000.000000;stroke-opacity: 1;stroke-linecap: round;stroke-linejoin: round">
<path d="M18667500 7809500 L18807499 7949499 "/>
<path d="M18620000 7809500 L18667500 7809500 "/>
<path d="M18807499 7949499 L18807499 7984577 "/>
<path d="M18777499 8047890 L18807499 8077890 "/>
<path d="M18667500 7936500 L18717500 7986500 "/>
<path d="M18717500 7986500 L18717500 7987891 "/>
<path d="M18717500 7987891 L18777499 8047890 "/>
<path d="M18620000 7936500 L18667500 7936500 "/>
</g>
<g style="fill-opacity: 0.0;stroke-width: 25000.000000;stroke-opacity: 1;stroke-linecap: round;stroke-linejoin: round">
<path d="M18696497 8063500 L18620000 8063500 "/>
<path d="M18788632 8155635 L18696497 8063500 "/>
</g>
<g style="fill-opacity: 0.0;stroke-width: 20000.000000;stroke-opacity: 1;stroke-linecap: round;stroke-linejoin: round">
<path d="M19315500 8063500 L19380000 8128000 "/>
<path d="M19160000 8063500 L19315500 8063500 "/>
<path d="M19092588 8333838 L19138750 8380000 "/>
<path d="M19040000 8281250 L19092588 8333838 "/>
<path d="M19160000 8063500 L19112500 8063500 "/>
<path d="M19040000 8136000 L19040000 8281250 "/>
<path d="M19112500 8063500 L19040000 8136000 "/>
<path d="M19317500 7936500 L19380000 7874000 "/>
<path d="M19160000 7936500 L19317500 7936500 "/>
<path d="M19092588 7656161 L19138750 7610000 "/>
<path d="M19052499 7876499 L19052499 7696250 "/>
<path d="M19052499 7696250 L19092588 7656161 "/>
<path d="M19112500 7936500 L19052499 7876499 "/>
<path d="M19160000 7936500 L19112500 7936500 "/>
<path d="M19160000 7809500 L19160000 7750000 "/>
<path d="M19160000 7750000 L19140000 7730000 "/>
<path d="M18981250 8370000 L18827500 8370000 "/>
<path d="M18828750 7630000 L18981250 7630000 "/>
</g>
</g> 
</g><g id="substrate-pads" style="fill:#b5ae30; stroke:#b5ae30;" mask="url(#pads-mask)"><g style="fill-opacity: 0.0;stroke-width: 0.000000;stroke-opacity: 1;stroke-linecap: round;stroke-linejoin: round">
<g style="fill-opacity: 1.0;stroke-width: 0.100000;stroke-opacity: 1;stroke-linecap: round;stroke-linejoin: round">
<path style="fill-opacity: 1.0;stroke-width: 0.100000;stroke-opacity: 1;stroke-linecap: round;stroke-linejoin: round;fill-rule: evenodd" d="M 19295000.000000,7705000.000000 19295000.000000,7535000.000000 19465000.000000,7535000.000000 19465000.000000,7705000.000000 Z"/> 
<circle cx="19380000.000000" cy="7874000.000000" r="85000.000000"/> 
<circle cx="19380000.000000" cy="8128000.000000" r="85000.000000"/> 
<circle cx="19380000.000000" cy="8382000.000000" r="85000.000000"/> 
</g>
<g style="fill-opacity: 1.0;stroke-width: 0.100000;stroke-opacity: 1;stroke-linecap: round;stroke-linejoin: round">
<path style="fill-opacity: 1.0;stroke-width: 0.100000;stroke-opacity: 1;stroke-linecap: round;stroke-linejoin: round;fill-rule: evenodd" d="M 18715000.000000,7655625.000000 18713334.900000,7663996.200000 18708593.000000,7671093.000000 18701496.200000,7675834.900000 18693125.000000,7677500.000000 18649375.000000,7677500.000000 18641003.800000,7675834.900000 18633907.000000,7671093.000000 18629165.100000,7663996.200000 18627500.000000,7655625.000000 18627500.000000,7604375.000000 18629165.100000,7596003.800000 18633907.000000,7588907.000000 18641003.800000,7584165.100000 18649375.000000,7582500.000000 18693125.000000,7582500.000000 18701496.200000,7584165.100000 18708593.000000,7588907.000000 18713334.900000,7596003.800000 18715000.000000,7604375.000000 Z"/> 
<path style="fill-opacity: 1.0;stroke-width: 0.100000;stroke-opacity: 1;stroke-linecap: round;stroke-linejoin: round;fill-rule: evenodd" d="M 18872500.000000,7655625.000000 18870834.900000,7663996.200000 18866093.000000,7671093.000000 18858996.200000,7675834.900000 18850625.000000,7677500.000000 18806875.000000,7677500.000000 18798503.800000,7675834.900000 18791407.000000,7671093.000000 18786665.100000,7663996.200000 18785000.000000,7655625.000000 18785000.000000,7604375.000000 18786665.100000,7596003.800000 18791407.000000,7588907.000000 18798503.800000,7584165.100000 18806875.000000,7582500.000000 18850625.000000,7582500.000000 18858996.200000,7584165.100000 18866093.000000,7588907.000000 18870834.900000,7596003.800000 18872500.000000,7604375.000000 Z"/> 
</g>
<g style="fill-opacity: 1.0;stroke-width: 0.100000;stroke-opacity: 1;stroke-linecap: round;stroke-linejoin: round">
<path style="fill-opacity: 1.0;stroke-width: 0.100000;stroke-opacity: 1;stroke-linecap: round;stroke-linejoin: round;fill-rule: evenodd" d="M 18872500.000000,8395625.000000 18870834.900000,8403996.200000 18866093.000000,8411093.000000 18858996.200000,8415834.900000 18850625.000000,8417500.000000 18806875.000000,8417500.000000 18798503.800000,8415834.900000 18791407.000000,8411093.000000 18786665.100000,8403996.200000 18785000.000000,8395625.000000 18785000.000000,8344375.000000 18786665.100000,8336003.800000 18791407.000000,8328907.000000 18798503.800000,8324165.100000 18806875.000000,8322500.000000 18850625.000000,8322500.000000 18858996.200000,8324165.100000 18866093.000000,8328907.000000 18870834.900000,8336003.800000 18872500.000000,8344375.000000 Z"/> 
<path style="fill-opacity: 1.0;stroke-width: 0.100000;stroke-opacity: 1;stroke-linecap: round;stroke-linejoin: round;fill-rule: evenodd" d="M 18715000.000000,8395625.000000 18713334.900000,8403996.200000 18708593.000000,8411093.000000 18701496.200000,8415834.900000 18693125.000000,8417500.000000 18649375.000000,8417500.000000 18641003.800000,8415834.900000 18633907.000000,8411093.000000 18629165.100000,8403996.200000 18627500.000000,8395625.000000 18627500.000000,8344375.000000 18629165.100000,8336003.800000 18633907.000000,8328907.000000 18641003.800000,8324165.100000 18649375.000000,8322500.000000 18693125.000000,8322500.000000 18701496.200000,8324165.100000 18708593.000000,8328907.000000 18713334.900000,8336003.800000 18715000.000000,8344375.000000 Z"/> 
</g>
<g style="fill-opacity: 1.0;stroke-width: 0.100000;stroke-opacity: 1;stroke-linecap: round;stroke-linejoin: round">
<path style="fill-opacity: 1.0;stroke-width: 0.100000;stroke-opacity: 1;stroke-linecap: round;stroke-linejoin: round;fill-rule: evenodd" d="M 18542500.000000,7839500.000000 18542500.000000,7779500.000000 18697500.000000,7779500.000000 18697500.000000,7839500.000000 Z"/> 
<path style="fill-opacity: 1.0;stroke-width: 0.100000;stroke-opacity: 1;stroke-linecap: round;stroke-linejoin: round;fill-rule: evenodd" d="M 18542500.000000,7966500.000000 18542500.000000,7906500.000000 18697500.000000,7906500.000000 18697500.000000,7966500.000000 Z"/> 
<path style="fill-opacity: 1.0;stroke-width: 0.100000;stroke-opacity: 1;stroke-linecap: round;stroke-linejoin: round;fill-rule: evenodd" d="M 18542500.000000,8093500.000000 18542500.000000,8033500.000000 18697500.000000,8033500.000000 18697500.000000,8093500.000000 Z"/> 
<path style="fill-opacity: 1.0;stroke-width: 0.100000;stroke-opacity: 1;stroke-linecap: round;stroke-linejoin: round;fill-rule: evenodd" d="M 18542500.000000,8220500.000000 18542500.000000,8160500.000000 18697500.000000,8160500.000000 18697500.000000,8220500.000000 Z"/> 
<path style="fill-opacity: 1.0;stroke-width: 0.100000;stroke-opacity: 1;stroke-linecap: round;stroke-linejoin: round;fill-rule: evenodd" d="M 19082500.000000,8220500.000000 19082500.000000,8160500.000000 19237500.000000,8160500.000000 19237500.000000,8220500.000000 Z"/> 
<path style="fill-opacity: 1.0;stroke-width: 0.100000;stroke-opacity: 1;stroke-linecap: round;stroke-linejoin: round;fill-rule: evenodd" d="M 19082500.000000,8093500.000000 19082500.000000,8033500.000000 19237500.000000,8033500.000000 19237500.000000,8093500.000000 Z"/> 
<path style="fill-opacity: 1.0;stroke-width: 0.100000;stroke-opacity: 1;stroke-linecap: round;stroke-linejoin: round;fill-rule: evenodd" d="M 19082500.000000,7966500.000000 19082500.000000,7906500.000000 19237500.000000,7906500.000000 19237500.000000,7966500.000000 Z"/> 
<path style="fill-opacity: 1.0;stroke-width: 0.100000;stroke-opacity: 1;stroke-linecap: round;stroke-linejoin: round;fill-rule: evenodd" d="M 19082500.000000,7839500.000000 19082500.000000,7779500.000000 19237500.000000,7779500.000000 19237500.000000,7839500.000000 Z"/> 
</g>
<g style="fill-opacity: 1.0;stroke-width: 0.100000;stroke-opacity: 1;stroke-linecap: round;stroke-linejoin: round">
<path style="fill-opacity: 1.0;stroke-width: 0.100000;stroke-opacity: 1;stroke-linecap: round;stroke-linejoin: round;fill-rule: evenodd" d="M 19095000.000000,7604375.000000 19096665.100000,7596003.800000 19101407.000000,7588907.000000 19108503.800000,7584165.100000 19116875.000000,7582500.000000 19160625.000000,7582500.000000 19168996.200000,7584165.100000 19176093.000000,7588907.000000 19180834.900000,7596003.800000 19182500.000000,7604375.000000 19182500.000000,7655625.000000 19180834.900000,7663996.200000 19176093.000000,7671093.000000 19168996.200000,7675834.900000 19160625.000000,7677500.000000 19116875.000000,7677500.000000 19108503.800000,7675834.900000 19101407.000000,7671093.000000 19096665.100000,7663996.200000 19095000.000000,7655625.000000 Z"/> 
<path style="fill-opacity: 1.0;stroke-width: 0.100000;stroke-opacity: 1;stroke-linecap: round;stroke-linejoin: round;fill-rule: evenodd" d="M 18937500.000000,7604375.000000 18939165.100000,7596003.800000 18943907.000000,7588907.000000 18951003.800000,7584165.100000 18959375.000000,7582500.000000 19003125.000000,7582500.000000 19011496.200000,7584165.100000 19018593.000000,7588907.000000 19023334.900000,7596003.800000 19025000.000000,7604375.000000 19025000.000000,7655625.000000 19023334.900000,7663996.200000 19018593.000000,7671093.000000 19011496.200000,7675834.900000 19003125.000000,7677500.000000 18959375.000000,7677500.000000 18951003.800000,7675834.900000 18943907.000000,7671093.000000 18939165.100000,7663996.200000 18937500.000000,7655625.000000 Z"/> 
</g>
<g style="fill-opacity: 1.0;stroke-width: 0.100000;stroke-opacity: 1;stroke-linecap: round;stroke-linejoin: round">
<path style="fill-opacity: 1.0;stroke-width: 0.100000;stroke-opacity: 1;stroke-linecap: round;stroke-linejoin: round;fill-rule: evenodd" d="M 18937500.000000,8344375.000000 18939165.100000,8336003.800000 18943907.000000,8328907.000000 18951003.800000,8324165.100000 18959375.000000,8322500.000000 19003125.000000,8322500.000000 19011496.200000,8324165.100000 19018593.000000,8328907.000000 19023334.900000,8336003.800000 19025000.000000,8344375.000000 19025000.000000,8395625.000000 19023334.900000,8403996.200000 19018593.000000,8411093.000000 19011496.200000,8415834.900000 19003125.000000,8417500.000000 18959375.000000,8417500.000000 18951003.800000,8415834.900000 18943907.000000,8411093.000000 18939165.100000,8403996.200000 18937500.000000,8395625.000000 Z"/> 
<path style="fill-opacity: 1.0;stroke-width: 0.100000;stroke-opacity: 1;stroke-linecap: round;stroke-linejoin: round;fill-rule: evenodd" d="M 19095000.000000,8344375.000000 19096665.100000,8336003.800000 19101407.000000,8328907.000000 19108503.800000,8324165.100000 19116875.000000,8322500.000000 19160625.000000,8322500.000000 19168996.200000,8324165.100000 19176093.000000,8328907.000000 19180834.900000,8336003.800000 19182500.000000,8344375.000000 19182500.000000,8395625.000000 19180834.900000,8403996.200000 19176093.000000,8411093.000000 19168996.200000,8415834.900000 19160625.000000,8417500.000000 19116875.000000,8417500.000000 19108503.800000,8415834.900000 19101407.000000,8411093.000000 19096665.100000,8403996.200000 19095000.000000,8395625.000000 Z"/> 
</g>
<g style="fill-opacity: 1.0;stroke-width: 0.100000;stroke-opacity: 1;stroke-linecap: round;stroke-linejoin: round">
<circle cx="18807499.000000" cy="7984577.900000" r="30000.000000"/> 
</g>
<g style="fill-opacity: 1.0;stroke-width: 0.100000;stroke-opacity: 1;stroke-linecap: round;stroke-linejoin: round">
<circle cx="18807499.000000" cy="8077890.700000" r="30000.000000"/> 
</g>
<g style="fill-opacity: 1.0;stroke-width: 0.100000;stroke-opacity: 1;stroke-linecap: round;stroke-linejoin: round">
<circle cx="18788632.500000" cy="8155635.500000" r="30000.000000"/> 
</g>
<g style="fill-opacity: 1.0;stroke-width: 0.100000;stroke-opacity: 1;stroke-linecap: round;stroke-linejoin: round">
<circle cx="19140000.000000" cy="7730000.000000" r="30000.000000"/> 
</g>
<g style="fill-opacity: 0.0;stroke-width: 60000.000000;stroke-opacity: 1;stroke-linecap: round;stroke-linejoin: round">
<path d="M19188500 8190500 L19380000 8382000 "/>
<path d="M19160000 8190500 L19188500 8190500 "/>
</g>
<g style="fill-opacity: 0.0;stroke-width: 25000.000000;stroke-opacity: 1;stroke-linecap: round;stroke-linejoin: round">
<path d="M19184292 8457499 L19259791 8382000 "/>
<path d="M18699999 8457499 L19184292 8457499 "/>
<path d="M18670000 8427500 L18699999 8457499 "/>
<path d="M18870000 7886250 L18870000 8170000 "/>
<path d="M18670000 8370000 L18670000 8427500 "/>
<path d="M18671250 7630000 L18671250 7687500 "/>
<path d="M19259791 8382000 L19380000 8382000 "/>
<path d="M18870000 8170000 L18670000 8370000 "/>
<path d="M18671250 7687500 L18870000 7886250 "/>
</g>
<g style="fill-opacity: 0.0;stroke-width: 20000.000000;stroke-opacity: 1;stroke-linecap: round;stroke-linejoin: round">
<path d="M18667500 7809500 L18807499 7949499 "/>
<path d="M18620000 7809500 L18667500 7809500 "/>
<path d="M18807499 7949499 L18807499 7984577 "/>
<path d="M18777499 8047890 L18807499 8077890 "/>
<path d="M18667500 7936500 L18717500 7986500 "/>
<path d="M18717500 7986500 L18717500 7987891 "/>
<path d="M18717500 7987891 L18777499 8047890 "/>
<path d="M18620000 7936500 L18667500 7936500 "/>
</g>
<g style="fill-opacity: 0.0;stroke-width: 25000.000000;stroke-opacity: 1;stroke-linecap: round;stroke-linejoin: round">
<path d="M18696497 8063500 L18620000 8063500 "/>
<path d="M18788632 8155635 L18696497 8063500 "/>
</g>
<g style="fill-opacity: 0.0;stroke-width: 20000.000000;stroke-opacity: 1;stroke-linecap: round;stroke-linejoin: round">
<path d="M19315500 8063500 L19380000 8128000 "/>
<path d="M19160000 8063500 L19315500 8063500 "/>
<path d="M19092588 8333838 L19138750 8380000 "/>
<path d="M19040000 8281250 L19092588 8333838 "/>
<path d="M19160000 8063500 L19112500 8063500 "/>
<path d="M19040000 8136000 L19040000 8281250 "/>
<path d="M19112500 8063500 L19040000 8136000 "/>
<path d="M19317500 7936500 L19380000 7874000 "/>
<path d="M19160000 7936500 L19317500 7936500 "/>
<path d="M19092588 7656161 L19138750 7610000 "/>
<path d="M19052499 7876499 L19052499 7696250 "/>
<path d="M19052499 7696250 L19092588 7656161 "/>
<path d="M19112500 7936500 L19052499 7876499 "/>
<path d="M19160000 7936500 L19112500 7936500 "/>
<path d="M19160000 7809500 L19160000 7750000 "/>
<path d="M19160000 7750000 L19140000 7730000 "/>
<path d="M18981250 8370000 L18827500 8370000 "/>
<path d="M18828750 7630000 L18981250 7630000 "/>
</g>
</g> 
</g><g id="substrate-silk" style="fill:#f0f0f0; stroke:#f0f0f0;" mask="url(#pads-mask-silkscreen)"><g style="fill-opacity: 0.0;stroke-width: 12000.000000;stroke-opacity: 1;stroke-linecap: round;stroke-linejoin: round">
<g transform="rotate(-90.000000 18560000.000000 7630000.000000)">
<text x="18560000.000000" y="7655000.000000" textLength="97619.100000" font-size="66666.600000" lengthAdjust="spacingAndGlyphs" text-anchor="middle" opacity="0">RX</text>
</g>
<g class="stroked-text"><desc>RX</desc>
<path d="M18582619 7638333 L18558809 7655000 "/>
<path d="M18582619 7666904 L18532619 7666904 L18532619 7647857 L18535000 7643095 L18537380 7640714 L18542142 7638333 L18549285 7638333 L18554047 7640714 L18556428 7643095 L18558809 7647857 L18558809 7666904 "/>
<path d="M18532619 7621666 L18582619 7588333 "/>
<path d="M18532619 7588333 L18582619 7621666 "/>
</g><g transform="rotate(-90.000000 18560000.000000 8370000.000000)">
<text x="18560000.000000" y="8395000.000000" textLength="101314.300000" font-size="66666.600000" lengthAdjust="spacingAndGlyphs" text-anchor="middle" opacity="0">TX</text>
</g>
<g class="stroked-text"><desc>TX</desc>
<path d="M18532619 8408095 L18532619 8379523 "/>
<path d="M18582619 8393809 L18532619 8393809 "/>
<path d="M18532619 8367619 L18582619 8334285 "/>
<path d="M18532619 8334285 L18582619 8367619 "/>
</g></g>
<g style="fill-opacity: 0.0;stroke-width: 20000.000000;stroke-opacity: 1;stroke-linecap: round;stroke-linejoin: round">
<circle cx="18770000.000000" cy="7810000.000000" r="14142.100000"/> 
</g>
<g style="fill-opacity: 0.0;stroke-width: 12000.000000;stroke-opacity: 1;stroke-linecap: round;stroke-linejoin: round">
<path d="M18670000 7703500 L18898500 7703500 "/>
<path d="M18898500 7703500 L18898500 7556500 "/>
<path d="M18898500 7556500 L18670000 7556500 "/>
<path d="M18898500 8296500 L18670000 8296500 "/>
<path d="M18898500 8443500 L18898500 8296500 "/>
<path d="M18670000 8443500 L18898500 8443500 "/>
</g>
<g style="fill-opacity: 0.0;stroke-width: 15000.000000;stroke-opacity: 1;stroke-linecap: round;stroke-linejoin: round">
<path d="M18682500 7747500 L18542500 7747500 "/>
<path d="M18682500 8257500 L19097500 8257500 "/>
<path d="M18682500 7742500 L19097500 7742500 "/>
<path d="M18682500 8257500 L18682500 8243000 "/>
<path d="M19097500 8257500 L19097500 8243000 "/>
<path d="M19097500 7742500 L19097500 7757000 "/>
<path d="M18682500 7742500 L18682500 7747500 "/>
</g>
<g style="fill-opacity: 0.0;stroke-width: 12000.000000;stroke-opacity: 1;stroke-linecap: round;stroke-linejoin: round">
<path d="M19043722 7579000 L19076277 7579000 "/>
<path d="M19043722 7681000 L19076277 7681000 "/>
<path d="M19043722 8421000 L19076277 8421000 "/>
<path d="M19043722 8319000 L19076277 8319000 "/>
</g> 
</g><g id="substrate-outline" style="fill:#000000; stroke:#000000; stroke-width: 15000.0"><g style="fill-opacity: 0.0;stroke-opacity: 1;stroke-linecap: round;stroke-linejoin: round">
<path d="M19500000 7500000 L19500000 8500000 "/>
<path d="M18500000 7500000 L19500000 7500000 "/>
<path d="M18500000 8500000 L18500000 7500000 "/>
<path d="M19500000 8500000 L18500000 8500000 "/>
</g> 
<path d="M -50000.0 0.0 A 50000.0 50000.0 0 1 1 50000.0 0.0 L 50000.0 -0.0 A 50000.0 50000.0 0 1 1 -50000.0 -0.0 Z" transform="translate(19380000.0 7620000.0) rotate(-0.0)"/><path d="M -50000.0 0.0 A 50000.0 50000.0 0 1 1 50000.0 0.0 L 50000.0 -0.0 A 50000.0 50000.0 0 1 1 -50000.0 -0.0 Z" transform="translate(19380000.0 7874000.0) rotate(-0.0)"/><path d="M -50000.0 0.0 A 50000.0 50000.0 0 1 1 50000.0 0.0 L 50000.0 -0.0 A 50000.0 50000.0 0 1 1 -50000.0 -0.0 Z" transform="translate(19380000.0 8128000.0) rotate(-0.0)"/><path d="M -50000.0 0.0 A 50000.0 50000.0 0 1 1 50000.0 0.0 L 50000.0 -0.0 A 50000.0 50000.0 0 1 1 -50000.0 -0.0 Z" transform="translate(19380000.0 8382000.0) rotate(-0.0)"/><path d="M -15000.0 0.0 A 15000.0 15000.0 0 1 1 15000.0 0.0 L 15000.0 -0.0 A 15000.0 15000.0 0 1 1 -15000.0 -0.0 Z" transform="translate(18807499.0 7984577.9) rotate(0)"/><path d="M -15000.0 0.0 A 15000.0 15000.0 0 1 1 15000.0 0.0 L 15000.0 -0.0 A 15000.0 15000.0 0 1 1 -15000.0 -0.0 Z" transform="translate(18807499.0 8077890.7) rotate(0)"/><path d="M -15000.0 0.0 A 15000.0 15000.0 0 1 1 15000.0 0.0 L 15000.0 -0.0 A 15000.0 15000.0 0 1 1 -15000.0 -0.0 Z" transform="translate(18788632.5 8155635.5) rotate(0)"/><path d="M -15000.0 0.0 A 15000.0 15000.0 0 1 1 15000.0 0.0 L 15000.0 -0.0 A 15000.0 15000.0 0 1 1 -15000.0 -0.0 Z" transform="translate(19140000.0 7730000.0) rotate(0)"/></g></g></g><g transform="" id="componentContainer"><!--LED_SMD:LED_0603_1608Metric:D2--><g transform="translate(18750000.0 7630000.0) scale(100000.0, 100000.0) rotate(-180.0) translate(-0.800000011920929 -0.4000000059604645)"><g id="pref_11_LED_SMD__LED_0603_1608Metric_LED"><g transform="matrix(0.26904613,0,0,0.23543332,-29.430137,-1.3492381)" id="pref_12g51128">
    <rect transform="rotate(-90)" y="114.21347" x="-8.9961796" height="0.96782452" width="3.1591723" id="pref_12rect51130-3" style="opacity:0.96;fill:#d6dcdb;fill-opacity:1;fill-rule:nonzero;stroke:#99abb0;stroke-width:0.212271;stroke-linecap:round;stroke-linejoin:miter;stroke-miterlimit:4;stroke-dasharray:none;stroke-opacity:1"/>
    <rect transform="rotate(-90)" y="109.49309" x="-8.9961786" height="0.96782452" width="3.1591723" id="pref_12rect51130" style="opacity:0.96;fill:#d6dcdb;fill-opacity:1;fill-rule:nonzero;stroke:#99abb0;stroke-width:0.212271;stroke-linecap:round;stroke-linejoin:miter;stroke-miterlimit:4;stroke-dasharray:none;stroke-opacity:1"/>
    <rect transform="rotate(-90)" y="110.58431" x="-8.6916866" height="3.5057583" width="2.5501864" id="pref_12rect51134" style="opacity:0.96;fill:#ffe680;fill-opacity:1;fill-rule:nonzero;stroke:#ffd42a;stroke-width:0.821257;stroke-linecap:round;stroke-linejoin:bevel;stroke-miterlimit:4;stroke-dasharray:none;stroke-opacity:1"/>
  </g>
  </g></g><!--LED_SMD:LED_0603_1608Metric:D1--><g transform="translate(18750000.0 8370000.0) scale(100000.0, 100000.0) rotate(-180.0) translate(-0.800000011920929 -0.4000000059604645)"><use xmlns:xlink="http://www.w3.org/1999/xlink" xlink:href="#pref_11_LED_SMD__LED_0603_1608Metric_LED"/></g><!--Resistor_SMD:R_0603_1608Metric:R2--><g transform="translate(19060000.0 7630000.0) scale(99999.944040291, 100000.0) rotate(-0.0) translate(-0.7870000004768372 -0.4059999883174896)"><g id="pref_11_Resistor_SMD__R_0603_1608Metric_220"><path xmlns:sodipodi="http://sodipodi.sourceforge.net/DTD/sodipodi-0.dtd" d="M 0.025,0.787 V 0.025 h 0.254 v 0.762 z m 1.524,0 V 0.025 H 1.295 v 0.762 z" id="pref_13leads" style="opacity:1;fill:#d6dcdb;stroke:#99abb0;stroke-width:0.05;stroke-linecap:round;stroke-miterlimit:4;stroke-dasharray:none" sodipodi:nodetypes="cccccccccc"/>
  <path xmlns:sodipodi="http://sodipodi.sourceforge.net/DTD/sodipodi-0.dtd" d="M 0.279,0.787 V 0.025 h 1.016 v 0.762 z" id="pref_13main_body" style="opacity:1;fill:#191919;stroke:#6d6d6d;stroke-width:0.05;stroke-linecap:round;stroke-miterlimit:4;stroke-dasharray:none" sodipodi:nodetypes="ccccc"/>
  </g></g><!--Resistor_SMD:R_0603_1608Metric:R1--><g transform="translate(19060000.0 8370000.0) scale(99999.944040291, 100000.0) rotate(-0.0) translate(-0.7870000004768372 -0.4059999883174896)"><use xmlns:xlink="http://www.w3.org/1999/xlink" xlink:href="#pref_11_Resistor_SMD__R_0603_1608Metric_220"/></g><!--Capacitor_SMD:C_0603_1608Metric.back:C2--><!--Capacitor_SMD:C_0603_1608Metric.back:C1--><g transform="translate(19130000.0 8300000.0) scale(99999.9545452686, 99999.95454675615) rotate(90.0) translate(-0.09999550133943558 -0.10003144294023514)"><use xmlns:xlink="http://www.w3.org/1999/xlink" xlink:href="#pref_11_Capacitor_SMD__C_0603_1608Metricback_100n"/></g></g></svg>