<!DOCTYPE svg PUBLIC "-//W3C//DTD SVG 1.1//EN" "http://www.w3.org/Graphics/SVG/1.1/DTD/svg11.dtd">
<svg xmlns="http://www.w3.org/2000/svg" version="1.1" width="42.0mm" height="33.64mm" viewBox="11650000.0 5136000.0 4200000.0 3364000.0">
            <title>Picture generated by PcbDraw </title>
            <desc>Picture generated by PcbDraw</desc>
        <defs><clipPath id="cut-off"><path d=" M 15750000.0 8400000.0 L 11750000.0 8400000.0 L 11750000.0 5400000.0 L 15750000.0 5400000.0 L 15750000.0 8400000.0 " style="fill-rule: evenodd;"/></clipPath><mask id="pads-mask"><g style="fill:#ffffff; fill-opacity:0.0;  stroke:#ffffff; stroke-width:0.000000; stroke-opacity:1;  stroke-linecap:round; stroke-linejoin:round;">
<g style="fill:#ffffff; fill-opacity:1.0;  stroke:#ffffff; stroke-width:0.100000; stroke-opacity:1;  stroke-linecap:round; stroke-linejoin:round;">
<path style="fill:#ffffff; fill-opacity:1.0;  stroke:#ffffff; stroke-width:0.100000; stroke-opacity:1;  stroke-linecap:round; stroke-linejoin:round;fill-rule:evenodd;" d="M 12355000.000000,7852500.000000 12356522.400000,7844846.300000 12360857.900000,7838357.900000 12367346.300000,7834022.400000 12375000.000000,7832500.000000 12545000.000000,7832500.000000 12552653.700000,7834022.400000 12559142.100000,7838357.900000 12563477.600000,7844846.300000 12565000.000000,7852500.000000 12565000.000000,8047500.000000 12563477.600000,8055153.700000 12559142.100000,8061642.100000 12552653.700000,8065977.600000 12545000.000000,8067500.000000 12375000.000000,8067500.000000 12367346.300000,8065977.600000 12360857.900000,8061642.100000 12356522.400000,8055153.700000 12355000.000000,8047500.000000 Z"/> 
</g>
<g style="fill:#ffffff; fill-opacity:0.0;  stroke:#ffffff; stroke-width:210000.000000; stroke-opacity:1;  stroke-linecap:round; stroke-linejoin:round;">
<path d="M12710000 7937500 L12710000 7962500 "/>
<path d="M12960000 7937500 L12960000 7962500 "/>
<path d="M13210000 7937500 L13210000 7962500 "/>
</g>
<g style="fill:#ffffff; fill-opacity:0.0;  stroke:#ffffff; stroke-width:210000.000000; stroke-opacity:1;  stroke-linecap:round; stroke-linejoin:round;">
<path d="M15040000 7937500 L15040000 7962500 "/>
<path d="M14790000 7937500 L14790000 7962500 "/>
<path d="M14540000 7937500 L14540000 7962500 "/>
</g>
<g style="fill:#ffffff; fill-opacity:1.0;  stroke:#ffffff; stroke-width:0.100000; stroke-opacity:1;  stroke-linecap:round; stroke-linejoin:round;">
<path style="fill:#ffffff; fill-opacity:1.0;  stroke:#ffffff; stroke-width:0.100000; stroke-opacity:1;  stroke-linecap:round; stroke-linejoin:round;fill-rule:evenodd;" d="M 14185000.000000,7852500.000000 14186522.400000,7844846.300000 14190857.900000,7838357.900000 14197346.300000,7834022.400000 14205000.000000,7832500.000000 14375000.000000,7832500.000000 14382653.700000,7834022.400000 14389142.100000,7838357.900000 14393477.600000,7844846.300000 14395000.000000,7852500.000000 14395000.000000,8047500.000000 14393477.600000,8055153.700000 14389142.100000,8061642.100000 14382653.700000,8065977.600000 14375000.000000,8067500.000000 14205000.000000,8067500.000000 14197346.300000,8065977.600000 14190857.900000,8061642.100000 14186522.400000,8055153.700000 14185000.000000,8047500.000000 Z"/> 
</g>
<g style="fill:#ffffff; fill-opacity:1.0;  stroke:#ffffff; stroke-width:0.100000; stroke-opacity:1;  stroke-linecap:round; stroke-linejoin:round;">
<circle cx="12100000.000000" cy="5730000.000000" r="110000.000000"/> 
</g>
<g style="fill:#ffffff; fill-opacity:1.0;  stroke:#ffffff; stroke-width:0.100000; stroke-opacity:1;  stroke-linecap:round; stroke-linejoin:round;">
<circle cx="12354000.000000" cy="6238000.000000" r="110000.000000"/> 
</g>
<g style="fill:#ffffff; fill-opacity:1.0;  stroke:#ffffff; stroke-width:0.100000; stroke-opacity:1;  stroke-linecap:round; stroke-linejoin:round;">
<circle cx="12100000.000000" cy="7000000.000000" r="110000.000000"/> 
</g>
<g style="fill:#ffffff; fill-opacity:1.0;  stroke:#ffffff; stroke-width:0.100000; stroke-opacity:1;  stroke-linecap:round; stroke-linejoin:round;">
<circle cx="13116000.000000" cy="7000000.000000" r="110000.000000"/> 
</g>
<g style="fill:#ffffff; fill-opacity:1.0;  stroke:#ffffff; stroke-width:0.100000; stroke-opacity:1;  stroke-linecap:round; stroke-linejoin:round;">
<circle cx="13370000.000000" cy="6238000.000000" r="110000.000000"/> 
</g>
<g style="fill:#ffffff; fill-opacity:1.0;  stroke:#ffffff; stroke-width:0.100000; stroke-opacity:1;  stroke-linecap:round; stroke-linejoin:round;">
<circle cx="13116000.000000" cy="5730000.000000" r="110000.000000"/> 
</g>
<g style="fill:#ffffff; fill-opacity:1.0;  stroke:#ffffff; stroke-width:0.100000; stroke-opacity:1;  stroke-linecap:round; stroke-linejoin:round;">
<circle cx="14132000.000000" cy="5730000.000000" r="110000.000000"/> 
</g>
<g style="fill:#ffffff; fill-opacity:1.0;  stroke:#ffffff; stroke-width:0.100000; stroke-opacity:1;  stroke-linecap:round; stroke-linejoin:round;">
<circle cx="14386000.000000" cy="6238000.000000" r="110000.000000"/> 
</g>
<g style="fill:#ffffff; fill-opacity:1.0;  stroke:#ffffff; stroke-width:0.100000; stroke-opacity:1;  stroke-linecap:round; stroke-linejoin:round;">
<circle cx="14132000.000000" cy="7000000.000000" r="110000.000000"/> 
</g>
<g style="fill:#ffffff; fill-opacity:1.0;  stroke:#ffffff; stroke-width:0.100000; stroke-opacity:1;  stroke-linecap:round; stroke-linejoin:round;">
<circle cx="15148000.000000" cy="7000000.000000" r="110000.000000"/> 
</g>
<g style="fill:#ffffff; fill-opacity:1.0;  stroke:#ffffff; stroke-width:0.100000; stroke-opacity:1;  stroke-linecap:round; stroke-linejoin:round;">
<circle cx="15402000.000000" cy="6238000.000000" r="110000.000000"/> 
</g>
<g style="fill:#ffffff; fill-opacity:1.0;  stroke:#ffffff; stroke-width:0.100000; stroke-opacity:1;  stroke-linecap:round; stroke-linejoin:round;">
<circle cx="15148000.000000" cy="5730000.000000" r="110000.000000"/> 
</g>
</g> 
</mask><mask id="pads-mask-silkscreen"><rect x="11740000.0" y="5217500.0" width="4020000.0" height="3192500.0" fill="white"/><g style="fill:#000000; fill-opacity:0.0;  stroke:#000000; stroke-width:0.000000; stroke-opacity:1;  stroke-linecap:round; stroke-linejoin:round;">
<g style="fill:#000000; fill-opacity:1.0;  stroke:#000000; stroke-width:0.100000; stroke-opacity:1;  stroke-linecap:round; stroke-linejoin:round;">
<path style="fill:#000000; fill-opacity:1.0;  stroke:#000000; stroke-width:0.100000; stroke-opacity:1;  stroke-linecap:round; stroke-linejoin:round;fill-rule:evenodd;" d="M 12355000.000000,7852500.000000 12356522.400000,7844846.300000 12360857.900000,7838357.900000 12367346.300000,7834022.400000 12375000.000000,7832500.000000 12545000.000000,7832500.000000 12552653.700000,7834022.400000 12559142.100000,7838357.900000 12563477.600000,7844846.300000 12565000.000000,7852500.000000 12565000.000000,8047500.000000 12563477.600000,8055153.700000 12559142.100000,8061642.100000 12552653.700000,8065977.600000 12545000.000000,8067500.000000 12375000.000000,8067500.000000 12367346.300000,8065977.600000 12360857.900000,8061642.100000 12356522.400000,8055153.700000 12355000.000000,8047500.000000 Z"/> 
</g>
<g style="fill:#000000; fill-opacity:0.0;  stroke:#000000; stroke-width:210000.000000; stroke-opacity:1;  stroke-linecap:round; stroke-linejoin:round;">
<path d="M12710000 7937500 L12710000 7962500 "/>
<path d="M12960000 7937500 L12960000 7962500 "/>
<path d="M13210000 7937500 L13210000 7962500 "/>
</g>
<g style="fill:#000000; fill-opacity:0.0;  stroke:#000000; stroke-width:210000.000000; stroke-opacity:1;  stroke-linecap:round; stroke-linejoin:round;">
<path d="M15040000 7937500 L15040000 7962500 "/>
<path d="M14790000 7937500 L14790000 7962500 "/>
<path d="M14540000 7937500 L14540000 7962500 "/>
</g>
<g style="fill:#000000; fill-opacity:1.0;  stroke:#000000; stroke-width:0.100000; stroke-opacity:1;  stroke-linecap:round; stroke-linejoin:round;">
<path style="fill:#000000; fill-opacity:1.0;  stroke:#000000; stroke-width:0.100000; stroke-opacity:1;  stroke-linecap:round; stroke-linejoin:round;fill-rule:evenodd;" d="M 14185000.000000,7852500.000000 14186522.400000,7844846.300000 14190857.900000,7838357.900000 14197346.300000,7834022.400000 14205000.000000,7832500.000000 14375000.000000,7832500.000000 14382653.700000,7834022.400000 14389142.100000,7838357.900000 14393477.600000,7844846.300000 14395000.000000,7852500.000000 14395000.000000,8047500.000000 14393477.600000,8055153.700000 14389142.100000,8061642.100000 14382653.700000,8065977.600000 14375000.000000,8067500.000000 14205000.000000,8067500.000000 14197346.300000,8065977.600000 14190857.900000,8061642.100000 14186522.400000,8055153.700000 14185000.000000,8047500.000000 Z"/> 
</g>
<g style="fill:#000000; fill-opacity:1.0;  stroke:#000000; stroke-width:0.100000; stroke-opacity:1;  stroke-linecap:round; stroke-linejoin:round;">
<circle cx="12100000.000000" cy="5730000.000000" r="110000.000000"/> 
</g>
<g style="fill:#000000; fill-opacity:1.0;  stroke:#000000; stroke-width:0.100000; stroke-opacity:1;  stroke-linecap:round; stroke-linejoin:round;">
<circle cx="12354000.000000" cy="6238000.000000" r="110000.000000"/> 
</g>
<g style="fill:#000000; fill-opacity:1.0;  stroke:#000000; stroke-width:0.100000; stroke-opacity:1;  stroke-linecap:round; stroke-linejoin:round;">
<circle cx="12100000.000000" cy="7000000.000000" r="110000.000000"/> 
</g>
<g style="fill:#000000; fill-opacity:1.0;  stroke:#000000; stroke-width:0.100000; stroke-opacity:1;  stroke-linecap:round; stroke-linejoin:round;">
<circle cx="13116000.000000" cy="7000000.000000" r="110000.000000"/> 
</g>
<g style="fill:#000000; fill-opacity:1.0;  stroke:#000000; stroke-width:0.100000; stroke-opacity:1;  stroke-linecap:round; stroke-linejoin:round;">
<circle cx="13370000.000000" cy="6238000.000000" r="110000.000000"/> 
</g>
<g style="fill:#000000; fill-opacity:1.0;  stroke:#000000; stroke-width:0.100000; stroke-opacity:1;  stroke-linecap:round; stroke-linejoin:round;">
<circle cx="13116000.000000" cy="5730000.000000" r="110000.000000"/> 
</g>
<g style="fill:#000000; fill-opacity:1.0;  stroke:#000000; stroke-width:0.100000; stroke-opacity:1;  stroke-linecap:round; stroke-linejoin:round;">
<circle cx="14132000.000000" cy="5730000.000000" r="110000.000000"/> 
</g>
<g style="fill:#000000; fill-opacity:1.0;  stroke:#000000; stroke-width:0.100000; stroke-opacity:1;  stroke-linecap:round; stroke-linejoin:round;">
<circle cx="14386000.000000" cy="6238000.000000" r="110000.000000"/> 
</g>
<g style="fill:#000000; fill-opacity:1.0;  stroke:#000000; stroke-width:0.100000; stroke-opacity:1;  stroke-linecap:round; stroke-linejoin:round;">
<circle cx="14132000.000000" cy="7000000.000000" r="110000.000000"/> 
</g>
<g style="fill:#000000; fill-opacity:1.0;  stroke:#000000; stroke-width:0.100000; stroke-opacity:1;  stroke-linecap:round; stroke-linejoin:round;">
<circle cx="15148000.000000" cy="7000000.000000" r="110000.000000"/> 
</g>
<g style="fill:#000000; fill-opacity:1.0;  stroke:#000000; stroke-width:0.100000; stroke-opacity:1;  stroke-linecap:round; stroke-linejoin:round;">
<circle cx="15402000.000000" cy="6238000.000000" r="110000.000000"/> 
</g>
<g style="fill:#000000; fill-opacity:1.0;  stroke:#000000; stroke-width:0.100000; stroke-opacity:1;  stroke-linecap:round; stroke-linejoin:round;">
<circle cx="15148000.000000" cy="5730000.000000" r="110000.000000"/> 
</g>
</g> 
</mask><mask id="hole-mask"><g><rect x="11740000.0" y="5217500.0" fill="white" width="4020000.0" height="3192500.0"/><polyline stroke-linecap="round" stroke="black" stroke-width="95000.0" points="-0.0 0 0.0 0" transform="translate(12460000.0 7950000.0) rotate(-0.0)"/><polyline stroke-linecap="round" stroke="black" stroke-width="95000.0" points="-0.0 0 0.0 0" transform="translate(12710000.0 7950000.0) rotate(-0.0)"/><polyline stroke-linecap="round" stroke="black" stroke-width="95000.0" points="-0.0 0 0.0 0" transform="translate(12960000.0 7950000.0) rotate(-0.0)"/><polyline stroke-linecap="round" stroke="black" stroke-width="95000.0" points="-0.0 0 0.0 0" transform="translate(13210000.0 7950000.0) rotate(-0.0)"/><polyline stroke-linecap="round" stroke="black" stroke-width="95000.0" points="-0.0 0 0.0 0" transform="translate(15040000.0 7950000.0) rotate(-0.0)"/><polyline stroke-linecap="round" stroke="black" stroke-width="95000.0" points="-0.0 0 0.0 0" transform="translate(14790000.0 7950000.0) rotate(-0.0)"/><polyline stroke-linecap="round" stroke="black" stroke-width="95000.0" points="-0.0 0 0.0 0" transform="translate(14540000.0 7950000.0) rotate(-0.0)"/><polyline stroke-linecap="round" stroke="black" stroke-width="95000.0" points="-0.0 0 0.0 0" transform="translate(14290000.0 7950000.0) rotate(-0.0)"/><polyline stroke-linecap="round" stroke="black" stroke-width="100000.0" points="-0.0 0 0.0 0" transform="translate(12100000.0 5730000.0) rotate(-270.0)"/><polyline stroke-linecap="round" stroke="black" stroke-width="100000.0" points="-0.0 0 0.0 0" transform="translate(12354000.0 6238000.0) rotate(-270.0)"/><polyline stroke-linecap="round" stroke="black" stroke-width="100000.0" points="-0.0 0 0.0 0" transform="translate(12100000.0 7000000.0) rotate(-270.0)"/><polyline stroke-linecap="round" stroke="black" stroke-width="100000.0" points="-0.0 0 0.0 0" transform="translate(13116000.0 7000000.0) rotate(-270.0)"/><polyline stroke-linecap="round" stroke="black" stroke-width="100000.0" points="-0.0 0 0.0 0" transform="translate(13370000.0 6238000.0) rotate(-270.0)"/><polyline stroke-linecap="round" stroke="black" stroke-width="100000.0" points="-0.0 0 0.0 0" transform="translate(13116000.0 5730000.0) rotate(-270.0)"/><polyline stroke-linecap="round" stroke="black" stroke-width="100000.0" points="-0.0 0 0.0 0" transform="translate(14132000.0 5730000.0) rotate(-270.0)"/><polyline stroke-linecap="round" stroke="black" stroke-width="100000.0" points="-0.0 0 0.0 0" transform="translate(14386000.0 6238000.0) rotate(-270.0)"/><polyline stroke-linecap="round" stroke="black" stroke-width="100000.0" points="-0.0 0 0.0 0" transform="translate(14132000.0 7000000.0) rotate(-270.0)"/><polyline stroke-linecap="round" stroke="black" stroke-width="100000.0" points="-0.0 0 0.0 0" transform="translate(15148000.0 7000000.0) rotate(-270.0)"/><polyline stroke-linecap="round" stroke="black" stroke-width="100000.0" points="-0.0 0 0.0 0" transform="translate(15402000.0 6238000.0) rotate(-270.0)"/><polyline stroke-linecap="round" stroke="black" stroke-width="100000.0" points="-0.0 0 0.0 0" transform="translate(15148000.0 5730000.0) rotate(-270.0)"/></g></mask></defs><g transform="" id="boardContainer"><g id="substrate" clip-path="url(#cut-off)" mask="url(#hole-mask)"><g id="substrate-board" style="fill:#4ca06c; stroke:#4ca06c;"><path d=" M 15750000.0 8400000.0 L 11750000.0 8400000.0 L 11750000.0 5400000.0 L 15750000.0 5400000.0 L 15750000.0 8400000.0 " style="fill-rule: evenodd;"/><g style="fill-opacity: 0.0;stroke-width: 20000.000000;stroke-opacity: 1;stroke-linecap: round;stroke-linejoin: round">
<path d="M15750000 5400000 L15750000 8400000 "/>
<path d="M11750000 8400000 L15750000 8400000 "/>
<path d="M11750000 5400000 L11750000 8400000 "/>
<path d="M15750000 5400000 L11750000 5400000 "/>
</g> 
</g><g id="substrate-clad" style="fill:#9c6b28; stroke:#9c6b28;"><g style="fill-opacity: 0.0;stroke-width: 0.000000;stroke-opacity: 1;stroke-linecap: round;stroke-linejoin: round">
<g style="fill-opacity: 1.0;stroke-width: 0.100000;stroke-opacity: 1;stroke-linecap: round;stroke-linejoin: round">
<path style="fill-opacity: 1.0;stroke-width: 0.100000;stroke-opacity: 1;stroke-linecap: round;stroke-linejoin: round;fill-rule: evenodd" d="M 12355000.000000,7852500.000000 12356522.400000,7844846.300000 12360857.900000,7838357.900000 12367346.300000,7834022.400000 12375000.000000,7832500.000000 12545000.000000,7832500.000000 12552653.700000,7834022.400000 12559142.100000,7838357.900000 12563477.600000,7844846.300000 12565000.000000,7852500.000000 12565000.000000,8047500.000000 12563477.600000,8055153.700000 12559142.100000,8061642.100000 12552653.700000,8065977.600000 12545000.000000,8067500.000000 12375000.000000,8067500.000000 12367346.300000,8065977.600000 12360857.900000,8061642.100000 12356522.400000,8055153.700000 12355000.000000,8047500.000000 Z"/> 
</g>
<g style="fill-opacity: 0.0;stroke-width: 210000.000000;stroke-opacity: 1;stroke-linecap: round;stroke-linejoin: round">
<path d="M12710000 7937500 L12710000 7962500 "/>
<path d="M12960000 7937500 L12960000 7962500 "/>
<path d="M13210000 7937500 L13210000 7962500 "/>
</g>
<g style="fill-opacity: 0.0;stroke-width: 210000.000000;stroke-opacity: 1;stroke-linecap: round;stroke-linejoin: round">
<path d="M15040000 7937500 L15040000 7962500 "/>
<path d="M14790000 7937500 L14790000 7962500 "/>
<path d="M14540000 7937500 L14540000 7962500 "/>
</g>
<g style="fill-opacity: 1.0;stroke-width: 0.100000;stroke-opacity: 1;stroke-linecap: round;stroke-linejoin: round">
<path style="fill-opacity: 1.0;stroke-width: 0.100000;stroke-opacity: 1;stroke-linecap: round;stroke-linejoin: round;fill-rule: evenodd" d="M 14185000.000000,7852500.000000 14186522.400000,7844846.300000 14190857.900000,7838357.900000 14197346.300000,7834022.400000 14205000.000000,7832500.000000 14375000.000000,7832500.000000 14382653.700000,7834022.400000 14389142.100000,7838357.900000 14393477.600000,7844846.300000 14395000.000000,7852500.000000 14395000.000000,8047500.000000 14393477.600000,8055153.700000 14389142.100000,8061642.100000 14382653.700000,8065977.600000 14375000.000000,8067500.000000 14205000.000000,8067500.000000 14197346.300000,8065977.600000 14190857.900000,8061642.100000 14186522.400000,8055153.700000 14185000.000000,8047500.000000 Z"/> 
</g>
<g style="fill-opacity: 1.0;stroke-width: 0.100000;stroke-opacity: 1;stroke-linecap: round;stroke-linejoin: round">
<circle cx="12100000.000000" cy="5730000.000000" r="110000.000000"/> 
</g>
<g style="fill-opacity: 1.0;stroke-width: 0.100000;stroke-opacity: 1;stroke-linecap: round;stroke-linejoin: round">
<circle cx="12354000.000000" cy="6238000.000000" r="110000.000000"/> 
</g>
<g style="fill-opacity: 1.0;stroke-width: 0.100000;stroke-opacity: 1;stroke-linecap: round;stroke-linejoin: round">
<circle cx="12100000.000000" cy="7000000.000000" r="110000.000000"/> 
</g>
<g style="fill-opacity: 1.0;stroke-width: 0.100000;stroke-opacity: 1;stroke-linecap: round;stroke-linejoin: round">
<circle cx="13116000.000000" cy="7000000.000000" r="110000.000000"/> 
</g>
<g style="fill-opacity: 1.0;stroke-width: 0.100000;stroke-opacity: 1;stroke-linecap: round;stroke-linejoin: round">
<circle cx="13370000.000000" cy="6238000.000000" r="110000.000000"/> 
</g>
<g style="fill-opacity: 1.0;stroke-width: 0.100000;stroke-opacity: 1;stroke-linecap: round;stroke-linejoin: round">
<circle cx="13116000.000000" cy="5730000.000000" r="110000.000000"/> 
</g>
<g style="fill-opacity: 1.0;stroke-width: 0.100000;stroke-opacity: 1;stroke-linecap: round;stroke-linejoin: round">
<circle cx="14132000.000000" cy="5730000.000000" r="110000.000000"/> 
</g>
<g style="fill-opacity: 1.0;stroke-width: 0.100000;stroke-opacity: 1;stroke-linecap: round;stroke-linejoin: round">
<circle cx="14386000.000000" cy="6238000.000000" r="110000.000000"/> 
</g>
<g style="fill-opacity: 1.0;stroke-width: 0.100000;stroke-opacity: 1;stroke-linecap: round;stroke-linejoin: round">
<circle cx="14132000.000000" cy="7000000.000000" r="110000.000000"/> 
</g>
<g style="fill-opacity: 1.0;stroke-width: 0.100000;stroke-opacity: 1;stroke-linecap: round;stroke-linejoin: round">
<circle cx="15148000.000000" cy="7000000.000000" r="110000.000000"/> 
</g>
<g style="fill-opacity: 1.0;stroke-width: 0.100000;stroke-opacity: 1;stroke-linecap: round;stroke-linejoin: round">
<circle cx="15402000.000000" cy="6238000.000000" r="110000.000000"/> 
</g>
<g style="fill-opacity: 1.0;stroke-width: 0.100000;stroke-opacity: 1;stroke-linecap: round;stroke-linejoin: round">
<circle cx="15148000.000000" cy="5730000.000000" r="110000.000000"/> 
</g>
</g> 
</g><g id="substrate-copper" style="fill:#417e5a; stroke:#417e5a;"><g style="fill-opacity: 0.0;stroke-width: 0.000000;stroke-opacity: 1;stroke-linecap: round;stroke-linejoin: round">
<g style="fill-opacity: 1.0;stroke-width: 0.100000;stroke-opacity: 1;stroke-linecap: round;stroke-linejoin: round">
<path style="fill-opacity: 1.0;stroke-width: 0.100000;stroke-opacity: 1;stroke-linecap: round;stroke-linejoin: round;fill-rule: evenodd" d="M 12375000.000000,8047500.000000 12375000.000000,7852500.000000 12545000.000000,7852500.000000 12545000.000000,8047500.000000 Z"/> 
</g>
<g style="fill-opacity: 0.0;stroke-width: 170000.000000;stroke-opacity: 1;stroke-linecap: round;stroke-linejoin: round">
<path d="M12710000 7937500 L12710000 7962500 "/>
<path d="M12960000 7937500 L12960000 7962500 "/>
<path d="M13210000 7937500 L13210000 7962500 "/>
</g>
<g style="fill-opacity: 0.0;stroke-width: 170000.000000;stroke-opacity: 1;stroke-linecap: round;stroke-linejoin: round">
<path d="M15040000 7937500 L15040000 7962500 "/>
<path d="M14790000 7937500 L14790000 7962500 "/>
<path d="M14540000 7937500 L14540000 7962500 "/>
</g>
<g style="fill-opacity: 1.0;stroke-width: 0.100000;stroke-opacity: 1;stroke-linecap: round;stroke-linejoin: round">
<path style="fill-opacity: 1.0;stroke-width: 0.100000;stroke-opacity: 1;stroke-linecap: round;stroke-linejoin: round;fill-rule: evenodd" d="M 14205000.000000,8047500.000000 14205000.000000,7852500.000000 14375000.000000,7852500.000000 14375000.000000,8047500.000000 Z"/> 
</g>
<g style="fill-opacity: 1.0;stroke-width: 0.100000;stroke-opacity: 1;stroke-linecap: round;stroke-linejoin: round">
<circle cx="12100000.000000" cy="5730000.000000" r="90000.000000"/> 
</g>
<g style="fill-opacity: 1.0;stroke-width: 0.100000;stroke-opacity: 1;stroke-linecap: round;stroke-linejoin: round">
<circle cx="12354000.000000" cy="6238000.000000" r="90000.000000"/> 
</g>
<g style="fill-opacity: 1.0;stroke-width: 0.100000;stroke-opacity: 1;stroke-linecap: round;stroke-linejoin: round">
<circle cx="12100000.000000" cy="7000000.000000" r="90000.000000"/> 
</g>
<g style="fill-opacity: 1.0;stroke-width: 0.100000;stroke-opacity: 1;stroke-linecap: round;stroke-linejoin: round">
<circle cx="13116000.000000" cy="7000000.000000" r="90000.000000"/> 
</g>
<g style="fill-opacity: 1.0;stroke-width: 0.100000;stroke-opacity: 1;stroke-linecap: round;stroke-linejoin: round">
<circle cx="13370000.000000" cy="6238000.000000" r="90000.000000"/> 
</g>
<g style="fill-opacity: 1.0;stroke-width: 0.100000;stroke-opacity: 1;stroke-linecap: round;stroke-linejoin: round">
<circle cx="13116000.000000" cy="5730000.000000" r="90000.000000"/> 
</g>
<g style="fill-opacity: 1.0;stroke-width: 0.100000;stroke-opacity: 1;stroke-linecap: round;stroke-linejoin: round">
<circle cx="14132000.000000" cy="5730000.000000" r="90000.000000"/> 
</g>
<g style="fill-opacity: 1.0;stroke-width: 0.100000;stroke-opacity: 1;stroke-linecap: round;stroke-linejoin: round">
<circle cx="14386000.000000" cy="6238000.000000" r="90000.000000"/> 
</g>
<g style="fill-opacity: 1.0;stroke-width: 0.100000;stroke-opacity: 1;stroke-linecap: round;stroke-linejoin: round">
<circle cx="14132000.000000" cy="7000000.000000" r="90000.000000"/> 
</g>
<g style="fill-opacity: 1.0;stroke-width: 0.100000;stroke-opacity: 1;stroke-linecap: round;stroke-linejoin: round">
<circle cx="15148000.000000" cy="7000000.000000" r="90000.000000"/> 
</g>
<g style="fill-opacity: 1.0;stroke-width: 0.100000;stroke-opacity: 1;stroke-linecap: round;stroke-linejoin: round">
<circle cx="15402000.000000" cy="6238000.000000" r="90000.000000"/> 
</g>
<g style="fill-opacity: 1.0;stroke-width: 0.100000;stroke-opacity: 1;stroke-linecap: round;stroke-linejoin: round">
<circle cx="15148000.000000" cy="5730000.000000" r="90000.000000"/> 
</g>
<g style="fill-opacity: 0.0;stroke-width: 25000.000000;stroke-opacity: 1;stroke-linecap: round;stroke-linejoin: round">
<path d="M12460000 7770000 L12460000 7950000 "/>
<path d="M11870000 7180000 L12460000 7770000 "/>
<path d="M12100000 5730000 L11870000 5960000 "/>
<path d="M11870000 5960000 L11870000 7180000 "/>
<path d="M12710000 6136000 L12710000 7950000 "/>
<path d="M13116000 5730000 L12710000 6136000 "/>
<path d="M14042000 5819999 L14040000 5819999 "/>
<path d="M14132000 5730000 L14042000 5819999 "/>
<path d="M14040000 5819999 L13810000 6050000 "/>
<path d="M13810000 6050000 L13810000 7200000 "/>
<path d="M13810000 7200000 L13530000 7480000 "/>
<path d="M13530000 7480000 L13070000 7480000 "/>
<path d="M12960000 7590000 L12960000 7950000 "/>
<path d="M13070000 7480000 L12960000 7590000 "/>
<path d="M13210000 7937500 L13210000 7950000 "/>
<path d="M13527500 7620000 L13210000 7937500 "/>
<path d="M14310000 7620000 L13527500 7620000 "/>
<path d="M14850000 7080000 L14310000 7620000 "/>
<path d="M14850000 6028000 L14850000 7080000 "/>
<path d="M15148000 5730000 L14850000 6028000 "/>
</g>
</g> 
</g><g id="substrate-pads" style="fill:#b5ae30; stroke:#b5ae30;" mask="url(#pads-mask)"><g style="fill-opacity: 0.0;stroke-width: 0.000000;stroke-opacity: 1;stroke-linecap: round;stroke-linejoin: round">
<g style="fill-opacity: 1.0;stroke-width: 0.100000;stroke-opacity: 1;stroke-linecap: round;stroke-linejoin: round">
<path style="fill-opacity: 1.0;stroke-width: 0.100000;stroke-opacity: 1;stroke-linecap: round;stroke-linejoin: round;fill-rule: evenodd" d="M 12375000.000000,8047500.000000 12375000.000000,7852500.000000 12545000.000000,7852500.000000 12545000.000000,8047500.000000 Z"/> 
</g>
<g style="fill-opacity: 0.0;stroke-width: 170000.000000;stroke-opacity: 1;stroke-linecap: round;stroke-linejoin: round">
<path d="M12710000 7937500 L12710000 7962500 "/>
<path d="M12960000 7937500 L12960000 7962500 "/>
<path d="M13210000 7937500 L13210000 7962500 "/>
</g>
<g style="fill-opacity: 0.0;stroke-width: 170000.000000;stroke-opacity: 1;stroke-linecap: round;stroke-linejoin: round">
<path d="M15040000 7937500 L15040000 7962500 "/>
<path d="M14790000 7937500 L14790000 7962500 "/>
<path d="M14540000 7937500 L14540000 7962500 "/>
</g>
<g style="fill-opacity: 1.0;stroke-width: 0.100000;stroke-opacity: 1;stroke-linecap: round;stroke-linejoin: round">
<path style="fill-opacity: 1.0;stroke-width: 0.100000;stroke-opacity: 1;stroke-linecap: round;stroke-linejoin: round;fill-rule: evenodd" d="M 14205000.000000,8047500.000000 14205000.000000,7852500.000000 14375000.000000,7852500.000000 14375000.000000,8047500.000000 Z"/> 
</g>
<g style="fill-opacity: 1.0;stroke-width: 0.100000;stroke-opacity: 1;stroke-linecap: round;stroke-linejoin: round">
<circle cx="12100000.000000" cy="5730000.000000" r="90000.000000"/> 
</g>
<g style="fill-opacity: 1.0;stroke-width: 0.100000;stroke-opacity: 1;stroke-linecap: round;stroke-linejoin: round">
<circle cx="12354000.000000" cy="6238000.000000" r="90000.000000"/> 
</g>
<g style="fill-opacity: 1.0;stroke-width: 0.100000;stroke-opacity: 1;stroke-linecap: round;stroke-linejoin: round">
<circle cx="12100000.000000" cy="7000000.000000" r="90000.000000"/> 
</g>
<g style="fill-opacity: 1.0;stroke-width: 0.100000;stroke-opacity: 1;stroke-linecap: round;stroke-linejoin: round">
<circle cx="13116000.000000" cy="7000000.000000" r="90000.000000"/> 
</g>
<g style="fill-opacity: 1.0;stroke-width: 0.100000;stroke-opacity: 1;stroke-linecap: round;stroke-linejoin: round">
<circle cx="13370000.000000" cy="6238000.000000" r="90000.000000"/> 
</g>
<g style="fill-opacity: 1.0;stroke-width: 0.100000;stroke-opacity: 1;stroke-linecap: round;stroke-linejoin: round">
<circle cx="13116000.000000" cy="5730000.000000" r="90000.000000"/> 
</g>
<g style="fill-opacity: 1.0;stroke-width: 0.100000;stroke-opacity: 1;stroke-linecap: round;stroke-linejoin: round">
<circle cx="14132000.000000" cy="5730000.000000" r="90000.000000"/> 
</g>
<g style="fill-opacity: 1.0;stroke-width: 0.100000;stroke-opacity: 1;stroke-linecap: round;stroke-linejoin: round">
<circle cx="14386000.000000" cy="6238000.000000" r="90000.000000"/> 
</g>
<g style="fill-opacity: 1.0;stroke-width: 0.100000;stroke-opacity: 1;stroke-linecap: round;stroke-linejoin: round">
<circle cx="14132000.000000" cy="7000000.000000" r="90000.000000"/> 
</g>
<g style="fill-opacity: 1.0;stroke-width: 0.100000;stroke-opacity: 1;stroke-linecap: round;stroke-linejoin: round">
<circle cx="15148000.000000" cy="7000000.000000" r="90000.000000"/> 
</g>
<g style="fill-opacity: 1.0;stroke-width: 0.100000;stroke-opacity: 1;stroke-linecap: round;stroke-linejoin: round">
<circle cx="15402000.000000" cy="6238000.000000" r="90000.000000"/> 
</g>
<g style="fill-opacity: 1.0;stroke-width: 0.100000;stroke-opacity: 1;stroke-linecap: round;stroke-linejoin: round">
<circle cx="15148000.000000" cy="5730000.000000" r="90000.000000"/> 
</g>
<g style="fill-opacity: 0.0;stroke-width: 25000.000000;stroke-opacity: 1;stroke-linecap: round;stroke-linejoin: round">
<path d="M12460000 7770000 L12460000 7950000 "/>
<path d="M11870000 7180000 L12460000 7770000 "/>
<path d="M12100000 5730000 L11870000 5960000 "/>
<path d="M11870000 5960000 L11870000 7180000 "/>
<path d="M12710000 6136000 L12710000 7950000 "/>
<path d="M13116000 5730000 L12710000 6136000 "/>
<path d="M14042000 5819999 L14040000 5819999 "/>
<path d="M14132000 5730000 L14042000 5819999 "/>
<path d="M14040000 5819999 L13810000 6050000 "/>
<path d="M13810000 6050000 L13810000 7200000 "/>
<path d="M13810000 7200000 L13530000 7480000 "/>
<path d="M13530000 7480000 L13070000 7480000 "/>
<path d="M12960000 7590000 L12960000 7950000 "/>
<path d="M13070000 7480000 L12960000 7590000 "/>
<path d="M13210000 7937500 L13210000 7950000 "/>
<path d="M13527500 7620000 L13210000 7937500 "/>
<path d="M14310000 7620000 L13527500 7620000 "/>
<path d="M14850000 7080000 L14310000 7620000 "/>
<path d="M14850000 6028000 L14850000 7080000 "/>
<path d="M15148000 5730000 L14850000 6028000 "/>
</g>
</g> 
</g><g id="substrate-silk" style="fill:#f0f0f0; stroke:#f0f0f0;" mask="url(#pads-mask-silkscreen)"><g style="fill-opacity: 0.0;stroke-width: 20000.000000;stroke-opacity: 1;stroke-linecap: round;stroke-linejoin: round">
<text x="15040000.000000" y="8370000.000000" textLength="95238.200000" font-size="133333.300000" lengthAdjust="spacingAndGlyphs" text-anchor="middle" opacity="0">4</text>
<g class="stroked-text"><desc>4</desc>
<path d="M15059047 8298571 L15059047 8365238 "/>
<path d="M15035238 8260476 L15011428 8331904 L15073333 8331904 "/>
</g><text x="14790000.000000" y="8370000.000000" textLength="121238.100000" font-size="133333.300000" lengthAdjust="spacingAndGlyphs" text-anchor="middle" opacity="0">3</text>
<g class="stroked-text"><desc>3</desc>
<path d="M14756666 8265238 L14818571 8265238 L14785238 8303333 L14799523 8303333 L14809047 8308095 L14813809 8312857 L14818571 8322380 L14818571 8346190 L14813809 8355714 L14809047 8360476 L14799523 8365238 L14770952 8365238 L14761428 8360476 L14756666 8355714 "/>
</g><text x="14540000.000000" y="8370000.000000" textLength="121238.100000" font-size="133333.300000" lengthAdjust="spacingAndGlyphs" text-anchor="middle" opacity="0">2</text>
<g class="stroked-text"><desc>2</desc>
<path d="M14511428 8274761 L14516190 8270000 L14525714 8265238 L14549523 8265238 L14559047 8270000 L14563809 8274761 L14568571 8284285 L14568571 8293809 L14563809 8308095 L14506666 8365238 L14568571 8365238 "/>
</g><text x="14290000.000000" y="8370000.000000" textLength="121238.100000" font-size="133333.300000" lengthAdjust="spacingAndGlyphs" text-anchor="middle" opacity="0">1</text>
<g class="stroked-text"><desc>1</desc>
<path d="M14318571 8365238 L14261428 8365238 "/>
<path d="M14290000 8365238 L14290000 8265238 L14280476 8279523 L14270952 8289047 L14261428 8293809 "/>
</g><text x="13220000.000000" y="8370000.000000" textLength="121238.100000" font-size="133333.300000" lengthAdjust="spacingAndGlyphs" text-anchor="middle" opacity="0">4</text>
<g class="stroked-text"><desc>4</desc>
<path d="M13239047 8298571 L13239047 8365238 "/>
<path d="M13215238 8260476 L13191428 8331904 L13253333 8331904 "/>
</g><text x="12970000.000000" y="8370000.000000" textLength="121238.100000" font-size="133333.300000" lengthAdjust="spacingAndGlyphs" text-anchor="middle" opacity="0">3</text>
<g class="stroked-text"><desc>3</desc>
<path d="M12936666 8265238 L12998571 8265238 L12965238 8303333 L12979523 8303333 L12989047 8308095 L12993809 8312857 L12998571 8322380 L12998571 8346190 L12993809 8355714 L12989047 8360476 L12979523 8365238 L12950952 8365238 L12941428 8360476 L12936666 8355714 "/>
</g><text x="12710000.000000" y="8370000.000000" textLength="121238.100000" font-size="133333.300000" lengthAdjust="spacingAndGlyphs" text-anchor="middle" opacity="0">2</text>
<g class="stroked-text"><desc>2</desc>
<path d="M12681428 8274761 L12686190 8270000 L12695714 8265238 L12719523 8265238 L12729047 8270000 L12733809 8274761 L12738571 8284285 L12738571 8293809 L12733809 8308095 L12676666 8365238 L12738571 8365238 "/>
</g><text x="12460000.000000" y="8370000.000000" textLength="121238.100000" font-size="133333.300000" lengthAdjust="spacingAndGlyphs" text-anchor="middle" opacity="0">1</text>
<g class="stroked-text"><desc>1</desc>
<path d="M12488571 8365238 L12431428 8365238 "/>
<path d="M12460000 8365238 L12460000 8265238 L12450476 8279523 L12440952 8289047 L12431428 8293809 "/>
</g></g>
<g style="fill-opacity: 0.0;stroke-width: 15000.000000;stroke-opacity: 1;stroke-linecap: round;stroke-linejoin: round">
<text x="12840000.000000" y="7680000.000000" textLength="1159333.300000" font-size="133333.300000" lengthAdjust="spacingAndGlyphs" text-anchor="middle" opacity="0">From Stimlator</text>
<g class="stroked-text"><desc>From Stimlator</desc>
<path d="M12330476 7622857 L12297142 7622857 "/>
<path d="M12297142 7675238 L12297142 7575238 L12344761 7575238 "/>
<path d="M12382857 7675238 L12382857 7608571 "/>
<path d="M12382857 7627619 L12387619 7618095 L12392380 7613333 L12401904 7608571 L12411428 7608571 "/>
<path d="M12459047 7675238 L12449523 7670476 L12444761 7665714 L12440000 7656190 L12440000 7627619 L12444761 7618095 L12449523 7613333 L12459047 7608571 L12473333 7608571 L12482857 7613333 L12487619 7618095 L12492380 7627619 L12492380 7656190 L12487619 7665714 L12482857 7670476 L12473333 7675238 L12459047 7675238 "/>
<path d="M12535238 7675238 L12535238 7608571 "/>
<path d="M12535238 7618095 L12540000 7613333 L12549523 7608571 L12563809 7608571 L12573333 7613333 L12578095 7622857 L12578095 7675238 "/>
<path d="M12578095 7622857 L12582857 7613333 L12592380 7608571 L12606666 7608571 L12616190 7613333 L12620952 7622857 L12620952 7675238 "/>
<path d="M12740000 7670476 L12754285 7675238 L12778095 7675238 L12787619 7670476 L12792380 7665714 L12797142 7656190 L12797142 7646666 L12792380 7637142 L12787619 7632380 L12778095 7627619 L12759047 7622857 L12749523 7618095 L12744761 7613333 L12740000 7603809 L12740000 7594285 L12744761 7584761 L12749523 7580000 L12759047 7575238 L12782857 7575238 L12797142 7580000 "/>
<path d="M12825714 7608571 L12863809 7608571 "/>
<path d="M12840000 7575238 L12840000 7660952 L12844761 7670476 L12854285 7675238 L12863809 7675238 "/>
<path d="M12897142 7675238 L12897142 7608571 "/>
<path d="M12897142 7575238 L12892380 7580000 L12897142 7584761 L12901904 7580000 L12897142 7575238 L12897142 7584761 "/>
<path d="M12944761 7675238 L12944761 7608571 "/>
<path d="M12944761 7618095 L12949523 7613333 L12959047 7608571 L12973333 7608571 L12982857 7613333 L12987619 7622857 L12987619 7675238 "/>
<path d="M12987619 7622857 L12992380 7613333 L13001904 7608571 L13016190 7608571 L13025714 7613333 L13030476 7622857 L13030476 7675238 "/>
<path d="M13092380 7675238 L13082857 7670476 L13078095 7660952 L13078095 7575238 "/>
<path d="M13173333 7675238 L13173333 7622857 L13168571 7613333 L13159047 7608571 L13140000 7608571 L13130476 7613333 "/>
<path d="M13173333 7670476 L13163809 7675238 L13140000 7675238 L13130476 7670476 L13125714 7660952 L13125714 7651428 L13130476 7641904 L13140000 7637142 L13163809 7637142 L13173333 7632380 "/>
<path d="M13206666 7608571 L13244761 7608571 "/>
<path d="M13220952 7575238 L13220952 7660952 L13225714 7670476 L13235238 7675238 L13244761 7675238 "/>
<path d="M13292380 7675238 L13282857 7670476 L13278095 7665714 L13273333 7656190 L13273333 7627619 L13278095 7618095 L13282857 7613333 L13292380 7608571 L13306666 7608571 L13316190 7613333 L13320952 7618095 L13325714 7627619 L13325714 7656190 L13320952 7665714 L13316190 7670476 L13306666 7675238 L13292380 7675238 "/>
<path d="M13368571 7675238 L13368571 7608571 "/>
<path d="M13368571 7627619 L13373333 7618095 L13378095 7613333 L13387619 7608571 L13397142 7608571 "/>
</g><text x="14665000.000000" y="7690000.000000" textLength="533785.700000" font-size="133333.300000" lengthAdjust="spacingAndGlyphs" text-anchor="middle" opacity="0">To LED</text>
<g class="stroked-text"><desc>To LED</desc>
<path d="M14417380 7585238 L14474523 7585238 "/>
<path d="M14445952 7685238 L14445952 7585238 "/>
<path d="M14522142 7685238 L14512619 7680476 L14507857 7675714 L14503095 7666190 L14503095 7637619 L14507857 7628095 L14512619 7623333 L14522142 7618571 L14536428 7618571 L14545952 7623333 L14550714 7628095 L14555476 7637619 L14555476 7666190 L14550714 7675714 L14545952 7680476 L14536428 7685238 L14522142 7685238 "/>
<path d="M14722142 7685238 L14674523 7685238 L14674523 7585238 "/>
<path d="M14755476 7632857 L14788809 7632857 "/>
<path d="M14803095 7685238 L14755476 7685238 L14755476 7585238 L14803095 7585238 "/>
<path d="M14845952 7685238 L14845952 7585238 L14869761 7585238 L14884047 7590000 L14893571 7599523 L14898333 7609047 L14903095 7628095 L14903095 7642380 L14898333 7661428 L14893571 7670952 L14884047 7680476 L14869761 7685238 L14845952 7685238 "/>
</g><text x="12230000.000000" y="7490000.000000" textLength="462357.100000" font-size="133333.300000" lengthAdjust="spacingAndGlyphs" text-anchor="middle" opacity="0">LED 1</text>
<g class="stroked-text"><desc>LED 1</desc>
<path d="M12080000 7485238 L12032380 7485238 L12032380 7385238 "/>
<path d="M12113333 7432857 L12146666 7432857 "/>
<path d="M12160952 7485238 L12113333 7485238 L12113333 7385238 L12160952 7385238 "/>
<path d="M12203809 7485238 L12203809 7385238 L12227619 7385238 L12241904 7390000 L12251428 7399523 L12256190 7409047 L12260952 7428095 L12260952 7442380 L12256190 7461428 L12251428 7470952 L12241904 7480476 L12227619 7485238 L12203809 7485238 "/>
<path d="M12432380 7485238 L12375238 7485238 "/>
<path d="M12403809 7485238 L12403809 7385238 L12394285 7399523 L12384761 7409047 L12375238 7413809 "/>
</g><text x="13250000.000000" y="7490000.000000" textLength="462357.100000" font-size="133333.300000" lengthAdjust="spacingAndGlyphs" text-anchor="middle" opacity="0">LED 2</text>
<g class="stroked-text"><desc>LED 2</desc>
<path d="M13100000 7485238 L13052380 7485238 L13052380 7385238 "/>
<path d="M13133333 7432857 L13166666 7432857 "/>
<path d="M13180952 7485238 L13133333 7485238 L13133333 7385238 L13180952 7385238 "/>
<path d="M13223809 7485238 L13223809 7385238 L13247619 7385238 L13261904 7390000 L13271428 7399523 L13276190 7409047 L13280952 7428095 L13280952 7442380 L13276190 7461428 L13271428 7470952 L13261904 7480476 L13247619 7485238 L13223809 7485238 "/>
<path d="M13395238 7394761 L13400000 7390000 L13409523 7385238 L13433333 7385238 L13442857 7390000 L13447619 7394761 L13452380 7404285 L13452380 7413809 L13447619 7428095 L13390476 7485238 L13452380 7485238 "/>
</g><text x="14270000.000000" y="7490000.000000" textLength="462357.100000" font-size="133333.300000" lengthAdjust="spacingAndGlyphs" text-anchor="middle" opacity="0">LED 3</text>
<g class="stroked-text"><desc>LED 3</desc>
<path d="M14120000 7485238 L14072380 7485238 L14072380 7385238 "/>
<path d="M14153333 7432857 L14186666 7432857 "/>
<path d="M14200952 7485238 L14153333 7485238 L14153333 7385238 L14200952 7385238 "/>
<path d="M14243809 7485238 L14243809 7385238 L14267619 7385238 L14281904 7390000 L14291428 7399523 L14296190 7409047 L14300952 7428095 L14300952 7442380 L14296190 7461428 L14291428 7470952 L14281904 7480476 L14267619 7485238 L14243809 7485238 "/>
<path d="M14410476 7385238 L14472380 7385238 L14439047 7423333 L14453333 7423333 L14462857 7428095 L14467619 7432857 L14472380 7442380 L14472380 7466190 L14467619 7475714 L14462857 7480476 L14453333 7485238 L14424761 7485238 L14415238 7480476 L14410476 7475714 "/>
</g><text x="15280000.000000" y="7490000.000000" textLength="462357.100000" font-size="133333.300000" lengthAdjust="spacingAndGlyphs" text-anchor="middle" opacity="0">LED 4</text>
<g class="stroked-text"><desc>LED 4</desc>
<path d="M15130000 7485238 L15082380 7485238 L15082380 7385238 "/>
<path d="M15163333 7432857 L15196666 7432857 "/>
<path d="M15210952 7485238 L15163333 7485238 L15163333 7385238 L15210952 7385238 "/>
<path d="M15253809 7485238 L15253809 7385238 L15277619 7385238 L15291904 7390000 L15301428 7399523 L15306190 7409047 L15310952 7428095 L15310952 7442380 L15306190 7461428 L15301428 7470952 L15291904 7480476 L15277619 7485238 L15253809 7485238 "/>
<path d="M15472857 7418571 L15472857 7485238 "/>
<path d="M15449047 7380476 L15425238 7451904 L15487142 7451904 "/>
</g></g>
<g style="fill-opacity: 0.0;stroke-width: 12000.000000;stroke-opacity: 1;stroke-linecap: round;stroke-linejoin: round">
<path d="M12169000 8211000 L12419000 8211000 "/>
<path d="M12169000 7961000 L12169000 8211000 "/>
<path d="M13371000 8031000 L13371000 8181000 "/>
<path d="M13471000 8031000 L13371000 8031000 "/>
<path d="M12299000 8031000 L12299000 8181000 "/>
<path d="M12199000 8031000 L12299000 8031000 "/>
<path d="M13421000 7950000 L13471000 7950000 "/>
<path d="M13421000 7829000 L13421000 7950000 "/>
<path d="M12249000 7829000 L13421000 7829000 "/>
<path d="M12249000 7950000 L12249000 7829000 "/>
<path d="M12199000 7950000 L12249000 7950000 "/>
<path d="M13471000 7779000 L12199000 7779000 "/>
<path d="M13471000 8181000 L13471000 7779000 "/>
<path d="M12199000 8181000 L13471000 8181000 "/>
<path d="M12199000 7779000 L12199000 8181000 "/>
<path d="M14029000 7779000 L14029000 8181000 "/>
<path d="M14029000 8181000 L15301000 8181000 "/>
<path d="M15301000 8181000 L15301000 7779000 "/>
<path d="M15301000 7779000 L14029000 7779000 "/>
<path d="M14029000 7950000 L14079000 7950000 "/>
<path d="M14079000 7950000 L14079000 7829000 "/>
<path d="M14079000 7829000 L15251000 7829000 "/>
<path d="M15251000 7829000 L15251000 7950000 "/>
<path d="M15251000 7950000 L15301000 7950000 "/>
<path d="M14029000 8031000 L14129000 8031000 "/>
<path d="M14129000 8031000 L14129000 8181000 "/>
<path d="M15301000 8031000 L15201000 8031000 "/>
<path d="M15201000 8031000 L15201000 8181000 "/>
<path d="M13999000 7961000 L13999000 8211000 "/>
<path d="M13999000 8211000 L14249000 8211000 "/>
<path d="M12479000 5388000 L12479000 7312000 "/>
<path d="M11975000 5388000 L11975000 7312000 "/>
<path d="M12479000 5388000 L11975000 5388000 "/>
<path d="M12479000 7312000 L11975000 7312000 "/>
<path d="M12357000 5236000 L12357000 5387900 "/>
<path d="M12097000 5236000 L12097000 5387900 "/>
<path d="M12357000 5236000 L12097000 5236000 "/>
<path d="M12357000 5387900 L12097000 5387900 "/>
<path d="M12227000 5236000 L12227000 5311900 "/>
<path d="M13243000 5236000 L13243000 5311900 "/>
<path d="M13373000 5387900 L13113000 5387900 "/>
<path d="M13373000 5236000 L13113000 5236000 "/>
<path d="M13113000 5236000 L13113000 5387900 "/>
<path d="M13373000 5236000 L13373000 5387900 "/>
<path d="M13495000 7312000 L12991000 7312000 "/>
<path d="M13495000 5388000 L12991000 5388000 "/>
<path d="M12991000 5388000 L12991000 7312000 "/>
<path d="M13495000 5388000 L13495000 7312000 "/>
<path d="M14511000 5388000 L14511000 7312000 "/>
<path d="M14007000 5388000 L14007000 7312000 "/>
<path d="M14511000 5388000 L14007000 5388000 "/>
<path d="M14511000 7312000 L14007000 7312000 "/>
<path d="M14389000 5236000 L14389000 5387900 "/>
<path d="M14129000 5236000 L14129000 5387900 "/>
<path d="M14389000 5236000 L14129000 5236000 "/>
<path d="M14389000 5387900 L14129000 5387900 "/>
<path d="M14259000 5236000 L14259000 5311900 "/>
<path d="M15275000 5236000 L15275000 5311900 "/>
<path d="M15405000 5387900 L15145000 5387900 "/>
<path d="M15405000 5236000 L15145000 5236000 "/>
<path d="M15145000 5236000 L15145000 5387900 "/>
<path d="M15405000 5236000 L15405000 5387900 "/>
<path d="M15527000 7312000 L15023000 7312000 "/>
<path d="M15527000 5388000 L15023000 5388000 "/>
<path d="M15023000 5388000 L15023000 7312000 "/>
<path d="M15527000 5388000 L15527000 7312000 "/>
</g> 
</g><g id="substrate-outline" style="fill:#000000; stroke:#000000; stroke-width: 15000.0"><g style="fill-opacity: 0.0;stroke-opacity: 1;stroke-linecap: round;stroke-linejoin: round">
<path d="M15750000 5400000 L15750000 8400000 "/>
<path d="M11750000 8400000 L15750000 8400000 "/>
<path d="M11750000 5400000 L11750000 8400000 "/>
<path d="M15750000 5400000 L11750000 5400000 "/>
</g> 
<path d="M -47500.0 0.0 A 47500.0 47500.0 0 1 1 47500.0 0.0 L 47500.0 -0.0 A 47500.0 47500.0 0 1 1 -47500.0 -0.0 Z" transform="translate(12460000.0 7950000.0) rotate(-0.0)"/><path d="M -47500.0 0.0 A 47500.0 47500.0 0 1 1 47500.0 0.0 L 47500.0 -0.0 A 47500.0 47500.0 0 1 1 -47500.0 -0.0 Z" transform="translate(12710000.0 7950000.0) rotate(-0.0)"/><path d="M -47500.0 0.0 A 47500.0 47500.0 0 1 1 47500.0 0.0 L 47500.0 -0.0 A 47500.0 47500.0 0 1 1 -47500.0 -0.0 Z" transform="translate(12960000.0 7950000.0) rotate(-0.0)"/><path d="M -47500.0 0.0 A 47500.0 47500.0 0 1 1 47500.0 0.0 L 47500.0 -0.0 A 47500.0 47500.0 0 1 1 -47500.0 -0.0 Z" transform="translate(13210000.0 7950000.0) rotate(-0.0)"/><path d="M -47500.0 0.0 A 47500.0 47500.0 0 1 1 47500.0 0.0 L 47500.0 -0.0 A 47500.0 47500.0 0 1 1 -47500.0 -0.0 Z" transform="translate(15040000.0 7950000.0) rotate(-0.0)"/><path d="M -47500.0 0.0 A 47500.0 47500.0 0 1 1 47500.0 0.0 L 47500.0 -0.0 A 47500.0 47500.0 0 1 1 -47500.0 -0.0 Z" transform="translate(14790000.0 7950000.0) rotate(-0.0)"/><path d="M -47500.0 0.0 A 47500.0 47500.0 0 1 1 47500.0 0.0 L 47500.0 -0.0 A 47500.0 47500.0 0 1 1 -47500.0 -0.0 Z" transform="translate(14540000.0 7950000.0) rotate(-0.0)"/><path d="M -47500.0 0.0 A 47500.0 47500.0 0 1 1 47500.0 0.0 L 47500.0 -0.0 A 47500.0 47500.0 0 1 1 -47500.0 -0.0 Z" transform="translate(14290000.0 7950000.0) rotate(-0.0)"/><path d="M -50000.0 0.0 A 50000.0 50000.0 0 1 1 50000.0 0.0 L 50000.0 -0.0 A 50000.0 50000.0 0 1 1 -50000.0 -0.0 Z" transform="translate(12100000.0 5730000.0) rotate(-270.0)"/><path d="M -50000.0 0.0 A 50000.0 50000.0 0 1 1 50000.0 0.0 L 50000.0 -0.0 A 50000.0 50000.0 0 1 1 -50000.0 -0.0 Z" transform="translate(12354000.0 6238000.0) rotate(-270.0)"/><path d="M -50000.0 0.0 A 50000.0 50000.0 0 1 1 50000.0 0.0 L 50000.0 -0.0 A 50000.0 50000.0 0 1 1 -50000.0 -0.0 Z" transform="translate(12100000.0 7000000.0) rotate(-270.0)"/><path d="M -50000.0 0.0 A 50000.0 50000.0 0 1 1 50000.0 0.0 L 50000.0 -0.0 A 50000.0 50000.0 0 1 1 -50000.0 -0.0 Z" transform="translate(13116000.0 7000000.0) rotate(-270.0)"/><path d="M -50000.0 0.0 A 50000.0 50000.0 0 1 1 50000.0 0.0 L 50000.0 -0.0 A 50000.0 50000.0 0 1 1 -50000.0 -0.0 Z" transform="translate(13370000.0 6238000.0) rotate(-270.0)"/><path d="M -50000.0 0.0 A 50000.0 50000.0 0 1 1 50000.0 0.0 L 50000.0 -0.0 A 50000.0 50000.0 0 1 1 -50000.0 -0.0 Z" transform="translate(13116000.0 5730000.0) rotate(-270.0)"/><path d="M -50000.0 0.0 A 50000.0 50000.0 0 1 1 50000.0 0.0 L 50000.0 -0.0 A 50000.0 50000.0 0 1 1 -50000.0 -0.0 Z" transform="translate(14132000.0 5730000.0) rotate(-270.0)"/><path d="M -50000.0 0.0 A 50000.0 50000.0 0 1 1 50000.0 0.0 L 50000.0 -0.0 A 50000.0 50000.0 0 1 1 -50000.0 -0.0 Z" transform="translate(14386000.0 6238000.0) rotate(-270.0)"/><path d="M -50000.0 0.0 A 50000.0 50000.0 0 1 1 50000.0 0.0 L 50000.0 -0.0 A 50000.0 50000.0 0 1 1 -50000.0 -0.0 Z" transform="translate(14132000.0 7000000.0) rotate(-270.0)"/><path d="M -50000.0 0.0 A 50000.0 50000.0 0 1 1 50000.0 0.0 L 50000.0 -0.0 A 50000.0 50000.0 0 1 1 -50000.0 -0.0 Z" transform="translate(15148000.0 7000000.0) rotate(-270.0)"/><path d="M -50000.0 0.0 A 50000.0 50000.0 0 1 1 50000.0 0.0 L 50000.0 -0.0 A 50000.0 50000.0 0 1 1 -50000.0 -0.0 Z" transform="translate(15402000.0 6238000.0) rotate(-270.0)"/><path d="M -50000.0 0.0 A 50000.0 50000.0 0 1 1 50000.0 0.0 L 50000.0 -0.0 A 50000.0 50000.0 0 1 1 -50000.0 -0.0 Z" transform="translate(15148000.0 5730000.0) rotate(-270.0)"/></g></g></g></svg>