<!DOCTYPE svg PUBLIC "-//W3C//DTD SVG 1.1//EN" "http://www.w3.org/Graphics/SVG/1.1/DTD/svg11.dtd">
<svg xmlns="http://www.w3.org/2000/svg" version="1.1" width="34.0mm" height="102.0mm" viewBox="13600000.0 2400000.0 3400000.0 10200000.0">
            <title>Picture generated by PcbDraw </title>
            <desc>Picture generated by PcbDraw</desc>
        <defs><clipPath id="cut-off"><path d=" M 13700000.0 2500000.0 L 16900000.0 2500000.0 L 16900000.0 12500000.0 L 13700000.0 12500000.0 L 13700000.0 2500000.0 " style="fill-rule: evenodd;"/></clipPath><mask id="pads-mask"><g style="fill:#ffffff; fill-opacity:0.0;  stroke:#ffffff; stroke-width:0.000000; stroke-opacity:1;  stroke-linecap:round; stroke-linejoin:round;">
<g style="fill:#ffffff; fill-opacity:1.0;  stroke:#ffffff; stroke-width:0.100000; stroke-opacity:1;  stroke-linecap:round; stroke-linejoin:round;">
<circle cx="14267000.000000" cy="3855000.000000" r="100000.000000"/> 
</g>
<g style="fill:#ffffff; fill-opacity:1.0;  stroke:#ffffff; stroke-width:0.100000; stroke-opacity:1;  stroke-linecap:round; stroke-linejoin:round;">
<circle cx="15167000.000000" cy="3855000.000000" r="100000.000000"/> 
</g>
<g style="fill:#ffffff; fill-opacity:1.0;  stroke:#ffffff; stroke-width:0.100000; stroke-opacity:1;  stroke-linecap:round; stroke-linejoin:round;">
<circle cx="16575000.000000" cy="2966000.000000" r="100000.000000"/> 
</g>
<g style="fill:#ffffff; fill-opacity:1.0;  stroke:#ffffff; stroke-width:0.100000; stroke-opacity:1;  stroke-linecap:round; stroke-linejoin:round;">
<circle cx="15675000.000000" cy="2966000.000000" r="100000.000000"/> 
</g>
<g style="fill:#ffffff; fill-opacity:1.0;  stroke:#ffffff; stroke-width:0.100000; stroke-opacity:1;  stroke-linecap:round; stroke-linejoin:round;">
<path style="fill:#ffffff; fill-opacity:1.0;  stroke:#ffffff; stroke-width:0.100000; stroke-opacity:1;  stroke-linecap:round; stroke-linejoin:round;fill-rule:evenodd;" d="M 15686500.000000,12367500.000000 15686500.000000,12267500.000000 15786500.000000,12267500.000000 15786500.000000,12367500.000000 Z"/> 
<circle cx="15863500.000000" cy="12317500.000000" r="50000.000000"/> 
</g>
<g style="fill:#ffffff; fill-opacity:0.0;  stroke:#ffffff; stroke-width:170000.000000; stroke-opacity:1;  stroke-linecap:round; stroke-linejoin:round;">
<path d="M15028000 2953500 L15028000 2978500 "/>
<path d="M14778000 2953500 L14778000 2978500 "/>
<path d="M14528000 2953500 L14528000 2978500 "/>
</g>
<g style="fill:#ffffff; fill-opacity:1.0;  stroke:#ffffff; stroke-width:0.100000; stroke-opacity:1;  stroke-linecap:round; stroke-linejoin:round;">
<path style="fill:#ffffff; fill-opacity:1.0;  stroke:#ffffff; stroke-width:0.100000; stroke-opacity:1;  stroke-linecap:round; stroke-linejoin:round;fill-rule:evenodd;" d="M 14193000.000000,2893500.000000 14194903.000000,2883932.900000 14200322.300000,2875822.300000 14208432.900000,2870403.000000 14218000.000000,2868500.000000 14338000.000000,2868500.000000 14347567.100000,2870403.000000 14355677.700000,2875822.300000 14361097.000000,2883932.900000 14363000.000000,2893500.000000 14363000.000000,3038500.000000 14361097.000000,3048067.100000 14355677.700000,3056177.700000 14347567.100000,3061597.000000 14338000.000000,3063500.000000 14218000.000000,3063500.000000 14208432.900000,3061597.000000 14200322.300000,3056177.700000 14194903.000000,3048067.100000 14193000.000000,3038500.000000 Z"/> 
</g>
<g style="fill:#ffffff; fill-opacity:1.0;  stroke:#ffffff; stroke-width:0.100000; stroke-opacity:1;  stroke-linecap:round; stroke-linejoin:round;">
<circle cx="15929000.000000" cy="3728000.000000" r="90000.000000"/> 
</g>
<g style="fill:#ffffff; fill-opacity:1.0;  stroke:#ffffff; stroke-width:0.100000; stroke-opacity:1;  stroke-linecap:round; stroke-linejoin:round;">
<path style="fill:#ffffff; fill-opacity:1.0;  stroke:#ffffff; stroke-width:0.100000; stroke-opacity:1;  stroke-linecap:round; stroke-linejoin:round;fill-rule:evenodd;" d="M 15585000.000000,3818000.000000 15585000.000000,3638000.000000 15765000.000000,3638000.000000 15765000.000000,3818000.000000 Z"/> 
</g>
</g> 
</mask><mask id="pads-mask-silkscreen"><rect x="13697500.0" y="2497500.0" width="3205000.0" height="10005000.0" fill="white"/><g style="fill:#000000; fill-opacity:0.0;  stroke:#000000; stroke-width:0.000000; stroke-opacity:1;  stroke-linecap:round; stroke-linejoin:round;">
<g style="fill:#000000; fill-opacity:1.0;  stroke:#000000; stroke-width:0.100000; stroke-opacity:1;  stroke-linecap:round; stroke-linejoin:round;">
<circle cx="14267000.000000" cy="3855000.000000" r="100000.000000"/> 
</g>
<g style="fill:#000000; fill-opacity:1.0;  stroke:#000000; stroke-width:0.100000; stroke-opacity:1;  stroke-linecap:round; stroke-linejoin:round;">
<circle cx="15167000.000000" cy="3855000.000000" r="100000.000000"/> 
</g>
<g style="fill:#000000; fill-opacity:1.0;  stroke:#000000; stroke-width:0.100000; stroke-opacity:1;  stroke-linecap:round; stroke-linejoin:round;">
<circle cx="16575000.000000" cy="2966000.000000" r="100000.000000"/> 
</g>
<g style="fill:#000000; fill-opacity:1.0;  stroke:#000000; stroke-width:0.100000; stroke-opacity:1;  stroke-linecap:round; stroke-linejoin:round;">
<circle cx="15675000.000000" cy="2966000.000000" r="100000.000000"/> 
</g>
<g style="fill:#000000; fill-opacity:1.0;  stroke:#000000; stroke-width:0.100000; stroke-opacity:1;  stroke-linecap:round; stroke-linejoin:round;">
<path style="fill:#000000; fill-opacity:1.0;  stroke:#000000; stroke-width:0.100000; stroke-opacity:1;  stroke-linecap:round; stroke-linejoin:round;fill-rule:evenodd;" d="M 15686500.000000,12367500.000000 15686500.000000,12267500.000000 15786500.000000,12267500.000000 15786500.000000,12367500.000000 Z"/> 
<circle cx="15863500.000000" cy="12317500.000000" r="50000.000000"/> 
</g>
<g style="fill:#000000; fill-opacity:0.0;  stroke:#000000; stroke-width:170000.000000; stroke-opacity:1;  stroke-linecap:round; stroke-linejoin:round;">
<path d="M15028000 2953500 L15028000 2978500 "/>
<path d="M14778000 2953500 L14778000 2978500 "/>
<path d="M14528000 2953500 L14528000 2978500 "/>
</g>
<g style="fill:#000000; fill-opacity:1.0;  stroke:#000000; stroke-width:0.100000; stroke-opacity:1;  stroke-linecap:round; stroke-linejoin:round;">
<path style="fill:#000000; fill-opacity:1.0;  stroke:#000000; stroke-width:0.100000; stroke-opacity:1;  stroke-linecap:round; stroke-linejoin:round;fill-rule:evenodd;" d="M 14193000.000000,2893500.000000 14194903.000000,2883932.900000 14200322.300000,2875822.300000 14208432.900000,2870403.000000 14218000.000000,2868500.000000 14338000.000000,2868500.000000 14347567.100000,2870403.000000 14355677.700000,2875822.300000 14361097.000000,2883932.900000 14363000.000000,2893500.000000 14363000.000000,3038500.000000 14361097.000000,3048067.100000 14355677.700000,3056177.700000 14347567.100000,3061597.000000 14338000.000000,3063500.000000 14218000.000000,3063500.000000 14208432.900000,3061597.000000 14200322.300000,3056177.700000 14194903.000000,3048067.100000 14193000.000000,3038500.000000 Z"/> 
</g>
<g style="fill:#000000; fill-opacity:1.0;  stroke:#000000; stroke-width:0.100000; stroke-opacity:1;  stroke-linecap:round; stroke-linejoin:round;">
<circle cx="15929000.000000" cy="3728000.000000" r="90000.000000"/> 
</g>
<g style="fill:#000000; fill-opacity:1.0;  stroke:#000000; stroke-width:0.100000; stroke-opacity:1;  stroke-linecap:round; stroke-linejoin:round;">
<path style="fill:#000000; fill-opacity:1.0;  stroke:#000000; stroke-width:0.100000; stroke-opacity:1;  stroke-linecap:round; stroke-linejoin:round;fill-rule:evenodd;" d="M 15585000.000000,3818000.000000 15585000.000000,3638000.000000 15765000.000000,3638000.000000 15765000.000000,3818000.000000 Z"/> 
</g>
</g> 
</mask><mask id="hole-mask"><g><rect x="13697500.0" y="2497500.0" fill="white" width="3205000.0" height="10005000.0"/><polyline stroke-linecap="round" stroke="black" stroke-width="100000.0" points="-0.0 0 0.0 0" transform="translate(14267000.0 3855000.0) rotate(-180.0)"/><polyline stroke-linecap="round" stroke="black" stroke-width="100000.0" points="-0.0 0 0.0 0" transform="translate(15167000.0 3855000.0) rotate(-180.0)"/><polyline stroke-linecap="round" stroke="black" stroke-width="100000.0" points="-0.0 0 0.0 0" transform="translate(16575000.0 2966000.0) rotate(-0.0)"/><polyline stroke-linecap="round" stroke="black" stroke-width="100000.0" points="-0.0 0 0.0 0" transform="translate(15675000.0 2966000.0) rotate(-0.0)"/><polyline stroke-linecap="round" stroke="black" stroke-width="63500.0" points="-0.0 0 0.0 0" transform="translate(15736500.0 12317500.0) rotate(-0.0)"/><polyline stroke-linecap="round" stroke="black" stroke-width="63500.0" points="-0.0 0 0.0 0" transform="translate(15863500.0 12317500.0) rotate(-0.0)"/><polyline stroke-linecap="round" stroke="black" stroke-width="95000.0" points="-0.0 0 0.0 0" transform="translate(15028000.0 2966000.0) rotate(-0.0)"/><polyline stroke-linecap="round" stroke="black" stroke-width="95000.0" points="-0.0 0 0.0 0" transform="translate(14778000.0 2966000.0) rotate(-0.0)"/><polyline stroke-linecap="round" stroke="black" stroke-width="95000.0" points="-0.0 0 0.0 0" transform="translate(14528000.0 2966000.0) rotate(-0.0)"/><polyline stroke-linecap="round" stroke="black" stroke-width="95000.0" points="-0.0 0 0.0 0" transform="translate(14278000.0 2966000.0) rotate(-0.0)"/><polyline stroke-linecap="round" stroke="black" stroke-width="90000.0" points="-0.0 0 0.0 0" transform="translate(15929000.0 3728000.0) rotate(-0.0)"/><polyline stroke-linecap="round" stroke="black" stroke-width="90000.0" points="-0.0 0 0.0 0" transform="translate(15675000.0 3728000.0) rotate(-0.0)"/></g></mask></defs><g transform="" id="boardContainer"><g id="substrate" clip-path="url(#cut-off)" mask="url(#hole-mask)"><g id="substrate-board" style="fill:#4ca06c; stroke:#4ca06c;"><path d=" M 13700000.0 2500000.0 L 16900000.0 2500000.0 L 16900000.0 12500000.0 L 13700000.0 12500000.0 L 13700000.0 2500000.0 " style="fill-rule: evenodd;"/><g style="fill-opacity: 0.0;stroke-width: 5000.000000;stroke-opacity: 1;stroke-linecap: round;stroke-linejoin: round">
<path d="M13700000 12500000 L13700000 2500000 "/>
<path d="M16900000 12500000 L13700000 12500000 "/>
<path d="M16900000 2500000 L16900000 12500000 "/>
<path d="M13700000 2500000 L16900000 2500000 "/>
</g> 
</g><g id="substrate-clad" style="fill:#9c6b28; stroke:#9c6b28;"><g style="fill-opacity: 0.0;stroke-width: 0.000000;stroke-opacity: 1;stroke-linecap: round;stroke-linejoin: round">
<g style="fill-opacity: 1.0;stroke-width: 0.100000;stroke-opacity: 1;stroke-linecap: round;stroke-linejoin: round">
<circle cx="14267000.000000" cy="3855000.000000" r="100000.000000"/> 
</g>
<g style="fill-opacity: 1.0;stroke-width: 0.100000;stroke-opacity: 1;stroke-linecap: round;stroke-linejoin: round">
<circle cx="15167000.000000" cy="3855000.000000" r="100000.000000"/> 
</g>
<g style="fill-opacity: 1.0;stroke-width: 0.100000;stroke-opacity: 1;stroke-linecap: round;stroke-linejoin: round">
<circle cx="16575000.000000" cy="2966000.000000" r="100000.000000"/> 
</g>
<g style="fill-opacity: 1.0;stroke-width: 0.100000;stroke-opacity: 1;stroke-linecap: round;stroke-linejoin: round">
<circle cx="15675000.000000" cy="2966000.000000" r="100000.000000"/> 
</g>
<g style="fill-opacity: 1.0;stroke-width: 0.100000;stroke-opacity: 1;stroke-linecap: round;stroke-linejoin: round">
<path style="fill-opacity: 1.0;stroke-width: 0.100000;stroke-opacity: 1;stroke-linecap: round;stroke-linejoin: round;fill-rule: evenodd" d="M 15686500.000000,12367500.000000 15686500.000000,12267500.000000 15786500.000000,12267500.000000 15786500.000000,12367500.000000 Z"/> 
<circle cx="15863500.000000" cy="12317500.000000" r="50000.000000"/> 
</g>
<g style="fill-opacity: 0.0;stroke-width: 170000.000000;stroke-opacity: 1;stroke-linecap: round;stroke-linejoin: round">
<path d="M15028000 2953500 L15028000 2978500 "/>
<path d="M14778000 2953500 L14778000 2978500 "/>
<path d="M14528000 2953500 L14528000 2978500 "/>
</g>
<g style="fill-opacity: 1.0;stroke-width: 0.100000;stroke-opacity: 1;stroke-linecap: round;stroke-linejoin: round">
<path style="fill-opacity: 1.0;stroke-width: 0.100000;stroke-opacity: 1;stroke-linecap: round;stroke-linejoin: round;fill-rule: evenodd" d="M 14193000.000000,2893500.000000 14194903.000000,2883932.900000 14200322.300000,2875822.300000 14208432.900000,2870403.000000 14218000.000000,2868500.000000 14338000.000000,2868500.000000 14347567.100000,2870403.000000 14355677.700000,2875822.300000 14361097.000000,2883932.900000 14363000.000000,2893500.000000 14363000.000000,3038500.000000 14361097.000000,3048067.100000 14355677.700000,3056177.700000 14347567.100000,3061597.000000 14338000.000000,3063500.000000 14218000.000000,3063500.000000 14208432.900000,3061597.000000 14200322.300000,3056177.700000 14194903.000000,3048067.100000 14193000.000000,3038500.000000 Z"/> 
</g>
<g style="fill-opacity: 1.0;stroke-width: 0.100000;stroke-opacity: 1;stroke-linecap: round;stroke-linejoin: round">
<circle cx="15929000.000000" cy="3728000.000000" r="90000.000000"/> 
</g>
<g style="fill-opacity: 1.0;stroke-width: 0.100000;stroke-opacity: 1;stroke-linecap: round;stroke-linejoin: round">
<path style="fill-opacity: 1.0;stroke-width: 0.100000;stroke-opacity: 1;stroke-linecap: round;stroke-linejoin: round;fill-rule: evenodd" d="M 15585000.000000,3818000.000000 15585000.000000,3638000.000000 15765000.000000,3638000.000000 15765000.000000,3818000.000000 Z"/> 
</g>
</g> 
</g><g id="substrate-copper" style="fill:#417e5a; stroke:#417e5a;"><g style="fill-opacity: 0.0;stroke-width: 0.000000;stroke-opacity: 1;stroke-linecap: round;stroke-linejoin: round">
<g style="fill-opacity: 1.0;stroke-width: 0.100000;stroke-opacity: 1;stroke-linecap: round;stroke-linejoin: round">
<circle cx="14267000.000000" cy="3855000.000000" r="100000.000000"/> 
</g>
<g style="fill-opacity: 1.0;stroke-width: 0.100000;stroke-opacity: 1;stroke-linecap: round;stroke-linejoin: round">
<circle cx="15167000.000000" cy="3855000.000000" r="100000.000000"/> 
</g>
<g style="fill-opacity: 1.0;stroke-width: 0.100000;stroke-opacity: 1;stroke-linecap: round;stroke-linejoin: round">
<circle cx="16575000.000000" cy="2966000.000000" r="100000.000000"/> 
</g>
<g style="fill-opacity: 1.0;stroke-width: 0.100000;stroke-opacity: 1;stroke-linecap: round;stroke-linejoin: round">
<circle cx="15675000.000000" cy="2966000.000000" r="100000.000000"/> 
</g>
<g style="fill-opacity: 1.0;stroke-width: 0.100000;stroke-opacity: 1;stroke-linecap: round;stroke-linejoin: round">
<path style="fill-opacity: 1.0;stroke-width: 0.100000;stroke-opacity: 1;stroke-linecap: round;stroke-linejoin: round;fill-rule: evenodd" d="M 15686500.000000,12367500.000000 15686500.000000,12267500.000000 15786500.000000,12267500.000000 15786500.000000,12367500.000000 Z"/> 
<circle cx="15863500.000000" cy="12317500.000000" r="50000.000000"/> 
</g>
<g style="fill-opacity: 0.0;stroke-width: 170000.000000;stroke-opacity: 1;stroke-linecap: round;stroke-linejoin: round">
<path d="M15028000 2953500 L15028000 2978500 "/>
<path d="M14778000 2953500 L14778000 2978500 "/>
<path d="M14528000 2953500 L14528000 2978500 "/>
</g>
<g style="fill-opacity: 1.0;stroke-width: 0.100000;stroke-opacity: 1;stroke-linecap: round;stroke-linejoin: round">
<path style="fill-opacity: 1.0;stroke-width: 0.100000;stroke-opacity: 1;stroke-linecap: round;stroke-linejoin: round;fill-rule: evenodd" d="M 14193000.000000,2893500.000000 14194903.000000,2883932.900000 14200322.300000,2875822.300000 14208432.900000,2870403.000000 14218000.000000,2868500.000000 14338000.000000,2868500.000000 14347567.100000,2870403.000000 14355677.700000,2875822.300000 14361097.000000,2883932.900000 14363000.000000,2893500.000000 14363000.000000,3038500.000000 14361097.000000,3048067.100000 14355677.700000,3056177.700000 14347567.100000,3061597.000000 14338000.000000,3063500.000000 14218000.000000,3063500.000000 14208432.900000,3061597.000000 14200322.300000,3056177.700000 14194903.000000,3048067.100000 14193000.000000,3038500.000000 Z"/> 
</g>
<g style="fill-opacity: 1.0;stroke-width: 0.100000;stroke-opacity: 1;stroke-linecap: round;stroke-linejoin: round">
<circle cx="15929000.000000" cy="3728000.000000" r="90000.000000"/> 
</g>
<g style="fill-opacity: 1.0;stroke-width: 0.100000;stroke-opacity: 1;stroke-linecap: round;stroke-linejoin: round">
<path style="fill-opacity: 1.0;stroke-width: 0.100000;stroke-opacity: 1;stroke-linecap: round;stroke-linejoin: round;fill-rule: evenodd" d="M 15585000.000000,3818000.000000 15585000.000000,3638000.000000 15765000.000000,3638000.000000 15765000.000000,3818000.000000 Z"/> 
</g>
<g style="fill-opacity: 0.0;stroke-width: 50000.000000;stroke-opacity: 1;stroke-linecap: round;stroke-linejoin: round">
<path d="M15929000 3612000 L15929000 3728000 "/>
<path d="M16575000 2966000 L15929000 3612000 "/>
</g>
<g style="fill-opacity: 0.0;stroke-width: 25000.000000;stroke-opacity: 1;stroke-linecap: round;stroke-linejoin: round">
<path d="M15675000 3613000 L15675000 3728000 "/>
<path d="M15028000 2966000 L15675000 3613000 "/>
<path d="M15863500 3916500 L15863500 12317500 "/>
<path d="M15675000 3728000 L15863500 3916500 "/>
</g>
<g style="fill-opacity: 0.0;stroke-width: 50000.000000;stroke-opacity: 1;stroke-linecap: round;stroke-linejoin: round">
<path d="M14778000 2966000 L14778000 2822000 "/>
<path d="M14778000 2822000 L14900000 2700000 "/>
<path d="M15409000 2700000 L15675000 2966000 "/>
<path d="M14900000 2700000 L15409000 2700000 "/>
<path d="M14778000 3466000 L15167000 3855000 "/>
<path d="M14778000 2966000 L14778000 3466000 "/>
<path d="M14278000 3844000 L14267000 3855000 "/>
<path d="M14278000 2966000 L14278000 3844000 "/>
<path d="M14267000 10848000 L15736500 12317500 "/>
<path d="M14267000 3855000 L14267000 10848000 "/>
</g>
</g> 
</g><g id="substrate-pads" style="fill:#b5ae30; stroke:#b5ae30;" mask="url(#pads-mask)"><g style="fill-opacity: 0.0;stroke-width: 0.000000;stroke-opacity: 1;stroke-linecap: round;stroke-linejoin: round">
<g style="fill-opacity: 1.0;stroke-width: 0.100000;stroke-opacity: 1;stroke-linecap: round;stroke-linejoin: round">
<circle cx="14267000.000000" cy="3855000.000000" r="100000.000000"/> 
</g>
<g style="fill-opacity: 1.0;stroke-width: 0.100000;stroke-opacity: 1;stroke-linecap: round;stroke-linejoin: round">
<circle cx="15167000.000000" cy="3855000.000000" r="100000.000000"/> 
</g>
<g style="fill-opacity: 1.0;stroke-width: 0.100000;stroke-opacity: 1;stroke-linecap: round;stroke-linejoin: round">
<circle cx="16575000.000000" cy="2966000.000000" r="100000.000000"/> 
</g>
<g style="fill-opacity: 1.0;stroke-width: 0.100000;stroke-opacity: 1;stroke-linecap: round;stroke-linejoin: round">
<circle cx="15675000.000000" cy="2966000.000000" r="100000.000000"/> 
</g>
<g style="fill-opacity: 1.0;stroke-width: 0.100000;stroke-opacity: 1;stroke-linecap: round;stroke-linejoin: round">
<path style="fill-opacity: 1.0;stroke-width: 0.100000;stroke-opacity: 1;stroke-linecap: round;stroke-linejoin: round;fill-rule: evenodd" d="M 15686500.000000,12367500.000000 15686500.000000,12267500.000000 15786500.000000,12267500.000000 15786500.000000,12367500.000000 Z"/> 
<circle cx="15863500.000000" cy="12317500.000000" r="50000.000000"/> 
</g>
<g style="fill-opacity: 0.0;stroke-width: 170000.000000;stroke-opacity: 1;stroke-linecap: round;stroke-linejoin: round">
<path d="M15028000 2953500 L15028000 2978500 "/>
<path d="M14778000 2953500 L14778000 2978500 "/>
<path d="M14528000 2953500 L14528000 2978500 "/>
</g>
<g style="fill-opacity: 1.0;stroke-width: 0.100000;stroke-opacity: 1;stroke-linecap: round;stroke-linejoin: round">
<path style="fill-opacity: 1.0;stroke-width: 0.100000;stroke-opacity: 1;stroke-linecap: round;stroke-linejoin: round;fill-rule: evenodd" d="M 14193000.000000,2893500.000000 14194903.000000,2883932.900000 14200322.300000,2875822.300000 14208432.900000,2870403.000000 14218000.000000,2868500.000000 14338000.000000,2868500.000000 14347567.100000,2870403.000000 14355677.700000,2875822.300000 14361097.000000,2883932.900000 14363000.000000,2893500.000000 14363000.000000,3038500.000000 14361097.000000,3048067.100000 14355677.700000,3056177.700000 14347567.100000,3061597.000000 14338000.000000,3063500.000000 14218000.000000,3063500.000000 14208432.900000,3061597.000000 14200322.300000,3056177.700000 14194903.000000,3048067.100000 14193000.000000,3038500.000000 Z"/> 
</g>
<g style="fill-opacity: 1.0;stroke-width: 0.100000;stroke-opacity: 1;stroke-linecap: round;stroke-linejoin: round">
<circle cx="15929000.000000" cy="3728000.000000" r="90000.000000"/> 
</g>
<g style="fill-opacity: 1.0;stroke-width: 0.100000;stroke-opacity: 1;stroke-linecap: round;stroke-linejoin: round">
<path style="fill-opacity: 1.0;stroke-width: 0.100000;stroke-opacity: 1;stroke-linecap: round;stroke-linejoin: round;fill-rule: evenodd" d="M 15585000.000000,3818000.000000 15585000.000000,3638000.000000 15765000.000000,3638000.000000 15765000.000000,3818000.000000 Z"/> 
</g>
<g style="fill-opacity: 0.0;stroke-width: 50000.000000;stroke-opacity: 1;stroke-linecap: round;stroke-linejoin: round">
<path d="M15929000 3612000 L15929000 3728000 "/>
<path d="M16575000 2966000 L15929000 3612000 "/>
</g>
<g style="fill-opacity: 0.0;stroke-width: 25000.000000;stroke-opacity: 1;stroke-linecap: round;stroke-linejoin: round">
<path d="M15675000 3613000 L15675000 3728000 "/>
<path d="M15028000 2966000 L15675000 3613000 "/>
<path d="M15863500 3916500 L15863500 12317500 "/>
<path d="M15675000 3728000 L15863500 3916500 "/>
</g>
<g style="fill-opacity: 0.0;stroke-width: 50000.000000;stroke-opacity: 1;stroke-linecap: round;stroke-linejoin: round">
<path d="M14778000 2966000 L14778000 2822000 "/>
<path d="M14778000 2822000 L14900000 2700000 "/>
<path d="M15409000 2700000 L15675000 2966000 "/>
<path d="M14900000 2700000 L15409000 2700000 "/>
<path d="M14778000 3466000 L15167000 3855000 "/>
<path d="M14778000 2966000 L14778000 3466000 "/>
<path d="M14278000 3844000 L14267000 3855000 "/>
<path d="M14278000 2966000 L14278000 3844000 "/>
<path d="M14267000 10848000 L15736500 12317500 "/>
<path d="M14267000 3855000 L14267000 10848000 "/>
</g>
</g> 
</g><g id="substrate-silk" style="fill:#f0f0f0; stroke:#f0f0f0;" mask="url(#pads-mask-silkscreen)"><g style="fill-opacity: 0.0;stroke-width: 15000.000000;stroke-opacity: 1;stroke-linecap: round;stroke-linejoin: round">
<g transform="rotate(-90.000000 14550000.000000 3500000.000000)">
<text x="14550000.000000" y="3550000.000000" textLength="204762.000000" font-size="133333.300000" lengthAdjust="spacingAndGlyphs" text-anchor="middle" opacity="0">NC</text>
</g>
<g class="stroked-text"><desc>NC</desc>
<path d="M14595238 3578571 L14495238 3578571 L14595238 3521428 L14495238 3521428 "/>
<path d="M14585714 3416666 L14590476 3421428 L14595238 3435714 L14595238 3445238 L14590476 3459523 L14580952 3469047 L14571428 3473809 L14552380 3478571 L14538095 3478571 L14519047 3473809 L14509523 3469047 L14500000 3459523 L14495238 3445238 L14495238 3435714 L14500000 3421428 L14504761 3416666 "/>
</g><g transform="rotate(-90.000000 15050000.000000 3500000.000000)">
<text x="15050000.000000" y="3550000.000000" textLength="324261.900000" font-size="133333.300000" lengthAdjust="spacingAndGlyphs" text-anchor="middle" opacity="0">GND</text>
</g>
<g class="stroked-text"><desc>GND</desc>
<path d="M15000000 3576190 L14995238 3585714 L14995238 3600000 L15000000 3614285 L15009523 3623809 L15019047 3628571 L15038095 3633333 L15052380 3633333 L15071428 3628571 L15080952 3623809 L15090476 3614285 L15095238 3600000 L15095238 3590476 L15090476 3576190 L15085714 3571428 L15052380 3571428 L15052380 3590476 "/>
<path d="M15095238 3528571 L14995238 3528571 L15095238 3471428 L14995238 3471428 "/>
<path d="M15095238 3423809 L14995238 3423809 L14995238 3400000 L15000000 3385714 L15009523 3376190 L15019047 3371428 L15038095 3366666 L15052380 3366666 L15071428 3371428 L15080952 3376190 L15090476 3385714 L15095238 3400000 L15095238 3423809 "/>
</g><g transform="rotate(-90.000000 14300000.000000 3500000.000000)">
<text x="14300000.000000" y="3550000.000000" textLength="255214.300000" font-size="120000.000000" lengthAdjust="spacingAndGlyphs" text-anchor="middle" opacity="0">d_1</text>
</g>
<g class="stroked-text"><desc>d_1</desc>
<path d="M14345238 3557857 L14245238 3557857 "/>
<path d="M14340476 3557857 L14345238 3566428 L14345238 3583571 L14340476 3592142 L14335714 3596428 L14326190 3600714 L14297619 3600714 L14288095 3596428 L14283333 3592142 L14278571 3583571 L14278571 3566428 L14283333 3557857 "/>
<path d="M14354761 3536428 L14354761 3467857 "/>
<path d="M14345238 3399285 L14345238 3450714 "/>
<path d="M14345238 3425000 L14245238 3425000 L14259523 3433571 L14269047 3442142 L14273809 3450714 "/>
</g><g transform="rotate(-90.000000 14800000.000000 3500000.000000)">
<text x="14800000.000000" y="3550000.000000" textLength="305214.300000" font-size="133333.300000" lengthAdjust="spacingAndGlyphs" text-anchor="middle" opacity="0">VCC</text>
</g>
<g class="stroked-text"><desc>VCC</desc>
<path d="M14745238 3633333 L14845238 3600000 L14745238 3566666 "/>
<path d="M14835714 3476190 L14840476 3480952 L14845238 3495238 L14845238 3504761 L14840476 3519047 L14830952 3528571 L14821428 3533333 L14802380 3538095 L14788095 3538095 L14769047 3533333 L14759523 3528571 L14750000 3519047 L14745238 3504761 L14745238 3495238 L14750000 3480952 L14754761 3476190 "/>
<path d="M14835714 3376190 L14840476 3380952 L14845238 3395238 L14845238 3404761 L14840476 3419047 L14830952 3428571 L14821428 3433333 L14802380 3438095 L14788095 3438095 L14769047 3433333 L14759523 3428571 L14750000 3419047 L14745238 3404761 L14745238 3395238 L14750000 3380952 L14754761 3376190 "/>
</g><text x="14717000.000000" y="4230000.000000" textLength="214738.100000" font-size="133333.300000" lengthAdjust="spacingAndGlyphs" text-anchor="middle" opacity="0">R2</text>
<g class="stroked-text"><desc>R2</desc>
<path d="M14700333 4225238 L14667000 4177619 "/>
<path d="M14643190 4225238 L14643190 4125238 L14681285 4125238 L14690809 4130000 L14695571 4134761 L14700333 4144285 L14700333 4158571 L14695571 4168095 L14690809 4172857 L14681285 4177619 L14643190 4177619 "/>
<path d="M14738428 4134761 L14743190 4130000 L14752714 4125238 L14776523 4125238 L14786047 4130000 L14790809 4134761 L14795571 4144285 L14795571 4153809 L14790809 4168095 L14733666 4225238 L14795571 4225238 "/>
</g><text x="16125000.000000" y="2691000.000000" textLength="214738.100000" font-size="133333.300000" lengthAdjust="spacingAndGlyphs" text-anchor="middle" opacity="0">R1</text>
<g class="stroked-text"><desc>R1</desc>
<path d="M16108333 2686238 L16075000 2638619 "/>
<path d="M16051190 2686238 L16051190 2586238 L16089285 2586238 L16098809 2591000 L16103571 2595761 L16108333 2605285 L16108333 2619571 L16103571 2629095 L16098809 2633857 L16089285 2638619 L16051190 2638619 "/>
<path d="M16203571 2686238 L16146428 2686238 "/>
<path d="M16175000 2686238 L16175000 2586238 L16165476 2600523 L16155952 2610047 L16146428 2614809 "/>
</g><text x="15800000.000000" y="12050000.000000" textLength="219500.000000" font-size="133333.300000" lengthAdjust="spacingAndGlyphs" text-anchor="middle" opacity="0">Q1</text>
<g class="stroked-text"><desc>Q1</desc>
<path d="M15790476 12054761 L15780952 12050000 L15771428 12040476 L15757142 12026190 L15747619 12021428 L15738095 12021428 "/>
<path d="M15742857 12045238 L15733333 12040476 L15723809 12030952 L15719047 12011904 L15719047 11978571 L15723809 11959523 L15733333 11950000 L15742857 11945238 L15761904 11945238 L15771428 11950000 L15780952 11959523 L15785714 11978571 L15785714 12011904 L15780952 12030952 L15771428 12040476 L15761904 12045238 L15742857 12045238 "/>
<path d="M15880952 12045238 L15823809 12045238 "/>
<path d="M15852380 12045238 L15852380 11945238 L15842857 11959523 L15833333 11969047 L15823809 11973809 "/>
</g><text x="14653000.000000" y="2661000.000000" textLength="190928.600000" font-size="133333.300000" lengthAdjust="spacingAndGlyphs" text-anchor="middle" opacity="0">J1</text>
<g class="stroked-text"><desc>J1</desc>
<path d="M14619666 2556238 L14619666 2627666 L14614904 2641952 L14605380 2651476 L14591095 2656238 L14581571 2656238 "/>
<path d="M14719666 2656238 L14662523 2656238 "/>
<path d="M14691095 2656238 L14691095 2556238 L14681571 2570523 L14672047 2580047 L14662523 2584809 "/>
</g><text x="15802000.000000" y="3382000.000000" textLength="214738.100000" font-size="133333.300000" lengthAdjust="spacingAndGlyphs" text-anchor="middle" opacity="0">D1</text>
<g class="stroked-text"><desc>D1</desc>
<path d="M15728190 3377238 L15728190 3277238 L15752000 3277238 L15766285 3282000 L15775809 3291523 L15780571 3301047 L15785333 3320095 L15785333 3334380 L15780571 3353428 L15775809 3362952 L15766285 3372476 L15752000 3377238 L15728190 3377238 "/>
<path d="M15880571 3377238 L15823428 3377238 "/>
<path d="M15852000 3377238 L15852000 3277238 L15842476 3291523 L15832952 3301047 L15823428 3305809 "/>
</g></g>
<g style="fill-opacity: 0.0;stroke-width: 12000.000000;stroke-opacity: 1;stroke-linecap: round;stroke-linejoin: round">
<path d="M14055000 4067000 L14055000 3643000 "/>
<path d="M15379000 4067000 L15379000 3643000 "/>
<path d="M15379000 3643000 L14055000 3643000 "/>
<path d="M15379000 4067000 L14055000 4067000 "/>
<path d="M16787000 2754000 L16787000 3178000 "/>
<path d="M15463000 2754000 L15463000 3178000 "/>
<path d="M15463000 3178000 L16787000 3178000 "/>
<path d="M15463000 2754000 L16787000 2754000 "/>
<path d="M15673000 12254000 L15673000 12380999 "/>
<path d="M15926999.806293 12380999.903146 A141990.100000 141990.100000 0.0 0 0 15926999.806293 12254000.096854"/>
<path d="M15926999.915736 12254000.092132 A141990.200000 141990.200000 0.0 0 0 15673000.124264 12254000.012132"/>
<path d="M15673000.084264 12380999.907868 A141990.200000 141990.200000 0.0 0 0 15926999.875736 12380999.987868"/>
<path d="M13993000 2691000 L13993000 2816000 "/>
<path d="M14118000 2691000 L13993000 2691000 "/>
<path d="M15208000 3241000 L14653000 3241000 "/>
<path d="M15208000 2946000 L15208000 3241000 "/>
<path d="M15283000 2946000 L15208000 2946000 "/>
<path d="M14098000 3241000 L14653000 3241000 "/>
<path d="M14098000 2946000 L14098000 3241000 "/>
<path d="M14023000 2946000 L14098000 2946000 "/>
<path d="M15283000 2721000 L15103000 2721000 "/>
<path d="M15283000 2796000 L15283000 2721000 "/>
<path d="M15103000 2796000 L15283000 2796000 "/>
<path d="M15103000 2721000 L15103000 2796000 "/>
<path d="M14203000 2721000 L14023000 2721000 "/>
<path d="M14203000 2796000 L14203000 2721000 "/>
<path d="M14023000 2796000 L14203000 2796000 "/>
<path d="M14023000 2721000 L14023000 2796000 "/>
<path d="M14953000 2721000 L14353000 2721000 "/>
<path d="M14953000 2796000 L14953000 2721000 "/>
<path d="M14353000 2796000 L14953000 2796000 "/>
<path d="M14353000 2721000 L14353000 2796000 "/>
<path d="M15284000 2720000 L14022000 2720000 "/>
<path d="M15284000 3317000 L15284000 2720000 "/>
<path d="M14022000 3317000 L15284000 3317000 "/>
<path d="M14022000 2720000 L14022000 3317000 "/>
<path d="M15546000 3573500 L15546000 3882500 "/>
<circle cx="15802000.000000" cy="3728000.000000" r="250000.000000"/> 
<path d="M15545999.996119 3882483.002342 A299000.000000 299000.000000 0.0 0 0 16100999.996431 3727953.800001"/>
<path d="M16100999.996431 3728046.199999 A299000.000000 299000.000000 0.0 0 0 15545999.996119 3573516.997658"/>
</g> 
</g><g id="substrate-outline" style="fill:#000000; stroke:#000000; stroke-width: 15000.0"><g style="fill-opacity: 0.0;stroke-opacity: 1;stroke-linecap: round;stroke-linejoin: round">
<path d="M13700000 12500000 L13700000 2500000 "/>
<path d="M16900000 12500000 L13700000 12500000 "/>
<path d="M16900000 2500000 L16900000 12500000 "/>
<path d="M13700000 2500000 L16900000 2500000 "/>
</g> 
<path d="M -50000.0 0.0 A 50000.0 50000.0 0 1 1 50000.0 0.0 L 50000.0 -0.0 A 50000.0 50000.0 0 1 1 -50000.0 -0.0 Z" transform="translate(14267000.0 3855000.0) rotate(-180.0)"/><path d="M -50000.0 0.0 A 50000.0 50000.0 0 1 1 50000.0 0.0 L 50000.0 -0.0 A 50000.0 50000.0 0 1 1 -50000.0 -0.0 Z" transform="translate(15167000.0 3855000.0) rotate(-180.0)"/><path d="M -50000.0 0.0 A 50000.0 50000.0 0 1 1 50000.0 0.0 L 50000.0 -0.0 A 50000.0 50000.0 0 1 1 -50000.0 -0.0 Z" transform="translate(16575000.0 2966000.0) rotate(-0.0)"/><path d="M -50000.0 0.0 A 50000.0 50000.0 0 1 1 50000.0 0.0 L 50000.0 -0.0 A 50000.0 50000.0 0 1 1 -50000.0 -0.0 Z" transform="translate(15675000.0 2966000.0) rotate(-0.0)"/><path d="M -31750.0 0.0 A 31750.0 31750.0 0 1 1 31750.0 0.0 L 31750.0 -0.0 A 31750.0 31750.0 0 1 1 -31750.0 -0.0 Z" transform="translate(15736500.0 12317500.0) rotate(-0.0)"/><path d="M -31750.0 0.0 A 31750.0 31750.0 0 1 1 31750.0 0.0 L 31750.0 -0.0 A 31750.0 31750.0 0 1 1 -31750.0 -0.0 Z" transform="translate(15863500.0 12317500.0) rotate(-0.0)"/><path d="M -47500.0 0.0 A 47500.0 47500.0 0 1 1 47500.0 0.0 L 47500.0 -0.0 A 47500.0 47500.0 0 1 1 -47500.0 -0.0 Z" transform="translate(15028000.0 2966000.0) rotate(-0.0)"/><path d="M -47500.0 0.0 A 47500.0 47500.0 0 1 1 47500.0 0.0 L 47500.0 -0.0 A 47500.0 47500.0 0 1 1 -47500.0 -0.0 Z" transform="translate(14778000.0 2966000.0) rotate(-0.0)"/><path d="M -47500.0 0.0 A 47500.0 47500.0 0 1 1 47500.0 0.0 L 47500.0 -0.0 A 47500.0 47500.0 0 1 1 -47500.0 -0.0 Z" transform="translate(14528000.0 2966000.0) rotate(-0.0)"/><path d="M -47500.0 0.0 A 47500.0 47500.0 0 1 1 47500.0 0.0 L 47500.0 -0.0 A 47500.0 47500.0 0 1 1 -47500.0 -0.0 Z" transform="translate(14278000.0 2966000.0) rotate(-0.0)"/><path d="M -45000.0 0.0 A 45000.0 45000.0 0 1 1 45000.0 0.0 L 45000.0 -0.0 A 45000.0 45000.0 0 1 1 -45000.0 -0.0 Z" transform="translate(15929000.0 3728000.0) rotate(-0.0)"/><path d="M -45000.0 0.0 A 45000.0 45000.0 0 1 1 45000.0 0.0 L 45000.0 -0.0 A 45000.0 45000.0 0 1 1 -45000.0 -0.0 Z" transform="translate(15675000.0 3728000.0) rotate(-0.0)"/></g></g></g><g transform="" id="componentContainer"><!--LED_THT:LED_D5.0mm:D1--><g transform="translate(15675000.0 3728000.0) scale(99999.98017469136, 100000.0) rotate(-0.0) translate(-0.7576345205307007 -2.5)"><g id="pref_11_LED_THT__LED_D50mm_LED"><defs xmlns:xlink="http://www.w3.org/1999/xlink" id="pref_12defs5569">
    <linearGradient id="pref_12linearGradient6119">
      <stop style="stop-color:#f97057;stop-opacity:1" offset="0" id="pref_12stop6121"/>
      <stop style="stop-color:#ff4321;stop-opacity:1" offset="1" id="pref_12stop6123"/>
    </linearGradient>
    <radialGradient xlink:href="#pref_12linearGradient6119" id="pref_12radialGradient6125" cx="0" cy="1052.3622" fx="0" fy="1052.3622" r="2" gradientUnits="userSpaceOnUse"/>
    <clipPath clipPathUnits="userSpaceOnUse" id="pref_12clipPath6129">
      <rect style="opacity:1;fill:#ff4321;fill-opacity:1;fill-rule:nonzero;stroke:none;stroke-width:0.2;stroke-linecap:round;stroke-linejoin:miter;stroke-miterlimit:4;stroke-dasharray:none;stroke-opacity:1" id="pref_12rect6131" width="5.763474" height="4.7717075" x="-2.8443117" y="1049.6301"/>
    </clipPath>
  </defs>
  <g id="pref_12layer1" transform="translate(2.0396345,-1049.8622)">
    <rect style="opacity:0.93999999;fill:#bfbfbf;fill-opacity:1;fill-rule:nonzero;stroke:none;stroke-width:0.2;stroke-linecap:round;stroke-linejoin:miter;stroke-miterlimit:4;stroke-dasharray:none;stroke-opacity:1" id="pref_12rect6158" width="1" height="1.9" x="-1052.8622" y="-1.5868281" transform="rotate(-90)"/>
    <rect style="opacity:0.85;fill:#bfbfbf;fill-opacity:1;fill-rule:nonzero;stroke:none;stroke-width:0.2;stroke-linecap:round;stroke-linejoin:miter;stroke-miterlimit:4;stroke-dasharray:none;stroke-opacity:1" id="pref_12rect6160" width="0.91868997" height="1" x="0.56374156" y="1051.8622"/>
    <g id="pref_12g6154" transform="rotate(90,0,1052.3622)" style="opacity:0.85">
      <circle clip-path="url(#pref_12clipPath6129)" r="2.5" cy="1052.3622" cx="0" id="pref_12path6115" style="opacity:1;fill:#e33616;fill-opacity:1;fill-rule:nonzero;stroke:none;stroke-width:0.2;stroke-linecap:round;stroke-linejoin:miter;stroke-miterlimit:4;stroke-dasharray:none;stroke-opacity:1"/>
      <circle r="2" cy="1052.3622" cx="0" id="pref_12path6117" style="opacity:1;fill:url(#pref_12radialGradient6125);fill-opacity:1;fill-rule:nonzero;stroke:none;stroke-width:0.2;stroke-linecap:round;stroke-linejoin:miter;stroke-miterlimit:4;stroke-dasharray:none;stroke-opacity:1"/>
    </g>
    </g>
</g></g></g></svg>