<!DOCTYPE svg PUBLIC "-//W3C//DTD SVG 1.1//EN" "http://www.w3.org/Graphics/SVG/1.1/DTD/svg11.dtd">
<svg xmlns="http://www.w3.org/2000/svg" version="1.1" width="15.5mm" height="18.0mm" viewBox="4850000.0 4800000.0 1550000.0 1800000.0">
            <title>Picture generated by PcbDraw </title>
            <desc>Picture generated by PcbDraw</desc>
        <defs><clipPath id="cut-off"><path d=" M 5000000.0 5060000.0 L 5000000.0 6500000.0 L 6200000.0 6500000.0 L 6200000.0 5060000.0 A 60000 60000 0 0 0 6140000.0 5000000.0 L 5060000.0 5000000.0 A 60000 60000 0 0 0 5000000.0 5060000.0 " style="fill-rule: evenodd;"/></clipPath><mask id="pads-mask"><g style="fill:#ffffff; fill-opacity:1.0;  stroke:#ffffff; stroke-width:15000.000000; stroke-opacity:1;  stroke-linecap:round; stroke-linejoin:round;">
<path style="fill:#ffffff; fill-opacity:1.0;  stroke:#ffffff; stroke-width:15000.000000; stroke-opacity:1;  stroke-linecap:round; stroke-linejoin:round;fill-rule:evenodd;" d="M 6300000.000000,5925000.000000 4950000.000000,5925000.000000 4950000.000000,4900000.000000 6300000.000000,4900000.000000 Z"/> 
<path style="fill:#ffffff; fill-opacity:1.0;  stroke:#ffffff; stroke-width:15000.000000; stroke-opacity:1;  stroke-linecap:round; stroke-linejoin:round;fill-rule:evenodd;" d="M 6300000.000000,5925000.000000 4950000.000000,5925000.000000 4950000.000000,4900000.000000 6300000.000000,4900000.000000 Z"/> 
<g style="fill:#ffffff; fill-opacity:1.0;  stroke:#ffffff; stroke-width:0.100000; stroke-opacity:1;  stroke-linecap:round; stroke-linejoin:round;">
<path style="fill:#ffffff; fill-opacity:1.0;  stroke:#ffffff; stroke-width:0.100000; stroke-opacity:1;  stroke-linecap:round; stroke-linejoin:round;fill-rule:evenodd;" d="M 5015000.000000,6480000.000000 5015000.000000,6080000.000000 5365000.000000,6080000.000000 5365000.000000,6480000.000000 Z"/> 
<path style="fill:#ffffff; fill-opacity:1.0;  stroke:#ffffff; stroke-width:0.100000; stroke-opacity:1;  stroke-linecap:round; stroke-linejoin:round;fill-rule:evenodd;" d="M 5835000.000000,6480000.000000 5835000.000000,6080000.000000 6185000.000000,6080000.000000 6185000.000000,6480000.000000 Z"/> 
<path style="fill:#ffffff; fill-opacity:1.0;  stroke:#ffffff; stroke-width:0.100000; stroke-opacity:1;  stroke-linecap:round; stroke-linejoin:round;fill-rule:evenodd;" d="M 5500000.000000,6480000.000000 5500000.000000,6080000.000000 5700000.000000,6080000.000000 5700000.000000,6480000.000000 Z"/> 
</g>
<g style="fill:#ffffff; fill-opacity:1.0;  stroke:#ffffff; stroke-width:0.100000; stroke-opacity:1;  stroke-linecap:round; stroke-linejoin:round;">
<path style="fill:#ffffff; fill-opacity:1.0;  stroke:#ffffff; stroke-width:0.100000; stroke-opacity:1;  stroke-linecap:round; stroke-linejoin:round;fill-rule:evenodd;" d="M 5653200.000000,5930000.000000 5653200.000000,5130000.000000 5780200.000000,5130000.000000 5780200.000000,5930000.000000 Z"/> 
<path style="fill:#ffffff; fill-opacity:1.0;  stroke:#ffffff; stroke-width:0.100000; stroke-opacity:1;  stroke-linecap:round; stroke-linejoin:round;fill-rule:evenodd;" d="M 5439800.000000,5930000.000000 5439800.000000,5130000.000000 5566800.000000,5130000.000000 5566800.000000,5930000.000000 Z"/> 
<path style="fill:#ffffff; fill-opacity:1.0;  stroke:#ffffff; stroke-width:0.100000; stroke-opacity:1;  stroke-linecap:round; stroke-linejoin:round;fill-rule:evenodd;" d="M 5931500.000000,5930000.000000 5931500.000000,5060000.000000 6058500.000000,5060000.000000 6058500.000000,5930000.000000 Z"/> 
<path style="fill:#ffffff; fill-opacity:1.0;  stroke:#ffffff; stroke-width:0.100000; stroke-opacity:1;  stroke-linecap:round; stroke-linejoin:round;fill-rule:evenodd;" d="M 5165500.000000,5930000.000000 5165500.000000,5060000.000000 5292500.000000,5060000.000000 5292500.000000,5930000.000000 Z"/> 
</g>
</g> 
</mask><mask id="pads-mask-silkscreen"><rect x="4915000.0" y="4990000.0" width="1295000.0" height="1520000.0" fill="white"/><g style="fill:#000000; fill-opacity:1.0;  stroke:#000000; stroke-width:15000.000000; stroke-opacity:1;  stroke-linecap:round; stroke-linejoin:round;">
<path style="fill:#000000; fill-opacity:1.0;  stroke:#000000; stroke-width:15000.000000; stroke-opacity:1;  stroke-linecap:round; stroke-linejoin:round;fill-rule:evenodd;" d="M 6300000.000000,5925000.000000 4950000.000000,5925000.000000 4950000.000000,4900000.000000 6300000.000000,4900000.000000 Z"/> 
<path style="fill:#000000; fill-opacity:1.0;  stroke:#000000; stroke-width:15000.000000; stroke-opacity:1;  stroke-linecap:round; stroke-linejoin:round;fill-rule:evenodd;" d="M 6300000.000000,5925000.000000 4950000.000000,5925000.000000 4950000.000000,4900000.000000 6300000.000000,4900000.000000 Z"/> 
<g style="fill:#000000; fill-opacity:1.0;  stroke:#000000; stroke-width:0.100000; stroke-opacity:1;  stroke-linecap:round; stroke-linejoin:round;">
<path style="fill:#000000; fill-opacity:1.0;  stroke:#000000; stroke-width:0.100000; stroke-opacity:1;  stroke-linecap:round; stroke-linejoin:round;fill-rule:evenodd;" d="M 5015000.000000,6480000.000000 5015000.000000,6080000.000000 5365000.000000,6080000.000000 5365000.000000,6480000.000000 Z"/> 
<path style="fill:#000000; fill-opacity:1.0;  stroke:#000000; stroke-width:0.100000; stroke-opacity:1;  stroke-linecap:round; stroke-linejoin:round;fill-rule:evenodd;" d="M 5835000.000000,6480000.000000 5835000.000000,6080000.000000 6185000.000000,6080000.000000 6185000.000000,6480000.000000 Z"/> 
<path style="fill:#000000; fill-opacity:1.0;  stroke:#000000; stroke-width:0.100000; stroke-opacity:1;  stroke-linecap:round; stroke-linejoin:round;fill-rule:evenodd;" d="M 5500000.000000,6480000.000000 5500000.000000,6080000.000000 5700000.000000,6080000.000000 5700000.000000,6480000.000000 Z"/> 
</g>
<g style="fill:#000000; fill-opacity:1.0;  stroke:#000000; stroke-width:0.100000; stroke-opacity:1;  stroke-linecap:round; stroke-linejoin:round;">
<path style="fill:#000000; fill-opacity:1.0;  stroke:#000000; stroke-width:0.100000; stroke-opacity:1;  stroke-linecap:round; stroke-linejoin:round;fill-rule:evenodd;" d="M 5653200.000000,5930000.000000 5653200.000000,5130000.000000 5780200.000000,5130000.000000 5780200.000000,5930000.000000 Z"/> 
<path style="fill:#000000; fill-opacity:1.0;  stroke:#000000; stroke-width:0.100000; stroke-opacity:1;  stroke-linecap:round; stroke-linejoin:round;fill-rule:evenodd;" d="M 5439800.000000,5930000.000000 5439800.000000,5130000.000000 5566800.000000,5130000.000000 5566800.000000,5930000.000000 Z"/> 
<path style="fill:#000000; fill-opacity:1.0;  stroke:#000000; stroke-width:0.100000; stroke-opacity:1;  stroke-linecap:round; stroke-linejoin:round;fill-rule:evenodd;" d="M 5931500.000000,5930000.000000 5931500.000000,5060000.000000 6058500.000000,5060000.000000 6058500.000000,5930000.000000 Z"/> 
<path style="fill:#000000; fill-opacity:1.0;  stroke:#000000; stroke-width:0.100000; stroke-opacity:1;  stroke-linecap:round; stroke-linejoin:round;fill-rule:evenodd;" d="M 5165500.000000,5930000.000000 5165500.000000,5060000.000000 5292500.000000,5060000.000000 5292500.000000,5930000.000000 Z"/> 
</g>
</g> 
</mask><mask id="hole-mask"><g><rect x="4915000.0" y="4990000.0" fill="white" width="1295000.0" height="1520000.0"/><polyline stroke-linecap="round" stroke="black" stroke-width="30000.0" points="-0.0 0 0.0 0" transform="translate(5443220.0 6310630.0) rotate(0)"/><polyline stroke-linecap="round" stroke="black" stroke-width="30000.0" points="-0.0 0 0.0 0" transform="translate(5393220.0 5427600.0) rotate(0)"/><polyline stroke-linecap="round" stroke="black" stroke-width="30000.0" points="-0.0 0 0.0 0" transform="translate(5431020.0 5999230.0) rotate(0)"/><polyline stroke-linecap="round" stroke="black" stroke-width="30000.0" points="-0.0 0 0.0 0" transform="translate(5785500.0 6433530.0) rotate(0)"/><polyline stroke-linecap="round" stroke="black" stroke-width="30000.0" points="-0.0 0 0.0 0" transform="translate(6136280.0 5214270.0) rotate(0)"/><polyline stroke-linecap="round" stroke="black" stroke-width="30000.0" points="-0.0 0 0.0 0" transform="translate(6038500.0 6007500.0) rotate(0)"/><polyline stroke-linecap="round" stroke="black" stroke-width="30000.0" points="-0.0 0 0.0 0" transform="translate(5152500.0 6202500.0) rotate(0)"/><polyline stroke-linecap="round" stroke="black" stroke-width="30000.0" points="-0.0 0 0.0 0" transform="translate(5237500.0 6175000.0) rotate(0)"/><polyline stroke-linecap="round" stroke="black" stroke-width="30000.0" points="-0.0 0 0.0 0" transform="translate(5212500.0 6250000.0) rotate(0)"/><polyline stroke-linecap="round" stroke="black" stroke-width="30000.0" points="-0.0 0 0.0 0" transform="translate(5282500.0 6270000.0) rotate(0)"/><polyline stroke-linecap="round" stroke="black" stroke-width="30000.0" points="-0.0 0 0.0 0" transform="translate(5790000.0 6043000.0) rotate(0)"/><polyline stroke-linecap="round" stroke="black" stroke-width="30000.0" points="-0.0 0 0.0 0" transform="translate(5860390.0 6014000.0) rotate(0)"/><polyline stroke-linecap="round" stroke="black" stroke-width="30000.0" points="-0.0 0 0.0 0" transform="translate(5544150.0 6096310.0) rotate(0)"/><polyline stroke-linecap="round" stroke="black" stroke-width="30000.0" points="-0.0 0 0.0 0" transform="translate(5575000.0 6432500.0) rotate(0)"/><polyline stroke-linecap="round" stroke="black" stroke-width="30000.0" points="-0.0 0 0.0 0" transform="translate(5652500.0 6430000.0) rotate(0)"/><polyline stroke-linecap="round" stroke="black" stroke-width="30000.0" points="-0.0 0 0.0 0" transform="translate(5652500.0 6357500.0) rotate(0)"/></g></mask></defs><g transform="" id="boardContainer"><g id="substrate" clip-path="url(#cut-off)" mask="url(#hole-mask)"><g id="substrate-board" style="fill:#4ca06c; stroke:#4ca06c;"><path d=" M 5000000.0 5060000.0 L 5000000.0 6500000.0 L 6200000.0 6500000.0 L 6200000.0 5060000.0 A 60000 60000 0 0 0 6140000.0 5000000.0 L 5060000.0 5000000.0 A 60000 60000 0 0 0 5000000.0 5060000.0 " style="fill-rule: evenodd;"/><g style="fill-opacity: 0.0;stroke-width: 20000.000000;stroke-opacity: 1;stroke-linecap: round;stroke-linejoin: round">
<path d="M5060000.000000 5000000.000000 A60000.000000 60000.000000 0.0 0 0 5000000.000000 5060000.000000"/>
<path d="M6200000.000000 5060000.000000 A60000.000000 60000.000000 0.0 0 0 6140000.000000 5000000.000000"/>
<path d="M6140000 5000000 L5060000 5000000 "/>
<path d="M6200000 6500000 L6200000 5060000 "/>
<path d="M5000000 6500000 L6200000 6500000 "/>
<path d="M5000000 5060000 L5000000 6500000 "/>
</g> 
</g><g id="substrate-clad" style="fill:#9c6b28; stroke:#9c6b28;"><g style="fill-opacity: 1.0;stroke-width: 15000.000000;stroke-opacity: 1;stroke-linecap: round;stroke-linejoin: round">
<path style="fill-opacity: 1.0;stroke-width: 15000.000000;stroke-opacity: 1;stroke-linecap: round;stroke-linejoin: round;fill-rule: evenodd" d="M 6300000.000000,5925000.000000 4950000.000000,5925000.000000 4950000.000000,4900000.000000 6300000.000000,4900000.000000 Z"/> 
<path style="fill-opacity: 1.0;stroke-width: 15000.000000;stroke-opacity: 1;stroke-linecap: round;stroke-linejoin: round;fill-rule: evenodd" d="M 6300000.000000,5925000.000000 4950000.000000,5925000.000000 4950000.000000,4900000.000000 6300000.000000,4900000.000000 Z"/> 
<g style="fill-opacity: 1.0;stroke-width: 0.100000;stroke-opacity: 1;stroke-linecap: round;stroke-linejoin: round">
<path style="fill-opacity: 1.0;stroke-width: 0.100000;stroke-opacity: 1;stroke-linecap: round;stroke-linejoin: round;fill-rule: evenodd" d="M 5015000.000000,6480000.000000 5015000.000000,6080000.000000 5365000.000000,6080000.000000 5365000.000000,6480000.000000 Z"/> 
<path style="fill-opacity: 1.0;stroke-width: 0.100000;stroke-opacity: 1;stroke-linecap: round;stroke-linejoin: round;fill-rule: evenodd" d="M 5835000.000000,6480000.000000 5835000.000000,6080000.000000 6185000.000000,6080000.000000 6185000.000000,6480000.000000 Z"/> 
<path style="fill-opacity: 1.0;stroke-width: 0.100000;stroke-opacity: 1;stroke-linecap: round;stroke-linejoin: round;fill-rule: evenodd" d="M 5500000.000000,6480000.000000 5500000.000000,6080000.000000 5700000.000000,6080000.000000 5700000.000000,6480000.000000 Z"/> 
</g>
<g style="fill-opacity: 1.0;stroke-width: 0.100000;stroke-opacity: 1;stroke-linecap: round;stroke-linejoin: round">
<path style="fill-opacity: 1.0;stroke-width: 0.100000;stroke-opacity: 1;stroke-linecap: round;stroke-linejoin: round;fill-rule: evenodd" d="M 5653200.000000,5930000.000000 5653200.000000,5130000.000000 5780200.000000,5130000.000000 5780200.000000,5930000.000000 Z"/> 
<path style="fill-opacity: 1.0;stroke-width: 0.100000;stroke-opacity: 1;stroke-linecap: round;stroke-linejoin: round;fill-rule: evenodd" d="M 5439800.000000,5930000.000000 5439800.000000,5130000.000000 5566800.000000,5130000.000000 5566800.000000,5930000.000000 Z"/> 
<path style="fill-opacity: 1.0;stroke-width: 0.100000;stroke-opacity: 1;stroke-linecap: round;stroke-linejoin: round;fill-rule: evenodd" d="M 5931500.000000,5930000.000000 5931500.000000,5060000.000000 6058500.000000,5060000.000000 6058500.000000,5930000.000000 Z"/> 
<path style="fill-opacity: 1.0;stroke-width: 0.100000;stroke-opacity: 1;stroke-linecap: round;stroke-linejoin: round;fill-rule: evenodd" d="M 5165500.000000,5930000.000000 5165500.000000,5060000.000000 5292500.000000,5060000.000000 5292500.000000,5930000.000000 Z"/> 
</g>
</g> 
</g><g id="substrate-copper" style="fill:#417e5a; stroke:#417e5a;"><g style="fill-opacity: 0.0;stroke-width: 0.000000;stroke-opacity: 1;stroke-linecap: round;stroke-linejoin: round">
<g style="fill-opacity: 1.0;stroke-width: 0.100000;stroke-opacity: 1;stroke-linecap: round;stroke-linejoin: round">
<path style="fill-opacity: 1.0;stroke-width: 0.100000;stroke-opacity: 1;stroke-linecap: round;stroke-linejoin: round;fill-rule: evenodd" d="M 5015000.000000,6480000.000000 5015000.000000,6080000.000000 5365000.000000,6080000.000000 5365000.000000,6480000.000000 Z"/> 
<path style="fill-opacity: 1.0;stroke-width: 0.100000;stroke-opacity: 1;stroke-linecap: round;stroke-linejoin: round;fill-rule: evenodd" d="M 5835000.000000,6480000.000000 5835000.000000,6080000.000000 6185000.000000,6080000.000000 6185000.000000,6480000.000000 Z"/> 
<path style="fill-opacity: 1.0;stroke-width: 0.100000;stroke-opacity: 1;stroke-linecap: round;stroke-linejoin: round;fill-rule: evenodd" d="M 5500000.000000,6480000.000000 5500000.000000,6080000.000000 5700000.000000,6080000.000000 5700000.000000,6480000.000000 Z"/> 
</g>
<g style="fill-opacity: 1.0;stroke-width: 0.100000;stroke-opacity: 1;stroke-linecap: round;stroke-linejoin: round">
<path style="fill-opacity: 1.0;stroke-width: 0.100000;stroke-opacity: 1;stroke-linecap: round;stroke-linejoin: round;fill-rule: evenodd" d="M 5653200.000000,5930000.000000 5653200.000000,5130000.000000 5780200.000000,5130000.000000 5780200.000000,5930000.000000 Z"/> 
<path style="fill-opacity: 1.0;stroke-width: 0.100000;stroke-opacity: 1;stroke-linecap: round;stroke-linejoin: round;fill-rule: evenodd" d="M 5439800.000000,5930000.000000 5439800.000000,5130000.000000 5566800.000000,5130000.000000 5566800.000000,5930000.000000 Z"/> 
<path style="fill-opacity: 1.0;stroke-width: 0.100000;stroke-opacity: 1;stroke-linecap: round;stroke-linejoin: round;fill-rule: evenodd" d="M 5931500.000000,5930000.000000 5931500.000000,5060000.000000 6058500.000000,5060000.000000 6058500.000000,5930000.000000 Z"/> 
<path style="fill-opacity: 1.0;stroke-width: 0.100000;stroke-opacity: 1;stroke-linecap: round;stroke-linejoin: round;fill-rule: evenodd" d="M 5165500.000000,5930000.000000 5165500.000000,5060000.000000 5292500.000000,5060000.000000 5292500.000000,5930000.000000 Z"/> 
</g>
<g style="fill-opacity: 1.0;stroke-width: 0.100000;stroke-opacity: 1;stroke-linecap: round;stroke-linejoin: round">
<circle cx="5443220.000000" cy="6310630.000000" r="30000.000000"/> 
</g>
<g style="fill-opacity: 1.0;stroke-width: 0.100000;stroke-opacity: 1;stroke-linecap: round;stroke-linejoin: round">
<circle cx="5393220.000000" cy="5427600.000000" r="30000.000000"/> 
</g>
<g style="fill-opacity: 1.0;stroke-width: 0.100000;stroke-opacity: 1;stroke-linecap: round;stroke-linejoin: round">
<circle cx="5431020.000000" cy="5999230.000000" r="30000.000000"/> 
</g>
<g style="fill-opacity: 1.0;stroke-width: 0.100000;stroke-opacity: 1;stroke-linecap: round;stroke-linejoin: round">
<circle cx="5785500.000000" cy="6433530.000000" r="30000.000000"/> 
</g>
<g style="fill-opacity: 1.0;stroke-width: 0.100000;stroke-opacity: 1;stroke-linecap: round;stroke-linejoin: round">
<circle cx="6136280.000000" cy="5214270.000000" r="30000.000000"/> 
</g>
<g style="fill-opacity: 1.0;stroke-width: 0.100000;stroke-opacity: 1;stroke-linecap: round;stroke-linejoin: round">
<circle cx="6038500.000000" cy="6007500.000000" r="30000.000000"/> 
</g>
<g style="fill-opacity: 1.0;stroke-width: 0.100000;stroke-opacity: 1;stroke-linecap: round;stroke-linejoin: round">
<circle cx="5152500.000000" cy="6202500.000000" r="30000.000000"/> 
</g>
<g style="fill-opacity: 1.0;stroke-width: 0.100000;stroke-opacity: 1;stroke-linecap: round;stroke-linejoin: round">
<circle cx="5237500.000000" cy="6175000.000000" r="30000.000000"/> 
</g>
<g style="fill-opacity: 1.0;stroke-width: 0.100000;stroke-opacity: 1;stroke-linecap: round;stroke-linejoin: round">
<circle cx="5212500.000000" cy="6250000.000000" r="30000.000000"/> 
</g>
<g style="fill-opacity: 1.0;stroke-width: 0.100000;stroke-opacity: 1;stroke-linecap: round;stroke-linejoin: round">
<circle cx="5282500.000000" cy="6270000.000000" r="30000.000000"/> 
</g>
<g style="fill-opacity: 1.0;stroke-width: 0.100000;stroke-opacity: 1;stroke-linecap: round;stroke-linejoin: round">
<circle cx="5790000.000000" cy="6043000.000000" r="30000.000000"/> 
</g>
<g style="fill-opacity: 1.0;stroke-width: 0.100000;stroke-opacity: 1;stroke-linecap: round;stroke-linejoin: round">
<circle cx="5860390.000000" cy="6014000.000000" r="30000.000000"/> 
</g>
<g style="fill-opacity: 1.0;stroke-width: 0.100000;stroke-opacity: 1;stroke-linecap: round;stroke-linejoin: round">
<circle cx="5544150.000000" cy="6096310.000000" r="30000.000000"/> 
</g>
<g style="fill-opacity: 1.0;stroke-width: 0.100000;stroke-opacity: 1;stroke-linecap: round;stroke-linejoin: round">
<circle cx="5575000.000000" cy="6432500.000000" r="30000.000000"/> 
</g>
<g style="fill-opacity: 1.0;stroke-width: 0.100000;stroke-opacity: 1;stroke-linecap: round;stroke-linejoin: round">
<circle cx="5652500.000000" cy="6430000.000000" r="30000.000000"/> 
</g>
<g style="fill-opacity: 1.0;stroke-width: 0.100000;stroke-opacity: 1;stroke-linecap: round;stroke-linejoin: round">
<circle cx="5652500.000000" cy="6357500.000000" r="30000.000000"/> 
</g>
<g style="fill-opacity: 0.0;stroke-width: 25000.000000;stroke-opacity: 1;stroke-linecap: round;stroke-linejoin: round">
<path d="M5431020 5999230 L5393220 5961430 "/>
<path d="M5393220 5961430 L5393220 5427600 "/>
<path d="M5806490 6280000 L5731480 6204990 "/>
<path d="M5731480 6204990 L5731480 6065730 "/>
<path d="M5731480 6065730 L5664980 5999230 "/>
<path d="M5664980 5999230 L5431020 5999230 "/>
<path d="M5785500 6433530 L5806490 6412540 "/>
<path d="M5806490 6412540 L5806490 6280000 "/>
<path d="M6010000 6280000 L5806490 6280000 "/>
<path d="M5995000 5730500 L6136280 5589220 "/>
<path d="M6136280 5589220 L6136280 5214270 "/>
<path d="M5995000 6036490 L6010000 6051490 "/>
<path d="M5995000 5495000 L5995000 5730500 "/>
<path d="M6010000 6280000 L6010000 6051490 "/>
<path d="M5443220 6011430 L5431020 5999230 "/>
<path d="M5443220 6310630 L5443220 6011430 "/>
<path d="M5995270 6007500 L5995000 6007770 "/>
<path d="M6038500 6007500 L5995270 6007500 "/>
<path d="M5995000 6007770 L5995000 6036490 "/>
<path d="M5995000 5730500 L5995000 6007770 "/>
<path d="M5229000 6020000 L5237500 6028500 "/>
<path d="M5237500 6028500 L5237500 6175000 "/>
</g>
<g style="fill-opacity: 0.0;stroke-width: 120000.000000;stroke-opacity: 1;stroke-linecap: round;stroke-linejoin: round">
<path d="M5229000 6020000 L5229000 6102000 "/>
<path d="M5229000 5495000 L5229000 6020000 "/>
</g>
<g style="fill-opacity: 0.0;stroke-width: 25000.000000;stroke-opacity: 1;stroke-linecap: round;stroke-linejoin: round">
<path d="M5212500 6250000 L5190000 6272500 "/>
<path d="M5190000 6272500 L5190000 6280000 "/>
</g>
<g style="fill-opacity: 0.0;stroke-width: 20000.000000;stroke-opacity: 1;stroke-linecap: round;stroke-linejoin: round">
<path d="M5503300 5530000 L5503300 5866500 "/>
<path d="M5503300 5866500 L5592800 5956000 "/>
<path d="M5592800 5956000 L5741000 5956000 "/>
<path d="M5741000 5956000 L5790000 6005000 "/>
<path d="M5790000 6005000 L5790000 6043000 "/>
</g>
<g style="fill-opacity: 0.0;stroke-width: 25000.000000;stroke-opacity: 1;stroke-linecap: round;stroke-linejoin: round">
<path d="M5716700 5530000 L5716700 5866500 "/>
</g>
<g style="fill-opacity: 0.0;stroke-width: 20000.000000;stroke-opacity: 1;stroke-linecap: round;stroke-linejoin: round">
<path d="M5716700 5866500 L5716700 5870310 "/>
<path d="M5716700 5870310 L5830390 5984010 "/>
<path d="M5830390 5984010 L5860390 6014000 "/>
</g>
<g style="fill-opacity: 0.0;stroke-width: 25000.000000;stroke-opacity: 1;stroke-linecap: round;stroke-linejoin: round">
<path d="M5600000 6280000 L5544150 6224150 "/>
<path d="M5544150 6224150 L5544150 6096310 "/>
<path d="M5652500 6357500 L5600000 6305000 "/>
<path d="M5600000 6305000 L5600000 6280000 "/>
<path d="M5652500 6430000 L5652500 6357500 "/>
</g>
</g> 
</g><g id="substrate-pads" style="fill:#b5ae30; stroke:#b5ae30;" mask="url(#pads-mask)"><g style="fill-opacity: 0.0;stroke-width: 0.000000;stroke-opacity: 1;stroke-linecap: round;stroke-linejoin: round">
<g style="fill-opacity: 1.0;stroke-width: 0.100000;stroke-opacity: 1;stroke-linecap: round;stroke-linejoin: round">
<path style="fill-opacity: 1.0;stroke-width: 0.100000;stroke-opacity: 1;stroke-linecap: round;stroke-linejoin: round;fill-rule: evenodd" d="M 5015000.000000,6480000.000000 5015000.000000,6080000.000000 5365000.000000,6080000.000000 5365000.000000,6480000.000000 Z"/> 
<path style="fill-opacity: 1.0;stroke-width: 0.100000;stroke-opacity: 1;stroke-linecap: round;stroke-linejoin: round;fill-rule: evenodd" d="M 5835000.000000,6480000.000000 5835000.000000,6080000.000000 6185000.000000,6080000.000000 6185000.000000,6480000.000000 Z"/> 
<path style="fill-opacity: 1.0;stroke-width: 0.100000;stroke-opacity: 1;stroke-linecap: round;stroke-linejoin: round;fill-rule: evenodd" d="M 5500000.000000,6480000.000000 5500000.000000,6080000.000000 5700000.000000,6080000.000000 5700000.000000,6480000.000000 Z"/> 
</g>
<g style="fill-opacity: 1.0;stroke-width: 0.100000;stroke-opacity: 1;stroke-linecap: round;stroke-linejoin: round">
<path style="fill-opacity: 1.0;stroke-width: 0.100000;stroke-opacity: 1;stroke-linecap: round;stroke-linejoin: round;fill-rule: evenodd" d="M 5653200.000000,5930000.000000 5653200.000000,5130000.000000 5780200.000000,5130000.000000 5780200.000000,5930000.000000 Z"/> 
<path style="fill-opacity: 1.0;stroke-width: 0.100000;stroke-opacity: 1;stroke-linecap: round;stroke-linejoin: round;fill-rule: evenodd" d="M 5439800.000000,5930000.000000 5439800.000000,5130000.000000 5566800.000000,5130000.000000 5566800.000000,5930000.000000 Z"/> 
<path style="fill-opacity: 1.0;stroke-width: 0.100000;stroke-opacity: 1;stroke-linecap: round;stroke-linejoin: round;fill-rule: evenodd" d="M 5931500.000000,5930000.000000 5931500.000000,5060000.000000 6058500.000000,5060000.000000 6058500.000000,5930000.000000 Z"/> 
<path style="fill-opacity: 1.0;stroke-width: 0.100000;stroke-opacity: 1;stroke-linecap: round;stroke-linejoin: round;fill-rule: evenodd" d="M 5165500.000000,5930000.000000 5165500.000000,5060000.000000 5292500.000000,5060000.000000 5292500.000000,5930000.000000 Z"/> 
</g>
<g style="fill-opacity: 1.0;stroke-width: 0.100000;stroke-opacity: 1;stroke-linecap: round;stroke-linejoin: round">
<circle cx="5443220.000000" cy="6310630.000000" r="30000.000000"/> 
</g>
<g style="fill-opacity: 1.0;stroke-width: 0.100000;stroke-opacity: 1;stroke-linecap: round;stroke-linejoin: round">
<circle cx="5393220.000000" cy="5427600.000000" r="30000.000000"/> 
</g>
<g style="fill-opacity: 1.0;stroke-width: 0.100000;stroke-opacity: 1;stroke-linecap: round;stroke-linejoin: round">
<circle cx="5431020.000000" cy="5999230.000000" r="30000.000000"/> 
</g>
<g style="fill-opacity: 1.0;stroke-width: 0.100000;stroke-opacity: 1;stroke-linecap: round;stroke-linejoin: round">
<circle cx="5785500.000000" cy="6433530.000000" r="30000.000000"/> 
</g>
<g style="fill-opacity: 1.0;stroke-width: 0.100000;stroke-opacity: 1;stroke-linecap: round;stroke-linejoin: round">
<circle cx="6136280.000000" cy="5214270.000000" r="30000.000000"/> 
</g>
<g style="fill-opacity: 1.0;stroke-width: 0.100000;stroke-opacity: 1;stroke-linecap: round;stroke-linejoin: round">
<circle cx="6038500.000000" cy="6007500.000000" r="30000.000000"/> 
</g>
<g style="fill-opacity: 1.0;stroke-width: 0.100000;stroke-opacity: 1;stroke-linecap: round;stroke-linejoin: round">
<circle cx="5152500.000000" cy="6202500.000000" r="30000.000000"/> 
</g>
<g style="fill-opacity: 1.0;stroke-width: 0.100000;stroke-opacity: 1;stroke-linecap: round;stroke-linejoin: round">
<circle cx="5237500.000000" cy="6175000.000000" r="30000.000000"/> 
</g>
<g style="fill-opacity: 1.0;stroke-width: 0.100000;stroke-opacity: 1;stroke-linecap: round;stroke-linejoin: round">
<circle cx="5212500.000000" cy="6250000.000000" r="30000.000000"/> 
</g>
<g style="fill-opacity: 1.0;stroke-width: 0.100000;stroke-opacity: 1;stroke-linecap: round;stroke-linejoin: round">
<circle cx="5282500.000000" cy="6270000.000000" r="30000.000000"/> 
</g>
<g style="fill-opacity: 1.0;stroke-width: 0.100000;stroke-opacity: 1;stroke-linecap: round;stroke-linejoin: round">
<circle cx="5790000.000000" cy="6043000.000000" r="30000.000000"/> 
</g>
<g style="fill-opacity: 1.0;stroke-width: 0.100000;stroke-opacity: 1;stroke-linecap: round;stroke-linejoin: round">
<circle cx="5860390.000000" cy="6014000.000000" r="30000.000000"/> 
</g>
<g style="fill-opacity: 1.0;stroke-width: 0.100000;stroke-opacity: 1;stroke-linecap: round;stroke-linejoin: round">
<circle cx="5544150.000000" cy="6096310.000000" r="30000.000000"/> 
</g>
<g style="fill-opacity: 1.0;stroke-width: 0.100000;stroke-opacity: 1;stroke-linecap: round;stroke-linejoin: round">
<circle cx="5575000.000000" cy="6432500.000000" r="30000.000000"/> 
</g>
<g style="fill-opacity: 1.0;stroke-width: 0.100000;stroke-opacity: 1;stroke-linecap: round;stroke-linejoin: round">
<circle cx="5652500.000000" cy="6430000.000000" r="30000.000000"/> 
</g>
<g style="fill-opacity: 1.0;stroke-width: 0.100000;stroke-opacity: 1;stroke-linecap: round;stroke-linejoin: round">
<circle cx="5652500.000000" cy="6357500.000000" r="30000.000000"/> 
</g>
<g style="fill-opacity: 0.0;stroke-width: 25000.000000;stroke-opacity: 1;stroke-linecap: round;stroke-linejoin: round">
<path d="M5431020 5999230 L5393220 5961430 "/>
<path d="M5393220 5961430 L5393220 5427600 "/>
<path d="M5806490 6280000 L5731480 6204990 "/>
<path d="M5731480 6204990 L5731480 6065730 "/>
<path d="M5731480 6065730 L5664980 5999230 "/>
<path d="M5664980 5999230 L5431020 5999230 "/>
<path d="M5785500 6433530 L5806490 6412540 "/>
<path d="M5806490 6412540 L5806490 6280000 "/>
<path d="M6010000 6280000 L5806490 6280000 "/>
<path d="M5995000 5730500 L6136280 5589220 "/>
<path d="M6136280 5589220 L6136280 5214270 "/>
<path d="M5995000 6036490 L6010000 6051490 "/>
<path d="M5995000 5495000 L5995000 5730500 "/>
<path d="M6010000 6280000 L6010000 6051490 "/>
<path d="M5443220 6011430 L5431020 5999230 "/>
<path d="M5443220 6310630 L5443220 6011430 "/>
<path d="M5995270 6007500 L5995000 6007770 "/>
<path d="M6038500 6007500 L5995270 6007500 "/>
<path d="M5995000 6007770 L5995000 6036490 "/>
<path d="M5995000 5730500 L5995000 6007770 "/>
<path d="M5229000 6020000 L5237500 6028500 "/>
<path d="M5237500 6028500 L5237500 6175000 "/>
</g>
<g style="fill-opacity: 0.0;stroke-width: 120000.000000;stroke-opacity: 1;stroke-linecap: round;stroke-linejoin: round">
<path d="M5229000 6020000 L5229000 6102000 "/>
<path d="M5229000 5495000 L5229000 6020000 "/>
</g>
<g style="fill-opacity: 0.0;stroke-width: 25000.000000;stroke-opacity: 1;stroke-linecap: round;stroke-linejoin: round">
<path d="M5212500 6250000 L5190000 6272500 "/>
<path d="M5190000 6272500 L5190000 6280000 "/>
</g>
<g style="fill-opacity: 0.0;stroke-width: 20000.000000;stroke-opacity: 1;stroke-linecap: round;stroke-linejoin: round">
<path d="M5503300 5530000 L5503300 5866500 "/>
<path d="M5503300 5866500 L5592800 5956000 "/>
<path d="M5592800 5956000 L5741000 5956000 "/>
<path d="M5741000 5956000 L5790000 6005000 "/>
<path d="M5790000 6005000 L5790000 6043000 "/>
</g>
<g style="fill-opacity: 0.0;stroke-width: 25000.000000;stroke-opacity: 1;stroke-linecap: round;stroke-linejoin: round">
<path d="M5716700 5530000 L5716700 5866500 "/>
</g>
<g style="fill-opacity: 0.0;stroke-width: 20000.000000;stroke-opacity: 1;stroke-linecap: round;stroke-linejoin: round">
<path d="M5716700 5866500 L5716700 5870310 "/>
<path d="M5716700 5870310 L5830390 5984010 "/>
<path d="M5830390 5984010 L5860390 6014000 "/>
</g>
<g style="fill-opacity: 0.0;stroke-width: 25000.000000;stroke-opacity: 1;stroke-linecap: round;stroke-linejoin: round">
<path d="M5600000 6280000 L5544150 6224150 "/>
<path d="M5544150 6224150 L5544150 6096310 "/>
<path d="M5652500 6357500 L5600000 6305000 "/>
<path d="M5600000 6305000 L5600000 6280000 "/>
<path d="M5652500 6430000 L5652500 6357500 "/>
</g>
</g> 
</g><g id="substrate-silk" style="fill:#f0f0f0; stroke:#f0f0f0;" mask="url(#pads-mask-silkscreen)"><g style="fill-opacity: 0.0;stroke-width: 20000.000000;stroke-opacity: 1;stroke-linecap: round;stroke-linejoin: round">
<text x="6010000.000000" y="6060000.000000" textLength="304762.000000" font-size="133333.300000" lengthAdjust="spacingAndGlyphs" text-anchor="middle" opacity="0">GND</text>
<g class="stroked-text"><desc>GND</desc>
<path d="M5933809 5960000 L5924285 5955238 L5910000 5955238 L5895714 5960000 L5886190 5969523 L5881428 5979047 L5876666 5998095 L5876666 6012380 L5881428 6031428 L5886190 6040952 L5895714 6050476 L5910000 6055238 L5919523 6055238 L5933809 6050476 L5938571 6045714 L5938571 6012380 L5919523 6012380 "/>
<path d="M5981428 6055238 L5981428 5955238 L6038571 6055238 L6038571 5955238 "/>
<path d="M6086190 6055238 L6086190 5955238 L6110000 5955238 L6124285 5960000 L6133809 5969523 L6138571 5979047 L6143333 5998095 L6143333 6012380 L6138571 6031428 L6133809 6040952 L6124285 6050476 L6110000 6055238 L6086190 6055238 "/>
</g><text x="5600000.000000" y="6060000.000000" textLength="364095.200000" font-size="133333.300000" lengthAdjust="spacingAndGlyphs" text-anchor="middle" opacity="0">Data</text>
<g class="stroked-text"><desc>Data</desc>
<path d="M5454761 6055238 L5454761 5955238 L5478571 5955238 L5492857 5960000 L5502380 5969523 L5507142 5979047 L5511904 5998095 L5511904 6012380 L5507142 6031428 L5502380 6040952 L5492857 6050476 L5478571 6055238 L5454761 6055238 "/>
<path d="M5597619 6055238 L5597619 6002857 L5592857 5993333 L5583333 5988571 L5564285 5988571 L5554761 5993333 "/>
<path d="M5597619 6050476 L5588095 6055238 L5564285 6055238 L5554761 6050476 L5550000 6040952 L5550000 6031428 L5554761 6021904 L5564285 6017142 L5588095 6017142 L5597619 6012380 "/>
<path d="M5630952 5988571 L5669047 5988571 "/>
<path d="M5645238 5955238 L5645238 6040952 L5650000 6050476 L5659523 6055238 L5669047 6055238 "/>
<path d="M5745238 6055238 L5745238 6002857 L5740476 5993333 L5730952 5988571 L5711904 5988571 L5702380 5993333 "/>
<path d="M5745238 6050476 L5735714 6055238 L5711904 6055238 L5702380 6050476 L5697619 6040952 L5697619 6031428 L5702380 6021904 L5711904 6017142 L5735714 6017142 L5745238 6012380 "/>
</g><text x="5190000.000000" y="6060000.000000" textLength="330761.900000" font-size="133333.300000" lengthAdjust="spacingAndGlyphs" text-anchor="middle" opacity="0">+5V</text>
<g class="stroked-text"><desc>+5V</desc>
<path d="M5061428 6017142 L5137619 6017142 "/>
<path d="M5099523 6055238 L5099523 5979047 "/>
<path d="M5232857 5955238 L5185238 5955238 L5180476 6002857 L5185238 5998095 L5194761 5993333 L5218571 5993333 L5228095 5998095 L5232857 6002857 L5237619 6012380 L5237619 6036190 L5232857 6045714 L5228095 6050476 L5218571 6055238 L5194761 6055238 L5185238 6050476 L5180476 6045714 "/>
<path d="M5266190 5955238 L5299523 6055238 L5332857 5955238 "/>
</g></g> 
</g><g id="substrate-outline" style="fill:#000000; stroke:#000000; stroke-width: 15000.0"><g style="fill-opacity: 0.0;stroke-opacity: 1;stroke-linecap: round;stroke-linejoin: round">
<path d="M5060000.000000 5000000.000000 A60000.000000 60000.000000 0.0 0 0 5000000.000000 5060000.000000"/>
<path d="M6200000.000000 5060000.000000 A60000.000000 60000.000000 0.0 0 0 6140000.000000 5000000.000000"/>
<path d="M6140000 5000000 L5060000 5000000 "/>
<path d="M6200000 6500000 L6200000 5060000 "/>
<path d="M5000000 6500000 L6200000 6500000 "/>
<path d="M5000000 5060000 L5000000 6500000 "/>
</g> 
<path d="M -15000.0 0.0 A 15000.0 15000.0 0 1 1 15000.0 0.0 L 15000.0 -0.0 A 15000.0 15000.0 0 1 1 -15000.0 -0.0 Z" transform="translate(5443220.0 6310630.0) rotate(0)"/><path d="M -15000.0 0.0 A 15000.0 15000.0 0 1 1 15000.0 0.0 L 15000.0 -0.0 A 15000.0 15000.0 0 1 1 -15000.0 -0.0 Z" transform="translate(5393220.0 5427600.0) rotate(0)"/><path d="M -15000.0 0.0 A 15000.0 15000.0 0 1 1 15000.0 0.0 L 15000.0 -0.0 A 15000.0 15000.0 0 1 1 -15000.0 -0.0 Z" transform="translate(5431020.0 5999230.0) rotate(0)"/><path d="M -15000.0 0.0 A 15000.0 15000.0 0 1 1 15000.0 0.0 L 15000.0 -0.0 A 15000.0 15000.0 0 1 1 -15000.0 -0.0 Z" transform="translate(5785500.0 6433530.0) rotate(0)"/><path d="M -15000.0 0.0 A 15000.0 15000.0 0 1 1 15000.0 0.0 L 15000.0 -0.0 A 15000.0 15000.0 0 1 1 -15000.0 -0.0 Z" transform="translate(6136280.0 5214270.0) rotate(0)"/><path d="M -15000.0 0.0 A 15000.0 15000.0 0 1 1 15000.0 0.0 L 15000.0 -0.0 A 15000.0 15000.0 0 1 1 -15000.0 -0.0 Z" transform="translate(6038500.0 6007500.0) rotate(0)"/><path d="M -15000.0 0.0 A 15000.0 15000.0 0 1 1 15000.0 0.0 L 15000.0 -0.0 A 15000.0 15000.0 0 1 1 -15000.0 -0.0 Z" transform="translate(5152500.0 6202500.0) rotate(0)"/><path d="M -15000.0 0.0 A 15000.0 15000.0 0 1 1 15000.0 0.0 L 15000.0 -0.0 A 15000.0 15000.0 0 1 1 -15000.0 -0.0 Z" transform="translate(5237500.0 6175000.0) rotate(0)"/><path d="M -15000.0 0.0 A 15000.0 15000.0 0 1 1 15000.0 0.0 L 15000.0 -0.0 A 15000.0 15000.0 0 1 1 -15000.0 -0.0 Z" transform="translate(5212500.0 6250000.0) rotate(0)"/><path d="M -15000.0 0.0 A 15000.0 15000.0 0 1 1 15000.0 0.0 L 15000.0 -0.0 A 15000.0 15000.0 0 1 1 -15000.0 -0.0 Z" transform="translate(5282500.0 6270000.0) rotate(0)"/><path d="M -15000.0 0.0 A 15000.0 15000.0 0 1 1 15000.0 0.0 L 15000.0 -0.0 A 15000.0 15000.0 0 1 1 -15000.0 -0.0 Z" transform="translate(5790000.0 6043000.0) rotate(0)"/><path d="M -15000.0 0.0 A 15000.0 15000.0 0 1 1 15000.0 0.0 L 15000.0 -0.0 A 15000.0 15000.0 0 1 1 -15000.0 -0.0 Z" transform="translate(5860390.0 6014000.0) rotate(0)"/><path d="M -15000.0 0.0 A 15000.0 15000.0 0 1 1 15000.0 0.0 L 15000.0 -0.0 A 15000.0 15000.0 0 1 1 -15000.0 -0.0 Z" transform="translate(5544150.0 6096310.0) rotate(0)"/><path d="M -15000.0 0.0 A 15000.0 15000.0 0 1 1 15000.0 0.0 L 15000.0 -0.0 A 15000.0 15000.0 0 1 1 -15000.0 -0.0 Z" transform="translate(5575000.0 6432500.0) rotate(0)"/><path d="M -15000.0 0.0 A 15000.0 15000.0 0 1 1 15000.0 0.0 L 15000.0 -0.0 A 15000.0 15000.0 0 1 1 -15000.0 -0.0 Z" transform="translate(5652500.0 6430000.0) rotate(0)"/><path d="M -15000.0 0.0 A 15000.0 15000.0 0 1 1 15000.0 0.0 L 15000.0 -0.0 A 15000.0 15000.0 0 1 1 -15000.0 -0.0 Z" transform="translate(5652500.0 6357500.0) rotate(0)"/></g></g></g><g transform="" id="componentContainer"><!--Capacitor_SMD:C_0402_1005Metric.back:C1--><!--Capacitor_SMD:C_0402_1005Metric.back:C5--><g transform="translate(5130000.0 5465000.0) scale(99999.9545452686, 99999.95454675615) rotate(90.0) translate(-0.09999550133943558 -0.10003144294023514)"><use xmlns:xlink="http://www.w3.org/1999/xlink" xlink:href="#pref_11_Capacitor_SMD__C_0402_1005Metricback_100n"/></g><!--Capacitor_SMD:C_0402_1005Metric.back:C4--><g transform="translate(5130000.0 5790000.0) scale(99999.9545452686, 99999.95454675615) rotate(-90.0) translate(-0.09999550133943558 -0.10003144294023514)"><use xmlns:xlink="http://www.w3.org/1999/xlink" xlink:href="#pref_11_Capacitor_SMD__C_0402_1005Metricback_100n"/></g><!--Capacitor_SMD:C_0402_1005Metric.back:C3--><g transform="translate(5990000.0 6007500.0) scale(99999.9545452686, 99999.95454675615) rotate(-0.0) translate(-0.09999550133943558 -0.10003144294023514)"><use xmlns:xlink="http://www.w3.org/1999/xlink" xlink:href="#pref_11_Capacitor_SMD__C_0402_1005Metricback_100n"/></g><!--Resistor_SMD:R_0402_1005Metric.back:R1--><!--Capacitor_SMD:C_0402_1005Metric.back:C2--><g transform="translate(6085000.0 5332500.0) scale(99999.9545452686, 99999.95454675615) rotate(90.0) translate(-0.09999550133943558 -0.10003144294023514)"><use xmlns:xlink="http://www.w3.org/1999/xlink" xlink:href="#pref_11_Capacitor_SMD__C_0402_1005Metricback_100n"/></g></g></svg>