<!DOCTYPE svg PUBLIC "-//W3C//DTD SVG 1.1//EN" "http://www.w3.org/Graphics/SVG/1.1/DTD/svg11.dtd">
<svg xmlns="http://www.w3.org/2000/svg" version="1.1" width="16.5mm" height="14.5mm" viewBox="17150000.0 8850000.0 1650000.0 1450000.0">
            <title>Picture generated by PcbDraw </title>
            <desc>Picture generated by PcbDraw</desc>
        <defs><clipPath id="cut-off"><path d=" M 17250000.0 8950000.0 L 17250000.0 10200000.0 L 18700000.0 10200000.0 L 18700000.0 8950000.0 L 17250000.0 8950000.0 " style="fill-rule: evenodd;"/></clipPath><mask id="pads-mask"><g style="fill:#ffffff; fill-opacity:0.0;  stroke:#ffffff; stroke-width:0.000000; stroke-opacity:1;  stroke-linecap:round; stroke-linejoin:round;">
<g style="fill:#ffffff; fill-opacity:1.0;  stroke:#ffffff; stroke-width:0.100000; stroke-opacity:1;  stroke-linecap:round; stroke-linejoin:round;">
<circle cx="18250000.000000" cy="9350000.000000" r="68580.000000"/> 
</g>
<g style="fill:#ffffff; fill-opacity:1.0;  stroke:#ffffff; stroke-width:0.100000; stroke-opacity:1;  stroke-linecap:round; stroke-linejoin:round;">
<circle cx="18050000.000000" cy="9350000.000000" r="68580.000000"/> 
</g>
<g style="fill:#ffffff; fill-opacity:1.0;  stroke:#ffffff; stroke-width:0.100000; stroke-opacity:1;  stroke-linecap:round; stroke-linejoin:round;">
<circle cx="17850000.000000" cy="9350000.000000" r="68580.000000"/> 
</g>
<g style="fill:#ffffff; fill-opacity:1.0;  stroke:#ffffff; stroke-width:0.100000; stroke-opacity:1;  stroke-linecap:round; stroke-linejoin:round;">
<path style="fill:#ffffff; fill-opacity:1.0;  stroke:#ffffff; stroke-width:0.100000; stroke-opacity:1;  stroke-linecap:round; stroke-linejoin:round;fill-rule:evenodd;" d="M 17581420.000000,9286500.000000 17581806.700000,9284556.000000 17582907.900000,9282907.900000 17584556.000000,9281806.700000 17586500.000000,9281420.000000 17713500.000000,9281420.000000 17715444.000000,9281806.700000 17717092.100000,9282907.900000 17718193.300000,9284556.000000 17718580.000000,9286500.000000 17718580.000000,9413500.000000 17718193.300000,9415444.000000 17717092.100000,9417092.100000 17715444.000000,9418193.300000 17713500.000000,9418580.000000 17586500.000000,9418580.000000 17584556.000000,9418193.300000 17582907.900000,9417092.100000 17581806.700000,9415444.000000 17581420.000000,9413500.000000 Z"/> 
</g>
<g style="fill:#ffffff; fill-opacity:0.0;  stroke:#ffffff; stroke-width:170000.000000; stroke-opacity:1;  stroke-linecap:round; stroke-linejoin:round;">
<path d="M18350000 9737500 L18350000 9762500 "/>
<path d="M18100000 9737500 L18100000 9762500 "/>
<path d="M17850000 9737500 L17850000 9762500 "/>
</g>
<g style="fill:#ffffff; fill-opacity:1.0;  stroke:#ffffff; stroke-width:0.100000; stroke-opacity:1;  stroke-linecap:round; stroke-linejoin:round;">
<path style="fill:#ffffff; fill-opacity:1.0;  stroke:#ffffff; stroke-width:0.100000; stroke-opacity:1;  stroke-linecap:round; stroke-linejoin:round;fill-rule:evenodd;" d="M 17515000.000000,9677500.000000 17516903.000000,9667932.900000 17522322.300000,9659822.300000 17530432.900000,9654403.000000 17540000.000000,9652500.000000 17660000.000000,9652500.000000 17669567.100000,9654403.000000 17677677.700000,9659822.300000 17683097.000000,9667932.900000 17685000.000000,9677500.000000 17685000.000000,9822500.000000 17683097.000000,9832067.100000 17677677.700000,9840177.700000 17669567.100000,9845597.000000 17660000.000000,9847500.000000 17540000.000000,9847500.000000 17530432.900000,9845597.000000 17522322.300000,9840177.700000 17516903.000000,9832067.100000 17515000.000000,9822500.000000 Z"/> 
</g>
</g> 
</mask><mask id="pads-mask-silkscreen"><rect x="17247500.0" y="8918200.0" width="1455000.0" height="1284300.0" fill="white"/><g style="fill:#000000; fill-opacity:0.0;  stroke:#000000; stroke-width:0.000000; stroke-opacity:1;  stroke-linecap:round; stroke-linejoin:round;">
<g style="fill:#000000; fill-opacity:1.0;  stroke:#000000; stroke-width:0.100000; stroke-opacity:1;  stroke-linecap:round; stroke-linejoin:round;">
<circle cx="18250000.000000" cy="9350000.000000" r="68580.000000"/> 
</g>
<g style="fill:#000000; fill-opacity:1.0;  stroke:#000000; stroke-width:0.100000; stroke-opacity:1;  stroke-linecap:round; stroke-linejoin:round;">
<circle cx="18050000.000000" cy="9350000.000000" r="68580.000000"/> 
</g>
<g style="fill:#000000; fill-opacity:1.0;  stroke:#000000; stroke-width:0.100000; stroke-opacity:1;  stroke-linecap:round; stroke-linejoin:round;">
<circle cx="17850000.000000" cy="9350000.000000" r="68580.000000"/> 
</g>
<g style="fill:#000000; fill-opacity:1.0;  stroke:#000000; stroke-width:0.100000; stroke-opacity:1;  stroke-linecap:round; stroke-linejoin:round;">
<path style="fill:#000000; fill-opacity:1.0;  stroke:#000000; stroke-width:0.100000; stroke-opacity:1;  stroke-linecap:round; stroke-linejoin:round;fill-rule:evenodd;" d="M 17581420.000000,9286500.000000 17581806.700000,9284556.000000 17582907.900000,9282907.900000 17584556.000000,9281806.700000 17586500.000000,9281420.000000 17713500.000000,9281420.000000 17715444.000000,9281806.700000 17717092.100000,9282907.900000 17718193.300000,9284556.000000 17718580.000000,9286500.000000 17718580.000000,9413500.000000 17718193.300000,9415444.000000 17717092.100000,9417092.100000 17715444.000000,9418193.300000 17713500.000000,9418580.000000 17586500.000000,9418580.000000 17584556.000000,9418193.300000 17582907.900000,9417092.100000 17581806.700000,9415444.000000 17581420.000000,9413500.000000 Z"/> 
</g>
<g style="fill:#000000; fill-opacity:0.0;  stroke:#000000; stroke-width:170000.000000; stroke-opacity:1;  stroke-linecap:round; stroke-linejoin:round;">
<path d="M18350000 9737500 L18350000 9762500 "/>
<path d="M18100000 9737500 L18100000 9762500 "/>
<path d="M17850000 9737500 L17850000 9762500 "/>
</g>
<g style="fill:#000000; fill-opacity:1.0;  stroke:#000000; stroke-width:0.100000; stroke-opacity:1;  stroke-linecap:round; stroke-linejoin:round;">
<path style="fill:#000000; fill-opacity:1.0;  stroke:#000000; stroke-width:0.100000; stroke-opacity:1;  stroke-linecap:round; stroke-linejoin:round;fill-rule:evenodd;" d="M 17515000.000000,9677500.000000 17516903.000000,9667932.900000 17522322.300000,9659822.300000 17530432.900000,9654403.000000 17540000.000000,9652500.000000 17660000.000000,9652500.000000 17669567.100000,9654403.000000 17677677.700000,9659822.300000 17683097.000000,9667932.900000 17685000.000000,9677500.000000 17685000.000000,9822500.000000 17683097.000000,9832067.100000 17677677.700000,9840177.700000 17669567.100000,9845597.000000 17660000.000000,9847500.000000 17540000.000000,9847500.000000 17530432.900000,9845597.000000 17522322.300000,9840177.700000 17516903.000000,9832067.100000 17515000.000000,9822500.000000 Z"/> 
</g>
</g> 
</mask><mask id="hole-mask"><g><rect x="17247500.0" y="8918200.0" fill="white" width="1455000.0" height="1284300.0"/><polyline stroke-linecap="round" stroke="black" stroke-width="80000.0" points="-0.0 0 0.0 0" transform="translate(18250000.0 9350000.0) rotate(-0.0)"/><polyline stroke-linecap="round" stroke="black" stroke-width="80000.0" points="-0.0 0 0.0 0" transform="translate(18050000.0 9350000.0) rotate(-0.0)"/><polyline stroke-linecap="round" stroke="black" stroke-width="80000.0" points="-0.0 0 0.0 0" transform="translate(17850000.0 9350000.0) rotate(-0.0)"/><polyline stroke-linecap="round" stroke="black" stroke-width="80000.0" points="-0.0 0 0.0 0" transform="translate(17650000.0 9350000.0) rotate(-0.0)"/><polyline stroke-linecap="round" stroke="black" stroke-width="95000.0" points="-0.0 0 0.0 0" transform="translate(18350000.0 9750000.0) rotate(-0.0)"/><polyline stroke-linecap="round" stroke="black" stroke-width="95000.0" points="-0.0 0 0.0 0" transform="translate(18100000.0 9750000.0) rotate(-0.0)"/><polyline stroke-linecap="round" stroke="black" stroke-width="95000.0" points="-0.0 0 0.0 0" transform="translate(17850000.0 9750000.0) rotate(-0.0)"/><polyline stroke-linecap="round" stroke="black" stroke-width="95000.0" points="-0.0 0 0.0 0" transform="translate(17600000.0 9750000.0) rotate(-0.0)"/></g></mask></defs><g transform="" id="boardContainer"><g id="substrate" clip-path="url(#cut-off)" mask="url(#hole-mask)"><g id="substrate-board" style="fill:#4ca06c; stroke:#4ca06c;"><path d=" M 17250000.0 8950000.0 L 17250000.0 10200000.0 L 18700000.0 10200000.0 L 18700000.0 8950000.0 L 17250000.0 8950000.0 " style="fill-rule: evenodd;"/><g style="fill-opacity: 0.0;stroke-width: 5000.000000;stroke-opacity: 1;stroke-linecap: round;stroke-linejoin: round">
<path d="M18700000 8950000 L17250000 8950000 "/>
<path d="M18700000 10200000 L18700000 8950000 "/>
<path d="M17250000 10200000 L18700000 10200000 "/>
<path d="M17250000 8950000 L17250000 10200000 "/>
</g> 
</g><g id="substrate-clad" style="fill:#9c6b28; stroke:#9c6b28;"><g style="fill-opacity: 0.0;stroke-width: 0.000000;stroke-opacity: 1;stroke-linecap: round;stroke-linejoin: round">
<g style="fill-opacity: 1.0;stroke-width: 0.100000;stroke-opacity: 1;stroke-linecap: round;stroke-linejoin: round">
<circle cx="18250000.000000" cy="9350000.000000" r="68580.000000"/> 
</g>
<g style="fill-opacity: 1.0;stroke-width: 0.100000;stroke-opacity: 1;stroke-linecap: round;stroke-linejoin: round">
<circle cx="18050000.000000" cy="9350000.000000" r="68580.000000"/> 
</g>
<g style="fill-opacity: 1.0;stroke-width: 0.100000;stroke-opacity: 1;stroke-linecap: round;stroke-linejoin: round">
<circle cx="17850000.000000" cy="9350000.000000" r="68580.000000"/> 
</g>
<g style="fill-opacity: 1.0;stroke-width: 0.100000;stroke-opacity: 1;stroke-linecap: round;stroke-linejoin: round">
<path style="fill-opacity: 1.0;stroke-width: 0.100000;stroke-opacity: 1;stroke-linecap: round;stroke-linejoin: round;fill-rule: evenodd" d="M 17581420.000000,9286500.000000 17581806.700000,9284556.000000 17582907.900000,9282907.900000 17584556.000000,9281806.700000 17586500.000000,9281420.000000 17713500.000000,9281420.000000 17715444.000000,9281806.700000 17717092.100000,9282907.900000 17718193.300000,9284556.000000 17718580.000000,9286500.000000 17718580.000000,9413500.000000 17718193.300000,9415444.000000 17717092.100000,9417092.100000 17715444.000000,9418193.300000 17713500.000000,9418580.000000 17586500.000000,9418580.000000 17584556.000000,9418193.300000 17582907.900000,9417092.100000 17581806.700000,9415444.000000 17581420.000000,9413500.000000 Z"/> 
</g>
<g style="fill-opacity: 0.0;stroke-width: 170000.000000;stroke-opacity: 1;stroke-linecap: round;stroke-linejoin: round">
<path d="M18350000 9737500 L18350000 9762500 "/>
<path d="M18100000 9737500 L18100000 9762500 "/>
<path d="M17850000 9737500 L17850000 9762500 "/>
</g>
<g style="fill-opacity: 1.0;stroke-width: 0.100000;stroke-opacity: 1;stroke-linecap: round;stroke-linejoin: round">
<path style="fill-opacity: 1.0;stroke-width: 0.100000;stroke-opacity: 1;stroke-linecap: round;stroke-linejoin: round;fill-rule: evenodd" d="M 17515000.000000,9677500.000000 17516903.000000,9667932.900000 17522322.300000,9659822.300000 17530432.900000,9654403.000000 17540000.000000,9652500.000000 17660000.000000,9652500.000000 17669567.100000,9654403.000000 17677677.700000,9659822.300000 17683097.000000,9667932.900000 17685000.000000,9677500.000000 17685000.000000,9822500.000000 17683097.000000,9832067.100000 17677677.700000,9840177.700000 17669567.100000,9845597.000000 17660000.000000,9847500.000000 17540000.000000,9847500.000000 17530432.900000,9845597.000000 17522322.300000,9840177.700000 17516903.000000,9832067.100000 17515000.000000,9822500.000000 Z"/> 
</g>
</g> 
</g><g id="substrate-copper" style="fill:#417e5a; stroke:#417e5a;"><g style="fill-opacity: 0.0;stroke-width: 0.000000;stroke-opacity: 1;stroke-linecap: round;stroke-linejoin: round">
<g style="fill-opacity: 1.0;stroke-width: 0.100000;stroke-opacity: 1;stroke-linecap: round;stroke-linejoin: round">
<circle cx="18250000.000000" cy="9350000.000000" r="63500.000000"/> 
</g>
<g style="fill-opacity: 1.0;stroke-width: 0.100000;stroke-opacity: 1;stroke-linecap: round;stroke-linejoin: round">
<circle cx="18050000.000000" cy="9350000.000000" r="63500.000000"/> 
</g>
<g style="fill-opacity: 1.0;stroke-width: 0.100000;stroke-opacity: 1;stroke-linecap: round;stroke-linejoin: round">
<circle cx="17850000.000000" cy="9350000.000000" r="63500.000000"/> 
</g>
<g style="fill-opacity: 1.0;stroke-width: 0.100000;stroke-opacity: 1;stroke-linecap: round;stroke-linejoin: round">
<path style="fill-opacity: 1.0;stroke-width: 0.100000;stroke-opacity: 1;stroke-linecap: round;stroke-linejoin: round;fill-rule: evenodd" d="M 17586500.000000,9413500.000000 17586500.000000,9286500.000000 17713500.000000,9286500.000000 17713500.000000,9413500.000000 Z"/> 
</g>
<g style="fill-opacity: 0.0;stroke-width: 170000.000000;stroke-opacity: 1;stroke-linecap: round;stroke-linejoin: round">
<path d="M18350000 9737500 L18350000 9762500 "/>
<path d="M18100000 9737500 L18100000 9762500 "/>
<path d="M17850000 9737500 L17850000 9762500 "/>
</g>
<g style="fill-opacity: 1.0;stroke-width: 0.100000;stroke-opacity: 1;stroke-linecap: round;stroke-linejoin: round">
<path style="fill-opacity: 1.0;stroke-width: 0.100000;stroke-opacity: 1;stroke-linecap: round;stroke-linejoin: round;fill-rule: evenodd" d="M 17515000.000000,9677500.000000 17516903.000000,9667932.900000 17522322.300000,9659822.300000 17530432.900000,9654403.000000 17540000.000000,9652500.000000 17660000.000000,9652500.000000 17669567.100000,9654403.000000 17677677.700000,9659822.300000 17683097.000000,9667932.900000 17685000.000000,9677500.000000 17685000.000000,9822500.000000 17683097.000000,9832067.100000 17677677.700000,9840177.700000 17669567.100000,9845597.000000 17660000.000000,9847500.000000 17540000.000000,9847500.000000 17530432.900000,9845597.000000 17522322.300000,9840177.700000 17516903.000000,9832067.100000 17515000.000000,9822500.000000 Z"/> 
</g>
<g style="fill-opacity: 0.0;stroke-width: 100000.000000;stroke-opacity: 1;stroke-linecap: round;stroke-linejoin: round">
<path d="M18300000 9350000 L18250000 9350000 "/>
<path d="M18325000 9375000 L18300000 9350000 "/>
<path d="M18325000 9725000 L18325000 9375000 "/>
<path d="M18350000 9750000 L18325000 9725000 "/>
</g>
<g style="fill-opacity: 0.0;stroke-width: 50000.000000;stroke-opacity: 1;stroke-linecap: round;stroke-linejoin: round">
<path d="M18050000 9700000 L18100000 9750000 "/>
<path d="M18050000 9350000 L18050000 9700000 "/>
<path d="M17850000 9350000 L17850000 9750000 "/>
<path d="M17650000 9700000 L17650000 9350000 "/>
<path d="M17600000 9750000 L17650000 9700000 "/>
</g>
</g> 
</g><g id="substrate-pads" style="fill:#b5ae30; stroke:#b5ae30;" mask="url(#pads-mask)"><g style="fill-opacity: 0.0;stroke-width: 0.000000;stroke-opacity: 1;stroke-linecap: round;stroke-linejoin: round">
<g style="fill-opacity: 1.0;stroke-width: 0.100000;stroke-opacity: 1;stroke-linecap: round;stroke-linejoin: round">
<circle cx="18250000.000000" cy="9350000.000000" r="63500.000000"/> 
</g>
<g style="fill-opacity: 1.0;stroke-width: 0.100000;stroke-opacity: 1;stroke-linecap: round;stroke-linejoin: round">
<circle cx="18050000.000000" cy="9350000.000000" r="63500.000000"/> 
</g>
<g style="fill-opacity: 1.0;stroke-width: 0.100000;stroke-opacity: 1;stroke-linecap: round;stroke-linejoin: round">
<circle cx="17850000.000000" cy="9350000.000000" r="63500.000000"/> 
</g>
<g style="fill-opacity: 1.0;stroke-width: 0.100000;stroke-opacity: 1;stroke-linecap: round;stroke-linejoin: round">
<path style="fill-opacity: 1.0;stroke-width: 0.100000;stroke-opacity: 1;stroke-linecap: round;stroke-linejoin: round;fill-rule: evenodd" d="M 17586500.000000,9413500.000000 17586500.000000,9286500.000000 17713500.000000,9286500.000000 17713500.000000,9413500.000000 Z"/> 
</g>
<g style="fill-opacity: 0.0;stroke-width: 170000.000000;stroke-opacity: 1;stroke-linecap: round;stroke-linejoin: round">
<path d="M18350000 9737500 L18350000 9762500 "/>
<path d="M18100000 9737500 L18100000 9762500 "/>
<path d="M17850000 9737500 L17850000 9762500 "/>
</g>
<g style="fill-opacity: 1.0;stroke-width: 0.100000;stroke-opacity: 1;stroke-linecap: round;stroke-linejoin: round">
<path style="fill-opacity: 1.0;stroke-width: 0.100000;stroke-opacity: 1;stroke-linecap: round;stroke-linejoin: round;fill-rule: evenodd" d="M 17515000.000000,9677500.000000 17516903.000000,9667932.900000 17522322.300000,9659822.300000 17530432.900000,9654403.000000 17540000.000000,9652500.000000 17660000.000000,9652500.000000 17669567.100000,9654403.000000 17677677.700000,9659822.300000 17683097.000000,9667932.900000 17685000.000000,9677500.000000 17685000.000000,9822500.000000 17683097.000000,9832067.100000 17677677.700000,9840177.700000 17669567.100000,9845597.000000 17660000.000000,9847500.000000 17540000.000000,9847500.000000 17530432.900000,9845597.000000 17522322.300000,9840177.700000 17516903.000000,9832067.100000 17515000.000000,9822500.000000 Z"/> 
</g>
<g style="fill-opacity: 0.0;stroke-width: 100000.000000;stroke-opacity: 1;stroke-linecap: round;stroke-linejoin: round">
<path d="M18300000 9350000 L18250000 9350000 "/>
<path d="M18325000 9375000 L18300000 9350000 "/>
<path d="M18325000 9725000 L18325000 9375000 "/>
<path d="M18350000 9750000 L18325000 9725000 "/>
</g>
<g style="fill-opacity: 0.0;stroke-width: 50000.000000;stroke-opacity: 1;stroke-linecap: round;stroke-linejoin: round">
<path d="M18050000 9700000 L18100000 9750000 "/>
<path d="M18050000 9350000 L18050000 9700000 "/>
<path d="M17850000 9350000 L17850000 9750000 "/>
<path d="M17650000 9700000 L17650000 9350000 "/>
<path d="M17600000 9750000 L17650000 9700000 "/>
</g>
</g> 
</g><g id="substrate-silk" style="fill:#f0f0f0; stroke:#f0f0f0;" mask="url(#pads-mask-silkscreen)"><g style="fill-opacity: 0.0;stroke-width: 15000.000000;stroke-opacity: 1;stroke-linecap: round;stroke-linejoin: round">
<text x="17650000.000000" y="9200000.000000" textLength="195238.200000" font-size="133333.300000" lengthAdjust="spacingAndGlyphs" text-anchor="middle" opacity="0">D1</text>
<g class="stroked-text"><desc>D1</desc>
<path d="M17576190 9195238 L17576190 9095238 L17600000 9095238 L17614285 9100000 L17623809 9109523 L17628571 9119047 L17633333 9138095 L17633333 9152380 L17628571 9171428 L17623809 9180952 L17614285 9190476 L17600000 9195238 L17576190 9195238 "/>
<path d="M17728571 9195238 L17671428 9195238 "/>
<path d="M17700000 9195238 L17700000 9095238 L17690476 9109523 L17680952 9119047 L17671428 9123809 "/>
</g><text x="17850000.000000" y="9200000.000000" textLength="214738.100000" font-size="133333.300000" lengthAdjust="spacingAndGlyphs" text-anchor="middle" opacity="0">D2</text>
<g class="stroked-text"><desc>D2</desc>
<path d="M17776190 9195238 L17776190 9095238 L17800000 9095238 L17814285 9100000 L17823809 9109523 L17828571 9119047 L17833333 9138095 L17833333 9152380 L17828571 9171428 L17823809 9180952 L17814285 9190476 L17800000 9195238 L17776190 9195238 "/>
<path d="M17871428 9104761 L17876190 9100000 L17885714 9095238 L17909523 9095238 L17919047 9100000 L17923809 9104761 L17928571 9114285 L17928571 9123809 L17923809 9138095 L17866666 9195238 L17928571 9195238 "/>
</g><text x="18050000.000000" y="9200000.000000" textLength="200452.400000" font-size="133333.300000" lengthAdjust="spacingAndGlyphs" text-anchor="middle" opacity="0">5V</text>
<g class="stroked-text"><desc>5V</desc>
<path d="M18030952 9095238 L17983333 9095238 L17978571 9142857 L17983333 9138095 L17992857 9133333 L18016666 9133333 L18026190 9138095 L18030952 9142857 L18035714 9152380 L18035714 9176190 L18030952 9185714 L18026190 9190476 L18016666 9195238 L17992857 9195238 L17983333 9190476 L17978571 9185714 "/>
<path d="M18064285 9095238 L18097619 9195238 L18130952 9095238 "/>
</g><text x="18350000.000000" y="9200000.000000" textLength="324261.900000" font-size="133333.300000" lengthAdjust="spacingAndGlyphs" text-anchor="middle" opacity="0">GND</text>
<g class="stroked-text"><desc>GND</desc>
<path d="M18273809 9100000 L18264285 9095238 L18250000 9095238 L18235714 9100000 L18226190 9109523 L18221428 9119047 L18216666 9138095 L18216666 9152380 L18221428 9171428 L18226190 9180952 L18235714 9190476 L18250000 9195238 L18259523 9195238 L18273809 9190476 L18278571 9185714 L18278571 9152380 L18259523 9152380 "/>
<path d="M18321428 9195238 L18321428 9095238 L18378571 9195238 L18378571 9095238 "/>
<path d="M18426190 9195238 L18426190 9095238 L18450000 9095238 L18464285 9100000 L18473809 9109523 L18478571 9119047 L18483333 9138095 L18483333 9152380 L18478571 9171428 L18473809 9180952 L18464285 9190476 L18450000 9195238 L18426190 9195238 "/>
</g><text x="17975000.000000" y="9445000.000000" textLength="190928.600000" font-size="133333.300000" lengthAdjust="spacingAndGlyphs" text-anchor="middle" opacity="0">J1</text>
<g class="stroked-text"><desc>J1</desc>
<path d="M17941666 9340238 L17941666 9411666 L17936904 9425952 L17927380 9435476 L17913095 9440238 L17903571 9440238 "/>
<path d="M18041666 9440238 L17984523 9440238 "/>
<path d="M18013095 9440238 L18013095 9340238 L18003571 9354523 L17994047 9364047 L17984523 9368809 "/>
</g></g>
<g style="fill-opacity: 1.0;stroke-width: 1000.000000;stroke-opacity: 1;stroke-linecap: round;stroke-linejoin: round">
<path style="fill-opacity: 1.0;stroke-width: 1000.000000;stroke-opacity: 1;stroke-linecap: round;stroke-linejoin: round;fill-rule: evenodd" d="M 17625410.000000,9242926.800000 17632757.800000,9245332.900000 17639072.100000,9248145.500000 17645570.800000,9251979.300000 17652584.700000,9257280.100000 17659498.400000,9263501.800000 17665696.400000,9270098.200000 17669853.200000,9275462.100000 17674226.800000,9281812.300000 17678965.700000,9278869.300000 17691204.000000,9272461.800000 17702754.500000,9268419.200000 17709021.300000,9267238.800000 17716828.500000,9266519.800000 17725453.800000,9266261.700000 17734175.100000,9266464.200000 17742270.200000,9267126.700000 17749017.100000,9268249.000000 17749822.900000,9268445.300000 17758214.000000,9270595.200000 17760555.000000,9267619.200000 17764344.600000,9264489.700000 17768992.200000,9263112.700000 17770664.500000,9263227.000000 17773900.500000,9263448.200000 17778471.900000,9265456.100000 17782087.300000,9269063.900000 17784277.600000,9273576.900000 17784440.700000,9278015.000000 17782906.200000,9282484.000000 17780081.100000,9286082.700000 17775894.700000,9288756.800000 17771266.100000,9289943.600000 17770698.200000,9289959.300000 17766495.200000,9288929.200000 17762452.600000,9286226.500000 17759311.100000,9282413.800000 17758458.300000,9280667.100000 17757068.600000,9277810.500000 17755468.400000,9276270.800000 17762790.900000,9276270.800000 17763559.100000,9278938.800000 17765301.200000,9281518.800000 17768651.300000,9283695.600000 17772299.100000,9284000.100000 17775637.100000,9282669.400000 17778057.700000,9279940.400000 17778954.500000,9276192.900000 17777941.200000,9272881.500000 17775412.900000,9269975.900000 17772136.900000,9268231.900000 17770664.500000,9268027.300000 17767988.500000,9268979.300000 17765286.800000,9271302.900000 17763322.000000,9274199.500000 17762790.900000,9276270.800000 17755468.400000,9276270.800000 17755217.000000,9276028.900000 17752122.800000,9274667.400000 17750778.400000,9274224.900000 17745586.000000,9273069.200000 17738782.900000,9272256.800000 17731044.600000,9271805.200000 17723046.500000,9271732.200000 17715464.000000,9272055.300000 17708972.500000,9272792.300000 17707372.700000,9273089.600000 17703029.400000,9274270.400000 17697831.000000,9276096.000000 17692329.400000,9278322.600000 17687076.200000,9280706.400000 17682623.100000,9283003.600000 17679521.900000,9284970.200000 17678608.900000,9285802.500000 17678407.800000,9287606.900000 17679320.800000,9291258.600000 17681367.000000,9296832.500000 17681479.100000,9297112.400000 17687199.800000,9314365.800000 17690656.600000,9331895.700000 17691849.500000,9349557.500000 17690778.600000,9367206.200000 17687444.000000,9384697.200000 17681845.700000,9401885.700000 17681427.900000,9402928.600000 17677380.400000,9412922.700000 17680246.400000,9415269.300000 17683399.800000,9417551.100000 17688133.500000,9420604.600000 17693969.500000,9424154.800000 17700429.900000,9427926.900000 17707036.700000,9431646.100000 17713311.800000,9435037.600000 17718777.200000,9437826.300000 17722381.800000,9439497.400000 17738456.500000,9445228.300000 17755845.000000,9449313.900000 17774256.300000,9451769.200000 17793399.400000,9452609.100000 17812983.400000,9451848.800000 17832717.400000,9449503.200000 17852310.300000,9445587.400000 17871471.200000,9440116.300000 17889909.200000,9433105.000000 17895563.600000,9430559.900000 17900500.300000,9428203.900000 17903770.400000,9426440.500000 17905813.900000,9424916.500000 17907070.900000,9423278.600000 17907397.400000,9422523.700000 17913223.200000,9422523.700000 17913363.800000,9425819.300000 17915713.400000,9429136.500000 17915715.700000,9429138.800000 17919033.100000,9431489.900000 17922328.500000,9431631.900000 17926000.700000,9429581.900000 17926003.400000,9429579.800000 17928550.400000,9426393.000000 17929045.400000,9423807.100000 17928109.200000,9419961.300000 17925703.100000,9417275.300000 17922430.600000,9415966.500000 17918895.400000,9416252.100000 17915701.000000,9418349.200000 17915274.700000,9418851.100000 17913223.200000,9422523.700000 17907397.400000,9422523.700000 17907981.200000,9421173.900000 17908263.600000,9420366.000000 17910682.500000,9415925.200000 17914279.100000,9412412.900000 17918420.600000,9410356.200000 17920671.200000,9410036.400000 17922430.600000,9410407.400000 17925730.500000,9411103.400000 17930101.500000,9413969.500000 17933281.600000,9418132.000000 17934768.200000,9423088.400000 17934818.100000,9424183.300000 17933827.200000,9428112.400000 17931262.300000,9432006.600000 17927735.000000,9435086.600000 17925355.700000,9436238.100000 17920383.100000,9436938.100000 17915583.600000,9436004.000000 17911745.300000,9433629.100000 17910922.800000,9432696.300000 17908931.000000,9430055.700000 17896185.900000,9436084.800000 17876590.700000,9444205.900000 17856168.700000,9450393.300000 17834760.600000,9454680.000000 17812207.400000,9457099.300000 17792231.800000,9457712.400000 17777532.800000,9457371.200000 17764517.300000,9456343.700000 17752642.600000,9454556.300000 17741365.800000,9451935.400000 17734504.500000,9449881.500000 17726301.300000,9446836.800000 17716900.300000,9442695.200000 17706933.500000,9437768.600000 17697032.800000,9432368.400000 17688267.700000,9427085.700000 17683627.100000,9424132.100000 17679652.100000,9421605.600000 17676775.400000,9419781.000000 17675446.600000,9418943.400000 17674227.100000,9419432.100000 17672210.500000,9421453.800000 17669852.800000,9424538.600000 17664715.500000,9431030.900000 17658352.100000,9437601.600000 17651377.900000,9443704.700000 17644408.500000,9448793.700000 17639072.100000,9451854.500000 17631087.200000,9455309.500000 17623809.500000,9457443.300000 17616237.100000,9458487.400000 17609493.400000,9458694.500000 17597953.300000,9457608.600000 17586767.200000,9454518.800000 17576465.700000,9449598.700000 17571501.600000,9446275.000000 17567825.900000,9443517.500000 17559710.600000,9449622.500000 17554575.800000,9453225.500000 17548566.100000,9457061.300000 17542888.300000,9460363.400000 17542298.600000,9460681.000000 17533001.800000,9465634.500000 17555821.400000,9476925.500000 17577321.600000,9487974.200000 17596716.600000,9498824.300000 17614187.900000,9509598.200000 17629917.000000,9520418.500000 17644085.300000,9531407.500000 17656874.300000,9542687.800000 17664739.500000,9550446.700000 17675849.800000,9562895.000000 17684703.800000,9575020.000000 17691316.400000,9586916.000000 17695702.300000,9598677.000000 17697876.400000,9610397.200000 17697853.400000,9622170.700000 17695648.100000,9634091.700000 17691275.400000,9646254.200000 17684750.100000,9658752.400000 17682373.500000,9662583.500000 17674143.500000,9673804.600000 17664879.500000,9683609.300000 17654793.200000,9691919.900000 17644096.500000,9698659.100000 17633001.000000,9703749.200000 17621718.500000,9707112.700000 17610460.700000,9708672.100000 17599439.500000,9708349.900000 17588866.500000,9706068.500000 17578953.600000,9701750.400000 17577586.200000,9700952.200000 17571713.700000,9696778.300000 17565157.500000,9691056.700000 17558380.600000,9684243.500000 17551846.300000,9676795.100000 17547733.700000,9671540.900000 17544802.200000,9667601.900000 17542417.800000,9664416.200000 17540892.800000,9662399.900000 17540510.500000,9661913.900000 17539600.400000,9662503.600000 17537468.500000,9664410.700000 17534493.400000,9667287.700000 17532838.100000,9668950.900000 17524683.000000,9675791.000000 17514843.500000,9681645.800000 17503800.900000,9686330.400000 17492036.600000,9689659.800000 17480032.200000,9691449.300000 17473577.200000,9691710.200000 17461842.300000,9690813.000000 17450767.000000,9688235.000000 17440627.900000,9684125.000000 17431701.400000,9678631.700000 17424264.000000,9671903.800000 17418592.300000,9664090.300000 17417189.300000,9661371.900000 17413416.100000,9650908.700000 17411039.700000,9638686.600000 17410050.900000,9624778.400000 17410312.600000,9614350.000000 17415548.300000,9614350.000000 17415665.100000,9629405.600000 17417055.300000,9641629.000000 17419252.100000,9651292.700000 17422256.400000,9659187.200000 17426288.600000,9665776.500000 17430999.400000,9670994.200000 17439271.900000,9677411.800000 17448627.400000,9681981.900000 17459207.200000,9684749.500000 17471153.000000,9685759.700000 17477018.900000,9685652.600000 17491196.500000,9684066.500000 17503961.000000,9680695.500000 17515283.400000,9675550.600000 17525134.400000,9668642.700000 17526969.400000,9667009.800000 17531428.700000,9662726.800000 17534255.300000,9659479.500000 17535618.700000,9656860.000000 17535688.800000,9654460.500000 17534635.000000,9651873.400000 17533828.700000,9650522.600000 17531133.800000,9645894.400000 17527791.600000,9639593.000000 17524028.100000,9632082.500000 17520069.700000,9623827.200000 17516142.600000,9615291.200000 17512472.900000,9606938.700000 17511676.100000,9605061.900000 17507936.700000,9595713.900000 17503842.900000,9584652.900000 17499532.100000,9572316.600000 17495141.600000,9559143.000000 17490808.800000,9545569.800000 17486671.100000,9532034.900000 17482865.900000,9518976.300000 17479530.600000,9506831.700000 17476802.500000,9496039.000000 17475131.700000,9488585.900000 17473756.500000,9481928.000000 17479091.900000,9481928.000000 17479220.900000,9482484.100000 17479703.200000,9484282.100000 17480623.700000,9487868.600000 17481867.300000,9492790.400000 17483319.300000,9498594.200000 17483978.400000,9501245.400000 17490589.400000,9526310.000000 17497651.300000,9550096.200000 17505117.200000,9572511.600000 17512940.100000,9593464.100000 17521072.900000,9612861.400000 17529468.900000,9630611.300000 17538081.000000,9646621.600000 17546862.300000,9660800.100000 17555765.900000,9673054.500000 17564744.700000,9683292.700000 17573751.800000,9691422.300000 17582740.400000,9697351.100000 17584194.000000,9698099.400000 17588869.600000,9700282.900000 17592723.700000,9701653.200000 17596698.700000,9702447.500000 17601736.800000,9702902.700000 17603740.400000,9703016.100000 17616060.400000,9702518.400000 17628190.700000,9699767.500000 17640008.700000,9694818.200000 17651392.100000,9687725.400000 17662218.400000,9678543.900000 17665306.400000,9675425.000000 17674489.000000,9664536.000000 17681868.300000,9653126.300000 17687371.500000,9641411.300000 17690925.700000,9629606.400000 17692457.900000,9617926.800000 17691895.200000,9606588.100000 17690656.200000,9600536.400000 17686596.800000,9589331.000000 17680315.400000,9577873.600000 17671878.400000,9566220.600000 17661352.400000,9554428.300000 17648803.600000,9542553.300000 17634298.600000,9530652.000000 17617903.700000,9518780.700000 17599685.400000,9506996.000000 17579710.100000,9495354.200000 17558044.200000,9483911.800000 17546960.900000,9478457.500000 17526826.400000,9468771.500000 17515875.600000,9472402.800000 17509145.900000,9474494.000000 17502073.400000,9476452.700000 17495198.000000,9478151.100000 17489059.900000,9479461.800000 17484198.900000,9480257.100000 17481869.900000,9480438.600000 17479584.500000,9480763.800000 17479091.900000,9481928.000000 17473756.500000,9481928.000000 17473694.000000,9481625.200000 17448782.600000,9482195.400000 17446918.900000,9486813.600000 17444177.800000,9493948.400000 17441043.600000,9502672.400000 17437731.500000,9512347.300000 17434457.100000,9522335.000000 17431435.600000,9531997.200000 17429688.200000,9537873.500000 17423974.500000,9559329.100000 17419709.200000,9579260.900000 17416898.300000,9597618.200000 17415548.300000,9614350.000000 17410312.600000,9614350.000000 17410440.400000,9609256.600000 17412198.900000,9592194.000000 17415317.100000,9573663.300000 17419785.800000,9553737.200000 17425595.600000,9532488.300000 17432737.400000,9509989.300000 17438695.400000,9493066.300000 17442743.600000,9482000.800000 17428142.200000,9479586.600000 17417985.100000,9477352.800000 17454527.200000,9477352.800000 17466971.300000,9476640.800000 17473694.000000,9476054.700000 17474610.500000,9475974.700000 17483237.500000,9474853.500000 17492003.600000,9473414.700000 17500060.000000,9471796.100000 17505904.500000,9470327.600000 17509368.100000,9469329.300000 17509368.100000,9349200.300000 17534597.200000,9349200.300000 17534665.900000,9353463.600000 17534887.300000,9361284.800000 17535215.900000,9367405.000000 17535720.900000,9372432.100000 17536471.400000,9376973.900000 17537536.600000,9381638.300000 17538133.300000,9383924.800000 17542759.100000,9398028.000000 17548650.600000,9410799.000000 17555671.200000,9422125.500000 17563684.100000,9431895.200000 17572552.500000,9439996.000000 17582139.900000,9446315.500000 17592309.400000,9450741.600000 17602924.300000,9453161.900000 17613848.000000,9453464.300000 17621504.600000,9452377.000000 17632622.000000,9448855.700000 17643068.700000,9443238.200000 17652716.400000,9435672.600000 17661436.500000,9426307.400000 17669100.300000,9415290.700000 17675579.400000,9402770.900000 17680745.200000,9388896.200000 17682734.300000,9381743.500000 17683962.700000,9376565.100000 17684828.300000,9372099.800000 17685392.900000,9367729.000000 17685718.000000,9362834.500000 17685865.200000,9356797.800000 17685896.500000,9350000.000000 17685854.600000,9342417.200000 17685687.900000,9336522.200000 17685335.100000,9331694.500000 17684734.600000,9327313.800000 17683825.100000,9322759.600000 17682753.600000,9318250.000000 17678292.000000,9303780.600000 17672446.700000,9290592.200000 17665346.600000,9278833.200000 17657120.200000,9268651.800000 17647896.200000,9260196.500000 17637803.200000,9253615.600000 17626969.800000,9249057.400000 17621504.600000,9247623.000000 17610458.100000,9246404.000000 17599590.800000,9247384.600000 17589050.200000,9250455.400000 17578983.400000,9255507.100000 17569537.900000,9262430.400000 17560860.900000,9271116.000000 17553099.800000,9281454.400000 17546401.700000,9293336.500000 17540914.100000,9306652.800000 17540557.700000,9307699.700000 17538109.100000,9315685.200000 17536369.700000,9323199.800000 17535258.500000,9330871.500000 17534694.700000,9339329.000000 17534597.200000,9349200.300000 17509368.100000,9349200.300000 17509368.100000,9230569.600000 17498977.200000,9227973.200000 17490152.300000,9226089.000000 17480446.900000,9224549.900000 17470826.000000,9223482.000000 17462254.900000,9223011.500000 17460922.700000,9223000.000000 17454527.200000,9223000.000000 17454527.200000,9477352.800000 17417985.100000,9477352.800000 17408664.600000,9475303.000000 17390405.300000,9469076.400000 17373270.700000,9460864.000000 17357167.100000,9450623.100000 17346577.200000,9442325.800000 17338004.800000,9434103.300000 17344845.400000,9434103.300000 17350906.800000,9439244.100000 17356780.400000,9443843.000000 17363701.500000,9448650.200000 17371192.900000,9453388.800000 17378776.900000,9457781.900000 17385976.200000,9461552.300000 17392313.300000,9464423.300000 17397174.500000,9466084.100000 17400263.600000,9466859.400000 17400263.600000,9350125.100000 17400258.400000,9330435.600000 17400241.700000,9312943.000000 17400212.200000,9297535.200000 17400168.400000,9284100.000000 17400109.100000,9272525.400000 17400032.900000,9262699.100000 17399938.200000,9254509.000000 17399823.800000,9247843.000000 17399688.300000,9242588.900000 17399530.200000,9238634.700000 17399348.300000,9235868.100000 17399141.000000,9234177.100000 17398907.000000,9233449.400000 17398820.400000,9233401.500000 17396930.400000,9233937.200000 17393470.000000,9235381.900000 17388881.300000,9237512.600000 17383606.600000,9240106.700000 17378088.200000,9242941.200000 17372768.400000,9245793.400000 17368089.400000,9248440.500000 17364493.400000,9250659.700000 17364281.500000,9250801.500000 17359556.200000,9254142.100000 17354563.700000,9257912.800000 17350906.800000,9260864.600000 17344845.400000,9265998.700000 17344845.400000,9434103.300000 17338004.800000,9434103.300000 17335272.100000,9431482.200000 17325323.500000,9419385.700000 17316941.900000,9406382.200000 17310337.800000,9392817.500000 17305721.600000,9379037.400000 17304366.600000,9372953.100000 17303606.900000,9368954.600000 17302989.400000,9365822.600000 17302674.500000,9364351.400000 17301503.100000,9363568.800000 17298550.300000,9362358.400000 17294266.100000,9360887.300000 17289254.800000,9359366.700000 17283363.500000,9357680.900000 17277621.900000,9356037.600000 17272774.300000,9354650.000000 17270088.600000,9353881.100000 17266306.800000,9352562.800000 17264427.100000,9351225.800000 17264027.200000,9350000.000000 17264691.700000,9348471.200000 17266948.600000,9347159.600000 17270088.600000,9346118.900000 17273719.300000,9345079.400000 17278825.700000,9343617.800000 17284663.600000,9341947.100000 17289254.800000,9340633.300000 17294401.800000,9339068.900000 17298654.500000,9337602.900000 17301562.900000,9336402.300000 17302674.500000,9335648.500000 17303038.500000,9333934.400000 17303676.000000,9330687.000000 17304366.600000,9327046.900000 17308034.900000,9313281.400000 17313784.600000,9299578.100000 17321405.300000,9286282.500000 17330686.700000,9273740.400000 17341418.500000,9262297.400000 17346577.200000,9257673.100000 17361967.000000,9246097.000000 17378543.600000,9236474.300000 17396337.800000,9228791.700000 17398820.400000,9228041.400000 17415380.500000,9223036.000000 17435702.700000,9219194.100000 17437426.100000,9218963.700000 17442838.600000,9218261.800000 17438711.800000,9207065.000000 17431697.100000,9187013.500000 17425581.500000,9167424.100000 17420405.600000,9148500.000000 17416210.200000,9130444.500000 17413036.100000,9113460.700000 17410924.000000,9097752.100000 17409914.700000,9083521.700000 17410018.900000,9073775.600000 17415539.700000,9073775.600000 17415593.600000,9087159.200000 17416757.000000,9101330.900000 17417041.500000,9103602.200000 17420543.200000,9124784.000000 17425662.100000,9147367.500000 17432347.700000,9171157.200000 17440549.900000,9195957.500000 17441601.800000,9198903.800000 17448285.000000,9217480.900000 17460922.700000,9217907.900000 17473577.200000,9218335.500000 17473649.900000,9218021.200000 17479715.900000,9218021.200000 17479769.900000,9218466.900000 17481157.000000,9218947.500000 17484284.400000,9219697.700000 17488616.600000,9220595.200000 17491472.700000,9221135.600000 17497607.600000,9222446.200000 17504732.500000,9224253.400000 17511672.400000,9226250.200000 17514411.800000,9227125.600000 17526382.700000,9231109.300000 17526826.400000,9230907.800000 17538080.000000,9225795.100000 17559609.500000,9215503.200000 17579888.300000,9204782.400000 17598817.200000,9193714.900000 17616297.000000,9182382.800000 17632228.600000,9170868.200000 17646512.700000,9159253.200000 17659050.200000,9147620.000000 17669741.800000,9136050.600000 17678488.500000,9124627.300000 17685190.900000,9113432.000000 17689750.000000,9102547.000000 17690656.200000,9099463.600000 17692409.900000,9088406.200000 17692028.400000,9076888.700000 17689584.600000,9065126.600000 17685151.400000,9053335.200000 17678801.700000,9041729.900000 17670608.400000,9030526.000000 17665306.400000,9024575.000000 17654648.200000,9014771.700000 17643380.300000,9007043.200000 17631623.900000,9001444.100000 17619500.100000,8998029.000000 17607130.200000,8996852.500000 17603960.600000,8996916.900000 17598470.900000,8997255.900000 17594343.200000,8997863.500000 17590630.800000,8998976.400000 17586386.600000,9000831.500000 17584359.700000,9001818.600000 17575170.500000,9007497.300000 17565983.100000,9015417.100000 17556836.500000,9025510.500000 17547770.100000,9037709.900000 17538822.900000,9051947.600000 17530034.100000,9068156.000000 17521442.900000,9086267.600000 17513088.400000,9106214.800000 17505009.900000,9127929.800000 17497246.500000,9151345.200000 17496683.600000,9153150.000000 17494601.300000,9160034.800000 17492390.500000,9167658.100000 17490131.600000,9175709.700000 17487904.900000,9183879.600000 17485790.600000,9191857.900000 17483869.100000,9199334.300000 17482220.500000,9205998.900000 17480925.300000,9211541.600000 17480063.600000,9215652.400000 17479715.900000,9218021.200000 17473649.900000,9218021.200000 17476310.500000,9206524.600000 17477959.000000,9199820.300000 17480172.700000,9191426.300000 17482805.300000,9181849.200000 17485709.900000,9171596.000000 17488740.200000,9161173.300000 17491749.300000,9151088.100000 17494590.800000,9141847.000000 17497118.000000,9133956.900000 17498430.400000,9130059.100000 17502882.500000,9117681.800000 17507727.000000,9105101.500000 17512796.500000,9092701.600000 17517923.300000,9080865.500000 17522939.900000,9069976.500000 17527678.800000,9060418.000000 17531972.500000,9052573.500000 17533144.600000,9050618.500000 17535009.100000,9047285.300000 17535764.200000,9044647.000000 17535264.300000,9042187.400000 17533363.700000,9039390.400000 17529916.800000,9035739.700000 17528571.800000,9034413.000000 17519087.200000,9026728.300000 17508197.400000,9020864.200000 17495932.700000,9016832.500000 17482323.400000,9014645.300000 17477618.100000,9014333.600000 17467916.400000,9014262.600000 17459607.200000,9015094.900000 17451904.600000,9016968.600000 17444022.500000,9020021.700000 17443267.400000,9020363.600000 17436553.600000,9024373.000000 17430223.200000,9029846.600000 17424940.900000,9036127.900000 17421788.600000,9041573.800000 17418661.800000,9050661.000000 17416570.600000,9061502.200000 17415539.700000,9073775.600000 17410018.900000,9073775.600000 17410048.900000,9070972.900000 17410465.600000,9066168.600000 17412436.200000,9053791.000000 17415387.500000,9043339.100000 17419455.000000,9034589.700000 17424774.100000,9027319.700000 17431480.200000,9021305.900000 17439708.600000,9016325.300000 17441141.800000,9015625.400000 17451887.700000,9011430.500000 17462789.000000,9009105.800000 17467916.400000,9008852.500000 17474510.600000,9008526.600000 17478195.400000,9008669.300000 17491932.100000,9010386.800000 17504794.800000,9013881.200000 17516516.000000,9019042.700000 17526828.400000,9025761.500000 17532838.100000,9031101.500000 17536094.100000,9034310.000000 17538689.900000,9036720.800000 17540244.800000,9037987.300000 17540510.500000,9038086.100000 17541309.100000,9037050.000000 17543167.800000,9034571.100000 17545776.200000,9031064.600000 17547756.200000,9028391.100000 17553879.700000,9020726.900000 17560590.000000,9013388.200000 17567414.600000,9006839.500000 17573881.600000,9001545.300000 17577585.200000,8999047.800000 17587473.900000,8994373.100000 17598018.000000,8991770.600000 17607130.200000,8991271.000000 17609017.400000,8991167.500000 17620272.300000,8992490.900000 17631582.800000,8995668.100000 17642748.800000,9000626.400000 17653570.600000,9007292.900000 17663848.100000,9015594.800000 17673381.500000,9025459.500000 17681970.900000,9036814.200000 17682172.900000,9037118.200000 17689455.900000,9049646.900000 17694528.100000,9061954.600000 17697379.700000,9074101.900000 17698000.900000,9086149.100000 17696382.000000,9098156.800000 17692513.100000,9110185.400000 17686384.500000,9122295.400000 17677986.200000,9134547.200000 17667308.700000,9147001.300000 17663772.600000,9150671.500000 17651449.600000,9162333.600000 17637806.700000,9173641.000000 17622666.700000,9184712.200000 17605852.700000,9195666.100000 17587187.500000,9206621.400000 17566494.200000,9217696.800000 17555799.100000,9223085.500000 17532957.400000,9234387.500000 17541944.600000,9239070.900000 17547377.500000,9242150.500000 17553394.100000,9245941.300000 17558796.900000,9249684.500000 17559378.800000,9250118.400000 17567825.900000,9256482.500000 17571501.600000,9253724.900000 17581112.200000,9247896.700000 17591891.000000,9243806.200000 17603307.700000,9241626.700000 17609493.400000,9241305.500000 17610458.100000,9241345.900000 17617989.100000,9241661.500000 Z"/> 
<path style="fill-opacity: 1.0;stroke-width: 1000.000000;stroke-opacity: 1;stroke-linecap: round;stroke-linejoin: round;fill-rule: evenodd" d="M 17798683.800000,9311759.800000 17803118.200000,9312553.700000 17808178.900000,9313613.400000 17813347.400000,9314820.600000 17818105.400000,9316056.400000 17821934.500000,9317202.500000 17824316.400000,9318140.100000 17824834.300000,9318551.000000 17824994.600000,9320489.900000 17823498.600000,9321454.500000 17820186.600000,9321477.400000 17814898.600000,9320591.300000 17814873.800000,9320586.100000 17810718.500000,9319732.700000 17807487.100000,9319107.600000 17805806.000000,9318831.300000 17805734.200000,9318827.300000 17806300.300000,9319604.900000 17808297.800000,9321794.200000 17811519.600000,9325179.800000 17815758.600000,9329546.100000 17820807.700000,9334677.900000 17825725.600000,9339624.900000 17846495.400000,9360422.400000 17847072.700000,9341659.200000 17847325.700000,9334502.000000 17847601.700000,9329345.000000 17847938.300000,9325879.400000 17848373.000000,9323796.200000 17848943.600000,9322786.600000 17849400.000000,9322560.800000 17850546.000000,9323279.300000 17853083.500000,9325434.100000 17856792.700000,9328807.700000 17861453.800000,9333182.600000 17866846.700000,9338341.500000 17872751.600000,9344066.700000 17878948.600000,9350140.800000 17885217.700000,9356346.400000 17891339.200000,9362466.000000 17897093.000000,9368282.000000 17902259.300000,9373577.100000 17906618.100000,9378133.700000 17909949.600000,9381734.500000 17912033.900000,9384161.800000 17912657.100000,9385119.300000 17912793.200000,9386676.800000 17912253.300000,9387309.900000 17910919.900000,9386922.400000 17908675.700000,9385418.400000 17905403.100000,9382701.600000 17900984.800000,9378676.000000 17895303.300000,9373245.500000 17888241.300000,9366314.000000 17881578.100000,9359682.700000 17852845.400000,9330967.300000 17852845.400000,9350874.600000 17852827.600000,9358115.300000 17852753.000000,9363362.900000 17852589.500000,9366933.300000 17852305.400000,9369142.400000 17851868.800000,9370305.900000 17851247.700000,9370739.700000 17850835.000000,9370781.800000 17849533.500000,9369992.200000 17846835.800000,9367759.800000 17842963.800000,9364289.000000 17838139.300000,9359784.400000 17832584.300000,9354450.500000 17826520.600000,9348491.900000 17824857.800000,9346835.300000 17817185.100000,9339232.500000 17811041.600000,9333286.900000 17806386.900000,9328962.000000 17803180.900000,9326221.300000 17801383.000000,9325028.400000 17800931.400000,9325187.600000 17801189.000000,9327505.800000 17801816.800000,9331196.800000 17802516.100000,9334683.000000 17803301.300000,9338748.400000 17803473.200000,9341187.600000 17803025.400000,9342602.600000 17802426.600000,9343235.400000 17801187.000000,9343942.900000 17800131.300000,9343619.500000 17799144.700000,9342007.100000 17798112.200000,9338847.700000 17796919.200000,9333883.400000 17795713.900000,9328154.200000 17794439.700000,9321877.200000 17793581.600000,9317497.700000 17793097.000000,9314650.100000 17792943.300000,9312968.700000 17793077.900000,9312088.100000 17793458.300000,9311642.600000 17793767.100000,9311444.200000 17795393.900000,9311350.500000 Z"/> 
<path style="fill-opacity: 1.0;stroke-width: 1000.000000;stroke-opacity: 1;stroke-linecap: round;stroke-linejoin: round;fill-rule: evenodd" d="M 17636945.400000,9308436.400000 17582681.800000,9308436.400000 17582681.800000,9298045.400000 17636945.400000,9298045.400000 Z"/> 
<path style="fill-opacity: 1.0;stroke-width: 1000.000000;stroke-opacity: 1;stroke-linecap: round;stroke-linejoin: round;fill-rule: evenodd" d="M 17636945.400000,9400800.000000 17582681.800000,9400800.000000 17582681.800000,9390409.100000 17636945.400000,9390409.100000 Z"/> 
</g>
<g style="fill-opacity: 0.0;stroke-width: 12000.000000;stroke-opacity: 1;stroke-linecap: round;stroke-linejoin: round">
<path d="M17344000 9504000 L17344000 10101000 "/>
<path d="M17344000 10101000 L18606000 10101000 "/>
<path d="M18606000 10101000 L18606000 9504000 "/>
<path d="M18606000 9504000 L17344000 9504000 "/>
<path d="M17675000 9505000 L17675000 9580000 "/>
<path d="M17675000 9580000 L18275000 9580000 "/>
<path d="M18275000 9580000 L18275000 9505000 "/>
<path d="M18275000 9505000 L17675000 9505000 "/>
<path d="M17345000 9505000 L17345000 9580000 "/>
<path d="M17345000 9580000 L17525000 9580000 "/>
<path d="M17525000 9580000 L17525000 9505000 "/>
<path d="M17525000 9505000 L17345000 9505000 "/>
<path d="M18425000 9505000 L18425000 9580000 "/>
<path d="M18425000 9580000 L18605000 9580000 "/>
<path d="M18605000 9580000 L18605000 9505000 "/>
<path d="M18605000 9505000 L18425000 9505000 "/>
<path d="M17345000 9730000 L17420000 9730000 "/>
<path d="M17420000 9730000 L17420000 10025000 "/>
<path d="M17420000 10025000 L17975000 10025000 "/>
<path d="M18605000 9730000 L18530000 9730000 "/>
<path d="M18530000 9730000 L18530000 10025000 "/>
<path d="M18530000 10025000 L17975000 10025000 "/>
<path d="M17440000 9475000 L17315000 9475000 "/>
<path d="M17315000 9475000 L17315000 9600000 "/>
</g> 
</g><g id="substrate-outline" style="fill:#000000; stroke:#000000; stroke-width: 15000.0"><g style="fill-opacity: 0.0;stroke-opacity: 1;stroke-linecap: round;stroke-linejoin: round">
<path d="M18700000 8950000 L17250000 8950000 "/>
<path d="M18700000 10200000 L18700000 8950000 "/>
<path d="M17250000 10200000 L18700000 10200000 "/>
<path d="M17250000 8950000 L17250000 10200000 "/>
</g> 
<path d="M -40000.0 0.0 A 40000.0 40000.0 0 1 1 40000.0 0.0 L 40000.0 -0.0 A 40000.0 40000.0 0 1 1 -40000.0 -0.0 Z" transform="translate(18250000.0 9350000.0) rotate(-0.0)"/><path d="M -40000.0 0.0 A 40000.0 40000.0 0 1 1 40000.0 0.0 L 40000.0 -0.0 A 40000.0 40000.0 0 1 1 -40000.0 -0.0 Z" transform="translate(18050000.0 9350000.0) rotate(-0.0)"/><path d="M -40000.0 0.0 A 40000.0 40000.0 0 1 1 40000.0 0.0 L 40000.0 -0.0 A 40000.0 40000.0 0 1 1 -40000.0 -0.0 Z" transform="translate(17850000.0 9350000.0) rotate(-0.0)"/><path d="M -40000.0 0.0 A 40000.0 40000.0 0 1 1 40000.0 0.0 L 40000.0 -0.0 A 40000.0 40000.0 0 1 1 -40000.0 -0.0 Z" transform="translate(17650000.0 9350000.0) rotate(-0.0)"/><path d="M -47500.0 0.0 A 47500.0 47500.0 0 1 1 47500.0 0.0 L 47500.0 -0.0 A 47500.0 47500.0 0 1 1 -47500.0 -0.0 Z" transform="translate(18350000.0 9750000.0) rotate(-0.0)"/><path d="M -47500.0 0.0 A 47500.0 47500.0 0 1 1 47500.0 0.0 L 47500.0 -0.0 A 47500.0 47500.0 0 1 1 -47500.0 -0.0 Z" transform="translate(18100000.0 9750000.0) rotate(-0.0)"/><path d="M -47500.0 0.0 A 47500.0 47500.0 0 1 1 47500.0 0.0 L 47500.0 -0.0 A 47500.0 47500.0 0 1 1 -47500.0 -0.0 Z" transform="translate(17850000.0 9750000.0) rotate(-0.0)"/><path d="M -47500.0 0.0 A 47500.0 47500.0 0 1 1 47500.0 0.0 L 47500.0 -0.0 A 47500.0 47500.0 0 1 1 -47500.0 -0.0 Z" transform="translate(17600000.0 9750000.0) rotate(-0.0)"/></g></g></g></svg>