<!DOCTYPE svg PUBLIC "-//W3C//DTD SVG 1.1//EN" "http://www.w3.org/Graphics/SVG/1.1/DTD/svg11.dtd">
<svg xmlns="http://www.w3.org/2000/svg" version="1.1" width="82.0mm" height="43.64mm" viewBox="11700000.0 5136000.0 8200000.0 4364000.0">
            <title>Picture generated by PcbDraw </title>
            <desc>Picture generated by PcbDraw</desc>
        <defs><clipPath id="cut-off"><path d=" M 19800000.0 9400000.0 L 11800000.0 9400000.0 L 11800000.0 5400000.0 L 19800000.0 5400000.0 L 19800000.0 9400000.0 " style="fill-rule: evenodd;"/></clipPath><mask id="pads-mask"><g style="fill:#ffffff; fill-opacity:0.0;  stroke:#ffffff; stroke-width:0.000000; stroke-opacity:1;  stroke-linecap:round; stroke-linejoin:round;">
<g style="fill:#ffffff; fill-opacity:1.0;  stroke:#ffffff; stroke-width:0.100000; stroke-opacity:1;  stroke-linecap:round; stroke-linejoin:round;">
<circle cx="19212000.000000" cy="5730000.000000" r="110000.000000"/> 
</g>
<g style="fill:#ffffff; fill-opacity:1.0;  stroke:#ffffff; stroke-width:0.100000; stroke-opacity:1;  stroke-linecap:round; stroke-linejoin:round;">
<circle cx="19466000.000000" cy="6238000.000000" r="110000.000000"/> 
</g>
<g style="fill:#ffffff; fill-opacity:1.0;  stroke:#ffffff; stroke-width:0.100000; stroke-opacity:1;  stroke-linecap:round; stroke-linejoin:round;">
<circle cx="19212000.000000" cy="7000000.000000" r="110000.000000"/> 
</g>
<g style="fill:#ffffff; fill-opacity:1.0;  stroke:#ffffff; stroke-width:0.100000; stroke-opacity:1;  stroke-linecap:round; stroke-linejoin:round;">
<circle cx="18196000.000000" cy="5730000.000000" r="110000.000000"/> 
</g>
<g style="fill:#ffffff; fill-opacity:1.0;  stroke:#ffffff; stroke-width:0.100000; stroke-opacity:1;  stroke-linecap:round; stroke-linejoin:round;">
<circle cx="18450000.000000" cy="6238000.000000" r="110000.000000"/> 
</g>
<g style="fill:#ffffff; fill-opacity:1.0;  stroke:#ffffff; stroke-width:0.100000; stroke-opacity:1;  stroke-linecap:round; stroke-linejoin:round;">
<circle cx="18196000.000000" cy="7000000.000000" r="110000.000000"/> 
</g>
<g style="fill:#ffffff; fill-opacity:1.0;  stroke:#ffffff; stroke-width:0.100000; stroke-opacity:1;  stroke-linecap:round; stroke-linejoin:round;">
<circle cx="16180000.000000" cy="5730000.000000" r="110000.000000"/> 
</g>
<g style="fill:#ffffff; fill-opacity:1.0;  stroke:#ffffff; stroke-width:0.100000; stroke-opacity:1;  stroke-linecap:round; stroke-linejoin:round;">
<circle cx="16434000.000000" cy="6238000.000000" r="110000.000000"/> 
</g>
<g style="fill:#ffffff; fill-opacity:1.0;  stroke:#ffffff; stroke-width:0.100000; stroke-opacity:1;  stroke-linecap:round; stroke-linejoin:round;">
<circle cx="16180000.000000" cy="7000000.000000" r="110000.000000"/> 
</g>
<g style="fill:#ffffff; fill-opacity:1.0;  stroke:#ffffff; stroke-width:0.100000; stroke-opacity:1;  stroke-linecap:round; stroke-linejoin:round;">
<circle cx="17180000.000000" cy="5730000.000000" r="110000.000000"/> 
</g>
<g style="fill:#ffffff; fill-opacity:1.0;  stroke:#ffffff; stroke-width:0.100000; stroke-opacity:1;  stroke-linecap:round; stroke-linejoin:round;">
<circle cx="17434000.000000" cy="6238000.000000" r="110000.000000"/> 
</g>
<g style="fill:#ffffff; fill-opacity:1.0;  stroke:#ffffff; stroke-width:0.100000; stroke-opacity:1;  stroke-linecap:round; stroke-linejoin:round;">
<circle cx="17180000.000000" cy="7000000.000000" r="110000.000000"/> 
</g>
<g style="fill:#ffffff; fill-opacity:1.0;  stroke:#ffffff; stroke-width:0.100000; stroke-opacity:1;  stroke-linecap:round; stroke-linejoin:round;">
<circle cx="17430000.000000" cy="8950000.000000" r="80000.000000"/> 
</g>
<g style="fill:#ffffff; fill-opacity:1.0;  stroke:#ffffff; stroke-width:0.100000; stroke-opacity:1;  stroke-linecap:round; stroke-linejoin:round;">
<circle cx="17230000.000000" cy="8950000.000000" r="80000.000000"/> 
</g>
<g style="fill:#ffffff; fill-opacity:1.0;  stroke:#ffffff; stroke-width:0.100000; stroke-opacity:1;  stroke-linecap:round; stroke-linejoin:round;">
<circle cx="17030000.000000" cy="8950000.000000" r="80000.000000"/> 
</g>
<g style="fill:#ffffff; fill-opacity:1.0;  stroke:#ffffff; stroke-width:0.100000; stroke-opacity:1;  stroke-linecap:round; stroke-linejoin:round;">
<circle cx="16830000.000000" cy="8950000.000000" r="80000.000000"/> 
</g>
<g style="fill:#ffffff; fill-opacity:1.0;  stroke:#ffffff; stroke-width:0.100000; stroke-opacity:1;  stroke-linecap:round; stroke-linejoin:round;">
<circle cx="17430000.000000" cy="8750000.000000" r="80000.000000"/> 
</g>
<g style="fill:#ffffff; fill-opacity:1.0;  stroke:#ffffff; stroke-width:0.100000; stroke-opacity:1;  stroke-linecap:round; stroke-linejoin:round;">
<circle cx="17230000.000000" cy="8750000.000000" r="80000.000000"/> 
</g>
<g style="fill:#ffffff; fill-opacity:1.0;  stroke:#ffffff; stroke-width:0.100000; stroke-opacity:1;  stroke-linecap:round; stroke-linejoin:round;">
<circle cx="17030000.000000" cy="8750000.000000" r="80000.000000"/> 
</g>
<g style="fill:#ffffff; fill-opacity:1.0;  stroke:#ffffff; stroke-width:0.100000; stroke-opacity:1;  stroke-linecap:round; stroke-linejoin:round;">
<path style="fill:#ffffff; fill-opacity:1.0;  stroke:#ffffff; stroke-width:0.100000; stroke-opacity:1;  stroke-linecap:round; stroke-linejoin:round;fill-rule:evenodd;" d="M 16750000.000000,8690000.000000 16751522.400000,8682346.300000 16755857.900000,8675857.900000 16762346.300000,8671522.400000 16770000.000000,8670000.000000 16890000.000000,8670000.000000 16897653.700000,8671522.400000 16904142.100000,8675857.900000 16908477.600000,8682346.300000 16910000.000000,8690000.000000 16910000.000000,8810000.000000 16908477.600000,8817653.700000 16904142.100000,8824142.100000 16897653.700000,8828477.600000 16890000.000000,8830000.000000 16770000.000000,8830000.000000 16762346.300000,8828477.600000 16755857.900000,8824142.100000 16751522.400000,8817653.700000 16750000.000000,8810000.000000 Z"/> 
</g>
<g style="fill:#ffffff; fill-opacity:1.0;  stroke:#ffffff; stroke-width:0.100000; stroke-opacity:1;  stroke-linecap:round; stroke-linejoin:round;">
<circle cx="14860000.000000" cy="8950000.000000" r="80000.000000"/> 
</g>
<g style="fill:#ffffff; fill-opacity:1.0;  stroke:#ffffff; stroke-width:0.100000; stroke-opacity:1;  stroke-linecap:round; stroke-linejoin:round;">
<circle cx="14660000.000000" cy="8950000.000000" r="80000.000000"/> 
</g>
<g style="fill:#ffffff; fill-opacity:1.0;  stroke:#ffffff; stroke-width:0.100000; stroke-opacity:1;  stroke-linecap:round; stroke-linejoin:round;">
<circle cx="14460000.000000" cy="8950000.000000" r="80000.000000"/> 
</g>
<g style="fill:#ffffff; fill-opacity:1.0;  stroke:#ffffff; stroke-width:0.100000; stroke-opacity:1;  stroke-linecap:round; stroke-linejoin:round;">
<circle cx="14260000.000000" cy="8950000.000000" r="80000.000000"/> 
</g>
<g style="fill:#ffffff; fill-opacity:1.0;  stroke:#ffffff; stroke-width:0.100000; stroke-opacity:1;  stroke-linecap:round; stroke-linejoin:round;">
<circle cx="14860000.000000" cy="8750000.000000" r="80000.000000"/> 
</g>
<g style="fill:#ffffff; fill-opacity:1.0;  stroke:#ffffff; stroke-width:0.100000; stroke-opacity:1;  stroke-linecap:round; stroke-linejoin:round;">
<circle cx="14660000.000000" cy="8750000.000000" r="80000.000000"/> 
</g>
<g style="fill:#ffffff; fill-opacity:1.0;  stroke:#ffffff; stroke-width:0.100000; stroke-opacity:1;  stroke-linecap:round; stroke-linejoin:round;">
<circle cx="14460000.000000" cy="8750000.000000" r="80000.000000"/> 
</g>
<g style="fill:#ffffff; fill-opacity:1.0;  stroke:#ffffff; stroke-width:0.100000; stroke-opacity:1;  stroke-linecap:round; stroke-linejoin:round;">
<path style="fill:#ffffff; fill-opacity:1.0;  stroke:#ffffff; stroke-width:0.100000; stroke-opacity:1;  stroke-linecap:round; stroke-linejoin:round;fill-rule:evenodd;" d="M 14180000.000000,8690000.000000 14181522.400000,8682346.300000 14185857.900000,8675857.900000 14192346.300000,8671522.400000 14200000.000000,8670000.000000 14320000.000000,8670000.000000 14327653.700000,8671522.400000 14334142.100000,8675857.900000 14338477.600000,8682346.300000 14340000.000000,8690000.000000 14340000.000000,8810000.000000 14338477.600000,8817653.700000 14334142.100000,8824142.100000 14327653.700000,8828477.600000 14320000.000000,8830000.000000 14200000.000000,8830000.000000 14192346.300000,8828477.600000 14185857.900000,8824142.100000 14181522.400000,8817653.700000 14180000.000000,8810000.000000 Z"/> 
</g>
<g style="fill:#ffffff; fill-opacity:1.0;  stroke:#ffffff; stroke-width:0.100000; stroke-opacity:1;  stroke-linecap:round; stroke-linejoin:round;">
<circle cx="12100000.000000" cy="5730000.000000" r="110000.000000"/> 
</g>
<g style="fill:#ffffff; fill-opacity:1.0;  stroke:#ffffff; stroke-width:0.100000; stroke-opacity:1;  stroke-linecap:round; stroke-linejoin:round;">
<circle cx="12354000.000000" cy="6238000.000000" r="110000.000000"/> 
</g>
<g style="fill:#ffffff; fill-opacity:1.0;  stroke:#ffffff; stroke-width:0.100000; stroke-opacity:1;  stroke-linecap:round; stroke-linejoin:round;">
<circle cx="12100000.000000" cy="7000000.000000" r="110000.000000"/> 
</g>
<g style="fill:#ffffff; fill-opacity:1.0;  stroke:#ffffff; stroke-width:0.100000; stroke-opacity:1;  stroke-linecap:round; stroke-linejoin:round;">
<circle cx="13116000.000000" cy="7000000.000000" r="110000.000000"/> 
</g>
<g style="fill:#ffffff; fill-opacity:1.0;  stroke:#ffffff; stroke-width:0.100000; stroke-opacity:1;  stroke-linecap:round; stroke-linejoin:round;">
<circle cx="13370000.000000" cy="6238000.000000" r="110000.000000"/> 
</g>
<g style="fill:#ffffff; fill-opacity:1.0;  stroke:#ffffff; stroke-width:0.100000; stroke-opacity:1;  stroke-linecap:round; stroke-linejoin:round;">
<circle cx="13116000.000000" cy="5730000.000000" r="110000.000000"/> 
</g>
<g style="fill:#ffffff; fill-opacity:1.0;  stroke:#ffffff; stroke-width:0.100000; stroke-opacity:1;  stroke-linecap:round; stroke-linejoin:round;">
<circle cx="14132000.000000" cy="5730000.000000" r="110000.000000"/> 
</g>
<g style="fill:#ffffff; fill-opacity:1.0;  stroke:#ffffff; stroke-width:0.100000; stroke-opacity:1;  stroke-linecap:round; stroke-linejoin:round;">
<circle cx="14386000.000000" cy="6238000.000000" r="110000.000000"/> 
</g>
<g style="fill:#ffffff; fill-opacity:1.0;  stroke:#ffffff; stroke-width:0.100000; stroke-opacity:1;  stroke-linecap:round; stroke-linejoin:round;">
<circle cx="14132000.000000" cy="7000000.000000" r="110000.000000"/> 
</g>
<g style="fill:#ffffff; fill-opacity:1.0;  stroke:#ffffff; stroke-width:0.100000; stroke-opacity:1;  stroke-linecap:round; stroke-linejoin:round;">
<circle cx="15148000.000000" cy="7000000.000000" r="110000.000000"/> 
</g>
<g style="fill:#ffffff; fill-opacity:1.0;  stroke:#ffffff; stroke-width:0.100000; stroke-opacity:1;  stroke-linecap:round; stroke-linejoin:round;">
<circle cx="15402000.000000" cy="6238000.000000" r="110000.000000"/> 
</g>
<g style="fill:#ffffff; fill-opacity:1.0;  stroke:#ffffff; stroke-width:0.100000; stroke-opacity:1;  stroke-linecap:round; stroke-linejoin:round;">
<circle cx="15148000.000000" cy="5730000.000000" r="110000.000000"/> 
</g>
</g> 
</mask><mask id="pads-mask-silkscreen"><rect x="11790000.0" y="5217500.0" width="8020000.0" height="4192500.0" fill="white"/><g style="fill:#000000; fill-opacity:0.0;  stroke:#000000; stroke-width:0.000000; stroke-opacity:1;  stroke-linecap:round; stroke-linejoin:round;">
<g style="fill:#000000; fill-opacity:1.0;  stroke:#000000; stroke-width:0.100000; stroke-opacity:1;  stroke-linecap:round; stroke-linejoin:round;">
<circle cx="19212000.000000" cy="5730000.000000" r="110000.000000"/> 
</g>
<g style="fill:#000000; fill-opacity:1.0;  stroke:#000000; stroke-width:0.100000; stroke-opacity:1;  stroke-linecap:round; stroke-linejoin:round;">
<circle cx="19466000.000000" cy="6238000.000000" r="110000.000000"/> 
</g>
<g style="fill:#000000; fill-opacity:1.0;  stroke:#000000; stroke-width:0.100000; stroke-opacity:1;  stroke-linecap:round; stroke-linejoin:round;">
<circle cx="19212000.000000" cy="7000000.000000" r="110000.000000"/> 
</g>
<g style="fill:#000000; fill-opacity:1.0;  stroke:#000000; stroke-width:0.100000; stroke-opacity:1;  stroke-linecap:round; stroke-linejoin:round;">
<circle cx="18196000.000000" cy="5730000.000000" r="110000.000000"/> 
</g>
<g style="fill:#000000; fill-opacity:1.0;  stroke:#000000; stroke-width:0.100000; stroke-opacity:1;  stroke-linecap:round; stroke-linejoin:round;">
<circle cx="18450000.000000" cy="6238000.000000" r="110000.000000"/> 
</g>
<g style="fill:#000000; fill-opacity:1.0;  stroke:#000000; stroke-width:0.100000; stroke-opacity:1;  stroke-linecap:round; stroke-linejoin:round;">
<circle cx="18196000.000000" cy="7000000.000000" r="110000.000000"/> 
</g>
<g style="fill:#000000; fill-opacity:1.0;  stroke:#000000; stroke-width:0.100000; stroke-opacity:1;  stroke-linecap:round; stroke-linejoin:round;">
<circle cx="16180000.000000" cy="5730000.000000" r="110000.000000"/> 
</g>
<g style="fill:#000000; fill-opacity:1.0;  stroke:#000000; stroke-width:0.100000; stroke-opacity:1;  stroke-linecap:round; stroke-linejoin:round;">
<circle cx="16434000.000000" cy="6238000.000000" r="110000.000000"/> 
</g>
<g style="fill:#000000; fill-opacity:1.0;  stroke:#000000; stroke-width:0.100000; stroke-opacity:1;  stroke-linecap:round; stroke-linejoin:round;">
<circle cx="16180000.000000" cy="7000000.000000" r="110000.000000"/> 
</g>
<g style="fill:#000000; fill-opacity:1.0;  stroke:#000000; stroke-width:0.100000; stroke-opacity:1;  stroke-linecap:round; stroke-linejoin:round;">
<circle cx="17180000.000000" cy="5730000.000000" r="110000.000000"/> 
</g>
<g style="fill:#000000; fill-opacity:1.0;  stroke:#000000; stroke-width:0.100000; stroke-opacity:1;  stroke-linecap:round; stroke-linejoin:round;">
<circle cx="17434000.000000" cy="6238000.000000" r="110000.000000"/> 
</g>
<g style="fill:#000000; fill-opacity:1.0;  stroke:#000000; stroke-width:0.100000; stroke-opacity:1;  stroke-linecap:round; stroke-linejoin:round;">
<circle cx="17180000.000000" cy="7000000.000000" r="110000.000000"/> 
</g>
<g style="fill:#000000; fill-opacity:1.0;  stroke:#000000; stroke-width:0.100000; stroke-opacity:1;  stroke-linecap:round; stroke-linejoin:round;">
<circle cx="17430000.000000" cy="8950000.000000" r="80000.000000"/> 
</g>
<g style="fill:#000000; fill-opacity:1.0;  stroke:#000000; stroke-width:0.100000; stroke-opacity:1;  stroke-linecap:round; stroke-linejoin:round;">
<circle cx="17230000.000000" cy="8950000.000000" r="80000.000000"/> 
</g>
<g style="fill:#000000; fill-opacity:1.0;  stroke:#000000; stroke-width:0.100000; stroke-opacity:1;  stroke-linecap:round; stroke-linejoin:round;">
<circle cx="17030000.000000" cy="8950000.000000" r="80000.000000"/> 
</g>
<g style="fill:#000000; fill-opacity:1.0;  stroke:#000000; stroke-width:0.100000; stroke-opacity:1;  stroke-linecap:round; stroke-linejoin:round;">
<circle cx="16830000.000000" cy="8950000.000000" r="80000.000000"/> 
</g>
<g style="fill:#000000; fill-opacity:1.0;  stroke:#000000; stroke-width:0.100000; stroke-opacity:1;  stroke-linecap:round; stroke-linejoin:round;">
<circle cx="17430000.000000" cy="8750000.000000" r="80000.000000"/> 
</g>
<g style="fill:#000000; fill-opacity:1.0;  stroke:#000000; stroke-width:0.100000; stroke-opacity:1;  stroke-linecap:round; stroke-linejoin:round;">
<circle cx="17230000.000000" cy="8750000.000000" r="80000.000000"/> 
</g>
<g style="fill:#000000; fill-opacity:1.0;  stroke:#000000; stroke-width:0.100000; stroke-opacity:1;  stroke-linecap:round; stroke-linejoin:round;">
<circle cx="17030000.000000" cy="8750000.000000" r="80000.000000"/> 
</g>
<g style="fill:#000000; fill-opacity:1.0;  stroke:#000000; stroke-width:0.100000; stroke-opacity:1;  stroke-linecap:round; stroke-linejoin:round;">
<path style="fill:#000000; fill-opacity:1.0;  stroke:#000000; stroke-width:0.100000; stroke-opacity:1;  stroke-linecap:round; stroke-linejoin:round;fill-rule:evenodd;" d="M 16750000.000000,8690000.000000 16751522.400000,8682346.300000 16755857.900000,8675857.900000 16762346.300000,8671522.400000 16770000.000000,8670000.000000 16890000.000000,8670000.000000 16897653.700000,8671522.400000 16904142.100000,8675857.900000 16908477.600000,8682346.300000 16910000.000000,8690000.000000 16910000.000000,8810000.000000 16908477.600000,8817653.700000 16904142.100000,8824142.100000 16897653.700000,8828477.600000 16890000.000000,8830000.000000 16770000.000000,8830000.000000 16762346.300000,8828477.600000 16755857.900000,8824142.100000 16751522.400000,8817653.700000 16750000.000000,8810000.000000 Z"/> 
</g>
<g style="fill:#000000; fill-opacity:1.0;  stroke:#000000; stroke-width:0.100000; stroke-opacity:1;  stroke-linecap:round; stroke-linejoin:round;">
<circle cx="14860000.000000" cy="8950000.000000" r="80000.000000"/> 
</g>
<g style="fill:#000000; fill-opacity:1.0;  stroke:#000000; stroke-width:0.100000; stroke-opacity:1;  stroke-linecap:round; stroke-linejoin:round;">
<circle cx="14660000.000000" cy="8950000.000000" r="80000.000000"/> 
</g>
<g style="fill:#000000; fill-opacity:1.0;  stroke:#000000; stroke-width:0.100000; stroke-opacity:1;  stroke-linecap:round; stroke-linejoin:round;">
<circle cx="14460000.000000" cy="8950000.000000" r="80000.000000"/> 
</g>
<g style="fill:#000000; fill-opacity:1.0;  stroke:#000000; stroke-width:0.100000; stroke-opacity:1;  stroke-linecap:round; stroke-linejoin:round;">
<circle cx="14260000.000000" cy="8950000.000000" r="80000.000000"/> 
</g>
<g style="fill:#000000; fill-opacity:1.0;  stroke:#000000; stroke-width:0.100000; stroke-opacity:1;  stroke-linecap:round; stroke-linejoin:round;">
<circle cx="14860000.000000" cy="8750000.000000" r="80000.000000"/> 
</g>
<g style="fill:#000000; fill-opacity:1.0;  stroke:#000000; stroke-width:0.100000; stroke-opacity:1;  stroke-linecap:round; stroke-linejoin:round;">
<circle cx="14660000.000000" cy="8750000.000000" r="80000.000000"/> 
</g>
<g style="fill:#000000; fill-opacity:1.0;  stroke:#000000; stroke-width:0.100000; stroke-opacity:1;  stroke-linecap:round; stroke-linejoin:round;">
<circle cx="14460000.000000" cy="8750000.000000" r="80000.000000"/> 
</g>
<g style="fill:#000000; fill-opacity:1.0;  stroke:#000000; stroke-width:0.100000; stroke-opacity:1;  stroke-linecap:round; stroke-linejoin:round;">
<path style="fill:#000000; fill-opacity:1.0;  stroke:#000000; stroke-width:0.100000; stroke-opacity:1;  stroke-linecap:round; stroke-linejoin:round;fill-rule:evenodd;" d="M 14180000.000000,8690000.000000 14181522.400000,8682346.300000 14185857.900000,8675857.900000 14192346.300000,8671522.400000 14200000.000000,8670000.000000 14320000.000000,8670000.000000 14327653.700000,8671522.400000 14334142.100000,8675857.900000 14338477.600000,8682346.300000 14340000.000000,8690000.000000 14340000.000000,8810000.000000 14338477.600000,8817653.700000 14334142.100000,8824142.100000 14327653.700000,8828477.600000 14320000.000000,8830000.000000 14200000.000000,8830000.000000 14192346.300000,8828477.600000 14185857.900000,8824142.100000 14181522.400000,8817653.700000 14180000.000000,8810000.000000 Z"/> 
</g>
<g style="fill:#000000; fill-opacity:1.0;  stroke:#000000; stroke-width:0.100000; stroke-opacity:1;  stroke-linecap:round; stroke-linejoin:round;">
<circle cx="12100000.000000" cy="5730000.000000" r="110000.000000"/> 
</g>
<g style="fill:#000000; fill-opacity:1.0;  stroke:#000000; stroke-width:0.100000; stroke-opacity:1;  stroke-linecap:round; stroke-linejoin:round;">
<circle cx="12354000.000000" cy="6238000.000000" r="110000.000000"/> 
</g>
<g style="fill:#000000; fill-opacity:1.0;  stroke:#000000; stroke-width:0.100000; stroke-opacity:1;  stroke-linecap:round; stroke-linejoin:round;">
<circle cx="12100000.000000" cy="7000000.000000" r="110000.000000"/> 
</g>
<g style="fill:#000000; fill-opacity:1.0;  stroke:#000000; stroke-width:0.100000; stroke-opacity:1;  stroke-linecap:round; stroke-linejoin:round;">
<circle cx="13116000.000000" cy="7000000.000000" r="110000.000000"/> 
</g>
<g style="fill:#000000; fill-opacity:1.0;  stroke:#000000; stroke-width:0.100000; stroke-opacity:1;  stroke-linecap:round; stroke-linejoin:round;">
<circle cx="13370000.000000" cy="6238000.000000" r="110000.000000"/> 
</g>
<g style="fill:#000000; fill-opacity:1.0;  stroke:#000000; stroke-width:0.100000; stroke-opacity:1;  stroke-linecap:round; stroke-linejoin:round;">
<circle cx="13116000.000000" cy="5730000.000000" r="110000.000000"/> 
</g>
<g style="fill:#000000; fill-opacity:1.0;  stroke:#000000; stroke-width:0.100000; stroke-opacity:1;  stroke-linecap:round; stroke-linejoin:round;">
<circle cx="14132000.000000" cy="5730000.000000" r="110000.000000"/> 
</g>
<g style="fill:#000000; fill-opacity:1.0;  stroke:#000000; stroke-width:0.100000; stroke-opacity:1;  stroke-linecap:round; stroke-linejoin:round;">
<circle cx="14386000.000000" cy="6238000.000000" r="110000.000000"/> 
</g>
<g style="fill:#000000; fill-opacity:1.0;  stroke:#000000; stroke-width:0.100000; stroke-opacity:1;  stroke-linecap:round; stroke-linejoin:round;">
<circle cx="14132000.000000" cy="7000000.000000" r="110000.000000"/> 
</g>
<g style="fill:#000000; fill-opacity:1.0;  stroke:#000000; stroke-width:0.100000; stroke-opacity:1;  stroke-linecap:round; stroke-linejoin:round;">
<circle cx="15148000.000000" cy="7000000.000000" r="110000.000000"/> 
</g>
<g style="fill:#000000; fill-opacity:1.0;  stroke:#000000; stroke-width:0.100000; stroke-opacity:1;  stroke-linecap:round; stroke-linejoin:round;">
<circle cx="15402000.000000" cy="6238000.000000" r="110000.000000"/> 
</g>
<g style="fill:#000000; fill-opacity:1.0;  stroke:#000000; stroke-width:0.100000; stroke-opacity:1;  stroke-linecap:round; stroke-linejoin:round;">
<circle cx="15148000.000000" cy="5730000.000000" r="110000.000000"/> 
</g>
</g> 
</mask><mask id="hole-mask"><g><rect x="11790000.0" y="5217500.0" fill="white" width="8020000.0" height="4192500.0"/><polyline stroke-linecap="round" stroke="black" stroke-width="100000.0" points="-0.0 0 0.0 0" transform="translate(19212000.0 5730000.0) rotate(-270.0)"/><polyline stroke-linecap="round" stroke="black" stroke-width="100000.0" points="-0.0 0 0.0 0" transform="translate(19466000.0 6238000.0) rotate(-270.0)"/><polyline stroke-linecap="round" stroke="black" stroke-width="100000.0" points="-0.0 0 0.0 0" transform="translate(19212000.0 7000000.0) rotate(-270.0)"/><polyline stroke-linecap="round" stroke="black" stroke-width="100000.0" points="-0.0 0 0.0 0" transform="translate(18196000.0 5730000.0) rotate(-270.0)"/><polyline stroke-linecap="round" stroke="black" stroke-width="100000.0" points="-0.0 0 0.0 0" transform="translate(18450000.0 6238000.0) rotate(-270.0)"/><polyline stroke-linecap="round" stroke="black" stroke-width="100000.0" points="-0.0 0 0.0 0" transform="translate(18196000.0 7000000.0) rotate(-270.0)"/><polyline stroke-linecap="round" stroke="black" stroke-width="100000.0" points="-0.0 0 0.0 0" transform="translate(16180000.0 5730000.0) rotate(-270.0)"/><polyline stroke-linecap="round" stroke="black" stroke-width="100000.0" points="-0.0 0 0.0 0" transform="translate(16434000.0 6238000.0) rotate(-270.0)"/><polyline stroke-linecap="round" stroke="black" stroke-width="100000.0" points="-0.0 0 0.0 0" transform="translate(16180000.0 7000000.0) rotate(-270.0)"/><polyline stroke-linecap="round" stroke="black" stroke-width="100000.0" points="-0.0 0 0.0 0" transform="translate(17180000.0 5730000.0) rotate(-270.0)"/><polyline stroke-linecap="round" stroke="black" stroke-width="100000.0" points="-0.0 0 0.0 0" transform="translate(17434000.0 6238000.0) rotate(-270.0)"/><polyline stroke-linecap="round" stroke="black" stroke-width="100000.0" points="-0.0 0 0.0 0" transform="translate(17180000.0 7000000.0) rotate(-270.0)"/><polyline stroke-linecap="round" stroke="black" stroke-width="75000.0" points="-0.0 0 0.0 0" transform="translate(17430000.0 8950000.0) rotate(-0.0)"/><polyline stroke-linecap="round" stroke="black" stroke-width="75000.0" points="-0.0 0 0.0 0" transform="translate(17230000.0 8950000.0) rotate(-0.0)"/><polyline stroke-linecap="round" stroke="black" stroke-width="75000.0" points="-0.0 0 0.0 0" transform="translate(17030000.0 8950000.0) rotate(-0.0)"/><polyline stroke-linecap="round" stroke="black" stroke-width="75000.0" points="-0.0 0 0.0 0" transform="translate(16830000.0 8950000.0) rotate(-0.0)"/><polyline stroke-linecap="round" stroke="black" stroke-width="75000.0" points="-0.0 0 0.0 0" transform="translate(17430000.0 8750000.0) rotate(-0.0)"/><polyline stroke-linecap="round" stroke="black" stroke-width="75000.0" points="-0.0 0 0.0 0" transform="translate(17230000.0 8750000.0) rotate(-0.0)"/><polyline stroke-linecap="round" stroke="black" stroke-width="75000.0" points="-0.0 0 0.0 0" transform="translate(17030000.0 8750000.0) rotate(-0.0)"/><polyline stroke-linecap="round" stroke="black" stroke-width="75000.0" points="-0.0 0 0.0 0" transform="translate(16830000.0 8750000.0) rotate(-0.0)"/><polyline stroke-linecap="round" stroke="black" stroke-width="75000.0" points="-0.0 0 0.0 0" transform="translate(14860000.0 8950000.0) rotate(-0.0)"/><polyline stroke-linecap="round" stroke="black" stroke-width="75000.0" points="-0.0 0 0.0 0" transform="translate(14660000.0 8950000.0) rotate(-0.0)"/><polyline stroke-linecap="round" stroke="black" stroke-width="75000.0" points="-0.0 0 0.0 0" transform="translate(14460000.0 8950000.0) rotate(-0.0)"/><polyline stroke-linecap="round" stroke="black" stroke-width="75000.0" points="-0.0 0 0.0 0" transform="translate(14260000.0 8950000.0) rotate(-0.0)"/><polyline stroke-linecap="round" stroke="black" stroke-width="75000.0" points="-0.0 0 0.0 0" transform="translate(14860000.0 8750000.0) rotate(-0.0)"/><polyline stroke-linecap="round" stroke="black" stroke-width="75000.0" points="-0.0 0 0.0 0" transform="translate(14660000.0 8750000.0) rotate(-0.0)"/><polyline stroke-linecap="round" stroke="black" stroke-width="75000.0" points="-0.0 0 0.0 0" transform="translate(14460000.0 8750000.0) rotate(-0.0)"/><polyline stroke-linecap="round" stroke="black" stroke-width="75000.0" points="-0.0 0 0.0 0" transform="translate(14260000.0 8750000.0) rotate(-0.0)"/><polyline stroke-linecap="round" stroke="black" stroke-width="100000.0" points="-0.0 0 0.0 0" transform="translate(12100000.0 5730000.0) rotate(-270.0)"/><polyline stroke-linecap="round" stroke="black" stroke-width="100000.0" points="-0.0 0 0.0 0" transform="translate(12354000.0 6238000.0) rotate(-270.0)"/><polyline stroke-linecap="round" stroke="black" stroke-width="100000.0" points="-0.0 0 0.0 0" transform="translate(12100000.0 7000000.0) rotate(-270.0)"/><polyline stroke-linecap="round" stroke="black" stroke-width="100000.0" points="-0.0 0 0.0 0" transform="translate(13116000.0 7000000.0) rotate(-270.0)"/><polyline stroke-linecap="round" stroke="black" stroke-width="100000.0" points="-0.0 0 0.0 0" transform="translate(13370000.0 6238000.0) rotate(-270.0)"/><polyline stroke-linecap="round" stroke="black" stroke-width="100000.0" points="-0.0 0 0.0 0" transform="translate(13116000.0 5730000.0) rotate(-270.0)"/><polyline stroke-linecap="round" stroke="black" stroke-width="100000.0" points="-0.0 0 0.0 0" transform="translate(14132000.0 5730000.0) rotate(-270.0)"/><polyline stroke-linecap="round" stroke="black" stroke-width="100000.0" points="-0.0 0 0.0 0" transform="translate(14386000.0 6238000.0) rotate(-270.0)"/><polyline stroke-linecap="round" stroke="black" stroke-width="100000.0" points="-0.0 0 0.0 0" transform="translate(14132000.0 7000000.0) rotate(-270.0)"/><polyline stroke-linecap="round" stroke="black" stroke-width="100000.0" points="-0.0 0 0.0 0" transform="translate(15148000.0 7000000.0) rotate(-270.0)"/><polyline stroke-linecap="round" stroke="black" stroke-width="100000.0" points="-0.0 0 0.0 0" transform="translate(15402000.0 6238000.0) rotate(-270.0)"/><polyline stroke-linecap="round" stroke="black" stroke-width="100000.0" points="-0.0 0 0.0 0" transform="translate(15148000.0 5730000.0) rotate(-270.0)"/></g></mask></defs><g transform="" id="boardContainer"><g id="substrate" clip-path="url(#cut-off)" mask="url(#hole-mask)"><g id="substrate-board" style="fill:#4ca06c; stroke:#4ca06c;"><path d=" M 19800000.0 9400000.0 L 11800000.0 9400000.0 L 11800000.0 5400000.0 L 19800000.0 5400000.0 L 19800000.0 9400000.0 " style="fill-rule: evenodd;"/><g style="fill-opacity: 0.0;stroke-width: 20000.000000;stroke-opacity: 1;stroke-linecap: round;stroke-linejoin: round">
<path d="M19800000 5400000 L19800000 9400000 "/>
<path d="M11800000 9400000 L19800000 9400000 "/>
<path d="M11800000 5400000 L11800000 9400000 "/>
<path d="M19800000 5400000 L11800000 5400000 "/>
</g> 
</g><g id="substrate-clad" style="fill:#9c6b28; stroke:#9c6b28;"><g style="fill-opacity: 0.0;stroke-width: 0.000000;stroke-opacity: 1;stroke-linecap: round;stroke-linejoin: round">
<g style="fill-opacity: 1.0;stroke-width: 0.100000;stroke-opacity: 1;stroke-linecap: round;stroke-linejoin: round">
<circle cx="19212000.000000" cy="5730000.000000" r="110000.000000"/> 
</g>
<g style="fill-opacity: 1.0;stroke-width: 0.100000;stroke-opacity: 1;stroke-linecap: round;stroke-linejoin: round">
<circle cx="19466000.000000" cy="6238000.000000" r="110000.000000"/> 
</g>
<g style="fill-opacity: 1.0;stroke-width: 0.100000;stroke-opacity: 1;stroke-linecap: round;stroke-linejoin: round">
<circle cx="19212000.000000" cy="7000000.000000" r="110000.000000"/> 
</g>
<g style="fill-opacity: 1.0;stroke-width: 0.100000;stroke-opacity: 1;stroke-linecap: round;stroke-linejoin: round">
<circle cx="18196000.000000" cy="5730000.000000" r="110000.000000"/> 
</g>
<g style="fill-opacity: 1.0;stroke-width: 0.100000;stroke-opacity: 1;stroke-linecap: round;stroke-linejoin: round">
<circle cx="18450000.000000" cy="6238000.000000" r="110000.000000"/> 
</g>
<g style="fill-opacity: 1.0;stroke-width: 0.100000;stroke-opacity: 1;stroke-linecap: round;stroke-linejoin: round">
<circle cx="18196000.000000" cy="7000000.000000" r="110000.000000"/> 
</g>
<g style="fill-opacity: 1.0;stroke-width: 0.100000;stroke-opacity: 1;stroke-linecap: round;stroke-linejoin: round">
<circle cx="16180000.000000" cy="5730000.000000" r="110000.000000"/> 
</g>
<g style="fill-opacity: 1.0;stroke-width: 0.100000;stroke-opacity: 1;stroke-linecap: round;stroke-linejoin: round">
<circle cx="16434000.000000" cy="6238000.000000" r="110000.000000"/> 
</g>
<g style="fill-opacity: 1.0;stroke-width: 0.100000;stroke-opacity: 1;stroke-linecap: round;stroke-linejoin: round">
<circle cx="16180000.000000" cy="7000000.000000" r="110000.000000"/> 
</g>
<g style="fill-opacity: 1.0;stroke-width: 0.100000;stroke-opacity: 1;stroke-linecap: round;stroke-linejoin: round">
<circle cx="17180000.000000" cy="5730000.000000" r="110000.000000"/> 
</g>
<g style="fill-opacity: 1.0;stroke-width: 0.100000;stroke-opacity: 1;stroke-linecap: round;stroke-linejoin: round">
<circle cx="17434000.000000" cy="6238000.000000" r="110000.000000"/> 
</g>
<g style="fill-opacity: 1.0;stroke-width: 0.100000;stroke-opacity: 1;stroke-linecap: round;stroke-linejoin: round">
<circle cx="17180000.000000" cy="7000000.000000" r="110000.000000"/> 
</g>
<g style="fill-opacity: 1.0;stroke-width: 0.100000;stroke-opacity: 1;stroke-linecap: round;stroke-linejoin: round">
<circle cx="17430000.000000" cy="8950000.000000" r="80000.000000"/> 
</g>
<g style="fill-opacity: 1.0;stroke-width: 0.100000;stroke-opacity: 1;stroke-linecap: round;stroke-linejoin: round">
<circle cx="17230000.000000" cy="8950000.000000" r="80000.000000"/> 
</g>
<g style="fill-opacity: 1.0;stroke-width: 0.100000;stroke-opacity: 1;stroke-linecap: round;stroke-linejoin: round">
<circle cx="17030000.000000" cy="8950000.000000" r="80000.000000"/> 
</g>
<g style="fill-opacity: 1.0;stroke-width: 0.100000;stroke-opacity: 1;stroke-linecap: round;stroke-linejoin: round">
<circle cx="16830000.000000" cy="8950000.000000" r="80000.000000"/> 
</g>
<g style="fill-opacity: 1.0;stroke-width: 0.100000;stroke-opacity: 1;stroke-linecap: round;stroke-linejoin: round">
<circle cx="17430000.000000" cy="8750000.000000" r="80000.000000"/> 
</g>
<g style="fill-opacity: 1.0;stroke-width: 0.100000;stroke-opacity: 1;stroke-linecap: round;stroke-linejoin: round">
<circle cx="17230000.000000" cy="8750000.000000" r="80000.000000"/> 
</g>
<g style="fill-opacity: 1.0;stroke-width: 0.100000;stroke-opacity: 1;stroke-linecap: round;stroke-linejoin: round">
<circle cx="17030000.000000" cy="8750000.000000" r="80000.000000"/> 
</g>
<g style="fill-opacity: 1.0;stroke-width: 0.100000;stroke-opacity: 1;stroke-linecap: round;stroke-linejoin: round">
<path style="fill-opacity: 1.0;stroke-width: 0.100000;stroke-opacity: 1;stroke-linecap: round;stroke-linejoin: round;fill-rule: evenodd" d="M 16750000.000000,8690000.000000 16751522.400000,8682346.300000 16755857.900000,8675857.900000 16762346.300000,8671522.400000 16770000.000000,8670000.000000 16890000.000000,8670000.000000 16897653.700000,8671522.400000 16904142.100000,8675857.900000 16908477.600000,8682346.300000 16910000.000000,8690000.000000 16910000.000000,8810000.000000 16908477.600000,8817653.700000 16904142.100000,8824142.100000 16897653.700000,8828477.600000 16890000.000000,8830000.000000 16770000.000000,8830000.000000 16762346.300000,8828477.600000 16755857.900000,8824142.100000 16751522.400000,8817653.700000 16750000.000000,8810000.000000 Z"/> 
</g>
<g style="fill-opacity: 1.0;stroke-width: 0.100000;stroke-opacity: 1;stroke-linecap: round;stroke-linejoin: round">
<circle cx="14860000.000000" cy="8950000.000000" r="80000.000000"/> 
</g>
<g style="fill-opacity: 1.0;stroke-width: 0.100000;stroke-opacity: 1;stroke-linecap: round;stroke-linejoin: round">
<circle cx="14660000.000000" cy="8950000.000000" r="80000.000000"/> 
</g>
<g style="fill-opacity: 1.0;stroke-width: 0.100000;stroke-opacity: 1;stroke-linecap: round;stroke-linejoin: round">
<circle cx="14460000.000000" cy="8950000.000000" r="80000.000000"/> 
</g>
<g style="fill-opacity: 1.0;stroke-width: 0.100000;stroke-opacity: 1;stroke-linecap: round;stroke-linejoin: round">
<circle cx="14260000.000000" cy="8950000.000000" r="80000.000000"/> 
</g>
<g style="fill-opacity: 1.0;stroke-width: 0.100000;stroke-opacity: 1;stroke-linecap: round;stroke-linejoin: round">
<circle cx="14860000.000000" cy="8750000.000000" r="80000.000000"/> 
</g>
<g style="fill-opacity: 1.0;stroke-width: 0.100000;stroke-opacity: 1;stroke-linecap: round;stroke-linejoin: round">
<circle cx="14660000.000000" cy="8750000.000000" r="80000.000000"/> 
</g>
<g style="fill-opacity: 1.0;stroke-width: 0.100000;stroke-opacity: 1;stroke-linecap: round;stroke-linejoin: round">
<circle cx="14460000.000000" cy="8750000.000000" r="80000.000000"/> 
</g>
<g style="fill-opacity: 1.0;stroke-width: 0.100000;stroke-opacity: 1;stroke-linecap: round;stroke-linejoin: round">
<path style="fill-opacity: 1.0;stroke-width: 0.100000;stroke-opacity: 1;stroke-linecap: round;stroke-linejoin: round;fill-rule: evenodd" d="M 14180000.000000,8690000.000000 14181522.400000,8682346.300000 14185857.900000,8675857.900000 14192346.300000,8671522.400000 14200000.000000,8670000.000000 14320000.000000,8670000.000000 14327653.700000,8671522.400000 14334142.100000,8675857.900000 14338477.600000,8682346.300000 14340000.000000,8690000.000000 14340000.000000,8810000.000000 14338477.600000,8817653.700000 14334142.100000,8824142.100000 14327653.700000,8828477.600000 14320000.000000,8830000.000000 14200000.000000,8830000.000000 14192346.300000,8828477.600000 14185857.900000,8824142.100000 14181522.400000,8817653.700000 14180000.000000,8810000.000000 Z"/> 
</g>
<g style="fill-opacity: 1.0;stroke-width: 0.100000;stroke-opacity: 1;stroke-linecap: round;stroke-linejoin: round">
<circle cx="12100000.000000" cy="5730000.000000" r="110000.000000"/> 
</g>
<g style="fill-opacity: 1.0;stroke-width: 0.100000;stroke-opacity: 1;stroke-linecap: round;stroke-linejoin: round">
<circle cx="12354000.000000" cy="6238000.000000" r="110000.000000"/> 
</g>
<g style="fill-opacity: 1.0;stroke-width: 0.100000;stroke-opacity: 1;stroke-linecap: round;stroke-linejoin: round">
<circle cx="12100000.000000" cy="7000000.000000" r="110000.000000"/> 
</g>
<g style="fill-opacity: 1.0;stroke-width: 0.100000;stroke-opacity: 1;stroke-linecap: round;stroke-linejoin: round">
<circle cx="13116000.000000" cy="7000000.000000" r="110000.000000"/> 
</g>
<g style="fill-opacity: 1.0;stroke-width: 0.100000;stroke-opacity: 1;stroke-linecap: round;stroke-linejoin: round">
<circle cx="13370000.000000" cy="6238000.000000" r="110000.000000"/> 
</g>
<g style="fill-opacity: 1.0;stroke-width: 0.100000;stroke-opacity: 1;stroke-linecap: round;stroke-linejoin: round">
<circle cx="13116000.000000" cy="5730000.000000" r="110000.000000"/> 
</g>
<g style="fill-opacity: 1.0;stroke-width: 0.100000;stroke-opacity: 1;stroke-linecap: round;stroke-linejoin: round">
<circle cx="14132000.000000" cy="5730000.000000" r="110000.000000"/> 
</g>
<g style="fill-opacity: 1.0;stroke-width: 0.100000;stroke-opacity: 1;stroke-linecap: round;stroke-linejoin: round">
<circle cx="14386000.000000" cy="6238000.000000" r="110000.000000"/> 
</g>
<g style="fill-opacity: 1.0;stroke-width: 0.100000;stroke-opacity: 1;stroke-linecap: round;stroke-linejoin: round">
<circle cx="14132000.000000" cy="7000000.000000" r="110000.000000"/> 
</g>
<g style="fill-opacity: 1.0;stroke-width: 0.100000;stroke-opacity: 1;stroke-linecap: round;stroke-linejoin: round">
<circle cx="15148000.000000" cy="7000000.000000" r="110000.000000"/> 
</g>
<g style="fill-opacity: 1.0;stroke-width: 0.100000;stroke-opacity: 1;stroke-linecap: round;stroke-linejoin: round">
<circle cx="15402000.000000" cy="6238000.000000" r="110000.000000"/> 
</g>
<g style="fill-opacity: 1.0;stroke-width: 0.100000;stroke-opacity: 1;stroke-linecap: round;stroke-linejoin: round">
<circle cx="15148000.000000" cy="5730000.000000" r="110000.000000"/> 
</g>
</g> 
</g><g id="substrate-copper" style="fill:#417e5a; stroke:#417e5a;"><g style="fill-opacity: 0.0;stroke-width: 0.000000;stroke-opacity: 1;stroke-linecap: round;stroke-linejoin: round">
<g style="fill-opacity: 1.0;stroke-width: 0.100000;stroke-opacity: 1;stroke-linecap: round;stroke-linejoin: round">
<circle cx="19212000.000000" cy="5730000.000000" r="90000.000000"/> 
</g>
<g style="fill-opacity: 1.0;stroke-width: 0.100000;stroke-opacity: 1;stroke-linecap: round;stroke-linejoin: round">
<circle cx="19466000.000000" cy="6238000.000000" r="90000.000000"/> 
</g>
<g style="fill-opacity: 1.0;stroke-width: 0.100000;stroke-opacity: 1;stroke-linecap: round;stroke-linejoin: round">
<circle cx="19212000.000000" cy="7000000.000000" r="90000.000000"/> 
</g>
<g style="fill-opacity: 1.0;stroke-width: 0.100000;stroke-opacity: 1;stroke-linecap: round;stroke-linejoin: round">
<circle cx="18196000.000000" cy="5730000.000000" r="90000.000000"/> 
</g>
<g style="fill-opacity: 1.0;stroke-width: 0.100000;stroke-opacity: 1;stroke-linecap: round;stroke-linejoin: round">
<circle cx="18450000.000000" cy="6238000.000000" r="90000.000000"/> 
</g>
<g style="fill-opacity: 1.0;stroke-width: 0.100000;stroke-opacity: 1;stroke-linecap: round;stroke-linejoin: round">
<circle cx="18196000.000000" cy="7000000.000000" r="90000.000000"/> 
</g>
<g style="fill-opacity: 1.0;stroke-width: 0.100000;stroke-opacity: 1;stroke-linecap: round;stroke-linejoin: round">
<circle cx="16180000.000000" cy="5730000.000000" r="90000.000000"/> 
</g>
<g style="fill-opacity: 1.0;stroke-width: 0.100000;stroke-opacity: 1;stroke-linecap: round;stroke-linejoin: round">
<circle cx="16434000.000000" cy="6238000.000000" r="90000.000000"/> 
</g>
<g style="fill-opacity: 1.0;stroke-width: 0.100000;stroke-opacity: 1;stroke-linecap: round;stroke-linejoin: round">
<circle cx="16180000.000000" cy="7000000.000000" r="90000.000000"/> 
</g>
<g style="fill-opacity: 1.0;stroke-width: 0.100000;stroke-opacity: 1;stroke-linecap: round;stroke-linejoin: round">
<circle cx="17180000.000000" cy="5730000.000000" r="90000.000000"/> 
</g>
<g style="fill-opacity: 1.0;stroke-width: 0.100000;stroke-opacity: 1;stroke-linecap: round;stroke-linejoin: round">
<circle cx="17434000.000000" cy="6238000.000000" r="90000.000000"/> 
</g>
<g style="fill-opacity: 1.0;stroke-width: 0.100000;stroke-opacity: 1;stroke-linecap: round;stroke-linejoin: round">
<circle cx="17180000.000000" cy="7000000.000000" r="90000.000000"/> 
</g>
<g style="fill-opacity: 1.0;stroke-width: 0.100000;stroke-opacity: 1;stroke-linecap: round;stroke-linejoin: round">
<circle cx="17430000.000000" cy="8950000.000000" r="60000.000000"/> 
</g>
<g style="fill-opacity: 1.0;stroke-width: 0.100000;stroke-opacity: 1;stroke-linecap: round;stroke-linejoin: round">
<circle cx="17230000.000000" cy="8950000.000000" r="60000.000000"/> 
</g>
<g style="fill-opacity: 1.0;stroke-width: 0.100000;stroke-opacity: 1;stroke-linecap: round;stroke-linejoin: round">
<circle cx="17030000.000000" cy="8950000.000000" r="60000.000000"/> 
</g>
<g style="fill-opacity: 1.0;stroke-width: 0.100000;stroke-opacity: 1;stroke-linecap: round;stroke-linejoin: round">
<circle cx="16830000.000000" cy="8950000.000000" r="60000.000000"/> 
</g>
<g style="fill-opacity: 1.0;stroke-width: 0.100000;stroke-opacity: 1;stroke-linecap: round;stroke-linejoin: round">
<circle cx="17430000.000000" cy="8750000.000000" r="60000.000000"/> 
</g>
<g style="fill-opacity: 1.0;stroke-width: 0.100000;stroke-opacity: 1;stroke-linecap: round;stroke-linejoin: round">
<circle cx="17230000.000000" cy="8750000.000000" r="60000.000000"/> 
</g>
<g style="fill-opacity: 1.0;stroke-width: 0.100000;stroke-opacity: 1;stroke-linecap: round;stroke-linejoin: round">
<circle cx="17030000.000000" cy="8750000.000000" r="60000.000000"/> 
</g>
<g style="fill-opacity: 1.0;stroke-width: 0.100000;stroke-opacity: 1;stroke-linecap: round;stroke-linejoin: round">
<path style="fill-opacity: 1.0;stroke-width: 0.100000;stroke-opacity: 1;stroke-linecap: round;stroke-linejoin: round;fill-rule: evenodd" d="M 16770000.000000,8810000.000000 16770000.000000,8690000.000000 16890000.000000,8690000.000000 16890000.000000,8810000.000000 Z"/> 
</g>
<g style="fill-opacity: 1.0;stroke-width: 0.100000;stroke-opacity: 1;stroke-linecap: round;stroke-linejoin: round">
<circle cx="14860000.000000" cy="8950000.000000" r="60000.000000"/> 
</g>
<g style="fill-opacity: 1.0;stroke-width: 0.100000;stroke-opacity: 1;stroke-linecap: round;stroke-linejoin: round">
<circle cx="14660000.000000" cy="8950000.000000" r="60000.000000"/> 
</g>
<g style="fill-opacity: 1.0;stroke-width: 0.100000;stroke-opacity: 1;stroke-linecap: round;stroke-linejoin: round">
<circle cx="14460000.000000" cy="8950000.000000" r="60000.000000"/> 
</g>
<g style="fill-opacity: 1.0;stroke-width: 0.100000;stroke-opacity: 1;stroke-linecap: round;stroke-linejoin: round">
<circle cx="14260000.000000" cy="8950000.000000" r="60000.000000"/> 
</g>
<g style="fill-opacity: 1.0;stroke-width: 0.100000;stroke-opacity: 1;stroke-linecap: round;stroke-linejoin: round">
<circle cx="14860000.000000" cy="8750000.000000" r="60000.000000"/> 
</g>
<g style="fill-opacity: 1.0;stroke-width: 0.100000;stroke-opacity: 1;stroke-linecap: round;stroke-linejoin: round">
<circle cx="14660000.000000" cy="8750000.000000" r="60000.000000"/> 
</g>
<g style="fill-opacity: 1.0;stroke-width: 0.100000;stroke-opacity: 1;stroke-linecap: round;stroke-linejoin: round">
<circle cx="14460000.000000" cy="8750000.000000" r="60000.000000"/> 
</g>
<g style="fill-opacity: 1.0;stroke-width: 0.100000;stroke-opacity: 1;stroke-linecap: round;stroke-linejoin: round">
<path style="fill-opacity: 1.0;stroke-width: 0.100000;stroke-opacity: 1;stroke-linecap: round;stroke-linejoin: round;fill-rule: evenodd" d="M 14200000.000000,8810000.000000 14200000.000000,8690000.000000 14320000.000000,8690000.000000 14320000.000000,8810000.000000 Z"/> 
</g>
<g style="fill-opacity: 1.0;stroke-width: 0.100000;stroke-opacity: 1;stroke-linecap: round;stroke-linejoin: round">
<circle cx="12100000.000000" cy="5730000.000000" r="90000.000000"/> 
</g>
<g style="fill-opacity: 1.0;stroke-width: 0.100000;stroke-opacity: 1;stroke-linecap: round;stroke-linejoin: round">
<circle cx="12354000.000000" cy="6238000.000000" r="90000.000000"/> 
</g>
<g style="fill-opacity: 1.0;stroke-width: 0.100000;stroke-opacity: 1;stroke-linecap: round;stroke-linejoin: round">
<circle cx="12100000.000000" cy="7000000.000000" r="90000.000000"/> 
</g>
<g style="fill-opacity: 1.0;stroke-width: 0.100000;stroke-opacity: 1;stroke-linecap: round;stroke-linejoin: round">
<circle cx="13116000.000000" cy="7000000.000000" r="90000.000000"/> 
</g>
<g style="fill-opacity: 1.0;stroke-width: 0.100000;stroke-opacity: 1;stroke-linecap: round;stroke-linejoin: round">
<circle cx="13370000.000000" cy="6238000.000000" r="90000.000000"/> 
</g>
<g style="fill-opacity: 1.0;stroke-width: 0.100000;stroke-opacity: 1;stroke-linecap: round;stroke-linejoin: round">
<circle cx="13116000.000000" cy="5730000.000000" r="90000.000000"/> 
</g>
<g style="fill-opacity: 1.0;stroke-width: 0.100000;stroke-opacity: 1;stroke-linecap: round;stroke-linejoin: round">
<circle cx="14132000.000000" cy="5730000.000000" r="90000.000000"/> 
</g>
<g style="fill-opacity: 1.0;stroke-width: 0.100000;stroke-opacity: 1;stroke-linecap: round;stroke-linejoin: round">
<circle cx="14386000.000000" cy="6238000.000000" r="90000.000000"/> 
</g>
<g style="fill-opacity: 1.0;stroke-width: 0.100000;stroke-opacity: 1;stroke-linecap: round;stroke-linejoin: round">
<circle cx="14132000.000000" cy="7000000.000000" r="90000.000000"/> 
</g>
<g style="fill-opacity: 1.0;stroke-width: 0.100000;stroke-opacity: 1;stroke-linecap: round;stroke-linejoin: round">
<circle cx="15148000.000000" cy="7000000.000000" r="90000.000000"/> 
</g>
<g style="fill-opacity: 1.0;stroke-width: 0.100000;stroke-opacity: 1;stroke-linecap: round;stroke-linejoin: round">
<circle cx="15402000.000000" cy="6238000.000000" r="90000.000000"/> 
</g>
<g style="fill-opacity: 1.0;stroke-width: 0.100000;stroke-opacity: 1;stroke-linecap: round;stroke-linejoin: round">
<circle cx="15148000.000000" cy="5730000.000000" r="90000.000000"/> 
</g>
<g style="fill-opacity: 0.0;stroke-width: 25000.000000;stroke-opacity: 1;stroke-linecap: round;stroke-linejoin: round">
<path d="M19122000 5819999 L19120000 5819999 "/>
<path d="M19212000 5730000 L19122000 5819999 "/>
<path d="M19120000 5819999 L18805000 6135000 "/>
<path d="M18805000 8895000 L18805000 8925000 "/>
<path d="M18805000 8895000 L18805000 8915000 "/>
<path d="M18805000 6135000 L18805000 8895000 "/>
<path d="M18805000 8925000 L18535000 9195000 "/>
<path d="M14919999 9009999 L14860000 8950000 "/>
<path d="M15105000 9195000 L14919999 9009999 "/>
<path d="M18535000 9195000 L15105000 9195000 "/>
<path d="M18285999 5819999 L18775000 5819999 "/>
<path d="M18196000 5730000 L18285999 5819999 "/>
<path d="M18775000 5819999 L19040000 5555000 "/>
<path d="M19040000 5555000 L19405000 5555000 "/>
<path d="M19405000 5555000 L19680000 5830000 "/>
<path d="M19680000 5830000 L19680000 8305000 "/>
<path d="M19680000 8305000 L18715000 9270000 "/>
<path d="M14980000 9270000 L14660000 8950000 "/>
<path d="M18715000 9270000 L14980000 9270000 "/>
<path d="M16052720 5730000 L15847720 5525000 "/>
<path d="M16180000 5730000 L16052720 5730000 "/>
<path d="M15847720 5525000 L12105000 5525000 "/>
<path d="M12105000 5525000 L11930000 5700000 "/>
<path d="M11930000 7303641 L12190000 7563641 "/>
<path d="M11930000 5700000 L11930000 7303641 "/>
<path d="M12190000 7563641 L12190000 7855000 "/>
<path d="M13285000 8950000 L14260000 8950000 "/>
<path d="M12190000 7855000 L13285000 8950000 "/>
<path d="M17180000 5730000 L17445000 5465000 "/>
<path d="M17445000 5465000 L19515000 5465000 "/>
<path d="M19515000 5465000 L19750000 5700000 "/>
<path d="M19750000 5700000 L19750000 8385000 "/>
<path d="M19750000 8385000 L18810000 9325000 "/>
<path d="M14835000 9325000 L14460000 8950000 "/>
<path d="M18810000 9325000 L14835000 9325000 "/>
<path d="M13440000 8750000 L14260000 8750000 "/>
<path d="M12100000 5730000 L12100000 6495000 "/>
<path d="M12100000 6495000 L12440000 6835000 "/>
<path d="M12440000 7750000 L13440000 8750000 "/>
<path d="M12440000 6835000 L12440000 7750000 "/>
<path d="M13116000 5730000 L12710000 6136000 "/>
<path d="M12710000 6136000 L12710000 7680000 "/>
<path d="M12710000 7680000 L13520000 8490000 "/>
<path d="M14200000 8490000 L14460000 8750000 "/>
<path d="M13520000 8490000 L14200000 8490000 "/>
<path d="M14042000 5819999 L14040000 5819999 "/>
<path d="M14132000 5730000 L14042000 5819999 "/>
<path d="M14040000 5819999 L13810000 6050000 "/>
<path d="M13810000 6050000 L13810000 8095000 "/>
<path d="M13810000 8095000 L14095000 8380000 "/>
<path d="M14290000 8380000 L14660000 8750000 "/>
<path d="M14095000 8380000 L14290000 8380000 "/>
<path d="M14860000 6018000 L14860000 8750000 "/>
<path d="M15148000 5730000 L14860000 6018000 "/>
</g>
</g> 
</g><g id="substrate-pads" style="fill:#b5ae30; stroke:#b5ae30;" mask="url(#pads-mask)"><g style="fill-opacity: 0.0;stroke-width: 0.000000;stroke-opacity: 1;stroke-linecap: round;stroke-linejoin: round">
<g style="fill-opacity: 1.0;stroke-width: 0.100000;stroke-opacity: 1;stroke-linecap: round;stroke-linejoin: round">
<circle cx="19212000.000000" cy="5730000.000000" r="90000.000000"/> 
</g>
<g style="fill-opacity: 1.0;stroke-width: 0.100000;stroke-opacity: 1;stroke-linecap: round;stroke-linejoin: round">
<circle cx="19466000.000000" cy="6238000.000000" r="90000.000000"/> 
</g>
<g style="fill-opacity: 1.0;stroke-width: 0.100000;stroke-opacity: 1;stroke-linecap: round;stroke-linejoin: round">
<circle cx="19212000.000000" cy="7000000.000000" r="90000.000000"/> 
</g>
<g style="fill-opacity: 1.0;stroke-width: 0.100000;stroke-opacity: 1;stroke-linecap: round;stroke-linejoin: round">
<circle cx="18196000.000000" cy="5730000.000000" r="90000.000000"/> 
</g>
<g style="fill-opacity: 1.0;stroke-width: 0.100000;stroke-opacity: 1;stroke-linecap: round;stroke-linejoin: round">
<circle cx="18450000.000000" cy="6238000.000000" r="90000.000000"/> 
</g>
<g style="fill-opacity: 1.0;stroke-width: 0.100000;stroke-opacity: 1;stroke-linecap: round;stroke-linejoin: round">
<circle cx="18196000.000000" cy="7000000.000000" r="90000.000000"/> 
</g>
<g style="fill-opacity: 1.0;stroke-width: 0.100000;stroke-opacity: 1;stroke-linecap: round;stroke-linejoin: round">
<circle cx="16180000.000000" cy="5730000.000000" r="90000.000000"/> 
</g>
<g style="fill-opacity: 1.0;stroke-width: 0.100000;stroke-opacity: 1;stroke-linecap: round;stroke-linejoin: round">
<circle cx="16434000.000000" cy="6238000.000000" r="90000.000000"/> 
</g>
<g style="fill-opacity: 1.0;stroke-width: 0.100000;stroke-opacity: 1;stroke-linecap: round;stroke-linejoin: round">
<circle cx="16180000.000000" cy="7000000.000000" r="90000.000000"/> 
</g>
<g style="fill-opacity: 1.0;stroke-width: 0.100000;stroke-opacity: 1;stroke-linecap: round;stroke-linejoin: round">
<circle cx="17180000.000000" cy="5730000.000000" r="90000.000000"/> 
</g>
<g style="fill-opacity: 1.0;stroke-width: 0.100000;stroke-opacity: 1;stroke-linecap: round;stroke-linejoin: round">
<circle cx="17434000.000000" cy="6238000.000000" r="90000.000000"/> 
</g>
<g style="fill-opacity: 1.0;stroke-width: 0.100000;stroke-opacity: 1;stroke-linecap: round;stroke-linejoin: round">
<circle cx="17180000.000000" cy="7000000.000000" r="90000.000000"/> 
</g>
<g style="fill-opacity: 1.0;stroke-width: 0.100000;stroke-opacity: 1;stroke-linecap: round;stroke-linejoin: round">
<circle cx="17430000.000000" cy="8950000.000000" r="60000.000000"/> 
</g>
<g style="fill-opacity: 1.0;stroke-width: 0.100000;stroke-opacity: 1;stroke-linecap: round;stroke-linejoin: round">
<circle cx="17230000.000000" cy="8950000.000000" r="60000.000000"/> 
</g>
<g style="fill-opacity: 1.0;stroke-width: 0.100000;stroke-opacity: 1;stroke-linecap: round;stroke-linejoin: round">
<circle cx="17030000.000000" cy="8950000.000000" r="60000.000000"/> 
</g>
<g style="fill-opacity: 1.0;stroke-width: 0.100000;stroke-opacity: 1;stroke-linecap: round;stroke-linejoin: round">
<circle cx="16830000.000000" cy="8950000.000000" r="60000.000000"/> 
</g>
<g style="fill-opacity: 1.0;stroke-width: 0.100000;stroke-opacity: 1;stroke-linecap: round;stroke-linejoin: round">
<circle cx="17430000.000000" cy="8750000.000000" r="60000.000000"/> 
</g>
<g style="fill-opacity: 1.0;stroke-width: 0.100000;stroke-opacity: 1;stroke-linecap: round;stroke-linejoin: round">
<circle cx="17230000.000000" cy="8750000.000000" r="60000.000000"/> 
</g>
<g style="fill-opacity: 1.0;stroke-width: 0.100000;stroke-opacity: 1;stroke-linecap: round;stroke-linejoin: round">
<circle cx="17030000.000000" cy="8750000.000000" r="60000.000000"/> 
</g>
<g style="fill-opacity: 1.0;stroke-width: 0.100000;stroke-opacity: 1;stroke-linecap: round;stroke-linejoin: round">
<path style="fill-opacity: 1.0;stroke-width: 0.100000;stroke-opacity: 1;stroke-linecap: round;stroke-linejoin: round;fill-rule: evenodd" d="M 16770000.000000,8810000.000000 16770000.000000,8690000.000000 16890000.000000,8690000.000000 16890000.000000,8810000.000000 Z"/> 
</g>
<g style="fill-opacity: 1.0;stroke-width: 0.100000;stroke-opacity: 1;stroke-linecap: round;stroke-linejoin: round">
<circle cx="14860000.000000" cy="8950000.000000" r="60000.000000"/> 
</g>
<g style="fill-opacity: 1.0;stroke-width: 0.100000;stroke-opacity: 1;stroke-linecap: round;stroke-linejoin: round">
<circle cx="14660000.000000" cy="8950000.000000" r="60000.000000"/> 
</g>
<g style="fill-opacity: 1.0;stroke-width: 0.100000;stroke-opacity: 1;stroke-linecap: round;stroke-linejoin: round">
<circle cx="14460000.000000" cy="8950000.000000" r="60000.000000"/> 
</g>
<g style="fill-opacity: 1.0;stroke-width: 0.100000;stroke-opacity: 1;stroke-linecap: round;stroke-linejoin: round">
<circle cx="14260000.000000" cy="8950000.000000" r="60000.000000"/> 
</g>
<g style="fill-opacity: 1.0;stroke-width: 0.100000;stroke-opacity: 1;stroke-linecap: round;stroke-linejoin: round">
<circle cx="14860000.000000" cy="8750000.000000" r="60000.000000"/> 
</g>
<g style="fill-opacity: 1.0;stroke-width: 0.100000;stroke-opacity: 1;stroke-linecap: round;stroke-linejoin: round">
<circle cx="14660000.000000" cy="8750000.000000" r="60000.000000"/> 
</g>
<g style="fill-opacity: 1.0;stroke-width: 0.100000;stroke-opacity: 1;stroke-linecap: round;stroke-linejoin: round">
<circle cx="14460000.000000" cy="8750000.000000" r="60000.000000"/> 
</g>
<g style="fill-opacity: 1.0;stroke-width: 0.100000;stroke-opacity: 1;stroke-linecap: round;stroke-linejoin: round">
<path style="fill-opacity: 1.0;stroke-width: 0.100000;stroke-opacity: 1;stroke-linecap: round;stroke-linejoin: round;fill-rule: evenodd" d="M 14200000.000000,8810000.000000 14200000.000000,8690000.000000 14320000.000000,8690000.000000 14320000.000000,8810000.000000 Z"/> 
</g>
<g style="fill-opacity: 1.0;stroke-width: 0.100000;stroke-opacity: 1;stroke-linecap: round;stroke-linejoin: round">
<circle cx="12100000.000000" cy="5730000.000000" r="90000.000000"/> 
</g>
<g style="fill-opacity: 1.0;stroke-width: 0.100000;stroke-opacity: 1;stroke-linecap: round;stroke-linejoin: round">
<circle cx="12354000.000000" cy="6238000.000000" r="90000.000000"/> 
</g>
<g style="fill-opacity: 1.0;stroke-width: 0.100000;stroke-opacity: 1;stroke-linecap: round;stroke-linejoin: round">
<circle cx="12100000.000000" cy="7000000.000000" r="90000.000000"/> 
</g>
<g style="fill-opacity: 1.0;stroke-width: 0.100000;stroke-opacity: 1;stroke-linecap: round;stroke-linejoin: round">
<circle cx="13116000.000000" cy="7000000.000000" r="90000.000000"/> 
</g>
<g style="fill-opacity: 1.0;stroke-width: 0.100000;stroke-opacity: 1;stroke-linecap: round;stroke-linejoin: round">
<circle cx="13370000.000000" cy="6238000.000000" r="90000.000000"/> 
</g>
<g style="fill-opacity: 1.0;stroke-width: 0.100000;stroke-opacity: 1;stroke-linecap: round;stroke-linejoin: round">
<circle cx="13116000.000000" cy="5730000.000000" r="90000.000000"/> 
</g>
<g style="fill-opacity: 1.0;stroke-width: 0.100000;stroke-opacity: 1;stroke-linecap: round;stroke-linejoin: round">
<circle cx="14132000.000000" cy="5730000.000000" r="90000.000000"/> 
</g>
<g style="fill-opacity: 1.0;stroke-width: 0.100000;stroke-opacity: 1;stroke-linecap: round;stroke-linejoin: round">
<circle cx="14386000.000000" cy="6238000.000000" r="90000.000000"/> 
</g>
<g style="fill-opacity: 1.0;stroke-width: 0.100000;stroke-opacity: 1;stroke-linecap: round;stroke-linejoin: round">
<circle cx="14132000.000000" cy="7000000.000000" r="90000.000000"/> 
</g>
<g style="fill-opacity: 1.0;stroke-width: 0.100000;stroke-opacity: 1;stroke-linecap: round;stroke-linejoin: round">
<circle cx="15148000.000000" cy="7000000.000000" r="90000.000000"/> 
</g>
<g style="fill-opacity: 1.0;stroke-width: 0.100000;stroke-opacity: 1;stroke-linecap: round;stroke-linejoin: round">
<circle cx="15402000.000000" cy="6238000.000000" r="90000.000000"/> 
</g>
<g style="fill-opacity: 1.0;stroke-width: 0.100000;stroke-opacity: 1;stroke-linecap: round;stroke-linejoin: round">
<circle cx="15148000.000000" cy="5730000.000000" r="90000.000000"/> 
</g>
<g style="fill-opacity: 0.0;stroke-width: 25000.000000;stroke-opacity: 1;stroke-linecap: round;stroke-linejoin: round">
<path d="M19122000 5819999 L19120000 5819999 "/>
<path d="M19212000 5730000 L19122000 5819999 "/>
<path d="M19120000 5819999 L18805000 6135000 "/>
<path d="M18805000 8895000 L18805000 8925000 "/>
<path d="M18805000 8895000 L18805000 8915000 "/>
<path d="M18805000 6135000 L18805000 8895000 "/>
<path d="M18805000 8925000 L18535000 9195000 "/>
<path d="M14919999 9009999 L14860000 8950000 "/>
<path d="M15105000 9195000 L14919999 9009999 "/>
<path d="M18535000 9195000 L15105000 9195000 "/>
<path d="M18285999 5819999 L18775000 5819999 "/>
<path d="M18196000 5730000 L18285999 5819999 "/>
<path d="M18775000 5819999 L19040000 5555000 "/>
<path d="M19040000 5555000 L19405000 5555000 "/>
<path d="M19405000 5555000 L19680000 5830000 "/>
<path d="M19680000 5830000 L19680000 8305000 "/>
<path d="M19680000 8305000 L18715000 9270000 "/>
<path d="M14980000 9270000 L14660000 8950000 "/>
<path d="M18715000 9270000 L14980000 9270000 "/>
<path d="M16052720 5730000 L15847720 5525000 "/>
<path d="M16180000 5730000 L16052720 5730000 "/>
<path d="M15847720 5525000 L12105000 5525000 "/>
<path d="M12105000 5525000 L11930000 5700000 "/>
<path d="M11930000 7303641 L12190000 7563641 "/>
<path d="M11930000 5700000 L11930000 7303641 "/>
<path d="M12190000 7563641 L12190000 7855000 "/>
<path d="M13285000 8950000 L14260000 8950000 "/>
<path d="M12190000 7855000 L13285000 8950000 "/>
<path d="M17180000 5730000 L17445000 5465000 "/>
<path d="M17445000 5465000 L19515000 5465000 "/>
<path d="M19515000 5465000 L19750000 5700000 "/>
<path d="M19750000 5700000 L19750000 8385000 "/>
<path d="M19750000 8385000 L18810000 9325000 "/>
<path d="M14835000 9325000 L14460000 8950000 "/>
<path d="M18810000 9325000 L14835000 9325000 "/>
<path d="M13440000 8750000 L14260000 8750000 "/>
<path d="M12100000 5730000 L12100000 6495000 "/>
<path d="M12100000 6495000 L12440000 6835000 "/>
<path d="M12440000 7750000 L13440000 8750000 "/>
<path d="M12440000 6835000 L12440000 7750000 "/>
<path d="M13116000 5730000 L12710000 6136000 "/>
<path d="M12710000 6136000 L12710000 7680000 "/>
<path d="M12710000 7680000 L13520000 8490000 "/>
<path d="M14200000 8490000 L14460000 8750000 "/>
<path d="M13520000 8490000 L14200000 8490000 "/>
<path d="M14042000 5819999 L14040000 5819999 "/>
<path d="M14132000 5730000 L14042000 5819999 "/>
<path d="M14040000 5819999 L13810000 6050000 "/>
<path d="M13810000 6050000 L13810000 8095000 "/>
<path d="M13810000 8095000 L14095000 8380000 "/>
<path d="M14290000 8380000 L14660000 8750000 "/>
<path d="M14095000 8380000 L14290000 8380000 "/>
<path d="M14860000 6018000 L14860000 8750000 "/>
<path d="M15148000 5730000 L14860000 6018000 "/>
</g>
</g> 
</g><g id="substrate-silk" style="fill:#f0f0f0; stroke:#f0f0f0;" mask="url(#pads-mask-silkscreen)"><g style="fill-opacity: 0.0;stroke-width: 20000.000000;stroke-opacity: 1;stroke-linecap: round;stroke-linejoin: round">
<text x="17045000.000000" y="8280000.000000" textLength="95238.200000" font-size="133333.300000" lengthAdjust="spacingAndGlyphs" text-anchor="middle" opacity="0">6</text>
<g class="stroked-text"><desc>6</desc>
<path d="M17064047 8175238 L17045000 8175238 L17035476 8180000 L17030714 8184761 L17021190 8199047 L17016428 8218095 L17016428 8256190 L17021190 8265714 L17025952 8270476 L17035476 8275238 L17054523 8275238 L17064047 8270476 L17068809 8265714 L17073571 8256190 L17073571 8232380 L17068809 8222857 L17064047 8218095 L17054523 8213333 L17035476 8213333 L17025952 8218095 L17021190 8222857 L17016428 8232380 "/>
</g><text x="16840000.000000" y="8285000.000000" textLength="121238.100000" font-size="133333.300000" lengthAdjust="spacingAndGlyphs" text-anchor="middle" opacity="0">5</text>
<g class="stroked-text"><desc>5</desc>
<path d="M16863809 8180238 L16816190 8180238 L16811428 8227857 L16816190 8223095 L16825714 8218333 L16849523 8218333 L16859047 8223095 L16863809 8227857 L16868571 8237380 L16868571 8261190 L16863809 8270714 L16859047 8275476 L16849523 8280238 L16825714 8280238 L16816190 8275476 L16811428 8270714 "/>
</g><text x="17040000.000000" y="8130000.000000" textLength="121238.100000" font-size="133333.300000" lengthAdjust="spacingAndGlyphs" text-anchor="middle" opacity="0">2</text>
<g class="stroked-text"><desc>2</desc>
<path d="M17011428 8034761 L17016190 8030000 L17025714 8025238 L17049523 8025238 L17059047 8030000 L17063809 8034761 L17068571 8044285 L17068571 8053809 L17063809 8068095 L17006666 8125238 L17068571 8125238 "/>
</g><text x="17245000.000000" y="8135000.000000" textLength="121238.100000" font-size="133333.300000" lengthAdjust="spacingAndGlyphs" text-anchor="middle" opacity="0">3</text>
<g class="stroked-text"><desc>3</desc>
<path d="M17211666 8030238 L17273571 8030238 L17240238 8068333 L17254523 8068333 L17264047 8073095 L17268809 8077857 L17273571 8087380 L17273571 8111190 L17268809 8120714 L17264047 8125476 L17254523 8130238 L17225952 8130238 L17216428 8125476 L17211666 8120714 "/>
</g><text x="17440000.000000" y="8130000.000000" textLength="121238.100000" font-size="133333.300000" lengthAdjust="spacingAndGlyphs" text-anchor="middle" opacity="0">4</text>
<g class="stroked-text"><desc>4</desc>
<path d="M17459047 8058571 L17459047 8125238 "/>
<path d="M17435238 8020476 L17411428 8091904 L17473333 8091904 "/>
</g><text x="17440000.000000" y="8280000.000000" textLength="121238.100000" font-size="133333.300000" lengthAdjust="spacingAndGlyphs" text-anchor="middle" opacity="0">8</text>
<g class="stroked-text"><desc>8</desc>
<path d="M17430476 8218095 L17420952 8213333 L17416190 8208571 L17411428 8199047 L17411428 8194285 L17416190 8184761 L17420952 8180000 L17430476 8175238 L17449523 8175238 L17459047 8180000 L17463809 8184761 L17468571 8194285 L17468571 8199047 L17463809 8208571 L17459047 8213333 L17449523 8218095 L17430476 8218095 L17420952 8222857 L17416190 8227619 L17411428 8237142 L17411428 8256190 L17416190 8265714 L17420952 8270476 L17430476 8275238 L17449523 8275238 L17459047 8270476 L17463809 8265714 L17468571 8256190 L17468571 8237142 L17463809 8227619 L17459047 8222857 L17449523 8218095 "/>
</g><text x="16840000.000000" y="8125000.000000" textLength="121238.100000" font-size="133333.300000" lengthAdjust="spacingAndGlyphs" text-anchor="middle" opacity="0">1</text>
<g class="stroked-text"><desc>1</desc>
<path d="M16868571 8120238 L16811428 8120238 "/>
<path d="M16840000 8120238 L16840000 8020238 L16830476 8034523 L16820952 8044047 L16811428 8048809 "/>
</g><text x="17245000.000000" y="8280000.000000" textLength="121238.100000" font-size="133333.300000" lengthAdjust="spacingAndGlyphs" text-anchor="middle" opacity="0">7</text>
<g class="stroked-text"><desc>7</desc>
<path d="M17211666 8175238 L17278333 8175238 L17235476 8275238 "/>
</g><text x="14860000.000000" y="8155000.000000" textLength="121238.100000" font-size="133333.300000" lengthAdjust="spacingAndGlyphs" text-anchor="middle" opacity="0">4</text>
<g class="stroked-text"><desc>4</desc>
<path d="M14879047 8083571 L14879047 8150238 "/>
<path d="M14855238 8045476 L14831428 8116904 L14893333 8116904 "/>
</g><text x="14665000.000000" y="8160000.000000" textLength="121238.100000" font-size="133333.300000" lengthAdjust="spacingAndGlyphs" text-anchor="middle" opacity="0">3</text>
<g class="stroked-text"><desc>3</desc>
<path d="M14631666 8055238 L14693571 8055238 L14660238 8093333 L14674523 8093333 L14684047 8098095 L14688809 8102857 L14693571 8112380 L14693571 8136190 L14688809 8145714 L14684047 8150476 L14674523 8155238 L14645952 8155238 L14636428 8150476 L14631666 8145714 "/>
</g><text x="14460000.000000" y="8155000.000000" textLength="121238.100000" font-size="133333.300000" lengthAdjust="spacingAndGlyphs" text-anchor="middle" opacity="0">2</text>
<g class="stroked-text"><desc>2</desc>
<path d="M14431428 8059761 L14436190 8055000 L14445714 8050238 L14469523 8050238 L14479047 8055000 L14483809 8059761 L14488571 8069285 L14488571 8078809 L14483809 8093095 L14426666 8150238 L14488571 8150238 "/>
</g><text x="14260000.000000" y="8150000.000000" textLength="121238.100000" font-size="133333.300000" lengthAdjust="spacingAndGlyphs" text-anchor="middle" opacity="0">1</text>
<g class="stroked-text"><desc>1</desc>
<path d="M14288571 8145238 L14231428 8145238 "/>
<path d="M14260000 8145238 L14260000 8045238 L14250476 8059523 L14240952 8069047 L14231428 8073809 "/>
</g><text x="14860000.000000" y="8305000.000000" textLength="121238.100000" font-size="133333.300000" lengthAdjust="spacingAndGlyphs" text-anchor="middle" opacity="0">8</text>
<g class="stroked-text"><desc>8</desc>
<path d="M14850476 8243095 L14840952 8238333 L14836190 8233571 L14831428 8224047 L14831428 8219285 L14836190 8209761 L14840952 8205000 L14850476 8200238 L14869523 8200238 L14879047 8205000 L14883809 8209761 L14888571 8219285 L14888571 8224047 L14883809 8233571 L14879047 8238333 L14869523 8243095 L14850476 8243095 L14840952 8247857 L14836190 8252619 L14831428 8262142 L14831428 8281190 L14836190 8290714 L14840952 8295476 L14850476 8300238 L14869523 8300238 L14879047 8295476 L14883809 8290714 L14888571 8281190 L14888571 8262142 L14883809 8252619 L14879047 8247857 L14869523 8243095 "/>
</g><text x="14665000.000000" y="8305000.000000" textLength="121238.100000" font-size="133333.300000" lengthAdjust="spacingAndGlyphs" text-anchor="middle" opacity="0">7</text>
<g class="stroked-text"><desc>7</desc>
<path d="M14631666 8200238 L14698333 8200238 L14655476 8300238 "/>
</g><text x="14465000.000000" y="8305000.000000" textLength="121238.100000" font-size="133333.300000" lengthAdjust="spacingAndGlyphs" text-anchor="middle" opacity="0">6</text>
<g class="stroked-text"><desc>6</desc>
<path d="M14484047 8200238 L14465000 8200238 L14455476 8205000 L14450714 8209761 L14441190 8224047 L14436428 8243095 L14436428 8281190 L14441190 8290714 L14445952 8295476 L14455476 8300238 L14474523 8300238 L14484047 8295476 L14488809 8290714 L14493571 8281190 L14493571 8257380 L14488809 8247857 L14484047 8243095 L14474523 8238333 L14455476 8238333 L14445952 8243095 L14441190 8247857 L14436428 8257380 "/>
</g><text x="14260000.000000" y="8310000.000000" textLength="121238.100000" font-size="133333.300000" lengthAdjust="spacingAndGlyphs" text-anchor="middle" opacity="0">5</text>
<g class="stroked-text"><desc>5</desc>
<path d="M14283809 8205238 L14236190 8205238 L14231428 8252857 L14236190 8248095 L14245714 8243333 L14269523 8243333 L14279047 8248095 L14283809 8252857 L14288571 8262380 L14288571 8286190 L14283809 8295714 L14279047 8300476 L14269523 8305238 L14245714 8305238 L14236190 8300476 L14231428 8295714 "/>
</g></g>
<g style="fill-opacity: 0.0;stroke-width: 15000.000000;stroke-opacity: 1;stroke-linecap: round;stroke-linejoin: round">
<text x="19344000.000000" y="7490000.000000" textLength="468857.100000" font-size="133333.300000" lengthAdjust="spacingAndGlyphs" text-anchor="middle" opacity="0">LED 8</text>
<g class="stroked-text"><desc>LED 8</desc>
<path d="M19194000 7485238 L19146380 7485238 L19146380 7385238 "/>
<path d="M19227333 7432857 L19260666 7432857 "/>
<path d="M19274952 7485238 L19227333 7485238 L19227333 7385238 L19274952 7385238 "/>
<path d="M19317809 7485238 L19317809 7385238 L19341619 7385238 L19355904 7390000 L19365428 7399523 L19370190 7409047 L19374952 7428095 L19374952 7442380 L19370190 7461428 L19365428 7470952 L19355904 7480476 L19341619 7485238 L19317809 7485238 "/>
<path d="M19508285 7428095 L19498761 7423333 L19494000 7418571 L19489238 7409047 L19489238 7404285 L19494000 7394761 L19498761 7390000 L19508285 7385238 L19527333 7385238 L19536857 7390000 L19541619 7394761 L19546380 7404285 L19546380 7409047 L19541619 7418571 L19536857 7423333 L19527333 7428095 L19508285 7428095 L19498761 7432857 L19494000 7437619 L19489238 7447142 L19489238 7466190 L19494000 7475714 L19498761 7480476 L19508285 7485238 L19527333 7485238 L19536857 7480476 L19541619 7475714 L19546380 7466190 L19546380 7447142 L19541619 7437619 L19536857 7432857 L19527333 7428095 "/>
</g><text x="18328000.000000" y="7490000.000000" textLength="462357.100000" font-size="133333.300000" lengthAdjust="spacingAndGlyphs" text-anchor="middle" opacity="0">LED 7</text>
<g class="stroked-text"><desc>LED 7</desc>
<path d="M18178000 7485238 L18130380 7485238 L18130380 7385238 "/>
<path d="M18211333 7432857 L18244666 7432857 "/>
<path d="M18258952 7485238 L18211333 7485238 L18211333 7385238 L18258952 7385238 "/>
<path d="M18301809 7485238 L18301809 7385238 L18325619 7385238 L18339904 7390000 L18349428 7399523 L18354190 7409047 L18358952 7428095 L18358952 7442380 L18354190 7461428 L18349428 7470952 L18339904 7480476 L18325619 7485238 L18301809 7485238 "/>
<path d="M18468476 7385238 L18535142 7385238 L18492285 7485238 "/>
</g><text x="16312000.000000" y="7490000.000000" textLength="462357.100000" font-size="133333.300000" lengthAdjust="spacingAndGlyphs" text-anchor="middle" opacity="0">LED 5</text>
<g class="stroked-text"><desc>LED 5</desc>
<path d="M16162000 7485238 L16114380 7485238 L16114380 7385238 "/>
<path d="M16195333 7432857 L16228666 7432857 "/>
<path d="M16242952 7485238 L16195333 7485238 L16195333 7385238 L16242952 7385238 "/>
<path d="M16285809 7485238 L16285809 7385238 L16309619 7385238 L16323904 7390000 L16333428 7399523 L16338190 7409047 L16342952 7428095 L16342952 7442380 L16338190 7461428 L16333428 7470952 L16323904 7480476 L16309619 7485238 L16285809 7485238 "/>
<path d="M16509619 7385238 L16462000 7385238 L16457238 7432857 L16462000 7428095 L16471523 7423333 L16495333 7423333 L16504857 7428095 L16509619 7432857 L16514380 7442380 L16514380 7466190 L16509619 7475714 L16504857 7480476 L16495333 7485238 L16471523 7485238 L16462000 7480476 L16457238 7475714 "/>
</g><text x="17312000.000000" y="7490000.000000" textLength="462357.100000" font-size="133333.300000" lengthAdjust="spacingAndGlyphs" text-anchor="middle" opacity="0">LED 6</text>
<g class="stroked-text"><desc>LED 6</desc>
<path d="M17162000 7485238 L17114380 7485238 L17114380 7385238 "/>
<path d="M17195333 7432857 L17228666 7432857 "/>
<path d="M17242952 7485238 L17195333 7485238 L17195333 7385238 L17242952 7385238 "/>
<path d="M17285809 7485238 L17285809 7385238 L17309619 7385238 L17323904 7390000 L17333428 7399523 L17338190 7409047 L17342952 7428095 L17342952 7442380 L17338190 7461428 L17333428 7470952 L17323904 7480476 L17309619 7485238 L17285809 7485238 "/>
<path d="M17504857 7385238 L17485809 7385238 L17476285 7390000 L17471523 7394761 L17462000 7409047 L17457238 7428095 L17457238 7466190 L17462000 7475714 L17466761 7480476 L17476285 7485238 L17495333 7485238 L17504857 7480476 L17509619 7475714 L17514380 7466190 L17514380 7442380 L17509619 7432857 L17504857 7428095 L17495333 7423333 L17476285 7423333 L17466761 7428095 L17462000 7432857 L17457238 7442380 "/>
</g><text x="17130000.000000" y="9365000.000000" textLength="533785.700000" font-size="133333.300000" lengthAdjust="spacingAndGlyphs" text-anchor="middle" opacity="0">To LED</text>
<g class="stroked-text"><desc>To LED</desc>
<path d="M16882380 9260238 L16939523 9260238 "/>
<path d="M16910952 9360238 L16910952 9260238 "/>
<path d="M16987142 9360238 L16977619 9355476 L16972857 9350714 L16968095 9341190 L16968095 9312619 L16972857 9303095 L16977619 9298333 L16987142 9293571 L17001428 9293571 L17010952 9298333 L17015714 9303095 L17020476 9312619 L17020476 9341190 L17015714 9350714 L17010952 9355476 L17001428 9360238 L16987142 9360238 "/>
<path d="M17187142 9360238 L17139523 9360238 L17139523 9260238 "/>
<path d="M17220476 9307857 L17253809 9307857 "/>
<path d="M17268095 9360238 L17220476 9360238 L17220476 9260238 L17268095 9260238 "/>
<path d="M17310952 9360238 L17310952 9260238 L17334761 9260238 L17349047 9265000 L17358571 9274523 L17363333 9284047 L17368095 9303095 L17368095 9317380 L17363333 9336428 L17358571 9345952 L17349047 9355476 L17334761 9360238 L17310952 9360238 "/>
</g><text x="14565000.000000" y="9360000.000000" textLength="1152833.300000" font-size="133333.300000" lengthAdjust="spacingAndGlyphs" text-anchor="middle" opacity="0">From Stimlator</text>
<g class="stroked-text"><desc>From Stimlator</desc>
<path d="M14055476 9302857 L14022142 9302857 "/>
<path d="M14022142 9355238 L14022142 9255238 L14069761 9255238 "/>
<path d="M14107857 9355238 L14107857 9288571 "/>
<path d="M14107857 9307619 L14112619 9298095 L14117380 9293333 L14126904 9288571 L14136428 9288571 "/>
<path d="M14184047 9355238 L14174523 9350476 L14169761 9345714 L14165000 9336190 L14165000 9307619 L14169761 9298095 L14174523 9293333 L14184047 9288571 L14198333 9288571 L14207857 9293333 L14212619 9298095 L14217380 9307619 L14217380 9336190 L14212619 9345714 L14207857 9350476 L14198333 9355238 L14184047 9355238 "/>
<path d="M14260238 9355238 L14260238 9288571 "/>
<path d="M14260238 9298095 L14265000 9293333 L14274523 9288571 L14288809 9288571 L14298333 9293333 L14303095 9302857 L14303095 9355238 "/>
<path d="M14303095 9302857 L14307857 9293333 L14317380 9288571 L14331666 9288571 L14341190 9293333 L14345952 9302857 L14345952 9355238 "/>
<path d="M14465000 9350476 L14479285 9355238 L14503095 9355238 L14512619 9350476 L14517380 9345714 L14522142 9336190 L14522142 9326666 L14517380 9317142 L14512619 9312380 L14503095 9307619 L14484047 9302857 L14474523 9298095 L14469761 9293333 L14465000 9283809 L14465000 9274285 L14469761 9264761 L14474523 9260000 L14484047 9255238 L14507857 9255238 L14522142 9260000 "/>
<path d="M14550714 9288571 L14588809 9288571 "/>
<path d="M14565000 9255238 L14565000 9340952 L14569761 9350476 L14579285 9355238 L14588809 9355238 "/>
<path d="M14622142 9355238 L14622142 9288571 "/>
<path d="M14622142 9255238 L14617380 9260000 L14622142 9264761 L14626904 9260000 L14622142 9255238 L14622142 9264761 "/>
<path d="M14669761 9355238 L14669761 9288571 "/>
<path d="M14669761 9298095 L14674523 9293333 L14684047 9288571 L14698333 9288571 L14707857 9293333 L14712619 9302857 L14712619 9355238 "/>
<path d="M14712619 9302857 L14717380 9293333 L14726904 9288571 L14741190 9288571 L14750714 9293333 L14755476 9302857 L14755476 9355238 "/>
<path d="M14817380 9355238 L14807857 9350476 L14803095 9340952 L14803095 9255238 "/>
<path d="M14898333 9355238 L14898333 9302857 L14893571 9293333 L14884047 9288571 L14865000 9288571 L14855476 9293333 "/>
<path d="M14898333 9350476 L14888809 9355238 L14865000 9355238 L14855476 9350476 L14850714 9340952 L14850714 9331428 L14855476 9321904 L14865000 9317142 L14888809 9317142 L14898333 9312380 "/>
<path d="M14931666 9288571 L14969761 9288571 "/>
<path d="M14945952 9255238 L14945952 9340952 L14950714 9350476 L14960238 9355238 L14969761 9355238 "/>
<path d="M15017380 9355238 L15007857 9350476 L15003095 9345714 L14998333 9336190 L14998333 9307619 L15003095 9298095 L15007857 9293333 L15017380 9288571 L15031666 9288571 L15041190 9293333 L15045952 9298095 L15050714 9307619 L15050714 9336190 L15045952 9345714 L15041190 9350476 L15031666 9355238 L15017380 9355238 "/>
<path d="M15093571 9355238 L15093571 9288571 "/>
<path d="M15093571 9307619 L15098333 9298095 L15103095 9293333 L15112619 9288571 L15122142 9288571 "/>
</g><text x="12230000.000000" y="7490000.000000" textLength="462357.100000" font-size="133333.300000" lengthAdjust="spacingAndGlyphs" text-anchor="middle" opacity="0">LED 1</text>
<g class="stroked-text"><desc>LED 1</desc>
<path d="M12080000 7485238 L12032380 7485238 L12032380 7385238 "/>
<path d="M12113333 7432857 L12146666 7432857 "/>
<path d="M12160952 7485238 L12113333 7485238 L12113333 7385238 L12160952 7385238 "/>
<path d="M12203809 7485238 L12203809 7385238 L12227619 7385238 L12241904 7390000 L12251428 7399523 L12256190 7409047 L12260952 7428095 L12260952 7442380 L12256190 7461428 L12251428 7470952 L12241904 7480476 L12227619 7485238 L12203809 7485238 "/>
<path d="M12432380 7485238 L12375238 7485238 "/>
<path d="M12403809 7485238 L12403809 7385238 L12394285 7399523 L12384761 7409047 L12375238 7413809 "/>
</g><text x="13250000.000000" y="7490000.000000" textLength="462357.100000" font-size="133333.300000" lengthAdjust="spacingAndGlyphs" text-anchor="middle" opacity="0">LED 2</text>
<g class="stroked-text"><desc>LED 2</desc>
<path d="M13100000 7485238 L13052380 7485238 L13052380 7385238 "/>
<path d="M13133333 7432857 L13166666 7432857 "/>
<path d="M13180952 7485238 L13133333 7485238 L13133333 7385238 L13180952 7385238 "/>
<path d="M13223809 7485238 L13223809 7385238 L13247619 7385238 L13261904 7390000 L13271428 7399523 L13276190 7409047 L13280952 7428095 L13280952 7442380 L13276190 7461428 L13271428 7470952 L13261904 7480476 L13247619 7485238 L13223809 7485238 "/>
<path d="M13395238 7394761 L13400000 7390000 L13409523 7385238 L13433333 7385238 L13442857 7390000 L13447619 7394761 L13452380 7404285 L13452380 7413809 L13447619 7428095 L13390476 7485238 L13452380 7485238 "/>
</g><text x="14270000.000000" y="7490000.000000" textLength="462357.100000" font-size="133333.300000" lengthAdjust="spacingAndGlyphs" text-anchor="middle" opacity="0">LED 3</text>
<g class="stroked-text"><desc>LED 3</desc>
<path d="M14120000 7485238 L14072380 7485238 L14072380 7385238 "/>
<path d="M14153333 7432857 L14186666 7432857 "/>
<path d="M14200952 7485238 L14153333 7485238 L14153333 7385238 L14200952 7385238 "/>
<path d="M14243809 7485238 L14243809 7385238 L14267619 7385238 L14281904 7390000 L14291428 7399523 L14296190 7409047 L14300952 7428095 L14300952 7442380 L14296190 7461428 L14291428 7470952 L14281904 7480476 L14267619 7485238 L14243809 7485238 "/>
<path d="M14410476 7385238 L14472380 7385238 L14439047 7423333 L14453333 7423333 L14462857 7428095 L14467619 7432857 L14472380 7442380 L14472380 7466190 L14467619 7475714 L14462857 7480476 L14453333 7485238 L14424761 7485238 L14415238 7480476 L14410476 7475714 "/>
</g><text x="15280000.000000" y="7490000.000000" textLength="462357.100000" font-size="133333.300000" lengthAdjust="spacingAndGlyphs" text-anchor="middle" opacity="0">LED 4</text>
<g class="stroked-text"><desc>LED 4</desc>
<path d="M15130000 7485238 L15082380 7485238 L15082380 7385238 "/>
<path d="M15163333 7432857 L15196666 7432857 "/>
<path d="M15210952 7485238 L15163333 7485238 L15163333 7385238 L15210952 7385238 "/>
<path d="M15253809 7485238 L15253809 7385238 L15277619 7385238 L15291904 7390000 L15301428 7399523 L15306190 7409047 L15310952 7428095 L15310952 7442380 L15306190 7461428 L15301428 7470952 L15291904 7480476 L15277619 7485238 L15253809 7485238 "/>
<path d="M15472857 7418571 L15472857 7485238 "/>
<path d="M15449047 7380476 L15425238 7451904 L15487142 7451904 "/>
</g></g>
<g style="fill-opacity: 0.0;stroke-width: 12000.000000;stroke-opacity: 1;stroke-linecap: round;stroke-linejoin: round">
<path d="M19591000 5388000 L19591000 7312000 "/>
<path d="M19087000 5388000 L19087000 7312000 "/>
<path d="M19591000 5388000 L19087000 5388000 "/>
<path d="M19591000 7312000 L19087000 7312000 "/>
<path d="M19469000 5236000 L19469000 5387900 "/>
<path d="M19209000 5236000 L19209000 5387900 "/>
<path d="M19469000 5236000 L19209000 5236000 "/>
<path d="M19469000 5387900 L19209000 5387900 "/>
<path d="M19339000 5236000 L19339000 5311900 "/>
<path d="M18575000 5388000 L18575000 7312000 "/>
<path d="M18071000 5388000 L18071000 7312000 "/>
<path d="M18575000 5388000 L18071000 5388000 "/>
<path d="M18575000 7312000 L18071000 7312000 "/>
<path d="M18453000 5236000 L18453000 5387900 "/>
<path d="M18193000 5236000 L18193000 5387900 "/>
<path d="M18453000 5236000 L18193000 5236000 "/>
<path d="M18453000 5387900 L18193000 5387900 "/>
<path d="M18323000 5236000 L18323000 5311900 "/>
<path d="M16559000 5388000 L16559000 7312000 "/>
<path d="M16055000 5388000 L16055000 7312000 "/>
<path d="M16559000 5388000 L16055000 5388000 "/>
<path d="M16559000 7312000 L16055000 7312000 "/>
<path d="M16437000 5236000 L16437000 5387900 "/>
<path d="M16177000 5236000 L16177000 5387900 "/>
<path d="M16437000 5236000 L16177000 5236000 "/>
<path d="M16437000 5387900 L16177000 5387900 "/>
<path d="M16307000 5236000 L16307000 5311900 "/>
<path d="M17559000 5388000 L17559000 7312000 "/>
<path d="M17055000 5388000 L17055000 7312000 "/>
<path d="M17559000 5388000 L17055000 5388000 "/>
<path d="M17559000 7312000 L17055000 7312000 "/>
<path d="M17437000 5236000 L17437000 5387900 "/>
<path d="M17177000 5236000 L17177000 5387900 "/>
<path d="M17437000 5236000 L17177000 5236000 "/>
<path d="M17437000 5387900 L17177000 5387900 "/>
<path d="M17307000 5236000 L17307000 5311900 "/>
<path d="M16955000 8435000 L16955000 8510000 "/>
<path d="M16955000 8510000 L17305000 8510000 "/>
<path d="M17305000 8510000 L17305000 8435000 "/>
<path d="M17305000 8435000 L16955000 8435000 "/>
<path d="M16880000 8349000 L16880000 8510000 "/>
<path d="M16880000 8510000 L16805000 8510000 "/>
<path d="M16805000 8510000 L16805000 8435000 "/>
<path d="M16805000 8435000 L16705000 8435000 "/>
<path d="M16705000 8435000 L16705000 9115000 "/>
<path d="M16705000 9115000 L17130000 9115000 "/>
<path d="M17380000 8349000 L17380000 8510000 "/>
<path d="M17380000 8510000 L17455000 8510000 "/>
<path d="M17455000 8510000 L17455000 8435000 "/>
<path d="M17455000 8435000 L17555000 8435000 "/>
<path d="M17555000 8435000 L17555000 9115000 "/>
<path d="M17555000 9115000 L17130000 9115000 "/>
<path d="M16619000 8349000 L16619000 9201000 "/>
<path d="M16619000 9201000 L17641000 9201000 "/>
<path d="M17641000 9201000 L17641000 8349000 "/>
<path d="M17641000 8349000 L16619000 8349000 "/>
<path d="M16599000 8750000 L16539000 8780000 "/>
<path d="M16539000 8780000 L16539000 8720000 "/>
<path d="M16539000 8720000 L16599000 8750000 "/>
<path d="M14385000 8435000 L14385000 8510000 "/>
<path d="M14385000 8510000 L14735000 8510000 "/>
<path d="M14735000 8510000 L14735000 8435000 "/>
<path d="M14735000 8435000 L14385000 8435000 "/>
<path d="M14310000 8349000 L14310000 8510000 "/>
<path d="M14310000 8510000 L14235000 8510000 "/>
<path d="M14235000 8510000 L14235000 8435000 "/>
<path d="M14235000 8435000 L14135000 8435000 "/>
<path d="M14135000 8435000 L14135000 9115000 "/>
<path d="M14135000 9115000 L14560000 9115000 "/>
<path d="M14810000 8349000 L14810000 8510000 "/>
<path d="M14810000 8510000 L14885000 8510000 "/>
<path d="M14885000 8510000 L14885000 8435000 "/>
<path d="M14885000 8435000 L14985000 8435000 "/>
<path d="M14985000 8435000 L14985000 9115000 "/>
<path d="M14985000 9115000 L14560000 9115000 "/>
<path d="M14049000 8349000 L14049000 9201000 "/>
<path d="M14049000 9201000 L15071000 9201000 "/>
<path d="M15071000 9201000 L15071000 8349000 "/>
<path d="M15071000 8349000 L14049000 8349000 "/>
<path d="M14029000 8750000 L13969000 8780000 "/>
<path d="M13969000 8780000 L13969000 8720000 "/>
<path d="M13969000 8720000 L14029000 8750000 "/>
<path d="M12479000 5388000 L12479000 7312000 "/>
<path d="M11975000 5388000 L11975000 7312000 "/>
<path d="M12479000 5388000 L11975000 5388000 "/>
<path d="M12479000 7312000 L11975000 7312000 "/>
<path d="M12357000 5236000 L12357000 5387900 "/>
<path d="M12097000 5236000 L12097000 5387900 "/>
<path d="M12357000 5236000 L12097000 5236000 "/>
<path d="M12357000 5387900 L12097000 5387900 "/>
<path d="M12227000 5236000 L12227000 5311900 "/>
<path d="M13243000 5236000 L13243000 5311900 "/>
<path d="M13373000 5387900 L13113000 5387900 "/>
<path d="M13373000 5236000 L13113000 5236000 "/>
<path d="M13113000 5236000 L13113000 5387900 "/>
<path d="M13373000 5236000 L13373000 5387900 "/>
<path d="M13495000 7312000 L12991000 7312000 "/>
<path d="M13495000 5388000 L12991000 5388000 "/>
<path d="M12991000 5388000 L12991000 7312000 "/>
<path d="M13495000 5388000 L13495000 7312000 "/>
<path d="M14511000 5388000 L14511000 7312000 "/>
<path d="M14007000 5388000 L14007000 7312000 "/>
<path d="M14511000 5388000 L14007000 5388000 "/>
<path d="M14511000 7312000 L14007000 7312000 "/>
<path d="M14389000 5236000 L14389000 5387900 "/>
<path d="M14129000 5236000 L14129000 5387900 "/>
<path d="M14389000 5236000 L14129000 5236000 "/>
<path d="M14389000 5387900 L14129000 5387900 "/>
<path d="M14259000 5236000 L14259000 5311900 "/>
<path d="M15275000 5236000 L15275000 5311900 "/>
<path d="M15405000 5387900 L15145000 5387900 "/>
<path d="M15405000 5236000 L15145000 5236000 "/>
<path d="M15145000 5236000 L15145000 5387900 "/>
<path d="M15405000 5236000 L15405000 5387900 "/>
<path d="M15527000 7312000 L15023000 7312000 "/>
<path d="M15527000 5388000 L15023000 5388000 "/>
<path d="M15023000 5388000 L15023000 7312000 "/>
<path d="M15527000 5388000 L15527000 7312000 "/>
</g> 
</g><g id="substrate-outline" style="fill:#000000; stroke:#000000; stroke-width: 15000.0"><g style="fill-opacity: 0.0;stroke-opacity: 1;stroke-linecap: round;stroke-linejoin: round">
<path d="M19800000 5400000 L19800000 9400000 "/>
<path d="M11800000 9400000 L19800000 9400000 "/>
<path d="M11800000 5400000 L11800000 9400000 "/>
<path d="M19800000 5400000 L11800000 5400000 "/>
</g> 
<path d="M -50000.0 0.0 A 50000.0 50000.0 0 1 1 50000.0 0.0 L 50000.0 -0.0 A 50000.0 50000.0 0 1 1 -50000.0 -0.0 Z" transform="translate(19212000.0 5730000.0) rotate(-270.0)"/><path d="M -50000.0 0.0 A 50000.0 50000.0 0 1 1 50000.0 0.0 L 50000.0 -0.0 A 50000.0 50000.0 0 1 1 -50000.0 -0.0 Z" transform="translate(19466000.0 6238000.0) rotate(-270.0)"/><path d="M -50000.0 0.0 A 50000.0 50000.0 0 1 1 50000.0 0.0 L 50000.0 -0.0 A 50000.0 50000.0 0 1 1 -50000.0 -0.0 Z" transform="translate(19212000.0 7000000.0) rotate(-270.0)"/><path d="M -50000.0 0.0 A 50000.0 50000.0 0 1 1 50000.0 0.0 L 50000.0 -0.0 A 50000.0 50000.0 0 1 1 -50000.0 -0.0 Z" transform="translate(18196000.0 5730000.0) rotate(-270.0)"/><path d="M -50000.0 0.0 A 50000.0 50000.0 0 1 1 50000.0 0.0 L 50000.0 -0.0 A 50000.0 50000.0 0 1 1 -50000.0 -0.0 Z" transform="translate(18450000.0 6238000.0) rotate(-270.0)"/><path d="M -50000.0 0.0 A 50000.0 50000.0 0 1 1 50000.0 0.0 L 50000.0 -0.0 A 50000.0 50000.0 0 1 1 -50000.0 -0.0 Z" transform="translate(18196000.0 7000000.0) rotate(-270.0)"/><path d="M -50000.0 0.0 A 50000.0 50000.0 0 1 1 50000.0 0.0 L 50000.0 -0.0 A 50000.0 50000.0 0 1 1 -50000.0 -0.0 Z" transform="translate(16180000.0 5730000.0) rotate(-270.0)"/><path d="M -50000.0 0.0 A 50000.0 50000.0 0 1 1 50000.0 0.0 L 50000.0 -0.0 A 50000.0 50000.0 0 1 1 -50000.0 -0.0 Z" transform="translate(16434000.0 6238000.0) rotate(-270.0)"/><path d="M -50000.0 0.0 A 50000.0 50000.0 0 1 1 50000.0 0.0 L 50000.0 -0.0 A 50000.0 50000.0 0 1 1 -50000.0 -0.0 Z" transform="translate(16180000.0 7000000.0) rotate(-270.0)"/><path d="M -50000.0 0.0 A 50000.0 50000.0 0 1 1 50000.0 0.0 L 50000.0 -0.0 A 50000.0 50000.0 0 1 1 -50000.0 -0.0 Z" transform="translate(17180000.0 5730000.0) rotate(-270.0)"/><path d="M -50000.0 0.0 A 50000.0 50000.0 0 1 1 50000.0 0.0 L 50000.0 -0.0 A 50000.0 50000.0 0 1 1 -50000.0 -0.0 Z" transform="translate(17434000.0 6238000.0) rotate(-270.0)"/><path d="M -50000.0 0.0 A 50000.0 50000.0 0 1 1 50000.0 0.0 L 50000.0 -0.0 A 50000.0 50000.0 0 1 1 -50000.0 -0.0 Z" transform="translate(17180000.0 7000000.0) rotate(-270.0)"/><path d="M -37500.0 0.0 A 37500.0 37500.0 0 1 1 37500.0 0.0 L 37500.0 -0.0 A 37500.0 37500.0 0 1 1 -37500.0 -0.0 Z" transform="translate(17430000.0 8950000.0) rotate(-0.0)"/><path d="M -37500.0 0.0 A 37500.0 37500.0 0 1 1 37500.0 0.0 L 37500.0 -0.0 A 37500.0 37500.0 0 1 1 -37500.0 -0.0 Z" transform="translate(17230000.0 8950000.0) rotate(-0.0)"/><path d="M -37500.0 0.0 A 37500.0 37500.0 0 1 1 37500.0 0.0 L 37500.0 -0.0 A 37500.0 37500.0 0 1 1 -37500.0 -0.0 Z" transform="translate(17030000.0 8950000.0) rotate(-0.0)"/><path d="M -37500.0 0.0 A 37500.0 37500.0 0 1 1 37500.0 0.0 L 37500.0 -0.0 A 37500.0 37500.0 0 1 1 -37500.0 -0.0 Z" transform="translate(16830000.0 8950000.0) rotate(-0.0)"/><path d="M -37500.0 0.0 A 37500.0 37500.0 0 1 1 37500.0 0.0 L 37500.0 -0.0 A 37500.0 37500.0 0 1 1 -37500.0 -0.0 Z" transform="translate(17430000.0 8750000.0) rotate(-0.0)"/><path d="M -37500.0 0.0 A 37500.0 37500.0 0 1 1 37500.0 0.0 L 37500.0 -0.0 A 37500.0 37500.0 0 1 1 -37500.0 -0.0 Z" transform="translate(17230000.0 8750000.0) rotate(-0.0)"/><path d="M -37500.0 0.0 A 37500.0 37500.0 0 1 1 37500.0 0.0 L 37500.0 -0.0 A 37500.0 37500.0 0 1 1 -37500.0 -0.0 Z" transform="translate(17030000.0 8750000.0) rotate(-0.0)"/><path d="M -37500.0 0.0 A 37500.0 37500.0 0 1 1 37500.0 0.0 L 37500.0 -0.0 A 37500.0 37500.0 0 1 1 -37500.0 -0.0 Z" transform="translate(16830000.0 8750000.0) rotate(-0.0)"/><path d="M -37500.0 0.0 A 37500.0 37500.0 0 1 1 37500.0 0.0 L 37500.0 -0.0 A 37500.0 37500.0 0 1 1 -37500.0 -0.0 Z" transform="translate(14860000.0 8950000.0) rotate(-0.0)"/><path d="M -37500.0 0.0 A 37500.0 37500.0 0 1 1 37500.0 0.0 L 37500.0 -0.0 A 37500.0 37500.0 0 1 1 -37500.0 -0.0 Z" transform="translate(14660000.0 8950000.0) rotate(-0.0)"/><path d="M -37500.0 0.0 A 37500.0 37500.0 0 1 1 37500.0 0.0 L 37500.0 -0.0 A 37500.0 37500.0 0 1 1 -37500.0 -0.0 Z" transform="translate(14460000.0 8950000.0) rotate(-0.0)"/><path d="M -37500.0 0.0 A 37500.0 37500.0 0 1 1 37500.0 0.0 L 37500.0 -0.0 A 37500.0 37500.0 0 1 1 -37500.0 -0.0 Z" transform="translate(14260000.0 8950000.0) rotate(-0.0)"/><path d="M -37500.0 0.0 A 37500.0 37500.0 0 1 1 37500.0 0.0 L 37500.0 -0.0 A 37500.0 37500.0 0 1 1 -37500.0 -0.0 Z" transform="translate(14860000.0 8750000.0) rotate(-0.0)"/><path d="M -37500.0 0.0 A 37500.0 37500.0 0 1 1 37500.0 0.0 L 37500.0 -0.0 A 37500.0 37500.0 0 1 1 -37500.0 -0.0 Z" transform="translate(14660000.0 8750000.0) rotate(-0.0)"/><path d="M -37500.0 0.0 A 37500.0 37500.0 0 1 1 37500.0 0.0 L 37500.0 -0.0 A 37500.0 37500.0 0 1 1 -37500.0 -0.0 Z" transform="translate(14460000.0 8750000.0) rotate(-0.0)"/><path d="M -37500.0 0.0 A 37500.0 37500.0 0 1 1 37500.0 0.0 L 37500.0 -0.0 A 37500.0 37500.0 0 1 1 -37500.0 -0.0 Z" transform="translate(14260000.0 8750000.0) rotate(-0.0)"/><path d="M -50000.0 0.0 A 50000.0 50000.0 0 1 1 50000.0 0.0 L 50000.0 -0.0 A 50000.0 50000.0 0 1 1 -50000.0 -0.0 Z" transform="translate(12100000.0 5730000.0) rotate(-270.0)"/><path d="M -50000.0 0.0 A 50000.0 50000.0 0 1 1 50000.0 0.0 L 50000.0 -0.0 A 50000.0 50000.0 0 1 1 -50000.0 -0.0 Z" transform="translate(12354000.0 6238000.0) rotate(-270.0)"/><path d="M -50000.0 0.0 A 50000.0 50000.0 0 1 1 50000.0 0.0 L 50000.0 -0.0 A 50000.0 50000.0 0 1 1 -50000.0 -0.0 Z" transform="translate(12100000.0 7000000.0) rotate(-270.0)"/><path d="M -50000.0 0.0 A 50000.0 50000.0 0 1 1 50000.0 0.0 L 50000.0 -0.0 A 50000.0 50000.0 0 1 1 -50000.0 -0.0 Z" transform="translate(13116000.0 7000000.0) rotate(-270.0)"/><path d="M -50000.0 0.0 A 50000.0 50000.0 0 1 1 50000.0 0.0 L 50000.0 -0.0 A 50000.0 50000.0 0 1 1 -50000.0 -0.0 Z" transform="translate(13370000.0 6238000.0) rotate(-270.0)"/><path d="M -50000.0 0.0 A 50000.0 50000.0 0 1 1 50000.0 0.0 L 50000.0 -0.0 A 50000.0 50000.0 0 1 1 -50000.0 -0.0 Z" transform="translate(13116000.0 5730000.0) rotate(-270.0)"/><path d="M -50000.0 0.0 A 50000.0 50000.0 0 1 1 50000.0 0.0 L 50000.0 -0.0 A 50000.0 50000.0 0 1 1 -50000.0 -0.0 Z" transform="translate(14132000.0 5730000.0) rotate(-270.0)"/><path d="M -50000.0 0.0 A 50000.0 50000.0 0 1 1 50000.0 0.0 L 50000.0 -0.0 A 50000.0 50000.0 0 1 1 -50000.0 -0.0 Z" transform="translate(14386000.0 6238000.0) rotate(-270.0)"/><path d="M -50000.0 0.0 A 50000.0 50000.0 0 1 1 50000.0 0.0 L 50000.0 -0.0 A 50000.0 50000.0 0 1 1 -50000.0 -0.0 Z" transform="translate(14132000.0 7000000.0) rotate(-270.0)"/><path d="M -50000.0 0.0 A 50000.0 50000.0 0 1 1 50000.0 0.0 L 50000.0 -0.0 A 50000.0 50000.0 0 1 1 -50000.0 -0.0 Z" transform="translate(15148000.0 7000000.0) rotate(-270.0)"/><path d="M -50000.0 0.0 A 50000.0 50000.0 0 1 1 50000.0 0.0 L 50000.0 -0.0 A 50000.0 50000.0 0 1 1 -50000.0 -0.0 Z" transform="translate(15402000.0 6238000.0) rotate(-270.0)"/><path d="M -50000.0 0.0 A 50000.0 50000.0 0 1 1 50000.0 0.0 L 50000.0 -0.0 A 50000.0 50000.0 0 1 1 -50000.0 -0.0 Z" transform="translate(15148000.0 5730000.0) rotate(-270.0)"/></g></g></g></svg>