<!DOCTYPE svg PUBLIC "-//W3C//DTD SVG 1.1//EN" "http://www.w3.org/Graphics/SVG/1.1/DTD/svg11.dtd">
<svg xmlns="http://www.w3.org/2000/svg" version="1.1" width="80.74mm" height="98.52mm" viewBox="6123000.0 4472000.0 8074000.0 9852000.0">
            <title>Picture generated by PcbDraw </title>
            <desc>Picture generated by PcbDraw</desc>
        <defs><clipPath id="cut-off"><path d=" M 9652000.0 14224000.0 L 11049000.0 14224000.0 L 14097000.0 10033000.0 L 14097000.0 4572000.0 L 6223000.0 4572000.0 L 6223000.0 10033000.0 L 9652000.0 14224000.0 " style="fill-rule: evenodd;"/></clipPath><mask id="pads-mask"><g style="fill:#ffffff; fill-opacity:0.0;  stroke:#ffffff; stroke-width:0.000000; stroke-opacity:1;  stroke-linecap:round; stroke-linejoin:round;">
<g style="fill:#ffffff; fill-opacity:1.0;  stroke:#ffffff; stroke-width:0.100000; stroke-opacity:1;  stroke-linecap:round; stroke-linejoin:round;">
<circle cx="9525000.000000" cy="4826000.000000" r="81300.000000"/> 
</g>
<g style="fill:#ffffff; fill-opacity:1.0;  stroke:#ffffff; stroke-width:0.100000; stroke-opacity:1;  stroke-linecap:round; stroke-linejoin:round;">
<circle cx="9779000.000000" cy="6858000.000000" r="81300.000000"/> 
</g>
<g style="fill:#ffffff; fill-opacity:1.0;  stroke:#ffffff; stroke-width:0.100000; stroke-opacity:1;  stroke-linecap:round; stroke-linejoin:round;">
<circle cx="11176000.000000" cy="5588000.000000" r="81300.000000"/> 
</g>
<g style="fill:#ffffff; fill-opacity:1.0;  stroke:#ffffff; stroke-width:0.100000; stroke-opacity:1;  stroke-linecap:round; stroke-linejoin:round;">
<circle cx="9194800.000000" cy="8813800.000000" r="81300.000000"/> 
</g>
<g style="fill:#ffffff; fill-opacity:1.0;  stroke:#ffffff; stroke-width:0.100000; stroke-opacity:1;  stroke-linecap:round; stroke-linejoin:round;">
<circle cx="13081000.000000" cy="6477000.000000" r="81300.000000"/> 
</g>
<g style="fill:#ffffff; fill-opacity:1.0;  stroke:#ffffff; stroke-width:0.100000; stroke-opacity:1;  stroke-linecap:round; stroke-linejoin:round;">
<circle cx="11595100.000000" cy="8115300.000000" r="81300.000000"/> 
</g>
<g style="fill:#ffffff; fill-opacity:1.0;  stroke:#ffffff; stroke-width:0.100000; stroke-opacity:1;  stroke-linecap:round; stroke-linejoin:round;">
<circle cx="13843000.000000" cy="7874000.000000" r="81300.000000"/> 
</g>
<g style="fill:#ffffff; fill-opacity:1.0;  stroke:#ffffff; stroke-width:0.100000; stroke-opacity:1;  stroke-linecap:round; stroke-linejoin:round;">
<circle cx="9232900.000000" cy="8420100.000000" r="81300.000000"/> 
</g>
<g style="fill:#ffffff; fill-opacity:1.0;  stroke:#ffffff; stroke-width:0.100000; stroke-opacity:1;  stroke-linecap:round; stroke-linejoin:round;">
<circle cx="13589000.000000" cy="9525000.000000" r="81300.000000"/> 
</g>
<g style="fill:#ffffff; fill-opacity:1.0;  stroke:#ffffff; stroke-width:0.100000; stroke-opacity:1;  stroke-linecap:round; stroke-linejoin:round;">
<circle cx="9436100.000000" cy="8051800.000000" r="81300.000000"/> 
</g>
<g style="fill:#ffffff; fill-opacity:1.0;  stroke:#ffffff; stroke-width:0.100000; stroke-opacity:1;  stroke-linecap:round; stroke-linejoin:round;">
<circle cx="11430000.000000" cy="11684000.000000" r="81300.000000"/> 
</g>
<g style="fill:#ffffff; fill-opacity:1.0;  stroke:#ffffff; stroke-width:0.100000; stroke-opacity:1;  stroke-linecap:round; stroke-linejoin:round;">
<circle cx="9817100.000000" cy="7747000.000000" r="81300.000000"/> 
</g>
<g style="fill:#ffffff; fill-opacity:1.0;  stroke:#ffffff; stroke-width:0.100000; stroke-opacity:1;  stroke-linecap:round; stroke-linejoin:round;">
<circle cx="7620000.000000" cy="9525000.000000" r="81300.000000"/> 
</g>
<g style="fill:#ffffff; fill-opacity:1.0;  stroke:#ffffff; stroke-width:0.100000; stroke-opacity:1;  stroke-linecap:round; stroke-linejoin:round;">
<circle cx="11112500.000000" cy="7785100.000000" r="81300.000000"/> 
</g>
<g style="fill:#ffffff; fill-opacity:1.0;  stroke:#ffffff; stroke-width:0.100000; stroke-opacity:1;  stroke-linecap:round; stroke-linejoin:round;">
<circle cx="6477000.000000" cy="8255000.000000" r="81300.000000"/> 
</g>
<g style="fill:#ffffff; fill-opacity:1.0;  stroke:#ffffff; stroke-width:0.100000; stroke-opacity:1;  stroke-linecap:round; stroke-linejoin:round;">
<circle cx="9105900.000000" cy="9194800.000000" r="81300.000000"/> 
</g>
<g style="fill:#ffffff; fill-opacity:1.0;  stroke:#ffffff; stroke-width:0.100000; stroke-opacity:1;  stroke-linecap:round; stroke-linejoin:round;">
<circle cx="9271000.000000" cy="12192000.000000" r="81300.000000"/> 
</g>
<g style="fill:#ffffff; fill-opacity:1.0;  stroke:#ffffff; stroke-width:0.100000; stroke-opacity:1;  stroke-linecap:round; stroke-linejoin:round;">
<circle cx="10426700.000000" cy="7708900.000000" r="81300.000000"/> 
</g>
<g style="fill:#ffffff; fill-opacity:1.0;  stroke:#ffffff; stroke-width:0.100000; stroke-opacity:1;  stroke-linecap:round; stroke-linejoin:round;">
<circle cx="10287000.000000" cy="10287000.000000" r="81300.000000"/> 
</g>
<g style="fill:#ffffff; fill-opacity:1.0;  stroke:#ffffff; stroke-width:0.100000; stroke-opacity:1;  stroke-linecap:round; stroke-linejoin:round;">
<circle cx="11684000.000000" cy="8585200.000000" r="81300.000000"/> 
</g>
<g style="fill:#ffffff; fill-opacity:1.0;  stroke:#ffffff; stroke-width:0.100000; stroke-opacity:1;  stroke-linecap:round; stroke-linejoin:round;">
<circle cx="7874000.000000" cy="6731000.000000" r="81300.000000"/> 
</g>
<g style="fill:#ffffff; fill-opacity:1.0;  stroke:#ffffff; stroke-width:0.100000; stroke-opacity:1;  stroke-linecap:round; stroke-linejoin:round;">
<circle cx="11684000.000000" cy="8940800.000000" r="81300.000000"/> 
</g>
<g style="fill:#ffffff; fill-opacity:1.0;  stroke:#ffffff; stroke-width:0.100000; stroke-opacity:1;  stroke-linecap:round; stroke-linejoin:round;">
<circle cx="11531600.000000" cy="9398000.000000" r="81300.000000"/> 
</g>
<g style="fill:#ffffff; fill-opacity:1.0;  stroke:#ffffff; stroke-width:0.100000; stroke-opacity:1;  stroke-linecap:round; stroke-linejoin:round;">
<circle cx="9296400.000000" cy="9652000.000000" r="81300.000000"/> 
</g>
</g> 
</mask><mask id="pads-mask-silkscreen"><rect x="6215500.0" y="4564500.0" width="7889000.0" height="9667000.0" fill="white"/><g style="fill:#000000; fill-opacity:0.0;  stroke:#000000; stroke-width:0.000000; stroke-opacity:1;  stroke-linecap:round; stroke-linejoin:round;">
<g style="fill:#000000; fill-opacity:1.0;  stroke:#000000; stroke-width:0.100000; stroke-opacity:1;  stroke-linecap:round; stroke-linejoin:round;">
<circle cx="9525000.000000" cy="4826000.000000" r="81300.000000"/> 
</g>
<g style="fill:#000000; fill-opacity:1.0;  stroke:#000000; stroke-width:0.100000; stroke-opacity:1;  stroke-linecap:round; stroke-linejoin:round;">
<circle cx="9779000.000000" cy="6858000.000000" r="81300.000000"/> 
</g>
<g style="fill:#000000; fill-opacity:1.0;  stroke:#000000; stroke-width:0.100000; stroke-opacity:1;  stroke-linecap:round; stroke-linejoin:round;">
<circle cx="11176000.000000" cy="5588000.000000" r="81300.000000"/> 
</g>
<g style="fill:#000000; fill-opacity:1.0;  stroke:#000000; stroke-width:0.100000; stroke-opacity:1;  stroke-linecap:round; stroke-linejoin:round;">
<circle cx="9194800.000000" cy="8813800.000000" r="81300.000000"/> 
</g>
<g style="fill:#000000; fill-opacity:1.0;  stroke:#000000; stroke-width:0.100000; stroke-opacity:1;  stroke-linecap:round; stroke-linejoin:round;">
<circle cx="13081000.000000" cy="6477000.000000" r="81300.000000"/> 
</g>
<g style="fill:#000000; fill-opacity:1.0;  stroke:#000000; stroke-width:0.100000; stroke-opacity:1;  stroke-linecap:round; stroke-linejoin:round;">
<circle cx="11595100.000000" cy="8115300.000000" r="81300.000000"/> 
</g>
<g style="fill:#000000; fill-opacity:1.0;  stroke:#000000; stroke-width:0.100000; stroke-opacity:1;  stroke-linecap:round; stroke-linejoin:round;">
<circle cx="13843000.000000" cy="7874000.000000" r="81300.000000"/> 
</g>
<g style="fill:#000000; fill-opacity:1.0;  stroke:#000000; stroke-width:0.100000; stroke-opacity:1;  stroke-linecap:round; stroke-linejoin:round;">
<circle cx="9232900.000000" cy="8420100.000000" r="81300.000000"/> 
</g>
<g style="fill:#000000; fill-opacity:1.0;  stroke:#000000; stroke-width:0.100000; stroke-opacity:1;  stroke-linecap:round; stroke-linejoin:round;">
<circle cx="13589000.000000" cy="9525000.000000" r="81300.000000"/> 
</g>
<g style="fill:#000000; fill-opacity:1.0;  stroke:#000000; stroke-width:0.100000; stroke-opacity:1;  stroke-linecap:round; stroke-linejoin:round;">
<circle cx="9436100.000000" cy="8051800.000000" r="81300.000000"/> 
</g>
<g style="fill:#000000; fill-opacity:1.0;  stroke:#000000; stroke-width:0.100000; stroke-opacity:1;  stroke-linecap:round; stroke-linejoin:round;">
<circle cx="11430000.000000" cy="11684000.000000" r="81300.000000"/> 
</g>
<g style="fill:#000000; fill-opacity:1.0;  stroke:#000000; stroke-width:0.100000; stroke-opacity:1;  stroke-linecap:round; stroke-linejoin:round;">
<circle cx="9817100.000000" cy="7747000.000000" r="81300.000000"/> 
</g>
<g style="fill:#000000; fill-opacity:1.0;  stroke:#000000; stroke-width:0.100000; stroke-opacity:1;  stroke-linecap:round; stroke-linejoin:round;">
<circle cx="7620000.000000" cy="9525000.000000" r="81300.000000"/> 
</g>
<g style="fill:#000000; fill-opacity:1.0;  stroke:#000000; stroke-width:0.100000; stroke-opacity:1;  stroke-linecap:round; stroke-linejoin:round;">
<circle cx="11112500.000000" cy="7785100.000000" r="81300.000000"/> 
</g>
<g style="fill:#000000; fill-opacity:1.0;  stroke:#000000; stroke-width:0.100000; stroke-opacity:1;  stroke-linecap:round; stroke-linejoin:round;">
<circle cx="6477000.000000" cy="8255000.000000" r="81300.000000"/> 
</g>
<g style="fill:#000000; fill-opacity:1.0;  stroke:#000000; stroke-width:0.100000; stroke-opacity:1;  stroke-linecap:round; stroke-linejoin:round;">
<circle cx="9105900.000000" cy="9194800.000000" r="81300.000000"/> 
</g>
<g style="fill:#000000; fill-opacity:1.0;  stroke:#000000; stroke-width:0.100000; stroke-opacity:1;  stroke-linecap:round; stroke-linejoin:round;">
<circle cx="9271000.000000" cy="12192000.000000" r="81300.000000"/> 
</g>
<g style="fill:#000000; fill-opacity:1.0;  stroke:#000000; stroke-width:0.100000; stroke-opacity:1;  stroke-linecap:round; stroke-linejoin:round;">
<circle cx="10426700.000000" cy="7708900.000000" r="81300.000000"/> 
</g>
<g style="fill:#000000; fill-opacity:1.0;  stroke:#000000; stroke-width:0.100000; stroke-opacity:1;  stroke-linecap:round; stroke-linejoin:round;">
<circle cx="10287000.000000" cy="10287000.000000" r="81300.000000"/> 
</g>
<g style="fill:#000000; fill-opacity:1.0;  stroke:#000000; stroke-width:0.100000; stroke-opacity:1;  stroke-linecap:round; stroke-linejoin:round;">
<circle cx="11684000.000000" cy="8585200.000000" r="81300.000000"/> 
</g>
<g style="fill:#000000; fill-opacity:1.0;  stroke:#000000; stroke-width:0.100000; stroke-opacity:1;  stroke-linecap:round; stroke-linejoin:round;">
<circle cx="7874000.000000" cy="6731000.000000" r="81300.000000"/> 
</g>
<g style="fill:#000000; fill-opacity:1.0;  stroke:#000000; stroke-width:0.100000; stroke-opacity:1;  stroke-linecap:round; stroke-linejoin:round;">
<circle cx="11684000.000000" cy="8940800.000000" r="81300.000000"/> 
</g>
<g style="fill:#000000; fill-opacity:1.0;  stroke:#000000; stroke-width:0.100000; stroke-opacity:1;  stroke-linecap:round; stroke-linejoin:round;">
<circle cx="11531600.000000" cy="9398000.000000" r="81300.000000"/> 
</g>
<g style="fill:#000000; fill-opacity:1.0;  stroke:#000000; stroke-width:0.100000; stroke-opacity:1;  stroke-linecap:round; stroke-linejoin:round;">
<circle cx="9296400.000000" cy="9652000.000000" r="81300.000000"/> 
</g>
</g> 
</mask><mask id="hole-mask"><g><rect x="6215500.0" y="4564500.0" fill="white" width="7889000.0" height="9667000.0"/><polyline stroke-linecap="round" stroke="black" stroke-width="40000.0" points="-0.0 0 0.0 0" transform="translate(10058400.0 13411200.0) rotate(0)"/><polyline stroke-linecap="round" stroke="black" stroke-width="40000.0" points="-0.0 0 0.0 0" transform="translate(10934700.0 12636500.0) rotate(0)"/><polyline stroke-linecap="round" stroke="black" stroke-width="40000.0" points="-0.0 0 0.0 0" transform="translate(10528300.0 9347200.0) rotate(0)"/><polyline stroke-linecap="round" stroke="black" stroke-width="40000.0" points="-0.0 0 0.0 0" transform="translate(10528300.0 8864600.0) rotate(0)"/><polyline stroke-linecap="round" stroke="black" stroke-width="40000.0" points="-0.0 0 0.0 0" transform="translate(10782765.3 8217365.3) rotate(0)"/><polyline stroke-linecap="round" stroke="black" stroke-width="40000.0" points="-0.0 0 0.0 0" transform="translate(10096500.0 11798300.0) rotate(0)"/><polyline stroke-linecap="round" stroke="black" stroke-width="40000.0" points="-0.0 0 0.0 0" transform="translate(10414000.0 11176000.0) rotate(0)"/><polyline stroke-linecap="round" stroke="black" stroke-width="40000.0" points="-0.0 0 0.0 0" transform="translate(11206001.0 9969500.0) rotate(0)"/><polyline stroke-linecap="round" stroke="black" stroke-width="40000.0" points="-0.0 0 0.0 0" transform="translate(11442700.0 9969500.0) rotate(0)"/><polyline stroke-linecap="round" stroke="black" stroke-width="40000.0" points="-0.0 0 0.0 0" transform="translate(11176000.0 11226800.0) rotate(0)"/><polyline stroke-linecap="round" stroke="black" stroke-width="40000.0" points="-0.0 0 0.0 0" transform="translate(10642600.0 8940800.0) rotate(0)"/><polyline stroke-linecap="round" stroke="black" stroke-width="40000.0" points="-0.0 0 0.0 0" transform="translate(10642600.0 9842500.4) rotate(0)"/><polyline stroke-linecap="round" stroke="black" stroke-width="40000.0" points="-0.0 0 0.0 0" transform="translate(11049000.0 9842500.2) rotate(0)"/><polyline stroke-linecap="round" stroke="black" stroke-width="40000.0" points="-0.0 0 0.0 0" transform="translate(9855200.0 9944100.0) rotate(0)"/><polyline stroke-linecap="round" stroke="black" stroke-width="40000.0" points="-0.0 0 0.0 0" transform="translate(10109200.0 9118600.0) rotate(0)"/><polyline stroke-linecap="round" stroke="black" stroke-width="40000.0" points="-0.0 0 0.0 0" transform="translate(10671700.0 10134600.0) rotate(0)"/><polyline stroke-linecap="round" stroke="black" stroke-width="40000.0" points="-0.0 0 0.0 0" transform="translate(10312400.6 9994900.0) rotate(0)"/><polyline stroke-linecap="round" stroke="black" stroke-width="40000.0" points="-0.0 0 0.0 0" transform="translate(10883900.0 8204200.0) rotate(0)"/><polyline stroke-linecap="round" stroke="black" stroke-width="40000.0" points="-0.0 0 0.0 0" transform="translate(10858500.0 8585200.0) rotate(0)"/><polyline stroke-linecap="round" stroke="black" stroke-width="40000.0" points="-0.0 0 0.0 0" transform="translate(9652000.0 5207000.0) rotate(0)"/><polyline stroke-linecap="round" stroke="black" stroke-width="40000.0" points="-0.0 0 0.0 0" transform="translate(9525000.0 7112000.0) rotate(0)"/><polyline stroke-linecap="round" stroke="black" stroke-width="40000.0" points="-0.0 0 0.0 0" transform="translate(10922000.0 5842000.0) rotate(0)"/><polyline stroke-linecap="round" stroke="black" stroke-width="40000.0" points="-0.0 0 0.0 0" transform="translate(9715500.0 9004300.0) rotate(0)"/><polyline stroke-linecap="round" stroke="black" stroke-width="40000.0" points="-0.0 0 0.0 0" transform="translate(12573000.0 6477000.0) rotate(0)"/><polyline stroke-linecap="round" stroke="black" stroke-width="40000.0" points="-0.0 0 0.0 0" transform="translate(11036300.0 8432800.0) rotate(0)"/><polyline stroke-linecap="round" stroke="black" stroke-width="40000.0" points="-0.0 0 0.0 0" transform="translate(13589000.0 7493000.0) rotate(0)"/><polyline stroke-linecap="round" stroke="black" stroke-width="40000.0" points="-0.0 0 0.0 0" transform="translate(9715500.0 8877300.0) rotate(0)"/><polyline stroke-linecap="round" stroke="black" stroke-width="40000.0" points="-0.0 0 0.0 0" transform="translate(13589000.0 9144000.0) rotate(0)"/><polyline stroke-linecap="round" stroke="black" stroke-width="40000.0" points="-0.0 0 0.0 0" transform="translate(9709615.3 8768884.7) rotate(0)"/><polyline stroke-linecap="round" stroke="black" stroke-width="40000.0" points="-0.0 0 0.0 0" transform="translate(11328400.0 11303000.0) rotate(0)"/><polyline stroke-linecap="round" stroke="black" stroke-width="40000.0" points="-0.0 0 0.0 0" transform="translate(10058400.0 8775700.0) rotate(0)"/><polyline stroke-linecap="round" stroke="black" stroke-width="40000.0" points="-0.0 0 0.0 0" transform="translate(8001000.0 9652000.0) rotate(0)"/><polyline stroke-linecap="round" stroke="black" stroke-width="40000.0" points="-0.0 0 0.0 0" transform="translate(10867501.0 9309100.0) rotate(0)"/><polyline stroke-linecap="round" stroke="black" stroke-width="40000.0" points="-0.0 0 0.0 0" transform="translate(6985000.0 8382000.0) rotate(0)"/><polyline stroke-linecap="round" stroke="black" stroke-width="40000.0" points="-0.0 0 0.0 0" transform="translate(9715500.0 9105900.0) rotate(0)"/><polyline stroke-linecap="round" stroke="black" stroke-width="40000.0" points="-0.0 0 0.0 0" transform="translate(9271000.0 11811000.0) rotate(0)"/><polyline stroke-linecap="round" stroke="black" stroke-width="40000.0" points="-0.0 0 0.0 0" transform="translate(9724500.0 8559800.0) rotate(0)"/><polyline stroke-linecap="round" stroke="black" stroke-width="40000.0" points="-0.0 0 0.0 0" transform="translate(10375900.0 9334500.0) rotate(0)"/><polyline stroke-linecap="round" stroke="black" stroke-width="40000.0" points="-0.0 0 0.0 0" transform="translate(11226800.0 8868300.0) rotate(0)"/><polyline stroke-linecap="round" stroke="black" stroke-width="40000.0" points="-0.0 0 0.0 0" transform="translate(7874000.0 6985000.0) rotate(0)"/><polyline stroke-linecap="round" stroke="black" stroke-width="40000.0" points="-0.0 0 0.0 0" transform="translate(11010900.0 9499600.0) rotate(0)"/><polyline stroke-linecap="round" stroke="black" stroke-width="40000.0" points="-0.0 0 0.0 0" transform="translate(10960100.0 11239500.0) rotate(0)"/><polyline stroke-linecap="round" stroke="black" stroke-width="40000.0" points="-0.0 0 0.0 0" transform="translate(10337800.0 11734800.0) rotate(0)"/><polyline stroke-linecap="round" stroke="black" stroke-width="40000.0" points="-0.0 0 0.0 0" transform="translate(10655300.0 11430000.2) rotate(0)"/><polyline stroke-linecap="round" stroke="black" stroke-width="40000.0" points="-0.0 0 0.0 0" transform="translate(10972800.0 12026900.0) rotate(0)"/><polyline stroke-linecap="round" stroke="black" stroke-width="40000.0" points="-0.0 0 0.0 0" transform="translate(11036300.0 10693400.0) rotate(0)"/><polyline stroke-linecap="round" stroke="black" stroke-width="40000.0" points="-0.0 0 0.0 0" transform="translate(10312400.0 12877800.0) rotate(0)"/><polyline stroke-linecap="round" stroke="black" stroke-width="40000.0" points="-0.0 0 0.0 0" transform="translate(10769600.0 8763000.0) rotate(0)"/><polyline stroke-linecap="round" stroke="black" stroke-width="40000.0" points="-0.0 0 0.0 0" transform="translate(10566400.0 12877800.0) rotate(0)"/><polyline stroke-linecap="round" stroke="black" stroke-width="40000.0" points="-0.0 0 0.0 0" transform="translate(10883899.6 8699500.0) rotate(0)"/><polyline stroke-linecap="round" stroke="black" stroke-width="40000.0" points="-0.0 0 0.0 0" transform="translate(10045700.0 8597900.0) rotate(0)"/><polyline stroke-linecap="round" stroke="black" stroke-width="40000.0" points="-0.0 0 0.0 0" transform="translate(10655300.0 9982200.0) rotate(0)"/><polyline stroke-linecap="round" stroke="black" stroke-width="40000.0" points="-0.0 0 0.0 0" transform="translate(9944100.0 9525000.0) rotate(0)"/><polyline stroke-linecap="round" stroke="black" stroke-width="40000.0" points="-0.0 0 0.0 0" transform="translate(10553700.0 11836400.0) rotate(0)"/><polyline stroke-linecap="round" stroke="black" stroke-width="40000.0" points="-0.0 0 0.0 0" transform="translate(10883900.0 11404600.0) rotate(0)"/><polyline stroke-linecap="round" stroke="black" stroke-width="40000.0" points="-0.0 0 0.0 0" transform="translate(11201400.0 9474200.0) rotate(0)"/><polyline stroke-linecap="round" stroke="black" stroke-width="40000.0" points="-0.0 0 0.0 0" transform="translate(11228872.1 9162147.4) rotate(0)"/><polyline stroke-linecap="round" stroke="black" stroke-width="40000.0" points="-0.0 0 0.0 0" transform="translate(10883900.0 9715500.0) rotate(0)"/><polyline stroke-linecap="round" stroke="black" stroke-width="40000.0" points="-0.0 0 0.0 0" transform="translate(11201400.0 9258300.0) rotate(0)"/></g></mask></defs><g transform="" id="boardContainer"><g id="substrate" clip-path="url(#cut-off)" mask="url(#hole-mask)"><g id="substrate-board" style="fill:#4ca06c; stroke:#4ca06c;"><path d=" M 9652000.0 14224000.0 L 11049000.0 14224000.0 L 14097000.0 10033000.0 L 14097000.0 4572000.0 L 6223000.0 4572000.0 L 6223000.0 10033000.0 L 9652000.0 14224000.0 " style="fill-rule: evenodd;"/><g style="fill-opacity: 0.0;stroke-width: 15000.000000;stroke-opacity: 1;stroke-linecap: round;stroke-linejoin: round">
<path d="M6223000 10033000 L9652000 14224000 "/>
<path d="M6223000 4572000 L6223000 10033000 "/>
<path d="M11049000 14224000 L9652000 14224000 "/>
<path d="M14097000 10033000 L11049000 14224000 "/>
<path d="M14097000 4572000 L14097000 10033000 "/>
<path d="M6223000 4572000 L14097000 4572000 "/>
</g> 
</g><g id="substrate-clad" style="fill:#9c6b28; stroke:#9c6b28;"><g style="fill-opacity: 0.0;stroke-width: 0.000000;stroke-opacity: 1;stroke-linecap: round;stroke-linejoin: round">
<g style="fill-opacity: 1.0;stroke-width: 0.100000;stroke-opacity: 1;stroke-linecap: round;stroke-linejoin: round">
<circle cx="9525000.000000" cy="4826000.000000" r="81300.000000"/> 
</g>
<g style="fill-opacity: 1.0;stroke-width: 0.100000;stroke-opacity: 1;stroke-linecap: round;stroke-linejoin: round">
<circle cx="9779000.000000" cy="6858000.000000" r="81300.000000"/> 
</g>
<g style="fill-opacity: 1.0;stroke-width: 0.100000;stroke-opacity: 1;stroke-linecap: round;stroke-linejoin: round">
<circle cx="11176000.000000" cy="5588000.000000" r="81300.000000"/> 
</g>
<g style="fill-opacity: 1.0;stroke-width: 0.100000;stroke-opacity: 1;stroke-linecap: round;stroke-linejoin: round">
<circle cx="9194800.000000" cy="8813800.000000" r="81300.000000"/> 
</g>
<g style="fill-opacity: 1.0;stroke-width: 0.100000;stroke-opacity: 1;stroke-linecap: round;stroke-linejoin: round">
<circle cx="13081000.000000" cy="6477000.000000" r="81300.000000"/> 
</g>
<g style="fill-opacity: 1.0;stroke-width: 0.100000;stroke-opacity: 1;stroke-linecap: round;stroke-linejoin: round">
<circle cx="11595100.000000" cy="8115300.000000" r="81300.000000"/> 
</g>
<g style="fill-opacity: 1.0;stroke-width: 0.100000;stroke-opacity: 1;stroke-linecap: round;stroke-linejoin: round">
<circle cx="13843000.000000" cy="7874000.000000" r="81300.000000"/> 
</g>
<g style="fill-opacity: 1.0;stroke-width: 0.100000;stroke-opacity: 1;stroke-linecap: round;stroke-linejoin: round">
<circle cx="9232900.000000" cy="8420100.000000" r="81300.000000"/> 
</g>
<g style="fill-opacity: 1.0;stroke-width: 0.100000;stroke-opacity: 1;stroke-linecap: round;stroke-linejoin: round">
<circle cx="13589000.000000" cy="9525000.000000" r="81300.000000"/> 
</g>
<g style="fill-opacity: 1.0;stroke-width: 0.100000;stroke-opacity: 1;stroke-linecap: round;stroke-linejoin: round">
<circle cx="9436100.000000" cy="8051800.000000" r="81300.000000"/> 
</g>
<g style="fill-opacity: 1.0;stroke-width: 0.100000;stroke-opacity: 1;stroke-linecap: round;stroke-linejoin: round">
<circle cx="11430000.000000" cy="11684000.000000" r="81300.000000"/> 
</g>
<g style="fill-opacity: 1.0;stroke-width: 0.100000;stroke-opacity: 1;stroke-linecap: round;stroke-linejoin: round">
<circle cx="9817100.000000" cy="7747000.000000" r="81300.000000"/> 
</g>
<g style="fill-opacity: 1.0;stroke-width: 0.100000;stroke-opacity: 1;stroke-linecap: round;stroke-linejoin: round">
<circle cx="7620000.000000" cy="9525000.000000" r="81300.000000"/> 
</g>
<g style="fill-opacity: 1.0;stroke-width: 0.100000;stroke-opacity: 1;stroke-linecap: round;stroke-linejoin: round">
<circle cx="11112500.000000" cy="7785100.000000" r="81300.000000"/> 
</g>
<g style="fill-opacity: 1.0;stroke-width: 0.100000;stroke-opacity: 1;stroke-linecap: round;stroke-linejoin: round">
<circle cx="6477000.000000" cy="8255000.000000" r="81300.000000"/> 
</g>
<g style="fill-opacity: 1.0;stroke-width: 0.100000;stroke-opacity: 1;stroke-linecap: round;stroke-linejoin: round">
<circle cx="9105900.000000" cy="9194800.000000" r="81300.000000"/> 
</g>
<g style="fill-opacity: 1.0;stroke-width: 0.100000;stroke-opacity: 1;stroke-linecap: round;stroke-linejoin: round">
<circle cx="9271000.000000" cy="12192000.000000" r="81300.000000"/> 
</g>
<g style="fill-opacity: 1.0;stroke-width: 0.100000;stroke-opacity: 1;stroke-linecap: round;stroke-linejoin: round">
<circle cx="10426700.000000" cy="7708900.000000" r="81300.000000"/> 
</g>
<g style="fill-opacity: 1.0;stroke-width: 0.100000;stroke-opacity: 1;stroke-linecap: round;stroke-linejoin: round">
<circle cx="10287000.000000" cy="10287000.000000" r="81300.000000"/> 
</g>
<g style="fill-opacity: 1.0;stroke-width: 0.100000;stroke-opacity: 1;stroke-linecap: round;stroke-linejoin: round">
<circle cx="11684000.000000" cy="8585200.000000" r="81300.000000"/> 
</g>
<g style="fill-opacity: 1.0;stroke-width: 0.100000;stroke-opacity: 1;stroke-linecap: round;stroke-linejoin: round">
<circle cx="7874000.000000" cy="6731000.000000" r="81300.000000"/> 
</g>
<g style="fill-opacity: 1.0;stroke-width: 0.100000;stroke-opacity: 1;stroke-linecap: round;stroke-linejoin: round">
<circle cx="11684000.000000" cy="8940800.000000" r="81300.000000"/> 
</g>
<g style="fill-opacity: 1.0;stroke-width: 0.100000;stroke-opacity: 1;stroke-linecap: round;stroke-linejoin: round">
<circle cx="11531600.000000" cy="9398000.000000" r="81300.000000"/> 
</g>
<g style="fill-opacity: 1.0;stroke-width: 0.100000;stroke-opacity: 1;stroke-linecap: round;stroke-linejoin: round">
<circle cx="9296400.000000" cy="9652000.000000" r="81300.000000"/> 
</g>
</g> 
</g><g id="substrate-copper" style="fill:#417e5a; stroke:#417e5a;"><g style="fill-opacity: 0.0;stroke-width: 0.000000;stroke-opacity: 1;stroke-linecap: round;stroke-linejoin: round">
<g style="fill-opacity: 1.0;stroke-width: 0.100000;stroke-opacity: 1;stroke-linecap: round;stroke-linejoin: round">
<circle cx="9525000.000000" cy="4826000.000000" r="76200.000000"/> 
</g>
<g style="fill-opacity: 1.0;stroke-width: 0.100000;stroke-opacity: 1;stroke-linecap: round;stroke-linejoin: round">
<circle cx="9779000.000000" cy="6858000.000000" r="76200.000000"/> 
</g>
<g style="fill-opacity: 1.0;stroke-width: 0.100000;stroke-opacity: 1;stroke-linecap: round;stroke-linejoin: round">
<circle cx="11176000.000000" cy="5588000.000000" r="76200.000000"/> 
</g>
<g style="fill-opacity: 1.0;stroke-width: 0.100000;stroke-opacity: 1;stroke-linecap: round;stroke-linejoin: round">
<circle cx="9194800.000000" cy="8813800.000000" r="76200.000000"/> 
</g>
<g style="fill-opacity: 1.0;stroke-width: 0.100000;stroke-opacity: 1;stroke-linecap: round;stroke-linejoin: round">
<circle cx="13081000.000000" cy="6477000.000000" r="76200.000000"/> 
</g>
<g style="fill-opacity: 1.0;stroke-width: 0.100000;stroke-opacity: 1;stroke-linecap: round;stroke-linejoin: round">
<circle cx="11595100.000000" cy="8115300.000000" r="76200.000000"/> 
</g>
<g style="fill-opacity: 1.0;stroke-width: 0.100000;stroke-opacity: 1;stroke-linecap: round;stroke-linejoin: round">
<circle cx="13843000.000000" cy="7874000.000000" r="76200.000000"/> 
</g>
<g style="fill-opacity: 1.0;stroke-width: 0.100000;stroke-opacity: 1;stroke-linecap: round;stroke-linejoin: round">
<circle cx="9232900.000000" cy="8420100.000000" r="76200.000000"/> 
</g>
<g style="fill-opacity: 1.0;stroke-width: 0.100000;stroke-opacity: 1;stroke-linecap: round;stroke-linejoin: round">
<circle cx="13589000.000000" cy="9525000.000000" r="76200.000000"/> 
</g>
<g style="fill-opacity: 1.0;stroke-width: 0.100000;stroke-opacity: 1;stroke-linecap: round;stroke-linejoin: round">
<circle cx="9436100.000000" cy="8051800.000000" r="76200.000000"/> 
</g>
<g style="fill-opacity: 1.0;stroke-width: 0.100000;stroke-opacity: 1;stroke-linecap: round;stroke-linejoin: round">
<circle cx="11430000.000000" cy="11684000.000000" r="76200.000000"/> 
</g>
<g style="fill-opacity: 1.0;stroke-width: 0.100000;stroke-opacity: 1;stroke-linecap: round;stroke-linejoin: round">
<circle cx="9817100.000000" cy="7747000.000000" r="76200.000000"/> 
</g>
<g style="fill-opacity: 1.0;stroke-width: 0.100000;stroke-opacity: 1;stroke-linecap: round;stroke-linejoin: round">
<circle cx="7620000.000000" cy="9525000.000000" r="76200.000000"/> 
</g>
<g style="fill-opacity: 1.0;stroke-width: 0.100000;stroke-opacity: 1;stroke-linecap: round;stroke-linejoin: round">
<circle cx="11112500.000000" cy="7785100.000000" r="76200.000000"/> 
</g>
<g style="fill-opacity: 1.0;stroke-width: 0.100000;stroke-opacity: 1;stroke-linecap: round;stroke-linejoin: round">
<circle cx="6477000.000000" cy="8255000.000000" r="76200.000000"/> 
</g>
<g style="fill-opacity: 1.0;stroke-width: 0.100000;stroke-opacity: 1;stroke-linecap: round;stroke-linejoin: round">
<circle cx="9105900.000000" cy="9194800.000000" r="76200.000000"/> 
</g>
<g style="fill-opacity: 1.0;stroke-width: 0.100000;stroke-opacity: 1;stroke-linecap: round;stroke-linejoin: round">
<circle cx="9271000.000000" cy="12192000.000000" r="76200.000000"/> 
</g>
<g style="fill-opacity: 1.0;stroke-width: 0.100000;stroke-opacity: 1;stroke-linecap: round;stroke-linejoin: round">
<circle cx="10426700.000000" cy="7708900.000000" r="76200.000000"/> 
</g>
<g style="fill-opacity: 1.0;stroke-width: 0.100000;stroke-opacity: 1;stroke-linecap: round;stroke-linejoin: round">
<circle cx="10287000.000000" cy="10287000.000000" r="76200.000000"/> 
</g>
<g style="fill-opacity: 1.0;stroke-width: 0.100000;stroke-opacity: 1;stroke-linecap: round;stroke-linejoin: round">
<circle cx="11684000.000000" cy="8585200.000000" r="76200.000000"/> 
</g>
<g style="fill-opacity: 1.0;stroke-width: 0.100000;stroke-opacity: 1;stroke-linecap: round;stroke-linejoin: round">
<circle cx="7874000.000000" cy="6731000.000000" r="76200.000000"/> 
</g>
<g style="fill-opacity: 1.0;stroke-width: 0.100000;stroke-opacity: 1;stroke-linecap: round;stroke-linejoin: round">
<circle cx="11684000.000000" cy="8940800.000000" r="76200.000000"/> 
</g>
<g style="fill-opacity: 1.0;stroke-width: 0.100000;stroke-opacity: 1;stroke-linecap: round;stroke-linejoin: round">
<circle cx="11531600.000000" cy="9398000.000000" r="76200.000000"/> 
</g>
<g style="fill-opacity: 1.0;stroke-width: 0.100000;stroke-opacity: 1;stroke-linecap: round;stroke-linejoin: round">
<circle cx="9296400.000000" cy="9652000.000000" r="76200.000000"/> 
</g>
<g style="fill-opacity: 1.0;stroke-width: 0.100000;stroke-opacity: 1;stroke-linecap: round;stroke-linejoin: round">
<circle cx="10058400.000000" cy="13411200.000000" r="40000.000000"/> 
</g>
<g style="fill-opacity: 1.0;stroke-width: 0.100000;stroke-opacity: 1;stroke-linecap: round;stroke-linejoin: round">
<circle cx="10934700.000000" cy="12636500.000000" r="40000.000000"/> 
</g>
<g style="fill-opacity: 1.0;stroke-width: 0.100000;stroke-opacity: 1;stroke-linecap: round;stroke-linejoin: round">
<circle cx="10528300.000000" cy="9347200.000000" r="40000.000000"/> 
</g>
<g style="fill-opacity: 1.0;stroke-width: 0.100000;stroke-opacity: 1;stroke-linecap: round;stroke-linejoin: round">
<circle cx="10528300.000000" cy="8864600.000000" r="40000.000000"/> 
</g>
<g style="fill-opacity: 1.0;stroke-width: 0.100000;stroke-opacity: 1;stroke-linecap: round;stroke-linejoin: round">
<circle cx="10782765.300000" cy="8217365.300000" r="40000.000000"/> 
</g>
<g style="fill-opacity: 1.0;stroke-width: 0.100000;stroke-opacity: 1;stroke-linecap: round;stroke-linejoin: round">
<circle cx="10096500.000000" cy="11798300.000000" r="40000.000000"/> 
</g>
<g style="fill-opacity: 1.0;stroke-width: 0.100000;stroke-opacity: 1;stroke-linecap: round;stroke-linejoin: round">
<circle cx="10414000.000000" cy="11176000.000000" r="40000.000000"/> 
</g>
<g style="fill-opacity: 1.0;stroke-width: 0.100000;stroke-opacity: 1;stroke-linecap: round;stroke-linejoin: round">
<circle cx="11206001.000000" cy="9969500.000000" r="40000.000000"/> 
</g>
<g style="fill-opacity: 1.0;stroke-width: 0.100000;stroke-opacity: 1;stroke-linecap: round;stroke-linejoin: round">
<circle cx="11442700.000000" cy="9969500.000000" r="40000.000000"/> 
</g>
<g style="fill-opacity: 1.0;stroke-width: 0.100000;stroke-opacity: 1;stroke-linecap: round;stroke-linejoin: round">
<circle cx="11176000.000000" cy="11226800.000000" r="40000.000000"/> 
</g>
<g style="fill-opacity: 1.0;stroke-width: 0.100000;stroke-opacity: 1;stroke-linecap: round;stroke-linejoin: round">
<circle cx="10642600.000000" cy="8940800.000000" r="40000.000000"/> 
</g>
<g style="fill-opacity: 1.0;stroke-width: 0.100000;stroke-opacity: 1;stroke-linecap: round;stroke-linejoin: round">
<circle cx="10642600.000000" cy="9842500.400000" r="40000.000000"/> 
</g>
<g style="fill-opacity: 1.0;stroke-width: 0.100000;stroke-opacity: 1;stroke-linecap: round;stroke-linejoin: round">
<circle cx="11049000.000000" cy="9842500.200000" r="40000.000000"/> 
</g>
<g style="fill-opacity: 1.0;stroke-width: 0.100000;stroke-opacity: 1;stroke-linecap: round;stroke-linejoin: round">
<circle cx="9855200.000000" cy="9944100.000000" r="40000.000000"/> 
</g>
<g style="fill-opacity: 1.0;stroke-width: 0.100000;stroke-opacity: 1;stroke-linecap: round;stroke-linejoin: round">
<circle cx="10109200.000000" cy="9118600.000000" r="40000.000000"/> 
</g>
<g style="fill-opacity: 1.0;stroke-width: 0.100000;stroke-opacity: 1;stroke-linecap: round;stroke-linejoin: round">
<circle cx="10671700.000000" cy="10134600.000000" r="40000.000000"/> 
</g>
<g style="fill-opacity: 1.0;stroke-width: 0.100000;stroke-opacity: 1;stroke-linecap: round;stroke-linejoin: round">
<circle cx="10312400.600000" cy="9994900.000000" r="40000.000000"/> 
</g>
<g style="fill-opacity: 1.0;stroke-width: 0.100000;stroke-opacity: 1;stroke-linecap: round;stroke-linejoin: round">
<circle cx="10883900.000000" cy="8204200.000000" r="40000.000000"/> 
</g>
<g style="fill-opacity: 1.0;stroke-width: 0.100000;stroke-opacity: 1;stroke-linecap: round;stroke-linejoin: round">
<circle cx="10858500.000000" cy="8585200.000000" r="40000.000000"/> 
</g>
<g style="fill-opacity: 1.0;stroke-width: 0.100000;stroke-opacity: 1;stroke-linecap: round;stroke-linejoin: round">
<circle cx="9652000.000000" cy="5207000.000000" r="40000.000000"/> 
</g>
<g style="fill-opacity: 1.0;stroke-width: 0.100000;stroke-opacity: 1;stroke-linecap: round;stroke-linejoin: round">
<circle cx="9525000.000000" cy="7112000.000000" r="40000.000000"/> 
</g>
<g style="fill-opacity: 1.0;stroke-width: 0.100000;stroke-opacity: 1;stroke-linecap: round;stroke-linejoin: round">
<circle cx="10922000.000000" cy="5842000.000000" r="40000.000000"/> 
</g>
<g style="fill-opacity: 1.0;stroke-width: 0.100000;stroke-opacity: 1;stroke-linecap: round;stroke-linejoin: round">
<circle cx="9715500.000000" cy="9004300.000000" r="40000.000000"/> 
</g>
<g style="fill-opacity: 1.0;stroke-width: 0.100000;stroke-opacity: 1;stroke-linecap: round;stroke-linejoin: round">
<circle cx="12573000.000000" cy="6477000.000000" r="40000.000000"/> 
</g>
<g style="fill-opacity: 1.0;stroke-width: 0.100000;stroke-opacity: 1;stroke-linecap: round;stroke-linejoin: round">
<circle cx="11036300.000000" cy="8432800.000000" r="40000.000000"/> 
</g>
<g style="fill-opacity: 1.0;stroke-width: 0.100000;stroke-opacity: 1;stroke-linecap: round;stroke-linejoin: round">
<circle cx="13589000.000000" cy="7493000.000000" r="40000.000000"/> 
</g>
<g style="fill-opacity: 1.0;stroke-width: 0.100000;stroke-opacity: 1;stroke-linecap: round;stroke-linejoin: round">
<circle cx="9715500.000000" cy="8877300.000000" r="40000.000000"/> 
</g>
<g style="fill-opacity: 1.0;stroke-width: 0.100000;stroke-opacity: 1;stroke-linecap: round;stroke-linejoin: round">
<circle cx="13589000.000000" cy="9144000.000000" r="40000.000000"/> 
</g>
<g style="fill-opacity: 1.0;stroke-width: 0.100000;stroke-opacity: 1;stroke-linecap: round;stroke-linejoin: round">
<circle cx="9709615.300000" cy="8768884.700000" r="40000.000000"/> 
</g>
<g style="fill-opacity: 1.0;stroke-width: 0.100000;stroke-opacity: 1;stroke-linecap: round;stroke-linejoin: round">
<circle cx="11328400.000000" cy="11303000.000000" r="40000.000000"/> 
</g>
<g style="fill-opacity: 1.0;stroke-width: 0.100000;stroke-opacity: 1;stroke-linecap: round;stroke-linejoin: round">
<circle cx="10058400.000000" cy="8775700.000000" r="40000.000000"/> 
</g>
<g style="fill-opacity: 1.0;stroke-width: 0.100000;stroke-opacity: 1;stroke-linecap: round;stroke-linejoin: round">
<circle cx="8001000.000000" cy="9652000.000000" r="40000.000000"/> 
</g>
<g style="fill-opacity: 1.0;stroke-width: 0.100000;stroke-opacity: 1;stroke-linecap: round;stroke-linejoin: round">
<circle cx="10867501.000000" cy="9309100.000000" r="40000.000000"/> 
</g>
<g style="fill-opacity: 1.0;stroke-width: 0.100000;stroke-opacity: 1;stroke-linecap: round;stroke-linejoin: round">
<circle cx="6985000.000000" cy="8382000.000000" r="40000.000000"/> 
</g>
<g style="fill-opacity: 1.0;stroke-width: 0.100000;stroke-opacity: 1;stroke-linecap: round;stroke-linejoin: round">
<circle cx="9715500.000000" cy="9105900.000000" r="40000.000000"/> 
</g>
<g style="fill-opacity: 1.0;stroke-width: 0.100000;stroke-opacity: 1;stroke-linecap: round;stroke-linejoin: round">
<circle cx="9271000.000000" cy="11811000.000000" r="40000.000000"/> 
</g>
<g style="fill-opacity: 1.0;stroke-width: 0.100000;stroke-opacity: 1;stroke-linecap: round;stroke-linejoin: round">
<circle cx="9724500.000000" cy="8559800.000000" r="40000.000000"/> 
</g>
<g style="fill-opacity: 1.0;stroke-width: 0.100000;stroke-opacity: 1;stroke-linecap: round;stroke-linejoin: round">
<circle cx="10375900.000000" cy="9334500.000000" r="40000.000000"/> 
</g>
<g style="fill-opacity: 1.0;stroke-width: 0.100000;stroke-opacity: 1;stroke-linecap: round;stroke-linejoin: round">
<circle cx="11226800.000000" cy="8868300.000000" r="40000.000000"/> 
</g>
<g style="fill-opacity: 1.0;stroke-width: 0.100000;stroke-opacity: 1;stroke-linecap: round;stroke-linejoin: round">
<circle cx="7874000.000000" cy="6985000.000000" r="40000.000000"/> 
</g>
<g style="fill-opacity: 1.0;stroke-width: 0.100000;stroke-opacity: 1;stroke-linecap: round;stroke-linejoin: round">
<circle cx="11010900.000000" cy="9499600.000000" r="40000.000000"/> 
</g>
<g style="fill-opacity: 1.0;stroke-width: 0.100000;stroke-opacity: 1;stroke-linecap: round;stroke-linejoin: round">
<circle cx="10960100.000000" cy="11239500.000000" r="40000.000000"/> 
</g>
<g style="fill-opacity: 1.0;stroke-width: 0.100000;stroke-opacity: 1;stroke-linecap: round;stroke-linejoin: round">
<circle cx="10337800.000000" cy="11734800.000000" r="40000.000000"/> 
</g>
<g style="fill-opacity: 1.0;stroke-width: 0.100000;stroke-opacity: 1;stroke-linecap: round;stroke-linejoin: round">
<circle cx="10655300.000000" cy="11430000.200000" r="40000.000000"/> 
</g>
<g style="fill-opacity: 1.0;stroke-width: 0.100000;stroke-opacity: 1;stroke-linecap: round;stroke-linejoin: round">
<circle cx="10972800.000000" cy="12026900.000000" r="40000.000000"/> 
</g>
<g style="fill-opacity: 1.0;stroke-width: 0.100000;stroke-opacity: 1;stroke-linecap: round;stroke-linejoin: round">
<circle cx="11036300.000000" cy="10693400.000000" r="40000.000000"/> 
</g>
<g style="fill-opacity: 1.0;stroke-width: 0.100000;stroke-opacity: 1;stroke-linecap: round;stroke-linejoin: round">
<circle cx="10312400.000000" cy="12877800.000000" r="40000.000000"/> 
</g>
<g style="fill-opacity: 1.0;stroke-width: 0.100000;stroke-opacity: 1;stroke-linecap: round;stroke-linejoin: round">
<circle cx="10769600.000000" cy="8763000.000000" r="40000.000000"/> 
</g>
<g style="fill-opacity: 1.0;stroke-width: 0.100000;stroke-opacity: 1;stroke-linecap: round;stroke-linejoin: round">
<circle cx="10566400.000000" cy="12877800.000000" r="40000.000000"/> 
</g>
<g style="fill-opacity: 1.0;stroke-width: 0.100000;stroke-opacity: 1;stroke-linecap: round;stroke-linejoin: round">
<circle cx="10883899.600000" cy="8699500.000000" r="40000.000000"/> 
</g>
<g style="fill-opacity: 1.0;stroke-width: 0.100000;stroke-opacity: 1;stroke-linecap: round;stroke-linejoin: round">
<circle cx="10045700.000000" cy="8597900.000000" r="40000.000000"/> 
</g>
<g style="fill-opacity: 1.0;stroke-width: 0.100000;stroke-opacity: 1;stroke-linecap: round;stroke-linejoin: round">
<circle cx="10655300.000000" cy="9982200.000000" r="40000.000000"/> 
</g>
<g style="fill-opacity: 1.0;stroke-width: 0.100000;stroke-opacity: 1;stroke-linecap: round;stroke-linejoin: round">
<circle cx="9944100.000000" cy="9525000.000000" r="40000.000000"/> 
</g>
<g style="fill-opacity: 1.0;stroke-width: 0.100000;stroke-opacity: 1;stroke-linecap: round;stroke-linejoin: round">
<circle cx="10553700.000000" cy="11836400.000000" r="40000.000000"/> 
</g>
<g style="fill-opacity: 1.0;stroke-width: 0.100000;stroke-opacity: 1;stroke-linecap: round;stroke-linejoin: round">
<circle cx="10883900.000000" cy="11404600.000000" r="40000.000000"/> 
</g>
<g style="fill-opacity: 1.0;stroke-width: 0.100000;stroke-opacity: 1;stroke-linecap: round;stroke-linejoin: round">
<circle cx="11201400.000000" cy="9474200.000000" r="40000.000000"/> 
</g>
<g style="fill-opacity: 1.0;stroke-width: 0.100000;stroke-opacity: 1;stroke-linecap: round;stroke-linejoin: round">
<circle cx="11228872.100000" cy="9162147.400000" r="40000.000000"/> 
</g>
<g style="fill-opacity: 1.0;stroke-width: 0.100000;stroke-opacity: 1;stroke-linecap: round;stroke-linejoin: round">
<circle cx="10883900.000000" cy="9715500.000000" r="40000.000000"/> 
</g>
<g style="fill-opacity: 1.0;stroke-width: 0.100000;stroke-opacity: 1;stroke-linecap: round;stroke-linejoin: round">
<circle cx="11201400.000000" cy="9258300.000000" r="40000.000000"/> 
</g>
<g style="fill-opacity: 0.0;stroke-width: 25000.000000;stroke-opacity: 1;stroke-linecap: round;stroke-linejoin: round">
<path d="M10058400 13411200 L10160000 13411200 "/>
<path d="M10160000 13411200 L10934700 12636500 "/>
<path d="M10528300 9347200 L10528300 8864600 "/>
<path d="M10528300 8864600 L10528300 8471830 "/>
<path d="M10528300 8471830 L10782765 8217365 "/>
<path d="M10096500 11798300 L10414000 11480800 "/>
<path d="M10414000 11480800 L10414000 11176000 "/>
<path d="M11206001 9969500 L11442700 9969500 "/>
<path d="M10642600 8997368 L10642600 9842500 "/>
<path d="M10642600 8940800 L10642600 8997368 "/>
<path d="M11088999 9882500 L11049000 9842500 "/>
<path d="M11125200 9918700 L11088999 9882500 "/>
<path d="M11176000 11226800 L11125200 11176000 "/>
<path d="M11125200 11176000 L11125200 9918700 "/>
<path d="M9855200 9944100 L10109200 9690100 "/>
<path d="M10109200 9690100 L10109200 9118600 "/>
<path d="M10375900 9994900 L10312400 9994900 "/>
<path d="M10671700 10134600 L10515600 10134600 "/>
<path d="M10515600 10134600 L10375900 9994900 "/>
<path d="M10883900 8204200 L10883900 8559800 "/>
<path d="M10883900 8559800 L10858500 8585200 "/>
<path d="M9525000 5080000 L9525000 4826000 "/>
<path d="M9652000 5207000 L9525000 5080000 "/>
<path d="M9525000 7112000 L9779000 6858000 "/>
<path d="M10922000 5842000 L11176000 5588000 "/>
<path d="M9525000 8813800 L9194800 8813800 "/>
<path d="M9715500 9004300 L9525000 8813800 "/>
<path d="M12573000 6477000 L13081000 6477000 "/>
<path d="M11353800 8115300 L11595100 8115300 "/>
<path d="M11036300 8432800 L11353800 8115300 "/>
<path d="M13843000 7747000 L13843000 7874000 "/>
<path d="M13589000 7493000 L13843000 7747000 "/>
<path d="M9334499 8496299 L9461500 8623300 "/>
<path d="M9232900 8420100 L9309099 8496299 "/>
<path d="M9715500 8877300 L9461500 8623300 "/>
<path d="M9309099 8496299 L9334499 8496299 "/>
<path d="M9461500 8623300 L9448800 8610600 "/>
<path d="M13589000 9144000 L13589000 9525000 "/>
<path d="M9709615 8768884 L9575800 8635069 "/>
<path d="M9436100 8051800 L9575800 8191500 "/>
<path d="M9575800 8191500 L9575800 8255000 "/>
<path d="M9575800 8635069 L9575800 8255000 "/>
<path d="M9575800 8255000 L9575800 8229600 "/>
<path d="M11353800 11607800 L11430000 11684000 "/>
<path d="M11328400 11582400 L11353800 11607800 "/>
<path d="M11328400 11303000 L11328400 11582400 "/>
<path d="M9734830 8686800 L9691171 8686800 "/>
<path d="M10058400 8775700 L9823730 8775700 "/>
<path d="M9823730 8775700 L9734830 8686800 "/>
<path d="M9691171 8686800 L9652000 8647628 "/>
<path d="M9652000 8647628 L9652000 8267700 "/>
<path d="M9817100 8102600 L9817100 7747000 "/>
<path d="M9652000 8267700 L9817100 8102600 "/>
<path d="M7747000 9652000 L7620000 9525000 "/>
<path d="M8001000 9652000 L7747000 9652000 "/>
<path d="M10959599 8632546 L10990551 8663499 "/>
<path d="M10867501 8856928 L10867501 9252531 "/>
<path d="M10990551 8733878 L10867501 8856928 "/>
<path d="M11112500 7785100 L10959599 7938001 "/>
<path d="M10990551 8663499 L10990551 8733878 "/>
<path d="M10959599 7938001 L10959599 8632546 "/>
<path d="M10867501 9252531 L10867501 9309100 "/>
<path d="M6858000 8255000 L6477000 8255000 "/>
<path d="M6985000 8382000 L6858000 8255000 "/>
<path d="M9194800 9105900 L9105900 9194800 "/>
<path d="M9715500 9105900 L9194800 9105900 "/>
<path d="M9271000 11811000 L9271000 12192000 "/>
<path d="M9724500 8309500 L9724500 8334900 "/>
<path d="M9724500 8334900 L9724500 8559800 "/>
<path d="M9982200 8051800 L9724500 8309500 "/>
<path d="M10426700 7816663 L10191563 8051800 "/>
<path d="M10191563 8051800 L9982200 8051800 "/>
<path d="M10426700 7708900 L10426700 7816663 "/>
<path d="M10185400 10185400 L10287000 10287000 "/>
<path d="M10375900 9334500 L10185400 9525000 "/>
<path d="M10185400 9525000 L10185400 10185400 "/>
<path d="M11468100 8623300 L11506200 8585200 "/>
<path d="M11506200 8585200 L11576237 8585200 "/>
<path d="M11468100 8801100 L11468100 8623300 "/>
<path d="M11400900 8868300 L11468100 8801100 "/>
<path d="M11576237 8585200 L11684000 8585200 "/>
<path d="M11226800 8868300 L11400900 8868300 "/>
<path d="M7874000 6985000 L7874000 6731000 "/>
<path d="M11544300 8940800 L11684000 8940800 "/>
<path d="M11010900 9499600 L11010900 9017000 "/>
<path d="M11087100 8940800 L11684000 8940800 "/>
<path d="M11010900 9017000 L11087100 8940800 "/>
<path d="M10960100 9550400 L11010900 9499600 "/>
<path d="M10960100 11239500 L10960100 9550400 "/>
<path d="M10642599 11430000 L10655300 11430000 "/>
<path d="M10337800 11734800 L10642599 11430000 "/>
<path d="M11036300 11270600 L11036300 10693400 "/>
<path d="M10972800 12026900 L11036300 11963400 "/>
<path d="M11036300 11963400 L11036300 11270600 "/>
<path d="M10312400 12877800 L10744200 12446000 "/>
<path d="M10744200 12446000 L10744200 8788400 "/>
<path d="M10744200 8788400 L10769600 8763000 "/>
<path d="M10794999 12649200 L10794999 8845109 "/>
<path d="M10566400 12877800 L10794999 12649200 "/>
<path d="M10883899 8756068 L10883899 8699500 "/>
<path d="M10794999 8845109 L10883899 8756210 "/>
<path d="M10883899 8756210 L10883899 8756068 "/>
<path d="M10085699 8637899 L10045700 8597900 "/>
<path d="M10448400 9000600 L10085699 8637899 "/>
<path d="M10448400 9775300 L10448400 9000600 "/>
<path d="M10655300 9982200 L10448400 9775300 "/>
<path d="M9817100 9652000 L9944100 9525000 "/>
<path d="M10513700 11876399 L10067299 11876399 "/>
<path d="M10553700 11836400 L10513700 11876399 "/>
<path d="M9626600 11435700 L9626600 9652000 "/>
<path d="M10067299 11876399 L9626600 11435700 "/>
<path d="M9296400 9652000 L9626600 9652000 "/>
<path d="M9626600 9652000 L9817100 9652000 "/>
<path d="M11190252 9162147 L11228872 9162147 "/>
<path d="M11128899 9223499 L11190252 9162147 "/>
<path d="M11201400 9474200 L11128899 9401699 "/>
<path d="M11128899 9401699 L11128899 9223499 "/>
<path d="M10883900 11404600 L10883900 9715500 "/>
<path d="M11391900 9258300 L11531600 9398000 "/>
<path d="M11201400 9258300 L11391900 9258300 "/>
</g>
</g> 
</g><g id="substrate-pads" style="fill:#b5ae30; stroke:#b5ae30;" mask="url(#pads-mask)"><g style="fill-opacity: 0.0;stroke-width: 0.000000;stroke-opacity: 1;stroke-linecap: round;stroke-linejoin: round">
<g style="fill-opacity: 1.0;stroke-width: 0.100000;stroke-opacity: 1;stroke-linecap: round;stroke-linejoin: round">
<circle cx="9525000.000000" cy="4826000.000000" r="76200.000000"/> 
</g>
<g style="fill-opacity: 1.0;stroke-width: 0.100000;stroke-opacity: 1;stroke-linecap: round;stroke-linejoin: round">
<circle cx="9779000.000000" cy="6858000.000000" r="76200.000000"/> 
</g>
<g style="fill-opacity: 1.0;stroke-width: 0.100000;stroke-opacity: 1;stroke-linecap: round;stroke-linejoin: round">
<circle cx="11176000.000000" cy="5588000.000000" r="76200.000000"/> 
</g>
<g style="fill-opacity: 1.0;stroke-width: 0.100000;stroke-opacity: 1;stroke-linecap: round;stroke-linejoin: round">
<circle cx="9194800.000000" cy="8813800.000000" r="76200.000000"/> 
</g>
<g style="fill-opacity: 1.0;stroke-width: 0.100000;stroke-opacity: 1;stroke-linecap: round;stroke-linejoin: round">
<circle cx="13081000.000000" cy="6477000.000000" r="76200.000000"/> 
</g>
<g style="fill-opacity: 1.0;stroke-width: 0.100000;stroke-opacity: 1;stroke-linecap: round;stroke-linejoin: round">
<circle cx="11595100.000000" cy="8115300.000000" r="76200.000000"/> 
</g>
<g style="fill-opacity: 1.0;stroke-width: 0.100000;stroke-opacity: 1;stroke-linecap: round;stroke-linejoin: round">
<circle cx="13843000.000000" cy="7874000.000000" r="76200.000000"/> 
</g>
<g style="fill-opacity: 1.0;stroke-width: 0.100000;stroke-opacity: 1;stroke-linecap: round;stroke-linejoin: round">
<circle cx="9232900.000000" cy="8420100.000000" r="76200.000000"/> 
</g>
<g style="fill-opacity: 1.0;stroke-width: 0.100000;stroke-opacity: 1;stroke-linecap: round;stroke-linejoin: round">
<circle cx="13589000.000000" cy="9525000.000000" r="76200.000000"/> 
</g>
<g style="fill-opacity: 1.0;stroke-width: 0.100000;stroke-opacity: 1;stroke-linecap: round;stroke-linejoin: round">
<circle cx="9436100.000000" cy="8051800.000000" r="76200.000000"/> 
</g>
<g style="fill-opacity: 1.0;stroke-width: 0.100000;stroke-opacity: 1;stroke-linecap: round;stroke-linejoin: round">
<circle cx="11430000.000000" cy="11684000.000000" r="76200.000000"/> 
</g>
<g style="fill-opacity: 1.0;stroke-width: 0.100000;stroke-opacity: 1;stroke-linecap: round;stroke-linejoin: round">
<circle cx="9817100.000000" cy="7747000.000000" r="76200.000000"/> 
</g>
<g style="fill-opacity: 1.0;stroke-width: 0.100000;stroke-opacity: 1;stroke-linecap: round;stroke-linejoin: round">
<circle cx="7620000.000000" cy="9525000.000000" r="76200.000000"/> 
</g>
<g style="fill-opacity: 1.0;stroke-width: 0.100000;stroke-opacity: 1;stroke-linecap: round;stroke-linejoin: round">
<circle cx="11112500.000000" cy="7785100.000000" r="76200.000000"/> 
</g>
<g style="fill-opacity: 1.0;stroke-width: 0.100000;stroke-opacity: 1;stroke-linecap: round;stroke-linejoin: round">
<circle cx="6477000.000000" cy="8255000.000000" r="76200.000000"/> 
</g>
<g style="fill-opacity: 1.0;stroke-width: 0.100000;stroke-opacity: 1;stroke-linecap: round;stroke-linejoin: round">
<circle cx="9105900.000000" cy="9194800.000000" r="76200.000000"/> 
</g>
<g style="fill-opacity: 1.0;stroke-width: 0.100000;stroke-opacity: 1;stroke-linecap: round;stroke-linejoin: round">
<circle cx="9271000.000000" cy="12192000.000000" r="76200.000000"/> 
</g>
<g style="fill-opacity: 1.0;stroke-width: 0.100000;stroke-opacity: 1;stroke-linecap: round;stroke-linejoin: round">
<circle cx="10426700.000000" cy="7708900.000000" r="76200.000000"/> 
</g>
<g style="fill-opacity: 1.0;stroke-width: 0.100000;stroke-opacity: 1;stroke-linecap: round;stroke-linejoin: round">
<circle cx="10287000.000000" cy="10287000.000000" r="76200.000000"/> 
</g>
<g style="fill-opacity: 1.0;stroke-width: 0.100000;stroke-opacity: 1;stroke-linecap: round;stroke-linejoin: round">
<circle cx="11684000.000000" cy="8585200.000000" r="76200.000000"/> 
</g>
<g style="fill-opacity: 1.0;stroke-width: 0.100000;stroke-opacity: 1;stroke-linecap: round;stroke-linejoin: round">
<circle cx="7874000.000000" cy="6731000.000000" r="76200.000000"/> 
</g>
<g style="fill-opacity: 1.0;stroke-width: 0.100000;stroke-opacity: 1;stroke-linecap: round;stroke-linejoin: round">
<circle cx="11684000.000000" cy="8940800.000000" r="76200.000000"/> 
</g>
<g style="fill-opacity: 1.0;stroke-width: 0.100000;stroke-opacity: 1;stroke-linecap: round;stroke-linejoin: round">
<circle cx="11531600.000000" cy="9398000.000000" r="76200.000000"/> 
</g>
<g style="fill-opacity: 1.0;stroke-width: 0.100000;stroke-opacity: 1;stroke-linecap: round;stroke-linejoin: round">
<circle cx="9296400.000000" cy="9652000.000000" r="76200.000000"/> 
</g>
<g style="fill-opacity: 1.0;stroke-width: 0.100000;stroke-opacity: 1;stroke-linecap: round;stroke-linejoin: round">
<circle cx="10058400.000000" cy="13411200.000000" r="40000.000000"/> 
</g>
<g style="fill-opacity: 1.0;stroke-width: 0.100000;stroke-opacity: 1;stroke-linecap: round;stroke-linejoin: round">
<circle cx="10934700.000000" cy="12636500.000000" r="40000.000000"/> 
</g>
<g style="fill-opacity: 1.0;stroke-width: 0.100000;stroke-opacity: 1;stroke-linecap: round;stroke-linejoin: round">
<circle cx="10528300.000000" cy="9347200.000000" r="40000.000000"/> 
</g>
<g style="fill-opacity: 1.0;stroke-width: 0.100000;stroke-opacity: 1;stroke-linecap: round;stroke-linejoin: round">
<circle cx="10528300.000000" cy="8864600.000000" r="40000.000000"/> 
</g>
<g style="fill-opacity: 1.0;stroke-width: 0.100000;stroke-opacity: 1;stroke-linecap: round;stroke-linejoin: round">
<circle cx="10782765.300000" cy="8217365.300000" r="40000.000000"/> 
</g>
<g style="fill-opacity: 1.0;stroke-width: 0.100000;stroke-opacity: 1;stroke-linecap: round;stroke-linejoin: round">
<circle cx="10096500.000000" cy="11798300.000000" r="40000.000000"/> 
</g>
<g style="fill-opacity: 1.0;stroke-width: 0.100000;stroke-opacity: 1;stroke-linecap: round;stroke-linejoin: round">
<circle cx="10414000.000000" cy="11176000.000000" r="40000.000000"/> 
</g>
<g style="fill-opacity: 1.0;stroke-width: 0.100000;stroke-opacity: 1;stroke-linecap: round;stroke-linejoin: round">
<circle cx="11206001.000000" cy="9969500.000000" r="40000.000000"/> 
</g>
<g style="fill-opacity: 1.0;stroke-width: 0.100000;stroke-opacity: 1;stroke-linecap: round;stroke-linejoin: round">
<circle cx="11442700.000000" cy="9969500.000000" r="40000.000000"/> 
</g>
<g style="fill-opacity: 1.0;stroke-width: 0.100000;stroke-opacity: 1;stroke-linecap: round;stroke-linejoin: round">
<circle cx="11176000.000000" cy="11226800.000000" r="40000.000000"/> 
</g>
<g style="fill-opacity: 1.0;stroke-width: 0.100000;stroke-opacity: 1;stroke-linecap: round;stroke-linejoin: round">
<circle cx="10642600.000000" cy="8940800.000000" r="40000.000000"/> 
</g>
<g style="fill-opacity: 1.0;stroke-width: 0.100000;stroke-opacity: 1;stroke-linecap: round;stroke-linejoin: round">
<circle cx="10642600.000000" cy="9842500.400000" r="40000.000000"/> 
</g>
<g style="fill-opacity: 1.0;stroke-width: 0.100000;stroke-opacity: 1;stroke-linecap: round;stroke-linejoin: round">
<circle cx="11049000.000000" cy="9842500.200000" r="40000.000000"/> 
</g>
<g style="fill-opacity: 1.0;stroke-width: 0.100000;stroke-opacity: 1;stroke-linecap: round;stroke-linejoin: round">
<circle cx="9855200.000000" cy="9944100.000000" r="40000.000000"/> 
</g>
<g style="fill-opacity: 1.0;stroke-width: 0.100000;stroke-opacity: 1;stroke-linecap: round;stroke-linejoin: round">
<circle cx="10109200.000000" cy="9118600.000000" r="40000.000000"/> 
</g>
<g style="fill-opacity: 1.0;stroke-width: 0.100000;stroke-opacity: 1;stroke-linecap: round;stroke-linejoin: round">
<circle cx="10671700.000000" cy="10134600.000000" r="40000.000000"/> 
</g>
<g style="fill-opacity: 1.0;stroke-width: 0.100000;stroke-opacity: 1;stroke-linecap: round;stroke-linejoin: round">
<circle cx="10312400.600000" cy="9994900.000000" r="40000.000000"/> 
</g>
<g style="fill-opacity: 1.0;stroke-width: 0.100000;stroke-opacity: 1;stroke-linecap: round;stroke-linejoin: round">
<circle cx="10883900.000000" cy="8204200.000000" r="40000.000000"/> 
</g>
<g style="fill-opacity: 1.0;stroke-width: 0.100000;stroke-opacity: 1;stroke-linecap: round;stroke-linejoin: round">
<circle cx="10858500.000000" cy="8585200.000000" r="40000.000000"/> 
</g>
<g style="fill-opacity: 1.0;stroke-width: 0.100000;stroke-opacity: 1;stroke-linecap: round;stroke-linejoin: round">
<circle cx="9652000.000000" cy="5207000.000000" r="40000.000000"/> 
</g>
<g style="fill-opacity: 1.0;stroke-width: 0.100000;stroke-opacity: 1;stroke-linecap: round;stroke-linejoin: round">
<circle cx="9525000.000000" cy="7112000.000000" r="40000.000000"/> 
</g>
<g style="fill-opacity: 1.0;stroke-width: 0.100000;stroke-opacity: 1;stroke-linecap: round;stroke-linejoin: round">
<circle cx="10922000.000000" cy="5842000.000000" r="40000.000000"/> 
</g>
<g style="fill-opacity: 1.0;stroke-width: 0.100000;stroke-opacity: 1;stroke-linecap: round;stroke-linejoin: round">
<circle cx="9715500.000000" cy="9004300.000000" r="40000.000000"/> 
</g>
<g style="fill-opacity: 1.0;stroke-width: 0.100000;stroke-opacity: 1;stroke-linecap: round;stroke-linejoin: round">
<circle cx="12573000.000000" cy="6477000.000000" r="40000.000000"/> 
</g>
<g style="fill-opacity: 1.0;stroke-width: 0.100000;stroke-opacity: 1;stroke-linecap: round;stroke-linejoin: round">
<circle cx="11036300.000000" cy="8432800.000000" r="40000.000000"/> 
</g>
<g style="fill-opacity: 1.0;stroke-width: 0.100000;stroke-opacity: 1;stroke-linecap: round;stroke-linejoin: round">
<circle cx="13589000.000000" cy="7493000.000000" r="40000.000000"/> 
</g>
<g style="fill-opacity: 1.0;stroke-width: 0.100000;stroke-opacity: 1;stroke-linecap: round;stroke-linejoin: round">
<circle cx="9715500.000000" cy="8877300.000000" r="40000.000000"/> 
</g>
<g style="fill-opacity: 1.0;stroke-width: 0.100000;stroke-opacity: 1;stroke-linecap: round;stroke-linejoin: round">
<circle cx="13589000.000000" cy="9144000.000000" r="40000.000000"/> 
</g>
<g style="fill-opacity: 1.0;stroke-width: 0.100000;stroke-opacity: 1;stroke-linecap: round;stroke-linejoin: round">
<circle cx="9709615.300000" cy="8768884.700000" r="40000.000000"/> 
</g>
<g style="fill-opacity: 1.0;stroke-width: 0.100000;stroke-opacity: 1;stroke-linecap: round;stroke-linejoin: round">
<circle cx="11328400.000000" cy="11303000.000000" r="40000.000000"/> 
</g>
<g style="fill-opacity: 1.0;stroke-width: 0.100000;stroke-opacity: 1;stroke-linecap: round;stroke-linejoin: round">
<circle cx="10058400.000000" cy="8775700.000000" r="40000.000000"/> 
</g>
<g style="fill-opacity: 1.0;stroke-width: 0.100000;stroke-opacity: 1;stroke-linecap: round;stroke-linejoin: round">
<circle cx="8001000.000000" cy="9652000.000000" r="40000.000000"/> 
</g>
<g style="fill-opacity: 1.0;stroke-width: 0.100000;stroke-opacity: 1;stroke-linecap: round;stroke-linejoin: round">
<circle cx="10867501.000000" cy="9309100.000000" r="40000.000000"/> 
</g>
<g style="fill-opacity: 1.0;stroke-width: 0.100000;stroke-opacity: 1;stroke-linecap: round;stroke-linejoin: round">
<circle cx="6985000.000000" cy="8382000.000000" r="40000.000000"/> 
</g>
<g style="fill-opacity: 1.0;stroke-width: 0.100000;stroke-opacity: 1;stroke-linecap: round;stroke-linejoin: round">
<circle cx="9715500.000000" cy="9105900.000000" r="40000.000000"/> 
</g>
<g style="fill-opacity: 1.0;stroke-width: 0.100000;stroke-opacity: 1;stroke-linecap: round;stroke-linejoin: round">
<circle cx="9271000.000000" cy="11811000.000000" r="40000.000000"/> 
</g>
<g style="fill-opacity: 1.0;stroke-width: 0.100000;stroke-opacity: 1;stroke-linecap: round;stroke-linejoin: round">
<circle cx="9724500.000000" cy="8559800.000000" r="40000.000000"/> 
</g>
<g style="fill-opacity: 1.0;stroke-width: 0.100000;stroke-opacity: 1;stroke-linecap: round;stroke-linejoin: round">
<circle cx="10375900.000000" cy="9334500.000000" r="40000.000000"/> 
</g>
<g style="fill-opacity: 1.0;stroke-width: 0.100000;stroke-opacity: 1;stroke-linecap: round;stroke-linejoin: round">
<circle cx="11226800.000000" cy="8868300.000000" r="40000.000000"/> 
</g>
<g style="fill-opacity: 1.0;stroke-width: 0.100000;stroke-opacity: 1;stroke-linecap: round;stroke-linejoin: round">
<circle cx="7874000.000000" cy="6985000.000000" r="40000.000000"/> 
</g>
<g style="fill-opacity: 1.0;stroke-width: 0.100000;stroke-opacity: 1;stroke-linecap: round;stroke-linejoin: round">
<circle cx="11010900.000000" cy="9499600.000000" r="40000.000000"/> 
</g>
<g style="fill-opacity: 1.0;stroke-width: 0.100000;stroke-opacity: 1;stroke-linecap: round;stroke-linejoin: round">
<circle cx="10960100.000000" cy="11239500.000000" r="40000.000000"/> 
</g>
<g style="fill-opacity: 1.0;stroke-width: 0.100000;stroke-opacity: 1;stroke-linecap: round;stroke-linejoin: round">
<circle cx="10337800.000000" cy="11734800.000000" r="40000.000000"/> 
</g>
<g style="fill-opacity: 1.0;stroke-width: 0.100000;stroke-opacity: 1;stroke-linecap: round;stroke-linejoin: round">
<circle cx="10655300.000000" cy="11430000.200000" r="40000.000000"/> 
</g>
<g style="fill-opacity: 1.0;stroke-width: 0.100000;stroke-opacity: 1;stroke-linecap: round;stroke-linejoin: round">
<circle cx="10972800.000000" cy="12026900.000000" r="40000.000000"/> 
</g>
<g style="fill-opacity: 1.0;stroke-width: 0.100000;stroke-opacity: 1;stroke-linecap: round;stroke-linejoin: round">
<circle cx="11036300.000000" cy="10693400.000000" r="40000.000000"/> 
</g>
<g style="fill-opacity: 1.0;stroke-width: 0.100000;stroke-opacity: 1;stroke-linecap: round;stroke-linejoin: round">
<circle cx="10312400.000000" cy="12877800.000000" r="40000.000000"/> 
</g>
<g style="fill-opacity: 1.0;stroke-width: 0.100000;stroke-opacity: 1;stroke-linecap: round;stroke-linejoin: round">
<circle cx="10769600.000000" cy="8763000.000000" r="40000.000000"/> 
</g>
<g style="fill-opacity: 1.0;stroke-width: 0.100000;stroke-opacity: 1;stroke-linecap: round;stroke-linejoin: round">
<circle cx="10566400.000000" cy="12877800.000000" r="40000.000000"/> 
</g>
<g style="fill-opacity: 1.0;stroke-width: 0.100000;stroke-opacity: 1;stroke-linecap: round;stroke-linejoin: round">
<circle cx="10883899.600000" cy="8699500.000000" r="40000.000000"/> 
</g>
<g style="fill-opacity: 1.0;stroke-width: 0.100000;stroke-opacity: 1;stroke-linecap: round;stroke-linejoin: round">
<circle cx="10045700.000000" cy="8597900.000000" r="40000.000000"/> 
</g>
<g style="fill-opacity: 1.0;stroke-width: 0.100000;stroke-opacity: 1;stroke-linecap: round;stroke-linejoin: round">
<circle cx="10655300.000000" cy="9982200.000000" r="40000.000000"/> 
</g>
<g style="fill-opacity: 1.0;stroke-width: 0.100000;stroke-opacity: 1;stroke-linecap: round;stroke-linejoin: round">
<circle cx="9944100.000000" cy="9525000.000000" r="40000.000000"/> 
</g>
<g style="fill-opacity: 1.0;stroke-width: 0.100000;stroke-opacity: 1;stroke-linecap: round;stroke-linejoin: round">
<circle cx="10553700.000000" cy="11836400.000000" r="40000.000000"/> 
</g>
<g style="fill-opacity: 1.0;stroke-width: 0.100000;stroke-opacity: 1;stroke-linecap: round;stroke-linejoin: round">
<circle cx="10883900.000000" cy="11404600.000000" r="40000.000000"/> 
</g>
<g style="fill-opacity: 1.0;stroke-width: 0.100000;stroke-opacity: 1;stroke-linecap: round;stroke-linejoin: round">
<circle cx="11201400.000000" cy="9474200.000000" r="40000.000000"/> 
</g>
<g style="fill-opacity: 1.0;stroke-width: 0.100000;stroke-opacity: 1;stroke-linecap: round;stroke-linejoin: round">
<circle cx="11228872.100000" cy="9162147.400000" r="40000.000000"/> 
</g>
<g style="fill-opacity: 1.0;stroke-width: 0.100000;stroke-opacity: 1;stroke-linecap: round;stroke-linejoin: round">
<circle cx="10883900.000000" cy="9715500.000000" r="40000.000000"/> 
</g>
<g style="fill-opacity: 1.0;stroke-width: 0.100000;stroke-opacity: 1;stroke-linecap: round;stroke-linejoin: round">
<circle cx="11201400.000000" cy="9258300.000000" r="40000.000000"/> 
</g>
<g style="fill-opacity: 0.0;stroke-width: 25000.000000;stroke-opacity: 1;stroke-linecap: round;stroke-linejoin: round">
<path d="M10058400 13411200 L10160000 13411200 "/>
<path d="M10160000 13411200 L10934700 12636500 "/>
<path d="M10528300 9347200 L10528300 8864600 "/>
<path d="M10528300 8864600 L10528300 8471830 "/>
<path d="M10528300 8471830 L10782765 8217365 "/>
<path d="M10096500 11798300 L10414000 11480800 "/>
<path d="M10414000 11480800 L10414000 11176000 "/>
<path d="M11206001 9969500 L11442700 9969500 "/>
<path d="M10642600 8997368 L10642600 9842500 "/>
<path d="M10642600 8940800 L10642600 8997368 "/>
<path d="M11088999 9882500 L11049000 9842500 "/>
<path d="M11125200 9918700 L11088999 9882500 "/>
<path d="M11176000 11226800 L11125200 11176000 "/>
<path d="M11125200 11176000 L11125200 9918700 "/>
<path d="M9855200 9944100 L10109200 9690100 "/>
<path d="M10109200 9690100 L10109200 9118600 "/>
<path d="M10375900 9994900 L10312400 9994900 "/>
<path d="M10671700 10134600 L10515600 10134600 "/>
<path d="M10515600 10134600 L10375900 9994900 "/>
<path d="M10883900 8204200 L10883900 8559800 "/>
<path d="M10883900 8559800 L10858500 8585200 "/>
<path d="M9525000 5080000 L9525000 4826000 "/>
<path d="M9652000 5207000 L9525000 5080000 "/>
<path d="M9525000 7112000 L9779000 6858000 "/>
<path d="M10922000 5842000 L11176000 5588000 "/>
<path d="M9525000 8813800 L9194800 8813800 "/>
<path d="M9715500 9004300 L9525000 8813800 "/>
<path d="M12573000 6477000 L13081000 6477000 "/>
<path d="M11353800 8115300 L11595100 8115300 "/>
<path d="M11036300 8432800 L11353800 8115300 "/>
<path d="M13843000 7747000 L13843000 7874000 "/>
<path d="M13589000 7493000 L13843000 7747000 "/>
<path d="M9334499 8496299 L9461500 8623300 "/>
<path d="M9232900 8420100 L9309099 8496299 "/>
<path d="M9715500 8877300 L9461500 8623300 "/>
<path d="M9309099 8496299 L9334499 8496299 "/>
<path d="M9461500 8623300 L9448800 8610600 "/>
<path d="M13589000 9144000 L13589000 9525000 "/>
<path d="M9709615 8768884 L9575800 8635069 "/>
<path d="M9436100 8051800 L9575800 8191500 "/>
<path d="M9575800 8191500 L9575800 8255000 "/>
<path d="M9575800 8635069 L9575800 8255000 "/>
<path d="M9575800 8255000 L9575800 8229600 "/>
<path d="M11353800 11607800 L11430000 11684000 "/>
<path d="M11328400 11582400 L11353800 11607800 "/>
<path d="M11328400 11303000 L11328400 11582400 "/>
<path d="M9734830 8686800 L9691171 8686800 "/>
<path d="M10058400 8775700 L9823730 8775700 "/>
<path d="M9823730 8775700 L9734830 8686800 "/>
<path d="M9691171 8686800 L9652000 8647628 "/>
<path d="M9652000 8647628 L9652000 8267700 "/>
<path d="M9817100 8102600 L9817100 7747000 "/>
<path d="M9652000 8267700 L9817100 8102600 "/>
<path d="M7747000 9652000 L7620000 9525000 "/>
<path d="M8001000 9652000 L7747000 9652000 "/>
<path d="M10959599 8632546 L10990551 8663499 "/>
<path d="M10867501 8856928 L10867501 9252531 "/>
<path d="M10990551 8733878 L10867501 8856928 "/>
<path d="M11112500 7785100 L10959599 7938001 "/>
<path d="M10990551 8663499 L10990551 8733878 "/>
<path d="M10959599 7938001 L10959599 8632546 "/>
<path d="M10867501 9252531 L10867501 9309100 "/>
<path d="M6858000 8255000 L6477000 8255000 "/>
<path d="M6985000 8382000 L6858000 8255000 "/>
<path d="M9194800 9105900 L9105900 9194800 "/>
<path d="M9715500 9105900 L9194800 9105900 "/>
<path d="M9271000 11811000 L9271000 12192000 "/>
<path d="M9724500 8309500 L9724500 8334900 "/>
<path d="M9724500 8334900 L9724500 8559800 "/>
<path d="M9982200 8051800 L9724500 8309500 "/>
<path d="M10426700 7816663 L10191563 8051800 "/>
<path d="M10191563 8051800 L9982200 8051800 "/>
<path d="M10426700 7708900 L10426700 7816663 "/>
<path d="M10185400 10185400 L10287000 10287000 "/>
<path d="M10375900 9334500 L10185400 9525000 "/>
<path d="M10185400 9525000 L10185400 10185400 "/>
<path d="M11468100 8623300 L11506200 8585200 "/>
<path d="M11506200 8585200 L11576237 8585200 "/>
<path d="M11468100 8801100 L11468100 8623300 "/>
<path d="M11400900 8868300 L11468100 8801100 "/>
<path d="M11576237 8585200 L11684000 8585200 "/>
<path d="M11226800 8868300 L11400900 8868300 "/>
<path d="M7874000 6985000 L7874000 6731000 "/>
<path d="M11544300 8940800 L11684000 8940800 "/>
<path d="M11010900 9499600 L11010900 9017000 "/>
<path d="M11087100 8940800 L11684000 8940800 "/>
<path d="M11010900 9017000 L11087100 8940800 "/>
<path d="M10960100 9550400 L11010900 9499600 "/>
<path d="M10960100 11239500 L10960100 9550400 "/>
<path d="M10642599 11430000 L10655300 11430000 "/>
<path d="M10337800 11734800 L10642599 11430000 "/>
<path d="M11036300 11270600 L11036300 10693400 "/>
<path d="M10972800 12026900 L11036300 11963400 "/>
<path d="M11036300 11963400 L11036300 11270600 "/>
<path d="M10312400 12877800 L10744200 12446000 "/>
<path d="M10744200 12446000 L10744200 8788400 "/>
<path d="M10744200 8788400 L10769600 8763000 "/>
<path d="M10794999 12649200 L10794999 8845109 "/>
<path d="M10566400 12877800 L10794999 12649200 "/>
<path d="M10883899 8756068 L10883899 8699500 "/>
<path d="M10794999 8845109 L10883899 8756210 "/>
<path d="M10883899 8756210 L10883899 8756068 "/>
<path d="M10085699 8637899 L10045700 8597900 "/>
<path d="M10448400 9000600 L10085699 8637899 "/>
<path d="M10448400 9775300 L10448400 9000600 "/>
<path d="M10655300 9982200 L10448400 9775300 "/>
<path d="M9817100 9652000 L9944100 9525000 "/>
<path d="M10513700 11876399 L10067299 11876399 "/>
<path d="M10553700 11836400 L10513700 11876399 "/>
<path d="M9626600 11435700 L9626600 9652000 "/>
<path d="M10067299 11876399 L9626600 11435700 "/>
<path d="M9296400 9652000 L9626600 9652000 "/>
<path d="M9626600 9652000 L9817100 9652000 "/>
<path d="M11190252 9162147 L11228872 9162147 "/>
<path d="M11128899 9223499 L11190252 9162147 "/>
<path d="M11201400 9474200 L11128899 9401699 "/>
<path d="M11128899 9401699 L11128899 9223499 "/>
<path d="M10883900 11404600 L10883900 9715500 "/>
<path d="M11391900 9258300 L11531600 9398000 "/>
<path d="M11201400 9258300 L11391900 9258300 "/>
</g>
</g> 
</g><g id="substrate-silk" style="fill:#f0f0f0; stroke:#f0f0f0;" mask="url(#pads-mask-silkscreen)"><g style="fill-opacity: 0.0;stroke-width: 15000.000000;stroke-opacity: 1;stroke-linecap: round;stroke-linejoin: round">
<text x="10287000.000000" y="9334500.000000" textLength="973666.800000" font-size="169333.300000" lengthAdjust="spacingAndGlyphs" text-anchor="middle" opacity="0">Noname_1</text>
<g class="stroked-text"><desc>Noname_1</desc>
<path d="M9830404 9328452 L9830404 9201452 L9902976 9328452 L9902976 9201452 "/>
<path d="M9981595 9328452 L9969500 9322404 L9963452 9316357 L9957404 9304261 L9957404 9267976 L9963452 9255880 L9969500 9249833 L9981595 9243785 L9999738 9243785 L10011833 9249833 L10017880 9255880 L10023928 9267976 L10023928 9304261 L10017880 9316357 L10011833 9322404 L9999738 9328452 L9981595 9328452 "/>
<path d="M10078357 9243785 L10078357 9328452 "/>
<path d="M10078357 9255880 L10084404 9249833 L10096500 9243785 L10114642 9243785 L10126738 9249833 L10132785 9261928 L10132785 9328452 "/>
<path d="M10247690 9328452 L10247690 9261928 L10241642 9249833 L10229547 9243785 L10205357 9243785 L10193261 9249833 "/>
<path d="M10247690 9322404 L10235595 9328452 L10205357 9328452 L10193261 9322404 L10187214 9310309 L10187214 9298214 L10193261 9286119 L10205357 9280071 L10235595 9280071 L10247690 9274023 "/>
<path d="M10308166 9328452 L10308166 9243785 "/>
<path d="M10308166 9255880 L10314214 9249833 L10326309 9243785 L10344452 9243785 L10356547 9249833 L10362595 9261928 L10362595 9328452 "/>
<path d="M10362595 9261928 L10368642 9249833 L10380738 9243785 L10398880 9243785 L10410976 9249833 L10417023 9261928 L10417023 9328452 "/>
<path d="M10525880 9322404 L10513785 9328452 L10489595 9328452 L10477500 9322404 L10471452 9310309 L10471452 9261928 L10477500 9249833 L10489595 9243785 L10513785 9243785 L10525880 9249833 L10531928 9261928 L10531928 9274023 L10471452 9286119 "/>
<path d="M10556119 9340547 L10652880 9340547 "/>
<path d="M10749642 9328452 L10677071 9328452 "/>
<path d="M10713357 9328452 L10713357 9201452 L10701261 9219595 L10689166 9231690 L10677071 9237738 "/>
</g><text x="10287000.000000" y="9334500.000000" textLength="19500.000000" font-size="169333.300000" lengthAdjust="spacingAndGlyphs" text-anchor="middle" opacity="0"/>
<g class="stroked-text"><desc/>
</g></g> 
</g><g id="substrate-outline" style="fill:#000000; stroke:#000000; stroke-width: 15000.0"><g style="fill-opacity: 0.0;stroke-opacity: 1;stroke-linecap: round;stroke-linejoin: round">
<path d="M6223000 10033000 L9652000 14224000 "/>
<path d="M6223000 4572000 L6223000 10033000 "/>
<path d="M11049000 14224000 L9652000 14224000 "/>
<path d="M14097000 10033000 L11049000 14224000 "/>
<path d="M14097000 4572000 L14097000 10033000 "/>
<path d="M6223000 4572000 L14097000 4572000 "/>
</g> 
<path d="M -20000.0 0.0 A 20000.0 20000.0 0 1 1 20000.0 0.0 L 20000.0 -0.0 A 20000.0 20000.0 0 1 1 -20000.0 -0.0 Z" transform="translate(10058400.0 13411200.0) rotate(0)"/><path d="M -20000.0 0.0 A 20000.0 20000.0 0 1 1 20000.0 0.0 L 20000.0 -0.0 A 20000.0 20000.0 0 1 1 -20000.0 -0.0 Z" transform="translate(10934700.0 12636500.0) rotate(0)"/><path d="M -20000.0 0.0 A 20000.0 20000.0 0 1 1 20000.0 0.0 L 20000.0 -0.0 A 20000.0 20000.0 0 1 1 -20000.0 -0.0 Z" transform="translate(10528300.0 9347200.0) rotate(0)"/><path d="M -20000.0 0.0 A 20000.0 20000.0 0 1 1 20000.0 0.0 L 20000.0 -0.0 A 20000.0 20000.0 0 1 1 -20000.0 -0.0 Z" transform="translate(10528300.0 8864600.0) rotate(0)"/><path d="M -20000.0 0.0 A 20000.0 20000.0 0 1 1 20000.0 0.0 L 20000.0 -0.0 A 20000.0 20000.0 0 1 1 -20000.0 -0.0 Z" transform="translate(10782765.3 8217365.3) rotate(0)"/><path d="M -20000.0 0.0 A 20000.0 20000.0 0 1 1 20000.0 0.0 L 20000.0 -0.0 A 20000.0 20000.0 0 1 1 -20000.0 -0.0 Z" transform="translate(10096500.0 11798300.0) rotate(0)"/><path d="M -20000.0 0.0 A 20000.0 20000.0 0 1 1 20000.0 0.0 L 20000.0 -0.0 A 20000.0 20000.0 0 1 1 -20000.0 -0.0 Z" transform="translate(10414000.0 11176000.0) rotate(0)"/><path d="M -20000.0 0.0 A 20000.0 20000.0 0 1 1 20000.0 0.0 L 20000.0 -0.0 A 20000.0 20000.0 0 1 1 -20000.0 -0.0 Z" transform="translate(11206001.0 9969500.0) rotate(0)"/><path d="M -20000.0 0.0 A 20000.0 20000.0 0 1 1 20000.0 0.0 L 20000.0 -0.0 A 20000.0 20000.0 0 1 1 -20000.0 -0.0 Z" transform="translate(11442700.0 9969500.0) rotate(0)"/><path d="M -20000.0 0.0 A 20000.0 20000.0 0 1 1 20000.0 0.0 L 20000.0 -0.0 A 20000.0 20000.0 0 1 1 -20000.0 -0.0 Z" transform="translate(11176000.0 11226800.0) rotate(0)"/><path d="M -20000.0 0.0 A 20000.0 20000.0 0 1 1 20000.0 0.0 L 20000.0 -0.0 A 20000.0 20000.0 0 1 1 -20000.0 -0.0 Z" transform="translate(10642600.0 8940800.0) rotate(0)"/><path d="M -20000.0 0.0 A 20000.0 20000.0 0 1 1 20000.0 0.0 L 20000.0 -0.0 A 20000.0 20000.0 0 1 1 -20000.0 -0.0 Z" transform="translate(10642600.0 9842500.4) rotate(0)"/><path d="M -20000.0 0.0 A 20000.0 20000.0 0 1 1 20000.0 0.0 L 20000.0 -0.0 A 20000.0 20000.0 0 1 1 -20000.0 -0.0 Z" transform="translate(11049000.0 9842500.2) rotate(0)"/><path d="M -20000.0 0.0 A 20000.0 20000.0 0 1 1 20000.0 0.0 L 20000.0 -0.0 A 20000.0 20000.0 0 1 1 -20000.0 -0.0 Z" transform="translate(9855200.0 9944100.0) rotate(0)"/><path d="M -20000.0 0.0 A 20000.0 20000.0 0 1 1 20000.0 0.0 L 20000.0 -0.0 A 20000.0 20000.0 0 1 1 -20000.0 -0.0 Z" transform="translate(10109200.0 9118600.0) rotate(0)"/><path d="M -20000.0 0.0 A 20000.0 20000.0 0 1 1 20000.0 0.0 L 20000.0 -0.0 A 20000.0 20000.0 0 1 1 -20000.0 -0.0 Z" transform="translate(10671700.0 10134600.0) rotate(0)"/><path d="M -20000.0 0.0 A 20000.0 20000.0 0 1 1 20000.0 0.0 L 20000.0 -0.0 A 20000.0 20000.0 0 1 1 -20000.0 -0.0 Z" transform="translate(10312400.6 9994900.0) rotate(0)"/><path d="M -20000.0 0.0 A 20000.0 20000.0 0 1 1 20000.0 0.0 L 20000.0 -0.0 A 20000.0 20000.0 0 1 1 -20000.0 -0.0 Z" transform="translate(10883900.0 8204200.0) rotate(0)"/><path d="M -20000.0 0.0 A 20000.0 20000.0 0 1 1 20000.0 0.0 L 20000.0 -0.0 A 20000.0 20000.0 0 1 1 -20000.0 -0.0 Z" transform="translate(10858500.0 8585200.0) rotate(0)"/><path d="M -20000.0 0.0 A 20000.0 20000.0 0 1 1 20000.0 0.0 L 20000.0 -0.0 A 20000.0 20000.0 0 1 1 -20000.0 -0.0 Z" transform="translate(9652000.0 5207000.0) rotate(0)"/><path d="M -20000.0 0.0 A 20000.0 20000.0 0 1 1 20000.0 0.0 L 20000.0 -0.0 A 20000.0 20000.0 0 1 1 -20000.0 -0.0 Z" transform="translate(9525000.0 7112000.0) rotate(0)"/><path d="M -20000.0 0.0 A 20000.0 20000.0 0 1 1 20000.0 0.0 L 20000.0 -0.0 A 20000.0 20000.0 0 1 1 -20000.0 -0.0 Z" transform="translate(10922000.0 5842000.0) rotate(0)"/><path d="M -20000.0 0.0 A 20000.0 20000.0 0 1 1 20000.0 0.0 L 20000.0 -0.0 A 20000.0 20000.0 0 1 1 -20000.0 -0.0 Z" transform="translate(9715500.0 9004300.0) rotate(0)"/><path d="M -20000.0 0.0 A 20000.0 20000.0 0 1 1 20000.0 0.0 L 20000.0 -0.0 A 20000.0 20000.0 0 1 1 -20000.0 -0.0 Z" transform="translate(12573000.0 6477000.0) rotate(0)"/><path d="M -20000.0 0.0 A 20000.0 20000.0 0 1 1 20000.0 0.0 L 20000.0 -0.0 A 20000.0 20000.0 0 1 1 -20000.0 -0.0 Z" transform="translate(11036300.0 8432800.0) rotate(0)"/><path d="M -20000.0 0.0 A 20000.0 20000.0 0 1 1 20000.0 0.0 L 20000.0 -0.0 A 20000.0 20000.0 0 1 1 -20000.0 -0.0 Z" transform="translate(13589000.0 7493000.0) rotate(0)"/><path d="M -20000.0 0.0 A 20000.0 20000.0 0 1 1 20000.0 0.0 L 20000.0 -0.0 A 20000.0 20000.0 0 1 1 -20000.0 -0.0 Z" transform="translate(9715500.0 8877300.0) rotate(0)"/><path d="M -20000.0 0.0 A 20000.0 20000.0 0 1 1 20000.0 0.0 L 20000.0 -0.0 A 20000.0 20000.0 0 1 1 -20000.0 -0.0 Z" transform="translate(13589000.0 9144000.0) rotate(0)"/><path d="M -20000.0 0.0 A 20000.0 20000.0 0 1 1 20000.0 0.0 L 20000.0 -0.0 A 20000.0 20000.0 0 1 1 -20000.0 -0.0 Z" transform="translate(9709615.3 8768884.7) rotate(0)"/><path d="M -20000.0 0.0 A 20000.0 20000.0 0 1 1 20000.0 0.0 L 20000.0 -0.0 A 20000.0 20000.0 0 1 1 -20000.0 -0.0 Z" transform="translate(11328400.0 11303000.0) rotate(0)"/><path d="M -20000.0 0.0 A 20000.0 20000.0 0 1 1 20000.0 0.0 L 20000.0 -0.0 A 20000.0 20000.0 0 1 1 -20000.0 -0.0 Z" transform="translate(10058400.0 8775700.0) rotate(0)"/><path d="M -20000.0 0.0 A 20000.0 20000.0 0 1 1 20000.0 0.0 L 20000.0 -0.0 A 20000.0 20000.0 0 1 1 -20000.0 -0.0 Z" transform="translate(8001000.0 9652000.0) rotate(0)"/><path d="M -20000.0 0.0 A 20000.0 20000.0 0 1 1 20000.0 0.0 L 20000.0 -0.0 A 20000.0 20000.0 0 1 1 -20000.0 -0.0 Z" transform="translate(10867501.0 9309100.0) rotate(0)"/><path d="M -20000.0 0.0 A 20000.0 20000.0 0 1 1 20000.0 0.0 L 20000.0 -0.0 A 20000.0 20000.0 0 1 1 -20000.0 -0.0 Z" transform="translate(6985000.0 8382000.0) rotate(0)"/><path d="M -20000.0 0.0 A 20000.0 20000.0 0 1 1 20000.0 0.0 L 20000.0 -0.0 A 20000.0 20000.0 0 1 1 -20000.0 -0.0 Z" transform="translate(9715500.0 9105900.0) rotate(0)"/><path d="M -20000.0 0.0 A 20000.0 20000.0 0 1 1 20000.0 0.0 L 20000.0 -0.0 A 20000.0 20000.0 0 1 1 -20000.0 -0.0 Z" transform="translate(9271000.0 11811000.0) rotate(0)"/><path d="M -20000.0 0.0 A 20000.0 20000.0 0 1 1 20000.0 0.0 L 20000.0 -0.0 A 20000.0 20000.0 0 1 1 -20000.0 -0.0 Z" transform="translate(9724500.0 8559800.0) rotate(0)"/><path d="M -20000.0 0.0 A 20000.0 20000.0 0 1 1 20000.0 0.0 L 20000.0 -0.0 A 20000.0 20000.0 0 1 1 -20000.0 -0.0 Z" transform="translate(10375900.0 9334500.0) rotate(0)"/><path d="M -20000.0 0.0 A 20000.0 20000.0 0 1 1 20000.0 0.0 L 20000.0 -0.0 A 20000.0 20000.0 0 1 1 -20000.0 -0.0 Z" transform="translate(11226800.0 8868300.0) rotate(0)"/><path d="M -20000.0 0.0 A 20000.0 20000.0 0 1 1 20000.0 0.0 L 20000.0 -0.0 A 20000.0 20000.0 0 1 1 -20000.0 -0.0 Z" transform="translate(7874000.0 6985000.0) rotate(0)"/><path d="M -20000.0 0.0 A 20000.0 20000.0 0 1 1 20000.0 0.0 L 20000.0 -0.0 A 20000.0 20000.0 0 1 1 -20000.0 -0.0 Z" transform="translate(11010900.0 9499600.0) rotate(0)"/><path d="M -20000.0 0.0 A 20000.0 20000.0 0 1 1 20000.0 0.0 L 20000.0 -0.0 A 20000.0 20000.0 0 1 1 -20000.0 -0.0 Z" transform="translate(10960100.0 11239500.0) rotate(0)"/><path d="M -20000.0 0.0 A 20000.0 20000.0 0 1 1 20000.0 0.0 L 20000.0 -0.0 A 20000.0 20000.0 0 1 1 -20000.0 -0.0 Z" transform="translate(10337800.0 11734800.0) rotate(0)"/><path d="M -20000.0 0.0 A 20000.0 20000.0 0 1 1 20000.0 0.0 L 20000.0 -0.0 A 20000.0 20000.0 0 1 1 -20000.0 -0.0 Z" transform="translate(10655300.0 11430000.2) rotate(0)"/><path d="M -20000.0 0.0 A 20000.0 20000.0 0 1 1 20000.0 0.0 L 20000.0 -0.0 A 20000.0 20000.0 0 1 1 -20000.0 -0.0 Z" transform="translate(10972800.0 12026900.0) rotate(0)"/><path d="M -20000.0 0.0 A 20000.0 20000.0 0 1 1 20000.0 0.0 L 20000.0 -0.0 A 20000.0 20000.0 0 1 1 -20000.0 -0.0 Z" transform="translate(11036300.0 10693400.0) rotate(0)"/><path d="M -20000.0 0.0 A 20000.0 20000.0 0 1 1 20000.0 0.0 L 20000.0 -0.0 A 20000.0 20000.0 0 1 1 -20000.0 -0.0 Z" transform="translate(10312400.0 12877800.0) rotate(0)"/><path d="M -20000.0 0.0 A 20000.0 20000.0 0 1 1 20000.0 0.0 L 20000.0 -0.0 A 20000.0 20000.0 0 1 1 -20000.0 -0.0 Z" transform="translate(10769600.0 8763000.0) rotate(0)"/><path d="M -20000.0 0.0 A 20000.0 20000.0 0 1 1 20000.0 0.0 L 20000.0 -0.0 A 20000.0 20000.0 0 1 1 -20000.0 -0.0 Z" transform="translate(10566400.0 12877800.0) rotate(0)"/><path d="M -20000.0 0.0 A 20000.0 20000.0 0 1 1 20000.0 0.0 L 20000.0 -0.0 A 20000.0 20000.0 0 1 1 -20000.0 -0.0 Z" transform="translate(10883899.6 8699500.0) rotate(0)"/><path d="M -20000.0 0.0 A 20000.0 20000.0 0 1 1 20000.0 0.0 L 20000.0 -0.0 A 20000.0 20000.0 0 1 1 -20000.0 -0.0 Z" transform="translate(10045700.0 8597900.0) rotate(0)"/><path d="M -20000.0 0.0 A 20000.0 20000.0 0 1 1 20000.0 0.0 L 20000.0 -0.0 A 20000.0 20000.0 0 1 1 -20000.0 -0.0 Z" transform="translate(10655300.0 9982200.0) rotate(0)"/><path d="M -20000.0 0.0 A 20000.0 20000.0 0 1 1 20000.0 0.0 L 20000.0 -0.0 A 20000.0 20000.0 0 1 1 -20000.0 -0.0 Z" transform="translate(9944100.0 9525000.0) rotate(0)"/><path d="M -20000.0 0.0 A 20000.0 20000.0 0 1 1 20000.0 0.0 L 20000.0 -0.0 A 20000.0 20000.0 0 1 1 -20000.0 -0.0 Z" transform="translate(10553700.0 11836400.0) rotate(0)"/><path d="M -20000.0 0.0 A 20000.0 20000.0 0 1 1 20000.0 0.0 L 20000.0 -0.0 A 20000.0 20000.0 0 1 1 -20000.0 -0.0 Z" transform="translate(10883900.0 11404600.0) rotate(0)"/><path d="M -20000.0 0.0 A 20000.0 20000.0 0 1 1 20000.0 0.0 L 20000.0 -0.0 A 20000.0 20000.0 0 1 1 -20000.0 -0.0 Z" transform="translate(11201400.0 9474200.0) rotate(0)"/><path d="M -20000.0 0.0 A 20000.0 20000.0 0 1 1 20000.0 0.0 L 20000.0 -0.0 A 20000.0 20000.0 0 1 1 -20000.0 -0.0 Z" transform="translate(11228872.1 9162147.4) rotate(0)"/><path d="M -20000.0 0.0 A 20000.0 20000.0 0 1 1 20000.0 0.0 L 20000.0 -0.0 A 20000.0 20000.0 0 1 1 -20000.0 -0.0 Z" transform="translate(10883900.0 9715500.0) rotate(0)"/><path d="M -20000.0 0.0 A 20000.0 20000.0 0 1 1 20000.0 0.0 L 20000.0 -0.0 A 20000.0 20000.0 0 1 1 -20000.0 -0.0 Z" transform="translate(11201400.0 9258300.0) rotate(0)"/></g></g></g></svg>