<!DOCTYPE svg PUBLIC "-//W3C//DTD SVG 1.1//EN" "http://www.w3.org/Graphics/SVG/1.1/DTD/svg11.dtd">
<svg xmlns="http://www.w3.org/2000/svg" version="1.1" width="15.250108mm" height="13.000109mm" viewBox="1599989.100000211 1699999.968289 1525010.899999789 1300010.931710789">
            <title>Picture generated by PcbDraw </title>
            <desc>Picture generated by PcbDraw</desc>
        <defs><clipPath id="cut-off"><path d=" M 1700000.0 1848000.0 L 1700000.0 2853000.0  M 1746000.0 2900000.0 L 2900000.0 2900000.0 L 2902000.0 2900000.0 L 2905000.0 2899000.0 L 2907000.0 2899000.0 L 2910000.0 2897000.0 L 2912000.0 2896000.0 L 2915000.0 2894000.0 L 2917000.0 2892000.0 L 2920000.0 2889000.0 L 2922000.0 2887000.0 L 2924000.0 2884000.0 L 2927000.0 2880000.0 L 2929000.0 2876000.0 L 2931000.0 2872000.0 L 2934000.0 2868000.0 L 2936000.0 2863000.0 L 2938000.0 2858000.0 L 2941000.0 2853000.0 L 2943000.0 2847000.0 L 2945000.0 2841000.0 L 2947000.0 2835000.0 L 2949000.0 2829000.0 L 2951000.0 2822000.0 L 2953000.0 2815000.0 L 2956000.0 2807000.0 L 2958000.0 2800000.0 L 2960000.0 2792000.0 L 2962000.0 2784000.0 L 2963000.0 2775000.0 L 2965000.0 2766000.0 L 2967000.0 2758000.0 L 2969000.0 2748000.0 L 2971000.0 2739000.0 L 2972000.0 2729000.0 L 2974000.0 2719000.0 L 2976000.0 2709000.0 L 2977000.0 2699000.0 L 2979000.0 2688000.0 L 2980000.0 2678000.0 L 2982000.0 2667000.0 L 2983000.0 2656000.0 L 2984000.0 2644000.0 L 2986000.0 2633000.0 L 2987000.0 2621000.0 L 2988000.0 2609000.0 L 2989000.0 2597000.0 L 2990000.0 2585000.0 L 2991000.0 2573000.0 L 2992000.0 2560000.0 L 2993000.0 2548000.0 L 2994000.0 2535000.0 L 2995000.0 2523000.0 L 2996000.0 2510000.0 L 2996000.0 2497000.0 L 2997000.0 2484000.0 L 2998000.0 2471000.0 L 2998000.0 2457000.0 L 2999000.0 2444000.0 L 2999000.0 2431000.0 L 2999000.0 2417000.0 L 3000000.0 2404000.0 L 3000000.0 2390000.0 L 3000000.0 2377000.0 L 3000000.0 2363000.0 L 3000000.0 2350000.0 L 3000000.0 2337000.0 L 3000000.0 2323000.0 L 3000000.0 2310000.0 L 3000000.0 2296000.0 L 2999000.0 2283000.0 L 2999000.0 2269000.0 L 2999000.0 2256000.0 L 2998000.0 2243000.0 L 2998000.0 2229000.0 L 2997000.0 2216000.0 L 2996000.0 2203000.0 L 2996000.0 2190000.0 L 2995000.0 2177000.0 L 2994000.0 2165000.0 L 2993000.0 2152000.0 L 2992000.0 2140000.0 L 2991000.0 2127000.0 L 2990000.0 2115000.0 L 2989000.0 2103000.0 L 2988000.0 2091000.0 L 2987000.0 2079000.0 L 2986000.0 2067000.0 L 2984000.0 2056000.0 L 2983000.0 2044000.0 L 2982000.0 2033000.0 L 2980000.0 2022000.0 L 2979000.0 2012000.0 L 2977000.0 2001000.0 L 2976000.0 1991000.0 L 2974000.0 1981000.0 L 2972000.0 1971000.0 L 2971000.0 1961000.0 L 2969000.0 1952000.0 L 2967000.0 1942000.0 L 2965000.0 1934000.0 L 2963000.0 1925000.0 L 2962000.0 1916000.0 L 2960000.0 1908000.0 L 2958000.0 1900000.0 L 2956000.0 1893000.0 L 2953000.0 1885000.0 L 2951000.0 1878000.0 L 2949000.0 1871000.0 L 2947000.0 1865000.0 L 2945000.0 1859000.0 L 2943000.0 1853000.0 L 2941000.0 1847000.0 L 2938000.0 1842000.0 L 2936000.0 1837000.0 L 2934000.0 1832000.0 L 2931000.0 1828000.0 L 2929000.0 1824000.0 L 2927000.0 1820000.0 L 2924000.0 1816000.0 L 2922000.0 1813000.0 L 2920000.0 1811000.0 L 2917000.0 1808000.0 L 2915000.0 1806000.0 L 2912000.0 1804000.0 L 2910000.0 1803000.0 L 2907000.0 1801000.0 L 2905000.0 1801000.0 L 2902000.0 1800000.0 L 2900000.0 1800000.0 L 1746000.0 1800000.0  M 1744999.999311 1799999.968289 A 46010.9 46010.9 0 0 0 1699999.968289 1847000.000689  M 1699999.968289 2855000.000689 A 46010.9 46010.9 0 0 0 1747000.000689 2900000.031711 " style="fill-rule: evenodd;"/></clipPath><mask id="pads-mask"><g style="fill:#ffffff; fill-opacity:1.0;  stroke:#ffffff; stroke-width:10000.000000; stroke-opacity:1;  stroke-linecap:round; stroke-linejoin:round;">
<path style="fill:#ffffff; fill-opacity:1.0;  stroke:#ffffff; stroke-width:10000.000000; stroke-opacity:1;  stroke-linecap:round; stroke-linejoin:round;fill-rule:evenodd;" d="M 3025000.000000,2275000.000000 2775000.000000,2275000.000000 2775000.000000,1850000.000000 3025000.000000,1850000.000000 Z"/> 
<path style="fill:#ffffff; fill-opacity:1.0;  stroke:#ffffff; stroke-width:10000.000000; stroke-opacity:1;  stroke-linecap:round; stroke-linejoin:round;fill-rule:evenodd;" d="M 3025000.000000,2850000.000000 2775000.000000,2850000.000000 2775000.000000,2400000.000000 3025000.000000,2400000.000000 Z"/> 
</g>
<g style="fill:#ffffff; fill-opacity:1.0;  stroke:#ffffff; stroke-width:1000.000000; stroke-opacity:1;  stroke-linecap:round; stroke-linejoin:round;">
<path style="fill:#ffffff; fill-opacity:1.0;  stroke:#ffffff; stroke-width:1000.000000; stroke-opacity:1;  stroke-linecap:round; stroke-linejoin:round;fill-rule:evenodd;" d="M 2550000.000000,2125000.000000 1850000.000000,2125000.000000 1775000.000000,2050000.000000 1775000.000000,1950000.000000 1850000.000000,1875000.000000 2550000.000000,1875000.000000 Z"/> 
<path style="fill:#ffffff; fill-opacity:1.0;  stroke:#ffffff; stroke-width:1000.000000; stroke-opacity:1;  stroke-linecap:round; stroke-linejoin:round;fill-rule:evenodd;" d="M 2550000.000000,2325000.000000 1850000.000000,2325000.000000 1850000.000000,2175000.000000 2550000.000000,2175000.000000 Z"/> 
<path style="fill:#ffffff; fill-opacity:1.0;  stroke:#ffffff; stroke-width:1000.000000; stroke-opacity:1;  stroke-linecap:round; stroke-linejoin:round;fill-rule:evenodd;" d="M 2550000.000000,2825000.000000 1850000.000000,2825000.000000 1775000.000000,2750000.000000 1775000.000000,2650000.000000 1850000.000000,2575000.000000 2550000.000000,2575000.000000 Z"/> 
<path style="fill:#ffffff; fill-opacity:1.0;  stroke:#ffffff; stroke-width:1000.000000; stroke-opacity:1;  stroke-linecap:round; stroke-linejoin:round;fill-rule:evenodd;" d="M 2550000.000000,2525000.000000 1850000.000000,2525000.000000 1850000.000000,2375000.000000 2550000.000000,2375000.000000 Z"/> 
</g>
<g style="fill:#ffffff; fill-opacity:1.0;  stroke:#ffffff; stroke-width:10000.000000; stroke-opacity:1;  stroke-linecap:round; stroke-linejoin:round;">
<path style="fill:#ffffff; fill-opacity:1.0;  stroke:#ffffff; stroke-width:10000.000000; stroke-opacity:1;  stroke-linecap:round; stroke-linejoin:round;fill-rule:evenodd;" d="M 3025000.000000,2275000.000000 2775000.000000,2275000.000000 2775000.000000,1850000.000000 3025000.000000,1850000.000000 Z"/> 
<path style="fill:#ffffff; fill-opacity:1.0;  stroke:#ffffff; stroke-width:10000.000000; stroke-opacity:1;  stroke-linecap:round; stroke-linejoin:round;fill-rule:evenodd;" d="M 3025000.000000,2850000.000000 2775000.000000,2850000.000000 2775000.000000,2400000.000000 3025000.000000,2400000.000000 Z"/> 
</g>
<g style="fill:#ffffff; fill-opacity:1.0;  stroke:#ffffff; stroke-width:1000.000000; stroke-opacity:1;  stroke-linecap:round; stroke-linejoin:round;">
<path style="fill:#ffffff; fill-opacity:1.0;  stroke:#ffffff; stroke-width:1000.000000; stroke-opacity:1;  stroke-linecap:round; stroke-linejoin:round;fill-rule:evenodd;" d="M 2550000.000000,2125000.000000 1850000.000000,2125000.000000 1775000.000000,2050000.000000 1775000.000000,1950000.000000 1850000.000000,1875000.000000 2550000.000000,1875000.000000 Z"/> 
<path style="fill:#ffffff; fill-opacity:1.0;  stroke:#ffffff; stroke-width:1000.000000; stroke-opacity:1;  stroke-linecap:round; stroke-linejoin:round;fill-rule:evenodd;" d="M 2550000.000000,2325000.000000 1850000.000000,2325000.000000 1850000.000000,2175000.000000 2550000.000000,2175000.000000 Z"/> 
<path style="fill:#ffffff; fill-opacity:1.0;  stroke:#ffffff; stroke-width:1000.000000; stroke-opacity:1;  stroke-linecap:round; stroke-linejoin:round;fill-rule:evenodd;" d="M 2550000.000000,2825000.000000 1850000.000000,2825000.000000 1775000.000000,2750000.000000 1775000.000000,2650000.000000 1850000.000000,2575000.000000 2550000.000000,2575000.000000 Z"/> 
<path style="fill:#ffffff; fill-opacity:1.0;  stroke:#ffffff; stroke-width:1000.000000; stroke-opacity:1;  stroke-linecap:round; stroke-linejoin:round;fill-rule:evenodd;" d="M 2550000.000000,2525000.000000 1850000.000000,2525000.000000 1850000.000000,2375000.000000 2550000.000000,2375000.000000 Z"/> 
</g> 
</mask><mask id="pads-mask-silkscreen"><rect x="-102500.0" y="-102500.0" width="3205000.0" height="3027500.0" fill="white"/><g style="fill:#000000; fill-opacity:1.0;  stroke:#000000; stroke-width:10000.000000; stroke-opacity:1;  stroke-linecap:round; stroke-linejoin:round;">
<path style="fill:#000000; fill-opacity:1.0;  stroke:#000000; stroke-width:10000.000000; stroke-opacity:1;  stroke-linecap:round; stroke-linejoin:round;fill-rule:evenodd;" d="M 3025000.000000,2275000.000000 2775000.000000,2275000.000000 2775000.000000,1850000.000000 3025000.000000,1850000.000000 Z"/> 
<path style="fill:#000000; fill-opacity:1.0;  stroke:#000000; stroke-width:10000.000000; stroke-opacity:1;  stroke-linecap:round; stroke-linejoin:round;fill-rule:evenodd;" d="M 3025000.000000,2850000.000000 2775000.000000,2850000.000000 2775000.000000,2400000.000000 3025000.000000,2400000.000000 Z"/> 
</g>
<g style="fill:#000000; fill-opacity:1.0;  stroke:#000000; stroke-width:1000.000000; stroke-opacity:1;  stroke-linecap:round; stroke-linejoin:round;">
<path style="fill:#000000; fill-opacity:1.0;  stroke:#000000; stroke-width:1000.000000; stroke-opacity:1;  stroke-linecap:round; stroke-linejoin:round;fill-rule:evenodd;" d="M 2550000.000000,2125000.000000 1850000.000000,2125000.000000 1775000.000000,2050000.000000 1775000.000000,1950000.000000 1850000.000000,1875000.000000 2550000.000000,1875000.000000 Z"/> 
<path style="fill:#000000; fill-opacity:1.0;  stroke:#000000; stroke-width:1000.000000; stroke-opacity:1;  stroke-linecap:round; stroke-linejoin:round;fill-rule:evenodd;" d="M 2550000.000000,2325000.000000 1850000.000000,2325000.000000 1850000.000000,2175000.000000 2550000.000000,2175000.000000 Z"/> 
<path style="fill:#000000; fill-opacity:1.0;  stroke:#000000; stroke-width:1000.000000; stroke-opacity:1;  stroke-linecap:round; stroke-linejoin:round;fill-rule:evenodd;" d="M 2550000.000000,2825000.000000 1850000.000000,2825000.000000 1775000.000000,2750000.000000 1775000.000000,2650000.000000 1850000.000000,2575000.000000 2550000.000000,2575000.000000 Z"/> 
<path style="fill:#000000; fill-opacity:1.0;  stroke:#000000; stroke-width:1000.000000; stroke-opacity:1;  stroke-linecap:round; stroke-linejoin:round;fill-rule:evenodd;" d="M 2550000.000000,2525000.000000 1850000.000000,2525000.000000 1850000.000000,2375000.000000 2550000.000000,2375000.000000 Z"/> 
</g>
<g style="fill:#000000; fill-opacity:1.0;  stroke:#000000; stroke-width:10000.000000; stroke-opacity:1;  stroke-linecap:round; stroke-linejoin:round;">
<path style="fill:#000000; fill-opacity:1.0;  stroke:#000000; stroke-width:10000.000000; stroke-opacity:1;  stroke-linecap:round; stroke-linejoin:round;fill-rule:evenodd;" d="M 3025000.000000,2275000.000000 2775000.000000,2275000.000000 2775000.000000,1850000.000000 3025000.000000,1850000.000000 Z"/> 
<path style="fill:#000000; fill-opacity:1.0;  stroke:#000000; stroke-width:10000.000000; stroke-opacity:1;  stroke-linecap:round; stroke-linejoin:round;fill-rule:evenodd;" d="M 3025000.000000,2850000.000000 2775000.000000,2850000.000000 2775000.000000,2400000.000000 3025000.000000,2400000.000000 Z"/> 
</g>
<g style="fill:#000000; fill-opacity:1.0;  stroke:#000000; stroke-width:1000.000000; stroke-opacity:1;  stroke-linecap:round; stroke-linejoin:round;">
<path style="fill:#000000; fill-opacity:1.0;  stroke:#000000; stroke-width:1000.000000; stroke-opacity:1;  stroke-linecap:round; stroke-linejoin:round;fill-rule:evenodd;" d="M 2550000.000000,2125000.000000 1850000.000000,2125000.000000 1775000.000000,2050000.000000 1775000.000000,1950000.000000 1850000.000000,1875000.000000 2550000.000000,1875000.000000 Z"/> 
<path style="fill:#000000; fill-opacity:1.0;  stroke:#000000; stroke-width:1000.000000; stroke-opacity:1;  stroke-linecap:round; stroke-linejoin:round;fill-rule:evenodd;" d="M 2550000.000000,2325000.000000 1850000.000000,2325000.000000 1850000.000000,2175000.000000 2550000.000000,2175000.000000 Z"/> 
<path style="fill:#000000; fill-opacity:1.0;  stroke:#000000; stroke-width:1000.000000; stroke-opacity:1;  stroke-linecap:round; stroke-linejoin:round;fill-rule:evenodd;" d="M 2550000.000000,2825000.000000 1850000.000000,2825000.000000 1775000.000000,2750000.000000 1775000.000000,2650000.000000 1850000.000000,2575000.000000 2550000.000000,2575000.000000 Z"/> 
<path style="fill:#000000; fill-opacity:1.0;  stroke:#000000; stroke-width:1000.000000; stroke-opacity:1;  stroke-linecap:round; stroke-linejoin:round;fill-rule:evenodd;" d="M 2550000.000000,2525000.000000 1850000.000000,2525000.000000 1850000.000000,2375000.000000 2550000.000000,2375000.000000 Z"/> 
</g> 
</mask><mask id="hole-mask"><g><rect x="-102500.0" y="-102500.0" fill="white" width="3205000.0" height="3027500.0"/><polyline stroke-linecap="round" stroke="black" stroke-width="80000.0" points="-85000.0 0 85000.0 0" transform="translate(2900000.0 2350000.0) rotate(-90.0)"/><polyline stroke-linecap="round" stroke="black" stroke-width="30000.0" points="-0.0 0 0.0 0" transform="translate(2449000.0 1877000.0) rotate(0)"/><polyline stroke-linecap="round" stroke="black" stroke-width="30000.0" points="-0.0 0 0.0 0" transform="translate(1775001.0 2100000.0) rotate(0)"/><polyline stroke-linecap="round" stroke="black" stroke-width="30000.0" points="-0.0 0 0.0 0" transform="translate(2730000.0 1871000.0) rotate(0)"/><polyline stroke-linecap="round" stroke="black" stroke-width="30000.0" points="-0.0 0 0.0 0" transform="translate(2674000.0 2269000.0) rotate(0)"/><polyline stroke-linecap="round" stroke="black" stroke-width="30000.0" points="-0.0 0 0.0 0" transform="translate(2726000.0 2841000.0) rotate(0)"/><polyline stroke-linecap="round" stroke="black" stroke-width="30000.0" points="-0.0 0 0.0 0" transform="translate(1775000.0 2600000.0) rotate(0)"/><polyline stroke-linecap="round" stroke="black" stroke-width="30000.0" points="-0.0 0 0.0 0" transform="translate(1790000.0 2192500.0) rotate(0)"/><polyline stroke-linecap="round" stroke="black" stroke-width="30000.0" points="-0.0 0 0.0 0" transform="translate(1790000.0 2392500.0) rotate(0)"/><polyline stroke-linecap="round" stroke="black" stroke-width="30000.0" points="-0.0 0 0.0 0" transform="translate(2773000.0 2322000.0) rotate(0)"/><polyline stroke-linecap="round" stroke="black" stroke-width="30000.0" points="-0.0 0 0.0 0" transform="translate(2850000.0 2179000.0) rotate(0)"/></g></mask></defs><g transform="" id="boardContainer"><g id="substrate" clip-path="url(#cut-off)" mask="url(#hole-mask)"><g id="substrate-board" style="fill:#4ca06c; stroke:#4ca06c;"><path d=" M 1700000.0 1848000.0 L 1700000.0 2853000.0  M 1746000.0 2900000.0 L 2900000.0 2900000.0 L 2902000.0 2900000.0 L 2905000.0 2899000.0 L 2907000.0 2899000.0 L 2910000.0 2897000.0 L 2912000.0 2896000.0 L 2915000.0 2894000.0 L 2917000.0 2892000.0 L 2920000.0 2889000.0 L 2922000.0 2887000.0 L 2924000.0 2884000.0 L 2927000.0 2880000.0 L 2929000.0 2876000.0 L 2931000.0 2872000.0 L 2934000.0 2868000.0 L 2936000.0 2863000.0 L 2938000.0 2858000.0 L 2941000.0 2853000.0 L 2943000.0 2847000.0 L 2945000.0 2841000.0 L 2947000.0 2835000.0 L 2949000.0 2829000.0 L 2951000.0 2822000.0 L 2953000.0 2815000.0 L 2956000.0 2807000.0 L 2958000.0 2800000.0 L 2960000.0 2792000.0 L 2962000.0 2784000.0 L 2963000.0 2775000.0 L 2965000.0 2766000.0 L 2967000.0 2758000.0 L 2969000.0 2748000.0 L 2971000.0 2739000.0 L 2972000.0 2729000.0 L 2974000.0 2719000.0 L 2976000.0 2709000.0 L 2977000.0 2699000.0 L 2979000.0 2688000.0 L 2980000.0 2678000.0 L 2982000.0 2667000.0 L 2983000.0 2656000.0 L 2984000.0 2644000.0 L 2986000.0 2633000.0 L 2987000.0 2621000.0 L 2988000.0 2609000.0 L 2989000.0 2597000.0 L 2990000.0 2585000.0 L 2991000.0 2573000.0 L 2992000.0 2560000.0 L 2993000.0 2548000.0 L 2994000.0 2535000.0 L 2995000.0 2523000.0 L 2996000.0 2510000.0 L 2996000.0 2497000.0 L 2997000.0 2484000.0 L 2998000.0 2471000.0 L 2998000.0 2457000.0 L 2999000.0 2444000.0 L 2999000.0 2431000.0 L 2999000.0 2417000.0 L 3000000.0 2404000.0 L 3000000.0 2390000.0 L 3000000.0 2377000.0 L 3000000.0 2363000.0 L 3000000.0 2350000.0 L 3000000.0 2337000.0 L 3000000.0 2323000.0 L 3000000.0 2310000.0 L 3000000.0 2296000.0 L 2999000.0 2283000.0 L 2999000.0 2269000.0 L 2999000.0 2256000.0 L 2998000.0 2243000.0 L 2998000.0 2229000.0 L 2997000.0 2216000.0 L 2996000.0 2203000.0 L 2996000.0 2190000.0 L 2995000.0 2177000.0 L 2994000.0 2165000.0 L 2993000.0 2152000.0 L 2992000.0 2140000.0 L 2991000.0 2127000.0 L 2990000.0 2115000.0 L 2989000.0 2103000.0 L 2988000.0 2091000.0 L 2987000.0 2079000.0 L 2986000.0 2067000.0 L 2984000.0 2056000.0 L 2983000.0 2044000.0 L 2982000.0 2033000.0 L 2980000.0 2022000.0 L 2979000.0 2012000.0 L 2977000.0 2001000.0 L 2976000.0 1991000.0 L 2974000.0 1981000.0 L 2972000.0 1971000.0 L 2971000.0 1961000.0 L 2969000.0 1952000.0 L 2967000.0 1942000.0 L 2965000.0 1934000.0 L 2963000.0 1925000.0 L 2962000.0 1916000.0 L 2960000.0 1908000.0 L 2958000.0 1900000.0 L 2956000.0 1893000.0 L 2953000.0 1885000.0 L 2951000.0 1878000.0 L 2949000.0 1871000.0 L 2947000.0 1865000.0 L 2945000.0 1859000.0 L 2943000.0 1853000.0 L 2941000.0 1847000.0 L 2938000.0 1842000.0 L 2936000.0 1837000.0 L 2934000.0 1832000.0 L 2931000.0 1828000.0 L 2929000.0 1824000.0 L 2927000.0 1820000.0 L 2924000.0 1816000.0 L 2922000.0 1813000.0 L 2920000.0 1811000.0 L 2917000.0 1808000.0 L 2915000.0 1806000.0 L 2912000.0 1804000.0 L 2910000.0 1803000.0 L 2907000.0 1801000.0 L 2905000.0 1801000.0 L 2902000.0 1800000.0 L 2900000.0 1800000.0 L 1746000.0 1800000.0  M 1744999.999311 1799999.968289 A 46010.9 46010.9 0 0 0 1699999.968289 1847000.000689  M 1699999.968289 2855000.000689 A 46010.9 46010.9 0 0 0 1747000.000689 2900000.031711 " style="fill-rule: evenodd;"/><g style="fill-opacity: 0.0;stroke-width: 5000.000000;stroke-opacity: 1;stroke-linecap: round;stroke-linejoin: round">
<path d="M1700000 1848000 L1700000 2853000 "/>
<path d="M2900000 1800000 L1746000 1800000 "/>
<path d="M1746000 2900000 L2900000 2900000 "/>
<path d="M3000000 2350000 L3000000 2337000 "/>
<path d="M3000000 2337000 L3000000 2323000 "/>
<path d="M3000000 2323000 L3000000 2310000 "/>
<path d="M3000000 2310000 L3000000 2296000 "/>
<path d="M3000000 2296000 L2999000 2283000 "/>
<path d="M2999000 2283000 L2999000 2269000 "/>
<path d="M2999000 2269000 L2999000 2256000 "/>
<path d="M2999000 2256000 L2998000 2243000 "/>
<path d="M2998000 2243000 L2998000 2229000 "/>
<path d="M2998000 2229000 L2997000 2216000 "/>
<path d="M2997000 2216000 L2996000 2203000 "/>
<path d="M2996000 2203000 L2996000 2190000 "/>
<path d="M2996000 2190000 L2995000 2177000 "/>
<path d="M2995000 2177000 L2994000 2165000 "/>
<path d="M2994000 2165000 L2993000 2152000 "/>
<path d="M2993000 2152000 L2992000 2140000 "/>
<path d="M2992000 2140000 L2991000 2127000 "/>
<path d="M2991000 2127000 L2990000 2115000 "/>
<path d="M2990000 2115000 L2989000 2103000 "/>
<path d="M2989000 2103000 L2988000 2091000 "/>
<path d="M2988000 2091000 L2987000 2079000 "/>
<path d="M2987000 2079000 L2986000 2067000 "/>
<path d="M2986000 2067000 L2984000 2056000 "/>
<path d="M2984000 2056000 L2983000 2044000 "/>
<path d="M2983000 2044000 L2982000 2033000 "/>
<path d="M2982000 2033000 L2980000 2022000 "/>
<path d="M2980000 2022000 L2979000 2012000 "/>
<path d="M2979000 2012000 L2977000 2001000 "/>
<path d="M2977000 2001000 L2976000 1991000 "/>
<path d="M2976000 1991000 L2974000 1981000 "/>
<path d="M2974000 1981000 L2972000 1971000 "/>
<path d="M2972000 1971000 L2971000 1961000 "/>
<path d="M2971000 1961000 L2969000 1952000 "/>
<path d="M2969000 1952000 L2967000 1942000 "/>
<path d="M2967000 1942000 L2965000 1934000 "/>
<path d="M2965000 1934000 L2963000 1925000 "/>
<path d="M2963000 1925000 L2962000 1916000 "/>
<path d="M2962000 1916000 L2960000 1908000 "/>
<path d="M2960000 1908000 L2958000 1900000 "/>
<path d="M2958000 1900000 L2956000 1893000 "/>
<path d="M2956000 1893000 L2953000 1885000 "/>
<path d="M2953000 1885000 L2951000 1878000 "/>
<path d="M2951000 1878000 L2949000 1871000 "/>
<path d="M2949000 1871000 L2947000 1865000 "/>
<path d="M2947000 1865000 L2945000 1859000 "/>
<path d="M2945000 1859000 L2943000 1853000 "/>
<path d="M2943000 1853000 L2941000 1847000 "/>
<path d="M2941000 1847000 L2938000 1842000 "/>
<path d="M2938000 1842000 L2936000 1837000 "/>
<path d="M2936000 1837000 L2934000 1832000 "/>
<path d="M2934000 1832000 L2931000 1828000 "/>
<path d="M2931000 1828000 L2929000 1824000 "/>
<path d="M2929000 1824000 L2927000 1820000 "/>
<path d="M2927000 1820000 L2924000 1816000 "/>
<path d="M2924000 1816000 L2922000 1813000 "/>
<path d="M2922000 1813000 L2920000 1811000 "/>
<path d="M2920000 1811000 L2917000 1808000 "/>
<path d="M2917000 1808000 L2915000 1806000 "/>
<path d="M2915000 1806000 L2912000 1804000 "/>
<path d="M2912000 1804000 L2910000 1803000 "/>
<path d="M2910000 1803000 L2907000 1801000 "/>
<path d="M2907000 1801000 L2905000 1801000 "/>
<path d="M2905000 1801000 L2902000 1800000 "/>
<path d="M2902000 1800000 L2900000 1800000 "/>
<path d="M2900000 2900000 L2902000 2900000 "/>
<path d="M2902000 2900000 L2905000 2899000 "/>
<path d="M2905000 2899000 L2907000 2899000 "/>
<path d="M2907000 2899000 L2910000 2897000 "/>
<path d="M2910000 2897000 L2912000 2896000 "/>
<path d="M2912000 2896000 L2915000 2894000 "/>
<path d="M2915000 2894000 L2917000 2892000 "/>
<path d="M2917000 2892000 L2920000 2889000 "/>
<path d="M2920000 2889000 L2922000 2887000 "/>
<path d="M2922000 2887000 L2924000 2884000 "/>
<path d="M2924000 2884000 L2927000 2880000 "/>
<path d="M2927000 2880000 L2929000 2876000 "/>
<path d="M2929000 2876000 L2931000 2872000 "/>
<path d="M2931000 2872000 L2934000 2868000 "/>
<path d="M2934000 2868000 L2936000 2863000 "/>
<path d="M2936000 2863000 L2938000 2858000 "/>
<path d="M2938000 2858000 L2941000 2853000 "/>
<path d="M2941000 2853000 L2943000 2847000 "/>
<path d="M2943000 2847000 L2945000 2841000 "/>
<path d="M2945000 2841000 L2947000 2835000 "/>
<path d="M2947000 2835000 L2949000 2829000 "/>
<path d="M2949000 2829000 L2951000 2822000 "/>
<path d="M2951000 2822000 L2953000 2815000 "/>
<path d="M2953000 2815000 L2956000 2807000 "/>
<path d="M2956000 2807000 L2958000 2800000 "/>
<path d="M2958000 2800000 L2960000 2792000 "/>
<path d="M2960000 2792000 L2962000 2784000 "/>
<path d="M2962000 2784000 L2963000 2775000 "/>
<path d="M2963000 2775000 L2965000 2766000 "/>
<path d="M2965000 2766000 L2967000 2758000 "/>
<path d="M2967000 2758000 L2969000 2748000 "/>
<path d="M2969000 2748000 L2971000 2739000 "/>
<path d="M2971000 2739000 L2972000 2729000 "/>
<path d="M2972000 2729000 L2974000 2719000 "/>
<path d="M2974000 2719000 L2976000 2709000 "/>
<path d="M2976000 2709000 L2977000 2699000 "/>
<path d="M2977000 2699000 L2979000 2688000 "/>
<path d="M2979000 2688000 L2980000 2678000 "/>
<path d="M2980000 2678000 L2982000 2667000 "/>
<path d="M2982000 2667000 L2983000 2656000 "/>
<path d="M2983000 2656000 L2984000 2644000 "/>
<path d="M2984000 2644000 L2986000 2633000 "/>
<path d="M2986000 2633000 L2987000 2621000 "/>
<path d="M2987000 2621000 L2988000 2609000 "/>
<path d="M2988000 2609000 L2989000 2597000 "/>
<path d="M2989000 2597000 L2990000 2585000 "/>
<path d="M2990000 2585000 L2991000 2573000 "/>
<path d="M2991000 2573000 L2992000 2560000 "/>
<path d="M2992000 2560000 L2993000 2548000 "/>
<path d="M2993000 2548000 L2994000 2535000 "/>
<path d="M2994000 2535000 L2995000 2523000 "/>
<path d="M2995000 2523000 L2996000 2510000 "/>
<path d="M2996000 2510000 L2996000 2497000 "/>
<path d="M2996000 2497000 L2997000 2484000 "/>
<path d="M2997000 2484000 L2998000 2471000 "/>
<path d="M2998000 2471000 L2998000 2457000 "/>
<path d="M2998000 2457000 L2999000 2444000 "/>
<path d="M2999000 2444000 L2999000 2431000 "/>
<path d="M2999000 2431000 L2999000 2417000 "/>
<path d="M2999000 2417000 L3000000 2404000 "/>
<path d="M3000000 2404000 L3000000 2390000 "/>
<path d="M3000000 2390000 L3000000 2377000 "/>
<path d="M3000000 2377000 L3000000 2363000 "/>
<path d="M3000000 2363000 L3000000 2350000 "/>
<path d="M1744999.999311 1799999.968289 A46010.900000 46010.900000 0.0 0 0 1699999.968289 1847000.000689"/>
<path d="M1699999.968289 2855000.000689 A46010.900000 46010.900000 0.0 0 0 1747000.000689 2900000.031711"/>
</g> 
</g><g id="substrate-clad" style="fill:#9c6b28; stroke:#9c6b28;"><g style="fill-opacity: 1.0;stroke-width: 10000.000000;stroke-opacity: 1;stroke-linecap: round;stroke-linejoin: round">
<path style="fill-opacity: 1.0;stroke-width: 10000.000000;stroke-opacity: 1;stroke-linecap: round;stroke-linejoin: round;fill-rule: evenodd" d="M 3025000.000000,2275000.000000 2775000.000000,2275000.000000 2775000.000000,1850000.000000 3025000.000000,1850000.000000 Z"/> 
<path style="fill-opacity: 1.0;stroke-width: 10000.000000;stroke-opacity: 1;stroke-linecap: round;stroke-linejoin: round;fill-rule: evenodd" d="M 3025000.000000,2850000.000000 2775000.000000,2850000.000000 2775000.000000,2400000.000000 3025000.000000,2400000.000000 Z"/> 
</g>
<g style="fill-opacity: 1.0;stroke-width: 1000.000000;stroke-opacity: 1;stroke-linecap: round;stroke-linejoin: round">
<path style="fill-opacity: 1.0;stroke-width: 1000.000000;stroke-opacity: 1;stroke-linecap: round;stroke-linejoin: round;fill-rule: evenodd" d="M 2550000.000000,2125000.000000 1850000.000000,2125000.000000 1775000.000000,2050000.000000 1775000.000000,1950000.000000 1850000.000000,1875000.000000 2550000.000000,1875000.000000 Z"/> 
<path style="fill-opacity: 1.0;stroke-width: 1000.000000;stroke-opacity: 1;stroke-linecap: round;stroke-linejoin: round;fill-rule: evenodd" d="M 2550000.000000,2325000.000000 1850000.000000,2325000.000000 1850000.000000,2175000.000000 2550000.000000,2175000.000000 Z"/> 
<path style="fill-opacity: 1.0;stroke-width: 1000.000000;stroke-opacity: 1;stroke-linecap: round;stroke-linejoin: round;fill-rule: evenodd" d="M 2550000.000000,2825000.000000 1850000.000000,2825000.000000 1775000.000000,2750000.000000 1775000.000000,2650000.000000 1850000.000000,2575000.000000 2550000.000000,2575000.000000 Z"/> 
<path style="fill-opacity: 1.0;stroke-width: 1000.000000;stroke-opacity: 1;stroke-linecap: round;stroke-linejoin: round;fill-rule: evenodd" d="M 2550000.000000,2525000.000000 1850000.000000,2525000.000000 1850000.000000,2375000.000000 2550000.000000,2375000.000000 Z"/> 
</g>
<g style="fill-opacity: 1.0;stroke-width: 10000.000000;stroke-opacity: 1;stroke-linecap: round;stroke-linejoin: round">
<path style="fill-opacity: 1.0;stroke-width: 10000.000000;stroke-opacity: 1;stroke-linecap: round;stroke-linejoin: round;fill-rule: evenodd" d="M 3025000.000000,2275000.000000 2775000.000000,2275000.000000 2775000.000000,1850000.000000 3025000.000000,1850000.000000 Z"/> 
<path style="fill-opacity: 1.0;stroke-width: 10000.000000;stroke-opacity: 1;stroke-linecap: round;stroke-linejoin: round;fill-rule: evenodd" d="M 3025000.000000,2850000.000000 2775000.000000,2850000.000000 2775000.000000,2400000.000000 3025000.000000,2400000.000000 Z"/> 
</g>
<g style="fill-opacity: 1.0;stroke-width: 1000.000000;stroke-opacity: 1;stroke-linecap: round;stroke-linejoin: round">
<path style="fill-opacity: 1.0;stroke-width: 1000.000000;stroke-opacity: 1;stroke-linecap: round;stroke-linejoin: round;fill-rule: evenodd" d="M 2550000.000000,2125000.000000 1850000.000000,2125000.000000 1775000.000000,2050000.000000 1775000.000000,1950000.000000 1850000.000000,1875000.000000 2550000.000000,1875000.000000 Z"/> 
<path style="fill-opacity: 1.0;stroke-width: 1000.000000;stroke-opacity: 1;stroke-linecap: round;stroke-linejoin: round;fill-rule: evenodd" d="M 2550000.000000,2325000.000000 1850000.000000,2325000.000000 1850000.000000,2175000.000000 2550000.000000,2175000.000000 Z"/> 
<path style="fill-opacity: 1.0;stroke-width: 1000.000000;stroke-opacity: 1;stroke-linecap: round;stroke-linejoin: round;fill-rule: evenodd" d="M 2550000.000000,2825000.000000 1850000.000000,2825000.000000 1775000.000000,2750000.000000 1775000.000000,2650000.000000 1850000.000000,2575000.000000 2550000.000000,2575000.000000 Z"/> 
<path style="fill-opacity: 1.0;stroke-width: 1000.000000;stroke-opacity: 1;stroke-linecap: round;stroke-linejoin: round;fill-rule: evenodd" d="M 2550000.000000,2525000.000000 1850000.000000,2525000.000000 1850000.000000,2375000.000000 2550000.000000,2375000.000000 Z"/> 
</g> 
</g><g id="substrate-copper" style="fill:#417e5a; stroke:#417e5a;"><g style="fill-opacity: 0.0;stroke-width: 0.000000;stroke-opacity: 1;stroke-linecap: round;stroke-linejoin: round">
<g style="fill-opacity: 1.0;stroke-width: 0.100000;stroke-opacity: 1;stroke-linecap: round;stroke-linejoin: round">
<path style="fill-opacity: 1.0;stroke-width: 0.100000;stroke-opacity: 1;stroke-linecap: round;stroke-linejoin: round;fill-rule: evenodd" d="M 1825000.000000,2875000.000000 1825000.000000,2562500.000000 2575000.000000,2562500.000000 2575000.000000,2875000.000000 Z"/> 
<path style="fill-opacity: 1.0;stroke-width: 0.100000;stroke-opacity: 1;stroke-linecap: round;stroke-linejoin: round;fill-rule: evenodd" d="M 1825000.000000,2137500.000000 1825000.000000,1825000.000000 2575000.000000,1825000.000000 2575000.000000,2137500.000000 Z"/> 
<path style="fill-opacity: 1.0;stroke-width: 0.100000;stroke-opacity: 1;stroke-linecap: round;stroke-linejoin: round;fill-rule: evenodd" d="M 1825000.000000,2537500.000000 1825000.000000,2362500.000000 2575000.000000,2362500.000000 2575000.000000,2537500.000000 Z"/> 
<path style="fill-opacity: 1.0;stroke-width: 0.100000;stroke-opacity: 1;stroke-linecap: round;stroke-linejoin: round;fill-rule: evenodd" d="M 1825000.000000,2337500.000000 1825000.000000,2162500.000000 2575000.000000,2162500.000000 2575000.000000,2337500.000000 Z"/> 
<path style="fill-opacity: 1.0;stroke-width: 0.100000;stroke-opacity: 1;stroke-linecap: round;stroke-linejoin: round;fill-rule: evenodd" d="M 1825000.000000,2562500.000000 1725000.000000,2662500.000000 1725000.000000,2775000.000000 1825000.000000,2875000.000000 Z"/> 
<path style="fill-opacity: 1.0;stroke-width: 0.100000;stroke-opacity: 1;stroke-linecap: round;stroke-linejoin: round;fill-rule: evenodd" d="M 1825000.000000,1826250.000000 1725000.000000,1926250.000000 1725000.000000,2038750.000000 1825000.000000,2138750.000000 Z"/> 
<path style="fill-opacity: 1.0;stroke-width: 0.100000;stroke-opacity: 1;stroke-linecap: round;stroke-linejoin: round;fill-rule: evenodd" d="M 1825000.000000,2562500.000000 1825000.000000,2662500.000000 1725000.000000,2662500.000000 1725000.000000,2562500.000000 Z"/> 
<path style="fill-opacity: 1.0;stroke-width: 0.100000;stroke-opacity: 1;stroke-linecap: round;stroke-linejoin: round;fill-rule: evenodd" d="M 1825000.000000,2037500.000000 1825000.000000,2137500.000000 1725000.000000,2137500.000000 1725000.000000,2037500.000000 Z"/> 
</g>
<g style="fill-opacity: 1.0;stroke-width: 0.100000;stroke-opacity: 1;stroke-linecap: round;stroke-linejoin: round">
<circle cx="2449000.000000" cy="1877000.000000" r="30000.000000"/> 
</g>
<g style="fill-opacity: 1.0;stroke-width: 0.100000;stroke-opacity: 1;stroke-linecap: round;stroke-linejoin: round">
<circle cx="1775001.000000" cy="2100000.000000" r="30000.000000"/> 
</g>
<g style="fill-opacity: 1.0;stroke-width: 0.100000;stroke-opacity: 1;stroke-linecap: round;stroke-linejoin: round">
<circle cx="2730000.000000" cy="1871000.000000" r="30000.000000"/> 
</g>
<g style="fill-opacity: 1.0;stroke-width: 0.100000;stroke-opacity: 1;stroke-linecap: round;stroke-linejoin: round">
<circle cx="2674000.000000" cy="2269000.000000" r="30000.000000"/> 
</g>
<g style="fill-opacity: 1.0;stroke-width: 0.100000;stroke-opacity: 1;stroke-linecap: round;stroke-linejoin: round">
<circle cx="2726000.000000" cy="2841000.000000" r="30000.000000"/> 
</g>
<g style="fill-opacity: 1.0;stroke-width: 0.100000;stroke-opacity: 1;stroke-linecap: round;stroke-linejoin: round">
<circle cx="1775000.000000" cy="2600000.000000" r="30000.000000"/> 
</g>
<g style="fill-opacity: 1.0;stroke-width: 0.100000;stroke-opacity: 1;stroke-linecap: round;stroke-linejoin: round">
<circle cx="1790000.000000" cy="2192500.000000" r="30000.000000"/> 
</g>
<g style="fill-opacity: 1.0;stroke-width: 0.100000;stroke-opacity: 1;stroke-linecap: round;stroke-linejoin: round">
<circle cx="1790000.000000" cy="2392500.000000" r="30000.000000"/> 
</g>
<g style="fill-opacity: 1.0;stroke-width: 0.100000;stroke-opacity: 1;stroke-linecap: round;stroke-linejoin: round">
<circle cx="2773000.000000" cy="2322000.000000" r="30000.000000"/> 
</g>
<g style="fill-opacity: 1.0;stroke-width: 0.100000;stroke-opacity: 1;stroke-linecap: round;stroke-linejoin: round">
<circle cx="2850000.000000" cy="2179000.000000" r="30000.000000"/> 
</g>
<g style="fill-opacity: 0.0;stroke-width: 60000.000000;stroke-opacity: 1;stroke-linecap: round;stroke-linejoin: round">
<path d="M2200000 1981250 L2344750 1981250 "/>
<path d="M2344750 1981250 L2449000 1877000 "/>
<path d="M1775000 1982500 L2198750 1982500 "/>
<path d="M2198750 1982500 L2200000 1981250 "/>
<path d="M1775001 2100000 L1775001 1982501 "/>
<path d="M1775001 1982501 L1775000 1982500 "/>
</g>
<g style="fill-opacity: 0.0;stroke-width: 15240.000000;stroke-opacity: 1;stroke-linecap: round;stroke-linejoin: round">
<path d="M1776250 1981250 L1775000 1982500 "/>
<path d="M2716000 2267000 L2716000 1885000 "/>
<path d="M2716000 1885000 L2730000 1871000 "/>
<path d="M2716000 2831000 L2716000 2267000 "/>
<path d="M2714000 2269000 L2716000 2267000 "/>
<path d="M2674000 2269000 L2714000 2269000 "/>
<path d="M2726000 2841000 L2716000 2831000 "/>
</g>
<g style="fill-opacity: 0.0;stroke-width: 60000.000000;stroke-opacity: 1;stroke-linecap: round;stroke-linejoin: round">
<path d="M1775000 2718750 L1775000 2600000 "/>
<path d="M1775000 2600000 L1893750 2718750 "/>
<path d="M1893750 2718750 L2200000 2718750 "/>
<path d="M1790000 2192500 L2142500 2192500 "/>
<path d="M2142500 2192500 L2200000 2250000 "/>
<path d="M1790000 2392500 L2142500 2392500 "/>
<path d="M2142500 2392500 L2200000 2450000 "/>
<path d="M1832426 2392500 L1790000 2392500 "/>
<path d="M1910538 2400000 L1903038 2392500 "/>
<path d="M1903038 2392500 L1832426 2392500 "/>
</g>
<g style="fill-opacity: 0.0;stroke-width: 15240.000000;stroke-opacity: 1;stroke-linecap: round;stroke-linejoin: round">
<path d="M2773000 2322000 L2773000 2234500 "/>
<path d="M2773000 2234500 L2828500 2179000 "/>
<path d="M2828500 2179000 L2850000 2179000 "/>
</g>
</g> 
</g><g id="substrate-pads" style="fill:#b5ae30; stroke:#b5ae30;" mask="url(#pads-mask)"><g style="fill-opacity: 0.0;stroke-width: 0.000000;stroke-opacity: 1;stroke-linecap: round;stroke-linejoin: round">
<g style="fill-opacity: 1.0;stroke-width: 0.100000;stroke-opacity: 1;stroke-linecap: round;stroke-linejoin: round">
<path style="fill-opacity: 1.0;stroke-width: 0.100000;stroke-opacity: 1;stroke-linecap: round;stroke-linejoin: round;fill-rule: evenodd" d="M 1825000.000000,2875000.000000 1825000.000000,2562500.000000 2575000.000000,2562500.000000 2575000.000000,2875000.000000 Z"/> 
<path style="fill-opacity: 1.0;stroke-width: 0.100000;stroke-opacity: 1;stroke-linecap: round;stroke-linejoin: round;fill-rule: evenodd" d="M 1825000.000000,2137500.000000 1825000.000000,1825000.000000 2575000.000000,1825000.000000 2575000.000000,2137500.000000 Z"/> 
<path style="fill-opacity: 1.0;stroke-width: 0.100000;stroke-opacity: 1;stroke-linecap: round;stroke-linejoin: round;fill-rule: evenodd" d="M 1825000.000000,2537500.000000 1825000.000000,2362500.000000 2575000.000000,2362500.000000 2575000.000000,2537500.000000 Z"/> 
<path style="fill-opacity: 1.0;stroke-width: 0.100000;stroke-opacity: 1;stroke-linecap: round;stroke-linejoin: round;fill-rule: evenodd" d="M 1825000.000000,2337500.000000 1825000.000000,2162500.000000 2575000.000000,2162500.000000 2575000.000000,2337500.000000 Z"/> 
<path style="fill-opacity: 1.0;stroke-width: 0.100000;stroke-opacity: 1;stroke-linecap: round;stroke-linejoin: round;fill-rule: evenodd" d="M 1825000.000000,2562500.000000 1725000.000000,2662500.000000 1725000.000000,2775000.000000 1825000.000000,2875000.000000 Z"/> 
<path style="fill-opacity: 1.0;stroke-width: 0.100000;stroke-opacity: 1;stroke-linecap: round;stroke-linejoin: round;fill-rule: evenodd" d="M 1825000.000000,1826250.000000 1725000.000000,1926250.000000 1725000.000000,2038750.000000 1825000.000000,2138750.000000 Z"/> 
<path style="fill-opacity: 1.0;stroke-width: 0.100000;stroke-opacity: 1;stroke-linecap: round;stroke-linejoin: round;fill-rule: evenodd" d="M 1825000.000000,2562500.000000 1825000.000000,2662500.000000 1725000.000000,2662500.000000 1725000.000000,2562500.000000 Z"/> 
<path style="fill-opacity: 1.0;stroke-width: 0.100000;stroke-opacity: 1;stroke-linecap: round;stroke-linejoin: round;fill-rule: evenodd" d="M 1825000.000000,2037500.000000 1825000.000000,2137500.000000 1725000.000000,2137500.000000 1725000.000000,2037500.000000 Z"/> 
</g>
<g style="fill-opacity: 1.0;stroke-width: 0.100000;stroke-opacity: 1;stroke-linecap: round;stroke-linejoin: round">
<circle cx="2449000.000000" cy="1877000.000000" r="30000.000000"/> 
</g>
<g style="fill-opacity: 1.0;stroke-width: 0.100000;stroke-opacity: 1;stroke-linecap: round;stroke-linejoin: round">
<circle cx="1775001.000000" cy="2100000.000000" r="30000.000000"/> 
</g>
<g style="fill-opacity: 1.0;stroke-width: 0.100000;stroke-opacity: 1;stroke-linecap: round;stroke-linejoin: round">
<circle cx="2730000.000000" cy="1871000.000000" r="30000.000000"/> 
</g>
<g style="fill-opacity: 1.0;stroke-width: 0.100000;stroke-opacity: 1;stroke-linecap: round;stroke-linejoin: round">
<circle cx="2674000.000000" cy="2269000.000000" r="30000.000000"/> 
</g>
<g style="fill-opacity: 1.0;stroke-width: 0.100000;stroke-opacity: 1;stroke-linecap: round;stroke-linejoin: round">
<circle cx="2726000.000000" cy="2841000.000000" r="30000.000000"/> 
</g>
<g style="fill-opacity: 1.0;stroke-width: 0.100000;stroke-opacity: 1;stroke-linecap: round;stroke-linejoin: round">
<circle cx="1775000.000000" cy="2600000.000000" r="30000.000000"/> 
</g>
<g style="fill-opacity: 1.0;stroke-width: 0.100000;stroke-opacity: 1;stroke-linecap: round;stroke-linejoin: round">
<circle cx="1790000.000000" cy="2192500.000000" r="30000.000000"/> 
</g>
<g style="fill-opacity: 1.0;stroke-width: 0.100000;stroke-opacity: 1;stroke-linecap: round;stroke-linejoin: round">
<circle cx="1790000.000000" cy="2392500.000000" r="30000.000000"/> 
</g>
<g style="fill-opacity: 1.0;stroke-width: 0.100000;stroke-opacity: 1;stroke-linecap: round;stroke-linejoin: round">
<circle cx="2773000.000000" cy="2322000.000000" r="30000.000000"/> 
</g>
<g style="fill-opacity: 1.0;stroke-width: 0.100000;stroke-opacity: 1;stroke-linecap: round;stroke-linejoin: round">
<circle cx="2850000.000000" cy="2179000.000000" r="30000.000000"/> 
</g>
<g style="fill-opacity: 0.0;stroke-width: 60000.000000;stroke-opacity: 1;stroke-linecap: round;stroke-linejoin: round">
<path d="M2200000 1981250 L2344750 1981250 "/>
<path d="M2344750 1981250 L2449000 1877000 "/>
<path d="M1775000 1982500 L2198750 1982500 "/>
<path d="M2198750 1982500 L2200000 1981250 "/>
<path d="M1775001 2100000 L1775001 1982501 "/>
<path d="M1775001 1982501 L1775000 1982500 "/>
</g>
<g style="fill-opacity: 0.0;stroke-width: 15240.000000;stroke-opacity: 1;stroke-linecap: round;stroke-linejoin: round">
<path d="M1776250 1981250 L1775000 1982500 "/>
<path d="M2716000 2267000 L2716000 1885000 "/>
<path d="M2716000 1885000 L2730000 1871000 "/>
<path d="M2716000 2831000 L2716000 2267000 "/>
<path d="M2714000 2269000 L2716000 2267000 "/>
<path d="M2674000 2269000 L2714000 2269000 "/>
<path d="M2726000 2841000 L2716000 2831000 "/>
</g>
<g style="fill-opacity: 0.0;stroke-width: 60000.000000;stroke-opacity: 1;stroke-linecap: round;stroke-linejoin: round">
<path d="M1775000 2718750 L1775000 2600000 "/>
<path d="M1775000 2600000 L1893750 2718750 "/>
<path d="M1893750 2718750 L2200000 2718750 "/>
<path d="M1790000 2192500 L2142500 2192500 "/>
<path d="M2142500 2192500 L2200000 2250000 "/>
<path d="M1790000 2392500 L2142500 2392500 "/>
<path d="M2142500 2392500 L2200000 2450000 "/>
<path d="M1832426 2392500 L1790000 2392500 "/>
<path d="M1910538 2400000 L1903038 2392500 "/>
<path d="M1903038 2392500 L1832426 2392500 "/>
</g>
<g style="fill-opacity: 0.0;stroke-width: 15240.000000;stroke-opacity: 1;stroke-linecap: round;stroke-linejoin: round">
<path d="M2773000 2322000 L2773000 2234500 "/>
<path d="M2773000 2234500 L2828500 2179000 "/>
<path d="M2828500 2179000 L2850000 2179000 "/>
</g>
</g> 
</g><g id="substrate-outline" style="fill:#000000; stroke:#000000; stroke-width: 15000.0"><g style="fill-opacity: 0.0;stroke-opacity: 1;stroke-linecap: round;stroke-linejoin: round">
<path d="M1700000 1848000 L1700000 2853000 "/>
<path d="M2900000 1800000 L1746000 1800000 "/>
<path d="M1746000 2900000 L2900000 2900000 "/>
<path d="M3000000 2350000 L3000000 2337000 "/>
<path d="M3000000 2337000 L3000000 2323000 "/>
<path d="M3000000 2323000 L3000000 2310000 "/>
<path d="M3000000 2310000 L3000000 2296000 "/>
<path d="M3000000 2296000 L2999000 2283000 "/>
<path d="M2999000 2283000 L2999000 2269000 "/>
<path d="M2999000 2269000 L2999000 2256000 "/>
<path d="M2999000 2256000 L2998000 2243000 "/>
<path d="M2998000 2243000 L2998000 2229000 "/>
<path d="M2998000 2229000 L2997000 2216000 "/>
<path d="M2997000 2216000 L2996000 2203000 "/>
<path d="M2996000 2203000 L2996000 2190000 "/>
<path d="M2996000 2190000 L2995000 2177000 "/>
<path d="M2995000 2177000 L2994000 2165000 "/>
<path d="M2994000 2165000 L2993000 2152000 "/>
<path d="M2993000 2152000 L2992000 2140000 "/>
<path d="M2992000 2140000 L2991000 2127000 "/>
<path d="M2991000 2127000 L2990000 2115000 "/>
<path d="M2990000 2115000 L2989000 2103000 "/>
<path d="M2989000 2103000 L2988000 2091000 "/>
<path d="M2988000 2091000 L2987000 2079000 "/>
<path d="M2987000 2079000 L2986000 2067000 "/>
<path d="M2986000 2067000 L2984000 2056000 "/>
<path d="M2984000 2056000 L2983000 2044000 "/>
<path d="M2983000 2044000 L2982000 2033000 "/>
<path d="M2982000 2033000 L2980000 2022000 "/>
<path d="M2980000 2022000 L2979000 2012000 "/>
<path d="M2979000 2012000 L2977000 2001000 "/>
<path d="M2977000 2001000 L2976000 1991000 "/>
<path d="M2976000 1991000 L2974000 1981000 "/>
<path d="M2974000 1981000 L2972000 1971000 "/>
<path d="M2972000 1971000 L2971000 1961000 "/>
<path d="M2971000 1961000 L2969000 1952000 "/>
<path d="M2969000 1952000 L2967000 1942000 "/>
<path d="M2967000 1942000 L2965000 1934000 "/>
<path d="M2965000 1934000 L2963000 1925000 "/>
<path d="M2963000 1925000 L2962000 1916000 "/>
<path d="M2962000 1916000 L2960000 1908000 "/>
<path d="M2960000 1908000 L2958000 1900000 "/>
<path d="M2958000 1900000 L2956000 1893000 "/>
<path d="M2956000 1893000 L2953000 1885000 "/>
<path d="M2953000 1885000 L2951000 1878000 "/>
<path d="M2951000 1878000 L2949000 1871000 "/>
<path d="M2949000 1871000 L2947000 1865000 "/>
<path d="M2947000 1865000 L2945000 1859000 "/>
<path d="M2945000 1859000 L2943000 1853000 "/>
<path d="M2943000 1853000 L2941000 1847000 "/>
<path d="M2941000 1847000 L2938000 1842000 "/>
<path d="M2938000 1842000 L2936000 1837000 "/>
<path d="M2936000 1837000 L2934000 1832000 "/>
<path d="M2934000 1832000 L2931000 1828000 "/>
<path d="M2931000 1828000 L2929000 1824000 "/>
<path d="M2929000 1824000 L2927000 1820000 "/>
<path d="M2927000 1820000 L2924000 1816000 "/>
<path d="M2924000 1816000 L2922000 1813000 "/>
<path d="M2922000 1813000 L2920000 1811000 "/>
<path d="M2920000 1811000 L2917000 1808000 "/>
<path d="M2917000 1808000 L2915000 1806000 "/>
<path d="M2915000 1806000 L2912000 1804000 "/>
<path d="M2912000 1804000 L2910000 1803000 "/>
<path d="M2910000 1803000 L2907000 1801000 "/>
<path d="M2907000 1801000 L2905000 1801000 "/>
<path d="M2905000 1801000 L2902000 1800000 "/>
<path d="M2902000 1800000 L2900000 1800000 "/>
<path d="M2900000 2900000 L2902000 2900000 "/>
<path d="M2902000 2900000 L2905000 2899000 "/>
<path d="M2905000 2899000 L2907000 2899000 "/>
<path d="M2907000 2899000 L2910000 2897000 "/>
<path d="M2910000 2897000 L2912000 2896000 "/>
<path d="M2912000 2896000 L2915000 2894000 "/>
<path d="M2915000 2894000 L2917000 2892000 "/>
<path d="M2917000 2892000 L2920000 2889000 "/>
<path d="M2920000 2889000 L2922000 2887000 "/>
<path d="M2922000 2887000 L2924000 2884000 "/>
<path d="M2924000 2884000 L2927000 2880000 "/>
<path d="M2927000 2880000 L2929000 2876000 "/>
<path d="M2929000 2876000 L2931000 2872000 "/>
<path d="M2931000 2872000 L2934000 2868000 "/>
<path d="M2934000 2868000 L2936000 2863000 "/>
<path d="M2936000 2863000 L2938000 2858000 "/>
<path d="M2938000 2858000 L2941000 2853000 "/>
<path d="M2941000 2853000 L2943000 2847000 "/>
<path d="M2943000 2847000 L2945000 2841000 "/>
<path d="M2945000 2841000 L2947000 2835000 "/>
<path d="M2947000 2835000 L2949000 2829000 "/>
<path d="M2949000 2829000 L2951000 2822000 "/>
<path d="M2951000 2822000 L2953000 2815000 "/>
<path d="M2953000 2815000 L2956000 2807000 "/>
<path d="M2956000 2807000 L2958000 2800000 "/>
<path d="M2958000 2800000 L2960000 2792000 "/>
<path d="M2960000 2792000 L2962000 2784000 "/>
<path d="M2962000 2784000 L2963000 2775000 "/>
<path d="M2963000 2775000 L2965000 2766000 "/>
<path d="M2965000 2766000 L2967000 2758000 "/>
<path d="M2967000 2758000 L2969000 2748000 "/>
<path d="M2969000 2748000 L2971000 2739000 "/>
<path d="M2971000 2739000 L2972000 2729000 "/>
<path d="M2972000 2729000 L2974000 2719000 "/>
<path d="M2974000 2719000 L2976000 2709000 "/>
<path d="M2976000 2709000 L2977000 2699000 "/>
<path d="M2977000 2699000 L2979000 2688000 "/>
<path d="M2979000 2688000 L2980000 2678000 "/>
<path d="M2980000 2678000 L2982000 2667000 "/>
<path d="M2982000 2667000 L2983000 2656000 "/>
<path d="M2983000 2656000 L2984000 2644000 "/>
<path d="M2984000 2644000 L2986000 2633000 "/>
<path d="M2986000 2633000 L2987000 2621000 "/>
<path d="M2987000 2621000 L2988000 2609000 "/>
<path d="M2988000 2609000 L2989000 2597000 "/>
<path d="M2989000 2597000 L2990000 2585000 "/>
<path d="M2990000 2585000 L2991000 2573000 "/>
<path d="M2991000 2573000 L2992000 2560000 "/>
<path d="M2992000 2560000 L2993000 2548000 "/>
<path d="M2993000 2548000 L2994000 2535000 "/>
<path d="M2994000 2535000 L2995000 2523000 "/>
<path d="M2995000 2523000 L2996000 2510000 "/>
<path d="M2996000 2510000 L2996000 2497000 "/>
<path d="M2996000 2497000 L2997000 2484000 "/>
<path d="M2997000 2484000 L2998000 2471000 "/>
<path d="M2998000 2471000 L2998000 2457000 "/>
<path d="M2998000 2457000 L2999000 2444000 "/>
<path d="M2999000 2444000 L2999000 2431000 "/>
<path d="M2999000 2431000 L2999000 2417000 "/>
<path d="M2999000 2417000 L3000000 2404000 "/>
<path d="M3000000 2404000 L3000000 2390000 "/>
<path d="M3000000 2390000 L3000000 2377000 "/>
<path d="M3000000 2377000 L3000000 2363000 "/>
<path d="M3000000 2363000 L3000000 2350000 "/>
<path d="M1744999.999311 1799999.968289 A46010.900000 46010.900000 0.0 0 0 1699999.968289 1847000.000689"/>
<path d="M1699999.968289 2855000.000689 A46010.900000 46010.900000 0.0 0 0 1747000.000689 2900000.031711"/>
</g> 
<path d="M -85000.0 -40000.0 A 40000.0 40000.0 0 1 1 -85000.0 40000.0 L 85000.0 40000.0 A 40000.0 40000.0 0 1 1 85000.0 -40000.0 Z" transform="translate(2900000.0 2350000.0) rotate(-90.0)"/><path d="M -15000.0 0.0 A 15000.0 15000.0 0 1 1 15000.0 0.0 L 15000.0 -0.0 A 15000.0 15000.0 0 1 1 -15000.0 -0.0 Z" transform="translate(2449000.0 1877000.0) rotate(0)"/><path d="M -15000.0 0.0 A 15000.0 15000.0 0 1 1 15000.0 0.0 L 15000.0 -0.0 A 15000.0 15000.0 0 1 1 -15000.0 -0.0 Z" transform="translate(1775001.0 2100000.0) rotate(0)"/><path d="M -15000.0 0.0 A 15000.0 15000.0 0 1 1 15000.0 0.0 L 15000.0 -0.0 A 15000.0 15000.0 0 1 1 -15000.0 -0.0 Z" transform="translate(2730000.0 1871000.0) rotate(0)"/><path d="M -15000.0 0.0 A 15000.0 15000.0 0 1 1 15000.0 0.0 L 15000.0 -0.0 A 15000.0 15000.0 0 1 1 -15000.0 -0.0 Z" transform="translate(2674000.0 2269000.0) rotate(0)"/><path d="M -15000.0 0.0 A 15000.0 15000.0 0 1 1 15000.0 0.0 L 15000.0 -0.0 A 15000.0 15000.0 0 1 1 -15000.0 -0.0 Z" transform="translate(2726000.0 2841000.0) rotate(0)"/><path d="M -15000.0 0.0 A 15000.0 15000.0 0 1 1 15000.0 0.0 L 15000.0 -0.0 A 15000.0 15000.0 0 1 1 -15000.0 -0.0 Z" transform="translate(1775000.0 2600000.0) rotate(0)"/><path d="M -15000.0 0.0 A 15000.0 15000.0 0 1 1 15000.0 0.0 L 15000.0 -0.0 A 15000.0 15000.0 0 1 1 -15000.0 -0.0 Z" transform="translate(1790000.0 2192500.0) rotate(0)"/><path d="M -15000.0 0.0 A 15000.0 15000.0 0 1 1 15000.0 0.0 L 15000.0 -0.0 A 15000.0 15000.0 0 1 1 -15000.0 -0.0 Z" transform="translate(1790000.0 2392500.0) rotate(0)"/><path d="M -15000.0 0.0 A 15000.0 15000.0 0 1 1 15000.0 0.0 L 15000.0 -0.0 A 15000.0 15000.0 0 1 1 -15000.0 -0.0 Z" transform="translate(2773000.0 2322000.0) rotate(0)"/><path d="M -15000.0 0.0 A 15000.0 15000.0 0 1 1 15000.0 0.0 L 15000.0 -0.0 A 15000.0 15000.0 0 1 1 -15000.0 -0.0 Z" transform="translate(2850000.0 2179000.0) rotate(0)"/></g></g></g><g transform="" id="componentContainer"><!--Resistors_SMD:R_0402.back:R2--><!--Capacitors_SMD:C_0402.back:C1--><!--Capacitors_SMD:C_0402.back:C2--><g transform="translate(1932500.0 2355000.0) scale(99999.9545452686, 99999.95454675615) rotate(-180.0) translate(-0.09999550133943558 -0.10003144294023514)"><use xmlns:xlink="http://www.w3.org/1999/xlink" xlink:href="#pref_11_Capacitors_SMD__C_0402back_1uF"/></g><!--Capacitors_SMD:C_0402.back:C3--><!--Resistors_SMD:R_0402.back:R1--><g transform="translate(2730000.0 2165000.0) scale(99999.9545452686, 99999.95454675615) rotate(-90.0) translate(-0.09999550133943558 -0.10003144294023514)"><use xmlns:xlink="http://www.w3.org/1999/xlink" xlink:href="#pref_11_Resistors_SMD__R_0402back_75"/></g><!--Resistors_SMD:R_0402.back:R3--><!--Resistors_SMD:R_0402.back:R4--><g transform="translate(1950000.0 2100000.0) scale(99999.9545452686, 99999.95454675615) rotate(-0.0) translate(-0.09999550133943558 -0.10003144294023514)"><use xmlns:xlink="http://www.w3.org/1999/xlink" xlink:href="#pref_11_Resistors_SMD__R_0402back_15"/></g></g></svg>