<!DOCTYPE svg PUBLIC "-//W3C//DTD SVG 1.1//EN" "http://www.w3.org/Graphics/SVG/1.1/DTD/svg11.dtd">
<svg xmlns="http://www.w3.org/2000/svg" version="1.1" width="35.02mm" height="19.78mm" viewBox="7012000.0 5107000.0 3502000.0 1978000.0">
            <title>Picture generated by PcbDraw </title>
            <desc>Picture generated by PcbDraw</desc>
        <defs><clipPath id="cut-off"><path d=" M 10414000.0 6985000.0 L 10414000.0 5207000.0 L 7112000.0 5207000.0 L 7112000.0 6985000.0 L 10414000.0 6985000.0 " style="fill-rule: evenodd;"/></clipPath><mask id="pads-mask"><g style="fill:#ffffff; fill-opacity:0.0;  stroke:#ffffff; stroke-width:0.000000; stroke-opacity:1;  stroke-linecap:round; stroke-linejoin:round;">
<g style="fill:#ffffff; fill-opacity:1.0;  stroke:#ffffff; stroke-width:0.100000; stroke-opacity:1;  stroke-linecap:round; stroke-linejoin:round;">
<circle cx="8826500.000000" cy="5448300.000000" r="70000.000000"/> 
</g>
<g style="fill:#ffffff; fill-opacity:1.0;  stroke:#ffffff; stroke-width:0.100000; stroke-opacity:1;  stroke-linecap:round; stroke-linejoin:round;">
<circle cx="8318500.000000" cy="6692900.000000" r="70000.000000"/> 
</g>
<g style="fill:#ffffff; fill-opacity:1.0;  stroke:#ffffff; stroke-width:0.100000; stroke-opacity:1;  stroke-linecap:round; stroke-linejoin:round;">
<circle cx="8572500.000000" cy="6692900.000000" r="70000.000000"/> 
</g>
<g style="fill:#ffffff; fill-opacity:1.0;  stroke:#ffffff; stroke-width:0.100000; stroke-opacity:1;  stroke-linecap:round; stroke-linejoin:round;">
<circle cx="8826500.000000" cy="6692900.000000" r="70000.000000"/> 
</g>
<g style="fill:#ffffff; fill-opacity:1.0;  stroke:#ffffff; stroke-width:0.100000; stroke-opacity:1;  stroke-linecap:round; stroke-linejoin:round;">
<circle cx="9080500.000000" cy="5448300.000000" r="70000.000000"/> 
</g>
<g style="fill:#ffffff; fill-opacity:1.0;  stroke:#ffffff; stroke-width:0.100000; stroke-opacity:1;  stroke-linecap:round; stroke-linejoin:round;">
<circle cx="9080500.000000" cy="6692900.000000" r="70000.000000"/> 
</g>
<g style="fill:#ffffff; fill-opacity:1.0;  stroke:#ffffff; stroke-width:0.100000; stroke-opacity:1;  stroke-linecap:round; stroke-linejoin:round;">
<path style="fill:#ffffff; fill-opacity:1.0;  stroke:#ffffff; stroke-width:0.100000; stroke-opacity:1;  stroke-linecap:round; stroke-linejoin:round;fill-rule:evenodd;" d="M 7119000.000000,6377000.000000 7120522.400000,6369346.300000 7124857.900000,6362857.900000 7131346.300000,6358522.400000 7139000.000000,6357000.000000 7339000.000000,6357000.000000 7346653.700000,6358522.400000 7353142.100000,6362857.900000 7357477.600000,6369346.300000 7359000.000000,6377000.000000 7359000.000000,6577000.000000 7357477.600000,6584653.700000 7353142.100000,6591142.100000 7346653.700000,6595477.600000 7339000.000000,6597000.000000 7139000.000000,6597000.000000 7131346.300000,6595477.600000 7124857.900000,6591142.100000 7120522.400000,6584653.700000 7119000.000000,6577000.000000 Z"/> 
</g>
<g style="fill:#ffffff; fill-opacity:1.0;  stroke:#ffffff; stroke-width:0.100000; stroke-opacity:1;  stroke-linecap:round; stroke-linejoin:round;">
<path style="fill:#ffffff; fill-opacity:1.0;  stroke:#ffffff; stroke-width:0.100000; stroke-opacity:1;  stroke-linecap:round; stroke-linejoin:round;fill-rule:evenodd;" d="M 9278000.000000,5297500.000000 9279522.400000,5289846.300000 9283857.900000,5283357.900000 9290346.300000,5279022.400000 9298000.000000,5277500.000000 9498000.000000,5277500.000000 9505653.700000,5279022.400000 9512142.100000,5283357.900000 9516477.600000,5289846.300000 9518000.000000,5297500.000000 9518000.000000,5497500.000000 9516477.600000,5505153.700000 9512142.100000,5511642.100000 9505653.700000,5515977.600000 9498000.000000,5517500.000000 9298000.000000,5517500.000000 9290346.300000,5515977.600000 9283857.900000,5511642.100000 9279522.400000,5505153.700000 9278000.000000,5497500.000000 Z"/> 
</g>
<g style="fill:#ffffff; fill-opacity:1.0;  stroke:#ffffff; stroke-width:0.100000; stroke-opacity:1;  stroke-linecap:round; stroke-linejoin:round;">
<path style="fill:#ffffff; fill-opacity:1.0;  stroke:#ffffff; stroke-width:0.100000; stroke-opacity:1;  stroke-linecap:round; stroke-linejoin:round;fill-rule:evenodd;" d="M 10052700.000000,6389700.000000 10054222.400000,6382046.300000 10058557.900000,6375557.900000 10065046.300000,6371222.400000 10072700.000000,6369700.000000 10272700.000000,6369700.000000 10280353.700000,6371222.400000 10286842.100000,6375557.900000 10291177.600000,6382046.300000 10292700.000000,6389700.000000 10292700.000000,6589700.000000 10291177.600000,6597353.700000 10286842.100000,6603842.100000 10280353.700000,6608177.600000 10272700.000000,6609700.000000 10072700.000000,6609700.000000 10065046.300000,6608177.600000 10058557.900000,6603842.100000 10054222.400000,6597353.700000 10052700.000000,6589700.000000 Z"/> 
</g>
<g style="fill:#ffffff; fill-opacity:1.0;  stroke:#ffffff; stroke-width:0.100000; stroke-opacity:1;  stroke-linecap:round; stroke-linejoin:round;">
<path style="fill:#ffffff; fill-opacity:1.0;  stroke:#ffffff; stroke-width:0.100000; stroke-opacity:1;  stroke-linecap:round; stroke-linejoin:round;fill-rule:evenodd;" d="M 7627000.000000,5297500.000000 7628522.400000,5289846.300000 7632857.900000,5283357.900000 7639346.300000,5279022.400000 7647000.000000,5277500.000000 7847000.000000,5277500.000000 7854653.700000,5279022.400000 7861142.100000,5283357.900000 7865477.600000,5289846.300000 7867000.000000,5297500.000000 7867000.000000,5497500.000000 7865477.600000,5505153.700000 7861142.100000,5511642.100000 7854653.700000,5515977.600000 7847000.000000,5517500.000000 7647000.000000,5517500.000000 7639346.300000,5515977.600000 7632857.900000,5511642.100000 7628522.400000,5505153.700000 7627000.000000,5497500.000000 Z"/> 
</g>
<g style="fill:#ffffff; fill-opacity:1.0;  stroke:#ffffff; stroke-width:0.100000; stroke-opacity:1;  stroke-linecap:round; stroke-linejoin:round;">
<circle cx="10160000.000000" cy="5727700.000000" r="120000.000000"/> 
</g>
<g style="fill:#ffffff; fill-opacity:1.0;  stroke:#ffffff; stroke-width:0.100000; stroke-opacity:1;  stroke-linecap:round; stroke-linejoin:round;">
<circle cx="9652000.000000" cy="5397500.000000" r="120000.000000"/> 
</g>
<g style="fill:#ffffff; fill-opacity:1.0;  stroke:#ffffff; stroke-width:0.100000; stroke-opacity:1;  stroke-linecap:round; stroke-linejoin:round;">
<circle cx="7239000.000000" cy="5715000.000000" r="120000.000000"/> 
</g>
<g style="fill:#ffffff; fill-opacity:1.0;  stroke:#ffffff; stroke-width:0.100000; stroke-opacity:1;  stroke-linecap:round; stroke-linejoin:round;">
<circle cx="7239000.000000" cy="6096000.000000" r="120000.000000"/> 
</g>
<g style="fill:#ffffff; fill-opacity:1.0;  stroke:#ffffff; stroke-width:0.100000; stroke-opacity:1;  stroke-linecap:round; stroke-linejoin:round;">
<circle cx="8001000.000000" cy="5397500.000000" r="120000.000000"/> 
</g>
<g style="fill:#ffffff; fill-opacity:1.0;  stroke:#ffffff; stroke-width:0.100000; stroke-opacity:1;  stroke-linecap:round; stroke-linejoin:round;">
<path style="fill:#ffffff; fill-opacity:1.0;  stroke:#ffffff; stroke-width:0.100000; stroke-opacity:1;  stroke-linecap:round; stroke-linejoin:round;fill-rule:evenodd;" d="M 9547100.000000,6242000.000000 9554753.700000,6243522.400000 9561242.100000,6247857.900000 9565577.600000,6254346.300000 9567100.000000,6262000.000000 9567100.000000,6422000.000000 9565577.600000,6429653.700000 9561242.100000,6436142.100000 9554753.700000,6440477.600000 9547100.000000,6442000.000000 9447100.000000,6442000.000000 9439446.300000,6440477.600000 9432957.900000,6436142.100000 9428622.400000,6429653.700000 9427100.000000,6422000.000000 9427100.000000,6262000.000000 9428622.400000,6254346.300000 9432957.900000,6247857.900000 9439446.300000,6243522.400000 9447100.000000,6242000.000000 Z"/> 
<path style="fill:#ffffff; fill-opacity:1.0;  stroke:#ffffff; stroke-width:0.100000; stroke-opacity:1;  stroke-linecap:round; stroke-linejoin:round;fill-rule:evenodd;" d="M 9867100.000000,6242000.000000 9874753.700000,6243522.400000 9881242.100000,6247857.900000 9885577.600000,6254346.300000 9887100.000000,6262000.000000 9887100.000000,6422000.000000 9885577.600000,6429653.700000 9881242.100000,6436142.100000 9874753.700000,6440477.600000 9867100.000000,6442000.000000 9767100.000000,6442000.000000 9759446.300000,6440477.600000 9752957.900000,6436142.100000 9748622.400000,6429653.700000 9747100.000000,6422000.000000 9747100.000000,6262000.000000 9748622.400000,6254346.300000 9752957.900000,6247857.900000 9759446.300000,6243522.400000 9767100.000000,6242000.000000 Z"/> 
<path style="fill:#ffffff; fill-opacity:1.0;  stroke:#ffffff; stroke-width:0.100000; stroke-opacity:1;  stroke-linecap:round; stroke-linejoin:round;fill-rule:evenodd;" d="M 9547100.000000,5742000.000000 9554753.700000,5743522.400000 9561242.100000,5747857.900000 9565577.600000,5754346.300000 9567100.000000,5762000.000000 9567100.000000,5922000.000000 9565577.600000,5929653.700000 9561242.100000,5936142.100000 9554753.700000,5940477.600000 9547100.000000,5942000.000000 9447100.000000,5942000.000000 9439446.300000,5940477.600000 9432957.900000,5936142.100000 9428622.400000,5929653.700000 9427100.000000,5922000.000000 9427100.000000,5762000.000000 9428622.400000,5754346.300000 9432957.900000,5747857.900000 9439446.300000,5743522.400000 9447100.000000,5742000.000000 Z"/> 
<path style="fill:#ffffff; fill-opacity:1.0;  stroke:#ffffff; stroke-width:0.100000; stroke-opacity:1;  stroke-linecap:round; stroke-linejoin:round;fill-rule:evenodd;" d="M 9867100.000000,5742000.000000 9874753.700000,5743522.400000 9881242.100000,5747857.900000 9885577.600000,5754346.300000 9887100.000000,5762000.000000 9887100.000000,5922000.000000 9885577.600000,5929653.700000 9881242.100000,5936142.100000 9874753.700000,5940477.600000 9867100.000000,5942000.000000 9767100.000000,5942000.000000 9759446.300000,5940477.600000 9752957.900000,5936142.100000 9748622.400000,5929653.700000 9747100.000000,5922000.000000 9747100.000000,5762000.000000 9748622.400000,5754346.300000 9752957.900000,5747857.900000 9759446.300000,5743522.400000 9767100.000000,5742000.000000 Z"/> 
</g>
<g style="fill:#ffffff; fill-opacity:1.0;  stroke:#ffffff; stroke-width:0.100000; stroke-opacity:1;  stroke-linecap:round; stroke-linejoin:round;">
<path style="fill:#ffffff; fill-opacity:1.0;  stroke:#ffffff; stroke-width:0.100000; stroke-opacity:1;  stroke-linecap:round; stroke-linejoin:round;fill-rule:evenodd;" d="M 7631900.000000,6242000.000000 7639553.700000,6243522.400000 7646042.100000,6247857.900000 7650377.600000,6254346.300000 7651900.000000,6262000.000000 7651900.000000,6422000.000000 7650377.600000,6429653.700000 7646042.100000,6436142.100000 7639553.700000,6440477.600000 7631900.000000,6442000.000000 7531900.000000,6442000.000000 7524246.300000,6440477.600000 7517757.900000,6436142.100000 7513422.400000,6429653.700000 7511900.000000,6422000.000000 7511900.000000,6262000.000000 7513422.400000,6254346.300000 7517757.900000,6247857.900000 7524246.300000,6243522.400000 7531900.000000,6242000.000000 Z"/> 
<path style="fill:#ffffff; fill-opacity:1.0;  stroke:#ffffff; stroke-width:0.100000; stroke-opacity:1;  stroke-linecap:round; stroke-linejoin:round;fill-rule:evenodd;" d="M 7951900.000000,6242000.000000 7959553.700000,6243522.400000 7966042.100000,6247857.900000 7970377.600000,6254346.300000 7971900.000000,6262000.000000 7971900.000000,6422000.000000 7970377.600000,6429653.700000 7966042.100000,6436142.100000 7959553.700000,6440477.600000 7951900.000000,6442000.000000 7851900.000000,6442000.000000 7844246.300000,6440477.600000 7837757.900000,6436142.100000 7833422.400000,6429653.700000 7831900.000000,6422000.000000 7831900.000000,6262000.000000 7833422.400000,6254346.300000 7837757.900000,6247857.900000 7844246.300000,6243522.400000 7851900.000000,6242000.000000 Z"/> 
<path style="fill:#ffffff; fill-opacity:1.0;  stroke:#ffffff; stroke-width:0.100000; stroke-opacity:1;  stroke-linecap:round; stroke-linejoin:round;fill-rule:evenodd;" d="M 7631900.000000,5742000.000000 7639553.700000,5743522.400000 7646042.100000,5747857.900000 7650377.600000,5754346.300000 7651900.000000,5762000.000000 7651900.000000,5922000.000000 7650377.600000,5929653.700000 7646042.100000,5936142.100000 7639553.700000,5940477.600000 7631900.000000,5942000.000000 7531900.000000,5942000.000000 7524246.300000,5940477.600000 7517757.900000,5936142.100000 7513422.400000,5929653.700000 7511900.000000,5922000.000000 7511900.000000,5762000.000000 7513422.400000,5754346.300000 7517757.900000,5747857.900000 7524246.300000,5743522.400000 7531900.000000,5742000.000000 Z"/> 
<path style="fill:#ffffff; fill-opacity:1.0;  stroke:#ffffff; stroke-width:0.100000; stroke-opacity:1;  stroke-linecap:round; stroke-linejoin:round;fill-rule:evenodd;" d="M 7951900.000000,5742000.000000 7959553.700000,5743522.400000 7966042.100000,5747857.900000 7970377.600000,5754346.300000 7971900.000000,5762000.000000 7971900.000000,5922000.000000 7970377.600000,5929653.700000 7966042.100000,5936142.100000 7959553.700000,5940477.600000 7951900.000000,5942000.000000 7851900.000000,5942000.000000 7844246.300000,5940477.600000 7837757.900000,5936142.100000 7833422.400000,5929653.700000 7831900.000000,5922000.000000 7831900.000000,5762000.000000 7833422.400000,5754346.300000 7837757.900000,5747857.900000 7844246.300000,5743522.400000 7851900.000000,5742000.000000 Z"/> 
</g>
<g style="fill:#ffffff; fill-opacity:0.0;  stroke:#ffffff; stroke-width:220000.000000; stroke-opacity:1;  stroke-linecap:round; stroke-linejoin:round;">
<path d="M8318500 6517000 L8318500 6477000 "/>
<path d="M9080500 5715000 L9080500 5675000 "/>
<path d="M8572500 6517000 L8572500 6477000 "/>
<path d="M8826500 5715000 L8826500 5675000 "/>
<path d="M8826500 6517000 L8826500 6477000 "/>
<path d="M8572500 5715000 L8572500 5675000 "/>
<path d="M9080500 6517000 L9080500 6477000 "/>
<path d="M8318500 5715000 L8318500 5675000 "/>
</g>
<g style="fill:#ffffff; fill-opacity:1.0;  stroke:#ffffff; stroke-width:0.100000; stroke-opacity:1;  stroke-linecap:round; stroke-linejoin:round;">
<circle cx="8318500.000000" cy="5448300.000000" r="70000.000000"/> 
</g>
<g style="fill:#ffffff; fill-opacity:1.0;  stroke:#ffffff; stroke-width:0.100000; stroke-opacity:1;  stroke-linecap:round; stroke-linejoin:round;">
<circle cx="8572500.000000" cy="5448300.000000" r="70000.000000"/> 
</g>
</g> 
</mask><mask id="pads-mask-silkscreen"><rect x="7104500.0" y="5199500.0" width="3317000.0" height="1793000.0" fill="white"/><g style="fill:#000000; fill-opacity:0.0;  stroke:#000000; stroke-width:0.000000; stroke-opacity:1;  stroke-linecap:round; stroke-linejoin:round;">
<g style="fill:#000000; fill-opacity:1.0;  stroke:#000000; stroke-width:0.100000; stroke-opacity:1;  stroke-linecap:round; stroke-linejoin:round;">
<circle cx="8826500.000000" cy="5448300.000000" r="70000.000000"/> 
</g>
<g style="fill:#000000; fill-opacity:1.0;  stroke:#000000; stroke-width:0.100000; stroke-opacity:1;  stroke-linecap:round; stroke-linejoin:round;">
<circle cx="8318500.000000" cy="6692900.000000" r="70000.000000"/> 
</g>
<g style="fill:#000000; fill-opacity:1.0;  stroke:#000000; stroke-width:0.100000; stroke-opacity:1;  stroke-linecap:round; stroke-linejoin:round;">
<circle cx="8572500.000000" cy="6692900.000000" r="70000.000000"/> 
</g>
<g style="fill:#000000; fill-opacity:1.0;  stroke:#000000; stroke-width:0.100000; stroke-opacity:1;  stroke-linecap:round; stroke-linejoin:round;">
<circle cx="8826500.000000" cy="6692900.000000" r="70000.000000"/> 
</g>
<g style="fill:#000000; fill-opacity:1.0;  stroke:#000000; stroke-width:0.100000; stroke-opacity:1;  stroke-linecap:round; stroke-linejoin:round;">
<circle cx="9080500.000000" cy="5448300.000000" r="70000.000000"/> 
</g>
<g style="fill:#000000; fill-opacity:1.0;  stroke:#000000; stroke-width:0.100000; stroke-opacity:1;  stroke-linecap:round; stroke-linejoin:round;">
<circle cx="9080500.000000" cy="6692900.000000" r="70000.000000"/> 
</g>
<g style="fill:#000000; fill-opacity:1.0;  stroke:#000000; stroke-width:0.100000; stroke-opacity:1;  stroke-linecap:round; stroke-linejoin:round;">
<path style="fill:#000000; fill-opacity:1.0;  stroke:#000000; stroke-width:0.100000; stroke-opacity:1;  stroke-linecap:round; stroke-linejoin:round;fill-rule:evenodd;" d="M 7119000.000000,6377000.000000 7120522.400000,6369346.300000 7124857.900000,6362857.900000 7131346.300000,6358522.400000 7139000.000000,6357000.000000 7339000.000000,6357000.000000 7346653.700000,6358522.400000 7353142.100000,6362857.900000 7357477.600000,6369346.300000 7359000.000000,6377000.000000 7359000.000000,6577000.000000 7357477.600000,6584653.700000 7353142.100000,6591142.100000 7346653.700000,6595477.600000 7339000.000000,6597000.000000 7139000.000000,6597000.000000 7131346.300000,6595477.600000 7124857.900000,6591142.100000 7120522.400000,6584653.700000 7119000.000000,6577000.000000 Z"/> 
</g>
<g style="fill:#000000; fill-opacity:1.0;  stroke:#000000; stroke-width:0.100000; stroke-opacity:1;  stroke-linecap:round; stroke-linejoin:round;">
<path style="fill:#000000; fill-opacity:1.0;  stroke:#000000; stroke-width:0.100000; stroke-opacity:1;  stroke-linecap:round; stroke-linejoin:round;fill-rule:evenodd;" d="M 9278000.000000,5297500.000000 9279522.400000,5289846.300000 9283857.900000,5283357.900000 9290346.300000,5279022.400000 9298000.000000,5277500.000000 9498000.000000,5277500.000000 9505653.700000,5279022.400000 9512142.100000,5283357.900000 9516477.600000,5289846.300000 9518000.000000,5297500.000000 9518000.000000,5497500.000000 9516477.600000,5505153.700000 9512142.100000,5511642.100000 9505653.700000,5515977.600000 9498000.000000,5517500.000000 9298000.000000,5517500.000000 9290346.300000,5515977.600000 9283857.900000,5511642.100000 9279522.400000,5505153.700000 9278000.000000,5497500.000000 Z"/> 
</g>
<g style="fill:#000000; fill-opacity:1.0;  stroke:#000000; stroke-width:0.100000; stroke-opacity:1;  stroke-linecap:round; stroke-linejoin:round;">
<path style="fill:#000000; fill-opacity:1.0;  stroke:#000000; stroke-width:0.100000; stroke-opacity:1;  stroke-linecap:round; stroke-linejoin:round;fill-rule:evenodd;" d="M 10052700.000000,6389700.000000 10054222.400000,6382046.300000 10058557.900000,6375557.900000 10065046.300000,6371222.400000 10072700.000000,6369700.000000 10272700.000000,6369700.000000 10280353.700000,6371222.400000 10286842.100000,6375557.900000 10291177.600000,6382046.300000 10292700.000000,6389700.000000 10292700.000000,6589700.000000 10291177.600000,6597353.700000 10286842.100000,6603842.100000 10280353.700000,6608177.600000 10272700.000000,6609700.000000 10072700.000000,6609700.000000 10065046.300000,6608177.600000 10058557.900000,6603842.100000 10054222.400000,6597353.700000 10052700.000000,6589700.000000 Z"/> 
</g>
<g style="fill:#000000; fill-opacity:1.0;  stroke:#000000; stroke-width:0.100000; stroke-opacity:1;  stroke-linecap:round; stroke-linejoin:round;">
<path style="fill:#000000; fill-opacity:1.0;  stroke:#000000; stroke-width:0.100000; stroke-opacity:1;  stroke-linecap:round; stroke-linejoin:round;fill-rule:evenodd;" d="M 7627000.000000,5297500.000000 7628522.400000,5289846.300000 7632857.900000,5283357.900000 7639346.300000,5279022.400000 7647000.000000,5277500.000000 7847000.000000,5277500.000000 7854653.700000,5279022.400000 7861142.100000,5283357.900000 7865477.600000,5289846.300000 7867000.000000,5297500.000000 7867000.000000,5497500.000000 7865477.600000,5505153.700000 7861142.100000,5511642.100000 7854653.700000,5515977.600000 7847000.000000,5517500.000000 7647000.000000,5517500.000000 7639346.300000,5515977.600000 7632857.900000,5511642.100000 7628522.400000,5505153.700000 7627000.000000,5497500.000000 Z"/> 
</g>
<g style="fill:#000000; fill-opacity:1.0;  stroke:#000000; stroke-width:0.100000; stroke-opacity:1;  stroke-linecap:round; stroke-linejoin:round;">
<circle cx="10160000.000000" cy="5727700.000000" r="120000.000000"/> 
</g>
<g style="fill:#000000; fill-opacity:1.0;  stroke:#000000; stroke-width:0.100000; stroke-opacity:1;  stroke-linecap:round; stroke-linejoin:round;">
<circle cx="9652000.000000" cy="5397500.000000" r="120000.000000"/> 
</g>
<g style="fill:#000000; fill-opacity:1.0;  stroke:#000000; stroke-width:0.100000; stroke-opacity:1;  stroke-linecap:round; stroke-linejoin:round;">
<circle cx="7239000.000000" cy="5715000.000000" r="120000.000000"/> 
</g>
<g style="fill:#000000; fill-opacity:1.0;  stroke:#000000; stroke-width:0.100000; stroke-opacity:1;  stroke-linecap:round; stroke-linejoin:round;">
<circle cx="7239000.000000" cy="6096000.000000" r="120000.000000"/> 
</g>
<g style="fill:#000000; fill-opacity:1.0;  stroke:#000000; stroke-width:0.100000; stroke-opacity:1;  stroke-linecap:round; stroke-linejoin:round;">
<circle cx="8001000.000000" cy="5397500.000000" r="120000.000000"/> 
</g>
<g style="fill:#000000; fill-opacity:1.0;  stroke:#000000; stroke-width:0.100000; stroke-opacity:1;  stroke-linecap:round; stroke-linejoin:round;">
<path style="fill:#000000; fill-opacity:1.0;  stroke:#000000; stroke-width:0.100000; stroke-opacity:1;  stroke-linecap:round; stroke-linejoin:round;fill-rule:evenodd;" d="M 9547100.000000,6242000.000000 9554753.700000,6243522.400000 9561242.100000,6247857.900000 9565577.600000,6254346.300000 9567100.000000,6262000.000000 9567100.000000,6422000.000000 9565577.600000,6429653.700000 9561242.100000,6436142.100000 9554753.700000,6440477.600000 9547100.000000,6442000.000000 9447100.000000,6442000.000000 9439446.300000,6440477.600000 9432957.900000,6436142.100000 9428622.400000,6429653.700000 9427100.000000,6422000.000000 9427100.000000,6262000.000000 9428622.400000,6254346.300000 9432957.900000,6247857.900000 9439446.300000,6243522.400000 9447100.000000,6242000.000000 Z"/> 
<path style="fill:#000000; fill-opacity:1.0;  stroke:#000000; stroke-width:0.100000; stroke-opacity:1;  stroke-linecap:round; stroke-linejoin:round;fill-rule:evenodd;" d="M 9867100.000000,6242000.000000 9874753.700000,6243522.400000 9881242.100000,6247857.900000 9885577.600000,6254346.300000 9887100.000000,6262000.000000 9887100.000000,6422000.000000 9885577.600000,6429653.700000 9881242.100000,6436142.100000 9874753.700000,6440477.600000 9867100.000000,6442000.000000 9767100.000000,6442000.000000 9759446.300000,6440477.600000 9752957.900000,6436142.100000 9748622.400000,6429653.700000 9747100.000000,6422000.000000 9747100.000000,6262000.000000 9748622.400000,6254346.300000 9752957.900000,6247857.900000 9759446.300000,6243522.400000 9767100.000000,6242000.000000 Z"/> 
<path style="fill:#000000; fill-opacity:1.0;  stroke:#000000; stroke-width:0.100000; stroke-opacity:1;  stroke-linecap:round; stroke-linejoin:round;fill-rule:evenodd;" d="M 9547100.000000,5742000.000000 9554753.700000,5743522.400000 9561242.100000,5747857.900000 9565577.600000,5754346.300000 9567100.000000,5762000.000000 9567100.000000,5922000.000000 9565577.600000,5929653.700000 9561242.100000,5936142.100000 9554753.700000,5940477.600000 9547100.000000,5942000.000000 9447100.000000,5942000.000000 9439446.300000,5940477.600000 9432957.900000,5936142.100000 9428622.400000,5929653.700000 9427100.000000,5922000.000000 9427100.000000,5762000.000000 9428622.400000,5754346.300000 9432957.900000,5747857.900000 9439446.300000,5743522.400000 9447100.000000,5742000.000000 Z"/> 
<path style="fill:#000000; fill-opacity:1.0;  stroke:#000000; stroke-width:0.100000; stroke-opacity:1;  stroke-linecap:round; stroke-linejoin:round;fill-rule:evenodd;" d="M 9867100.000000,5742000.000000 9874753.700000,5743522.400000 9881242.100000,5747857.900000 9885577.600000,5754346.300000 9887100.000000,5762000.000000 9887100.000000,5922000.000000 9885577.600000,5929653.700000 9881242.100000,5936142.100000 9874753.700000,5940477.600000 9867100.000000,5942000.000000 9767100.000000,5942000.000000 9759446.300000,5940477.600000 9752957.900000,5936142.100000 9748622.400000,5929653.700000 9747100.000000,5922000.000000 9747100.000000,5762000.000000 9748622.400000,5754346.300000 9752957.900000,5747857.900000 9759446.300000,5743522.400000 9767100.000000,5742000.000000 Z"/> 
</g>
<g style="fill:#000000; fill-opacity:1.0;  stroke:#000000; stroke-width:0.100000; stroke-opacity:1;  stroke-linecap:round; stroke-linejoin:round;">
<path style="fill:#000000; fill-opacity:1.0;  stroke:#000000; stroke-width:0.100000; stroke-opacity:1;  stroke-linecap:round; stroke-linejoin:round;fill-rule:evenodd;" d="M 7631900.000000,6242000.000000 7639553.700000,6243522.400000 7646042.100000,6247857.900000 7650377.600000,6254346.300000 7651900.000000,6262000.000000 7651900.000000,6422000.000000 7650377.600000,6429653.700000 7646042.100000,6436142.100000 7639553.700000,6440477.600000 7631900.000000,6442000.000000 7531900.000000,6442000.000000 7524246.300000,6440477.600000 7517757.900000,6436142.100000 7513422.400000,6429653.700000 7511900.000000,6422000.000000 7511900.000000,6262000.000000 7513422.400000,6254346.300000 7517757.900000,6247857.900000 7524246.300000,6243522.400000 7531900.000000,6242000.000000 Z"/> 
<path style="fill:#000000; fill-opacity:1.0;  stroke:#000000; stroke-width:0.100000; stroke-opacity:1;  stroke-linecap:round; stroke-linejoin:round;fill-rule:evenodd;" d="M 7951900.000000,6242000.000000 7959553.700000,6243522.400000 7966042.100000,6247857.900000 7970377.600000,6254346.300000 7971900.000000,6262000.000000 7971900.000000,6422000.000000 7970377.600000,6429653.700000 7966042.100000,6436142.100000 7959553.700000,6440477.600000 7951900.000000,6442000.000000 7851900.000000,6442000.000000 7844246.300000,6440477.600000 7837757.900000,6436142.100000 7833422.400000,6429653.700000 7831900.000000,6422000.000000 7831900.000000,6262000.000000 7833422.400000,6254346.300000 7837757.900000,6247857.900000 7844246.300000,6243522.400000 7851900.000000,6242000.000000 Z"/> 
<path style="fill:#000000; fill-opacity:1.0;  stroke:#000000; stroke-width:0.100000; stroke-opacity:1;  stroke-linecap:round; stroke-linejoin:round;fill-rule:evenodd;" d="M 7631900.000000,5742000.000000 7639553.700000,5743522.400000 7646042.100000,5747857.900000 7650377.600000,5754346.300000 7651900.000000,5762000.000000 7651900.000000,5922000.000000 7650377.600000,5929653.700000 7646042.100000,5936142.100000 7639553.700000,5940477.600000 7631900.000000,5942000.000000 7531900.000000,5942000.000000 7524246.300000,5940477.600000 7517757.900000,5936142.100000 7513422.400000,5929653.700000 7511900.000000,5922000.000000 7511900.000000,5762000.000000 7513422.400000,5754346.300000 7517757.900000,5747857.900000 7524246.300000,5743522.400000 7531900.000000,5742000.000000 Z"/> 
<path style="fill:#000000; fill-opacity:1.0;  stroke:#000000; stroke-width:0.100000; stroke-opacity:1;  stroke-linecap:round; stroke-linejoin:round;fill-rule:evenodd;" d="M 7951900.000000,5742000.000000 7959553.700000,5743522.400000 7966042.100000,5747857.900000 7970377.600000,5754346.300000 7971900.000000,5762000.000000 7971900.000000,5922000.000000 7970377.600000,5929653.700000 7966042.100000,5936142.100000 7959553.700000,5940477.600000 7951900.000000,5942000.000000 7851900.000000,5942000.000000 7844246.300000,5940477.600000 7837757.900000,5936142.100000 7833422.400000,5929653.700000 7831900.000000,5922000.000000 7831900.000000,5762000.000000 7833422.400000,5754346.300000 7837757.900000,5747857.900000 7844246.300000,5743522.400000 7851900.000000,5742000.000000 Z"/> 
</g>
<g style="fill:#000000; fill-opacity:0.0;  stroke:#000000; stroke-width:220000.000000; stroke-opacity:1;  stroke-linecap:round; stroke-linejoin:round;">
<path d="M8318500 6517000 L8318500 6477000 "/>
<path d="M9080500 5715000 L9080500 5675000 "/>
<path d="M8572500 6517000 L8572500 6477000 "/>
<path d="M8826500 5715000 L8826500 5675000 "/>
<path d="M8826500 6517000 L8826500 6477000 "/>
<path d="M8572500 5715000 L8572500 5675000 "/>
<path d="M9080500 6517000 L9080500 6477000 "/>
<path d="M8318500 5715000 L8318500 5675000 "/>
</g>
<g style="fill:#000000; fill-opacity:1.0;  stroke:#000000; stroke-width:0.100000; stroke-opacity:1;  stroke-linecap:round; stroke-linejoin:round;">
<circle cx="8318500.000000" cy="5448300.000000" r="70000.000000"/> 
</g>
<g style="fill:#000000; fill-opacity:1.0;  stroke:#000000; stroke-width:0.100000; stroke-opacity:1;  stroke-linecap:round; stroke-linejoin:round;">
<circle cx="8572500.000000" cy="5448300.000000" r="70000.000000"/> 
</g>
</g> 
</mask><mask id="hole-mask"><g><rect x="7104500.0" y="5199500.0" fill="white" width="3317000.0" height="1793000.0"/><polyline stroke-linecap="round" stroke="black" stroke-width="80000.0" points="-0.0 0 0.0 0" transform="translate(8826500.0 5448300.0) rotate(-0.0)"/><polyline stroke-linecap="round" stroke="black" stroke-width="80000.0" points="-0.0 0 0.0 0" transform="translate(8318500.0 6692900.0) rotate(-0.0)"/><polyline stroke-linecap="round" stroke="black" stroke-width="80000.0" points="-0.0 0 0.0 0" transform="translate(8572500.0 6692900.0) rotate(-0.0)"/><polyline stroke-linecap="round" stroke="black" stroke-width="80000.0" points="-0.0 0 0.0 0" transform="translate(8826500.0 6692900.0) rotate(-0.0)"/><polyline stroke-linecap="round" stroke="black" stroke-width="80000.0" points="-0.0 0 0.0 0" transform="translate(9080500.0 5448300.0) rotate(-0.0)"/><polyline stroke-linecap="round" stroke="black" stroke-width="80000.0" points="-0.0 0 0.0 0" transform="translate(9080500.0 6692900.0) rotate(-0.0)"/><polyline stroke-linecap="round" stroke="black" stroke-width="80000.0" points="-0.0 0 0.0 0" transform="translate(7239000.0 6477000.0) rotate(-0.0)"/><polyline stroke-linecap="round" stroke="black" stroke-width="80000.0" points="-0.0 0 0.0 0" transform="translate(9398000.0 5397500.0) rotate(-0.0)"/><polyline stroke-linecap="round" stroke="black" stroke-width="80000.0" points="-0.0 0 0.0 0" transform="translate(10172700.0 6489700.0) rotate(-0.0)"/><polyline stroke-linecap="round" stroke="black" stroke-width="80000.0" points="-0.0 0 0.0 0" transform="translate(7747000.0 5397500.0) rotate(-0.0)"/><polyline stroke-linecap="round" stroke="black" stroke-width="80000.0" points="-0.0 0 0.0 0" transform="translate(10160000.0 5727700.0) rotate(-0.0)"/><polyline stroke-linecap="round" stroke="black" stroke-width="80000.0" points="-0.0 0 0.0 0" transform="translate(9652000.0 5397500.0) rotate(-0.0)"/><polyline stroke-linecap="round" stroke="black" stroke-width="80000.0" points="-0.0 0 0.0 0" transform="translate(7239000.0 5715000.0) rotate(-0.0)"/><polyline stroke-linecap="round" stroke="black" stroke-width="80000.0" points="-0.0 0 0.0 0" transform="translate(7239000.0 6096000.0) rotate(-0.0)"/><polyline stroke-linecap="round" stroke="black" stroke-width="80000.0" points="-0.0 0 0.0 0" transform="translate(8001000.0 5397500.0) rotate(-0.0)"/><polyline stroke-linecap="round" stroke="black" stroke-width="80000.0" points="-0.0 0 0.0 0" transform="translate(8318500.0 6477000.0) rotate(-90.0)"/><polyline stroke-linecap="round" stroke="black" stroke-width="80000.0" points="-0.0 0 0.0 0" transform="translate(9080500.0 5715000.0) rotate(-90.0)"/><polyline stroke-linecap="round" stroke="black" stroke-width="80000.0" points="-0.0 0 0.0 0" transform="translate(8572500.0 6477000.0) rotate(-90.0)"/><polyline stroke-linecap="round" stroke="black" stroke-width="80000.0" points="-0.0 0 0.0 0" transform="translate(8826500.0 5715000.0) rotate(-90.0)"/><polyline stroke-linecap="round" stroke="black" stroke-width="80000.0" points="-0.0 0 0.0 0" transform="translate(8826500.0 6477000.0) rotate(-90.0)"/><polyline stroke-linecap="round" stroke="black" stroke-width="80000.0" points="-0.0 0 0.0 0" transform="translate(8572500.0 5715000.0) rotate(-90.0)"/><polyline stroke-linecap="round" stroke="black" stroke-width="80000.0" points="-0.0 0 0.0 0" transform="translate(9080500.0 6477000.0) rotate(-90.0)"/><polyline stroke-linecap="round" stroke="black" stroke-width="80000.0" points="-0.0 0 0.0 0" transform="translate(8318500.0 5715000.0) rotate(-90.0)"/><polyline stroke-linecap="round" stroke="black" stroke-width="80000.0" points="-0.0 0 0.0 0" transform="translate(8318500.0 5448300.0) rotate(-0.0)"/><polyline stroke-linecap="round" stroke="black" stroke-width="80000.0" points="-0.0 0 0.0 0" transform="translate(8572500.0 5448300.0) rotate(-0.0)"/></g></mask></defs><g transform="" id="boardContainer"><g id="substrate" clip-path="url(#cut-off)" mask="url(#hole-mask)"><g id="substrate-board" style="fill:#4ca06c; stroke:#4ca06c;"><path d=" M 10414000.0 6985000.0 L 10414000.0 5207000.0 L 7112000.0 5207000.0 L 7112000.0 6985000.0 L 10414000.0 6985000.0 " style="fill-rule: evenodd;"/><g style="fill-opacity: 0.0;stroke-width: 15000.000000;stroke-opacity: 1;stroke-linecap: round;stroke-linejoin: round">
<path d="M7112000 6985000 L10414000 6985000 "/>
<path d="M10414000 6985000 L10414000 5207000 "/>
<path d="M7112000 5207000 L7112000 6985000 "/>
<path d="M7112000 5207000 L10414000 5207000 "/>
</g> 
</g><g id="substrate-clad" style="fill:#9c6b28; stroke:#9c6b28;"><g style="fill-opacity: 0.0;stroke-width: 0.000000;stroke-opacity: 1;stroke-linecap: round;stroke-linejoin: round">
<g style="fill-opacity: 1.0;stroke-width: 0.100000;stroke-opacity: 1;stroke-linecap: round;stroke-linejoin: round">
<circle cx="8826500.000000" cy="5448300.000000" r="70000.000000"/> 
</g>
<g style="fill-opacity: 1.0;stroke-width: 0.100000;stroke-opacity: 1;stroke-linecap: round;stroke-linejoin: round">
<circle cx="8318500.000000" cy="6692900.000000" r="70000.000000"/> 
</g>
<g style="fill-opacity: 1.0;stroke-width: 0.100000;stroke-opacity: 1;stroke-linecap: round;stroke-linejoin: round">
<circle cx="8572500.000000" cy="6692900.000000" r="70000.000000"/> 
</g>
<g style="fill-opacity: 1.0;stroke-width: 0.100000;stroke-opacity: 1;stroke-linecap: round;stroke-linejoin: round">
<circle cx="8826500.000000" cy="6692900.000000" r="70000.000000"/> 
</g>
<g style="fill-opacity: 1.0;stroke-width: 0.100000;stroke-opacity: 1;stroke-linecap: round;stroke-linejoin: round">
<circle cx="9080500.000000" cy="5448300.000000" r="70000.000000"/> 
</g>
<g style="fill-opacity: 1.0;stroke-width: 0.100000;stroke-opacity: 1;stroke-linecap: round;stroke-linejoin: round">
<circle cx="9080500.000000" cy="6692900.000000" r="70000.000000"/> 
</g>
<g style="fill-opacity: 1.0;stroke-width: 0.100000;stroke-opacity: 1;stroke-linecap: round;stroke-linejoin: round">
<path style="fill-opacity: 1.0;stroke-width: 0.100000;stroke-opacity: 1;stroke-linecap: round;stroke-linejoin: round;fill-rule: evenodd" d="M 7119000.000000,6377000.000000 7120522.400000,6369346.300000 7124857.900000,6362857.900000 7131346.300000,6358522.400000 7139000.000000,6357000.000000 7339000.000000,6357000.000000 7346653.700000,6358522.400000 7353142.100000,6362857.900000 7357477.600000,6369346.300000 7359000.000000,6377000.000000 7359000.000000,6577000.000000 7357477.600000,6584653.700000 7353142.100000,6591142.100000 7346653.700000,6595477.600000 7339000.000000,6597000.000000 7139000.000000,6597000.000000 7131346.300000,6595477.600000 7124857.900000,6591142.100000 7120522.400000,6584653.700000 7119000.000000,6577000.000000 Z"/> 
</g>
<g style="fill-opacity: 1.0;stroke-width: 0.100000;stroke-opacity: 1;stroke-linecap: round;stroke-linejoin: round">
<path style="fill-opacity: 1.0;stroke-width: 0.100000;stroke-opacity: 1;stroke-linecap: round;stroke-linejoin: round;fill-rule: evenodd" d="M 9278000.000000,5297500.000000 9279522.400000,5289846.300000 9283857.900000,5283357.900000 9290346.300000,5279022.400000 9298000.000000,5277500.000000 9498000.000000,5277500.000000 9505653.700000,5279022.400000 9512142.100000,5283357.900000 9516477.600000,5289846.300000 9518000.000000,5297500.000000 9518000.000000,5497500.000000 9516477.600000,5505153.700000 9512142.100000,5511642.100000 9505653.700000,5515977.600000 9498000.000000,5517500.000000 9298000.000000,5517500.000000 9290346.300000,5515977.600000 9283857.900000,5511642.100000 9279522.400000,5505153.700000 9278000.000000,5497500.000000 Z"/> 
</g>
<g style="fill-opacity: 1.0;stroke-width: 0.100000;stroke-opacity: 1;stroke-linecap: round;stroke-linejoin: round">
<path style="fill-opacity: 1.0;stroke-width: 0.100000;stroke-opacity: 1;stroke-linecap: round;stroke-linejoin: round;fill-rule: evenodd" d="M 10052700.000000,6389700.000000 10054222.400000,6382046.300000 10058557.900000,6375557.900000 10065046.300000,6371222.400000 10072700.000000,6369700.000000 10272700.000000,6369700.000000 10280353.700000,6371222.400000 10286842.100000,6375557.900000 10291177.600000,6382046.300000 10292700.000000,6389700.000000 10292700.000000,6589700.000000 10291177.600000,6597353.700000 10286842.100000,6603842.100000 10280353.700000,6608177.600000 10272700.000000,6609700.000000 10072700.000000,6609700.000000 10065046.300000,6608177.600000 10058557.900000,6603842.100000 10054222.400000,6597353.700000 10052700.000000,6589700.000000 Z"/> 
</g>
<g style="fill-opacity: 1.0;stroke-width: 0.100000;stroke-opacity: 1;stroke-linecap: round;stroke-linejoin: round">
<path style="fill-opacity: 1.0;stroke-width: 0.100000;stroke-opacity: 1;stroke-linecap: round;stroke-linejoin: round;fill-rule: evenodd" d="M 7627000.000000,5297500.000000 7628522.400000,5289846.300000 7632857.900000,5283357.900000 7639346.300000,5279022.400000 7647000.000000,5277500.000000 7847000.000000,5277500.000000 7854653.700000,5279022.400000 7861142.100000,5283357.900000 7865477.600000,5289846.300000 7867000.000000,5297500.000000 7867000.000000,5497500.000000 7865477.600000,5505153.700000 7861142.100000,5511642.100000 7854653.700000,5515977.600000 7847000.000000,5517500.000000 7647000.000000,5517500.000000 7639346.300000,5515977.600000 7632857.900000,5511642.100000 7628522.400000,5505153.700000 7627000.000000,5497500.000000 Z"/> 
</g>
<g style="fill-opacity: 1.0;stroke-width: 0.100000;stroke-opacity: 1;stroke-linecap: round;stroke-linejoin: round">
<circle cx="10160000.000000" cy="5727700.000000" r="120000.000000"/> 
</g>
<g style="fill-opacity: 1.0;stroke-width: 0.100000;stroke-opacity: 1;stroke-linecap: round;stroke-linejoin: round">
<circle cx="9652000.000000" cy="5397500.000000" r="120000.000000"/> 
</g>
<g style="fill-opacity: 1.0;stroke-width: 0.100000;stroke-opacity: 1;stroke-linecap: round;stroke-linejoin: round">
<circle cx="7239000.000000" cy="5715000.000000" r="120000.000000"/> 
</g>
<g style="fill-opacity: 1.0;stroke-width: 0.100000;stroke-opacity: 1;stroke-linecap: round;stroke-linejoin: round">
<circle cx="7239000.000000" cy="6096000.000000" r="120000.000000"/> 
</g>
<g style="fill-opacity: 1.0;stroke-width: 0.100000;stroke-opacity: 1;stroke-linecap: round;stroke-linejoin: round">
<circle cx="8001000.000000" cy="5397500.000000" r="120000.000000"/> 
</g>
<g style="fill-opacity: 1.0;stroke-width: 0.100000;stroke-opacity: 1;stroke-linecap: round;stroke-linejoin: round">
<path style="fill-opacity: 1.0;stroke-width: 0.100000;stroke-opacity: 1;stroke-linecap: round;stroke-linejoin: round;fill-rule: evenodd" d="M 9547100.000000,6242000.000000 9554753.700000,6243522.400000 9561242.100000,6247857.900000 9565577.600000,6254346.300000 9567100.000000,6262000.000000 9567100.000000,6422000.000000 9565577.600000,6429653.700000 9561242.100000,6436142.100000 9554753.700000,6440477.600000 9547100.000000,6442000.000000 9447100.000000,6442000.000000 9439446.300000,6440477.600000 9432957.900000,6436142.100000 9428622.400000,6429653.700000 9427100.000000,6422000.000000 9427100.000000,6262000.000000 9428622.400000,6254346.300000 9432957.900000,6247857.900000 9439446.300000,6243522.400000 9447100.000000,6242000.000000 Z"/> 
<path style="fill-opacity: 1.0;stroke-width: 0.100000;stroke-opacity: 1;stroke-linecap: round;stroke-linejoin: round;fill-rule: evenodd" d="M 9867100.000000,6242000.000000 9874753.700000,6243522.400000 9881242.100000,6247857.900000 9885577.600000,6254346.300000 9887100.000000,6262000.000000 9887100.000000,6422000.000000 9885577.600000,6429653.700000 9881242.100000,6436142.100000 9874753.700000,6440477.600000 9867100.000000,6442000.000000 9767100.000000,6442000.000000 9759446.300000,6440477.600000 9752957.900000,6436142.100000 9748622.400000,6429653.700000 9747100.000000,6422000.000000 9747100.000000,6262000.000000 9748622.400000,6254346.300000 9752957.900000,6247857.900000 9759446.300000,6243522.400000 9767100.000000,6242000.000000 Z"/> 
<path style="fill-opacity: 1.0;stroke-width: 0.100000;stroke-opacity: 1;stroke-linecap: round;stroke-linejoin: round;fill-rule: evenodd" d="M 9547100.000000,5742000.000000 9554753.700000,5743522.400000 9561242.100000,5747857.900000 9565577.600000,5754346.300000 9567100.000000,5762000.000000 9567100.000000,5922000.000000 9565577.600000,5929653.700000 9561242.100000,5936142.100000 9554753.700000,5940477.600000 9547100.000000,5942000.000000 9447100.000000,5942000.000000 9439446.300000,5940477.600000 9432957.900000,5936142.100000 9428622.400000,5929653.700000 9427100.000000,5922000.000000 9427100.000000,5762000.000000 9428622.400000,5754346.300000 9432957.900000,5747857.900000 9439446.300000,5743522.400000 9447100.000000,5742000.000000 Z"/> 
<path style="fill-opacity: 1.0;stroke-width: 0.100000;stroke-opacity: 1;stroke-linecap: round;stroke-linejoin: round;fill-rule: evenodd" d="M 9867100.000000,5742000.000000 9874753.700000,5743522.400000 9881242.100000,5747857.900000 9885577.600000,5754346.300000 9887100.000000,5762000.000000 9887100.000000,5922000.000000 9885577.600000,5929653.700000 9881242.100000,5936142.100000 9874753.700000,5940477.600000 9867100.000000,5942000.000000 9767100.000000,5942000.000000 9759446.300000,5940477.600000 9752957.900000,5936142.100000 9748622.400000,5929653.700000 9747100.000000,5922000.000000 9747100.000000,5762000.000000 9748622.400000,5754346.300000 9752957.900000,5747857.900000 9759446.300000,5743522.400000 9767100.000000,5742000.000000 Z"/> 
</g>
<g style="fill-opacity: 1.0;stroke-width: 0.100000;stroke-opacity: 1;stroke-linecap: round;stroke-linejoin: round">
<path style="fill-opacity: 1.0;stroke-width: 0.100000;stroke-opacity: 1;stroke-linecap: round;stroke-linejoin: round;fill-rule: evenodd" d="M 7631900.000000,6242000.000000 7639553.700000,6243522.400000 7646042.100000,6247857.900000 7650377.600000,6254346.300000 7651900.000000,6262000.000000 7651900.000000,6422000.000000 7650377.600000,6429653.700000 7646042.100000,6436142.100000 7639553.700000,6440477.600000 7631900.000000,6442000.000000 7531900.000000,6442000.000000 7524246.300000,6440477.600000 7517757.900000,6436142.100000 7513422.400000,6429653.700000 7511900.000000,6422000.000000 7511900.000000,6262000.000000 7513422.400000,6254346.300000 7517757.900000,6247857.900000 7524246.300000,6243522.400000 7531900.000000,6242000.000000 Z"/> 
<path style="fill-opacity: 1.0;stroke-width: 0.100000;stroke-opacity: 1;stroke-linecap: round;stroke-linejoin: round;fill-rule: evenodd" d="M 7951900.000000,6242000.000000 7959553.700000,6243522.400000 7966042.100000,6247857.900000 7970377.600000,6254346.300000 7971900.000000,6262000.000000 7971900.000000,6422000.000000 7970377.600000,6429653.700000 7966042.100000,6436142.100000 7959553.700000,6440477.600000 7951900.000000,6442000.000000 7851900.000000,6442000.000000 7844246.300000,6440477.600000 7837757.900000,6436142.100000 7833422.400000,6429653.700000 7831900.000000,6422000.000000 7831900.000000,6262000.000000 7833422.400000,6254346.300000 7837757.900000,6247857.900000 7844246.300000,6243522.400000 7851900.000000,6242000.000000 Z"/> 
<path style="fill-opacity: 1.0;stroke-width: 0.100000;stroke-opacity: 1;stroke-linecap: round;stroke-linejoin: round;fill-rule: evenodd" d="M 7631900.000000,5742000.000000 7639553.700000,5743522.400000 7646042.100000,5747857.900000 7650377.600000,5754346.300000 7651900.000000,5762000.000000 7651900.000000,5922000.000000 7650377.600000,5929653.700000 7646042.100000,5936142.100000 7639553.700000,5940477.600000 7631900.000000,5942000.000000 7531900.000000,5942000.000000 7524246.300000,5940477.600000 7517757.900000,5936142.100000 7513422.400000,5929653.700000 7511900.000000,5922000.000000 7511900.000000,5762000.000000 7513422.400000,5754346.300000 7517757.900000,5747857.900000 7524246.300000,5743522.400000 7531900.000000,5742000.000000 Z"/> 
<path style="fill-opacity: 1.0;stroke-width: 0.100000;stroke-opacity: 1;stroke-linecap: round;stroke-linejoin: round;fill-rule: evenodd" d="M 7951900.000000,5742000.000000 7959553.700000,5743522.400000 7966042.100000,5747857.900000 7970377.600000,5754346.300000 7971900.000000,5762000.000000 7971900.000000,5922000.000000 7970377.600000,5929653.700000 7966042.100000,5936142.100000 7959553.700000,5940477.600000 7951900.000000,5942000.000000 7851900.000000,5942000.000000 7844246.300000,5940477.600000 7837757.900000,5936142.100000 7833422.400000,5929653.700000 7831900.000000,5922000.000000 7831900.000000,5762000.000000 7833422.400000,5754346.300000 7837757.900000,5747857.900000 7844246.300000,5743522.400000 7851900.000000,5742000.000000 Z"/> 
</g>
<g style="fill-opacity: 0.0;stroke-width: 220000.000000;stroke-opacity: 1;stroke-linecap: round;stroke-linejoin: round">
<path d="M8318500 6517000 L8318500 6477000 "/>
<path d="M9080500 5715000 L9080500 5675000 "/>
<path d="M8572500 6517000 L8572500 6477000 "/>
<path d="M8826500 5715000 L8826500 5675000 "/>
<path d="M8826500 6517000 L8826500 6477000 "/>
<path d="M8572500 5715000 L8572500 5675000 "/>
<path d="M9080500 6517000 L9080500 6477000 "/>
<path d="M8318500 5715000 L8318500 5675000 "/>
</g>
<g style="fill-opacity: 1.0;stroke-width: 0.100000;stroke-opacity: 1;stroke-linecap: round;stroke-linejoin: round">
<circle cx="8318500.000000" cy="5448300.000000" r="70000.000000"/> 
</g>
<g style="fill-opacity: 1.0;stroke-width: 0.100000;stroke-opacity: 1;stroke-linecap: round;stroke-linejoin: round">
<circle cx="8572500.000000" cy="5448300.000000" r="70000.000000"/> 
</g>
</g> 
</g><g id="substrate-copper" style="fill:#417e5a; stroke:#417e5a;"><g style="fill-opacity: 0.0;stroke-width: 0.000000;stroke-opacity: 1;stroke-linecap: round;stroke-linejoin: round">
<g style="fill-opacity: 1.0;stroke-width: 0.100000;stroke-opacity: 1;stroke-linecap: round;stroke-linejoin: round">
<circle cx="8826500.000000" cy="5448300.000000" r="50000.000000"/> 
</g>
<g style="fill-opacity: 1.0;stroke-width: 0.100000;stroke-opacity: 1;stroke-linecap: round;stroke-linejoin: round">
<circle cx="8318500.000000" cy="6692900.000000" r="50000.000000"/> 
</g>
<g style="fill-opacity: 1.0;stroke-width: 0.100000;stroke-opacity: 1;stroke-linecap: round;stroke-linejoin: round">
<circle cx="8572500.000000" cy="6692900.000000" r="50000.000000"/> 
</g>
<g style="fill-opacity: 1.0;stroke-width: 0.100000;stroke-opacity: 1;stroke-linecap: round;stroke-linejoin: round">
<circle cx="8826500.000000" cy="6692900.000000" r="50000.000000"/> 
</g>
<g style="fill-opacity: 1.0;stroke-width: 0.100000;stroke-opacity: 1;stroke-linecap: round;stroke-linejoin: round">
<circle cx="9080500.000000" cy="5448300.000000" r="50000.000000"/> 
</g>
<g style="fill-opacity: 1.0;stroke-width: 0.100000;stroke-opacity: 1;stroke-linecap: round;stroke-linejoin: round">
<circle cx="9080500.000000" cy="6692900.000000" r="50000.000000"/> 
</g>
<g style="fill-opacity: 1.0;stroke-width: 0.100000;stroke-opacity: 1;stroke-linecap: round;stroke-linejoin: round">
<path style="fill-opacity: 1.0;stroke-width: 0.100000;stroke-opacity: 1;stroke-linecap: round;stroke-linejoin: round;fill-rule: evenodd" d="M 7139000.000000,6577000.000000 7139000.000000,6377000.000000 7339000.000000,6377000.000000 7339000.000000,6577000.000000 Z"/> 
</g>
<g style="fill-opacity: 1.0;stroke-width: 0.100000;stroke-opacity: 1;stroke-linecap: round;stroke-linejoin: round">
<path style="fill-opacity: 1.0;stroke-width: 0.100000;stroke-opacity: 1;stroke-linecap: round;stroke-linejoin: round;fill-rule: evenodd" d="M 9298000.000000,5497500.000000 9298000.000000,5297500.000000 9498000.000000,5297500.000000 9498000.000000,5497500.000000 Z"/> 
</g>
<g style="fill-opacity: 1.0;stroke-width: 0.100000;stroke-opacity: 1;stroke-linecap: round;stroke-linejoin: round">
<path style="fill-opacity: 1.0;stroke-width: 0.100000;stroke-opacity: 1;stroke-linecap: round;stroke-linejoin: round;fill-rule: evenodd" d="M 10072700.000000,6589700.000000 10072700.000000,6389700.000000 10272700.000000,6389700.000000 10272700.000000,6589700.000000 Z"/> 
</g>
<g style="fill-opacity: 1.0;stroke-width: 0.100000;stroke-opacity: 1;stroke-linecap: round;stroke-linejoin: round">
<path style="fill-opacity: 1.0;stroke-width: 0.100000;stroke-opacity: 1;stroke-linecap: round;stroke-linejoin: round;fill-rule: evenodd" d="M 7647000.000000,5497500.000000 7647000.000000,5297500.000000 7847000.000000,5297500.000000 7847000.000000,5497500.000000 Z"/> 
</g>
<g style="fill-opacity: 1.0;stroke-width: 0.100000;stroke-opacity: 1;stroke-linecap: round;stroke-linejoin: round">
<circle cx="10160000.000000" cy="5727700.000000" r="100000.000000"/> 
</g>
<g style="fill-opacity: 1.0;stroke-width: 0.100000;stroke-opacity: 1;stroke-linecap: round;stroke-linejoin: round">
<circle cx="9652000.000000" cy="5397500.000000" r="100000.000000"/> 
</g>
<g style="fill-opacity: 1.0;stroke-width: 0.100000;stroke-opacity: 1;stroke-linecap: round;stroke-linejoin: round">
<circle cx="7239000.000000" cy="5715000.000000" r="100000.000000"/> 
</g>
<g style="fill-opacity: 1.0;stroke-width: 0.100000;stroke-opacity: 1;stroke-linecap: round;stroke-linejoin: round">
<circle cx="7239000.000000" cy="6096000.000000" r="100000.000000"/> 
</g>
<g style="fill-opacity: 1.0;stroke-width: 0.100000;stroke-opacity: 1;stroke-linecap: round;stroke-linejoin: round">
<circle cx="8001000.000000" cy="5397500.000000" r="100000.000000"/> 
</g>
<g style="fill-opacity: 1.0;stroke-width: 0.100000;stroke-opacity: 1;stroke-linecap: round;stroke-linejoin: round">
<path style="fill-opacity: 1.0;stroke-width: 0.100000;stroke-opacity: 1;stroke-linecap: round;stroke-linejoin: round;fill-rule: evenodd" d="M 9447100.000000,6262000.000000 9547100.000000,6262000.000000 9547100.000000,6422000.000000 9447100.000000,6422000.000000 Z"/> 
<path style="fill-opacity: 1.0;stroke-width: 0.100000;stroke-opacity: 1;stroke-linecap: round;stroke-linejoin: round;fill-rule: evenodd" d="M 9767100.000000,6262000.000000 9867100.000000,6262000.000000 9867100.000000,6422000.000000 9767100.000000,6422000.000000 Z"/> 
<path style="fill-opacity: 1.0;stroke-width: 0.100000;stroke-opacity: 1;stroke-linecap: round;stroke-linejoin: round;fill-rule: evenodd" d="M 9447100.000000,5762000.000000 9547100.000000,5762000.000000 9547100.000000,5922000.000000 9447100.000000,5922000.000000 Z"/> 
<path style="fill-opacity: 1.0;stroke-width: 0.100000;stroke-opacity: 1;stroke-linecap: round;stroke-linejoin: round;fill-rule: evenodd" d="M 9767100.000000,5762000.000000 9867100.000000,5762000.000000 9867100.000000,5922000.000000 9767100.000000,5922000.000000 Z"/> 
</g>
<g style="fill-opacity: 1.0;stroke-width: 0.100000;stroke-opacity: 1;stroke-linecap: round;stroke-linejoin: round">
<path style="fill-opacity: 1.0;stroke-width: 0.100000;stroke-opacity: 1;stroke-linecap: round;stroke-linejoin: round;fill-rule: evenodd" d="M 7531900.000000,6262000.000000 7631900.000000,6262000.000000 7631900.000000,6422000.000000 7531900.000000,6422000.000000 Z"/> 
<path style="fill-opacity: 1.0;stroke-width: 0.100000;stroke-opacity: 1;stroke-linecap: round;stroke-linejoin: round;fill-rule: evenodd" d="M 7851900.000000,6262000.000000 7951900.000000,6262000.000000 7951900.000000,6422000.000000 7851900.000000,6422000.000000 Z"/> 
<path style="fill-opacity: 1.0;stroke-width: 0.100000;stroke-opacity: 1;stroke-linecap: round;stroke-linejoin: round;fill-rule: evenodd" d="M 7531900.000000,5762000.000000 7631900.000000,5762000.000000 7631900.000000,5922000.000000 7531900.000000,5922000.000000 Z"/> 
<path style="fill-opacity: 1.0;stroke-width: 0.100000;stroke-opacity: 1;stroke-linecap: round;stroke-linejoin: round;fill-rule: evenodd" d="M 7851900.000000,5762000.000000 7951900.000000,5762000.000000 7951900.000000,5922000.000000 7851900.000000,5922000.000000 Z"/> 
</g>
<g style="fill-opacity: 0.0;stroke-width: 180000.000000;stroke-opacity: 1;stroke-linecap: round;stroke-linejoin: round">
<path d="M8318500 6517000 L8318500 6477000 "/>
<path d="M9080500 5715000 L9080500 5675000 "/>
<path d="M8572500 6517000 L8572500 6477000 "/>
<path d="M8826500 5715000 L8826500 5675000 "/>
<path d="M8826500 6517000 L8826500 6477000 "/>
<path d="M8572500 5715000 L8572500 5675000 "/>
<path d="M9080500 6517000 L9080500 6477000 "/>
<path d="M8318500 5715000 L8318500 5675000 "/>
</g>
<g style="fill-opacity: 1.0;stroke-width: 0.100000;stroke-opacity: 1;stroke-linecap: round;stroke-linejoin: round">
<circle cx="8318500.000000" cy="5448300.000000" r="50000.000000"/> 
</g>
<g style="fill-opacity: 1.0;stroke-width: 0.100000;stroke-opacity: 1;stroke-linecap: round;stroke-linejoin: round">
<circle cx="8572500.000000" cy="5448300.000000" r="50000.000000"/> 
</g>
<g style="fill-opacity: 0.0;stroke-width: 40000.000000;stroke-opacity: 1;stroke-linecap: round;stroke-linejoin: round">
<path d="M8109598 6196154 L8146252 6159500 "/>
<path d="M8146252 6159500 L8269753 6035999 "/>
<path d="M7991900 6306854 L8139254 6159500 "/>
<path d="M8139254 6159500 L8146252 6159500 "/>
<path d="M7991900 6454000 L7991900 6306854 "/>
<path d="M7981600 6464300 L7991900 6454000 "/>
<path d="M8102600 6196154 L8109598 6196154 "/>
<path d="M9817100 5872000 L9653101 6035999 "/>
<path d="M9817100 5842000 L9817100 5872000 "/>
<path d="M9653101 6035999 L8269753 6035999 "/>
<path d="M7823200 6464300 L7785100 6426200 "/>
<path d="M7785100 6426200 L7785100 6078800 "/>
<path d="M7785100 6078800 L7901900 5962000 "/>
<path d="M7901900 5962000 L7901900 5842000 "/>
<path d="M7981600 6464300 L7823200 6464300 "/>
<path d="M7901900 5842000 L8191500 5842000 "/>
<path d="M8191500 5842000 L8318500 5715000 "/>
<path d="M7887000 5257499 L7747000 5397500 "/>
<path d="M9117999 5257499 L7887000 5257499 "/>
<path d="M9258000 5397500 L9117999 5257499 "/>
<path d="M9398000 5397500 L9258000 5397500 "/>
<path d="M7491899 6251999 L7581900 6342000 "/>
<path d="M7491899 5652600 L7491899 6251999 "/>
<path d="M7747000 5397500 L7491899 5652600 "/>
<path d="M9644800 6489700 L10172700 6489700 "/>
<path d="M9497100 6342000 L9644800 6489700 "/>
<path d="M8295700 5918200 L8877300 5918200 "/>
<path d="M8877300 5918200 L9080500 5715000 "/>
<path d="M7901900 6342000 L7901900 6312000 "/>
<path d="M7901900 6312000 L8295700 5918200 "/>
<path d="M9817100 6342000 L9817100 6312000 "/>
<path d="M9817100 6312000 L9601200 6096100 "/>
<path d="M9601200 6096100 L9601200 6096000 "/>
<path d="M9601200 6096000 L8294606 6096000 "/>
<path d="M8294606 6096000 L8051901 6338705 "/>
<path d="M8051901 6338705 L8051901 6478853 "/>
<path d="M8051901 6478853 L8006453 6524301 "/>
<path d="M7581900 5842000 L7645400 5842000 "/>
<path d="M7721600 5891700 L7671900 5842000 "/>
<path d="M7671900 5842000 L7645400 5842000 "/>
<path d="M7721600 6447554 L7721600 5891700 "/>
<path d="M8015654 6515100 L8006453 6524301 "/>
<path d="M8006453 6524301 L7798346 6524300 "/>
<path d="M7798346 6524300 L7721600 6447554 "/>
<path d="M7429500 6451600 L7429500 5903844 "/>
<path d="M8031306 6584301 L7562201 6584301 "/>
<path d="M7562201 6584301 L7429500 6451600 "/>
<path d="M8319459 6156001 L8319459 6158540 "/>
<path d="M8319459 6158540 L8111902 6366097 "/>
<path d="M8111902 6366097 L8111902 6503706 "/>
<path d="M8111902 6503706 L8031306 6584301 "/>
<path d="M8759501 6156001 L8319459 6156001 "/>
<path d="M8826500 6477000 L8826500 6223000 "/>
<path d="M8826500 6223000 L8759501 6156001 "/>
<path d="M7340544 5814999 L7338999 5814999 "/>
<path d="M7429500 5903844 L7340600 5814944 "/>
<path d="M7340600 5814944 L7340544 5814999 "/>
<path d="M7338999 5814999 L7239000 5715000 "/>
</g>
</g> 
</g><g id="substrate-pads" style="fill:#b5ae30; stroke:#b5ae30;" mask="url(#pads-mask)"><g style="fill-opacity: 0.0;stroke-width: 0.000000;stroke-opacity: 1;stroke-linecap: round;stroke-linejoin: round">
<g style="fill-opacity: 1.0;stroke-width: 0.100000;stroke-opacity: 1;stroke-linecap: round;stroke-linejoin: round">
<circle cx="8826500.000000" cy="5448300.000000" r="50000.000000"/> 
</g>
<g style="fill-opacity: 1.0;stroke-width: 0.100000;stroke-opacity: 1;stroke-linecap: round;stroke-linejoin: round">
<circle cx="8318500.000000" cy="6692900.000000" r="50000.000000"/> 
</g>
<g style="fill-opacity: 1.0;stroke-width: 0.100000;stroke-opacity: 1;stroke-linecap: round;stroke-linejoin: round">
<circle cx="8572500.000000" cy="6692900.000000" r="50000.000000"/> 
</g>
<g style="fill-opacity: 1.0;stroke-width: 0.100000;stroke-opacity: 1;stroke-linecap: round;stroke-linejoin: round">
<circle cx="8826500.000000" cy="6692900.000000" r="50000.000000"/> 
</g>
<g style="fill-opacity: 1.0;stroke-width: 0.100000;stroke-opacity: 1;stroke-linecap: round;stroke-linejoin: round">
<circle cx="9080500.000000" cy="5448300.000000" r="50000.000000"/> 
</g>
<g style="fill-opacity: 1.0;stroke-width: 0.100000;stroke-opacity: 1;stroke-linecap: round;stroke-linejoin: round">
<circle cx="9080500.000000" cy="6692900.000000" r="50000.000000"/> 
</g>
<g style="fill-opacity: 1.0;stroke-width: 0.100000;stroke-opacity: 1;stroke-linecap: round;stroke-linejoin: round">
<path style="fill-opacity: 1.0;stroke-width: 0.100000;stroke-opacity: 1;stroke-linecap: round;stroke-linejoin: round;fill-rule: evenodd" d="M 7139000.000000,6577000.000000 7139000.000000,6377000.000000 7339000.000000,6377000.000000 7339000.000000,6577000.000000 Z"/> 
</g>
<g style="fill-opacity: 1.0;stroke-width: 0.100000;stroke-opacity: 1;stroke-linecap: round;stroke-linejoin: round">
<path style="fill-opacity: 1.0;stroke-width: 0.100000;stroke-opacity: 1;stroke-linecap: round;stroke-linejoin: round;fill-rule: evenodd" d="M 9298000.000000,5497500.000000 9298000.000000,5297500.000000 9498000.000000,5297500.000000 9498000.000000,5497500.000000 Z"/> 
</g>
<g style="fill-opacity: 1.0;stroke-width: 0.100000;stroke-opacity: 1;stroke-linecap: round;stroke-linejoin: round">
<path style="fill-opacity: 1.0;stroke-width: 0.100000;stroke-opacity: 1;stroke-linecap: round;stroke-linejoin: round;fill-rule: evenodd" d="M 10072700.000000,6589700.000000 10072700.000000,6389700.000000 10272700.000000,6389700.000000 10272700.000000,6589700.000000 Z"/> 
</g>
<g style="fill-opacity: 1.0;stroke-width: 0.100000;stroke-opacity: 1;stroke-linecap: round;stroke-linejoin: round">
<path style="fill-opacity: 1.0;stroke-width: 0.100000;stroke-opacity: 1;stroke-linecap: round;stroke-linejoin: round;fill-rule: evenodd" d="M 7647000.000000,5497500.000000 7647000.000000,5297500.000000 7847000.000000,5297500.000000 7847000.000000,5497500.000000 Z"/> 
</g>
<g style="fill-opacity: 1.0;stroke-width: 0.100000;stroke-opacity: 1;stroke-linecap: round;stroke-linejoin: round">
<circle cx="10160000.000000" cy="5727700.000000" r="100000.000000"/> 
</g>
<g style="fill-opacity: 1.0;stroke-width: 0.100000;stroke-opacity: 1;stroke-linecap: round;stroke-linejoin: round">
<circle cx="9652000.000000" cy="5397500.000000" r="100000.000000"/> 
</g>
<g style="fill-opacity: 1.0;stroke-width: 0.100000;stroke-opacity: 1;stroke-linecap: round;stroke-linejoin: round">
<circle cx="7239000.000000" cy="5715000.000000" r="100000.000000"/> 
</g>
<g style="fill-opacity: 1.0;stroke-width: 0.100000;stroke-opacity: 1;stroke-linecap: round;stroke-linejoin: round">
<circle cx="7239000.000000" cy="6096000.000000" r="100000.000000"/> 
</g>
<g style="fill-opacity: 1.0;stroke-width: 0.100000;stroke-opacity: 1;stroke-linecap: round;stroke-linejoin: round">
<circle cx="8001000.000000" cy="5397500.000000" r="100000.000000"/> 
</g>
<g style="fill-opacity: 1.0;stroke-width: 0.100000;stroke-opacity: 1;stroke-linecap: round;stroke-linejoin: round">
<path style="fill-opacity: 1.0;stroke-width: 0.100000;stroke-opacity: 1;stroke-linecap: round;stroke-linejoin: round;fill-rule: evenodd" d="M 9447100.000000,6262000.000000 9547100.000000,6262000.000000 9547100.000000,6422000.000000 9447100.000000,6422000.000000 Z"/> 
<path style="fill-opacity: 1.0;stroke-width: 0.100000;stroke-opacity: 1;stroke-linecap: round;stroke-linejoin: round;fill-rule: evenodd" d="M 9767100.000000,6262000.000000 9867100.000000,6262000.000000 9867100.000000,6422000.000000 9767100.000000,6422000.000000 Z"/> 
<path style="fill-opacity: 1.0;stroke-width: 0.100000;stroke-opacity: 1;stroke-linecap: round;stroke-linejoin: round;fill-rule: evenodd" d="M 9447100.000000,5762000.000000 9547100.000000,5762000.000000 9547100.000000,5922000.000000 9447100.000000,5922000.000000 Z"/> 
<path style="fill-opacity: 1.0;stroke-width: 0.100000;stroke-opacity: 1;stroke-linecap: round;stroke-linejoin: round;fill-rule: evenodd" d="M 9767100.000000,5762000.000000 9867100.000000,5762000.000000 9867100.000000,5922000.000000 9767100.000000,5922000.000000 Z"/> 
</g>
<g style="fill-opacity: 1.0;stroke-width: 0.100000;stroke-opacity: 1;stroke-linecap: round;stroke-linejoin: round">
<path style="fill-opacity: 1.0;stroke-width: 0.100000;stroke-opacity: 1;stroke-linecap: round;stroke-linejoin: round;fill-rule: evenodd" d="M 7531900.000000,6262000.000000 7631900.000000,6262000.000000 7631900.000000,6422000.000000 7531900.000000,6422000.000000 Z"/> 
<path style="fill-opacity: 1.0;stroke-width: 0.100000;stroke-opacity: 1;stroke-linecap: round;stroke-linejoin: round;fill-rule: evenodd" d="M 7851900.000000,6262000.000000 7951900.000000,6262000.000000 7951900.000000,6422000.000000 7851900.000000,6422000.000000 Z"/> 
<path style="fill-opacity: 1.0;stroke-width: 0.100000;stroke-opacity: 1;stroke-linecap: round;stroke-linejoin: round;fill-rule: evenodd" d="M 7531900.000000,5762000.000000 7631900.000000,5762000.000000 7631900.000000,5922000.000000 7531900.000000,5922000.000000 Z"/> 
<path style="fill-opacity: 1.0;stroke-width: 0.100000;stroke-opacity: 1;stroke-linecap: round;stroke-linejoin: round;fill-rule: evenodd" d="M 7851900.000000,5762000.000000 7951900.000000,5762000.000000 7951900.000000,5922000.000000 7851900.000000,5922000.000000 Z"/> 
</g>
<g style="fill-opacity: 0.0;stroke-width: 180000.000000;stroke-opacity: 1;stroke-linecap: round;stroke-linejoin: round">
<path d="M8318500 6517000 L8318500 6477000 "/>
<path d="M9080500 5715000 L9080500 5675000 "/>
<path d="M8572500 6517000 L8572500 6477000 "/>
<path d="M8826500 5715000 L8826500 5675000 "/>
<path d="M8826500 6517000 L8826500 6477000 "/>
<path d="M8572500 5715000 L8572500 5675000 "/>
<path d="M9080500 6517000 L9080500 6477000 "/>
<path d="M8318500 5715000 L8318500 5675000 "/>
</g>
<g style="fill-opacity: 1.0;stroke-width: 0.100000;stroke-opacity: 1;stroke-linecap: round;stroke-linejoin: round">
<circle cx="8318500.000000" cy="5448300.000000" r="50000.000000"/> 
</g>
<g style="fill-opacity: 1.0;stroke-width: 0.100000;stroke-opacity: 1;stroke-linecap: round;stroke-linejoin: round">
<circle cx="8572500.000000" cy="5448300.000000" r="50000.000000"/> 
</g>
<g style="fill-opacity: 0.0;stroke-width: 40000.000000;stroke-opacity: 1;stroke-linecap: round;stroke-linejoin: round">
<path d="M8109598 6196154 L8146252 6159500 "/>
<path d="M8146252 6159500 L8269753 6035999 "/>
<path d="M7991900 6306854 L8139254 6159500 "/>
<path d="M8139254 6159500 L8146252 6159500 "/>
<path d="M7991900 6454000 L7991900 6306854 "/>
<path d="M7981600 6464300 L7991900 6454000 "/>
<path d="M8102600 6196154 L8109598 6196154 "/>
<path d="M9817100 5872000 L9653101 6035999 "/>
<path d="M9817100 5842000 L9817100 5872000 "/>
<path d="M9653101 6035999 L8269753 6035999 "/>
<path d="M7823200 6464300 L7785100 6426200 "/>
<path d="M7785100 6426200 L7785100 6078800 "/>
<path d="M7785100 6078800 L7901900 5962000 "/>
<path d="M7901900 5962000 L7901900 5842000 "/>
<path d="M7981600 6464300 L7823200 6464300 "/>
<path d="M7901900 5842000 L8191500 5842000 "/>
<path d="M8191500 5842000 L8318500 5715000 "/>
<path d="M7887000 5257499 L7747000 5397500 "/>
<path d="M9117999 5257499 L7887000 5257499 "/>
<path d="M9258000 5397500 L9117999 5257499 "/>
<path d="M9398000 5397500 L9258000 5397500 "/>
<path d="M7491899 6251999 L7581900 6342000 "/>
<path d="M7491899 5652600 L7491899 6251999 "/>
<path d="M7747000 5397500 L7491899 5652600 "/>
<path d="M9644800 6489700 L10172700 6489700 "/>
<path d="M9497100 6342000 L9644800 6489700 "/>
<path d="M8295700 5918200 L8877300 5918200 "/>
<path d="M8877300 5918200 L9080500 5715000 "/>
<path d="M7901900 6342000 L7901900 6312000 "/>
<path d="M7901900 6312000 L8295700 5918200 "/>
<path d="M9817100 6342000 L9817100 6312000 "/>
<path d="M9817100 6312000 L9601200 6096100 "/>
<path d="M9601200 6096100 L9601200 6096000 "/>
<path d="M9601200 6096000 L8294606 6096000 "/>
<path d="M8294606 6096000 L8051901 6338705 "/>
<path d="M8051901 6338705 L8051901 6478853 "/>
<path d="M8051901 6478853 L8006453 6524301 "/>
<path d="M7581900 5842000 L7645400 5842000 "/>
<path d="M7721600 5891700 L7671900 5842000 "/>
<path d="M7671900 5842000 L7645400 5842000 "/>
<path d="M7721600 6447554 L7721600 5891700 "/>
<path d="M8015654 6515100 L8006453 6524301 "/>
<path d="M8006453 6524301 L7798346 6524300 "/>
<path d="M7798346 6524300 L7721600 6447554 "/>
<path d="M7429500 6451600 L7429500 5903844 "/>
<path d="M8031306 6584301 L7562201 6584301 "/>
<path d="M7562201 6584301 L7429500 6451600 "/>
<path d="M8319459 6156001 L8319459 6158540 "/>
<path d="M8319459 6158540 L8111902 6366097 "/>
<path d="M8111902 6366097 L8111902 6503706 "/>
<path d="M8111902 6503706 L8031306 6584301 "/>
<path d="M8759501 6156001 L8319459 6156001 "/>
<path d="M8826500 6477000 L8826500 6223000 "/>
<path d="M8826500 6223000 L8759501 6156001 "/>
<path d="M7340544 5814999 L7338999 5814999 "/>
<path d="M7429500 5903844 L7340600 5814944 "/>
<path d="M7340600 5814944 L7340544 5814999 "/>
<path d="M7338999 5814999 L7239000 5715000 "/>
</g>
</g> 
</g><g id="substrate-outline" style="fill:#000000; stroke:#000000; stroke-width: 15000.0"><g style="fill-opacity: 0.0;stroke-opacity: 1;stroke-linecap: round;stroke-linejoin: round">
<path d="M7112000 6985000 L10414000 6985000 "/>
<path d="M10414000 6985000 L10414000 5207000 "/>
<path d="M7112000 5207000 L7112000 6985000 "/>
<path d="M7112000 5207000 L10414000 5207000 "/>
</g> 
<path d="M -40000.0 0.0 A 40000.0 40000.0 0 1 1 40000.0 0.0 L 40000.0 -0.0 A 40000.0 40000.0 0 1 1 -40000.0 -0.0 Z" transform="translate(8826500.0 5448300.0) rotate(-0.0)"/><path d="M -40000.0 0.0 A 40000.0 40000.0 0 1 1 40000.0 0.0 L 40000.0 -0.0 A 40000.0 40000.0 0 1 1 -40000.0 -0.0 Z" transform="translate(8318500.0 6692900.0) rotate(-0.0)"/><path d="M -40000.0 0.0 A 40000.0 40000.0 0 1 1 40000.0 0.0 L 40000.0 -0.0 A 40000.0 40000.0 0 1 1 -40000.0 -0.0 Z" transform="translate(8572500.0 6692900.0) rotate(-0.0)"/><path d="M -40000.0 0.0 A 40000.0 40000.0 0 1 1 40000.0 0.0 L 40000.0 -0.0 A 40000.0 40000.0 0 1 1 -40000.0 -0.0 Z" transform="translate(8826500.0 6692900.0) rotate(-0.0)"/><path d="M -40000.0 0.0 A 40000.0 40000.0 0 1 1 40000.0 0.0 L 40000.0 -0.0 A 40000.0 40000.0 0 1 1 -40000.0 -0.0 Z" transform="translate(9080500.0 5448300.0) rotate(-0.0)"/><path d="M -40000.0 0.0 A 40000.0 40000.0 0 1 1 40000.0 0.0 L 40000.0 -0.0 A 40000.0 40000.0 0 1 1 -40000.0 -0.0 Z" transform="translate(9080500.0 6692900.0) rotate(-0.0)"/><path d="M -40000.0 0.0 A 40000.0 40000.0 0 1 1 40000.0 0.0 L 40000.0 -0.0 A 40000.0 40000.0 0 1 1 -40000.0 -0.0 Z" transform="translate(7239000.0 6477000.0) rotate(-0.0)"/><path d="M -40000.0 0.0 A 40000.0 40000.0 0 1 1 40000.0 0.0 L 40000.0 -0.0 A 40000.0 40000.0 0 1 1 -40000.0 -0.0 Z" transform="translate(9398000.0 5397500.0) rotate(-0.0)"/><path d="M -40000.0 0.0 A 40000.0 40000.0 0 1 1 40000.0 0.0 L 40000.0 -0.0 A 40000.0 40000.0 0 1 1 -40000.0 -0.0 Z" transform="translate(10172700.0 6489700.0) rotate(-0.0)"/><path d="M -40000.0 0.0 A 40000.0 40000.0 0 1 1 40000.0 0.0 L 40000.0 -0.0 A 40000.0 40000.0 0 1 1 -40000.0 -0.0 Z" transform="translate(7747000.0 5397500.0) rotate(-0.0)"/><path d="M -40000.0 0.0 A 40000.0 40000.0 0 1 1 40000.0 0.0 L 40000.0 -0.0 A 40000.0 40000.0 0 1 1 -40000.0 -0.0 Z" transform="translate(10160000.0 5727700.0) rotate(-0.0)"/><path d="M -40000.0 0.0 A 40000.0 40000.0 0 1 1 40000.0 0.0 L 40000.0 -0.0 A 40000.0 40000.0 0 1 1 -40000.0 -0.0 Z" transform="translate(9652000.0 5397500.0) rotate(-0.0)"/><path d="M -40000.0 0.0 A 40000.0 40000.0 0 1 1 40000.0 0.0 L 40000.0 -0.0 A 40000.0 40000.0 0 1 1 -40000.0 -0.0 Z" transform="translate(7239000.0 5715000.0) rotate(-0.0)"/><path d="M -40000.0 0.0 A 40000.0 40000.0 0 1 1 40000.0 0.0 L 40000.0 -0.0 A 40000.0 40000.0 0 1 1 -40000.0 -0.0 Z" transform="translate(7239000.0 6096000.0) rotate(-0.0)"/><path d="M -40000.0 0.0 A 40000.0 40000.0 0 1 1 40000.0 0.0 L 40000.0 -0.0 A 40000.0 40000.0 0 1 1 -40000.0 -0.0 Z" transform="translate(8001000.0 5397500.0) rotate(-0.0)"/><path d="M -40000.0 0.0 A 40000.0 40000.0 0 1 1 40000.0 0.0 L 40000.0 -0.0 A 40000.0 40000.0 0 1 1 -40000.0 -0.0 Z" transform="translate(8318500.0 6477000.0) rotate(-90.0)"/><path d="M -40000.0 0.0 A 40000.0 40000.0 0 1 1 40000.0 0.0 L 40000.0 -0.0 A 40000.0 40000.0 0 1 1 -40000.0 -0.0 Z" transform="translate(9080500.0 5715000.0) rotate(-90.0)"/><path d="M -40000.0 0.0 A 40000.0 40000.0 0 1 1 40000.0 0.0 L 40000.0 -0.0 A 40000.0 40000.0 0 1 1 -40000.0 -0.0 Z" transform="translate(8572500.0 6477000.0) rotate(-90.0)"/><path d="M -40000.0 0.0 A 40000.0 40000.0 0 1 1 40000.0 0.0 L 40000.0 -0.0 A 40000.0 40000.0 0 1 1 -40000.0 -0.0 Z" transform="translate(8826500.0 5715000.0) rotate(-90.0)"/><path d="M -40000.0 0.0 A 40000.0 40000.0 0 1 1 40000.0 0.0 L 40000.0 -0.0 A 40000.0 40000.0 0 1 1 -40000.0 -0.0 Z" transform="translate(8826500.0 6477000.0) rotate(-90.0)"/><path d="M -40000.0 0.0 A 40000.0 40000.0 0 1 1 40000.0 0.0 L 40000.0 -0.0 A 40000.0 40000.0 0 1 1 -40000.0 -0.0 Z" transform="translate(8572500.0 5715000.0) rotate(-90.0)"/><path d="M -40000.0 0.0 A 40000.0 40000.0 0 1 1 40000.0 0.0 L 40000.0 -0.0 A 40000.0 40000.0 0 1 1 -40000.0 -0.0 Z" transform="translate(9080500.0 6477000.0) rotate(-90.0)"/><path d="M -40000.0 0.0 A 40000.0 40000.0 0 1 1 40000.0 0.0 L 40000.0 -0.0 A 40000.0 40000.0 0 1 1 -40000.0 -0.0 Z" transform="translate(8318500.0 5715000.0) rotate(-90.0)"/><path d="M -40000.0 0.0 A 40000.0 40000.0 0 1 1 40000.0 0.0 L 40000.0 -0.0 A 40000.0 40000.0 0 1 1 -40000.0 -0.0 Z" transform="translate(8318500.0 5448300.0) rotate(-0.0)"/><path d="M -40000.0 0.0 A 40000.0 40000.0 0 1 1 40000.0 0.0 L 40000.0 -0.0 A 40000.0 40000.0 0 1 1 -40000.0 -0.0 Z" transform="translate(8572500.0 5448300.0) rotate(-0.0)"/></g></g></g></svg>