<!DOCTYPE svg PUBLIC "-//W3C//DTD SVG 1.1//EN" "http://www.w3.org/Graphics/SVG/1.1/DTD/svg11.dtd">
<svg xmlns="http://www.w3.org/2000/svg" version="1.1" width="17.24mm" height="24.86mm" viewBox="12473000.0 4726000.0 1724000.0 2486000.0">
            <title>Picture generated by PcbDraw </title>
            <desc>Picture generated by PcbDraw</desc>
        <defs><clipPath id="cut-off"><path d=" M 12573000.0 4826000.0 L 12573000.0 7112000.0 L 14097000.0 7112000.0 L 14097000.0 4826000.0 L 12573000.0 4826000.0 " style="fill-rule: evenodd;"/></clipPath><mask id="pads-mask"><g style="fill:#ffffff; fill-opacity:0.0;  stroke:#ffffff; stroke-width:0.000000; stroke-opacity:1;  stroke-linecap:round; stroke-linejoin:round;">
<g style="fill:#ffffff; fill-opacity:1.0;  stroke:#ffffff; stroke-width:0.100000; stroke-opacity:1;  stroke-linecap:round; stroke-linejoin:round;">
<path style="fill:#ffffff; fill-opacity:1.0;  stroke:#ffffff; stroke-width:0.100000; stroke-opacity:1;  stroke-linecap:round; stroke-linejoin:round;fill-rule:evenodd;" d="M 12980000.000000,6506500.000000 12981522.400000,6498846.300000 12985857.900000,6492357.900000 12992346.300000,6488022.400000 13000000.000000,6486500.000000 13170000.000000,6486500.000000 13177653.700000,6488022.400000 13184142.100000,6492357.900000 13188477.600000,6498846.300000 13190000.000000,6506500.000000 13190000.000000,6701500.000000 13188477.600000,6709153.700000 13184142.100000,6715642.100000 13177653.700000,6719977.600000 13170000.000000,6721500.000000 13000000.000000,6721500.000000 12992346.300000,6719977.600000 12985857.900000,6715642.100000 12981522.400000,6709153.700000 12980000.000000,6701500.000000 Z"/> 
</g>
<g style="fill:#ffffff; fill-opacity:0.0;  stroke:#ffffff; stroke-width:210000.000000; stroke-opacity:1;  stroke-linecap:round; stroke-linejoin:round;">
<path d="M13335000 6591500 L13335000 6616500 "/>
<path d="M13585000 6591500 L13585000 6616500 "/>
</g>
<g style="fill:#ffffff; fill-opacity:1.0;  stroke:#ffffff; stroke-width:0.100000; stroke-opacity:1;  stroke-linecap:round; stroke-linejoin:round;">
<path style="fill:#ffffff; fill-opacity:1.0;  stroke:#ffffff; stroke-width:0.100000; stroke-opacity:1;  stroke-linecap:round; stroke-linejoin:round;fill-rule:evenodd;" d="M 13815000.000000,5414000.000000 13813477.600000,5421653.700000 13809142.100000,5428142.100000 13802653.700000,5432477.600000 13795000.000000,5434000.000000 13635000.000000,5434000.000000 13627346.300000,5432477.600000 13620857.900000,5428142.100000 13616522.400000,5421653.700000 13615000.000000,5414000.000000 13615000.000000,5254000.000000 13616522.400000,5246346.300000 13620857.900000,5239857.900000 13627346.300000,5235522.400000 13635000.000000,5234000.000000 13795000.000000,5234000.000000 13802653.700000,5235522.400000 13809142.100000,5239857.900000 13813477.600000,5246346.300000 13815000.000000,5254000.000000 Z"/> 
<circle cx="12953000.000000" cy="6096000.000000" r="100000.000000"/> 
<circle cx="13715000.000000" cy="5588000.000000" r="100000.000000"/> 
<circle cx="12953000.000000" cy="5842000.000000" r="100000.000000"/> 
<circle cx="13715000.000000" cy="5842000.000000" r="100000.000000"/> 
<circle cx="12953000.000000" cy="5588000.000000" r="100000.000000"/> 
<circle cx="13715000.000000" cy="6096000.000000" r="100000.000000"/> 
<circle cx="12953000.000000" cy="5334000.000000" r="100000.000000"/> 
</g>
<g style="fill:#ffffff; fill-opacity:1.0;  stroke:#ffffff; stroke-width:0.100000; stroke-opacity:1;  stroke-linecap:round; stroke-linejoin:round;">
<path style="fill:#ffffff; fill-opacity:1.0;  stroke:#ffffff; stroke-width:0.100000; stroke-opacity:1;  stroke-linecap:round; stroke-linejoin:round;fill-rule:evenodd;" d="M 13515000.000000,5379000.000000 13514202.900000,5387432.200000 13509769.500000,5400056.800000 13501819.800000,5410819.800000 13491056.800000,5418769.500000 13478432.200000,5423202.900000 13470000.000000,5424000.000000 13405000.000000,5424000.000000 13396567.800000,5423202.900000 13383943.200000,5418769.500000 13373180.200000,5410819.800000 13365230.500000,5400056.800000 13360797.100000,5387432.200000 13360000.000000,5379000.000000 13360000.000000,5289000.000000 13360797.100000,5280567.800000 13365230.500000,5267943.200000 13373180.200000,5257180.200000 13383943.200000,5249230.500000 13396567.800000,5244797.100000 13405000.000000,5244000.000000 13470000.000000,5244000.000000 13478432.200000,5244797.100000 13491056.800000,5249230.500000 13501819.800000,5257180.200000 13509769.500000,5267943.200000 13514202.900000,5280567.800000 13515000.000000,5289000.000000 Z"/> 
<path style="fill:#ffffff; fill-opacity:1.0;  stroke:#ffffff; stroke-width:0.100000; stroke-opacity:1;  stroke-linecap:round; stroke-linejoin:round;fill-rule:evenodd;" d="M 13310000.000000,5379000.000000 13309202.900000,5387432.200000 13304769.500000,5400056.800000 13296819.800000,5410819.800000 13286056.800000,5418769.500000 13273432.200000,5423202.900000 13265000.000000,5424000.000000 13200000.000000,5424000.000000 13191567.800000,5423202.900000 13178943.200000,5418769.500000 13168180.200000,5410819.800000 13160230.500000,5400056.800000 13155797.100000,5387432.200000 13155000.000000,5379000.000000 13155000.000000,5289000.000000 13155797.100000,5280567.800000 13160230.500000,5267943.200000 13168180.200000,5257180.200000 13178943.200000,5249230.500000 13191567.800000,5244797.100000 13200000.000000,5244000.000000 13265000.000000,5244000.000000 13273432.200000,5244797.100000 13286056.800000,5249230.500000 13296819.800000,5257180.200000 13304769.500000,5267943.200000 13309202.900000,5280567.800000 13310000.000000,5289000.000000 Z"/> 
</g>
<g style="fill:#ffffff; fill-opacity:1.0;  stroke:#ffffff; stroke-width:0.100000; stroke-opacity:1;  stroke-linecap:round; stroke-linejoin:round;">
<path style="fill:#ffffff; fill-opacity:1.0;  stroke:#ffffff; stroke-width:0.100000; stroke-opacity:1;  stroke-linecap:round; stroke-linejoin:round;fill-rule:evenodd;" d="M 13155000.000000,5816000.000000 13147346.300000,5814477.600000 13140857.900000,5810142.100000 13136522.400000,5803653.700000 13135000.000000,5796000.000000 13135000.000000,5596000.000000 13136522.400000,5588346.300000 13140857.900000,5581857.900000 13147346.300000,5577522.400000 13155000.000000,5576000.000000 13285000.000000,5576000.000000 13292653.700000,5577522.400000 13299142.100000,5581857.900000 13303477.600000,5588346.300000 13305000.000000,5596000.000000 13305000.000000,5796000.000000 13303477.600000,5803653.700000 13299142.100000,5810142.100000 13292653.700000,5814477.600000 13285000.000000,5816000.000000 Z"/> 
<path style="fill:#ffffff; fill-opacity:1.0;  stroke:#ffffff; stroke-width:0.100000; stroke-opacity:1;  stroke-linecap:round; stroke-linejoin:round;fill-rule:evenodd;" d="M 13235000.000000,6216000.000000 13227346.300000,6214477.600000 13220857.900000,6210142.100000 13216522.400000,6203653.700000 13215000.000000,6196000.000000 13215000.000000,5996000.000000 13216522.400000,5988346.300000 13220857.900000,5981857.900000 13227346.300000,5977522.400000 13235000.000000,5976000.000000 13435000.000000,5976000.000000 13442653.700000,5977522.400000 13449142.100000,5981857.900000 13453477.600000,5988346.300000 13455000.000000,5996000.000000 13455000.000000,6196000.000000 13453477.600000,6203653.700000 13449142.100000,6210142.100000 13442653.700000,6214477.600000 13435000.000000,6216000.000000 Z"/> 
<path style="fill:#ffffff; fill-opacity:1.0;  stroke:#ffffff; stroke-width:0.100000; stroke-opacity:1;  stroke-linecap:round; stroke-linejoin:round;fill-rule:evenodd;" d="M 13385000.000000,5816000.000000 13377346.300000,5814477.600000 13370857.900000,5810142.100000 13366522.400000,5803653.700000 13365000.000000,5796000.000000 13365000.000000,5596000.000000 13366522.400000,5588346.300000 13370857.900000,5581857.900000 13377346.300000,5577522.400000 13385000.000000,5576000.000000 13515000.000000,5576000.000000 13522653.700000,5577522.400000 13529142.100000,5581857.900000 13533477.600000,5588346.300000 13535000.000000,5596000.000000 13535000.000000,5796000.000000 13533477.600000,5803653.700000 13529142.100000,5810142.100000 13522653.700000,5814477.600000 13515000.000000,5816000.000000 Z"/> 
</g>
</g> 
</mask><mask id="pads-mask-silkscreen"><rect x="12565500.0" y="4818500.0" width="1539000.0" height="2301000.0" fill="white"/><g style="fill:#000000; fill-opacity:0.0;  stroke:#000000; stroke-width:0.000000; stroke-opacity:1;  stroke-linecap:round; stroke-linejoin:round;">
<g style="fill:#000000; fill-opacity:1.0;  stroke:#000000; stroke-width:0.100000; stroke-opacity:1;  stroke-linecap:round; stroke-linejoin:round;">
<path style="fill:#000000; fill-opacity:1.0;  stroke:#000000; stroke-width:0.100000; stroke-opacity:1;  stroke-linecap:round; stroke-linejoin:round;fill-rule:evenodd;" d="M 12980000.000000,6506500.000000 12981522.400000,6498846.300000 12985857.900000,6492357.900000 12992346.300000,6488022.400000 13000000.000000,6486500.000000 13170000.000000,6486500.000000 13177653.700000,6488022.400000 13184142.100000,6492357.900000 13188477.600000,6498846.300000 13190000.000000,6506500.000000 13190000.000000,6701500.000000 13188477.600000,6709153.700000 13184142.100000,6715642.100000 13177653.700000,6719977.600000 13170000.000000,6721500.000000 13000000.000000,6721500.000000 12992346.300000,6719977.600000 12985857.900000,6715642.100000 12981522.400000,6709153.700000 12980000.000000,6701500.000000 Z"/> 
</g>
<g style="fill:#000000; fill-opacity:0.0;  stroke:#000000; stroke-width:210000.000000; stroke-opacity:1;  stroke-linecap:round; stroke-linejoin:round;">
<path d="M13335000 6591500 L13335000 6616500 "/>
<path d="M13585000 6591500 L13585000 6616500 "/>
</g>
<g style="fill:#000000; fill-opacity:1.0;  stroke:#000000; stroke-width:0.100000; stroke-opacity:1;  stroke-linecap:round; stroke-linejoin:round;">
<path style="fill:#000000; fill-opacity:1.0;  stroke:#000000; stroke-width:0.100000; stroke-opacity:1;  stroke-linecap:round; stroke-linejoin:round;fill-rule:evenodd;" d="M 13815000.000000,5414000.000000 13813477.600000,5421653.700000 13809142.100000,5428142.100000 13802653.700000,5432477.600000 13795000.000000,5434000.000000 13635000.000000,5434000.000000 13627346.300000,5432477.600000 13620857.900000,5428142.100000 13616522.400000,5421653.700000 13615000.000000,5414000.000000 13615000.000000,5254000.000000 13616522.400000,5246346.300000 13620857.900000,5239857.900000 13627346.300000,5235522.400000 13635000.000000,5234000.000000 13795000.000000,5234000.000000 13802653.700000,5235522.400000 13809142.100000,5239857.900000 13813477.600000,5246346.300000 13815000.000000,5254000.000000 Z"/> 
<circle cx="12953000.000000" cy="6096000.000000" r="100000.000000"/> 
<circle cx="13715000.000000" cy="5588000.000000" r="100000.000000"/> 
<circle cx="12953000.000000" cy="5842000.000000" r="100000.000000"/> 
<circle cx="13715000.000000" cy="5842000.000000" r="100000.000000"/> 
<circle cx="12953000.000000" cy="5588000.000000" r="100000.000000"/> 
<circle cx="13715000.000000" cy="6096000.000000" r="100000.000000"/> 
<circle cx="12953000.000000" cy="5334000.000000" r="100000.000000"/> 
</g>
<g style="fill:#000000; fill-opacity:1.0;  stroke:#000000; stroke-width:0.100000; stroke-opacity:1;  stroke-linecap:round; stroke-linejoin:round;">
<path style="fill:#000000; fill-opacity:1.0;  stroke:#000000; stroke-width:0.100000; stroke-opacity:1;  stroke-linecap:round; stroke-linejoin:round;fill-rule:evenodd;" d="M 13515000.000000,5379000.000000 13514202.900000,5387432.200000 13509769.500000,5400056.800000 13501819.800000,5410819.800000 13491056.800000,5418769.500000 13478432.200000,5423202.900000 13470000.000000,5424000.000000 13405000.000000,5424000.000000 13396567.800000,5423202.900000 13383943.200000,5418769.500000 13373180.200000,5410819.800000 13365230.500000,5400056.800000 13360797.100000,5387432.200000 13360000.000000,5379000.000000 13360000.000000,5289000.000000 13360797.100000,5280567.800000 13365230.500000,5267943.200000 13373180.200000,5257180.200000 13383943.200000,5249230.500000 13396567.800000,5244797.100000 13405000.000000,5244000.000000 13470000.000000,5244000.000000 13478432.200000,5244797.100000 13491056.800000,5249230.500000 13501819.800000,5257180.200000 13509769.500000,5267943.200000 13514202.900000,5280567.800000 13515000.000000,5289000.000000 Z"/> 
<path style="fill:#000000; fill-opacity:1.0;  stroke:#000000; stroke-width:0.100000; stroke-opacity:1;  stroke-linecap:round; stroke-linejoin:round;fill-rule:evenodd;" d="M 13310000.000000,5379000.000000 13309202.900000,5387432.200000 13304769.500000,5400056.800000 13296819.800000,5410819.800000 13286056.800000,5418769.500000 13273432.200000,5423202.900000 13265000.000000,5424000.000000 13200000.000000,5424000.000000 13191567.800000,5423202.900000 13178943.200000,5418769.500000 13168180.200000,5410819.800000 13160230.500000,5400056.800000 13155797.100000,5387432.200000 13155000.000000,5379000.000000 13155000.000000,5289000.000000 13155797.100000,5280567.800000 13160230.500000,5267943.200000 13168180.200000,5257180.200000 13178943.200000,5249230.500000 13191567.800000,5244797.100000 13200000.000000,5244000.000000 13265000.000000,5244000.000000 13273432.200000,5244797.100000 13286056.800000,5249230.500000 13296819.800000,5257180.200000 13304769.500000,5267943.200000 13309202.900000,5280567.800000 13310000.000000,5289000.000000 Z"/> 
</g>
<g style="fill:#000000; fill-opacity:1.0;  stroke:#000000; stroke-width:0.100000; stroke-opacity:1;  stroke-linecap:round; stroke-linejoin:round;">
<path style="fill:#000000; fill-opacity:1.0;  stroke:#000000; stroke-width:0.100000; stroke-opacity:1;  stroke-linecap:round; stroke-linejoin:round;fill-rule:evenodd;" d="M 13155000.000000,5816000.000000 13147346.300000,5814477.600000 13140857.900000,5810142.100000 13136522.400000,5803653.700000 13135000.000000,5796000.000000 13135000.000000,5596000.000000 13136522.400000,5588346.300000 13140857.900000,5581857.900000 13147346.300000,5577522.400000 13155000.000000,5576000.000000 13285000.000000,5576000.000000 13292653.700000,5577522.400000 13299142.100000,5581857.900000 13303477.600000,5588346.300000 13305000.000000,5596000.000000 13305000.000000,5796000.000000 13303477.600000,5803653.700000 13299142.100000,5810142.100000 13292653.700000,5814477.600000 13285000.000000,5816000.000000 Z"/> 
<path style="fill:#000000; fill-opacity:1.0;  stroke:#000000; stroke-width:0.100000; stroke-opacity:1;  stroke-linecap:round; stroke-linejoin:round;fill-rule:evenodd;" d="M 13235000.000000,6216000.000000 13227346.300000,6214477.600000 13220857.900000,6210142.100000 13216522.400000,6203653.700000 13215000.000000,6196000.000000 13215000.000000,5996000.000000 13216522.400000,5988346.300000 13220857.900000,5981857.900000 13227346.300000,5977522.400000 13235000.000000,5976000.000000 13435000.000000,5976000.000000 13442653.700000,5977522.400000 13449142.100000,5981857.900000 13453477.600000,5988346.300000 13455000.000000,5996000.000000 13455000.000000,6196000.000000 13453477.600000,6203653.700000 13449142.100000,6210142.100000 13442653.700000,6214477.600000 13435000.000000,6216000.000000 Z"/> 
<path style="fill:#000000; fill-opacity:1.0;  stroke:#000000; stroke-width:0.100000; stroke-opacity:1;  stroke-linecap:round; stroke-linejoin:round;fill-rule:evenodd;" d="M 13385000.000000,5816000.000000 13377346.300000,5814477.600000 13370857.900000,5810142.100000 13366522.400000,5803653.700000 13365000.000000,5796000.000000 13365000.000000,5596000.000000 13366522.400000,5588346.300000 13370857.900000,5581857.900000 13377346.300000,5577522.400000 13385000.000000,5576000.000000 13515000.000000,5576000.000000 13522653.700000,5577522.400000 13529142.100000,5581857.900000 13533477.600000,5588346.300000 13535000.000000,5596000.000000 13535000.000000,5796000.000000 13533477.600000,5803653.700000 13529142.100000,5810142.100000 13522653.700000,5814477.600000 13515000.000000,5816000.000000 Z"/> 
</g>
</g> 
</mask><mask id="hole-mask"><g><rect x="12565500.0" y="4818500.0" fill="white" width="1539000.0" height="2301000.0"/><polyline stroke-linecap="round" stroke="black" stroke-width="95000.0" points="-0.0 0 0.0 0" transform="translate(13085000.0 6604000.0) rotate(-0.0)"/><polyline stroke-linecap="round" stroke="black" stroke-width="95000.0" points="-0.0 0 0.0 0" transform="translate(13335000.0 6604000.0) rotate(-0.0)"/><polyline stroke-linecap="round" stroke="black" stroke-width="95000.0" points="-0.0 0 0.0 0" transform="translate(13585000.0 6604000.0) rotate(-0.0)"/><polyline stroke-linecap="round" stroke="black" stroke-width="80000.0" points="-0.0 0 0.0 0" transform="translate(13715000.0 5334000.0) rotate(-180.0)"/><polyline stroke-linecap="round" stroke="black" stroke-width="80000.0" points="-0.0 0 0.0 0" transform="translate(12953000.0 6096000.0) rotate(-180.0)"/><polyline stroke-linecap="round" stroke="black" stroke-width="80000.0" points="-0.0 0 0.0 0" transform="translate(13715000.0 5588000.0) rotate(-180.0)"/><polyline stroke-linecap="round" stroke="black" stroke-width="80000.0" points="-0.0 0 0.0 0" transform="translate(12953000.0 5842000.0) rotate(-180.0)"/><polyline stroke-linecap="round" stroke="black" stroke-width="80000.0" points="-0.0 0 0.0 0" transform="translate(13715000.0 5842000.0) rotate(-180.0)"/><polyline stroke-linecap="round" stroke="black" stroke-width="80000.0" points="-0.0 0 0.0 0" transform="translate(12953000.0 5588000.0) rotate(-180.0)"/><polyline stroke-linecap="round" stroke="black" stroke-width="80000.0" points="-0.0 0 0.0 0" transform="translate(13715000.0 6096000.0) rotate(-180.0)"/><polyline stroke-linecap="round" stroke="black" stroke-width="80000.0" points="-0.0 0 0.0 0" transform="translate(12953000.0 5334000.0) rotate(-180.0)"/></g></mask></defs><g transform="" id="boardContainer"><g id="substrate" clip-path="url(#cut-off)" mask="url(#hole-mask)"><g id="substrate-board" style="fill:#4ca06c; stroke:#4ca06c;"><path d=" M 12573000.0 4826000.0 L 12573000.0 7112000.0 L 14097000.0 7112000.0 L 14097000.0 4826000.0 L 12573000.0 4826000.0 " style="fill-rule: evenodd;"/><g style="fill-opacity: 0.0;stroke-width: 15000.000000;stroke-opacity: 1;stroke-linecap: round;stroke-linejoin: round">
<path d="M14097000 4826000 L12573000 4826000 "/>
<path d="M14097000 7112000 L14097000 4826000 "/>
<path d="M12573000 7112000 L14097000 7112000 "/>
<path d="M12573000 4826000 L12573000 7112000 "/>
</g> 
</g><g id="substrate-clad" style="fill:#9c6b28; stroke:#9c6b28;"><g style="fill-opacity: 0.0;stroke-width: 0.000000;stroke-opacity: 1;stroke-linecap: round;stroke-linejoin: round">
<g style="fill-opacity: 1.0;stroke-width: 0.100000;stroke-opacity: 1;stroke-linecap: round;stroke-linejoin: round">
<path style="fill-opacity: 1.0;stroke-width: 0.100000;stroke-opacity: 1;stroke-linecap: round;stroke-linejoin: round;fill-rule: evenodd" d="M 12980000.000000,6506500.000000 12981522.400000,6498846.300000 12985857.900000,6492357.900000 12992346.300000,6488022.400000 13000000.000000,6486500.000000 13170000.000000,6486500.000000 13177653.700000,6488022.400000 13184142.100000,6492357.900000 13188477.600000,6498846.300000 13190000.000000,6506500.000000 13190000.000000,6701500.000000 13188477.600000,6709153.700000 13184142.100000,6715642.100000 13177653.700000,6719977.600000 13170000.000000,6721500.000000 13000000.000000,6721500.000000 12992346.300000,6719977.600000 12985857.900000,6715642.100000 12981522.400000,6709153.700000 12980000.000000,6701500.000000 Z"/> 
</g>
<g style="fill-opacity: 0.0;stroke-width: 210000.000000;stroke-opacity: 1;stroke-linecap: round;stroke-linejoin: round">
<path d="M13335000 6591500 L13335000 6616500 "/>
<path d="M13585000 6591500 L13585000 6616500 "/>
</g>
<g style="fill-opacity: 1.0;stroke-width: 0.100000;stroke-opacity: 1;stroke-linecap: round;stroke-linejoin: round">
<path style="fill-opacity: 1.0;stroke-width: 0.100000;stroke-opacity: 1;stroke-linecap: round;stroke-linejoin: round;fill-rule: evenodd" d="M 13815000.000000,5414000.000000 13813477.600000,5421653.700000 13809142.100000,5428142.100000 13802653.700000,5432477.600000 13795000.000000,5434000.000000 13635000.000000,5434000.000000 13627346.300000,5432477.600000 13620857.900000,5428142.100000 13616522.400000,5421653.700000 13615000.000000,5414000.000000 13615000.000000,5254000.000000 13616522.400000,5246346.300000 13620857.900000,5239857.900000 13627346.300000,5235522.400000 13635000.000000,5234000.000000 13795000.000000,5234000.000000 13802653.700000,5235522.400000 13809142.100000,5239857.900000 13813477.600000,5246346.300000 13815000.000000,5254000.000000 Z"/> 
<circle cx="12953000.000000" cy="6096000.000000" r="100000.000000"/> 
<circle cx="13715000.000000" cy="5588000.000000" r="100000.000000"/> 
<circle cx="12953000.000000" cy="5842000.000000" r="100000.000000"/> 
<circle cx="13715000.000000" cy="5842000.000000" r="100000.000000"/> 
<circle cx="12953000.000000" cy="5588000.000000" r="100000.000000"/> 
<circle cx="13715000.000000" cy="6096000.000000" r="100000.000000"/> 
<circle cx="12953000.000000" cy="5334000.000000" r="100000.000000"/> 
</g>
<g style="fill-opacity: 1.0;stroke-width: 0.100000;stroke-opacity: 1;stroke-linecap: round;stroke-linejoin: round">
<path style="fill-opacity: 1.0;stroke-width: 0.100000;stroke-opacity: 1;stroke-linecap: round;stroke-linejoin: round;fill-rule: evenodd" d="M 13515000.000000,5379000.000000 13514202.900000,5387432.200000 13509769.500000,5400056.800000 13501819.800000,5410819.800000 13491056.800000,5418769.500000 13478432.200000,5423202.900000 13470000.000000,5424000.000000 13405000.000000,5424000.000000 13396567.800000,5423202.900000 13383943.200000,5418769.500000 13373180.200000,5410819.800000 13365230.500000,5400056.800000 13360797.100000,5387432.200000 13360000.000000,5379000.000000 13360000.000000,5289000.000000 13360797.100000,5280567.800000 13365230.500000,5267943.200000 13373180.200000,5257180.200000 13383943.200000,5249230.500000 13396567.800000,5244797.100000 13405000.000000,5244000.000000 13470000.000000,5244000.000000 13478432.200000,5244797.100000 13491056.800000,5249230.500000 13501819.800000,5257180.200000 13509769.500000,5267943.200000 13514202.900000,5280567.800000 13515000.000000,5289000.000000 Z"/> 
<path style="fill-opacity: 1.0;stroke-width: 0.100000;stroke-opacity: 1;stroke-linecap: round;stroke-linejoin: round;fill-rule: evenodd" d="M 13310000.000000,5379000.000000 13309202.900000,5387432.200000 13304769.500000,5400056.800000 13296819.800000,5410819.800000 13286056.800000,5418769.500000 13273432.200000,5423202.900000 13265000.000000,5424000.000000 13200000.000000,5424000.000000 13191567.800000,5423202.900000 13178943.200000,5418769.500000 13168180.200000,5410819.800000 13160230.500000,5400056.800000 13155797.100000,5387432.200000 13155000.000000,5379000.000000 13155000.000000,5289000.000000 13155797.100000,5280567.800000 13160230.500000,5267943.200000 13168180.200000,5257180.200000 13178943.200000,5249230.500000 13191567.800000,5244797.100000 13200000.000000,5244000.000000 13265000.000000,5244000.000000 13273432.200000,5244797.100000 13286056.800000,5249230.500000 13296819.800000,5257180.200000 13304769.500000,5267943.200000 13309202.900000,5280567.800000 13310000.000000,5289000.000000 Z"/> 
</g>
<g style="fill-opacity: 1.0;stroke-width: 0.100000;stroke-opacity: 1;stroke-linecap: round;stroke-linejoin: round">
<path style="fill-opacity: 1.0;stroke-width: 0.100000;stroke-opacity: 1;stroke-linecap: round;stroke-linejoin: round;fill-rule: evenodd" d="M 13155000.000000,5816000.000000 13147346.300000,5814477.600000 13140857.900000,5810142.100000 13136522.400000,5803653.700000 13135000.000000,5796000.000000 13135000.000000,5596000.000000 13136522.400000,5588346.300000 13140857.900000,5581857.900000 13147346.300000,5577522.400000 13155000.000000,5576000.000000 13285000.000000,5576000.000000 13292653.700000,5577522.400000 13299142.100000,5581857.900000 13303477.600000,5588346.300000 13305000.000000,5596000.000000 13305000.000000,5796000.000000 13303477.600000,5803653.700000 13299142.100000,5810142.100000 13292653.700000,5814477.600000 13285000.000000,5816000.000000 Z"/> 
<path style="fill-opacity: 1.0;stroke-width: 0.100000;stroke-opacity: 1;stroke-linecap: round;stroke-linejoin: round;fill-rule: evenodd" d="M 13235000.000000,6216000.000000 13227346.300000,6214477.600000 13220857.900000,6210142.100000 13216522.400000,6203653.700000 13215000.000000,6196000.000000 13215000.000000,5996000.000000 13216522.400000,5988346.300000 13220857.900000,5981857.900000 13227346.300000,5977522.400000 13235000.000000,5976000.000000 13435000.000000,5976000.000000 13442653.700000,5977522.400000 13449142.100000,5981857.900000 13453477.600000,5988346.300000 13455000.000000,5996000.000000 13455000.000000,6196000.000000 13453477.600000,6203653.700000 13449142.100000,6210142.100000 13442653.700000,6214477.600000 13435000.000000,6216000.000000 Z"/> 
<path style="fill-opacity: 1.0;stroke-width: 0.100000;stroke-opacity: 1;stroke-linecap: round;stroke-linejoin: round;fill-rule: evenodd" d="M 13385000.000000,5816000.000000 13377346.300000,5814477.600000 13370857.900000,5810142.100000 13366522.400000,5803653.700000 13365000.000000,5796000.000000 13365000.000000,5596000.000000 13366522.400000,5588346.300000 13370857.900000,5581857.900000 13377346.300000,5577522.400000 13385000.000000,5576000.000000 13515000.000000,5576000.000000 13522653.700000,5577522.400000 13529142.100000,5581857.900000 13533477.600000,5588346.300000 13535000.000000,5596000.000000 13535000.000000,5796000.000000 13533477.600000,5803653.700000 13529142.100000,5810142.100000 13522653.700000,5814477.600000 13515000.000000,5816000.000000 Z"/> 
</g>
</g> 
</g><g id="substrate-copper" style="fill:#417e5a; stroke:#417e5a;"><g style="fill-opacity: 0.0;stroke-width: 0.000000;stroke-opacity: 1;stroke-linecap: round;stroke-linejoin: round">
<g style="fill-opacity: 1.0;stroke-width: 0.100000;stroke-opacity: 1;stroke-linecap: round;stroke-linejoin: round">
<path style="fill-opacity: 1.0;stroke-width: 0.100000;stroke-opacity: 1;stroke-linecap: round;stroke-linejoin: round;fill-rule: evenodd" d="M 13000000.000000,6701500.000000 13000000.000000,6506500.000000 13170000.000000,6506500.000000 13170000.000000,6701500.000000 Z"/> 
</g>
<g style="fill-opacity: 0.0;stroke-width: 170000.000000;stroke-opacity: 1;stroke-linecap: round;stroke-linejoin: round">
<path d="M13335000 6591500 L13335000 6616500 "/>
<path d="M13585000 6591500 L13585000 6616500 "/>
</g>
<g style="fill-opacity: 1.0;stroke-width: 0.100000;stroke-opacity: 1;stroke-linecap: round;stroke-linejoin: round">
<path style="fill-opacity: 1.0;stroke-width: 0.100000;stroke-opacity: 1;stroke-linecap: round;stroke-linejoin: round;fill-rule: evenodd" d="M 13795000.000000,5254000.000000 13795000.000000,5414000.000000 13635000.000000,5414000.000000 13635000.000000,5254000.000000 Z"/> 
<circle cx="12953000.000000" cy="6096000.000000" r="80000.000000"/> 
<circle cx="13715000.000000" cy="5588000.000000" r="80000.000000"/> 
<circle cx="12953000.000000" cy="5842000.000000" r="80000.000000"/> 
<circle cx="13715000.000000" cy="5842000.000000" r="80000.000000"/> 
<circle cx="12953000.000000" cy="5588000.000000" r="80000.000000"/> 
<circle cx="13715000.000000" cy="6096000.000000" r="80000.000000"/> 
<circle cx="12953000.000000" cy="5334000.000000" r="80000.000000"/> 
</g>
<g style="fill-opacity: 1.0;stroke-width: 0.100000;stroke-opacity: 1;stroke-linecap: round;stroke-linejoin: round">
<path style="fill-opacity: 1.0;stroke-width: 0.100000;stroke-opacity: 1;stroke-linecap: round;stroke-linejoin: round;fill-rule: evenodd" d="M 13495000.000000,5379000.000000 13493097.000000,5388567.100000 13487677.700000,5396677.700000 13479567.100000,5402097.000000 13470000.000000,5404000.000000 13405000.000000,5404000.000000 13395432.900000,5402097.000000 13387322.300000,5396677.700000 13381903.000000,5388567.100000 13380000.000000,5379000.000000 13380000.000000,5289000.000000 13381903.000000,5279432.900000 13387322.300000,5271322.300000 13395432.900000,5265903.000000 13405000.000000,5264000.000000 13470000.000000,5264000.000000 13479567.100000,5265903.000000 13487677.700000,5271322.300000 13493097.000000,5279432.900000 13495000.000000,5289000.000000 Z"/> 
<path style="fill-opacity: 1.0;stroke-width: 0.100000;stroke-opacity: 1;stroke-linecap: round;stroke-linejoin: round;fill-rule: evenodd" d="M 13290000.000000,5379000.000000 13288097.000000,5388567.100000 13282677.700000,5396677.700000 13274567.100000,5402097.000000 13265000.000000,5404000.000000 13200000.000000,5404000.000000 13190432.900000,5402097.000000 13182322.300000,5396677.700000 13176903.000000,5388567.100000 13175000.000000,5379000.000000 13175000.000000,5289000.000000 13176903.000000,5279432.900000 13182322.300000,5271322.300000 13190432.900000,5265903.000000 13200000.000000,5264000.000000 13265000.000000,5264000.000000 13274567.100000,5265903.000000 13282677.700000,5271322.300000 13288097.000000,5279432.900000 13290000.000000,5289000.000000 Z"/> 
</g>
<g style="fill-opacity: 1.0;stroke-width: 0.100000;stroke-opacity: 1;stroke-linecap: round;stroke-linejoin: round">
<path style="fill-opacity: 1.0;stroke-width: 0.100000;stroke-opacity: 1;stroke-linecap: round;stroke-linejoin: round;fill-rule: evenodd" d="M 13285000.000000,5796000.000000 13155000.000000,5796000.000000 13155000.000000,5596000.000000 13285000.000000,5596000.000000 Z"/> 
<path style="fill-opacity: 1.0;stroke-width: 0.100000;stroke-opacity: 1;stroke-linecap: round;stroke-linejoin: round;fill-rule: evenodd" d="M 13435000.000000,6196000.000000 13235000.000000,6196000.000000 13235000.000000,5996000.000000 13435000.000000,5996000.000000 Z"/> 
<path style="fill-opacity: 1.0;stroke-width: 0.100000;stroke-opacity: 1;stroke-linecap: round;stroke-linejoin: round;fill-rule: evenodd" d="M 13515000.000000,5796000.000000 13385000.000000,5796000.000000 13385000.000000,5596000.000000 13515000.000000,5596000.000000 Z"/> 
</g>
<g style="fill-opacity: 0.0;stroke-width: 25000.000000;stroke-opacity: 1;stroke-linecap: round;stroke-linejoin: round">
<path d="M13691500 5588000 L13715000 5588000 "/>
<path d="M12953000 6096000 L13335000 6096000 "/>
<path d="M13335000 6096000 L13335000 6604000 "/>
<path d="M13437500 5334000 L13589000 5485500 "/>
<path d="M13589000 5970000 L13715000 6096000 "/>
<path d="M13589000 5485500 L13589000 5970000 "/>
<path d="M13220000 5346500 L13232500 5334000 "/>
<path d="M13220000 5696000 L13220000 5346500 "/>
</g>
</g> 
</g><g id="substrate-pads" style="fill:#b5ae30; stroke:#b5ae30;" mask="url(#pads-mask)"><g style="fill-opacity: 0.0;stroke-width: 0.000000;stroke-opacity: 1;stroke-linecap: round;stroke-linejoin: round">
<g style="fill-opacity: 1.0;stroke-width: 0.100000;stroke-opacity: 1;stroke-linecap: round;stroke-linejoin: round">
<path style="fill-opacity: 1.0;stroke-width: 0.100000;stroke-opacity: 1;stroke-linecap: round;stroke-linejoin: round;fill-rule: evenodd" d="M 13000000.000000,6701500.000000 13000000.000000,6506500.000000 13170000.000000,6506500.000000 13170000.000000,6701500.000000 Z"/> 
</g>
<g style="fill-opacity: 0.0;stroke-width: 170000.000000;stroke-opacity: 1;stroke-linecap: round;stroke-linejoin: round">
<path d="M13335000 6591500 L13335000 6616500 "/>
<path d="M13585000 6591500 L13585000 6616500 "/>
</g>
<g style="fill-opacity: 1.0;stroke-width: 0.100000;stroke-opacity: 1;stroke-linecap: round;stroke-linejoin: round">
<path style="fill-opacity: 1.0;stroke-width: 0.100000;stroke-opacity: 1;stroke-linecap: round;stroke-linejoin: round;fill-rule: evenodd" d="M 13795000.000000,5254000.000000 13795000.000000,5414000.000000 13635000.000000,5414000.000000 13635000.000000,5254000.000000 Z"/> 
<circle cx="12953000.000000" cy="6096000.000000" r="80000.000000"/> 
<circle cx="13715000.000000" cy="5588000.000000" r="80000.000000"/> 
<circle cx="12953000.000000" cy="5842000.000000" r="80000.000000"/> 
<circle cx="13715000.000000" cy="5842000.000000" r="80000.000000"/> 
<circle cx="12953000.000000" cy="5588000.000000" r="80000.000000"/> 
<circle cx="13715000.000000" cy="6096000.000000" r="80000.000000"/> 
<circle cx="12953000.000000" cy="5334000.000000" r="80000.000000"/> 
</g>
<g style="fill-opacity: 1.0;stroke-width: 0.100000;stroke-opacity: 1;stroke-linecap: round;stroke-linejoin: round">
<path style="fill-opacity: 1.0;stroke-width: 0.100000;stroke-opacity: 1;stroke-linecap: round;stroke-linejoin: round;fill-rule: evenodd" d="M 13495000.000000,5379000.000000 13493097.000000,5388567.100000 13487677.700000,5396677.700000 13479567.100000,5402097.000000 13470000.000000,5404000.000000 13405000.000000,5404000.000000 13395432.900000,5402097.000000 13387322.300000,5396677.700000 13381903.000000,5388567.100000 13380000.000000,5379000.000000 13380000.000000,5289000.000000 13381903.000000,5279432.900000 13387322.300000,5271322.300000 13395432.900000,5265903.000000 13405000.000000,5264000.000000 13470000.000000,5264000.000000 13479567.100000,5265903.000000 13487677.700000,5271322.300000 13493097.000000,5279432.900000 13495000.000000,5289000.000000 Z"/> 
<path style="fill-opacity: 1.0;stroke-width: 0.100000;stroke-opacity: 1;stroke-linecap: round;stroke-linejoin: round;fill-rule: evenodd" d="M 13290000.000000,5379000.000000 13288097.000000,5388567.100000 13282677.700000,5396677.700000 13274567.100000,5402097.000000 13265000.000000,5404000.000000 13200000.000000,5404000.000000 13190432.900000,5402097.000000 13182322.300000,5396677.700000 13176903.000000,5388567.100000 13175000.000000,5379000.000000 13175000.000000,5289000.000000 13176903.000000,5279432.900000 13182322.300000,5271322.300000 13190432.900000,5265903.000000 13200000.000000,5264000.000000 13265000.000000,5264000.000000 13274567.100000,5265903.000000 13282677.700000,5271322.300000 13288097.000000,5279432.900000 13290000.000000,5289000.000000 Z"/> 
</g>
<g style="fill-opacity: 1.0;stroke-width: 0.100000;stroke-opacity: 1;stroke-linecap: round;stroke-linejoin: round">
<path style="fill-opacity: 1.0;stroke-width: 0.100000;stroke-opacity: 1;stroke-linecap: round;stroke-linejoin: round;fill-rule: evenodd" d="M 13285000.000000,5796000.000000 13155000.000000,5796000.000000 13155000.000000,5596000.000000 13285000.000000,5596000.000000 Z"/> 
<path style="fill-opacity: 1.0;stroke-width: 0.100000;stroke-opacity: 1;stroke-linecap: round;stroke-linejoin: round;fill-rule: evenodd" d="M 13435000.000000,6196000.000000 13235000.000000,6196000.000000 13235000.000000,5996000.000000 13435000.000000,5996000.000000 Z"/> 
<path style="fill-opacity: 1.0;stroke-width: 0.100000;stroke-opacity: 1;stroke-linecap: round;stroke-linejoin: round;fill-rule: evenodd" d="M 13515000.000000,5796000.000000 13385000.000000,5796000.000000 13385000.000000,5596000.000000 13515000.000000,5596000.000000 Z"/> 
</g>
<g style="fill-opacity: 0.0;stroke-width: 25000.000000;stroke-opacity: 1;stroke-linecap: round;stroke-linejoin: round">
<path d="M13691500 5588000 L13715000 5588000 "/>
<path d="M12953000 6096000 L13335000 6096000 "/>
<path d="M13335000 6096000 L13335000 6604000 "/>
<path d="M13437500 5334000 L13589000 5485500 "/>
<path d="M13589000 5970000 L13715000 6096000 "/>
<path d="M13589000 5485500 L13589000 5970000 "/>
<path d="M13220000 5346500 L13232500 5334000 "/>
<path d="M13220000 5696000 L13220000 5346500 "/>
</g>
</g> 
</g><g id="substrate-silk" style="fill:#f0f0f0; stroke:#f0f0f0;" mask="url(#pads-mask-silkscreen)"><g style="fill-opacity: 0.0;stroke-width: 25000.000000;stroke-opacity: 1;stroke-linecap: round;stroke-linejoin: round">
<text x="13285000.000000" y="7035000.000000" textLength="733333.400000" font-size="133333.300000" lengthAdjust="spacingAndGlyphs" text-anchor="middle" opacity="0">GND S 5V</text>
<g class="stroked-text"><desc>GND S 5V</desc>
<path d="M12994523 6935000 L12985000 6930238 L12970714 6930238 L12956428 6935000 L12946904 6944523 L12942142 6954047 L12937380 6973095 L12937380 6987380 L12942142 7006428 L12946904 7015952 L12956428 7025476 L12970714 7030238 L12980238 7030238 L12994523 7025476 L12999285 7020714 L12999285 6987380 L12980238 6987380 "/>
<path d="M13042142 7030238 L13042142 6930238 L13099285 7030238 L13099285 6930238 "/>
<path d="M13146904 7030238 L13146904 6930238 L13170714 6930238 L13185000 6935000 L13194523 6944523 L13199285 6954047 L13204047 6973095 L13204047 6987380 L13199285 7006428 L13194523 7015952 L13185000 7025476 L13170714 7030238 L13146904 7030238 "/>
<path d="M13318333 7025476 L13332619 7030238 L13356428 7030238 L13365952 7025476 L13370714 7020714 L13375476 7011190 L13375476 7001666 L13370714 6992142 L13365952 6987380 L13356428 6982619 L13337380 6977857 L13327857 6973095 L13323095 6968333 L13318333 6958809 L13318333 6949285 L13323095 6939761 L13327857 6935000 L13337380 6930238 L13361190 6930238 L13375476 6935000 "/>
<path d="M13542142 6930238 L13494523 6930238 L13489761 6977857 L13494523 6973095 L13504047 6968333 L13527857 6968333 L13537380 6973095 L13542142 6977857 L13546904 6987380 L13546904 7011190 L13542142 7020714 L13537380 7025476 L13527857 7030238 L13504047 7030238 L13494523 7025476 L13489761 7020714 "/>
<path d="M13575476 6930238 L13608809 7030238 L13642142 6930238 "/>
</g><text x="13335000.000000" y="5053000.000000" textLength="1322976.200000" font-size="133333.300000" lengthAdjust="spacingAndGlyphs" text-anchor="middle" opacity="0">Adjust Sensitivity</text>
<g class="stroked-text"><desc>Adjust Sensitivity</desc>
<path d="M12708809 5019666 L12756428 5019666 "/>
<path d="M12699285 5048238 L12732619 4948238 L12765952 5048238 "/>
<path d="M12842142 5048238 L12842142 4948238 "/>
<path d="M12842142 5043476 L12832619 5048238 L12813571 5048238 L12804047 5043476 L12799285 5038714 L12794523 5029190 L12794523 5000619 L12799285 4991095 L12804047 4986333 L12813571 4981571 L12832619 4981571 L12842142 4986333 "/>
<path d="M12889761 4981571 L12889761 5067285 L12885000 5076809 L12875476 5081571 L12870714 5081571 "/>
<path d="M12889761 4948238 L12885000 4953000 L12889761 4957761 L12894523 4953000 L12889761 4948238 L12889761 4957761 "/>
<path d="M12980238 4981571 L12980238 5048238 "/>
<path d="M12937380 4981571 L12937380 5033952 L12942142 5043476 L12951666 5048238 L12965952 5048238 L12975476 5043476 L12980238 5038714 "/>
<path d="M13023095 5043476 L13032619 5048238 L13051666 5048238 L13061190 5043476 L13065952 5033952 L13065952 5029190 L13061190 5019666 L13051666 5014904 L13037380 5014904 L13027857 5010142 L13023095 5000619 L13023095 4995857 L13027857 4986333 L13037380 4981571 L13051666 4981571 L13061190 4986333 "/>
<path d="M13094523 4981571 L13132619 4981571 "/>
<path d="M13108809 4948238 L13108809 5033952 L13113571 5043476 L13123095 5048238 L13132619 5048238 "/>
<path d="M13237380 5043476 L13251666 5048238 L13275476 5048238 L13285000 5043476 L13289761 5038714 L13294523 5029190 L13294523 5019666 L13289761 5010142 L13285000 5005380 L13275476 5000619 L13256428 4995857 L13246904 4991095 L13242142 4986333 L13237380 4976809 L13237380 4967285 L13242142 4957761 L13246904 4953000 L13256428 4948238 L13280238 4948238 L13294523 4953000 "/>
<path d="M13375476 5043476 L13365952 5048238 L13346904 5048238 L13337380 5043476 L13332619 5033952 L13332619 4995857 L13337380 4986333 L13346904 4981571 L13365952 4981571 L13375476 4986333 L13380238 4995857 L13380238 5005380 L13332619 5014904 "/>
<path d="M13423095 4981571 L13423095 5048238 "/>
<path d="M13423095 4991095 L13427857 4986333 L13437380 4981571 L13451666 4981571 L13461190 4986333 L13465952 4995857 L13465952 5048238 "/>
<path d="M13508809 5043476 L13518333 5048238 L13537380 5048238 L13546904 5043476 L13551666 5033952 L13551666 5029190 L13546904 5019666 L13537380 5014904 L13523095 5014904 L13513571 5010142 L13508809 5000619 L13508809 4995857 L13513571 4986333 L13523095 4981571 L13537380 4981571 L13546904 4986333 "/>
<path d="M13594523 5048238 L13594523 4981571 "/>
<path d="M13594523 4948238 L13589761 4953000 L13594523 4957761 L13599285 4953000 L13594523 4948238 L13594523 4957761 "/>
<path d="M13627857 4981571 L13665952 4981571 "/>
<path d="M13642142 4948238 L13642142 5033952 L13646904 5043476 L13656428 5048238 L13665952 5048238 "/>
<path d="M13699285 5048238 L13699285 4981571 "/>
<path d="M13699285 4948238 L13694523 4953000 L13699285 4957761 L13704047 4953000 L13699285 4948238 L13699285 4957761 "/>
<path d="M13737380 4981571 L13761190 5048238 L13785000 4981571 "/>
<path d="M13823095 5048238 L13823095 4981571 "/>
<path d="M13823095 4948238 L13818333 4953000 L13823095 4957761 L13827857 4953000 L13823095 4948238 L13823095 4957761 "/>
<path d="M13856428 4981571 L13894523 4981571 "/>
<path d="M13870714 4948238 L13870714 5033952 L13875476 5043476 L13885000 5048238 L13894523 5048238 "/>
<path d="M13918333 4981571 L13942142 5048238 "/>
<path d="M13965952 4981571 L13942142 5048238 L13932619 5072047 L13927857 5076809 L13918333 5081571 "/>
</g></g>
<g style="fill-opacity: 0.0;stroke-width: 15000.000000;stroke-opacity: 1;stroke-linecap: round;stroke-linejoin: round">
<text x="13335000.000000" y="6374000.000000" textLength="203928.600000" font-size="133333.300000" lengthAdjust="spacingAndGlyphs" text-anchor="middle" opacity="0">J1</text>
<g class="stroked-text"><desc>J1</desc>
<path d="M13301666 6269238 L13301666 6340666 L13296904 6354952 L13287380 6364476 L13273095 6369238 L13263571 6369238 "/>
<path d="M13401666 6369238 L13344523 6369238 "/>
<path d="M13373095 6369238 L13373095 6269238 L13363571 6283523 L13354047 6293047 L13344523 6297809 "/>
</g><text x="13335000.000000" y="5549000.000000" textLength="214738.100000" font-size="133333.300000" lengthAdjust="spacingAndGlyphs" text-anchor="middle" opacity="0">R1</text>
<g class="stroked-text"><desc>R1</desc>
<path d="M13318333 5544238 L13285000 5496619 "/>
<path d="M13261190 5544238 L13261190 5444238 L13299285 5444238 L13308809 5449000 L13313571 5453761 L13318333 5463285 L13318333 5477571 L13313571 5487095 L13308809 5491857 L13299285 5496619 L13261190 5496619 "/>
<path d="M13413571 5544238 L13356428 5544238 "/>
<path d="M13385000 5544238 L13385000 5444238 L13375476 5458523 L13365952 5468047 L13356428 5472809 "/>
</g><g transform="rotate(-90.000000 12970000.000000 5896000.000000)">
<text x="12970000.000000" y="5946000.000000" textLength="300452.400000" font-size="133333.300000" lengthAdjust="spacingAndGlyphs" text-anchor="middle" opacity="0">RV1</text>
</g>
<g class="stroked-text"><desc>RV1</desc>
<path d="M13015238 5955523 L12967619 5988857 "/>
<path d="M13015238 6012666 L12915238 6012666 L12915238 5974571 L12920000 5965047 L12924761 5960285 L12934285 5955523 L12948571 5955523 L12958095 5960285 L12962857 5965047 L12967619 5974571 L12967619 6012666 "/>
<path d="M12915238 5926952 L13015238 5893619 L12915238 5860285 "/>
<path d="M13015238 5774571 L13015238 5831714 "/>
<path d="M13015238 5803142 L12915238 5803142 L12929523 5812666 L12939047 5822190 L12943809 5831714 "/>
</g></g>
<g style="fill-opacity: 0.0;stroke-width: 12000.000000;stroke-opacity: 1;stroke-linecap: round;stroke-linejoin: round">
<path d="M12794000 6865000 L13044000 6865000 "/>
<path d="M12794000 6615000 L12794000 6865000 "/>
<path d="M13746000 6685000 L13746000 6835000 "/>
<path d="M13846000 6685000 L13746000 6685000 "/>
<path d="M12924000 6685000 L12924000 6835000 "/>
<path d="M12824000 6685000 L12924000 6685000 "/>
<path d="M13796000 6604000 L13846000 6604000 "/>
<path d="M13796000 6483000 L13796000 6604000 "/>
<path d="M12874000 6483000 L13796000 6483000 "/>
<path d="M12874000 6604000 L12874000 6483000 "/>
<path d="M12824000 6604000 L12874000 6604000 "/>
<path d="M13846000 6433000 L12824000 6433000 "/>
<path d="M13846000 6835000 L13846000 6433000 "/>
<path d="M12824000 6835000 L13846000 6835000 "/>
<path d="M12824000 6433000 L12824000 6835000 "/>
<path d="M13361125 5263000 L13308874 5263000 "/>
<path d="M13361125 5405000 L13308874 5405000 "/>
<path d="M13121000 6138000 L13211000 6138000 "/>
<path d="M13121000 6138000 L13211000 6138000 "/>
</g>
<g style="fill-opacity: 1.0;stroke-width: 0.100000;stroke-opacity: 1;stroke-linecap: round;stroke-linejoin: round">
<circle cx="13121000.000000" cy="6138000.000000" r="6000.000000"/> 
</g>
<g style="fill-opacity: 0.0;stroke-width: 12000.000000;stroke-opacity: 1;stroke-linecap: round;stroke-linejoin: round">
<path d="M13539000 5654000 L13587000 5654000 "/>
<path d="M13309000 5654000 L13361000 5654000 "/>
<path d="M13083000 5654000 L13131000 5654000 "/>
<path d="M13459000 6138000 L13587000 6138000 "/>
<path d="M13083000 6138000 L13211000 6138000 "/>
<path d="M13587000 6138000 L13587000 5654000 "/>
<path d="M13083000 6138000 L13083000 5654000 "/>
</g> 
</g><g id="substrate-outline" style="fill:#000000; stroke:#000000; stroke-width: 15000.0"><g style="fill-opacity: 0.0;stroke-opacity: 1;stroke-linecap: round;stroke-linejoin: round">
<path d="M14097000 4826000 L12573000 4826000 "/>
<path d="M14097000 7112000 L14097000 4826000 "/>
<path d="M12573000 7112000 L14097000 7112000 "/>
<path d="M12573000 4826000 L12573000 7112000 "/>
</g> 
<path d="M -47500.0 0.0 A 47500.0 47500.0 0 1 1 47500.0 0.0 L 47500.0 -0.0 A 47500.0 47500.0 0 1 1 -47500.0 -0.0 Z" transform="translate(13085000.0 6604000.0) rotate(-0.0)"/><path d="M -47500.0 0.0 A 47500.0 47500.0 0 1 1 47500.0 0.0 L 47500.0 -0.0 A 47500.0 47500.0 0 1 1 -47500.0 -0.0 Z" transform="translate(13335000.0 6604000.0) rotate(-0.0)"/><path d="M -47500.0 0.0 A 47500.0 47500.0 0 1 1 47500.0 0.0 L 47500.0 -0.0 A 47500.0 47500.0 0 1 1 -47500.0 -0.0 Z" transform="translate(13585000.0 6604000.0) rotate(-0.0)"/><path d="M -40000.0 0.0 A 40000.0 40000.0 0 1 1 40000.0 0.0 L 40000.0 -0.0 A 40000.0 40000.0 0 1 1 -40000.0 -0.0 Z" transform="translate(13715000.0 5334000.0) rotate(-180.0)"/><path d="M -40000.0 0.0 A 40000.0 40000.0 0 1 1 40000.0 0.0 L 40000.0 -0.0 A 40000.0 40000.0 0 1 1 -40000.0 -0.0 Z" transform="translate(12953000.0 6096000.0) rotate(-180.0)"/><path d="M -40000.0 0.0 A 40000.0 40000.0 0 1 1 40000.0 0.0 L 40000.0 -0.0 A 40000.0 40000.0 0 1 1 -40000.0 -0.0 Z" transform="translate(13715000.0 5588000.0) rotate(-180.0)"/><path d="M -40000.0 0.0 A 40000.0 40000.0 0 1 1 40000.0 0.0 L 40000.0 -0.0 A 40000.0 40000.0 0 1 1 -40000.0 -0.0 Z" transform="translate(12953000.0 5842000.0) rotate(-180.0)"/><path d="M -40000.0 0.0 A 40000.0 40000.0 0 1 1 40000.0 0.0 L 40000.0 -0.0 A 40000.0 40000.0 0 1 1 -40000.0 -0.0 Z" transform="translate(13715000.0 5842000.0) rotate(-180.0)"/><path d="M -40000.0 0.0 A 40000.0 40000.0 0 1 1 40000.0 0.0 L 40000.0 -0.0 A 40000.0 40000.0 0 1 1 -40000.0 -0.0 Z" transform="translate(12953000.0 5588000.0) rotate(-180.0)"/><path d="M -40000.0 0.0 A 40000.0 40000.0 0 1 1 40000.0 0.0 L 40000.0 -0.0 A 40000.0 40000.0 0 1 1 -40000.0 -0.0 Z" transform="translate(13715000.0 6096000.0) rotate(-180.0)"/><path d="M -40000.0 0.0 A 40000.0 40000.0 0 1 1 40000.0 0.0 L 40000.0 -0.0 A 40000.0 40000.0 0 1 1 -40000.0 -0.0 Z" transform="translate(12953000.0 5334000.0) rotate(-180.0)"/></g></g></g></svg>