<!DOCTYPE svg PUBLIC "-//W3C//DTD SVG 1.1//EN" "http://www.w3.org/Graphics/SVG/1.1/DTD/svg11.dtd">
<svg xmlns="http://www.w3.org/2000/svg" version="1.1" width="22.32mm" height="19.07761mm" viewBox="13749350.0 9679000.0 2232000.0 1907761.0">
            <title>Picture generated by PcbDraw </title>
            <desc>Picture generated by PcbDraw</desc>
        <defs><clipPath id="cut-off"><path d=" M 13849350.0 9779000.0 L 15881350.0 9779000.0 L 15881350.0 11303000.0 L 13849350.0 11303000.0 L 13849350.0 9779000.0 L 15881350.0 9779000.0 " style="fill-rule: evenodd;"/></clipPath><mask id="pads-mask"><g style="fill:#ffffff; fill-opacity:0.0;  stroke:#ffffff; stroke-width:0.000000; stroke-opacity:1;  stroke-linecap:round; stroke-linejoin:round;">
<g style="fill:#ffffff; fill-opacity:1.0;  stroke:#ffffff; stroke-width:0.100000; stroke-opacity:1;  stroke-linecap:round; stroke-linejoin:round;">
<path style="fill:#ffffff; fill-opacity:1.0;  stroke:#ffffff; stroke-width:0.100000; stroke-opacity:1;  stroke-linecap:round; stroke-linejoin:round;fill-rule:evenodd;" d="M 14331950.000000,10835640.000000 14331950.000000,11008360.000000 14128750.000000,11008360.000000 14128750.000000,10835640.000000 Z"/> 
</g>
<g style="fill:#ffffff; fill-opacity:0.0;  stroke:#ffffff; stroke-width:172720.000000; stroke-opacity:1;  stroke-linecap:round; stroke-linejoin:round;">
<path d="M14245590 10668000 L14215110 10668000 "/>
<path d="M14245590 10414000 L14215110 10414000 "/>
<path d="M14245590 10160000 L14215110 10160000 "/>
</g>
<g style="fill:#ffffff; fill-opacity:1.0;  stroke:#ffffff; stroke-width:0.100000; stroke-opacity:1;  stroke-linecap:round; stroke-linejoin:round;">
<path style="fill:#ffffff; fill-opacity:1.0;  stroke:#ffffff; stroke-width:0.100000; stroke-opacity:1;  stroke-linecap:round; stroke-linejoin:round;fill-rule:evenodd;" d="M 15601950.000000,10835640.000000 15601950.000000,11008360.000000 15398750.000000,11008360.000000 15398750.000000,10835640.000000 Z"/> 
</g>
<g style="fill:#ffffff; fill-opacity:0.0;  stroke:#ffffff; stroke-width:172720.000000; stroke-opacity:1;  stroke-linecap:round; stroke-linejoin:round;">
<path d="M15515590 10668000 L15485110 10668000 "/>
<path d="M15515590 10414000 L15485110 10414000 "/>
<path d="M15515590 10160000 L15485110 10160000 "/>
</g>
</g> 
</mask><mask id="pads-mask-silkscreen"><rect x="13844350.0" y="9774000.0" width="2042000.0" height="1534000.0" fill="white"/><g style="fill:#000000; fill-opacity:0.0;  stroke:#000000; stroke-width:0.000000; stroke-opacity:1;  stroke-linecap:round; stroke-linejoin:round;">
<g style="fill:#000000; fill-opacity:1.0;  stroke:#000000; stroke-width:0.100000; stroke-opacity:1;  stroke-linecap:round; stroke-linejoin:round;">
<path style="fill:#000000; fill-opacity:1.0;  stroke:#000000; stroke-width:0.100000; stroke-opacity:1;  stroke-linecap:round; stroke-linejoin:round;fill-rule:evenodd;" d="M 14331950.000000,10835640.000000 14331950.000000,11008360.000000 14128750.000000,11008360.000000 14128750.000000,10835640.000000 Z"/> 
</g>
<g style="fill:#000000; fill-opacity:0.0;  stroke:#000000; stroke-width:172720.000000; stroke-opacity:1;  stroke-linecap:round; stroke-linejoin:round;">
<path d="M14245590 10668000 L14215110 10668000 "/>
<path d="M14245590 10414000 L14215110 10414000 "/>
<path d="M14245590 10160000 L14215110 10160000 "/>
</g>
<g style="fill:#000000; fill-opacity:1.0;  stroke:#000000; stroke-width:0.100000; stroke-opacity:1;  stroke-linecap:round; stroke-linejoin:round;">
<path style="fill:#000000; fill-opacity:1.0;  stroke:#000000; stroke-width:0.100000; stroke-opacity:1;  stroke-linecap:round; stroke-linejoin:round;fill-rule:evenodd;" d="M 15601950.000000,10835640.000000 15601950.000000,11008360.000000 15398750.000000,11008360.000000 15398750.000000,10835640.000000 Z"/> 
</g>
<g style="fill:#000000; fill-opacity:0.0;  stroke:#000000; stroke-width:172720.000000; stroke-opacity:1;  stroke-linecap:round; stroke-linejoin:round;">
<path d="M15515590 10668000 L15485110 10668000 "/>
<path d="M15515590 10414000 L15485110 10414000 "/>
<path d="M15515590 10160000 L15485110 10160000 "/>
</g>
</g> 
</mask><mask id="hole-mask"><g><rect x="13844350.0" y="9774000.0" fill="white" width="2042000.0" height="1534000.0"/><polyline stroke-linecap="round" stroke="black" stroke-width="101600.0" points="-0.0 0 0.0 0" transform="translate(14230350.0 10922000.0) rotate(-180.0)"/><polyline stroke-linecap="round" stroke="black" stroke-width="101600.0" points="-0.0 0 0.0 0" transform="translate(14230350.0 10668000.0) rotate(-180.0)"/><polyline stroke-linecap="round" stroke="black" stroke-width="101600.0" points="-0.0 0 0.0 0" transform="translate(14230350.0 10414000.0) rotate(-180.0)"/><polyline stroke-linecap="round" stroke="black" stroke-width="101600.0" points="-0.0 0 0.0 0" transform="translate(14230350.0 10160000.0) rotate(-180.0)"/><polyline stroke-linecap="round" stroke="black" stroke-width="101600.0" points="-0.0 0 0.0 0" transform="translate(15500350.0 10922000.0) rotate(-180.0)"/><polyline stroke-linecap="round" stroke="black" stroke-width="101600.0" points="-0.0 0 0.0 0" transform="translate(15500350.0 10668000.0) rotate(-180.0)"/><polyline stroke-linecap="round" stroke="black" stroke-width="101600.0" points="-0.0 0 0.0 0" transform="translate(15500350.0 10414000.0) rotate(-180.0)"/><polyline stroke-linecap="round" stroke="black" stroke-width="101600.0" points="-0.0 0 0.0 0" transform="translate(15500350.0 10160000.0) rotate(-180.0)"/></g></mask></defs><g transform="" id="boardContainer"><g id="substrate" clip-path="url(#cut-off)" mask="url(#hole-mask)"><g id="substrate-board" style="fill:#4ca06c; stroke:#4ca06c;"><path d=" M 13849350.0 9779000.0 L 15881350.0 9779000.0 L 15881350.0 11303000.0 L 13849350.0 11303000.0 L 13849350.0 9779000.0 L 15881350.0 9779000.0 " style="fill-rule: evenodd;"/><g style="fill-opacity: 0.0;stroke-width: 10000.000000;stroke-opacity: 1;stroke-linecap: round;stroke-linejoin: round">
<path d="M13849350 9779000 L15881350 9779000 "/>
<path d="M13849350 11303000 L13849350 9779000 "/>
<path d="M15881350 11303000 L13849350 11303000 "/>
<path d="M15881350 9779000 L15881350 11303000 "/>
<path d="M13849350 9779000 L15881350 9779000 "/>
</g> 
</g><g id="substrate-clad" style="fill:#9c6b28; stroke:#9c6b28;"><g style="fill-opacity: 0.0;stroke-width: 0.000000;stroke-opacity: 1;stroke-linecap: round;stroke-linejoin: round">
<g style="fill-opacity: 1.0;stroke-width: 0.100000;stroke-opacity: 1;stroke-linecap: round;stroke-linejoin: round">
<path style="fill-opacity: 1.0;stroke-width: 0.100000;stroke-opacity: 1;stroke-linecap: round;stroke-linejoin: round;fill-rule: evenodd" d="M 14331950.000000,10835640.000000 14331950.000000,11008360.000000 14128750.000000,11008360.000000 14128750.000000,10835640.000000 Z"/> 
</g>
<g style="fill-opacity: 0.0;stroke-width: 172720.000000;stroke-opacity: 1;stroke-linecap: round;stroke-linejoin: round">
<path d="M14245590 10668000 L14215110 10668000 "/>
<path d="M14245590 10414000 L14215110 10414000 "/>
<path d="M14245590 10160000 L14215110 10160000 "/>
</g>
<g style="fill-opacity: 1.0;stroke-width: 0.100000;stroke-opacity: 1;stroke-linecap: round;stroke-linejoin: round">
<path style="fill-opacity: 1.0;stroke-width: 0.100000;stroke-opacity: 1;stroke-linecap: round;stroke-linejoin: round;fill-rule: evenodd" d="M 15601950.000000,10835640.000000 15601950.000000,11008360.000000 15398750.000000,11008360.000000 15398750.000000,10835640.000000 Z"/> 
</g>
<g style="fill-opacity: 0.0;stroke-width: 172720.000000;stroke-opacity: 1;stroke-linecap: round;stroke-linejoin: round">
<path d="M15515590 10668000 L15485110 10668000 "/>
<path d="M15515590 10414000 L15485110 10414000 "/>
<path d="M15515590 10160000 L15485110 10160000 "/>
</g>
</g> 
</g><g id="substrate-copper" style="fill:#417e5a; stroke:#417e5a;"><g style="fill-opacity: 0.0;stroke-width: 0.000000;stroke-opacity: 1;stroke-linecap: round;stroke-linejoin: round">
<g style="fill-opacity: 1.0;stroke-width: 0.100000;stroke-opacity: 1;stroke-linecap: round;stroke-linejoin: round">
<path style="fill-opacity: 1.0;stroke-width: 0.100000;stroke-opacity: 1;stroke-linecap: round;stroke-linejoin: round;fill-rule: evenodd" d="M 14331950.000000,10835640.000000 14331950.000000,11008360.000000 14128750.000000,11008360.000000 14128750.000000,10835640.000000 Z"/> 
</g>
<g style="fill-opacity: 0.0;stroke-width: 172720.000000;stroke-opacity: 1;stroke-linecap: round;stroke-linejoin: round">
<path d="M14245590 10668000 L14215110 10668000 "/>
<path d="M14245590 10414000 L14215110 10414000 "/>
<path d="M14245590 10160000 L14215110 10160000 "/>
</g>
<g style="fill-opacity: 1.0;stroke-width: 0.100000;stroke-opacity: 1;stroke-linecap: round;stroke-linejoin: round">
<path style="fill-opacity: 1.0;stroke-width: 0.100000;stroke-opacity: 1;stroke-linecap: round;stroke-linejoin: round;fill-rule: evenodd" d="M 15601950.000000,10835640.000000 15601950.000000,11008360.000000 15398750.000000,11008360.000000 15398750.000000,10835640.000000 Z"/> 
</g>
<g style="fill-opacity: 0.0;stroke-width: 172720.000000;stroke-opacity: 1;stroke-linecap: round;stroke-linejoin: round">
<path d="M15515590 10668000 L15485110 10668000 "/>
<path d="M15515590 10414000 L15485110 10414000 "/>
<path d="M15515590 10160000 L15485110 10160000 "/>
</g>
</g> 
</g><g id="substrate-pads" style="fill:#b5ae30; stroke:#b5ae30;" mask="url(#pads-mask)"><g style="fill-opacity: 0.0;stroke-width: 0.000000;stroke-opacity: 1;stroke-linecap: round;stroke-linejoin: round">
<g style="fill-opacity: 1.0;stroke-width: 0.100000;stroke-opacity: 1;stroke-linecap: round;stroke-linejoin: round">
<path style="fill-opacity: 1.0;stroke-width: 0.100000;stroke-opacity: 1;stroke-linecap: round;stroke-linejoin: round;fill-rule: evenodd" d="M 14331950.000000,10835640.000000 14331950.000000,11008360.000000 14128750.000000,11008360.000000 14128750.000000,10835640.000000 Z"/> 
</g>
<g style="fill-opacity: 0.0;stroke-width: 172720.000000;stroke-opacity: 1;stroke-linecap: round;stroke-linejoin: round">
<path d="M14245590 10668000 L14215110 10668000 "/>
<path d="M14245590 10414000 L14215110 10414000 "/>
<path d="M14245590 10160000 L14215110 10160000 "/>
</g>
<g style="fill-opacity: 1.0;stroke-width: 0.100000;stroke-opacity: 1;stroke-linecap: round;stroke-linejoin: round">
<path style="fill-opacity: 1.0;stroke-width: 0.100000;stroke-opacity: 1;stroke-linecap: round;stroke-linejoin: round;fill-rule: evenodd" d="M 15601950.000000,10835640.000000 15601950.000000,11008360.000000 15398750.000000,11008360.000000 15398750.000000,10835640.000000 Z"/> 
</g>
<g style="fill-opacity: 0.0;stroke-width: 172720.000000;stroke-opacity: 1;stroke-linecap: round;stroke-linejoin: round">
<path d="M15515590 10668000 L15485110 10668000 "/>
<path d="M15515590 10414000 L15485110 10414000 "/>
<path d="M15515590 10160000 L15485110 10160000 "/>
</g>
</g> 
</g><g id="substrate-silk" style="fill:#f0f0f0; stroke:#f0f0f0;" mask="url(#pads-mask-silkscreen)"><g style="fill-opacity: 0.0;stroke-width: 15000.000000;stroke-opacity: 1;stroke-linecap: round;stroke-linejoin: round">
<text x="14230350.000000" y="11482000.000000" textLength="366666.800000" font-size="133333.300000" lengthAdjust="spacingAndGlyphs" text-anchor="middle" opacity="0">P1_2</text>
<g class="stroked-text"><desc>P1_2</desc>
<path d="M14070826 11477238 L14070826 11377238 L14108921 11377238 L14118445 11382000 L14123207 11386761 L14127969 11396285 L14127969 11410571 L14123207 11420095 L14118445 11424857 L14108921 11429619 L14070826 11429619 "/>
<path d="M14223207 11477238 L14166064 11477238 "/>
<path d="M14194635 11477238 L14194635 11377238 L14185111 11391523 L14175588 11401047 L14166064 11405809 "/>
<path d="M14242254 11486761 L14318445 11486761 "/>
<path d="M14337492 11386761 L14342254 11382000 L14351778 11377238 L14375588 11377238 L14385111 11382000 L14389873 11386761 L14394635 11396285 L14394635 11405809 L14389873 11420095 L14332730 11477238 L14394635 11477238 "/>
</g><text x="15500350.000000" y="11482000.000000" textLength="214738.100000" font-size="133333.300000" lengthAdjust="spacingAndGlyphs" text-anchor="middle" opacity="0">P1</text>
<g class="stroked-text"><desc>P1</desc>
<path d="M15426540 11477238 L15426540 11377238 L15464635 11377238 L15474159 11382000 L15478921 11386761 L15483683 11396285 L15483683 11410571 L15478921 11420095 L15474159 11424857 L15464635 11429619 L15426540 11429619 "/>
<path d="M15578921 11477238 L15521778 11477238 "/>
<path d="M15550350 11477238 L15550350 11377238 L15540826 11391523 L15531302 11401047 L15521778 11405809 "/>
</g><path d="M14385350 11077000 L14075350 11077000 "/>
<path d="M14385350 10922000 L14385350 11077000 "/>
<path d="M14103350 10795000 L14357350 10795000 "/>
<path d="M14357350 10033000 L14103350 10033000 "/>
<path d="M14075350 11077000 L14075350 10922000 "/>
<path d="M14103350 10795000 L14103350 10033000 "/>
<path d="M14357350 10795000 L14357350 10033000 "/>
<path d="M15655350 11077000 L15345350 11077000 "/>
<path d="M15655350 10922000 L15655350 11077000 "/>
<path d="M15373350 10795000 L15627350 10795000 "/>
<path d="M15627350 10033000 L15373350 10033000 "/>
<path d="M15345350 11077000 L15345350 10922000 "/>
<path d="M15373350 10795000 L15373350 10033000 "/>
<path d="M15627350 10795000 L15627350 10033000 "/>
<g style="fill-opacity: 1.0;stroke-width: 0.100000;stroke-opacity: 1;stroke-linecap: round;stroke-linejoin: round">
<path style="fill-opacity: 1.0;stroke-width: 0.100000;stroke-opacity: 1;stroke-linecap: round;stroke-linejoin: round;fill-rule: evenodd" d="M 14331950.000000,10835640.000000 14331950.000000,11008360.000000 14128750.000000,11008360.000000 14128750.000000,10835640.000000 Z"/> 
</g>
<g style="fill-opacity: 0.0;stroke-width: 172720.000000;stroke-opacity: 1;stroke-linecap: round;stroke-linejoin: round">
<path d="M14245590 10668000 L14215110 10668000 "/>
<path d="M14245590 10414000 L14215110 10414000 "/>
<path d="M14245590 10160000 L14215110 10160000 "/>
</g>
<g style="fill-opacity: 1.0;stroke-width: 0.100000;stroke-opacity: 1;stroke-linecap: round;stroke-linejoin: round">
<path style="fill-opacity: 1.0;stroke-width: 0.100000;stroke-opacity: 1;stroke-linecap: round;stroke-linejoin: round;fill-rule: evenodd" d="M 15601950.000000,10835640.000000 15601950.000000,11008360.000000 15398750.000000,11008360.000000 15398750.000000,10835640.000000 Z"/> 
</g>
<g style="fill-opacity: 0.0;stroke-width: 172720.000000;stroke-opacity: 1;stroke-linecap: round;stroke-linejoin: round">
<path d="M15515590 10668000 L15485110 10668000 "/>
<path d="M15515590 10414000 L15485110 10414000 "/>
<path d="M15515590 10160000 L15485110 10160000 "/>
</g>
</g> 
</g><g id="substrate-outline" style="fill:#000000; stroke:#000000; stroke-width: 15000.0"><g style="fill-opacity: 0.0;stroke-opacity: 1;stroke-linecap: round;stroke-linejoin: round">
<path d="M13849350 9779000 L15881350 9779000 "/>
<path d="M13849350 11303000 L13849350 9779000 "/>
<path d="M15881350 11303000 L13849350 11303000 "/>
<path d="M15881350 9779000 L15881350 11303000 "/>
<path d="M13849350 9779000 L15881350 9779000 "/>
</g> 
<path d="M -50800.0 0.0 A 50800.0 50800.0 0 1 1 50800.0 0.0 L 50800.0 -0.0 A 50800.0 50800.0 0 1 1 -50800.0 -0.0 Z" transform="translate(14230350.0 10922000.0) rotate(-180.0)"/><path d="M -50800.0 0.0 A 50800.0 50800.0 0 1 1 50800.0 0.0 L 50800.0 -0.0 A 50800.0 50800.0 0 1 1 -50800.0 -0.0 Z" transform="translate(14230350.0 10668000.0) rotate(-180.0)"/><path d="M -50800.0 0.0 A 50800.0 50800.0 0 1 1 50800.0 0.0 L 50800.0 -0.0 A 50800.0 50800.0 0 1 1 -50800.0 -0.0 Z" transform="translate(14230350.0 10414000.0) rotate(-180.0)"/><path d="M -50800.0 0.0 A 50800.0 50800.0 0 1 1 50800.0 0.0 L 50800.0 -0.0 A 50800.0 50800.0 0 1 1 -50800.0 -0.0 Z" transform="translate(14230350.0 10160000.0) rotate(-180.0)"/><path d="M -50800.0 0.0 A 50800.0 50800.0 0 1 1 50800.0 0.0 L 50800.0 -0.0 A 50800.0 50800.0 0 1 1 -50800.0 -0.0 Z" transform="translate(15500350.0 10922000.0) rotate(-180.0)"/><path d="M -50800.0 0.0 A 50800.0 50800.0 0 1 1 50800.0 0.0 L 50800.0 -0.0 A 50800.0 50800.0 0 1 1 -50800.0 -0.0 Z" transform="translate(15500350.0 10668000.0) rotate(-180.0)"/><path d="M -50800.0 0.0 A 50800.0 50800.0 0 1 1 50800.0 0.0 L 50800.0 -0.0 A 50800.0 50800.0 0 1 1 -50800.0 -0.0 Z" transform="translate(15500350.0 10414000.0) rotate(-180.0)"/><path d="M -50800.0 0.0 A 50800.0 50800.0 0 1 1 50800.0 0.0 L 50800.0 -0.0 A 50800.0 50800.0 0 1 1 -50800.0 -0.0 Z" transform="translate(15500350.0 10160000.0) rotate(-180.0)"/></g></g></g><g transform="" id="componentContainer"><!--Pin_Headers:Pin_Header_Straight_1x04:P1_2--><g transform="translate(14230350.0 10922000.0) scale(99999.98076924187, 100000.0) rotate(-180.0) translate(-1.3000000715255737 -1.299933671951294)"><g id="pref_11_Pin_Headers__Pin_Header_Straight_1x04_CONN_01X04"><g id="pref_12pin">
    <rect style="opacity:1;fill:#000000;fill-opacity:1;fill-rule:nonzero;stroke:#141414;stroke-width:1.15387;stroke-linecap:round;stroke-linejoin:bevel;stroke-miterlimit:4;stroke-dasharray:none;stroke-opacity:1" id="pref_12rect4686" width="1.4461316" height="1.4461316" x="0.57693499" y="0.57693422"/>
    <rect y="1.0419546" x="1.0419546" height="0.51612419" width="0.51612419" id="pref_12rect156830" style="opacity:1;fill:#fcf23a;fill-opacity:1;fill-rule:nonzero;stroke:#eb9d02;stroke-width:0.123876;stroke-linecap:round;stroke-linejoin:bevel;stroke-miterlimit:4;stroke-dasharray:none;stroke-opacity:1"/>
  </g>
  <g transform="translate(0,2.5400008)" id="pref_12g13">
    <rect style="opacity:1;fill:#000000;fill-opacity:1;fill-rule:nonzero;stroke:#141414;stroke-width:1.15387;stroke-linecap:round;stroke-linejoin:bevel;stroke-miterlimit:4;stroke-dasharray:none;stroke-opacity:1" id="pref_12rect9" width="1.4461316" height="1.4461316" x="0.57693499" y="0.57693422"/>
    <rect y="1.0419546" x="1.0419546" height="0.51612419" width="0.51612419" id="pref_12rect11" style="opacity:1;fill:#fcf23a;fill-opacity:1;fill-rule:nonzero;stroke:#eb9d02;stroke-width:0.123876;stroke-linecap:round;stroke-linejoin:bevel;stroke-miterlimit:4;stroke-dasharray:none;stroke-opacity:1"/>
  </g>
  <g transform="translate(0,5.0800008)" id="pref_12g19">
    <rect style="opacity:1;fill:#000000;fill-opacity:1;fill-rule:nonzero;stroke:#141414;stroke-width:1.15387;stroke-linecap:round;stroke-linejoin:bevel;stroke-miterlimit:4;stroke-dasharray:none;stroke-opacity:1" id="pref_12rect15" width="1.4461316" height="1.4461316" x="0.57693499" y="0.57693422"/>
    <rect y="1.0419546" x="1.0419546" height="0.51612419" width="0.51612419" id="pref_12rect17" style="opacity:1;fill:#fcf23a;fill-opacity:1;fill-rule:nonzero;stroke:#eb9d02;stroke-width:0.123876;stroke-linecap:round;stroke-linejoin:bevel;stroke-miterlimit:4;stroke-dasharray:none;stroke-opacity:1"/>
  </g>
  <g transform="translate(0,7.6200008)" id="pref_12g25">
    <rect style="opacity:1;fill:#000000;fill-opacity:1;fill-rule:nonzero;stroke:#141414;stroke-width:1.15387;stroke-linecap:round;stroke-linejoin:bevel;stroke-miterlimit:4;stroke-dasharray:none;stroke-opacity:1" id="pref_12rect21" width="1.4461316" height="1.4461316" x="0.57693499" y="0.57693422"/>
    <rect y="1.0419546" x="1.0419546" height="0.51612419" width="0.51612419" id="pref_12rect23" style="opacity:1;fill:#fcf23a;fill-opacity:1;fill-rule:nonzero;stroke:#eb9d02;stroke-width:0.123876;stroke-linecap:round;stroke-linejoin:bevel;stroke-miterlimit:4;stroke-dasharray:none;stroke-opacity:1"/>
  </g>
</g></g><!--Pin_Headers:Pin_Header_Straight_1x04:P1--><g transform="translate(15500350.0 10922000.0) scale(99999.98076924187, 100000.0) rotate(-180.0) translate(-1.3000000715255737 -1.299933671951294)"><use xmlns:xlink="http://www.w3.org/1999/xlink" xlink:href="#pref_11_Pin_Headers__Pin_Header_Straight_1x04_CONN_01X04"/></g></g></svg>