<!DOCTYPE svg PUBLIC "-//W3C//DTD SVG 1.1//EN" "http://www.w3.org/Graphics/SVG/1.1/DTD/svg11.dtd">
<svg xmlns="http://www.w3.org/2000/svg" version="1.1" width="8.35mm" height="8.35mm" viewBox="7875600.0 4891100.0 835000.0 835000.0">
            <title>Picture generated by PcbDraw </title>
            <desc>Picture generated by PcbDraw</desc>
        <defs><clipPath id="cut-off"><path d=" M 7975600.0 5626100.0 L 7975600.0 4991100.0 L 8610600.0 4991100.0 L 8610600.0 5626100.0 L 7975600.0 5626100.0 " style="fill-rule: evenodd;"/></clipPath><mask id="pads-mask"><g style="fill:#ffffff; fill-opacity:0.0;  stroke:#ffffff; stroke-width:0.000000; stroke-opacity:1;  stroke-linecap:round; stroke-linejoin:round;">
<g style="fill:#ffffff; fill-opacity:1.0;  stroke:#ffffff; stroke-width:0.100000; stroke-opacity:1;  stroke-linecap:round; stroke-linejoin:round;">
<path style="fill:#ffffff; fill-opacity:1.0;  stroke:#ffffff; stroke-width:0.100000; stroke-opacity:1;  stroke-linecap:round; stroke-linejoin:round;fill-rule:evenodd;" d="M 8107680.000000,5369560.000000 8108453.400000,5365671.900000 8110655.800000,5362375.800000 8113951.900000,5360173.400000 8117840.000000,5359400.000000 8168640.000000,5359400.000000 8172528.100000,5360173.400000 8175824.200000,5362375.800000 8178026.600000,5365671.900000 8178800.000000,5369560.000000 8178800.000000,5425440.000000 8178026.600000,5429328.100000 8175824.200000,5432624.200000 8172528.100000,5434826.600000 8168640.000000,5435600.000000 8117840.000000,5435600.000000 8113951.900000,5434826.600000 8110655.800000,5432624.200000 8108453.400000,5429328.100000 8107680.000000,5425440.000000 Z"/> 
<path style="fill:#ffffff; fill-opacity:1.0;  stroke:#ffffff; stroke-width:0.100000; stroke-opacity:1;  stroke-linecap:round; stroke-linejoin:round;fill-rule:evenodd;" d="M 8001000.000000,5369560.000000 8001773.400000,5365671.900000 8003975.800000,5362375.800000 8007271.900000,5360173.400000 8011160.000000,5359400.000000 8061960.000000,5359400.000000 8065848.100000,5360173.400000 8069144.200000,5362375.800000 8071346.600000,5365671.900000 8072120.000000,5369560.000000 8072120.000000,5425440.000000 8071346.600000,5429328.100000 8069144.200000,5432624.200000 8065848.100000,5434826.600000 8061960.000000,5435600.000000 8011160.000000,5435600.000000 8007271.900000,5434826.600000 8003975.800000,5432624.200000 8001773.400000,5429328.100000 8001000.000000,5425440.000000 Z"/> 
</g>
<g style="fill:#ffffff; fill-opacity:1.0;  stroke:#ffffff; stroke-width:0.100000; stroke-opacity:1;  stroke-linecap:round; stroke-linejoin:round;">
<path style="fill:#ffffff; fill-opacity:1.0;  stroke:#ffffff; stroke-width:0.100000; stroke-opacity:1;  stroke-linecap:round; stroke-linejoin:round;fill-rule:evenodd;" d="M 7989570.000000,5285232.000000 7990150.000000,5282316.000000 7991801.800000,5279843.800000 7994274.000000,5278192.000000 7997190.000000,5277612.000000 8057134.000000,5277612.000000 8060050.000000,5278192.000000 8062522.200000,5279843.800000 8064174.000000,5282316.000000 8064754.000000,5285232.000000 8064754.000000,5345176.000000 8064174.000000,5348092.000000 8062522.200000,5350564.200000 8060050.000000,5352216.000000 8057134.000000,5352796.000000 7997190.000000,5352796.000000 7994274.000000,5352216.000000 7991801.800000,5350564.200000 7990150.000000,5348092.000000 7989570.000000,5345176.000000 Z"/> 
<path style="fill:#ffffff; fill-opacity:1.0;  stroke:#ffffff; stroke-width:0.100000; stroke-opacity:1;  stroke-linecap:round; stroke-linejoin:round;fill-rule:evenodd;" d="M 8089646.000000,5285232.000000 8090226.000000,5282316.000000 8091877.800000,5279843.800000 8094350.000000,5278192.000000 8097266.000000,5277612.000000 8157210.000000,5277612.000000 8160126.000000,5278192.000000 8162598.200000,5279843.800000 8164250.000000,5282316.000000 8164830.000000,5285232.000000 8164830.000000,5345176.000000 8164250.000000,5348092.000000 8162598.200000,5350564.200000 8160126.000000,5352216.000000 8157210.000000,5352796.000000 8097266.000000,5352796.000000 8094350.000000,5352216.000000 8091877.800000,5350564.200000 8090226.000000,5348092.000000 8089646.000000,5345176.000000 Z"/> 
<path style="fill:#ffffff; fill-opacity:1.0;  stroke:#ffffff; stroke-width:0.100000; stroke-opacity:1;  stroke-linecap:round; stroke-linejoin:round;fill-rule:evenodd;" d="M 8039608.000000,5145024.000000 8040188.000000,5142108.000000 8041839.800000,5139635.800000 8044312.000000,5137984.000000 8047228.000000,5137404.000000 8107172.000000,5137404.000000 8110088.000000,5137984.000000 8112560.200000,5139635.800000 8114212.000000,5142108.000000 8114792.000000,5145024.000000 8114792.000000,5204968.000000 8114212.000000,5207884.000000 8112560.200000,5210356.200000 8110088.000000,5212008.000000 8107172.000000,5212588.000000 8047228.000000,5212588.000000 8044312.000000,5212008.000000 8041839.800000,5210356.200000 8040188.000000,5207884.000000 8039608.000000,5204968.000000 Z"/> 
</g>
<g style="fill:#ffffff; fill-opacity:1.0;  stroke:#ffffff; stroke-width:0.100000; stroke-opacity:1;  stroke-linecap:round; stroke-linejoin:round;">
<path style="fill:#ffffff; fill-opacity:1.0;  stroke:#ffffff; stroke-width:0.100000; stroke-opacity:1;  stroke-linecap:round; stroke-linejoin:round;fill-rule:evenodd;" d="M 8003540.000000,5026660.000000 8004120.000000,5023744.000000 8005771.800000,5021271.800000 8008244.000000,5019620.000000 8011160.000000,5019040.000000 8117840.000000,5019040.000000 8120756.000000,5019620.000000 8123228.200000,5021271.800000 8124880.000000,5023744.000000 8125460.000000,5026660.000000 8125460.000000,5133340.000000 8124880.000000,5136256.000000 8123228.200000,5138728.200000 8120756.000000,5140380.000000 8117840.000000,5140960.000000 8011160.000000,5140960.000000 8008244.000000,5140380.000000 8005771.800000,5138728.200000 8004120.000000,5136256.000000 8003540.000000,5133340.000000 Z"/> 
<circle cx="8191500.000000" cy="5080000.000000" r="60960.000000"/> 
</g>
<g style="fill:#ffffff; fill-opacity:1.0;  stroke:#ffffff; stroke-width:0.100000; stroke-opacity:1;  stroke-linecap:round; stroke-linejoin:round;">
<path style="fill:#ffffff; fill-opacity:1.0;  stroke:#ffffff; stroke-width:0.100000; stroke-opacity:1;  stroke-linecap:round; stroke-linejoin:round;fill-rule:evenodd;" d="M 8252460.000000,5565140.000000 8251880.000000,5568056.000000 8250228.200000,5570528.200000 8247756.000000,5572180.000000 8244840.000000,5572760.000000 8138160.000000,5572760.000000 8135244.000000,5572180.000000 8132771.800000,5570528.200000 8131120.000000,5568056.000000 8130540.000000,5565140.000000 8130540.000000,5458460.000000 8131120.000000,5455544.000000 8132771.800000,5453071.800000 8135244.000000,5451420.000000 8138160.000000,5450840.000000 8244840.000000,5450840.000000 8247756.000000,5451420.000000 8250228.200000,5453071.800000 8251880.000000,5455544.000000 8252460.000000,5458460.000000 Z"/> 
<circle cx="8064500.000000" cy="5511800.000000" r="60960.000000"/> 
</g>
<g style="fill:#ffffff; fill-opacity:1.0;  stroke:#ffffff; stroke-width:0.100000; stroke-opacity:1;  stroke-linecap:round; stroke-linejoin:round;">
<path style="fill:#ffffff; fill-opacity:1.0;  stroke:#ffffff; stroke-width:0.100000; stroke-opacity:1;  stroke-linecap:round; stroke-linejoin:round;fill-rule:evenodd;" d="M 8244840.000000,5262880.000000 8248728.100000,5263653.400000 8252024.200000,5265855.800000 8254226.600000,5269151.900000 8255000.000000,5273040.000000 8255000.000000,5323840.000000 8254226.600000,5327728.100000 8252024.200000,5331024.200000 8248728.100000,5333226.600000 8244840.000000,5334000.000000 8188960.000000,5334000.000000 8185071.900000,5333226.600000 8181775.800000,5331024.200000 8179573.400000,5327728.100000 8178800.000000,5323840.000000 8178800.000000,5273040.000000 8179573.400000,5269151.900000 8181775.800000,5265855.800000 8185071.900000,5263653.400000 8188960.000000,5262880.000000 Z"/> 
<path style="fill:#ffffff; fill-opacity:1.0;  stroke:#ffffff; stroke-width:0.100000; stroke-opacity:1;  stroke-linecap:round; stroke-linejoin:round;fill-rule:evenodd;" d="M 8244840.000000,5156200.000000 8248728.100000,5156973.400000 8252024.200000,5159175.800000 8254226.600000,5162471.900000 8255000.000000,5166360.000000 8255000.000000,5217160.000000 8254226.600000,5221048.100000 8252024.200000,5224344.200000 8248728.100000,5226546.600000 8244840.000000,5227320.000000 8188960.000000,5227320.000000 8185071.900000,5226546.600000 8181775.800000,5224344.200000 8179573.400000,5221048.100000 8178800.000000,5217160.000000 8178800.000000,5166360.000000 8179573.400000,5162471.900000 8181775.800000,5159175.800000 8185071.900000,5156973.400000 8188960.000000,5156200.000000 Z"/> 
<path style="fill:#ffffff; fill-opacity:1.0;  stroke:#ffffff; stroke-width:0.100000; stroke-opacity:1;  stroke-linecap:round; stroke-linejoin:round;fill-rule:evenodd;" d="M 8229600.000000,5196840.000000 8233488.100000,5197613.400000 8236784.200000,5199815.800000 8238986.600000,5203111.900000 8239760.000000,5207000.000000 8239760.000000,5283200.000000 8238986.600000,5287088.100000 8236784.200000,5290384.200000 8233488.100000,5292586.600000 8229600.000000,5293360.000000 8204200.000000,5293360.000000 8200311.900000,5292586.600000 8197015.800000,5290384.200000 8194813.400000,5287088.100000 8194040.000000,5283200.000000 8194040.000000,5207000.000000 8194813.400000,5203111.900000 8197015.800000,5199815.800000 8200311.900000,5197613.400000 8204200.000000,5196840.000000 Z"/> 
</g>
</g> 
</mask><mask id="pads-mask-silkscreen"><rect x="7968100.0" y="4983600.0" width="650000.0" height="650000.0" fill="white"/><g style="fill:#000000; fill-opacity:0.0;  stroke:#000000; stroke-width:0.000000; stroke-opacity:1;  stroke-linecap:round; stroke-linejoin:round;">
<g style="fill:#000000; fill-opacity:1.0;  stroke:#000000; stroke-width:0.100000; stroke-opacity:1;  stroke-linecap:round; stroke-linejoin:round;">
<path style="fill:#000000; fill-opacity:1.0;  stroke:#000000; stroke-width:0.100000; stroke-opacity:1;  stroke-linecap:round; stroke-linejoin:round;fill-rule:evenodd;" d="M 8107680.000000,5369560.000000 8108453.400000,5365671.900000 8110655.800000,5362375.800000 8113951.900000,5360173.400000 8117840.000000,5359400.000000 8168640.000000,5359400.000000 8172528.100000,5360173.400000 8175824.200000,5362375.800000 8178026.600000,5365671.900000 8178800.000000,5369560.000000 8178800.000000,5425440.000000 8178026.600000,5429328.100000 8175824.200000,5432624.200000 8172528.100000,5434826.600000 8168640.000000,5435600.000000 8117840.000000,5435600.000000 8113951.900000,5434826.600000 8110655.800000,5432624.200000 8108453.400000,5429328.100000 8107680.000000,5425440.000000 Z"/> 
<path style="fill:#000000; fill-opacity:1.0;  stroke:#000000; stroke-width:0.100000; stroke-opacity:1;  stroke-linecap:round; stroke-linejoin:round;fill-rule:evenodd;" d="M 8001000.000000,5369560.000000 8001773.400000,5365671.900000 8003975.800000,5362375.800000 8007271.900000,5360173.400000 8011160.000000,5359400.000000 8061960.000000,5359400.000000 8065848.100000,5360173.400000 8069144.200000,5362375.800000 8071346.600000,5365671.900000 8072120.000000,5369560.000000 8072120.000000,5425440.000000 8071346.600000,5429328.100000 8069144.200000,5432624.200000 8065848.100000,5434826.600000 8061960.000000,5435600.000000 8011160.000000,5435600.000000 8007271.900000,5434826.600000 8003975.800000,5432624.200000 8001773.400000,5429328.100000 8001000.000000,5425440.000000 Z"/> 
</g>
<g style="fill:#000000; fill-opacity:1.0;  stroke:#000000; stroke-width:0.100000; stroke-opacity:1;  stroke-linecap:round; stroke-linejoin:round;">
<path style="fill:#000000; fill-opacity:1.0;  stroke:#000000; stroke-width:0.100000; stroke-opacity:1;  stroke-linecap:round; stroke-linejoin:round;fill-rule:evenodd;" d="M 7989570.000000,5285232.000000 7990150.000000,5282316.000000 7991801.800000,5279843.800000 7994274.000000,5278192.000000 7997190.000000,5277612.000000 8057134.000000,5277612.000000 8060050.000000,5278192.000000 8062522.200000,5279843.800000 8064174.000000,5282316.000000 8064754.000000,5285232.000000 8064754.000000,5345176.000000 8064174.000000,5348092.000000 8062522.200000,5350564.200000 8060050.000000,5352216.000000 8057134.000000,5352796.000000 7997190.000000,5352796.000000 7994274.000000,5352216.000000 7991801.800000,5350564.200000 7990150.000000,5348092.000000 7989570.000000,5345176.000000 Z"/> 
<path style="fill:#000000; fill-opacity:1.0;  stroke:#000000; stroke-width:0.100000; stroke-opacity:1;  stroke-linecap:round; stroke-linejoin:round;fill-rule:evenodd;" d="M 8089646.000000,5285232.000000 8090226.000000,5282316.000000 8091877.800000,5279843.800000 8094350.000000,5278192.000000 8097266.000000,5277612.000000 8157210.000000,5277612.000000 8160126.000000,5278192.000000 8162598.200000,5279843.800000 8164250.000000,5282316.000000 8164830.000000,5285232.000000 8164830.000000,5345176.000000 8164250.000000,5348092.000000 8162598.200000,5350564.200000 8160126.000000,5352216.000000 8157210.000000,5352796.000000 8097266.000000,5352796.000000 8094350.000000,5352216.000000 8091877.800000,5350564.200000 8090226.000000,5348092.000000 8089646.000000,5345176.000000 Z"/> 
<path style="fill:#000000; fill-opacity:1.0;  stroke:#000000; stroke-width:0.100000; stroke-opacity:1;  stroke-linecap:round; stroke-linejoin:round;fill-rule:evenodd;" d="M 8039608.000000,5145024.000000 8040188.000000,5142108.000000 8041839.800000,5139635.800000 8044312.000000,5137984.000000 8047228.000000,5137404.000000 8107172.000000,5137404.000000 8110088.000000,5137984.000000 8112560.200000,5139635.800000 8114212.000000,5142108.000000 8114792.000000,5145024.000000 8114792.000000,5204968.000000 8114212.000000,5207884.000000 8112560.200000,5210356.200000 8110088.000000,5212008.000000 8107172.000000,5212588.000000 8047228.000000,5212588.000000 8044312.000000,5212008.000000 8041839.800000,5210356.200000 8040188.000000,5207884.000000 8039608.000000,5204968.000000 Z"/> 
</g>
<g style="fill:#000000; fill-opacity:1.0;  stroke:#000000; stroke-width:0.100000; stroke-opacity:1;  stroke-linecap:round; stroke-linejoin:round;">
<path style="fill:#000000; fill-opacity:1.0;  stroke:#000000; stroke-width:0.100000; stroke-opacity:1;  stroke-linecap:round; stroke-linejoin:round;fill-rule:evenodd;" d="M 8003540.000000,5026660.000000 8004120.000000,5023744.000000 8005771.800000,5021271.800000 8008244.000000,5019620.000000 8011160.000000,5019040.000000 8117840.000000,5019040.000000 8120756.000000,5019620.000000 8123228.200000,5021271.800000 8124880.000000,5023744.000000 8125460.000000,5026660.000000 8125460.000000,5133340.000000 8124880.000000,5136256.000000 8123228.200000,5138728.200000 8120756.000000,5140380.000000 8117840.000000,5140960.000000 8011160.000000,5140960.000000 8008244.000000,5140380.000000 8005771.800000,5138728.200000 8004120.000000,5136256.000000 8003540.000000,5133340.000000 Z"/> 
<circle cx="8191500.000000" cy="5080000.000000" r="60960.000000"/> 
</g>
<g style="fill:#000000; fill-opacity:1.0;  stroke:#000000; stroke-width:0.100000; stroke-opacity:1;  stroke-linecap:round; stroke-linejoin:round;">
<path style="fill:#000000; fill-opacity:1.0;  stroke:#000000; stroke-width:0.100000; stroke-opacity:1;  stroke-linecap:round; stroke-linejoin:round;fill-rule:evenodd;" d="M 8252460.000000,5565140.000000 8251880.000000,5568056.000000 8250228.200000,5570528.200000 8247756.000000,5572180.000000 8244840.000000,5572760.000000 8138160.000000,5572760.000000 8135244.000000,5572180.000000 8132771.800000,5570528.200000 8131120.000000,5568056.000000 8130540.000000,5565140.000000 8130540.000000,5458460.000000 8131120.000000,5455544.000000 8132771.800000,5453071.800000 8135244.000000,5451420.000000 8138160.000000,5450840.000000 8244840.000000,5450840.000000 8247756.000000,5451420.000000 8250228.200000,5453071.800000 8251880.000000,5455544.000000 8252460.000000,5458460.000000 Z"/> 
<circle cx="8064500.000000" cy="5511800.000000" r="60960.000000"/> 
</g>
<g style="fill:#000000; fill-opacity:1.0;  stroke:#000000; stroke-width:0.100000; stroke-opacity:1;  stroke-linecap:round; stroke-linejoin:round;">
<path style="fill:#000000; fill-opacity:1.0;  stroke:#000000; stroke-width:0.100000; stroke-opacity:1;  stroke-linecap:round; stroke-linejoin:round;fill-rule:evenodd;" d="M 8244840.000000,5262880.000000 8248728.100000,5263653.400000 8252024.200000,5265855.800000 8254226.600000,5269151.900000 8255000.000000,5273040.000000 8255000.000000,5323840.000000 8254226.600000,5327728.100000 8252024.200000,5331024.200000 8248728.100000,5333226.600000 8244840.000000,5334000.000000 8188960.000000,5334000.000000 8185071.900000,5333226.600000 8181775.800000,5331024.200000 8179573.400000,5327728.100000 8178800.000000,5323840.000000 8178800.000000,5273040.000000 8179573.400000,5269151.900000 8181775.800000,5265855.800000 8185071.900000,5263653.400000 8188960.000000,5262880.000000 Z"/> 
<path style="fill:#000000; fill-opacity:1.0;  stroke:#000000; stroke-width:0.100000; stroke-opacity:1;  stroke-linecap:round; stroke-linejoin:round;fill-rule:evenodd;" d="M 8244840.000000,5156200.000000 8248728.100000,5156973.400000 8252024.200000,5159175.800000 8254226.600000,5162471.900000 8255000.000000,5166360.000000 8255000.000000,5217160.000000 8254226.600000,5221048.100000 8252024.200000,5224344.200000 8248728.100000,5226546.600000 8244840.000000,5227320.000000 8188960.000000,5227320.000000 8185071.900000,5226546.600000 8181775.800000,5224344.200000 8179573.400000,5221048.100000 8178800.000000,5217160.000000 8178800.000000,5166360.000000 8179573.400000,5162471.900000 8181775.800000,5159175.800000 8185071.900000,5156973.400000 8188960.000000,5156200.000000 Z"/> 
<path style="fill:#000000; fill-opacity:1.0;  stroke:#000000; stroke-width:0.100000; stroke-opacity:1;  stroke-linecap:round; stroke-linejoin:round;fill-rule:evenodd;" d="M 8229600.000000,5196840.000000 8233488.100000,5197613.400000 8236784.200000,5199815.800000 8238986.600000,5203111.900000 8239760.000000,5207000.000000 8239760.000000,5283200.000000 8238986.600000,5287088.100000 8236784.200000,5290384.200000 8233488.100000,5292586.600000 8229600.000000,5293360.000000 8204200.000000,5293360.000000 8200311.900000,5292586.600000 8197015.800000,5290384.200000 8194813.400000,5287088.100000 8194040.000000,5283200.000000 8194040.000000,5207000.000000 8194813.400000,5203111.900000 8197015.800000,5199815.800000 8200311.900000,5197613.400000 8204200.000000,5196840.000000 Z"/> 
</g>
</g> 
</mask><mask id="hole-mask"><g><rect x="7968100.0" y="4983600.0" fill="white" width="650000.0" height="650000.0"/><polyline stroke-linecap="round" stroke="black" stroke-width="71120.0" points="-0.0 0 0.0 0" transform="translate(8064500.0 5080000.0) rotate(-0.0)"/><polyline stroke-linecap="round" stroke="black" stroke-width="71120.0" points="-0.0 0 0.0 0" transform="translate(8191500.0 5080000.0) rotate(-0.0)"/><polyline stroke-linecap="round" stroke="black" stroke-width="71120.0" points="-0.0 0 0.0 0" transform="translate(8191500.0 5511800.0) rotate(-180.0)"/><polyline stroke-linecap="round" stroke="black" stroke-width="71120.0" points="-0.0 0 0.0 0" transform="translate(8064500.0 5511800.0) rotate(-180.0)"/></g></mask></defs><g transform="" id="boardContainer"><g id="substrate" clip-path="url(#cut-off)" mask="url(#hole-mask)"><g id="substrate-board" style="fill:#4ca06c; stroke:#4ca06c;"><path d=" M 7975600.0 5626100.0 L 7975600.0 4991100.0 L 8610600.0 4991100.0 L 8610600.0 5626100.0 L 7975600.0 5626100.0 " style="fill-rule: evenodd;"/><g style="fill-opacity: 0.0;stroke-width: 15000.000000;stroke-opacity: 1;stroke-linecap: round;stroke-linejoin: round">
<path d="M8610600 5626100 L7975600 5626100 "/>
<path d="M8610600 4991100 L8610600 5626100 "/>
<path d="M7975600 4991100 L7975600 5626100 "/>
<path d="M8610600 4991100 L7975600 4991100 "/>
</g> 
</g><g id="substrate-clad" style="fill:#9c6b28; stroke:#9c6b28;"><g style="fill-opacity: 0.0;stroke-width: 0.000000;stroke-opacity: 1;stroke-linecap: round;stroke-linejoin: round">
<g style="fill-opacity: 1.0;stroke-width: 0.100000;stroke-opacity: 1;stroke-linecap: round;stroke-linejoin: round">
<path style="fill-opacity: 1.0;stroke-width: 0.100000;stroke-opacity: 1;stroke-linecap: round;stroke-linejoin: round;fill-rule: evenodd" d="M 8107680.000000,5369560.000000 8108453.400000,5365671.900000 8110655.800000,5362375.800000 8113951.900000,5360173.400000 8117840.000000,5359400.000000 8168640.000000,5359400.000000 8172528.100000,5360173.400000 8175824.200000,5362375.800000 8178026.600000,5365671.900000 8178800.000000,5369560.000000 8178800.000000,5425440.000000 8178026.600000,5429328.100000 8175824.200000,5432624.200000 8172528.100000,5434826.600000 8168640.000000,5435600.000000 8117840.000000,5435600.000000 8113951.900000,5434826.600000 8110655.800000,5432624.200000 8108453.400000,5429328.100000 8107680.000000,5425440.000000 Z"/> 
<path style="fill-opacity: 1.0;stroke-width: 0.100000;stroke-opacity: 1;stroke-linecap: round;stroke-linejoin: round;fill-rule: evenodd" d="M 8001000.000000,5369560.000000 8001773.400000,5365671.900000 8003975.800000,5362375.800000 8007271.900000,5360173.400000 8011160.000000,5359400.000000 8061960.000000,5359400.000000 8065848.100000,5360173.400000 8069144.200000,5362375.800000 8071346.600000,5365671.900000 8072120.000000,5369560.000000 8072120.000000,5425440.000000 8071346.600000,5429328.100000 8069144.200000,5432624.200000 8065848.100000,5434826.600000 8061960.000000,5435600.000000 8011160.000000,5435600.000000 8007271.900000,5434826.600000 8003975.800000,5432624.200000 8001773.400000,5429328.100000 8001000.000000,5425440.000000 Z"/> 
</g>
<g style="fill-opacity: 1.0;stroke-width: 0.100000;stroke-opacity: 1;stroke-linecap: round;stroke-linejoin: round">
<path style="fill-opacity: 1.0;stroke-width: 0.100000;stroke-opacity: 1;stroke-linecap: round;stroke-linejoin: round;fill-rule: evenodd" d="M 7989570.000000,5285232.000000 7990150.000000,5282316.000000 7991801.800000,5279843.800000 7994274.000000,5278192.000000 7997190.000000,5277612.000000 8057134.000000,5277612.000000 8060050.000000,5278192.000000 8062522.200000,5279843.800000 8064174.000000,5282316.000000 8064754.000000,5285232.000000 8064754.000000,5345176.000000 8064174.000000,5348092.000000 8062522.200000,5350564.200000 8060050.000000,5352216.000000 8057134.000000,5352796.000000 7997190.000000,5352796.000000 7994274.000000,5352216.000000 7991801.800000,5350564.200000 7990150.000000,5348092.000000 7989570.000000,5345176.000000 Z"/> 
<path style="fill-opacity: 1.0;stroke-width: 0.100000;stroke-opacity: 1;stroke-linecap: round;stroke-linejoin: round;fill-rule: evenodd" d="M 8089646.000000,5285232.000000 8090226.000000,5282316.000000 8091877.800000,5279843.800000 8094350.000000,5278192.000000 8097266.000000,5277612.000000 8157210.000000,5277612.000000 8160126.000000,5278192.000000 8162598.200000,5279843.800000 8164250.000000,5282316.000000 8164830.000000,5285232.000000 8164830.000000,5345176.000000 8164250.000000,5348092.000000 8162598.200000,5350564.200000 8160126.000000,5352216.000000 8157210.000000,5352796.000000 8097266.000000,5352796.000000 8094350.000000,5352216.000000 8091877.800000,5350564.200000 8090226.000000,5348092.000000 8089646.000000,5345176.000000 Z"/> 
<path style="fill-opacity: 1.0;stroke-width: 0.100000;stroke-opacity: 1;stroke-linecap: round;stroke-linejoin: round;fill-rule: evenodd" d="M 8039608.000000,5145024.000000 8040188.000000,5142108.000000 8041839.800000,5139635.800000 8044312.000000,5137984.000000 8047228.000000,5137404.000000 8107172.000000,5137404.000000 8110088.000000,5137984.000000 8112560.200000,5139635.800000 8114212.000000,5142108.000000 8114792.000000,5145024.000000 8114792.000000,5204968.000000 8114212.000000,5207884.000000 8112560.200000,5210356.200000 8110088.000000,5212008.000000 8107172.000000,5212588.000000 8047228.000000,5212588.000000 8044312.000000,5212008.000000 8041839.800000,5210356.200000 8040188.000000,5207884.000000 8039608.000000,5204968.000000 Z"/> 
</g>
<g style="fill-opacity: 1.0;stroke-width: 0.100000;stroke-opacity: 1;stroke-linecap: round;stroke-linejoin: round">
<path style="fill-opacity: 1.0;stroke-width: 0.100000;stroke-opacity: 1;stroke-linecap: round;stroke-linejoin: round;fill-rule: evenodd" d="M 8003540.000000,5026660.000000 8004120.000000,5023744.000000 8005771.800000,5021271.800000 8008244.000000,5019620.000000 8011160.000000,5019040.000000 8117840.000000,5019040.000000 8120756.000000,5019620.000000 8123228.200000,5021271.800000 8124880.000000,5023744.000000 8125460.000000,5026660.000000 8125460.000000,5133340.000000 8124880.000000,5136256.000000 8123228.200000,5138728.200000 8120756.000000,5140380.000000 8117840.000000,5140960.000000 8011160.000000,5140960.000000 8008244.000000,5140380.000000 8005771.800000,5138728.200000 8004120.000000,5136256.000000 8003540.000000,5133340.000000 Z"/> 
<circle cx="8191500.000000" cy="5080000.000000" r="60960.000000"/> 
</g>
<g style="fill-opacity: 1.0;stroke-width: 0.100000;stroke-opacity: 1;stroke-linecap: round;stroke-linejoin: round">
<path style="fill-opacity: 1.0;stroke-width: 0.100000;stroke-opacity: 1;stroke-linecap: round;stroke-linejoin: round;fill-rule: evenodd" d="M 8252460.000000,5565140.000000 8251880.000000,5568056.000000 8250228.200000,5570528.200000 8247756.000000,5572180.000000 8244840.000000,5572760.000000 8138160.000000,5572760.000000 8135244.000000,5572180.000000 8132771.800000,5570528.200000 8131120.000000,5568056.000000 8130540.000000,5565140.000000 8130540.000000,5458460.000000 8131120.000000,5455544.000000 8132771.800000,5453071.800000 8135244.000000,5451420.000000 8138160.000000,5450840.000000 8244840.000000,5450840.000000 8247756.000000,5451420.000000 8250228.200000,5453071.800000 8251880.000000,5455544.000000 8252460.000000,5458460.000000 Z"/> 
<circle cx="8064500.000000" cy="5511800.000000" r="60960.000000"/> 
</g>
<g style="fill-opacity: 1.0;stroke-width: 0.100000;stroke-opacity: 1;stroke-linecap: round;stroke-linejoin: round">
<path style="fill-opacity: 1.0;stroke-width: 0.100000;stroke-opacity: 1;stroke-linecap: round;stroke-linejoin: round;fill-rule: evenodd" d="M 8244840.000000,5262880.000000 8248728.100000,5263653.400000 8252024.200000,5265855.800000 8254226.600000,5269151.900000 8255000.000000,5273040.000000 8255000.000000,5323840.000000 8254226.600000,5327728.100000 8252024.200000,5331024.200000 8248728.100000,5333226.600000 8244840.000000,5334000.000000 8188960.000000,5334000.000000 8185071.900000,5333226.600000 8181775.800000,5331024.200000 8179573.400000,5327728.100000 8178800.000000,5323840.000000 8178800.000000,5273040.000000 8179573.400000,5269151.900000 8181775.800000,5265855.800000 8185071.900000,5263653.400000 8188960.000000,5262880.000000 Z"/> 
<path style="fill-opacity: 1.0;stroke-width: 0.100000;stroke-opacity: 1;stroke-linecap: round;stroke-linejoin: round;fill-rule: evenodd" d="M 8244840.000000,5156200.000000 8248728.100000,5156973.400000 8252024.200000,5159175.800000 8254226.600000,5162471.900000 8255000.000000,5166360.000000 8255000.000000,5217160.000000 8254226.600000,5221048.100000 8252024.200000,5224344.200000 8248728.100000,5226546.600000 8244840.000000,5227320.000000 8188960.000000,5227320.000000 8185071.900000,5226546.600000 8181775.800000,5224344.200000 8179573.400000,5221048.100000 8178800.000000,5217160.000000 8178800.000000,5166360.000000 8179573.400000,5162471.900000 8181775.800000,5159175.800000 8185071.900000,5156973.400000 8188960.000000,5156200.000000 Z"/> 
<path style="fill-opacity: 1.0;stroke-width: 0.100000;stroke-opacity: 1;stroke-linecap: round;stroke-linejoin: round;fill-rule: evenodd" d="M 8229600.000000,5196840.000000 8233488.100000,5197613.400000 8236784.200000,5199815.800000 8238986.600000,5203111.900000 8239760.000000,5207000.000000 8239760.000000,5283200.000000 8238986.600000,5287088.100000 8236784.200000,5290384.200000 8233488.100000,5292586.600000 8229600.000000,5293360.000000 8204200.000000,5293360.000000 8200311.900000,5292586.600000 8197015.800000,5290384.200000 8194813.400000,5287088.100000 8194040.000000,5283200.000000 8194040.000000,5207000.000000 8194813.400000,5203111.900000 8197015.800000,5199815.800000 8200311.900000,5197613.400000 8204200.000000,5196840.000000 Z"/> 
</g>
</g> 
</g><g id="substrate-copper" style="fill:#417e5a; stroke:#417e5a;"><g style="fill-opacity: 0.0;stroke-width: 0.000000;stroke-opacity: 1;stroke-linecap: round;stroke-linejoin: round">
<g style="fill-opacity: 1.0;stroke-width: 0.100000;stroke-opacity: 1;stroke-linecap: round;stroke-linejoin: round">
<path style="fill-opacity: 1.0;stroke-width: 0.100000;stroke-opacity: 1;stroke-linecap: round;stroke-linejoin: round;fill-rule: evenodd" d="M 8117840.000000,5425440.000000 8117840.000000,5369560.000000 8168640.000000,5369560.000000 8168640.000000,5425440.000000 Z"/> 
<path style="fill-opacity: 1.0;stroke-width: 0.100000;stroke-opacity: 1;stroke-linecap: round;stroke-linejoin: round;fill-rule: evenodd" d="M 8011160.000000,5425440.000000 8011160.000000,5369560.000000 8061960.000000,5369560.000000 8061960.000000,5425440.000000 Z"/> 
</g>
<g style="fill-opacity: 1.0;stroke-width: 0.100000;stroke-opacity: 1;stroke-linecap: round;stroke-linejoin: round">
<path style="fill-opacity: 1.0;stroke-width: 0.100000;stroke-opacity: 1;stroke-linecap: round;stroke-linejoin: round;fill-rule: evenodd" d="M 7997190.000000,5345176.000000 7997190.000000,5285232.000000 8057134.000000,5285232.000000 8057134.000000,5345176.000000 Z"/> 
<path style="fill-opacity: 1.0;stroke-width: 0.100000;stroke-opacity: 1;stroke-linecap: round;stroke-linejoin: round;fill-rule: evenodd" d="M 8097266.000000,5345176.000000 8097266.000000,5285232.000000 8157210.000000,5285232.000000 8157210.000000,5345176.000000 Z"/> 
<path style="fill-opacity: 1.0;stroke-width: 0.100000;stroke-opacity: 1;stroke-linecap: round;stroke-linejoin: round;fill-rule: evenodd" d="M 8047228.000000,5204968.000000 8047228.000000,5145024.000000 8107172.000000,5145024.000000 8107172.000000,5204968.000000 Z"/> 
</g>
<g style="fill-opacity: 1.0;stroke-width: 0.100000;stroke-opacity: 1;stroke-linecap: round;stroke-linejoin: round">
<path style="fill-opacity: 1.0;stroke-width: 0.100000;stroke-opacity: 1;stroke-linecap: round;stroke-linejoin: round;fill-rule: evenodd" d="M 8011160.000000,5133340.000000 8011160.000000,5026660.000000 8117840.000000,5026660.000000 8117840.000000,5133340.000000 Z"/> 
<circle cx="8191500.000000" cy="5080000.000000" r="53340.000000"/> 
</g>
<g style="fill-opacity: 1.0;stroke-width: 0.100000;stroke-opacity: 1;stroke-linecap: round;stroke-linejoin: round">
<path style="fill-opacity: 1.0;stroke-width: 0.100000;stroke-opacity: 1;stroke-linecap: round;stroke-linejoin: round;fill-rule: evenodd" d="M 8244840.000000,5458460.000000 8244840.000000,5565140.000000 8138160.000000,5565140.000000 8138160.000000,5458460.000000 Z"/> 
<circle cx="8064500.000000" cy="5511800.000000" r="53340.000000"/> 
</g>
<g style="fill-opacity: 1.0;stroke-width: 0.100000;stroke-opacity: 1;stroke-linecap: round;stroke-linejoin: round">
<path style="fill-opacity: 1.0;stroke-width: 0.100000;stroke-opacity: 1;stroke-linecap: round;stroke-linejoin: round;fill-rule: evenodd" d="M 8188960.000000,5273040.000000 8244840.000000,5273040.000000 8244840.000000,5323840.000000 8188960.000000,5323840.000000 Z"/> 
<path style="fill-opacity: 1.0;stroke-width: 0.100000;stroke-opacity: 1;stroke-linecap: round;stroke-linejoin: round;fill-rule: evenodd" d="M 8188960.000000,5166360.000000 8244840.000000,5166360.000000 8244840.000000,5217160.000000 8188960.000000,5217160.000000 Z"/> 
<path style="fill-opacity: 1.0;stroke-width: 0.100000;stroke-opacity: 1;stroke-linecap: round;stroke-linejoin: round;fill-rule: evenodd" d="M 8204200.000000,5207000.000000 8229600.000000,5207000.000000 8229600.000000,5283200.000000 8204200.000000,5283200.000000 Z"/> 
</g>
<g style="fill-opacity: 0.0;stroke-width: 50800.000000;stroke-opacity: 1;stroke-linecap: round;stroke-linejoin: round">
<path d="M8077200 5174996 L8077200 5092700 "/>
<path d="M8077200 5092700 L8064500 5080000 "/>
<path d="M8036560 5397500 L8036560 5324602 "/>
<path d="M8036560 5324602 L8027162 5315204 "/>
<path d="M8036560 5397500 L8036560 5483860 "/>
<path d="M8036560 5483860 L8064500 5511800 "/>
<path d="M8143240 5397500 L8143240 5331206 "/>
<path d="M8143240 5331206 L8127238 5315204 "/>
<path d="M8127238 5315204 L8200136 5315204 "/>
<path d="M8200136 5315204 L8216900 5298440 "/>
<path d="M8216900 5191760 L8216900 5105400 "/>
<path d="M8216900 5105400 L8191500 5080000 "/>
</g>
</g> 
</g><g id="substrate-pads" style="fill:#b5ae30; stroke:#b5ae30;" mask="url(#pads-mask)"><g style="fill-opacity: 0.0;stroke-width: 0.000000;stroke-opacity: 1;stroke-linecap: round;stroke-linejoin: round">
<g style="fill-opacity: 1.0;stroke-width: 0.100000;stroke-opacity: 1;stroke-linecap: round;stroke-linejoin: round">
<path style="fill-opacity: 1.0;stroke-width: 0.100000;stroke-opacity: 1;stroke-linecap: round;stroke-linejoin: round;fill-rule: evenodd" d="M 8117840.000000,5425440.000000 8117840.000000,5369560.000000 8168640.000000,5369560.000000 8168640.000000,5425440.000000 Z"/> 
<path style="fill-opacity: 1.0;stroke-width: 0.100000;stroke-opacity: 1;stroke-linecap: round;stroke-linejoin: round;fill-rule: evenodd" d="M 8011160.000000,5425440.000000 8011160.000000,5369560.000000 8061960.000000,5369560.000000 8061960.000000,5425440.000000 Z"/> 
</g>
<g style="fill-opacity: 1.0;stroke-width: 0.100000;stroke-opacity: 1;stroke-linecap: round;stroke-linejoin: round">
<path style="fill-opacity: 1.0;stroke-width: 0.100000;stroke-opacity: 1;stroke-linecap: round;stroke-linejoin: round;fill-rule: evenodd" d="M 7997190.000000,5345176.000000 7997190.000000,5285232.000000 8057134.000000,5285232.000000 8057134.000000,5345176.000000 Z"/> 
<path style="fill-opacity: 1.0;stroke-width: 0.100000;stroke-opacity: 1;stroke-linecap: round;stroke-linejoin: round;fill-rule: evenodd" d="M 8097266.000000,5345176.000000 8097266.000000,5285232.000000 8157210.000000,5285232.000000 8157210.000000,5345176.000000 Z"/> 
<path style="fill-opacity: 1.0;stroke-width: 0.100000;stroke-opacity: 1;stroke-linecap: round;stroke-linejoin: round;fill-rule: evenodd" d="M 8047228.000000,5204968.000000 8047228.000000,5145024.000000 8107172.000000,5145024.000000 8107172.000000,5204968.000000 Z"/> 
</g>
<g style="fill-opacity: 1.0;stroke-width: 0.100000;stroke-opacity: 1;stroke-linecap: round;stroke-linejoin: round">
<path style="fill-opacity: 1.0;stroke-width: 0.100000;stroke-opacity: 1;stroke-linecap: round;stroke-linejoin: round;fill-rule: evenodd" d="M 8011160.000000,5133340.000000 8011160.000000,5026660.000000 8117840.000000,5026660.000000 8117840.000000,5133340.000000 Z"/> 
<circle cx="8191500.000000" cy="5080000.000000" r="53340.000000"/> 
</g>
<g style="fill-opacity: 1.0;stroke-width: 0.100000;stroke-opacity: 1;stroke-linecap: round;stroke-linejoin: round">
<path style="fill-opacity: 1.0;stroke-width: 0.100000;stroke-opacity: 1;stroke-linecap: round;stroke-linejoin: round;fill-rule: evenodd" d="M 8244840.000000,5458460.000000 8244840.000000,5565140.000000 8138160.000000,5565140.000000 8138160.000000,5458460.000000 Z"/> 
<circle cx="8064500.000000" cy="5511800.000000" r="53340.000000"/> 
</g>
<g style="fill-opacity: 1.0;stroke-width: 0.100000;stroke-opacity: 1;stroke-linecap: round;stroke-linejoin: round">
<path style="fill-opacity: 1.0;stroke-width: 0.100000;stroke-opacity: 1;stroke-linecap: round;stroke-linejoin: round;fill-rule: evenodd" d="M 8188960.000000,5273040.000000 8244840.000000,5273040.000000 8244840.000000,5323840.000000 8188960.000000,5323840.000000 Z"/> 
<path style="fill-opacity: 1.0;stroke-width: 0.100000;stroke-opacity: 1;stroke-linecap: round;stroke-linejoin: round;fill-rule: evenodd" d="M 8188960.000000,5166360.000000 8244840.000000,5166360.000000 8244840.000000,5217160.000000 8188960.000000,5217160.000000 Z"/> 
<path style="fill-opacity: 1.0;stroke-width: 0.100000;stroke-opacity: 1;stroke-linecap: round;stroke-linejoin: round;fill-rule: evenodd" d="M 8204200.000000,5207000.000000 8229600.000000,5207000.000000 8229600.000000,5283200.000000 8204200.000000,5283200.000000 Z"/> 
</g>
<g style="fill-opacity: 0.0;stroke-width: 50800.000000;stroke-opacity: 1;stroke-linecap: round;stroke-linejoin: round">
<path d="M8077200 5174996 L8077200 5092700 "/>
<path d="M8077200 5092700 L8064500 5080000 "/>
<path d="M8036560 5397500 L8036560 5324602 "/>
<path d="M8036560 5324602 L8027162 5315204 "/>
<path d="M8036560 5397500 L8036560 5483860 "/>
<path d="M8036560 5483860 L8064500 5511800 "/>
<path d="M8143240 5397500 L8143240 5331206 "/>
<path d="M8143240 5331206 L8127238 5315204 "/>
<path d="M8127238 5315204 L8200136 5315204 "/>
<path d="M8200136 5315204 L8216900 5298440 "/>
<path d="M8216900 5191760 L8216900 5105400 "/>
<path d="M8216900 5105400 L8191500 5080000 "/>
</g>
</g> 
</g><g id="substrate-silk" style="fill:#f0f0f0; stroke:#f0f0f0;" mask="url(#pads-mask-silkscreen)"><g style="fill-opacity: 0.0;stroke-width: 15240.000000;stroke-opacity: 1;stroke-linecap: round;stroke-linejoin: round">
<g transform="rotate(-270.000000 8382000.000000 5308600.000000)">
<text x="8382000.000000" y="5359400.000000" textLength="580571.500000" font-size="101600.000000" lengthAdjust="spacingAndGlyphs" text-anchor="middle" opacity="0">20140703</text>
</g>
<g class="stroked-text"><desc>20140703</desc>
<path d="M8427961 5032828 L8432800 5036457 L8437638 5043714 L8437638 5061857 L8432800 5069114 L8427961 5072742 L8418285 5076371 L8408609 5076371 L8394095 5072742 L8336038 5029200 L8336038 5076371 "/>
<path d="M8437638 5123542 L8437638 5130800 L8432800 5138057 L8427961 5141685 L8418285 5145314 L8398933 5148942 L8374742 5148942 L8355390 5145314 L8345714 5141685 L8340876 5138057 L8336038 5130800 L8336038 5123542 L8340876 5116285 L8345714 5112657 L8355390 5109028 L8374742 5105400 L8398933 5105400 L8418285 5109028 L8427961 5112657 L8432800 5116285 L8437638 5123542 "/>
<path d="M8336038 5221514 L8336038 5177971 "/>
<path d="M8336038 5199742 L8437638 5199742 L8423123 5192485 L8413447 5185228 L8408609 5177971 "/>
<path d="M8403771 5286828 L8336038 5286828 "/>
<path d="M8442476 5268685 L8369904 5250542 L8369904 5297714 "/>
<path d="M8437638 5341257 L8437638 5348514 L8432800 5355771 L8427961 5359400 L8418285 5363028 L8398933 5366657 L8374742 5366657 L8355390 5363028 L8345714 5359400 L8340876 5355771 L8336038 5348514 L8336038 5341257 L8340876 5334000 L8345714 5330371 L8355390 5326742 L8374742 5323114 L8398933 5323114 L8418285 5326742 L8427961 5330371 L8432800 5334000 L8437638 5341257 "/>
<path d="M8437638 5392057 L8437638 5442857 L8336038 5410200 "/>
<path d="M8437638 5486400 L8437638 5493657 L8432800 5500914 L8427961 5504542 L8418285 5508171 L8398933 5511800 L8374742 5511800 L8355390 5508171 L8345714 5504542 L8340876 5500914 L8336038 5493657 L8336038 5486400 L8340876 5479142 L8345714 5475514 L8355390 5471885 L8374742 5468257 L8398933 5468257 L8418285 5471885 L8427961 5475514 L8432800 5479142 L8437638 5486400 "/>
<path d="M8437638 5537200 L8437638 5584371 L8398933 5558971 L8398933 5569857 L8394095 5577114 L8389257 5580742 L8379580 5584371 L8355390 5584371 L8345714 5580742 L8340876 5577114 L8336038 5569857 L8336038 5548085 L8340876 5540828 L8345714 5537200 "/>
</g></g>
<g style="fill-opacity: 0.0;stroke-width: 12700.000000;stroke-opacity: 1;stroke-linecap: round;stroke-linejoin: round">
<g transform="rotate(-270.000000 8521700.000000 5308600.000000)">
<text x="8521700.000000" y="5346700.000000" textLength="609092.000000" font-size="81280.000000" lengthAdjust="spacingAndGlyphs" text-anchor="middle" opacity="0">CONGAFLOCK</text>
</g>
<g class="stroked-text"><desc>CONGAFLOCK</desc>
<path d="M8494485 5063308 L8490857 5060405 L8487228 5051697 L8487228 5045891 L8490857 5037182 L8498114 5031377 L8505371 5028474 L8519885 5025571 L8530771 5025571 L8545285 5028474 L8552542 5031377 L8559800 5037182 L8563428 5045891 L8563428 5051697 L8559800 5060405 L8556171 5063308 "/>
<path d="M8563428 5101045 L8563428 5112657 L8559800 5118462 L8552542 5124268 L8538028 5127171 L8512628 5127171 L8498114 5124268 L8490857 5118462 L8487228 5112657 L8487228 5101045 L8490857 5095240 L8498114 5089434 L8512628 5086531 L8538028 5086531 L8552542 5089434 L8559800 5095240 L8563428 5101045 "/>
<path d="M8487228 5153297 L8563428 5153297 L8487228 5188131 L8563428 5188131 "/>
<path d="M8559800 5249091 L8563428 5243285 L8563428 5234577 L8559800 5225868 L8552542 5220062 L8545285 5217160 L8530771 5214257 L8519885 5214257 L8505371 5217160 L8498114 5220062 L8490857 5225868 L8487228 5234577 L8487228 5240382 L8490857 5249091 L8494485 5251994 L8519885 5251994 L8519885 5240382 "/>
<path d="M8509000 5275217 L8509000 5304245 "/>
<path d="M8487228 5269411 L8563428 5289731 L8487228 5310051 "/>
<path d="M8527142 5350691 L8527142 5330371 "/>
<path d="M8487228 5330371 L8563428 5330371 L8563428 5359400 "/>
<path d="M8487228 5411651 L8487228 5382622 L8563428 5382622 "/>
<path d="M8563428 5443582 L8563428 5455194 L8559800 5461000 L8552542 5466805 L8538028 5469708 L8512628 5469708 L8498114 5466805 L8490857 5461000 L8487228 5455194 L8487228 5443582 L8490857 5437777 L8498114 5431971 L8512628 5429068 L8538028 5429068 L8552542 5431971 L8559800 5437777 L8563428 5443582 "/>
<path d="M8494485 5530668 L8490857 5527765 L8487228 5519057 L8487228 5513251 L8490857 5504542 L8498114 5498737 L8505371 5495834 L8519885 5492931 L8530771 5492931 L8545285 5495834 L8552542 5498737 L8559800 5504542 L8563428 5513251 L8563428 5519057 L8559800 5527765 L8556171 5530668 "/>
<path d="M8487228 5556794 L8563428 5556794 "/>
<path d="M8487228 5591628 L8530771 5565502 "/>
<path d="M8563428 5591628 L8519885 5556794 "/>
</g></g>
<g style="fill-opacity: 0.0;stroke-width: 10160.000000;stroke-opacity: 1;stroke-linecap: round;stroke-linejoin: round">
<text x="8089900.000000" y="5422900.000000" textLength="95854.800000" font-size="54186.600000" lengthAdjust="spacingAndGlyphs" text-anchor="middle" opacity="0">R2</text>
<g class="stroked-text"><desc>R2</desc>
<path d="M8083126 5420964 L8069580 5401612 "/>
<path d="M8059903 5420964 L8059903 5380324 L8075385 5380324 L8079256 5382260 L8081191 5384195 L8083126 5388065 L8083126 5393871 L8081191 5397741 L8079256 5399677 L8075385 5401612 L8059903 5401612 "/>
<path d="M8098608 5384195 L8100543 5382260 L8104414 5380324 L8114090 5380324 L8117960 5382260 L8119896 5384195 L8121831 5388065 L8121831 5391936 L8119896 5397741 L8096673 5420964 L8121831 5420964 "/>
</g></g>
<g style="fill-opacity: 0.0;stroke-width: 9525.000000;stroke-opacity: 1;stroke-linecap: round;stroke-linejoin: round">
<text x="8077200.000000" y="5264150.000000" textLength="89408.000000" font-size="50800.000000" lengthAdjust="spacingAndGlyphs" text-anchor="middle" opacity="0">Q1</text>
<g class="stroked-text"><desc>Q1</desc>
<path d="M8073571 5265964 L8069942 5264150 L8066314 5260521 L8060871 5255078 L8057242 5253264 L8053614 5253264 "/>
<path d="M8055428 5262335 L8051800 5260521 L8048171 5256892 L8046357 5249635 L8046357 5236935 L8048171 5229678 L8051800 5226050 L8055428 5224235 L8062685 5224235 L8066314 5226050 L8069942 5229678 L8071757 5236935 L8071757 5249635 L8069942 5256892 L8066314 5260521 L8062685 5262335 L8055428 5262335 "/>
<path d="M8108042 5262335 L8086271 5262335 "/>
<path d="M8097157 5262335 L8097157 5224235 L8093528 5229678 L8089900 5233307 L8086271 5235121 "/>
</g></g>
<g style="fill-opacity: 0.0;stroke-width: 20320.000000;stroke-opacity: 1;stroke-linecap: round;stroke-linejoin: round">
<text x="8128000.000000" y="5130038.000000" textLength="207769.000000" font-size="133434.600000" lengthAdjust="spacingAndGlyphs" text-anchor="middle" opacity="0">P2</text>
<g class="stroked-text"><desc>P2</desc>
<path d="M8054134 5125272 L8054134 5025196 L8092258 5025196 L8101789 5029962 L8106555 5034727 L8111320 5044258 L8111320 5058555 L8106555 5068086 L8101789 5072851 L8092258 5077617 L8054134 5077617 "/>
<path d="M8149444 5034727 L8154210 5029962 L8163741 5025196 L8187569 5025196 L8197100 5029962 L8201865 5034727 L8206631 5044258 L8206631 5053789 L8201865 5068086 L8144679 5125272 L8206631 5125272 "/>
</g><text x="8129000.000000" y="5578038.000000" textLength="221802.500000" font-size="133434.600000" lengthAdjust="spacingAndGlyphs" text-anchor="middle" opacity="0">P1</text>
<g class="stroked-text"><desc>P1</desc>
<path d="M8055134 5573272 L8055134 5473196 L8093258 5473196 L8102789 5477962 L8107555 5482727 L8112320 5492258 L8112320 5506555 L8107555 5516086 L8102789 5520851 L8093258 5525617 L8055134 5525617 "/>
<path d="M8207631 5573272 L8150444 5573272 "/>
<path d="M8179038 5573272 L8179038 5473196 L8169506 5487493 L8159975 5497024 L8150444 5501789 "/>
</g></g>
<g style="fill-opacity: 0.0;stroke-width: 10160.000000;stroke-opacity: 1;stroke-linecap: round;stroke-linejoin: round">
<g transform="rotate(-90.000000 8211820.000000 5245100.000000)">
<text x="8211820.000000" y="5265420.000000" textLength="105760.800000" font-size="54186.600000" lengthAdjust="spacingAndGlyphs" text-anchor="middle" opacity="0">R3</text>
</g>
<g class="stroked-text"><desc>R3</desc>
<path d="M8230204 5251873 L8210852 5265420 "/>
<path d="M8230204 5275096 L8189564 5275096 L8189564 5259614 L8191500 5255743 L8193435 5253808 L8197305 5251873 L8203111 5251873 L8206981 5253808 L8208917 5255743 L8210852 5259614 L8210852 5275096 "/>
<path d="M8189564 5238326 L8189564 5213168 L8205046 5226715 L8205046 5220909 L8206981 5217039 L8208917 5215103 L8212787 5213168 L8222463 5213168 L8226334 5215103 L8228269 5217039 L8230204 5220909 L8230204 5232520 L8228269 5236391 L8226334 5238326 "/>
</g></g>
<g style="fill-opacity: 0.0;stroke-width: 20320.000000;stroke-opacity: 1;stroke-linecap: round;stroke-linejoin: round">
<path d="M8001000 5359400 L8178800 5359400 "/>
<path d="M8001000 5435600 L8001000 5359400 "/>
<path d="M8178800 5435600 L8001000 5435600 "/>
<path d="M8178800 5359400 L8178800 5435600 "/>
<path d="M8157210 5284978 L8157210 5205222 "/>
<path d="M7997190 5284978 L8157210 5284978 "/>
<path d="M7997190 5205222 L7997190 5284978 "/>
<path d="M8157210 5205222 L7997190 5205222 "/>
<path d="M8255000 5156200 L8255000 5334000 "/>
<path d="M8178800 5156200 L8255000 5156200 "/>
<path d="M8178800 5334000 L8178800 5156200 "/>
<path d="M8255000 5334000 L8178800 5334000 "/>
</g> 
</g><g id="substrate-outline" style="fill:#000000; stroke:#000000; stroke-width: 15000.0"><g style="fill-opacity: 0.0;stroke-opacity: 1;stroke-linecap: round;stroke-linejoin: round">
<path d="M8610600 5626100 L7975600 5626100 "/>
<path d="M8610600 4991100 L8610600 5626100 "/>
<path d="M7975600 4991100 L7975600 5626100 "/>
<path d="M8610600 4991100 L7975600 4991100 "/>
</g> 
<path d="M -35560.0 0.0 A 35560.0 35560.0 0 1 1 35560.0 0.0 L 35560.0 -0.0 A 35560.0 35560.0 0 1 1 -35560.0 -0.0 Z" transform="translate(8064500.0 5080000.0) rotate(-0.0)"/><path d="M -35560.0 0.0 A 35560.0 35560.0 0 1 1 35560.0 0.0 L 35560.0 -0.0 A 35560.0 35560.0 0 1 1 -35560.0 -0.0 Z" transform="translate(8191500.0 5080000.0) rotate(-0.0)"/><path d="M -35560.0 0.0 A 35560.0 35560.0 0 1 1 35560.0 0.0 L 35560.0 -0.0 A 35560.0 35560.0 0 1 1 -35560.0 -0.0 Z" transform="translate(8191500.0 5511800.0) rotate(-180.0)"/><path d="M -35560.0 0.0 A 35560.0 35560.0 0 1 1 35560.0 0.0 L 35560.0 -0.0 A 35560.0 35560.0 0 1 1 -35560.0 -0.0 Z" transform="translate(8064500.0 5511800.0) rotate(-180.0)"/></g></g></g></svg>