<!DOCTYPE svg PUBLIC "-//W3C//DTD SVG 1.1//EN" "http://www.w3.org/Graphics/SVG/1.1/DTD/svg11.dtd">
<svg xmlns="http://www.w3.org/2000/svg" version="1.1" width="33.75mm" height="33.75mm" viewBox="7520000.0 7520000.0 3375000.0 3375000.0">
            <title>Picture generated by PcbDraw </title>
            <desc>Picture generated by PcbDraw</desc>
        <defs><clipPath id="cut-off"><path d=" M 7620000.0 7620000.0 L 10795000.0 7620000.0 L 10795000.0 10795000.0 L 7620000.0 10795000.0 L 7620000.0 7620000.0 " style="fill-rule: evenodd;"/></clipPath><mask id="pads-mask"><g style="fill:#ffffff; fill-opacity:0.0;  stroke:#ffffff; stroke-width:0.000000; stroke-opacity:1;  stroke-linecap:round; stroke-linejoin:round;">
<g style="fill:#ffffff; fill-opacity:1.0;  stroke:#ffffff; stroke-width:0.100000; stroke-opacity:1;  stroke-linecap:round; stroke-linejoin:round;">
<path style="fill:#ffffff; fill-opacity:1.0;  stroke:#ffffff; stroke-width:0.100000; stroke-opacity:1;  stroke-linecap:round; stroke-linejoin:round;fill-rule:evenodd;" d="M 10380980.000000,9408160.000000 10381753.400000,9404271.900000 10383955.800000,9400975.800000 10387251.900000,9398773.400000 10391140.000000,9398000.000000 10441940.000000,9398000.000000 10445828.100000,9398773.400000 10449124.200000,9400975.800000 10451326.600000,9404271.900000 10452100.000000,9408160.000000 10452100.000000,9464040.000000 10451326.600000,9467928.100000 10449124.200000,9471224.200000 10445828.100000,9473426.600000 10441940.000000,9474200.000000 10391140.000000,9474200.000000 10387251.900000,9473426.600000 10383955.800000,9471224.200000 10381753.400000,9467928.100000 10380980.000000,9464040.000000 Z"/> 
<path style="fill:#ffffff; fill-opacity:1.0;  stroke:#ffffff; stroke-width:0.100000; stroke-opacity:1;  stroke-linecap:round; stroke-linejoin:round;fill-rule:evenodd;" d="M 10274300.000000,9408160.000000 10275073.400000,9404271.900000 10277275.800000,9400975.800000 10280571.900000,9398773.400000 10284460.000000,9398000.000000 10335260.000000,9398000.000000 10339148.100000,9398773.400000 10342444.200000,9400975.800000 10344646.600000,9404271.900000 10345420.000000,9408160.000000 10345420.000000,9464040.000000 10344646.600000,9467928.100000 10342444.200000,9471224.200000 10339148.100000,9473426.600000 10335260.000000,9474200.000000 10284460.000000,9474200.000000 10280571.900000,9473426.600000 10277275.800000,9471224.200000 10275073.400000,9467928.100000 10274300.000000,9464040.000000 Z"/> 
</g>
<g style="fill:#ffffff; fill-opacity:1.0;  stroke:#ffffff; stroke-width:0.100000; stroke-opacity:1;  stroke-linecap:round; stroke-linejoin:round;">
<path style="fill:#ffffff; fill-opacity:1.0;  stroke:#ffffff; stroke-width:0.100000; stroke-opacity:1;  stroke-linecap:round; stroke-linejoin:round;fill-rule:evenodd;" d="M 10746740.000000,9070340.000000 10749656.000000,9070920.000000 10752128.200000,9072571.800000 10753780.000000,9075044.000000 10754360.000000,9077960.000000 10754360.000000,9184640.000000 10753780.000000,9187556.000000 10752128.200000,9190028.200000 10749656.000000,9191680.000000 10746740.000000,9192260.000000 10640060.000000,9192260.000000 10637144.000000,9191680.000000 10634671.800000,9190028.200000 10633020.000000,9187556.000000 10632440.000000,9184640.000000 10632440.000000,9077960.000000 10633020.000000,9075044.000000 10634671.800000,9072571.800000 10637144.000000,9070920.000000 10640060.000000,9070340.000000 Z"/> 
<circle cx="10693400.000000" cy="9258300.000000" r="60960.000000"/> 
</g>
<g style="fill:#ffffff; fill-opacity:1.0;  stroke:#ffffff; stroke-width:0.100000; stroke-opacity:1;  stroke-linecap:round; stroke-linejoin:round;">
<path style="fill:#ffffff; fill-opacity:1.0;  stroke:#ffffff; stroke-width:0.100000; stroke-opacity:1;  stroke-linecap:round; stroke-linejoin:round;fill-rule:evenodd;" d="M 10319480.000000,9259800.000000 10320060.000000,9256884.000000 10321711.800000,9254411.800000 10324184.000000,9252760.000000 10327100.000000,9252180.000000 10427100.000000,9252180.000000 10430016.000000,9252760.000000 10432488.200000,9254411.800000 10434140.000000,9256884.000000 10434720.000000,9259800.000000 10434720.000000,9329800.000000 10434140.000000,9332716.000000 10432488.200000,9335188.200000 10430016.000000,9336840.000000 10427100.000000,9337420.000000 10327100.000000,9337420.000000 10324184.000000,9336840.000000 10321711.800000,9335188.200000 10320060.000000,9332716.000000 10319480.000000,9329800.000000 Z"/> 
<path style="fill:#ffffff; fill-opacity:1.0;  stroke:#ffffff; stroke-width:0.100000; stroke-opacity:1;  stroke-linecap:round; stroke-linejoin:round;fill-rule:evenodd;" d="M 10509480.000000,9259800.000000 10510060.000000,9256884.000000 10511711.800000,9254411.800000 10514184.000000,9252760.000000 10517100.000000,9252180.000000 10577100.000000,9252180.000000 10580016.000000,9252760.000000 10582488.200000,9254411.800000 10584140.000000,9256884.000000 10584720.000000,9259800.000000 10584720.000000,9329800.000000 10584140.000000,9332716.000000 10582488.200000,9335188.200000 10580016.000000,9336840.000000 10577100.000000,9337420.000000 10517100.000000,9337420.000000 10514184.000000,9336840.000000 10511711.800000,9335188.200000 10510060.000000,9332716.000000 10509480.000000,9329800.000000 Z"/> 
<path style="fill:#ffffff; fill-opacity:1.0;  stroke:#ffffff; stroke-width:0.100000; stroke-opacity:1;  stroke-linecap:round; stroke-linejoin:round;fill-rule:evenodd;" d="M 10509480.000000,9059800.000000 10510060.000000,9056884.000000 10511711.800000,9054411.800000 10514184.000000,9052760.000000 10517100.000000,9052180.000000 10577100.000000,9052180.000000 10580016.000000,9052760.000000 10582488.200000,9054411.800000 10584140.000000,9056884.000000 10584720.000000,9059800.000000 10584720.000000,9129800.000000 10584140.000000,9132716.000000 10582488.200000,9135188.200000 10580016.000000,9136840.000000 10577100.000000,9137420.000000 10517100.000000,9137420.000000 10514184.000000,9136840.000000 10511711.800000,9135188.200000 10510060.000000,9132716.000000 10509480.000000,9129800.000000 Z"/> 
<path style="fill:#ffffff; fill-opacity:1.0;  stroke:#ffffff; stroke-width:0.100000; stroke-opacity:1;  stroke-linecap:round; stroke-linejoin:round;fill-rule:evenodd;" d="M 10319480.000000,9059800.000000 10320060.000000,9056884.000000 10321711.800000,9054411.800000 10324184.000000,9052760.000000 10327100.000000,9052180.000000 10387100.000000,9052180.000000 10390016.000000,9052760.000000 10392488.200000,9054411.800000 10394140.000000,9056884.000000 10394720.000000,9059800.000000 10394720.000000,9129800.000000 10394140.000000,9132716.000000 10392488.200000,9135188.200000 10390016.000000,9136840.000000 10387100.000000,9137420.000000 10327100.000000,9137420.000000 10324184.000000,9136840.000000 10321711.800000,9135188.200000 10320060.000000,9132716.000000 10319480.000000,9129800.000000 Z"/> 
</g>
<g style="fill:#ffffff; fill-opacity:1.0;  stroke:#ffffff; stroke-width:0.100000; stroke-opacity:1;  stroke-linecap:round; stroke-linejoin:round;">
<circle cx="8849600.000000" cy="8182600.000000" r="182620.000000"/> 
</g>
<g style="fill:#ffffff; fill-opacity:1.0;  stroke:#ffffff; stroke-width:0.100000; stroke-opacity:1;  stroke-linecap:round; stroke-linejoin:round;">
<circle cx="9499600.000000" cy="8102600.000000" r="182620.000000"/> 
</g>
<g style="fill:#ffffff; fill-opacity:1.0;  stroke:#ffffff; stroke-width:0.100000; stroke-opacity:1;  stroke-linecap:round; stroke-linejoin:round;">
<circle cx="10149600.000000" cy="8182600.000000" r="182620.000000"/> 
</g>
<g style="fill:#ffffff; fill-opacity:1.0;  stroke:#ffffff; stroke-width:0.100000; stroke-opacity:1;  stroke-linecap:round; stroke-linejoin:round;">
<circle cx="9840100.000000" cy="8482600.000000" r="82620.000000"/> 
</g>
<g style="fill:#ffffff; fill-opacity:1.0;  stroke:#ffffff; stroke-width:0.100000; stroke-opacity:1;  stroke-linecap:round; stroke-linejoin:round;">
<circle cx="9159100.000000" cy="8732600.000000" r="82620.000000"/> 
</g>
<g style="fill:#ffffff; fill-opacity:1.0;  stroke:#ffffff; stroke-width:0.100000; stroke-opacity:1;  stroke-linecap:round; stroke-linejoin:round;">
<circle cx="9840100.000000" cy="8732600.000000" r="82620.000000"/> 
</g>
<g style="fill:#ffffff; fill-opacity:1.0;  stroke:#ffffff; stroke-width:0.100000; stroke-opacity:1;  stroke-linecap:round; stroke-linejoin:round;">
<circle cx="9370100.000000" cy="8482600.000000" r="82620.000000"/> 
</g>
<g style="fill:#ffffff; fill-opacity:1.0;  stroke:#ffffff; stroke-width:0.100000; stroke-opacity:1;  stroke-linecap:round; stroke-linejoin:round;">
<circle cx="9629100.000000" cy="8482600.000000" r="82620.000000"/> 
</g>
<g style="fill:#ffffff; fill-opacity:1.0;  stroke:#ffffff; stroke-width:0.100000; stroke-opacity:1;  stroke-linecap:round; stroke-linejoin:round;">
<circle cx="9159100.000000" cy="8482600.000000" r="82620.000000"/> 
</g>
<g style="fill:#ffffff; fill-opacity:1.0;  stroke:#ffffff; stroke-width:0.100000; stroke-opacity:1;  stroke-linecap:round; stroke-linejoin:round;">
<circle cx="8849600.000000" cy="10232400.000000" r="182620.000000"/> 
</g>
<g style="fill:#ffffff; fill-opacity:1.0;  stroke:#ffffff; stroke-width:0.100000; stroke-opacity:1;  stroke-linecap:round; stroke-linejoin:round;">
<circle cx="9499600.000000" cy="10312400.000000" r="182620.000000"/> 
</g>
<g style="fill:#ffffff; fill-opacity:1.0;  stroke:#ffffff; stroke-width:0.100000; stroke-opacity:1;  stroke-linecap:round; stroke-linejoin:round;">
<circle cx="10149600.000000" cy="10232400.000000" r="182620.000000"/> 
</g>
<g style="fill:#ffffff; fill-opacity:1.0;  stroke:#ffffff; stroke-width:0.100000; stroke-opacity:1;  stroke-linecap:round; stroke-linejoin:round;">
<circle cx="9840100.000000" cy="9932400.000000" r="82620.000000"/> 
</g>
<g style="fill:#ffffff; fill-opacity:1.0;  stroke:#ffffff; stroke-width:0.100000; stroke-opacity:1;  stroke-linecap:round; stroke-linejoin:round;">
<circle cx="9159100.000000" cy="9682400.000000" r="82620.000000"/> 
</g>
<g style="fill:#ffffff; fill-opacity:1.0;  stroke:#ffffff; stroke-width:0.100000; stroke-opacity:1;  stroke-linecap:round; stroke-linejoin:round;">
<circle cx="9840100.000000" cy="9682400.000000" r="82620.000000"/> 
</g>
<g style="fill:#ffffff; fill-opacity:1.0;  stroke:#ffffff; stroke-width:0.100000; stroke-opacity:1;  stroke-linecap:round; stroke-linejoin:round;">
<circle cx="9370100.000000" cy="9932400.000000" r="82620.000000"/> 
</g>
<g style="fill:#ffffff; fill-opacity:1.0;  stroke:#ffffff; stroke-width:0.100000; stroke-opacity:1;  stroke-linecap:round; stroke-linejoin:round;">
<circle cx="9629100.000000" cy="9932400.000000" r="82620.000000"/> 
</g>
<g style="fill:#ffffff; fill-opacity:1.0;  stroke:#ffffff; stroke-width:0.100000; stroke-opacity:1;  stroke-linecap:round; stroke-linejoin:round;">
<circle cx="9159100.000000" cy="9932400.000000" r="82620.000000"/> 
</g>
</g> 
</mask><mask id="pads-mask-silkscreen"><rect x="7612500.0" y="7612500.0" width="3190000.0" height="3190000.0" fill="white"/><g style="fill:#000000; fill-opacity:0.0;  stroke:#000000; stroke-width:0.000000; stroke-opacity:1;  stroke-linecap:round; stroke-linejoin:round;">
<g style="fill:#000000; fill-opacity:1.0;  stroke:#000000; stroke-width:0.100000; stroke-opacity:1;  stroke-linecap:round; stroke-linejoin:round;">
<path style="fill:#000000; fill-opacity:1.0;  stroke:#000000; stroke-width:0.100000; stroke-opacity:1;  stroke-linecap:round; stroke-linejoin:round;fill-rule:evenodd;" d="M 10380980.000000,9408160.000000 10381753.400000,9404271.900000 10383955.800000,9400975.800000 10387251.900000,9398773.400000 10391140.000000,9398000.000000 10441940.000000,9398000.000000 10445828.100000,9398773.400000 10449124.200000,9400975.800000 10451326.600000,9404271.900000 10452100.000000,9408160.000000 10452100.000000,9464040.000000 10451326.600000,9467928.100000 10449124.200000,9471224.200000 10445828.100000,9473426.600000 10441940.000000,9474200.000000 10391140.000000,9474200.000000 10387251.900000,9473426.600000 10383955.800000,9471224.200000 10381753.400000,9467928.100000 10380980.000000,9464040.000000 Z"/> 
<path style="fill:#000000; fill-opacity:1.0;  stroke:#000000; stroke-width:0.100000; stroke-opacity:1;  stroke-linecap:round; stroke-linejoin:round;fill-rule:evenodd;" d="M 10274300.000000,9408160.000000 10275073.400000,9404271.900000 10277275.800000,9400975.800000 10280571.900000,9398773.400000 10284460.000000,9398000.000000 10335260.000000,9398000.000000 10339148.100000,9398773.400000 10342444.200000,9400975.800000 10344646.600000,9404271.900000 10345420.000000,9408160.000000 10345420.000000,9464040.000000 10344646.600000,9467928.100000 10342444.200000,9471224.200000 10339148.100000,9473426.600000 10335260.000000,9474200.000000 10284460.000000,9474200.000000 10280571.900000,9473426.600000 10277275.800000,9471224.200000 10275073.400000,9467928.100000 10274300.000000,9464040.000000 Z"/> 
</g>
<g style="fill:#000000; fill-opacity:1.0;  stroke:#000000; stroke-width:0.100000; stroke-opacity:1;  stroke-linecap:round; stroke-linejoin:round;">
<path style="fill:#000000; fill-opacity:1.0;  stroke:#000000; stroke-width:0.100000; stroke-opacity:1;  stroke-linecap:round; stroke-linejoin:round;fill-rule:evenodd;" d="M 10746740.000000,9070340.000000 10749656.000000,9070920.000000 10752128.200000,9072571.800000 10753780.000000,9075044.000000 10754360.000000,9077960.000000 10754360.000000,9184640.000000 10753780.000000,9187556.000000 10752128.200000,9190028.200000 10749656.000000,9191680.000000 10746740.000000,9192260.000000 10640060.000000,9192260.000000 10637144.000000,9191680.000000 10634671.800000,9190028.200000 10633020.000000,9187556.000000 10632440.000000,9184640.000000 10632440.000000,9077960.000000 10633020.000000,9075044.000000 10634671.800000,9072571.800000 10637144.000000,9070920.000000 10640060.000000,9070340.000000 Z"/> 
<circle cx="10693400.000000" cy="9258300.000000" r="60960.000000"/> 
</g>
<g style="fill:#000000; fill-opacity:1.0;  stroke:#000000; stroke-width:0.100000; stroke-opacity:1;  stroke-linecap:round; stroke-linejoin:round;">
<path style="fill:#000000; fill-opacity:1.0;  stroke:#000000; stroke-width:0.100000; stroke-opacity:1;  stroke-linecap:round; stroke-linejoin:round;fill-rule:evenodd;" d="M 10319480.000000,9259800.000000 10320060.000000,9256884.000000 10321711.800000,9254411.800000 10324184.000000,9252760.000000 10327100.000000,9252180.000000 10427100.000000,9252180.000000 10430016.000000,9252760.000000 10432488.200000,9254411.800000 10434140.000000,9256884.000000 10434720.000000,9259800.000000 10434720.000000,9329800.000000 10434140.000000,9332716.000000 10432488.200000,9335188.200000 10430016.000000,9336840.000000 10427100.000000,9337420.000000 10327100.000000,9337420.000000 10324184.000000,9336840.000000 10321711.800000,9335188.200000 10320060.000000,9332716.000000 10319480.000000,9329800.000000 Z"/> 
<path style="fill:#000000; fill-opacity:1.0;  stroke:#000000; stroke-width:0.100000; stroke-opacity:1;  stroke-linecap:round; stroke-linejoin:round;fill-rule:evenodd;" d="M 10509480.000000,9259800.000000 10510060.000000,9256884.000000 10511711.800000,9254411.800000 10514184.000000,9252760.000000 10517100.000000,9252180.000000 10577100.000000,9252180.000000 10580016.000000,9252760.000000 10582488.200000,9254411.800000 10584140.000000,9256884.000000 10584720.000000,9259800.000000 10584720.000000,9329800.000000 10584140.000000,9332716.000000 10582488.200000,9335188.200000 10580016.000000,9336840.000000 10577100.000000,9337420.000000 10517100.000000,9337420.000000 10514184.000000,9336840.000000 10511711.800000,9335188.200000 10510060.000000,9332716.000000 10509480.000000,9329800.000000 Z"/> 
<path style="fill:#000000; fill-opacity:1.0;  stroke:#000000; stroke-width:0.100000; stroke-opacity:1;  stroke-linecap:round; stroke-linejoin:round;fill-rule:evenodd;" d="M 10509480.000000,9059800.000000 10510060.000000,9056884.000000 10511711.800000,9054411.800000 10514184.000000,9052760.000000 10517100.000000,9052180.000000 10577100.000000,9052180.000000 10580016.000000,9052760.000000 10582488.200000,9054411.800000 10584140.000000,9056884.000000 10584720.000000,9059800.000000 10584720.000000,9129800.000000 10584140.000000,9132716.000000 10582488.200000,9135188.200000 10580016.000000,9136840.000000 10577100.000000,9137420.000000 10517100.000000,9137420.000000 10514184.000000,9136840.000000 10511711.800000,9135188.200000 10510060.000000,9132716.000000 10509480.000000,9129800.000000 Z"/> 
<path style="fill:#000000; fill-opacity:1.0;  stroke:#000000; stroke-width:0.100000; stroke-opacity:1;  stroke-linecap:round; stroke-linejoin:round;fill-rule:evenodd;" d="M 10319480.000000,9059800.000000 10320060.000000,9056884.000000 10321711.800000,9054411.800000 10324184.000000,9052760.000000 10327100.000000,9052180.000000 10387100.000000,9052180.000000 10390016.000000,9052760.000000 10392488.200000,9054411.800000 10394140.000000,9056884.000000 10394720.000000,9059800.000000 10394720.000000,9129800.000000 10394140.000000,9132716.000000 10392488.200000,9135188.200000 10390016.000000,9136840.000000 10387100.000000,9137420.000000 10327100.000000,9137420.000000 10324184.000000,9136840.000000 10321711.800000,9135188.200000 10320060.000000,9132716.000000 10319480.000000,9129800.000000 Z"/> 
</g>
<g style="fill:#000000; fill-opacity:1.0;  stroke:#000000; stroke-width:0.100000; stroke-opacity:1;  stroke-linecap:round; stroke-linejoin:round;">
<circle cx="8849600.000000" cy="8182600.000000" r="182620.000000"/> 
</g>
<g style="fill:#000000; fill-opacity:1.0;  stroke:#000000; stroke-width:0.100000; stroke-opacity:1;  stroke-linecap:round; stroke-linejoin:round;">
<circle cx="9499600.000000" cy="8102600.000000" r="182620.000000"/> 
</g>
<g style="fill:#000000; fill-opacity:1.0;  stroke:#000000; stroke-width:0.100000; stroke-opacity:1;  stroke-linecap:round; stroke-linejoin:round;">
<circle cx="10149600.000000" cy="8182600.000000" r="182620.000000"/> 
</g>
<g style="fill:#000000; fill-opacity:1.0;  stroke:#000000; stroke-width:0.100000; stroke-opacity:1;  stroke-linecap:round; stroke-linejoin:round;">
<circle cx="9840100.000000" cy="8482600.000000" r="82620.000000"/> 
</g>
<g style="fill:#000000; fill-opacity:1.0;  stroke:#000000; stroke-width:0.100000; stroke-opacity:1;  stroke-linecap:round; stroke-linejoin:round;">
<circle cx="9159100.000000" cy="8732600.000000" r="82620.000000"/> 
</g>
<g style="fill:#000000; fill-opacity:1.0;  stroke:#000000; stroke-width:0.100000; stroke-opacity:1;  stroke-linecap:round; stroke-linejoin:round;">
<circle cx="9840100.000000" cy="8732600.000000" r="82620.000000"/> 
</g>
<g style="fill:#000000; fill-opacity:1.0;  stroke:#000000; stroke-width:0.100000; stroke-opacity:1;  stroke-linecap:round; stroke-linejoin:round;">
<circle cx="9370100.000000" cy="8482600.000000" r="82620.000000"/> 
</g>
<g style="fill:#000000; fill-opacity:1.0;  stroke:#000000; stroke-width:0.100000; stroke-opacity:1;  stroke-linecap:round; stroke-linejoin:round;">
<circle cx="9629100.000000" cy="8482600.000000" r="82620.000000"/> 
</g>
<g style="fill:#000000; fill-opacity:1.0;  stroke:#000000; stroke-width:0.100000; stroke-opacity:1;  stroke-linecap:round; stroke-linejoin:round;">
<circle cx="9159100.000000" cy="8482600.000000" r="82620.000000"/> 
</g>
<g style="fill:#000000; fill-opacity:1.0;  stroke:#000000; stroke-width:0.100000; stroke-opacity:1;  stroke-linecap:round; stroke-linejoin:round;">
<circle cx="8849600.000000" cy="10232400.000000" r="182620.000000"/> 
</g>
<g style="fill:#000000; fill-opacity:1.0;  stroke:#000000; stroke-width:0.100000; stroke-opacity:1;  stroke-linecap:round; stroke-linejoin:round;">
<circle cx="9499600.000000" cy="10312400.000000" r="182620.000000"/> 
</g>
<g style="fill:#000000; fill-opacity:1.0;  stroke:#000000; stroke-width:0.100000; stroke-opacity:1;  stroke-linecap:round; stroke-linejoin:round;">
<circle cx="10149600.000000" cy="10232400.000000" r="182620.000000"/> 
</g>
<g style="fill:#000000; fill-opacity:1.0;  stroke:#000000; stroke-width:0.100000; stroke-opacity:1;  stroke-linecap:round; stroke-linejoin:round;">
<circle cx="9840100.000000" cy="9932400.000000" r="82620.000000"/> 
</g>
<g style="fill:#000000; fill-opacity:1.0;  stroke:#000000; stroke-width:0.100000; stroke-opacity:1;  stroke-linecap:round; stroke-linejoin:round;">
<circle cx="9159100.000000" cy="9682400.000000" r="82620.000000"/> 
</g>
<g style="fill:#000000; fill-opacity:1.0;  stroke:#000000; stroke-width:0.100000; stroke-opacity:1;  stroke-linecap:round; stroke-linejoin:round;">
<circle cx="9840100.000000" cy="9682400.000000" r="82620.000000"/> 
</g>
<g style="fill:#000000; fill-opacity:1.0;  stroke:#000000; stroke-width:0.100000; stroke-opacity:1;  stroke-linecap:round; stroke-linejoin:round;">
<circle cx="9370100.000000" cy="9932400.000000" r="82620.000000"/> 
</g>
<g style="fill:#000000; fill-opacity:1.0;  stroke:#000000; stroke-width:0.100000; stroke-opacity:1;  stroke-linecap:round; stroke-linejoin:round;">
<circle cx="9629100.000000" cy="9932400.000000" r="82620.000000"/> 
</g>
<g style="fill:#000000; fill-opacity:1.0;  stroke:#000000; stroke-width:0.100000; stroke-opacity:1;  stroke-linecap:round; stroke-linejoin:round;">
<circle cx="9159100.000000" cy="9932400.000000" r="82620.000000"/> 
</g>
</g> 
</mask><mask id="hole-mask"><g><rect x="7612500.0" y="7612500.0" fill="white" width="3190000.0" height="3190000.0"/><polyline stroke-linecap="round" stroke="black" stroke-width="71120.0" points="-0.0 0 0.0 0" transform="translate(10693400.0 9131300.0) rotate(-270.0)"/><polyline stroke-linecap="round" stroke="black" stroke-width="71120.0" points="-0.0 0 0.0 0" transform="translate(10693400.0 9258300.0) rotate(-270.0)"/><polyline stroke-linecap="round" stroke="black" stroke-width="220000.0" points="-0.0 0 0.0 0" transform="translate(8849600.0 8182600.0) rotate(-180.0)"/><polyline stroke-linecap="round" stroke="black" stroke-width="220000.0" points="-0.0 0 0.0 0" transform="translate(9499600.0 8102600.0) rotate(-180.0)"/><polyline stroke-linecap="round" stroke="black" stroke-width="220000.0" points="-0.0 0 0.0 0" transform="translate(10149600.0 8182600.0) rotate(-180.0)"/><polyline stroke-linecap="round" stroke="black" stroke-width="90000.0" points="-0.0 0 0.0 0" transform="translate(9840100.0 8482600.0) rotate(-180.0)"/><polyline stroke-linecap="round" stroke="black" stroke-width="90000.0" points="-0.0 0 0.0 0" transform="translate(9159100.0 8732600.0) rotate(-180.0)"/><polyline stroke-linecap="round" stroke="black" stroke-width="90000.0" points="-0.0 0 0.0 0" transform="translate(9840100.0 8732600.0) rotate(-180.0)"/><polyline stroke-linecap="round" stroke="black" stroke-width="90000.0" points="-0.0 0 0.0 0" transform="translate(9370100.0 8482600.0) rotate(-180.0)"/><polyline stroke-linecap="round" stroke="black" stroke-width="90000.0" points="-0.0 0 0.0 0" transform="translate(9629100.0 8482600.0) rotate(-180.0)"/><polyline stroke-linecap="round" stroke="black" stroke-width="90000.0" points="-0.0 0 0.0 0" transform="translate(9159100.0 8482600.0) rotate(-180.0)"/><polyline stroke-linecap="round" stroke="black" stroke-width="220000.0" points="-0.0 0 0.0 0" transform="translate(8849600.0 10232400.0) rotate(-180.0)"/><polyline stroke-linecap="round" stroke="black" stroke-width="220000.0" points="-0.0 0 0.0 0" transform="translate(9499600.0 10312400.0) rotate(-180.0)"/><polyline stroke-linecap="round" stroke="black" stroke-width="220000.0" points="-0.0 0 0.0 0" transform="translate(10149600.0 10232400.0) rotate(-180.0)"/><polyline stroke-linecap="round" stroke="black" stroke-width="90000.0" points="-0.0 0 0.0 0" transform="translate(9840100.0 9932400.0) rotate(-180.0)"/><polyline stroke-linecap="round" stroke="black" stroke-width="90000.0" points="-0.0 0 0.0 0" transform="translate(9159100.0 9682400.0) rotate(-180.0)"/><polyline stroke-linecap="round" stroke="black" stroke-width="90000.0" points="-0.0 0 0.0 0" transform="translate(9840100.0 9682400.0) rotate(-180.0)"/><polyline stroke-linecap="round" stroke="black" stroke-width="90000.0" points="-0.0 0 0.0 0" transform="translate(9370100.0 9932400.0) rotate(-180.0)"/><polyline stroke-linecap="round" stroke="black" stroke-width="90000.0" points="-0.0 0 0.0 0" transform="translate(9629100.0 9932400.0) rotate(-180.0)"/><polyline stroke-linecap="round" stroke="black" stroke-width="90000.0" points="-0.0 0 0.0 0" transform="translate(9159100.0 9932400.0) rotate(-180.0)"/></g></mask></defs><g transform="" id="boardContainer"><g id="substrate" clip-path="url(#cut-off)" mask="url(#hole-mask)"><g id="substrate-board" style="fill:#4ca06c; stroke:#4ca06c;"><path d=" M 7620000.0 7620000.0 L 10795000.0 7620000.0 L 10795000.0 10795000.0 L 7620000.0 10795000.0 L 7620000.0 7620000.0 " style="fill-rule: evenodd;"/><g style="fill-opacity: 0.0;stroke-width: 15000.000000;stroke-opacity: 1;stroke-linecap: round;stroke-linejoin: round">
<path d="M7620000 10795000 L7620000 7620000 "/>
<path d="M10795000 10795000 L7620000 10795000 "/>
<path d="M10795000 7620000 L10795000 10795000 "/>
<path d="M7620000 7620000 L10795000 7620000 "/>
</g> 
</g><g id="substrate-clad" style="fill:#9c6b28; stroke:#9c6b28;"><g style="fill-opacity: 0.0;stroke-width: 0.000000;stroke-opacity: 1;stroke-linecap: round;stroke-linejoin: round">
<g style="fill-opacity: 1.0;stroke-width: 0.100000;stroke-opacity: 1;stroke-linecap: round;stroke-linejoin: round">
<path style="fill-opacity: 1.0;stroke-width: 0.100000;stroke-opacity: 1;stroke-linecap: round;stroke-linejoin: round;fill-rule: evenodd" d="M 10380980.000000,9408160.000000 10381753.400000,9404271.900000 10383955.800000,9400975.800000 10387251.900000,9398773.400000 10391140.000000,9398000.000000 10441940.000000,9398000.000000 10445828.100000,9398773.400000 10449124.200000,9400975.800000 10451326.600000,9404271.900000 10452100.000000,9408160.000000 10452100.000000,9464040.000000 10451326.600000,9467928.100000 10449124.200000,9471224.200000 10445828.100000,9473426.600000 10441940.000000,9474200.000000 10391140.000000,9474200.000000 10387251.900000,9473426.600000 10383955.800000,9471224.200000 10381753.400000,9467928.100000 10380980.000000,9464040.000000 Z"/> 
<path style="fill-opacity: 1.0;stroke-width: 0.100000;stroke-opacity: 1;stroke-linecap: round;stroke-linejoin: round;fill-rule: evenodd" d="M 10274300.000000,9408160.000000 10275073.400000,9404271.900000 10277275.800000,9400975.800000 10280571.900000,9398773.400000 10284460.000000,9398000.000000 10335260.000000,9398000.000000 10339148.100000,9398773.400000 10342444.200000,9400975.800000 10344646.600000,9404271.900000 10345420.000000,9408160.000000 10345420.000000,9464040.000000 10344646.600000,9467928.100000 10342444.200000,9471224.200000 10339148.100000,9473426.600000 10335260.000000,9474200.000000 10284460.000000,9474200.000000 10280571.900000,9473426.600000 10277275.800000,9471224.200000 10275073.400000,9467928.100000 10274300.000000,9464040.000000 Z"/> 
</g>
<g style="fill-opacity: 1.0;stroke-width: 0.100000;stroke-opacity: 1;stroke-linecap: round;stroke-linejoin: round">
<path style="fill-opacity: 1.0;stroke-width: 0.100000;stroke-opacity: 1;stroke-linecap: round;stroke-linejoin: round;fill-rule: evenodd" d="M 10746740.000000,9070340.000000 10749656.000000,9070920.000000 10752128.200000,9072571.800000 10753780.000000,9075044.000000 10754360.000000,9077960.000000 10754360.000000,9184640.000000 10753780.000000,9187556.000000 10752128.200000,9190028.200000 10749656.000000,9191680.000000 10746740.000000,9192260.000000 10640060.000000,9192260.000000 10637144.000000,9191680.000000 10634671.800000,9190028.200000 10633020.000000,9187556.000000 10632440.000000,9184640.000000 10632440.000000,9077960.000000 10633020.000000,9075044.000000 10634671.800000,9072571.800000 10637144.000000,9070920.000000 10640060.000000,9070340.000000 Z"/> 
<circle cx="10693400.000000" cy="9258300.000000" r="60960.000000"/> 
</g>
<g style="fill-opacity: 1.0;stroke-width: 0.100000;stroke-opacity: 1;stroke-linecap: round;stroke-linejoin: round">
<path style="fill-opacity: 1.0;stroke-width: 0.100000;stroke-opacity: 1;stroke-linecap: round;stroke-linejoin: round;fill-rule: evenodd" d="M 10319480.000000,9259800.000000 10320060.000000,9256884.000000 10321711.800000,9254411.800000 10324184.000000,9252760.000000 10327100.000000,9252180.000000 10427100.000000,9252180.000000 10430016.000000,9252760.000000 10432488.200000,9254411.800000 10434140.000000,9256884.000000 10434720.000000,9259800.000000 10434720.000000,9329800.000000 10434140.000000,9332716.000000 10432488.200000,9335188.200000 10430016.000000,9336840.000000 10427100.000000,9337420.000000 10327100.000000,9337420.000000 10324184.000000,9336840.000000 10321711.800000,9335188.200000 10320060.000000,9332716.000000 10319480.000000,9329800.000000 Z"/> 
<path style="fill-opacity: 1.0;stroke-width: 0.100000;stroke-opacity: 1;stroke-linecap: round;stroke-linejoin: round;fill-rule: evenodd" d="M 10509480.000000,9259800.000000 10510060.000000,9256884.000000 10511711.800000,9254411.800000 10514184.000000,9252760.000000 10517100.000000,9252180.000000 10577100.000000,9252180.000000 10580016.000000,9252760.000000 10582488.200000,9254411.800000 10584140.000000,9256884.000000 10584720.000000,9259800.000000 10584720.000000,9329800.000000 10584140.000000,9332716.000000 10582488.200000,9335188.200000 10580016.000000,9336840.000000 10577100.000000,9337420.000000 10517100.000000,9337420.000000 10514184.000000,9336840.000000 10511711.800000,9335188.200000 10510060.000000,9332716.000000 10509480.000000,9329800.000000 Z"/> 
<path style="fill-opacity: 1.0;stroke-width: 0.100000;stroke-opacity: 1;stroke-linecap: round;stroke-linejoin: round;fill-rule: evenodd" d="M 10509480.000000,9059800.000000 10510060.000000,9056884.000000 10511711.800000,9054411.800000 10514184.000000,9052760.000000 10517100.000000,9052180.000000 10577100.000000,9052180.000000 10580016.000000,9052760.000000 10582488.200000,9054411.800000 10584140.000000,9056884.000000 10584720.000000,9059800.000000 10584720.000000,9129800.000000 10584140.000000,9132716.000000 10582488.200000,9135188.200000 10580016.000000,9136840.000000 10577100.000000,9137420.000000 10517100.000000,9137420.000000 10514184.000000,9136840.000000 10511711.800000,9135188.200000 10510060.000000,9132716.000000 10509480.000000,9129800.000000 Z"/> 
<path style="fill-opacity: 1.0;stroke-width: 0.100000;stroke-opacity: 1;stroke-linecap: round;stroke-linejoin: round;fill-rule: evenodd" d="M 10319480.000000,9059800.000000 10320060.000000,9056884.000000 10321711.800000,9054411.800000 10324184.000000,9052760.000000 10327100.000000,9052180.000000 10387100.000000,9052180.000000 10390016.000000,9052760.000000 10392488.200000,9054411.800000 10394140.000000,9056884.000000 10394720.000000,9059800.000000 10394720.000000,9129800.000000 10394140.000000,9132716.000000 10392488.200000,9135188.200000 10390016.000000,9136840.000000 10387100.000000,9137420.000000 10327100.000000,9137420.000000 10324184.000000,9136840.000000 10321711.800000,9135188.200000 10320060.000000,9132716.000000 10319480.000000,9129800.000000 Z"/> 
</g>
<g style="fill-opacity: 1.0;stroke-width: 0.100000;stroke-opacity: 1;stroke-linecap: round;stroke-linejoin: round">
<circle cx="8849600.000000" cy="8182600.000000" r="182620.000000"/> 
</g>
<g style="fill-opacity: 1.0;stroke-width: 0.100000;stroke-opacity: 1;stroke-linecap: round;stroke-linejoin: round">
<circle cx="9499600.000000" cy="8102600.000000" r="182620.000000"/> 
</g>
<g style="fill-opacity: 1.0;stroke-width: 0.100000;stroke-opacity: 1;stroke-linecap: round;stroke-linejoin: round">
<circle cx="10149600.000000" cy="8182600.000000" r="182620.000000"/> 
</g>
<g style="fill-opacity: 1.0;stroke-width: 0.100000;stroke-opacity: 1;stroke-linecap: round;stroke-linejoin: round">
<circle cx="9840100.000000" cy="8482600.000000" r="82620.000000"/> 
</g>
<g style="fill-opacity: 1.0;stroke-width: 0.100000;stroke-opacity: 1;stroke-linecap: round;stroke-linejoin: round">
<circle cx="9159100.000000" cy="8732600.000000" r="82620.000000"/> 
</g>
<g style="fill-opacity: 1.0;stroke-width: 0.100000;stroke-opacity: 1;stroke-linecap: round;stroke-linejoin: round">
<circle cx="9840100.000000" cy="8732600.000000" r="82620.000000"/> 
</g>
<g style="fill-opacity: 1.0;stroke-width: 0.100000;stroke-opacity: 1;stroke-linecap: round;stroke-linejoin: round">
<circle cx="9370100.000000" cy="8482600.000000" r="82620.000000"/> 
</g>
<g style="fill-opacity: 1.0;stroke-width: 0.100000;stroke-opacity: 1;stroke-linecap: round;stroke-linejoin: round">
<circle cx="9629100.000000" cy="8482600.000000" r="82620.000000"/> 
</g>
<g style="fill-opacity: 1.0;stroke-width: 0.100000;stroke-opacity: 1;stroke-linecap: round;stroke-linejoin: round">
<circle cx="9159100.000000" cy="8482600.000000" r="82620.000000"/> 
</g>
<g style="fill-opacity: 1.0;stroke-width: 0.100000;stroke-opacity: 1;stroke-linecap: round;stroke-linejoin: round">
<circle cx="8849600.000000" cy="10232400.000000" r="182620.000000"/> 
</g>
<g style="fill-opacity: 1.0;stroke-width: 0.100000;stroke-opacity: 1;stroke-linecap: round;stroke-linejoin: round">
<circle cx="9499600.000000" cy="10312400.000000" r="182620.000000"/> 
</g>
<g style="fill-opacity: 1.0;stroke-width: 0.100000;stroke-opacity: 1;stroke-linecap: round;stroke-linejoin: round">
<circle cx="10149600.000000" cy="10232400.000000" r="182620.000000"/> 
</g>
<g style="fill-opacity: 1.0;stroke-width: 0.100000;stroke-opacity: 1;stroke-linecap: round;stroke-linejoin: round">
<circle cx="9840100.000000" cy="9932400.000000" r="82620.000000"/> 
</g>
<g style="fill-opacity: 1.0;stroke-width: 0.100000;stroke-opacity: 1;stroke-linecap: round;stroke-linejoin: round">
<circle cx="9159100.000000" cy="9682400.000000" r="82620.000000"/> 
</g>
<g style="fill-opacity: 1.0;stroke-width: 0.100000;stroke-opacity: 1;stroke-linecap: round;stroke-linejoin: round">
<circle cx="9840100.000000" cy="9682400.000000" r="82620.000000"/> 
</g>
<g style="fill-opacity: 1.0;stroke-width: 0.100000;stroke-opacity: 1;stroke-linecap: round;stroke-linejoin: round">
<circle cx="9370100.000000" cy="9932400.000000" r="82620.000000"/> 
</g>
<g style="fill-opacity: 1.0;stroke-width: 0.100000;stroke-opacity: 1;stroke-linecap: round;stroke-linejoin: round">
<circle cx="9629100.000000" cy="9932400.000000" r="82620.000000"/> 
</g>
<g style="fill-opacity: 1.0;stroke-width: 0.100000;stroke-opacity: 1;stroke-linecap: round;stroke-linejoin: round">
<circle cx="9159100.000000" cy="9932400.000000" r="82620.000000"/> 
</g>
</g> 
</g><g id="substrate-copper" style="fill:#417e5a; stroke:#417e5a;"><g style="fill-opacity: 0.0;stroke-width: 0.000000;stroke-opacity: 1;stroke-linecap: round;stroke-linejoin: round">
<g style="fill-opacity: 1.0;stroke-width: 0.100000;stroke-opacity: 1;stroke-linecap: round;stroke-linejoin: round">
<path style="fill-opacity: 1.0;stroke-width: 0.100000;stroke-opacity: 1;stroke-linecap: round;stroke-linejoin: round;fill-rule: evenodd" d="M 10391140.000000,9464040.000000 10391140.000000,9408160.000000 10441940.000000,9408160.000000 10441940.000000,9464040.000000 Z"/> 
<path style="fill-opacity: 1.0;stroke-width: 0.100000;stroke-opacity: 1;stroke-linecap: round;stroke-linejoin: round;fill-rule: evenodd" d="M 10284460.000000,9464040.000000 10284460.000000,9408160.000000 10335260.000000,9408160.000000 10335260.000000,9464040.000000 Z"/> 
</g>
<g style="fill-opacity: 1.0;stroke-width: 0.100000;stroke-opacity: 1;stroke-linecap: round;stroke-linejoin: round">
<path style="fill-opacity: 1.0;stroke-width: 0.100000;stroke-opacity: 1;stroke-linecap: round;stroke-linejoin: round;fill-rule: evenodd" d="M 10640060.000000,9077960.000000 10746740.000000,9077960.000000 10746740.000000,9184640.000000 10640060.000000,9184640.000000 Z"/> 
<circle cx="10693400.000000" cy="9258300.000000" r="53340.000000"/> 
</g>
<g style="fill-opacity: 1.0;stroke-width: 0.100000;stroke-opacity: 1;stroke-linecap: round;stroke-linejoin: round">
<path style="fill-opacity: 1.0;stroke-width: 0.100000;stroke-opacity: 1;stroke-linecap: round;stroke-linejoin: round;fill-rule: evenodd" d="M 10327100.000000,9329800.000000 10327100.000000,9259800.000000 10427100.000000,9259800.000000 10427100.000000,9329800.000000 Z"/> 
<path style="fill-opacity: 1.0;stroke-width: 0.100000;stroke-opacity: 1;stroke-linecap: round;stroke-linejoin: round;fill-rule: evenodd" d="M 10517100.000000,9329800.000000 10517100.000000,9259800.000000 10577100.000000,9259800.000000 10577100.000000,9329800.000000 Z"/> 
<path style="fill-opacity: 1.0;stroke-width: 0.100000;stroke-opacity: 1;stroke-linecap: round;stroke-linejoin: round;fill-rule: evenodd" d="M 10517100.000000,9129800.000000 10517100.000000,9059800.000000 10577100.000000,9059800.000000 10577100.000000,9129800.000000 Z"/> 
<path style="fill-opacity: 1.0;stroke-width: 0.100000;stroke-opacity: 1;stroke-linecap: round;stroke-linejoin: round;fill-rule: evenodd" d="M 10327100.000000,9129800.000000 10327100.000000,9059800.000000 10387100.000000,9059800.000000 10387100.000000,9129800.000000 Z"/> 
</g>
<g style="fill-opacity: 1.0;stroke-width: 0.100000;stroke-opacity: 1;stroke-linecap: round;stroke-linejoin: round">
<circle cx="8849600.000000" cy="8182600.000000" r="175000.000000"/> 
</g>
<g style="fill-opacity: 1.0;stroke-width: 0.100000;stroke-opacity: 1;stroke-linecap: round;stroke-linejoin: round">
<circle cx="9499600.000000" cy="8102600.000000" r="175000.000000"/> 
</g>
<g style="fill-opacity: 1.0;stroke-width: 0.100000;stroke-opacity: 1;stroke-linecap: round;stroke-linejoin: round">
<circle cx="10149600.000000" cy="8182600.000000" r="175000.000000"/> 
</g>
<g style="fill-opacity: 1.0;stroke-width: 0.100000;stroke-opacity: 1;stroke-linecap: round;stroke-linejoin: round">
<circle cx="9840100.000000" cy="8482600.000000" r="75000.000000"/> 
</g>
<g style="fill-opacity: 1.0;stroke-width: 0.100000;stroke-opacity: 1;stroke-linecap: round;stroke-linejoin: round">
<circle cx="9159100.000000" cy="8732600.000000" r="75000.000000"/> 
</g>
<g style="fill-opacity: 1.0;stroke-width: 0.100000;stroke-opacity: 1;stroke-linecap: round;stroke-linejoin: round">
<circle cx="9840100.000000" cy="8732600.000000" r="75000.000000"/> 
</g>
<g style="fill-opacity: 1.0;stroke-width: 0.100000;stroke-opacity: 1;stroke-linecap: round;stroke-linejoin: round">
<circle cx="9370100.000000" cy="8482600.000000" r="75000.000000"/> 
</g>
<g style="fill-opacity: 1.0;stroke-width: 0.100000;stroke-opacity: 1;stroke-linecap: round;stroke-linejoin: round">
<circle cx="9629100.000000" cy="8482600.000000" r="75000.000000"/> 
</g>
<g style="fill-opacity: 1.0;stroke-width: 0.100000;stroke-opacity: 1;stroke-linecap: round;stroke-linejoin: round">
<circle cx="9159100.000000" cy="8482600.000000" r="75000.000000"/> 
</g>
<g style="fill-opacity: 1.0;stroke-width: 0.100000;stroke-opacity: 1;stroke-linecap: round;stroke-linejoin: round">
<circle cx="8849600.000000" cy="10232400.000000" r="175000.000000"/> 
</g>
<g style="fill-opacity: 1.0;stroke-width: 0.100000;stroke-opacity: 1;stroke-linecap: round;stroke-linejoin: round">
<circle cx="9499600.000000" cy="10312400.000000" r="175000.000000"/> 
</g>
<g style="fill-opacity: 1.0;stroke-width: 0.100000;stroke-opacity: 1;stroke-linecap: round;stroke-linejoin: round">
<circle cx="10149600.000000" cy="10232400.000000" r="175000.000000"/> 
</g>
<g style="fill-opacity: 1.0;stroke-width: 0.100000;stroke-opacity: 1;stroke-linecap: round;stroke-linejoin: round">
<circle cx="9840100.000000" cy="9932400.000000" r="75000.000000"/> 
</g>
<g style="fill-opacity: 1.0;stroke-width: 0.100000;stroke-opacity: 1;stroke-linecap: round;stroke-linejoin: round">
<circle cx="9159100.000000" cy="9682400.000000" r="75000.000000"/> 
</g>
<g style="fill-opacity: 1.0;stroke-width: 0.100000;stroke-opacity: 1;stroke-linecap: round;stroke-linejoin: round">
<circle cx="9840100.000000" cy="9682400.000000" r="75000.000000"/> 
</g>
<g style="fill-opacity: 1.0;stroke-width: 0.100000;stroke-opacity: 1;stroke-linecap: round;stroke-linejoin: round">
<circle cx="9370100.000000" cy="9932400.000000" r="75000.000000"/> 
</g>
<g style="fill-opacity: 1.0;stroke-width: 0.100000;stroke-opacity: 1;stroke-linecap: round;stroke-linejoin: round">
<circle cx="9629100.000000" cy="9932400.000000" r="75000.000000"/> 
</g>
<g style="fill-opacity: 1.0;stroke-width: 0.100000;stroke-opacity: 1;stroke-linecap: round;stroke-linejoin: round">
<circle cx="9159100.000000" cy="9932400.000000" r="75000.000000"/> 
</g>
<g style="fill-opacity: 0.0;stroke-width: 50800.000000;stroke-opacity: 1;stroke-linecap: round;stroke-linejoin: round">
<path d="M10693400 9131300 L10583600 9131300 "/>
<path d="M10583600 9131300 L10547100 9094800 "/>
<path d="M10309860 9436100 L10309860 9679940 "/>
<path d="M9780500 10083800 L9629100 9932400 "/>
<path d="M9906000 10083800 L9780500 10083800 "/>
<path d="M10309860 9679940 L9906000 10083800 "/>
<path d="M10309860 9436100 L10274300 9400540 "/>
<path d="M10274300 9177600 L10357100 9094800 "/>
<path d="M10274300 9400540 L10274300 9177600 "/>
<path d="M9629100 8482600 L9629100 9932400 "/>
<path d="M8849600 10232400 L8849600 8182600 "/>
<path d="M8849600 10232400 L8929600 10312400 "/>
<path d="M8929600 10312400 L9499600 10312400 "/>
<path d="M10149600 10232400 L10069600 10312400 "/>
<path d="M10069600 10312400 L9499600 10312400 "/>
<path d="M8849600 8182600 L8929600 8102600 "/>
<path d="M8929600 8102600 L9499600 8102600 "/>
<path d="M10149600 8182600 L10069600 8102600 "/>
<path d="M10069600 8102600 L9499600 8102600 "/>
<path d="M10377100 9294800 L10387000 9294800 "/>
<path d="M10387000 9294800 L10472420 9380220 "/>
<path d="M10416540 9436100 L10472420 9380220 "/>
<path d="M10472420 9380220 L10547100 9305540 "/>
<path d="M10547100 9305540 L10547100 9294800 "/>
<path d="M10693400 9258300 L10583600 9258300 "/>
<path d="M10583600 9258300 L10547100 9294800 "/>
<path d="M9370100 8482600 L9370100 9932400 "/>
<path d="M9840100 8732600 L9840100 9682400 "/>
<path d="M9159100 8482600 L9017000 8624700 "/>
<path d="M9017000 9790300 L9159100 9932400 "/>
<path d="M9017000 8624700 L9017000 9790300 "/>
<path d="M9159100 8732600 L9159100 9682400 "/>
</g>
</g> 
</g><g id="substrate-pads" style="fill:#b5ae30; stroke:#b5ae30;" mask="url(#pads-mask)"><g style="fill-opacity: 0.0;stroke-width: 0.000000;stroke-opacity: 1;stroke-linecap: round;stroke-linejoin: round">
<g style="fill-opacity: 1.0;stroke-width: 0.100000;stroke-opacity: 1;stroke-linecap: round;stroke-linejoin: round">
<path style="fill-opacity: 1.0;stroke-width: 0.100000;stroke-opacity: 1;stroke-linecap: round;stroke-linejoin: round;fill-rule: evenodd" d="M 10391140.000000,9464040.000000 10391140.000000,9408160.000000 10441940.000000,9408160.000000 10441940.000000,9464040.000000 Z"/> 
<path style="fill-opacity: 1.0;stroke-width: 0.100000;stroke-opacity: 1;stroke-linecap: round;stroke-linejoin: round;fill-rule: evenodd" d="M 10284460.000000,9464040.000000 10284460.000000,9408160.000000 10335260.000000,9408160.000000 10335260.000000,9464040.000000 Z"/> 
</g>
<g style="fill-opacity: 1.0;stroke-width: 0.100000;stroke-opacity: 1;stroke-linecap: round;stroke-linejoin: round">
<path style="fill-opacity: 1.0;stroke-width: 0.100000;stroke-opacity: 1;stroke-linecap: round;stroke-linejoin: round;fill-rule: evenodd" d="M 10640060.000000,9077960.000000 10746740.000000,9077960.000000 10746740.000000,9184640.000000 10640060.000000,9184640.000000 Z"/> 
<circle cx="10693400.000000" cy="9258300.000000" r="53340.000000"/> 
</g>
<g style="fill-opacity: 1.0;stroke-width: 0.100000;stroke-opacity: 1;stroke-linecap: round;stroke-linejoin: round">
<path style="fill-opacity: 1.0;stroke-width: 0.100000;stroke-opacity: 1;stroke-linecap: round;stroke-linejoin: round;fill-rule: evenodd" d="M 10327100.000000,9329800.000000 10327100.000000,9259800.000000 10427100.000000,9259800.000000 10427100.000000,9329800.000000 Z"/> 
<path style="fill-opacity: 1.0;stroke-width: 0.100000;stroke-opacity: 1;stroke-linecap: round;stroke-linejoin: round;fill-rule: evenodd" d="M 10517100.000000,9329800.000000 10517100.000000,9259800.000000 10577100.000000,9259800.000000 10577100.000000,9329800.000000 Z"/> 
<path style="fill-opacity: 1.0;stroke-width: 0.100000;stroke-opacity: 1;stroke-linecap: round;stroke-linejoin: round;fill-rule: evenodd" d="M 10517100.000000,9129800.000000 10517100.000000,9059800.000000 10577100.000000,9059800.000000 10577100.000000,9129800.000000 Z"/> 
<path style="fill-opacity: 1.0;stroke-width: 0.100000;stroke-opacity: 1;stroke-linecap: round;stroke-linejoin: round;fill-rule: evenodd" d="M 10327100.000000,9129800.000000 10327100.000000,9059800.000000 10387100.000000,9059800.000000 10387100.000000,9129800.000000 Z"/> 
</g>
<g style="fill-opacity: 1.0;stroke-width: 0.100000;stroke-opacity: 1;stroke-linecap: round;stroke-linejoin: round">
<circle cx="8849600.000000" cy="8182600.000000" r="175000.000000"/> 
</g>
<g style="fill-opacity: 1.0;stroke-width: 0.100000;stroke-opacity: 1;stroke-linecap: round;stroke-linejoin: round">
<circle cx="9499600.000000" cy="8102600.000000" r="175000.000000"/> 
</g>
<g style="fill-opacity: 1.0;stroke-width: 0.100000;stroke-opacity: 1;stroke-linecap: round;stroke-linejoin: round">
<circle cx="10149600.000000" cy="8182600.000000" r="175000.000000"/> 
</g>
<g style="fill-opacity: 1.0;stroke-width: 0.100000;stroke-opacity: 1;stroke-linecap: round;stroke-linejoin: round">
<circle cx="9840100.000000" cy="8482600.000000" r="75000.000000"/> 
</g>
<g style="fill-opacity: 1.0;stroke-width: 0.100000;stroke-opacity: 1;stroke-linecap: round;stroke-linejoin: round">
<circle cx="9159100.000000" cy="8732600.000000" r="75000.000000"/> 
</g>
<g style="fill-opacity: 1.0;stroke-width: 0.100000;stroke-opacity: 1;stroke-linecap: round;stroke-linejoin: round">
<circle cx="9840100.000000" cy="8732600.000000" r="75000.000000"/> 
</g>
<g style="fill-opacity: 1.0;stroke-width: 0.100000;stroke-opacity: 1;stroke-linecap: round;stroke-linejoin: round">
<circle cx="9370100.000000" cy="8482600.000000" r="75000.000000"/> 
</g>
<g style="fill-opacity: 1.0;stroke-width: 0.100000;stroke-opacity: 1;stroke-linecap: round;stroke-linejoin: round">
<circle cx="9629100.000000" cy="8482600.000000" r="75000.000000"/> 
</g>
<g style="fill-opacity: 1.0;stroke-width: 0.100000;stroke-opacity: 1;stroke-linecap: round;stroke-linejoin: round">
<circle cx="9159100.000000" cy="8482600.000000" r="75000.000000"/> 
</g>
<g style="fill-opacity: 1.0;stroke-width: 0.100000;stroke-opacity: 1;stroke-linecap: round;stroke-linejoin: round">
<circle cx="8849600.000000" cy="10232400.000000" r="175000.000000"/> 
</g>
<g style="fill-opacity: 1.0;stroke-width: 0.100000;stroke-opacity: 1;stroke-linecap: round;stroke-linejoin: round">
<circle cx="9499600.000000" cy="10312400.000000" r="175000.000000"/> 
</g>
<g style="fill-opacity: 1.0;stroke-width: 0.100000;stroke-opacity: 1;stroke-linecap: round;stroke-linejoin: round">
<circle cx="10149600.000000" cy="10232400.000000" r="175000.000000"/> 
</g>
<g style="fill-opacity: 1.0;stroke-width: 0.100000;stroke-opacity: 1;stroke-linecap: round;stroke-linejoin: round">
<circle cx="9840100.000000" cy="9932400.000000" r="75000.000000"/> 
</g>
<g style="fill-opacity: 1.0;stroke-width: 0.100000;stroke-opacity: 1;stroke-linecap: round;stroke-linejoin: round">
<circle cx="9159100.000000" cy="9682400.000000" r="75000.000000"/> 
</g>
<g style="fill-opacity: 1.0;stroke-width: 0.100000;stroke-opacity: 1;stroke-linecap: round;stroke-linejoin: round">
<circle cx="9840100.000000" cy="9682400.000000" r="75000.000000"/> 
</g>
<g style="fill-opacity: 1.0;stroke-width: 0.100000;stroke-opacity: 1;stroke-linecap: round;stroke-linejoin: round">
<circle cx="9370100.000000" cy="9932400.000000" r="75000.000000"/> 
</g>
<g style="fill-opacity: 1.0;stroke-width: 0.100000;stroke-opacity: 1;stroke-linecap: round;stroke-linejoin: round">
<circle cx="9629100.000000" cy="9932400.000000" r="75000.000000"/> 
</g>
<g style="fill-opacity: 1.0;stroke-width: 0.100000;stroke-opacity: 1;stroke-linecap: round;stroke-linejoin: round">
<circle cx="9159100.000000" cy="9932400.000000" r="75000.000000"/> 
</g>
<g style="fill-opacity: 0.0;stroke-width: 50800.000000;stroke-opacity: 1;stroke-linecap: round;stroke-linejoin: round">
<path d="M10693400 9131300 L10583600 9131300 "/>
<path d="M10583600 9131300 L10547100 9094800 "/>
<path d="M10309860 9436100 L10309860 9679940 "/>
<path d="M9780500 10083800 L9629100 9932400 "/>
<path d="M9906000 10083800 L9780500 10083800 "/>
<path d="M10309860 9679940 L9906000 10083800 "/>
<path d="M10309860 9436100 L10274300 9400540 "/>
<path d="M10274300 9177600 L10357100 9094800 "/>
<path d="M10274300 9400540 L10274300 9177600 "/>
<path d="M9629100 8482600 L9629100 9932400 "/>
<path d="M8849600 10232400 L8849600 8182600 "/>
<path d="M8849600 10232400 L8929600 10312400 "/>
<path d="M8929600 10312400 L9499600 10312400 "/>
<path d="M10149600 10232400 L10069600 10312400 "/>
<path d="M10069600 10312400 L9499600 10312400 "/>
<path d="M8849600 8182600 L8929600 8102600 "/>
<path d="M8929600 8102600 L9499600 8102600 "/>
<path d="M10149600 8182600 L10069600 8102600 "/>
<path d="M10069600 8102600 L9499600 8102600 "/>
<path d="M10377100 9294800 L10387000 9294800 "/>
<path d="M10387000 9294800 L10472420 9380220 "/>
<path d="M10416540 9436100 L10472420 9380220 "/>
<path d="M10472420 9380220 L10547100 9305540 "/>
<path d="M10547100 9305540 L10547100 9294800 "/>
<path d="M10693400 9258300 L10583600 9258300 "/>
<path d="M10583600 9258300 L10547100 9294800 "/>
<path d="M9370100 8482600 L9370100 9932400 "/>
<path d="M9840100 8732600 L9840100 9682400 "/>
<path d="M9159100 8482600 L9017000 8624700 "/>
<path d="M9017000 9790300 L9159100 9932400 "/>
<path d="M9017000 8624700 L9017000 9790300 "/>
<path d="M9159100 8732600 L9159100 9682400 "/>
</g>
</g> 
</g><g id="substrate-silk" style="fill:#f0f0f0; stroke:#f0f0f0;" mask="url(#pads-mask-silkscreen)"><g style="fill-opacity: 0.0;stroke-width: 10160.000000;stroke-opacity: 1;stroke-linecap: round;stroke-linejoin: round">
<text x="10363200.000000" y="9461500.000000" textLength="79344.900000" font-size="54186.600000" lengthAdjust="spacingAndGlyphs" text-anchor="middle" opacity="0">R2</text>
<g class="stroked-text"><desc>R2</desc>
<path d="M10356426 9459564 L10342880 9440212 "/>
<path d="M10333203 9459564 L10333203 9418924 L10348685 9418924 L10352556 9420860 L10354491 9422795 L10356426 9426665 L10356426 9432471 L10354491 9436341 L10352556 9438277 L10348685 9440212 L10333203 9440212 "/>
<path d="M10371908 9422795 L10373843 9420860 L10377714 9418924 L10387390 9418924 L10391260 9420860 L10393196 9422795 L10395131 9426665 L10395131 9430536 L10393196 9436341 L10369973 9459564 L10395131 9459564 "/>
</g></g>
<g style="fill-opacity: 0.0;stroke-width: 20320.000000;stroke-opacity: 1;stroke-linecap: round;stroke-linejoin: round">
<g transform="rotate(-90.000000 10693400.000000 9194800.000000)">
<text x="10693400.000000" y="9244838.000000" textLength="208594.500000" font-size="133434.600000" lengthAdjust="spacingAndGlyphs" text-anchor="middle" opacity="0">P2</text>
</g>
<g class="stroked-text"><desc>P2</desc>
<path d="M10738672 9268665 L10638596 9268665 L10638596 9230541 L10643362 9221010 L10648127 9216244 L10657658 9211479 L10671955 9211479 L10681486 9216244 L10686251 9221010 L10691017 9230541 L10691017 9268665 "/>
<path d="M10648127 9173355 L10643362 9168589 L10638596 9159058 L10638596 9135230 L10643362 9125699 L10648127 9120934 L10657658 9116168 L10667189 9116168 L10681486 9120934 L10738672 9178120 L10738672 9116168 "/>
</g></g>
<g style="fill-opacity: 0.0;stroke-width: 15000.000000;stroke-opacity: 1;stroke-linecap: round;stroke-linejoin: round">
<text x="10452100.000000" y="9234800.000000" textLength="186416.000000" font-size="106666.600000" lengthAdjust="spacingAndGlyphs" text-anchor="middle" opacity="0">Q1</text>
<g class="stroked-text"><desc>Q1</desc>
<path d="M10444480 9238609 L10436861 9234800 L10429242 9227180 L10417814 9215752 L10410195 9211942 L10402576 9211942 "/>
<path d="M10406385 9230990 L10398766 9227180 L10391147 9219561 L10387338 9204323 L10387338 9177657 L10391147 9162419 L10398766 9154800 L10406385 9150990 L10421623 9150990 L10429242 9154800 L10436861 9162419 L10440671 9177657 L10440671 9204323 L10436861 9219561 L10429242 9227180 L10421623 9230990 L10406385 9230990 "/>
<path d="M10516861 9230990 L10471147 9230990 "/>
<path d="M10494004 9230990 L10494004 9150990 L10486385 9162419 L10478766 9170038 L10471147 9173847 "/>
</g></g>
<g style="fill-opacity: 0.0;stroke-width: 20320.000000;stroke-opacity: 1;stroke-linecap: round;stroke-linejoin: round">
<path d="M10274300 9398000 L10452100 9398000 "/>
<path d="M10274300 9474200 L10274300 9398000 "/>
<path d="M10452100 9474200 L10274300 9474200 "/>
<path d="M10452100 9398000 L10452100 9474200 "/>
</g>
<g style="fill-opacity: 0.0;stroke-width: 15000.000000;stroke-opacity: 1;stroke-linecap: round;stroke-linejoin: round">
<path d="M10302100 9264800 L10302100 9124800 "/>
<path d="M10602100 9264800 L10302100 9264800 "/>
<path d="M10602100 9124800 L10602100 9264800 "/>
<path d="M10302100 9124800 L10602100 9124800 "/>
</g>
<g style="fill-opacity: 0.0;stroke-width: 12700.000000;stroke-opacity: 1;stroke-linecap: round;stroke-linejoin: round">
<path d="M8799830 10337292 L8799830 10787380 "/>
<path d="M8799830 10137648 L8799830 10337292 "/>
<path d="M8799830 9512554 L8799830 10137648 "/>
<path d="M10199370 9507474 L8799830 9512554 "/>
<path d="M10199370 10337292 L10199370 9507474 "/>
<path d="M10199370 10787380 L10199370 10337292 "/>
<path d="M8799830 10787380 L10199370 10787380 "/>
<g style="fill-opacity: 1.0;stroke-width: 0.100000;stroke-opacity: 1;stroke-linecap: round;stroke-linejoin: round">
<circle cx="8849600.000000" cy="10232400.000000" r="175000.000000"/> 
</g>
<g style="fill-opacity: 1.0;stroke-width: 0.100000;stroke-opacity: 1;stroke-linecap: round;stroke-linejoin: round">
<circle cx="9499600.000000" cy="10312400.000000" r="175000.000000"/> 
</g>
<g style="fill-opacity: 1.0;stroke-width: 0.100000;stroke-opacity: 1;stroke-linecap: round;stroke-linejoin: round">
<circle cx="10149600.000000" cy="10232400.000000" r="175000.000000"/> 
</g>
<g style="fill-opacity: 1.0;stroke-width: 0.100000;stroke-opacity: 1;stroke-linecap: round;stroke-linejoin: round">
<circle cx="9840100.000000" cy="9932400.000000" r="75000.000000"/> 
</g>
<g style="fill-opacity: 1.0;stroke-width: 0.100000;stroke-opacity: 1;stroke-linecap: round;stroke-linejoin: round">
<circle cx="9159100.000000" cy="9682400.000000" r="75000.000000"/> 
</g>
<g style="fill-opacity: 1.0;stroke-width: 0.100000;stroke-opacity: 1;stroke-linecap: round;stroke-linejoin: round">
<circle cx="9840100.000000" cy="9682400.000000" r="75000.000000"/> 
</g>
<g style="fill-opacity: 1.0;stroke-width: 0.100000;stroke-opacity: 1;stroke-linecap: round;stroke-linejoin: round">
<circle cx="9370100.000000" cy="9932400.000000" r="75000.000000"/> 
</g>
<g style="fill-opacity: 1.0;stroke-width: 0.100000;stroke-opacity: 1;stroke-linecap: round;stroke-linejoin: round">
<circle cx="9629100.000000" cy="9932400.000000" r="75000.000000"/> 
</g>
<g style="fill-opacity: 1.0;stroke-width: 0.100000;stroke-opacity: 1;stroke-linecap: round;stroke-linejoin: round">
<circle cx="9159100.000000" cy="9932400.000000" r="75000.000000"/> 
</g>
</g> 
</g><g id="substrate-outline" style="fill:#000000; stroke:#000000; stroke-width: 15000.0"><g style="fill-opacity: 0.0;stroke-opacity: 1;stroke-linecap: round;stroke-linejoin: round">
<path d="M7620000 10795000 L7620000 7620000 "/>
<path d="M10795000 10795000 L7620000 10795000 "/>
<path d="M10795000 7620000 L10795000 10795000 "/>
<path d="M7620000 7620000 L10795000 7620000 "/>
</g> 
<path d="M -35560.0 0.0 A 35560.0 35560.0 0 1 1 35560.0 0.0 L 35560.0 -0.0 A 35560.0 35560.0 0 1 1 -35560.0 -0.0 Z" transform="translate(10693400.0 9131300.0) rotate(-270.0)"/><path d="M -35560.0 0.0 A 35560.0 35560.0 0 1 1 35560.0 0.0 L 35560.0 -0.0 A 35560.0 35560.0 0 1 1 -35560.0 -0.0 Z" transform="translate(10693400.0 9258300.0) rotate(-270.0)"/><path d="M -110000.0 0.0 A 110000.0 110000.0 0 1 1 110000.0 0.0 L 110000.0 -0.0 A 110000.0 110000.0 0 1 1 -110000.0 -0.0 Z" transform="translate(8849600.0 8182600.0) rotate(-180.0)"/><path d="M -110000.0 0.0 A 110000.0 110000.0 0 1 1 110000.0 0.0 L 110000.0 -0.0 A 110000.0 110000.0 0 1 1 -110000.0 -0.0 Z" transform="translate(9499600.0 8102600.0) rotate(-180.0)"/><path d="M -110000.0 0.0 A 110000.0 110000.0 0 1 1 110000.0 0.0 L 110000.0 -0.0 A 110000.0 110000.0 0 1 1 -110000.0 -0.0 Z" transform="translate(10149600.0 8182600.0) rotate(-180.0)"/><path d="M -45000.0 0.0 A 45000.0 45000.0 0 1 1 45000.0 0.0 L 45000.0 -0.0 A 45000.0 45000.0 0 1 1 -45000.0 -0.0 Z" transform="translate(9840100.0 8482600.0) rotate(-180.0)"/><path d="M -45000.0 0.0 A 45000.0 45000.0 0 1 1 45000.0 0.0 L 45000.0 -0.0 A 45000.0 45000.0 0 1 1 -45000.0 -0.0 Z" transform="translate(9159100.0 8732600.0) rotate(-180.0)"/><path d="M -45000.0 0.0 A 45000.0 45000.0 0 1 1 45000.0 0.0 L 45000.0 -0.0 A 45000.0 45000.0 0 1 1 -45000.0 -0.0 Z" transform="translate(9840100.0 8732600.0) rotate(-180.0)"/><path d="M -45000.0 0.0 A 45000.0 45000.0 0 1 1 45000.0 0.0 L 45000.0 -0.0 A 45000.0 45000.0 0 1 1 -45000.0 -0.0 Z" transform="translate(9370100.0 8482600.0) rotate(-180.0)"/><path d="M -45000.0 0.0 A 45000.0 45000.0 0 1 1 45000.0 0.0 L 45000.0 -0.0 A 45000.0 45000.0 0 1 1 -45000.0 -0.0 Z" transform="translate(9629100.0 8482600.0) rotate(-180.0)"/><path d="M -45000.0 0.0 A 45000.0 45000.0 0 1 1 45000.0 0.0 L 45000.0 -0.0 A 45000.0 45000.0 0 1 1 -45000.0 -0.0 Z" transform="translate(9159100.0 8482600.0) rotate(-180.0)"/><path d="M -110000.0 0.0 A 110000.0 110000.0 0 1 1 110000.0 0.0 L 110000.0 -0.0 A 110000.0 110000.0 0 1 1 -110000.0 -0.0 Z" transform="translate(8849600.0 10232400.0) rotate(-180.0)"/><path d="M -110000.0 0.0 A 110000.0 110000.0 0 1 1 110000.0 0.0 L 110000.0 -0.0 A 110000.0 110000.0 0 1 1 -110000.0 -0.0 Z" transform="translate(9499600.0 10312400.0) rotate(-180.0)"/><path d="M -110000.0 0.0 A 110000.0 110000.0 0 1 1 110000.0 0.0 L 110000.0 -0.0 A 110000.0 110000.0 0 1 1 -110000.0 -0.0 Z" transform="translate(10149600.0 10232400.0) rotate(-180.0)"/><path d="M -45000.0 0.0 A 45000.0 45000.0 0 1 1 45000.0 0.0 L 45000.0 -0.0 A 45000.0 45000.0 0 1 1 -45000.0 -0.0 Z" transform="translate(9840100.0 9932400.0) rotate(-180.0)"/><path d="M -45000.0 0.0 A 45000.0 45000.0 0 1 1 45000.0 0.0 L 45000.0 -0.0 A 45000.0 45000.0 0 1 1 -45000.0 -0.0 Z" transform="translate(9159100.0 9682400.0) rotate(-180.0)"/><path d="M -45000.0 0.0 A 45000.0 45000.0 0 1 1 45000.0 0.0 L 45000.0 -0.0 A 45000.0 45000.0 0 1 1 -45000.0 -0.0 Z" transform="translate(9840100.0 9682400.0) rotate(-180.0)"/><path d="M -45000.0 0.0 A 45000.0 45000.0 0 1 1 45000.0 0.0 L 45000.0 -0.0 A 45000.0 45000.0 0 1 1 -45000.0 -0.0 Z" transform="translate(9370100.0 9932400.0) rotate(-180.0)"/><path d="M -45000.0 0.0 A 45000.0 45000.0 0 1 1 45000.0 0.0 L 45000.0 -0.0 A 45000.0 45000.0 0 1 1 -45000.0 -0.0 Z" transform="translate(9629100.0 9932400.0) rotate(-180.0)"/><path d="M -45000.0 0.0 A 45000.0 45000.0 0 1 1 45000.0 0.0 L 45000.0 -0.0 A 45000.0 45000.0 0 1 1 -45000.0 -0.0 Z" transform="translate(9159100.0 9932400.0) rotate(-180.0)"/></g></g></g></svg>