<!DOCTYPE svg PUBLIC "-//W3C//DTD SVG 1.1//EN" "http://www.w3.org/Graphics/SVG/1.1/DTD/svg11.dtd">
<svg xmlns="http://www.w3.org/2000/svg" version="1.1" width="8.35mm" height="8.35mm" viewBox="7875600.0 4891100.0 835000.0 835000.0">
            <title>Picture generated by PcbDraw </title>
            <desc>Picture generated by PcbDraw</desc>
        <defs><clipPath id="cut-off"><path d=" M 7975600.0 5626100.0 L 7975600.0 4991100.0 L 8610600.0 4991100.0 L 8610600.0 5626100.0 L 7975600.0 5626100.0 " style="fill-rule: evenodd;"/></clipPath><mask id="pads-mask"><g style="fill:#ffffff; fill-opacity:0.0;  stroke:#ffffff; stroke-width:0.000000; stroke-opacity:1;  stroke-linecap:round; stroke-linejoin:round;">
<g style="fill:#ffffff; fill-opacity:1.0;  stroke:#ffffff; stroke-width:0.100000; stroke-opacity:1;  stroke-linecap:round; stroke-linejoin:round;">
<path style="fill:#ffffff; fill-opacity:1.0;  stroke:#ffffff; stroke-width:0.100000; stroke-opacity:1;  stroke-linecap:round; stroke-linejoin:round;fill-rule:evenodd;" d="M 8072120.000000,5425440.000000 8071346.600000,5429328.100000 8069144.200000,5432624.200000 8065848.100000,5434826.600000 8061960.000000,5435600.000000 8011160.000000,5435600.000000 8007271.900000,5434826.600000 8003975.800000,5432624.200000 8001773.400000,5429328.100000 8001000.000000,5425440.000000 8001000.000000,5369560.000000 8001773.400000,5365671.900000 8003975.800000,5362375.800000 8007271.900000,5360173.400000 8011160.000000,5359400.000000 8061960.000000,5359400.000000 8065848.100000,5360173.400000 8069144.200000,5362375.800000 8071346.600000,5365671.900000 8072120.000000,5369560.000000 Z"/> 
<path style="fill:#ffffff; fill-opacity:1.0;  stroke:#ffffff; stroke-width:0.100000; stroke-opacity:1;  stroke-linecap:round; stroke-linejoin:round;fill-rule:evenodd;" d="M 8178800.000000,5425440.000000 8178026.600000,5429328.100000 8175824.200000,5432624.200000 8172528.100000,5434826.600000 8168640.000000,5435600.000000 8117840.000000,5435600.000000 8113951.900000,5434826.600000 8110655.800000,5432624.200000 8108453.400000,5429328.100000 8107680.000000,5425440.000000 8107680.000000,5369560.000000 8108453.400000,5365671.900000 8110655.800000,5362375.800000 8113951.900000,5360173.400000 8117840.000000,5359400.000000 8168640.000000,5359400.000000 8172528.100000,5360173.400000 8175824.200000,5362375.800000 8178026.600000,5365671.900000 8178800.000000,5369560.000000 Z"/> 
</g>
<g style="fill:#ffffff; fill-opacity:1.0;  stroke:#ffffff; stroke-width:0.100000; stroke-opacity:1;  stroke-linecap:round; stroke-linejoin:round;">
<path style="fill:#ffffff; fill-opacity:1.0;  stroke:#ffffff; stroke-width:0.100000; stroke-opacity:1;  stroke-linecap:round; stroke-linejoin:round;fill-rule:evenodd;" d="M 8003540.000000,5026660.000000 8004120.000000,5023744.000000 8005771.800000,5021271.800000 8008244.000000,5019620.000000 8011160.000000,5019040.000000 8117840.000000,5019040.000000 8120756.000000,5019620.000000 8123228.200000,5021271.800000 8124880.000000,5023744.000000 8125460.000000,5026660.000000 8125460.000000,5133340.000000 8124880.000000,5136256.000000 8123228.200000,5138728.200000 8120756.000000,5140380.000000 8117840.000000,5140960.000000 8011160.000000,5140960.000000 8008244.000000,5140380.000000 8005771.800000,5138728.200000 8004120.000000,5136256.000000 8003540.000000,5133340.000000 Z"/> 
<circle cx="8191500.000000" cy="5080000.000000" r="60960.000000"/> 
</g>
<g style="fill:#ffffff; fill-opacity:1.0;  stroke:#ffffff; stroke-width:0.100000; stroke-opacity:1;  stroke-linecap:round; stroke-linejoin:round;">
<path style="fill:#ffffff; fill-opacity:1.0;  stroke:#ffffff; stroke-width:0.100000; stroke-opacity:1;  stroke-linecap:round; stroke-linejoin:round;fill-rule:evenodd;" d="M 8252460.000000,5565140.000000 8251880.000000,5568056.000000 8250228.200000,5570528.200000 8247756.000000,5572180.000000 8244840.000000,5572760.000000 8138160.000000,5572760.000000 8135244.000000,5572180.000000 8132771.800000,5570528.200000 8131120.000000,5568056.000000 8130540.000000,5565140.000000 8130540.000000,5458460.000000 8131120.000000,5455544.000000 8132771.800000,5453071.800000 8135244.000000,5451420.000000 8138160.000000,5450840.000000 8244840.000000,5450840.000000 8247756.000000,5451420.000000 8250228.200000,5453071.800000 8251880.000000,5455544.000000 8252460.000000,5458460.000000 Z"/> 
<circle cx="8064500.000000" cy="5511800.000000" r="60960.000000"/> 
</g>
<g style="fill:#ffffff; fill-opacity:1.0;  stroke:#ffffff; stroke-width:0.100000; stroke-opacity:1;  stroke-linecap:round; stroke-linejoin:round;">
<path style="fill:#ffffff; fill-opacity:1.0;  stroke:#ffffff; stroke-width:0.100000; stroke-opacity:1;  stroke-linecap:round; stroke-linejoin:round;fill-rule:evenodd;" d="M 8148320.000000,5222240.000000 8147546.600000,5226128.100000 8145344.200000,5229424.200000 8142048.100000,5231626.600000 8138160.000000,5232400.000000 8087360.000000,5232400.000000 8083471.900000,5231626.600000 8080175.800000,5229424.200000 8077973.400000,5226128.100000 8077200.000000,5222240.000000 8077200.000000,5166360.000000 8077973.400000,5162471.900000 8080175.800000,5159175.800000 8083471.900000,5156973.400000 8087360.000000,5156200.000000 8138160.000000,5156200.000000 8142048.100000,5156973.400000 8145344.200000,5159175.800000 8147546.600000,5162471.900000 8148320.000000,5166360.000000 Z"/> 
<path style="fill:#ffffff; fill-opacity:1.0;  stroke:#ffffff; stroke-width:0.100000; stroke-opacity:1;  stroke-linecap:round; stroke-linejoin:round;fill-rule:evenodd;" d="M 8255000.000000,5222240.000000 8254226.600000,5226128.100000 8252024.200000,5229424.200000 8248728.100000,5231626.600000 8244840.000000,5232400.000000 8194040.000000,5232400.000000 8190151.900000,5231626.600000 8186855.800000,5229424.200000 8184653.400000,5226128.100000 8183880.000000,5222240.000000 8183880.000000,5166360.000000 8184653.400000,5162471.900000 8186855.800000,5159175.800000 8190151.900000,5156973.400000 8194040.000000,5156200.000000 8244840.000000,5156200.000000 8248728.100000,5156973.400000 8252024.200000,5159175.800000 8254226.600000,5162471.900000 8255000.000000,5166360.000000 Z"/> 
<path style="fill:#ffffff; fill-opacity:1.0;  stroke:#ffffff; stroke-width:0.100000; stroke-opacity:1;  stroke-linecap:round; stroke-linejoin:round;fill-rule:evenodd;" d="M 8214360.000000,5207000.000000 8213586.600000,5210888.100000 8211384.200000,5214184.200000 8208088.100000,5216386.600000 8204200.000000,5217160.000000 8128000.000000,5217160.000000 8124111.900000,5216386.600000 8120815.800000,5214184.200000 8118613.400000,5210888.100000 8117840.000000,5207000.000000 8117840.000000,5181600.000000 8118613.400000,5177711.900000 8120815.800000,5174415.800000 8124111.900000,5172213.400000 8128000.000000,5171440.000000 8204200.000000,5171440.000000 8208088.100000,5172213.400000 8211384.200000,5174415.800000 8213586.600000,5177711.900000 8214360.000000,5181600.000000 Z"/> 
</g>
<g style="fill:#ffffff; fill-opacity:1.0;  stroke:#ffffff; stroke-width:0.100000; stroke-opacity:1;  stroke-linecap:round; stroke-linejoin:round;">
<path style="fill:#ffffff; fill-opacity:1.0;  stroke:#ffffff; stroke-width:0.100000; stroke-opacity:1;  stroke-linecap:round; stroke-linejoin:round;fill-rule:evenodd;" d="M 8150860.000000,5252720.000000 8151633.400000,5248831.900000 8153835.800000,5245535.800000 8157131.900000,5243333.400000 8161020.000000,5242560.000000 8247380.000000,5242560.000000 8251268.100000,5243333.400000 8254564.200000,5245535.800000 8256766.600000,5248831.900000 8257540.000000,5252720.000000 8257540.000000,5339080.000000 8256766.600000,5342968.100000 8254564.200000,5346264.200000 8251268.100000,5348466.600000 8247380.000000,5349240.000000 8161020.000000,5349240.000000 8157131.900000,5348466.600000 8153835.800000,5346264.200000 8151633.400000,5342968.100000 8150860.000000,5339080.000000 Z"/> 
<path style="fill:#ffffff; fill-opacity:1.0;  stroke:#ffffff; stroke-width:0.100000; stroke-opacity:1;  stroke-linecap:round; stroke-linejoin:round;fill-rule:evenodd;" d="M 7998460.000000,5252720.000000 7999233.400000,5248831.900000 8001435.800000,5245535.800000 8004731.900000,5243333.400000 8008620.000000,5242560.000000 8094980.000000,5242560.000000 8098868.100000,5243333.400000 8102164.200000,5245535.800000 8104366.600000,5248831.900000 8105140.000000,5252720.000000 8105140.000000,5339080.000000 8104366.600000,5342968.100000 8102164.200000,5346264.200000 8098868.100000,5348466.600000 8094980.000000,5349240.000000 8008620.000000,5349240.000000 8004731.900000,5348466.600000 8001435.800000,5346264.200000 7999233.400000,5342968.100000 7998460.000000,5339080.000000 Z"/> 
</g>
</g> 
</mask><mask id="pads-mask-silkscreen"><rect x="7968100.0" y="4983600.0" width="650000.0" height="650000.0" fill="white"/><g style="fill:#000000; fill-opacity:0.0;  stroke:#000000; stroke-width:0.000000; stroke-opacity:1;  stroke-linecap:round; stroke-linejoin:round;">
<g style="fill:#000000; fill-opacity:1.0;  stroke:#000000; stroke-width:0.100000; stroke-opacity:1;  stroke-linecap:round; stroke-linejoin:round;">
<path style="fill:#000000; fill-opacity:1.0;  stroke:#000000; stroke-width:0.100000; stroke-opacity:1;  stroke-linecap:round; stroke-linejoin:round;fill-rule:evenodd;" d="M 8072120.000000,5425440.000000 8071346.600000,5429328.100000 8069144.200000,5432624.200000 8065848.100000,5434826.600000 8061960.000000,5435600.000000 8011160.000000,5435600.000000 8007271.900000,5434826.600000 8003975.800000,5432624.200000 8001773.400000,5429328.100000 8001000.000000,5425440.000000 8001000.000000,5369560.000000 8001773.400000,5365671.900000 8003975.800000,5362375.800000 8007271.900000,5360173.400000 8011160.000000,5359400.000000 8061960.000000,5359400.000000 8065848.100000,5360173.400000 8069144.200000,5362375.800000 8071346.600000,5365671.900000 8072120.000000,5369560.000000 Z"/> 
<path style="fill:#000000; fill-opacity:1.0;  stroke:#000000; stroke-width:0.100000; stroke-opacity:1;  stroke-linecap:round; stroke-linejoin:round;fill-rule:evenodd;" d="M 8178800.000000,5425440.000000 8178026.600000,5429328.100000 8175824.200000,5432624.200000 8172528.100000,5434826.600000 8168640.000000,5435600.000000 8117840.000000,5435600.000000 8113951.900000,5434826.600000 8110655.800000,5432624.200000 8108453.400000,5429328.100000 8107680.000000,5425440.000000 8107680.000000,5369560.000000 8108453.400000,5365671.900000 8110655.800000,5362375.800000 8113951.900000,5360173.400000 8117840.000000,5359400.000000 8168640.000000,5359400.000000 8172528.100000,5360173.400000 8175824.200000,5362375.800000 8178026.600000,5365671.900000 8178800.000000,5369560.000000 Z"/> 
</g>
<g style="fill:#000000; fill-opacity:1.0;  stroke:#000000; stroke-width:0.100000; stroke-opacity:1;  stroke-linecap:round; stroke-linejoin:round;">
<path style="fill:#000000; fill-opacity:1.0;  stroke:#000000; stroke-width:0.100000; stroke-opacity:1;  stroke-linecap:round; stroke-linejoin:round;fill-rule:evenodd;" d="M 8003540.000000,5026660.000000 8004120.000000,5023744.000000 8005771.800000,5021271.800000 8008244.000000,5019620.000000 8011160.000000,5019040.000000 8117840.000000,5019040.000000 8120756.000000,5019620.000000 8123228.200000,5021271.800000 8124880.000000,5023744.000000 8125460.000000,5026660.000000 8125460.000000,5133340.000000 8124880.000000,5136256.000000 8123228.200000,5138728.200000 8120756.000000,5140380.000000 8117840.000000,5140960.000000 8011160.000000,5140960.000000 8008244.000000,5140380.000000 8005771.800000,5138728.200000 8004120.000000,5136256.000000 8003540.000000,5133340.000000 Z"/> 
<circle cx="8191500.000000" cy="5080000.000000" r="60960.000000"/> 
</g>
<g style="fill:#000000; fill-opacity:1.0;  stroke:#000000; stroke-width:0.100000; stroke-opacity:1;  stroke-linecap:round; stroke-linejoin:round;">
<path style="fill:#000000; fill-opacity:1.0;  stroke:#000000; stroke-width:0.100000; stroke-opacity:1;  stroke-linecap:round; stroke-linejoin:round;fill-rule:evenodd;" d="M 8252460.000000,5565140.000000 8251880.000000,5568056.000000 8250228.200000,5570528.200000 8247756.000000,5572180.000000 8244840.000000,5572760.000000 8138160.000000,5572760.000000 8135244.000000,5572180.000000 8132771.800000,5570528.200000 8131120.000000,5568056.000000 8130540.000000,5565140.000000 8130540.000000,5458460.000000 8131120.000000,5455544.000000 8132771.800000,5453071.800000 8135244.000000,5451420.000000 8138160.000000,5450840.000000 8244840.000000,5450840.000000 8247756.000000,5451420.000000 8250228.200000,5453071.800000 8251880.000000,5455544.000000 8252460.000000,5458460.000000 Z"/> 
<circle cx="8064500.000000" cy="5511800.000000" r="60960.000000"/> 
</g>
<g style="fill:#000000; fill-opacity:1.0;  stroke:#000000; stroke-width:0.100000; stroke-opacity:1;  stroke-linecap:round; stroke-linejoin:round;">
<path style="fill:#000000; fill-opacity:1.0;  stroke:#000000; stroke-width:0.100000; stroke-opacity:1;  stroke-linecap:round; stroke-linejoin:round;fill-rule:evenodd;" d="M 8148320.000000,5222240.000000 8147546.600000,5226128.100000 8145344.200000,5229424.200000 8142048.100000,5231626.600000 8138160.000000,5232400.000000 8087360.000000,5232400.000000 8083471.900000,5231626.600000 8080175.800000,5229424.200000 8077973.400000,5226128.100000 8077200.000000,5222240.000000 8077200.000000,5166360.000000 8077973.400000,5162471.900000 8080175.800000,5159175.800000 8083471.900000,5156973.400000 8087360.000000,5156200.000000 8138160.000000,5156200.000000 8142048.100000,5156973.400000 8145344.200000,5159175.800000 8147546.600000,5162471.900000 8148320.000000,5166360.000000 Z"/> 
<path style="fill:#000000; fill-opacity:1.0;  stroke:#000000; stroke-width:0.100000; stroke-opacity:1;  stroke-linecap:round; stroke-linejoin:round;fill-rule:evenodd;" d="M 8255000.000000,5222240.000000 8254226.600000,5226128.100000 8252024.200000,5229424.200000 8248728.100000,5231626.600000 8244840.000000,5232400.000000 8194040.000000,5232400.000000 8190151.900000,5231626.600000 8186855.800000,5229424.200000 8184653.400000,5226128.100000 8183880.000000,5222240.000000 8183880.000000,5166360.000000 8184653.400000,5162471.900000 8186855.800000,5159175.800000 8190151.900000,5156973.400000 8194040.000000,5156200.000000 8244840.000000,5156200.000000 8248728.100000,5156973.400000 8252024.200000,5159175.800000 8254226.600000,5162471.900000 8255000.000000,5166360.000000 Z"/> 
<path style="fill:#000000; fill-opacity:1.0;  stroke:#000000; stroke-width:0.100000; stroke-opacity:1;  stroke-linecap:round; stroke-linejoin:round;fill-rule:evenodd;" d="M 8214360.000000,5207000.000000 8213586.600000,5210888.100000 8211384.200000,5214184.200000 8208088.100000,5216386.600000 8204200.000000,5217160.000000 8128000.000000,5217160.000000 8124111.900000,5216386.600000 8120815.800000,5214184.200000 8118613.400000,5210888.100000 8117840.000000,5207000.000000 8117840.000000,5181600.000000 8118613.400000,5177711.900000 8120815.800000,5174415.800000 8124111.900000,5172213.400000 8128000.000000,5171440.000000 8204200.000000,5171440.000000 8208088.100000,5172213.400000 8211384.200000,5174415.800000 8213586.600000,5177711.900000 8214360.000000,5181600.000000 Z"/> 
</g>
<g style="fill:#000000; fill-opacity:1.0;  stroke:#000000; stroke-width:0.100000; stroke-opacity:1;  stroke-linecap:round; stroke-linejoin:round;">
<path style="fill:#000000; fill-opacity:1.0;  stroke:#000000; stroke-width:0.100000; stroke-opacity:1;  stroke-linecap:round; stroke-linejoin:round;fill-rule:evenodd;" d="M 8150860.000000,5252720.000000 8151633.400000,5248831.900000 8153835.800000,5245535.800000 8157131.900000,5243333.400000 8161020.000000,5242560.000000 8247380.000000,5242560.000000 8251268.100000,5243333.400000 8254564.200000,5245535.800000 8256766.600000,5248831.900000 8257540.000000,5252720.000000 8257540.000000,5339080.000000 8256766.600000,5342968.100000 8254564.200000,5346264.200000 8251268.100000,5348466.600000 8247380.000000,5349240.000000 8161020.000000,5349240.000000 8157131.900000,5348466.600000 8153835.800000,5346264.200000 8151633.400000,5342968.100000 8150860.000000,5339080.000000 Z"/> 
<path style="fill:#000000; fill-opacity:1.0;  stroke:#000000; stroke-width:0.100000; stroke-opacity:1;  stroke-linecap:round; stroke-linejoin:round;fill-rule:evenodd;" d="M 7998460.000000,5252720.000000 7999233.400000,5248831.900000 8001435.800000,5245535.800000 8004731.900000,5243333.400000 8008620.000000,5242560.000000 8094980.000000,5242560.000000 8098868.100000,5243333.400000 8102164.200000,5245535.800000 8104366.600000,5248831.900000 8105140.000000,5252720.000000 8105140.000000,5339080.000000 8104366.600000,5342968.100000 8102164.200000,5346264.200000 8098868.100000,5348466.600000 8094980.000000,5349240.000000 8008620.000000,5349240.000000 8004731.900000,5348466.600000 8001435.800000,5346264.200000 7999233.400000,5342968.100000 7998460.000000,5339080.000000 Z"/> 
</g>
</g> 
</mask><mask id="hole-mask"><g><rect x="7968100.0" y="4983600.0" fill="white" width="650000.0" height="650000.0"/><polyline stroke-linecap="round" stroke="black" stroke-width="71120.0" points="-0.0 0 0.0 0" transform="translate(8064500.0 5080000.0) rotate(-0.0)"/><polyline stroke-linecap="round" stroke="black" stroke-width="71120.0" points="-0.0 0 0.0 0" transform="translate(8191500.0 5080000.0) rotate(-0.0)"/><polyline stroke-linecap="round" stroke="black" stroke-width="71120.0" points="-0.0 0 0.0 0" transform="translate(8191500.0 5511800.0) rotate(-180.0)"/><polyline stroke-linecap="round" stroke="black" stroke-width="71120.0" points="-0.0 0 0.0 0" transform="translate(8064500.0 5511800.0) rotate(-180.0)"/></g></mask></defs><g transform="" id="boardContainer"><g id="substrate" clip-path="url(#cut-off)" mask="url(#hole-mask)"><g id="substrate-board" style="fill:#4ca06c; stroke:#4ca06c;"><path d=" M 7975600.0 5626100.0 L 7975600.0 4991100.0 L 8610600.0 4991100.0 L 8610600.0 5626100.0 L 7975600.0 5626100.0 " style="fill-rule: evenodd;"/><g style="fill-opacity: 0.0;stroke-width: 15000.000000;stroke-opacity: 1;stroke-linecap: round;stroke-linejoin: round">
<path d="M8610600 5626100 L7975600 5626100 "/>
<path d="M8610600 4991100 L8610600 5626100 "/>
<path d="M7975600 4991100 L7975600 5626100 "/>
<path d="M8610600 4991100 L7975600 4991100 "/>
</g> 
</g><g id="substrate-clad" style="fill:#9c6b28; stroke:#9c6b28;"><g style="fill-opacity: 0.0;stroke-width: 0.000000;stroke-opacity: 1;stroke-linecap: round;stroke-linejoin: round">
<g style="fill-opacity: 1.0;stroke-width: 0.100000;stroke-opacity: 1;stroke-linecap: round;stroke-linejoin: round">
<path style="fill-opacity: 1.0;stroke-width: 0.100000;stroke-opacity: 1;stroke-linecap: round;stroke-linejoin: round;fill-rule: evenodd" d="M 8072120.000000,5425440.000000 8071346.600000,5429328.100000 8069144.200000,5432624.200000 8065848.100000,5434826.600000 8061960.000000,5435600.000000 8011160.000000,5435600.000000 8007271.900000,5434826.600000 8003975.800000,5432624.200000 8001773.400000,5429328.100000 8001000.000000,5425440.000000 8001000.000000,5369560.000000 8001773.400000,5365671.900000 8003975.800000,5362375.800000 8007271.900000,5360173.400000 8011160.000000,5359400.000000 8061960.000000,5359400.000000 8065848.100000,5360173.400000 8069144.200000,5362375.800000 8071346.600000,5365671.900000 8072120.000000,5369560.000000 Z"/> 
<path style="fill-opacity: 1.0;stroke-width: 0.100000;stroke-opacity: 1;stroke-linecap: round;stroke-linejoin: round;fill-rule: evenodd" d="M 8178800.000000,5425440.000000 8178026.600000,5429328.100000 8175824.200000,5432624.200000 8172528.100000,5434826.600000 8168640.000000,5435600.000000 8117840.000000,5435600.000000 8113951.900000,5434826.600000 8110655.800000,5432624.200000 8108453.400000,5429328.100000 8107680.000000,5425440.000000 8107680.000000,5369560.000000 8108453.400000,5365671.900000 8110655.800000,5362375.800000 8113951.900000,5360173.400000 8117840.000000,5359400.000000 8168640.000000,5359400.000000 8172528.100000,5360173.400000 8175824.200000,5362375.800000 8178026.600000,5365671.900000 8178800.000000,5369560.000000 Z"/> 
</g>
<g style="fill-opacity: 1.0;stroke-width: 0.100000;stroke-opacity: 1;stroke-linecap: round;stroke-linejoin: round">
<path style="fill-opacity: 1.0;stroke-width: 0.100000;stroke-opacity: 1;stroke-linecap: round;stroke-linejoin: round;fill-rule: evenodd" d="M 8003540.000000,5026660.000000 8004120.000000,5023744.000000 8005771.800000,5021271.800000 8008244.000000,5019620.000000 8011160.000000,5019040.000000 8117840.000000,5019040.000000 8120756.000000,5019620.000000 8123228.200000,5021271.800000 8124880.000000,5023744.000000 8125460.000000,5026660.000000 8125460.000000,5133340.000000 8124880.000000,5136256.000000 8123228.200000,5138728.200000 8120756.000000,5140380.000000 8117840.000000,5140960.000000 8011160.000000,5140960.000000 8008244.000000,5140380.000000 8005771.800000,5138728.200000 8004120.000000,5136256.000000 8003540.000000,5133340.000000 Z"/> 
<circle cx="8191500.000000" cy="5080000.000000" r="60960.000000"/> 
</g>
<g style="fill-opacity: 1.0;stroke-width: 0.100000;stroke-opacity: 1;stroke-linecap: round;stroke-linejoin: round">
<path style="fill-opacity: 1.0;stroke-width: 0.100000;stroke-opacity: 1;stroke-linecap: round;stroke-linejoin: round;fill-rule: evenodd" d="M 8252460.000000,5565140.000000 8251880.000000,5568056.000000 8250228.200000,5570528.200000 8247756.000000,5572180.000000 8244840.000000,5572760.000000 8138160.000000,5572760.000000 8135244.000000,5572180.000000 8132771.800000,5570528.200000 8131120.000000,5568056.000000 8130540.000000,5565140.000000 8130540.000000,5458460.000000 8131120.000000,5455544.000000 8132771.800000,5453071.800000 8135244.000000,5451420.000000 8138160.000000,5450840.000000 8244840.000000,5450840.000000 8247756.000000,5451420.000000 8250228.200000,5453071.800000 8251880.000000,5455544.000000 8252460.000000,5458460.000000 Z"/> 
<circle cx="8064500.000000" cy="5511800.000000" r="60960.000000"/> 
</g>
<g style="fill-opacity: 1.0;stroke-width: 0.100000;stroke-opacity: 1;stroke-linecap: round;stroke-linejoin: round">
<path style="fill-opacity: 1.0;stroke-width: 0.100000;stroke-opacity: 1;stroke-linecap: round;stroke-linejoin: round;fill-rule: evenodd" d="M 8148320.000000,5222240.000000 8147546.600000,5226128.100000 8145344.200000,5229424.200000 8142048.100000,5231626.600000 8138160.000000,5232400.000000 8087360.000000,5232400.000000 8083471.900000,5231626.600000 8080175.800000,5229424.200000 8077973.400000,5226128.100000 8077200.000000,5222240.000000 8077200.000000,5166360.000000 8077973.400000,5162471.900000 8080175.800000,5159175.800000 8083471.900000,5156973.400000 8087360.000000,5156200.000000 8138160.000000,5156200.000000 8142048.100000,5156973.400000 8145344.200000,5159175.800000 8147546.600000,5162471.900000 8148320.000000,5166360.000000 Z"/> 
<path style="fill-opacity: 1.0;stroke-width: 0.100000;stroke-opacity: 1;stroke-linecap: round;stroke-linejoin: round;fill-rule: evenodd" d="M 8255000.000000,5222240.000000 8254226.600000,5226128.100000 8252024.200000,5229424.200000 8248728.100000,5231626.600000 8244840.000000,5232400.000000 8194040.000000,5232400.000000 8190151.900000,5231626.600000 8186855.800000,5229424.200000 8184653.400000,5226128.100000 8183880.000000,5222240.000000 8183880.000000,5166360.000000 8184653.400000,5162471.900000 8186855.800000,5159175.800000 8190151.900000,5156973.400000 8194040.000000,5156200.000000 8244840.000000,5156200.000000 8248728.100000,5156973.400000 8252024.200000,5159175.800000 8254226.600000,5162471.900000 8255000.000000,5166360.000000 Z"/> 
<path style="fill-opacity: 1.0;stroke-width: 0.100000;stroke-opacity: 1;stroke-linecap: round;stroke-linejoin: round;fill-rule: evenodd" d="M 8214360.000000,5207000.000000 8213586.600000,5210888.100000 8211384.200000,5214184.200000 8208088.100000,5216386.600000 8204200.000000,5217160.000000 8128000.000000,5217160.000000 8124111.900000,5216386.600000 8120815.800000,5214184.200000 8118613.400000,5210888.100000 8117840.000000,5207000.000000 8117840.000000,5181600.000000 8118613.400000,5177711.900000 8120815.800000,5174415.800000 8124111.900000,5172213.400000 8128000.000000,5171440.000000 8204200.000000,5171440.000000 8208088.100000,5172213.400000 8211384.200000,5174415.800000 8213586.600000,5177711.900000 8214360.000000,5181600.000000 Z"/> 
</g>
<g style="fill-opacity: 1.0;stroke-width: 0.100000;stroke-opacity: 1;stroke-linecap: round;stroke-linejoin: round">
<path style="fill-opacity: 1.0;stroke-width: 0.100000;stroke-opacity: 1;stroke-linecap: round;stroke-linejoin: round;fill-rule: evenodd" d="M 8150860.000000,5252720.000000 8151633.400000,5248831.900000 8153835.800000,5245535.800000 8157131.900000,5243333.400000 8161020.000000,5242560.000000 8247380.000000,5242560.000000 8251268.100000,5243333.400000 8254564.200000,5245535.800000 8256766.600000,5248831.900000 8257540.000000,5252720.000000 8257540.000000,5339080.000000 8256766.600000,5342968.100000 8254564.200000,5346264.200000 8251268.100000,5348466.600000 8247380.000000,5349240.000000 8161020.000000,5349240.000000 8157131.900000,5348466.600000 8153835.800000,5346264.200000 8151633.400000,5342968.100000 8150860.000000,5339080.000000 Z"/> 
<path style="fill-opacity: 1.0;stroke-width: 0.100000;stroke-opacity: 1;stroke-linecap: round;stroke-linejoin: round;fill-rule: evenodd" d="M 7998460.000000,5252720.000000 7999233.400000,5248831.900000 8001435.800000,5245535.800000 8004731.900000,5243333.400000 8008620.000000,5242560.000000 8094980.000000,5242560.000000 8098868.100000,5243333.400000 8102164.200000,5245535.800000 8104366.600000,5248831.900000 8105140.000000,5252720.000000 8105140.000000,5339080.000000 8104366.600000,5342968.100000 8102164.200000,5346264.200000 8098868.100000,5348466.600000 8094980.000000,5349240.000000 8008620.000000,5349240.000000 8004731.900000,5348466.600000 8001435.800000,5346264.200000 7999233.400000,5342968.100000 7998460.000000,5339080.000000 Z"/> 
</g>
</g> 
</g><g id="substrate-copper" style="fill:#417e5a; stroke:#417e5a;"><g style="fill-opacity: 0.0;stroke-width: 0.000000;stroke-opacity: 1;stroke-linecap: round;stroke-linejoin: round">
<g style="fill-opacity: 1.0;stroke-width: 0.100000;stroke-opacity: 1;stroke-linecap: round;stroke-linejoin: round">
<path style="fill-opacity: 1.0;stroke-width: 0.100000;stroke-opacity: 1;stroke-linecap: round;stroke-linejoin: round;fill-rule: evenodd" d="M 8061960.000000,5369560.000000 8061960.000000,5425440.000000 8011160.000000,5425440.000000 8011160.000000,5369560.000000 Z"/> 
<path style="fill-opacity: 1.0;stroke-width: 0.100000;stroke-opacity: 1;stroke-linecap: round;stroke-linejoin: round;fill-rule: evenodd" d="M 8168640.000000,5369560.000000 8168640.000000,5425440.000000 8117840.000000,5425440.000000 8117840.000000,5369560.000000 Z"/> 
</g>
<g style="fill-opacity: 1.0;stroke-width: 0.100000;stroke-opacity: 1;stroke-linecap: round;stroke-linejoin: round">
<path style="fill-opacity: 1.0;stroke-width: 0.100000;stroke-opacity: 1;stroke-linecap: round;stroke-linejoin: round;fill-rule: evenodd" d="M 8011160.000000,5133340.000000 8011160.000000,5026660.000000 8117840.000000,5026660.000000 8117840.000000,5133340.000000 Z"/> 
<circle cx="8191500.000000" cy="5080000.000000" r="53340.000000"/> 
</g>
<g style="fill-opacity: 1.0;stroke-width: 0.100000;stroke-opacity: 1;stroke-linecap: round;stroke-linejoin: round">
<path style="fill-opacity: 1.0;stroke-width: 0.100000;stroke-opacity: 1;stroke-linecap: round;stroke-linejoin: round;fill-rule: evenodd" d="M 8244840.000000,5458460.000000 8244840.000000,5565140.000000 8138160.000000,5565140.000000 8138160.000000,5458460.000000 Z"/> 
<circle cx="8064500.000000" cy="5511800.000000" r="53340.000000"/> 
</g>
<g style="fill-opacity: 1.0;stroke-width: 0.100000;stroke-opacity: 1;stroke-linecap: round;stroke-linejoin: round">
<path style="fill-opacity: 1.0;stroke-width: 0.100000;stroke-opacity: 1;stroke-linecap: round;stroke-linejoin: round;fill-rule: evenodd" d="M 8138160.000000,5166360.000000 8138160.000000,5222240.000000 8087360.000000,5222240.000000 8087360.000000,5166360.000000 Z"/> 
<path style="fill-opacity: 1.0;stroke-width: 0.100000;stroke-opacity: 1;stroke-linecap: round;stroke-linejoin: round;fill-rule: evenodd" d="M 8244840.000000,5166360.000000 8244840.000000,5222240.000000 8194040.000000,5222240.000000 8194040.000000,5166360.000000 Z"/> 
<path style="fill-opacity: 1.0;stroke-width: 0.100000;stroke-opacity: 1;stroke-linecap: round;stroke-linejoin: round;fill-rule: evenodd" d="M 8204200.000000,5181600.000000 8204200.000000,5207000.000000 8128000.000000,5207000.000000 8128000.000000,5181600.000000 Z"/> 
</g>
<g style="fill-opacity: 1.0;stroke-width: 0.100000;stroke-opacity: 1;stroke-linecap: round;stroke-linejoin: round">
<path style="fill-opacity: 1.0;stroke-width: 0.100000;stroke-opacity: 1;stroke-linecap: round;stroke-linejoin: round;fill-rule: evenodd" d="M 8161020.000000,5339080.000000 8161020.000000,5252720.000000 8247380.000000,5252720.000000 8247380.000000,5339080.000000 Z"/> 
<path style="fill-opacity: 1.0;stroke-width: 0.100000;stroke-opacity: 1;stroke-linecap: round;stroke-linejoin: round;fill-rule: evenodd" d="M 8008620.000000,5339080.000000 8008620.000000,5252720.000000 8094980.000000,5252720.000000 8094980.000000,5339080.000000 Z"/> 
</g>
<g style="fill-opacity: 0.0;stroke-width: 50800.000000;stroke-opacity: 1;stroke-linecap: round;stroke-linejoin: round">
<path d="M8219440 5194300 L8219440 5107940 "/>
<path d="M8219440 5107940 L8191500 5080000 "/>
</g>
<g style="fill-opacity: 0.0;stroke-width: 25400.000000;stroke-opacity: 1;stroke-linecap: round;stroke-linejoin: round">
<path d="M8143240 5397500 L8064500 5476240 "/>
<path d="M8064500 5476240 L8064500 5511800 "/>
<path d="M8112760 5194300 L8112760 5214620 "/>
<path d="M8194040 5295900 L8204200 5295900 "/>
<path d="M8112760 5214620 L8194040 5295900 "/>
</g>
<g style="fill-opacity: 0.0;stroke-width: 50800.000000;stroke-opacity: 1;stroke-linecap: round;stroke-linejoin: round">
<path d="M8064500 5080000 L8036560 5107940 "/>
<path d="M8036560 5280660 L8051800 5295900 "/>
<path d="M8036560 5107940 L8036560 5280660 "/>
<path d="M8036560 5397500 L8036560 5311140 "/>
<path d="M8036560 5311140 L8051800 5295900 "/>
</g>
</g> 
</g><g id="substrate-pads" style="fill:#b5ae30; stroke:#b5ae30;" mask="url(#pads-mask)"><g style="fill-opacity: 0.0;stroke-width: 0.000000;stroke-opacity: 1;stroke-linecap: round;stroke-linejoin: round">
<g style="fill-opacity: 1.0;stroke-width: 0.100000;stroke-opacity: 1;stroke-linecap: round;stroke-linejoin: round">
<path style="fill-opacity: 1.0;stroke-width: 0.100000;stroke-opacity: 1;stroke-linecap: round;stroke-linejoin: round;fill-rule: evenodd" d="M 8061960.000000,5369560.000000 8061960.000000,5425440.000000 8011160.000000,5425440.000000 8011160.000000,5369560.000000 Z"/> 
<path style="fill-opacity: 1.0;stroke-width: 0.100000;stroke-opacity: 1;stroke-linecap: round;stroke-linejoin: round;fill-rule: evenodd" d="M 8168640.000000,5369560.000000 8168640.000000,5425440.000000 8117840.000000,5425440.000000 8117840.000000,5369560.000000 Z"/> 
</g>
<g style="fill-opacity: 1.0;stroke-width: 0.100000;stroke-opacity: 1;stroke-linecap: round;stroke-linejoin: round">
<path style="fill-opacity: 1.0;stroke-width: 0.100000;stroke-opacity: 1;stroke-linecap: round;stroke-linejoin: round;fill-rule: evenodd" d="M 8011160.000000,5133340.000000 8011160.000000,5026660.000000 8117840.000000,5026660.000000 8117840.000000,5133340.000000 Z"/> 
<circle cx="8191500.000000" cy="5080000.000000" r="53340.000000"/> 
</g>
<g style="fill-opacity: 1.0;stroke-width: 0.100000;stroke-opacity: 1;stroke-linecap: round;stroke-linejoin: round">
<path style="fill-opacity: 1.0;stroke-width: 0.100000;stroke-opacity: 1;stroke-linecap: round;stroke-linejoin: round;fill-rule: evenodd" d="M 8244840.000000,5458460.000000 8244840.000000,5565140.000000 8138160.000000,5565140.000000 8138160.000000,5458460.000000 Z"/> 
<circle cx="8064500.000000" cy="5511800.000000" r="53340.000000"/> 
</g>
<g style="fill-opacity: 1.0;stroke-width: 0.100000;stroke-opacity: 1;stroke-linecap: round;stroke-linejoin: round">
<path style="fill-opacity: 1.0;stroke-width: 0.100000;stroke-opacity: 1;stroke-linecap: round;stroke-linejoin: round;fill-rule: evenodd" d="M 8138160.000000,5166360.000000 8138160.000000,5222240.000000 8087360.000000,5222240.000000 8087360.000000,5166360.000000 Z"/> 
<path style="fill-opacity: 1.0;stroke-width: 0.100000;stroke-opacity: 1;stroke-linecap: round;stroke-linejoin: round;fill-rule: evenodd" d="M 8244840.000000,5166360.000000 8244840.000000,5222240.000000 8194040.000000,5222240.000000 8194040.000000,5166360.000000 Z"/> 
<path style="fill-opacity: 1.0;stroke-width: 0.100000;stroke-opacity: 1;stroke-linecap: round;stroke-linejoin: round;fill-rule: evenodd" d="M 8204200.000000,5181600.000000 8204200.000000,5207000.000000 8128000.000000,5207000.000000 8128000.000000,5181600.000000 Z"/> 
</g>
<g style="fill-opacity: 1.0;stroke-width: 0.100000;stroke-opacity: 1;stroke-linecap: round;stroke-linejoin: round">
<path style="fill-opacity: 1.0;stroke-width: 0.100000;stroke-opacity: 1;stroke-linecap: round;stroke-linejoin: round;fill-rule: evenodd" d="M 8161020.000000,5339080.000000 8161020.000000,5252720.000000 8247380.000000,5252720.000000 8247380.000000,5339080.000000 Z"/> 
<path style="fill-opacity: 1.0;stroke-width: 0.100000;stroke-opacity: 1;stroke-linecap: round;stroke-linejoin: round;fill-rule: evenodd" d="M 8008620.000000,5339080.000000 8008620.000000,5252720.000000 8094980.000000,5252720.000000 8094980.000000,5339080.000000 Z"/> 
</g>
<g style="fill-opacity: 0.0;stroke-width: 50800.000000;stroke-opacity: 1;stroke-linecap: round;stroke-linejoin: round">
<path d="M8219440 5194300 L8219440 5107940 "/>
<path d="M8219440 5107940 L8191500 5080000 "/>
</g>
<g style="fill-opacity: 0.0;stroke-width: 25400.000000;stroke-opacity: 1;stroke-linecap: round;stroke-linejoin: round">
<path d="M8143240 5397500 L8064500 5476240 "/>
<path d="M8064500 5476240 L8064500 5511800 "/>
<path d="M8112760 5194300 L8112760 5214620 "/>
<path d="M8194040 5295900 L8204200 5295900 "/>
<path d="M8112760 5214620 L8194040 5295900 "/>
</g>
<g style="fill-opacity: 0.0;stroke-width: 50800.000000;stroke-opacity: 1;stroke-linecap: round;stroke-linejoin: round">
<path d="M8064500 5080000 L8036560 5107940 "/>
<path d="M8036560 5280660 L8051800 5295900 "/>
<path d="M8036560 5107940 L8036560 5280660 "/>
<path d="M8036560 5397500 L8036560 5311140 "/>
<path d="M8036560 5311140 L8051800 5295900 "/>
</g>
</g> 
</g><g id="substrate-silk" style="fill:#f0f0f0; stroke:#f0f0f0;" mask="url(#pads-mask-silkscreen)"><g style="fill-opacity: 0.0;stroke-width: 15240.000000;stroke-opacity: 1;stroke-linecap: round;stroke-linejoin: round">
<g transform="rotate(-270.000000 8382000.000000 5308600.000000)">
<text x="8382000.000000" y="5359400.000000" textLength="580571.500000" font-size="101600.000000" lengthAdjust="spacingAndGlyphs" text-anchor="middle" opacity="0">20140703</text>
</g>
<g class="stroked-text"><desc>20140703</desc>
<path d="M8427961 5032828 L8432800 5036457 L8437638 5043714 L8437638 5061857 L8432800 5069114 L8427961 5072742 L8418285 5076371 L8408609 5076371 L8394095 5072742 L8336038 5029200 L8336038 5076371 "/>
<path d="M8437638 5123542 L8437638 5130800 L8432800 5138057 L8427961 5141685 L8418285 5145314 L8398933 5148942 L8374742 5148942 L8355390 5145314 L8345714 5141685 L8340876 5138057 L8336038 5130800 L8336038 5123542 L8340876 5116285 L8345714 5112657 L8355390 5109028 L8374742 5105400 L8398933 5105400 L8418285 5109028 L8427961 5112657 L8432800 5116285 L8437638 5123542 "/>
<path d="M8336038 5221514 L8336038 5177971 "/>
<path d="M8336038 5199742 L8437638 5199742 L8423123 5192485 L8413447 5185228 L8408609 5177971 "/>
<path d="M8403771 5286828 L8336038 5286828 "/>
<path d="M8442476 5268685 L8369904 5250542 L8369904 5297714 "/>
<path d="M8437638 5341257 L8437638 5348514 L8432800 5355771 L8427961 5359400 L8418285 5363028 L8398933 5366657 L8374742 5366657 L8355390 5363028 L8345714 5359400 L8340876 5355771 L8336038 5348514 L8336038 5341257 L8340876 5334000 L8345714 5330371 L8355390 5326742 L8374742 5323114 L8398933 5323114 L8418285 5326742 L8427961 5330371 L8432800 5334000 L8437638 5341257 "/>
<path d="M8437638 5392057 L8437638 5442857 L8336038 5410200 "/>
<path d="M8437638 5486400 L8437638 5493657 L8432800 5500914 L8427961 5504542 L8418285 5508171 L8398933 5511800 L8374742 5511800 L8355390 5508171 L8345714 5504542 L8340876 5500914 L8336038 5493657 L8336038 5486400 L8340876 5479142 L8345714 5475514 L8355390 5471885 L8374742 5468257 L8398933 5468257 L8418285 5471885 L8427961 5475514 L8432800 5479142 L8437638 5486400 "/>
<path d="M8437638 5537200 L8437638 5584371 L8398933 5558971 L8398933 5569857 L8394095 5577114 L8389257 5580742 L8379580 5584371 L8355390 5584371 L8345714 5580742 L8340876 5577114 L8336038 5569857 L8336038 5548085 L8340876 5540828 L8345714 5537200 "/>
</g></g>
<g style="fill-opacity: 0.0;stroke-width: 12700.000000;stroke-opacity: 1;stroke-linecap: round;stroke-linejoin: round">
<g transform="rotate(-270.000000 8521700.000000 5308600.000000)">
<text x="8521700.000000" y="5346700.000000" textLength="614897.700000" font-size="81280.000000" lengthAdjust="spacingAndGlyphs" text-anchor="middle" opacity="0">RUMBAFLOCK</text>
</g>
<g class="stroked-text"><desc>RUMBAFLOCK</desc>
<path d="M8487228 5060405 L8523514 5040085 "/>
<path d="M8487228 5025571 L8563428 5025571 L8563428 5048794 L8559800 5054600 L8556171 5057502 L8548914 5060405 L8538028 5060405 L8530771 5057502 L8527142 5054600 L8523514 5048794 L8523514 5025571 "/>
<path d="M8563428 5086531 L8501742 5086531 L8494485 5089434 L8490857 5092337 L8487228 5098142 L8487228 5109754 L8490857 5115560 L8494485 5118462 L8501742 5121365 L8563428 5121365 "/>
<path d="M8487228 5150394 L8563428 5150394 L8509000 5170714 L8563428 5191034 L8487228 5191034 "/>
<path d="M8527142 5240382 L8523514 5249091 L8519885 5251994 L8512628 5254897 L8501742 5254897 L8494485 5251994 L8490857 5249091 L8487228 5243285 L8487228 5220062 L8563428 5220062 L8563428 5240382 L8559800 5246188 L8556171 5249091 L8548914 5251994 L8541657 5251994 L8534400 5249091 L8530771 5246188 L8527142 5240382 L8527142 5220062 "/>
<path d="M8509000 5278120 L8509000 5307148 "/>
<path d="M8487228 5272314 L8563428 5292634 L8487228 5312954 "/>
<path d="M8527142 5353594 L8527142 5333274 "/>
<path d="M8487228 5333274 L8563428 5333274 L8563428 5362302 "/>
<path d="M8487228 5414554 L8487228 5385525 L8563428 5385525 "/>
<path d="M8563428 5446485 L8563428 5458097 L8559800 5463902 L8552542 5469708 L8538028 5472611 L8512628 5472611 L8498114 5469708 L8490857 5463902 L8487228 5458097 L8487228 5446485 L8490857 5440680 L8498114 5434874 L8512628 5431971 L8538028 5431971 L8552542 5434874 L8559800 5440680 L8563428 5446485 "/>
<path d="M8494485 5533571 L8490857 5530668 L8487228 5521960 L8487228 5516154 L8490857 5507445 L8498114 5501640 L8505371 5498737 L8519885 5495834 L8530771 5495834 L8545285 5498737 L8552542 5501640 L8559800 5507445 L8563428 5516154 L8563428 5521960 L8559800 5530668 L8556171 5533571 "/>
<path d="M8487228 5559697 L8563428 5559697 "/>
<path d="M8487228 5594531 L8530771 5568405 "/>
<path d="M8563428 5594531 L8519885 5559697 "/>
</g></g>
<g style="fill-opacity: 0.0;stroke-width: 10160.000000;stroke-opacity: 1;stroke-linecap: round;stroke-linejoin: round">
<text x="8089900.000000" y="5422900.000000" textLength="95854.800000" font-size="54186.600000" lengthAdjust="spacingAndGlyphs" text-anchor="middle" opacity="0">R2</text>
<g class="stroked-text"><desc>R2</desc>
<path d="M8083126 5420964 L8069580 5401612 "/>
<path d="M8059903 5420964 L8059903 5380324 L8075385 5380324 L8079256 5382260 L8081191 5384195 L8083126 5388065 L8083126 5393871 L8081191 5397741 L8079256 5399677 L8075385 5401612 L8059903 5401612 "/>
<path d="M8098608 5384195 L8100543 5382260 L8104414 5380324 L8114090 5380324 L8117960 5382260 L8119896 5384195 L8121831 5388065 L8121831 5391936 L8119896 5397741 L8096673 5420964 L8121831 5420964 "/>
</g></g>
<g style="fill-opacity: 0.0;stroke-width: 20320.000000;stroke-opacity: 1;stroke-linecap: round;stroke-linejoin: round">
<text x="8128000.000000" y="5130038.000000" textLength="208594.500000" font-size="133434.600000" lengthAdjust="spacingAndGlyphs" text-anchor="middle" opacity="0">P2</text>
<g class="stroked-text"><desc>P2</desc>
<path d="M8054134 5125272 L8054134 5025196 L8092258 5025196 L8101789 5029962 L8106555 5034727 L8111320 5044258 L8111320 5058555 L8106555 5068086 L8101789 5072851 L8092258 5077617 L8054134 5077617 "/>
<path d="M8149444 5034727 L8154210 5029962 L8163741 5025196 L8187569 5025196 L8197100 5029962 L8201865 5034727 L8206631 5044258 L8206631 5053789 L8201865 5068086 L8144679 5125272 L8206631 5125272 "/>
</g><text x="8129000.000000" y="5578038.000000" textLength="221802.500000" font-size="133434.600000" lengthAdjust="spacingAndGlyphs" text-anchor="middle" opacity="0">P1</text>
<g class="stroked-text"><desc>P1</desc>
<path d="M8055134 5573272 L8055134 5473196 L8093258 5473196 L8102789 5477962 L8107555 5482727 L8112320 5492258 L8112320 5506555 L8107555 5516086 L8102789 5520851 L8093258 5525617 L8055134 5525617 "/>
<path d="M8207631 5573272 L8150444 5573272 "/>
<path d="M8179038 5573272 L8179038 5473196 L8169506 5487493 L8159975 5497024 L8150444 5501789 "/>
</g></g>
<g style="fill-opacity: 0.0;stroke-width: 10160.000000;stroke-opacity: 1;stroke-linecap: round;stroke-linejoin: round">
<text x="8166100.000000" y="5217160.000000" textLength="105760.800000" font-size="54186.600000" lengthAdjust="spacingAndGlyphs" text-anchor="middle" opacity="0">R3</text>
<g class="stroked-text"><desc>R3</desc>
<path d="M8159326 5215224 L8145780 5195872 "/>
<path d="M8136103 5215224 L8136103 5174584 L8151585 5174584 L8155456 5176520 L8157391 5178455 L8159326 5182325 L8159326 5188131 L8157391 5192001 L8155456 5193937 L8151585 5195872 L8136103 5195872 "/>
<path d="M8172873 5174584 L8198031 5174584 L8184484 5190066 L8190290 5190066 L8194160 5192001 L8196096 5193937 L8198031 5197807 L8198031 5207483 L8196096 5211354 L8194160 5213289 L8190290 5215224 L8178679 5215224 L8174808 5213289 L8172873 5211354 "/>
</g></g>
<g style="fill-opacity: 0.0;stroke-width: 15240.000000;stroke-opacity: 1;stroke-linecap: round;stroke-linejoin: round">
<text x="8128000.000000" y="5326380.000000" textLength="132225.100000" font-size="81280.000000" lengthAdjust="spacingAndGlyphs" text-anchor="middle" opacity="0">D1</text>
<g class="stroked-text"><desc>D1</desc>
<path d="M8083005 5323477 L8083005 5262517 L8097520 5262517 L8106228 5265420 L8112034 5271225 L8114937 5277031 L8117840 5288642 L8117840 5297351 L8114937 5308962 L8112034 5314768 L8106228 5320574 L8097520 5323477 L8083005 5323477 "/>
<path d="M8175897 5323477 L8141062 5323477 "/>
<path d="M8158480 5323477 L8158480 5262517 L8152674 5271225 L8146868 5277031 L8141062 5279934 "/>
</g></g>
<g style="fill-opacity: 0.0;stroke-width: 20320.000000;stroke-opacity: 1;stroke-linecap: round;stroke-linejoin: round">
<path d="M8178800 5435600 L8001000 5435600 "/>
<path d="M8178800 5359400 L8178800 5435600 "/>
<path d="M8001000 5359400 L8178800 5359400 "/>
<path d="M8001000 5435600 L8001000 5359400 "/>
<path d="M8255000 5232400 L8077200 5232400 "/>
<path d="M8255000 5156200 L8255000 5232400 "/>
<path d="M8077200 5156200 L8255000 5156200 "/>
<path d="M8077200 5232400 L8077200 5156200 "/>
<path d="M8265160 5356860 L8265160 5234940 "/>
<path d="M7990840 5356860 L8265160 5356860 "/>
<path d="M7990840 5234940 L7990840 5356860 "/>
<path d="M8265160 5234940 L7990840 5234940 "/>
<path d="M8107680 5328920 L8148320 5295900 "/>
<path d="M8107680 5262880 L8107680 5328920 "/>
<path d="M8148320 5295900 L8107680 5262880 "/>
<path d="M8122920 5303520 L8122920 5288280 "/>
</g> 
</g><g id="substrate-outline" style="fill:#000000; stroke:#000000; stroke-width: 15000.0"><g style="fill-opacity: 0.0;stroke-opacity: 1;stroke-linecap: round;stroke-linejoin: round">
<path d="M8610600 5626100 L7975600 5626100 "/>
<path d="M8610600 4991100 L8610600 5626100 "/>
<path d="M7975600 4991100 L7975600 5626100 "/>
<path d="M8610600 4991100 L7975600 4991100 "/>
</g> 
<path d="M -35560.0 0.0 A 35560.0 35560.0 0 1 1 35560.0 0.0 L 35560.0 -0.0 A 35560.0 35560.0 0 1 1 -35560.0 -0.0 Z" transform="translate(8064500.0 5080000.0) rotate(-0.0)"/><path d="M -35560.0 0.0 A 35560.0 35560.0 0 1 1 35560.0 0.0 L 35560.0 -0.0 A 35560.0 35560.0 0 1 1 -35560.0 -0.0 Z" transform="translate(8191500.0 5080000.0) rotate(-0.0)"/><path d="M -35560.0 0.0 A 35560.0 35560.0 0 1 1 35560.0 0.0 L 35560.0 -0.0 A 35560.0 35560.0 0 1 1 -35560.0 -0.0 Z" transform="translate(8191500.0 5511800.0) rotate(-180.0)"/><path d="M -35560.0 0.0 A 35560.0 35560.0 0 1 1 35560.0 0.0 L 35560.0 -0.0 A 35560.0 35560.0 0 1 1 -35560.0 -0.0 Z" transform="translate(8064500.0 5511800.0) rotate(-180.0)"/></g></g></g></svg>