<!DOCTYPE svg PUBLIC "-//W3C//DTD SVG 1.1//EN" "http://www.w3.org/Graphics/SVG/1.1/DTD/svg11.dtd">
<svg xmlns="http://www.w3.org/2000/svg" version="1.1" width="33.75mm" height="33.75mm" viewBox="7520000.0 7520000.0 3375000.0 3375000.0">
            <title>Picture generated by PcbDraw </title>
            <desc>Picture generated by PcbDraw</desc>
        <defs><clipPath id="cut-off"><path d=" M 7620000.0 7620000.0 L 10795000.0 7620000.0 L 10795000.0 10795000.0 L 7620000.0 10795000.0 L 7620000.0 7620000.0 " style="fill-rule: evenodd;"/></clipPath><mask id="pads-mask"><g style="fill:#ffffff; fill-opacity:0.0;  stroke:#ffffff; stroke-width:0.000000; stroke-opacity:1;  stroke-linecap:round; stroke-linejoin:round;">
<g style="fill:#ffffff; fill-opacity:1.0;  stroke:#ffffff; stroke-width:0.100000; stroke-opacity:1;  stroke-linecap:round; stroke-linejoin:round;">
<path style="fill:#ffffff; fill-opacity:1.0;  stroke:#ffffff; stroke-width:0.100000; stroke-opacity:1;  stroke-linecap:round; stroke-linejoin:round;fill-rule:evenodd;" d="M 10393680.000000,9090660.000000 10394453.400000,9086771.900000 10396655.800000,9083475.800000 10399951.900000,9081273.400000 10403840.000000,9080500.000000 10454640.000000,9080500.000000 10458528.100000,9081273.400000 10461824.200000,9083475.800000 10464026.600000,9086771.900000 10464800.000000,9090660.000000 10464800.000000,9146540.000000 10464026.600000,9150428.100000 10461824.200000,9153724.200000 10458528.100000,9155926.600000 10454640.000000,9156700.000000 10403840.000000,9156700.000000 10399951.900000,9155926.600000 10396655.800000,9153724.200000 10394453.400000,9150428.100000 10393680.000000,9146540.000000 Z"/> 
<path style="fill:#ffffff; fill-opacity:1.0;  stroke:#ffffff; stroke-width:0.100000; stroke-opacity:1;  stroke-linecap:round; stroke-linejoin:round;fill-rule:evenodd;" d="M 10287000.000000,9090660.000000 10287773.400000,9086771.900000 10289975.800000,9083475.800000 10293271.900000,9081273.400000 10297160.000000,9080500.000000 10347960.000000,9080500.000000 10351848.100000,9081273.400000 10355144.200000,9083475.800000 10357346.600000,9086771.900000 10358120.000000,9090660.000000 10358120.000000,9146540.000000 10357346.600000,9150428.100000 10355144.200000,9153724.200000 10351848.100000,9155926.600000 10347960.000000,9156700.000000 10297160.000000,9156700.000000 10293271.900000,9155926.600000 10289975.800000,9153724.200000 10287773.400000,9150428.100000 10287000.000000,9146540.000000 Z"/> 
</g>
<g style="fill:#ffffff; fill-opacity:1.0;  stroke:#ffffff; stroke-width:0.100000; stroke-opacity:1;  stroke-linecap:round; stroke-linejoin:round;">
<path style="fill:#ffffff; fill-opacity:1.0;  stroke:#ffffff; stroke-width:0.100000; stroke-opacity:1;  stroke-linecap:round; stroke-linejoin:round;fill-rule:evenodd;" d="M 10746740.000000,8765540.000000 10749656.000000,8766120.000000 10752128.200000,8767771.800000 10753780.000000,8770244.000000 10754360.000000,8773160.000000 10754360.000000,8879840.000000 10753780.000000,8882756.000000 10752128.200000,8885228.200000 10749656.000000,8886880.000000 10746740.000000,8887460.000000 10640060.000000,8887460.000000 10637144.000000,8886880.000000 10634671.800000,8885228.200000 10633020.000000,8882756.000000 10632440.000000,8879840.000000 10632440.000000,8773160.000000 10633020.000000,8770244.000000 10634671.800000,8767771.800000 10637144.000000,8766120.000000 10640060.000000,8765540.000000 Z"/> 
<circle cx="10693400.000000" cy="8953500.000000" r="60960.000000"/> 
</g>
<g style="fill:#ffffff; fill-opacity:1.0;  stroke:#ffffff; stroke-width:0.100000; stroke-opacity:1;  stroke-linecap:round; stroke-linejoin:round;">
<path style="fill:#ffffff; fill-opacity:1.0;  stroke:#ffffff; stroke-width:0.100000; stroke-opacity:1;  stroke-linecap:round; stroke-linejoin:round;fill-rule:evenodd;" d="M 10332180.000000,8955000.000000 10332760.000000,8952084.000000 10334411.800000,8949611.800000 10336884.000000,8947960.000000 10339800.000000,8947380.000000 10439800.000000,8947380.000000 10442716.000000,8947960.000000 10445188.200000,8949611.800000 10446840.000000,8952084.000000 10447420.000000,8955000.000000 10447420.000000,9025000.000000 10446840.000000,9027916.000000 10445188.200000,9030388.200000 10442716.000000,9032040.000000 10439800.000000,9032620.000000 10339800.000000,9032620.000000 10336884.000000,9032040.000000 10334411.800000,9030388.200000 10332760.000000,9027916.000000 10332180.000000,9025000.000000 Z"/> 
<path style="fill:#ffffff; fill-opacity:1.0;  stroke:#ffffff; stroke-width:0.100000; stroke-opacity:1;  stroke-linecap:round; stroke-linejoin:round;fill-rule:evenodd;" d="M 10522180.000000,8955000.000000 10522760.000000,8952084.000000 10524411.800000,8949611.800000 10526884.000000,8947960.000000 10529800.000000,8947380.000000 10589800.000000,8947380.000000 10592716.000000,8947960.000000 10595188.200000,8949611.800000 10596840.000000,8952084.000000 10597420.000000,8955000.000000 10597420.000000,9025000.000000 10596840.000000,9027916.000000 10595188.200000,9030388.200000 10592716.000000,9032040.000000 10589800.000000,9032620.000000 10529800.000000,9032620.000000 10526884.000000,9032040.000000 10524411.800000,9030388.200000 10522760.000000,9027916.000000 10522180.000000,9025000.000000 Z"/> 
<path style="fill:#ffffff; fill-opacity:1.0;  stroke:#ffffff; stroke-width:0.100000; stroke-opacity:1;  stroke-linecap:round; stroke-linejoin:round;fill-rule:evenodd;" d="M 10522180.000000,8755000.000000 10522760.000000,8752084.000000 10524411.800000,8749611.800000 10526884.000000,8747960.000000 10529800.000000,8747380.000000 10589800.000000,8747380.000000 10592716.000000,8747960.000000 10595188.200000,8749611.800000 10596840.000000,8752084.000000 10597420.000000,8755000.000000 10597420.000000,8825000.000000 10596840.000000,8827916.000000 10595188.200000,8830388.200000 10592716.000000,8832040.000000 10589800.000000,8832620.000000 10529800.000000,8832620.000000 10526884.000000,8832040.000000 10524411.800000,8830388.200000 10522760.000000,8827916.000000 10522180.000000,8825000.000000 Z"/> 
<path style="fill:#ffffff; fill-opacity:1.0;  stroke:#ffffff; stroke-width:0.100000; stroke-opacity:1;  stroke-linecap:round; stroke-linejoin:round;fill-rule:evenodd;" d="M 10332180.000000,8755000.000000 10332760.000000,8752084.000000 10334411.800000,8749611.800000 10336884.000000,8747960.000000 10339800.000000,8747380.000000 10399800.000000,8747380.000000 10402716.000000,8747960.000000 10405188.200000,8749611.800000 10406840.000000,8752084.000000 10407420.000000,8755000.000000 10407420.000000,8825000.000000 10406840.000000,8827916.000000 10405188.200000,8830388.200000 10402716.000000,8832040.000000 10399800.000000,8832620.000000 10339800.000000,8832620.000000 10336884.000000,8832040.000000 10334411.800000,8830388.200000 10332760.000000,8827916.000000 10332180.000000,8825000.000000 Z"/> 
</g>
<g style="fill:#ffffff; fill-opacity:1.0;  stroke:#ffffff; stroke-width:0.100000; stroke-opacity:1;  stroke-linecap:round; stroke-linejoin:round;">
<circle cx="9390888.000000" cy="8120126.000000" r="82677.000000"/> 
</g>
<g style="fill:#ffffff; fill-opacity:1.0;  stroke:#ffffff; stroke-width:0.100000; stroke-opacity:1;  stroke-linecap:round; stroke-linejoin:round;">
<circle cx="9640824.000000" cy="8120126.000000" r="82677.000000"/> 
</g>
<g style="fill:#ffffff; fill-opacity:1.0;  stroke:#ffffff; stroke-width:0.100000; stroke-opacity:1;  stroke-linecap:round; stroke-linejoin:round;">
<circle cx="9840976.000000" cy="8120126.000000" r="82677.000000"/> 
</g>
<g style="fill:#ffffff; fill-opacity:1.0;  stroke:#ffffff; stroke-width:0.100000; stroke-opacity:1;  stroke-linecap:round; stroke-linejoin:round;">
<circle cx="10090912.000000" cy="8120126.000000" r="82677.000000"/> 
</g>
<g style="fill:#ffffff; fill-opacity:1.0;  stroke:#ffffff; stroke-width:0.100000; stroke-opacity:1;  stroke-linecap:round; stroke-linejoin:round;">
<circle cx="9510776.000000" cy="7910068.000000" r="72644.000000"/> 
</g>
<g style="fill:#ffffff; fill-opacity:1.0;  stroke:#ffffff; stroke-width:0.100000; stroke-opacity:1;  stroke-linecap:round; stroke-linejoin:round;">
<circle cx="9971024.000000" cy="7910068.000000" r="72644.000000"/> 
</g>
<g style="fill:#ffffff; fill-opacity:1.0;  stroke:#ffffff; stroke-width:0.100000; stroke-opacity:1;  stroke-linecap:round; stroke-linejoin:round;">
<circle cx="9170924.000000" cy="7910068.000000" r="182626.000000"/> 
</g>
<g style="fill:#ffffff; fill-opacity:1.0;  stroke:#ffffff; stroke-width:0.100000; stroke-opacity:1;  stroke-linecap:round; stroke-linejoin:round;">
<circle cx="10310876.000000" cy="7910068.000000" r="182626.000000"/> 
</g>
<g style="fill:#ffffff; fill-opacity:1.0;  stroke:#ffffff; stroke-width:0.100000; stroke-opacity:1;  stroke-linecap:round; stroke-linejoin:round;">
<circle cx="10090900.000000" cy="9726000.000000" r="82620.000000"/> 
</g>
<g style="fill:#ffffff; fill-opacity:1.0;  stroke:#ffffff; stroke-width:0.100000; stroke-opacity:1;  stroke-linecap:round; stroke-linejoin:round;">
<circle cx="9840900.000000" cy="9726000.000000" r="82620.000000"/> 
</g>
<g style="fill:#ffffff; fill-opacity:1.0;  stroke:#ffffff; stroke-width:0.100000; stroke-opacity:1;  stroke-linecap:round; stroke-linejoin:round;">
<circle cx="9640900.000000" cy="9726000.000000" r="82620.000000"/> 
</g>
<g style="fill:#ffffff; fill-opacity:1.0;  stroke:#ffffff; stroke-width:0.100000; stroke-opacity:1;  stroke-linecap:round; stroke-linejoin:round;">
<circle cx="9390900.000000" cy="9726000.000000" r="82620.000000"/> 
</g>
<g style="fill:#ffffff; fill-opacity:1.0;  stroke:#ffffff; stroke-width:0.100000; stroke-opacity:1;  stroke-linecap:round; stroke-linejoin:round;">
<circle cx="10397900.000000" cy="9997000.000000" r="182620.000000"/> 
</g>
<g style="fill:#ffffff; fill-opacity:1.0;  stroke:#ffffff; stroke-width:0.100000; stroke-opacity:1;  stroke-linecap:round; stroke-linejoin:round;">
<circle cx="9083900.000000" cy="9997000.000000" r="182626.000000"/> 
</g>
</g> 
</mask><mask id="pads-mask-silkscreen"><rect x="7612500.0" y="7595000.0" width="3190000.0" height="3207500.0" fill="white"/><g style="fill:#000000; fill-opacity:0.0;  stroke:#000000; stroke-width:0.000000; stroke-opacity:1;  stroke-linecap:round; stroke-linejoin:round;">
<g style="fill:#000000; fill-opacity:1.0;  stroke:#000000; stroke-width:0.100000; stroke-opacity:1;  stroke-linecap:round; stroke-linejoin:round;">
<path style="fill:#000000; fill-opacity:1.0;  stroke:#000000; stroke-width:0.100000; stroke-opacity:1;  stroke-linecap:round; stroke-linejoin:round;fill-rule:evenodd;" d="M 10393680.000000,9090660.000000 10394453.400000,9086771.900000 10396655.800000,9083475.800000 10399951.900000,9081273.400000 10403840.000000,9080500.000000 10454640.000000,9080500.000000 10458528.100000,9081273.400000 10461824.200000,9083475.800000 10464026.600000,9086771.900000 10464800.000000,9090660.000000 10464800.000000,9146540.000000 10464026.600000,9150428.100000 10461824.200000,9153724.200000 10458528.100000,9155926.600000 10454640.000000,9156700.000000 10403840.000000,9156700.000000 10399951.900000,9155926.600000 10396655.800000,9153724.200000 10394453.400000,9150428.100000 10393680.000000,9146540.000000 Z"/> 
<path style="fill:#000000; fill-opacity:1.0;  stroke:#000000; stroke-width:0.100000; stroke-opacity:1;  stroke-linecap:round; stroke-linejoin:round;fill-rule:evenodd;" d="M 10287000.000000,9090660.000000 10287773.400000,9086771.900000 10289975.800000,9083475.800000 10293271.900000,9081273.400000 10297160.000000,9080500.000000 10347960.000000,9080500.000000 10351848.100000,9081273.400000 10355144.200000,9083475.800000 10357346.600000,9086771.900000 10358120.000000,9090660.000000 10358120.000000,9146540.000000 10357346.600000,9150428.100000 10355144.200000,9153724.200000 10351848.100000,9155926.600000 10347960.000000,9156700.000000 10297160.000000,9156700.000000 10293271.900000,9155926.600000 10289975.800000,9153724.200000 10287773.400000,9150428.100000 10287000.000000,9146540.000000 Z"/> 
</g>
<g style="fill:#000000; fill-opacity:1.0;  stroke:#000000; stroke-width:0.100000; stroke-opacity:1;  stroke-linecap:round; stroke-linejoin:round;">
<path style="fill:#000000; fill-opacity:1.0;  stroke:#000000; stroke-width:0.100000; stroke-opacity:1;  stroke-linecap:round; stroke-linejoin:round;fill-rule:evenodd;" d="M 10746740.000000,8765540.000000 10749656.000000,8766120.000000 10752128.200000,8767771.800000 10753780.000000,8770244.000000 10754360.000000,8773160.000000 10754360.000000,8879840.000000 10753780.000000,8882756.000000 10752128.200000,8885228.200000 10749656.000000,8886880.000000 10746740.000000,8887460.000000 10640060.000000,8887460.000000 10637144.000000,8886880.000000 10634671.800000,8885228.200000 10633020.000000,8882756.000000 10632440.000000,8879840.000000 10632440.000000,8773160.000000 10633020.000000,8770244.000000 10634671.800000,8767771.800000 10637144.000000,8766120.000000 10640060.000000,8765540.000000 Z"/> 
<circle cx="10693400.000000" cy="8953500.000000" r="60960.000000"/> 
</g>
<g style="fill:#000000; fill-opacity:1.0;  stroke:#000000; stroke-width:0.100000; stroke-opacity:1;  stroke-linecap:round; stroke-linejoin:round;">
<path style="fill:#000000; fill-opacity:1.0;  stroke:#000000; stroke-width:0.100000; stroke-opacity:1;  stroke-linecap:round; stroke-linejoin:round;fill-rule:evenodd;" d="M 10332180.000000,8955000.000000 10332760.000000,8952084.000000 10334411.800000,8949611.800000 10336884.000000,8947960.000000 10339800.000000,8947380.000000 10439800.000000,8947380.000000 10442716.000000,8947960.000000 10445188.200000,8949611.800000 10446840.000000,8952084.000000 10447420.000000,8955000.000000 10447420.000000,9025000.000000 10446840.000000,9027916.000000 10445188.200000,9030388.200000 10442716.000000,9032040.000000 10439800.000000,9032620.000000 10339800.000000,9032620.000000 10336884.000000,9032040.000000 10334411.800000,9030388.200000 10332760.000000,9027916.000000 10332180.000000,9025000.000000 Z"/> 
<path style="fill:#000000; fill-opacity:1.0;  stroke:#000000; stroke-width:0.100000; stroke-opacity:1;  stroke-linecap:round; stroke-linejoin:round;fill-rule:evenodd;" d="M 10522180.000000,8955000.000000 10522760.000000,8952084.000000 10524411.800000,8949611.800000 10526884.000000,8947960.000000 10529800.000000,8947380.000000 10589800.000000,8947380.000000 10592716.000000,8947960.000000 10595188.200000,8949611.800000 10596840.000000,8952084.000000 10597420.000000,8955000.000000 10597420.000000,9025000.000000 10596840.000000,9027916.000000 10595188.200000,9030388.200000 10592716.000000,9032040.000000 10589800.000000,9032620.000000 10529800.000000,9032620.000000 10526884.000000,9032040.000000 10524411.800000,9030388.200000 10522760.000000,9027916.000000 10522180.000000,9025000.000000 Z"/> 
<path style="fill:#000000; fill-opacity:1.0;  stroke:#000000; stroke-width:0.100000; stroke-opacity:1;  stroke-linecap:round; stroke-linejoin:round;fill-rule:evenodd;" d="M 10522180.000000,8755000.000000 10522760.000000,8752084.000000 10524411.800000,8749611.800000 10526884.000000,8747960.000000 10529800.000000,8747380.000000 10589800.000000,8747380.000000 10592716.000000,8747960.000000 10595188.200000,8749611.800000 10596840.000000,8752084.000000 10597420.000000,8755000.000000 10597420.000000,8825000.000000 10596840.000000,8827916.000000 10595188.200000,8830388.200000 10592716.000000,8832040.000000 10589800.000000,8832620.000000 10529800.000000,8832620.000000 10526884.000000,8832040.000000 10524411.800000,8830388.200000 10522760.000000,8827916.000000 10522180.000000,8825000.000000 Z"/> 
<path style="fill:#000000; fill-opacity:1.0;  stroke:#000000; stroke-width:0.100000; stroke-opacity:1;  stroke-linecap:round; stroke-linejoin:round;fill-rule:evenodd;" d="M 10332180.000000,8755000.000000 10332760.000000,8752084.000000 10334411.800000,8749611.800000 10336884.000000,8747960.000000 10339800.000000,8747380.000000 10399800.000000,8747380.000000 10402716.000000,8747960.000000 10405188.200000,8749611.800000 10406840.000000,8752084.000000 10407420.000000,8755000.000000 10407420.000000,8825000.000000 10406840.000000,8827916.000000 10405188.200000,8830388.200000 10402716.000000,8832040.000000 10399800.000000,8832620.000000 10339800.000000,8832620.000000 10336884.000000,8832040.000000 10334411.800000,8830388.200000 10332760.000000,8827916.000000 10332180.000000,8825000.000000 Z"/> 
</g>
<g style="fill:#000000; fill-opacity:1.0;  stroke:#000000; stroke-width:0.100000; stroke-opacity:1;  stroke-linecap:round; stroke-linejoin:round;">
<circle cx="9390888.000000" cy="8120126.000000" r="82677.000000"/> 
</g>
<g style="fill:#000000; fill-opacity:1.0;  stroke:#000000; stroke-width:0.100000; stroke-opacity:1;  stroke-linecap:round; stroke-linejoin:round;">
<circle cx="9640824.000000" cy="8120126.000000" r="82677.000000"/> 
</g>
<g style="fill:#000000; fill-opacity:1.0;  stroke:#000000; stroke-width:0.100000; stroke-opacity:1;  stroke-linecap:round; stroke-linejoin:round;">
<circle cx="9840976.000000" cy="8120126.000000" r="82677.000000"/> 
</g>
<g style="fill:#000000; fill-opacity:1.0;  stroke:#000000; stroke-width:0.100000; stroke-opacity:1;  stroke-linecap:round; stroke-linejoin:round;">
<circle cx="10090912.000000" cy="8120126.000000" r="82677.000000"/> 
</g>
<g style="fill:#000000; fill-opacity:1.0;  stroke:#000000; stroke-width:0.100000; stroke-opacity:1;  stroke-linecap:round; stroke-linejoin:round;">
<circle cx="9510776.000000" cy="7910068.000000" r="72644.000000"/> 
</g>
<g style="fill:#000000; fill-opacity:1.0;  stroke:#000000; stroke-width:0.100000; stroke-opacity:1;  stroke-linecap:round; stroke-linejoin:round;">
<circle cx="9971024.000000" cy="7910068.000000" r="72644.000000"/> 
</g>
<g style="fill:#000000; fill-opacity:1.0;  stroke:#000000; stroke-width:0.100000; stroke-opacity:1;  stroke-linecap:round; stroke-linejoin:round;">
<circle cx="9170924.000000" cy="7910068.000000" r="182626.000000"/> 
</g>
<g style="fill:#000000; fill-opacity:1.0;  stroke:#000000; stroke-width:0.100000; stroke-opacity:1;  stroke-linecap:round; stroke-linejoin:round;">
<circle cx="10310876.000000" cy="7910068.000000" r="182626.000000"/> 
</g>
<g style="fill:#000000; fill-opacity:1.0;  stroke:#000000; stroke-width:0.100000; stroke-opacity:1;  stroke-linecap:round; stroke-linejoin:round;">
<circle cx="10090900.000000" cy="9726000.000000" r="82620.000000"/> 
</g>
<g style="fill:#000000; fill-opacity:1.0;  stroke:#000000; stroke-width:0.100000; stroke-opacity:1;  stroke-linecap:round; stroke-linejoin:round;">
<circle cx="9840900.000000" cy="9726000.000000" r="82620.000000"/> 
</g>
<g style="fill:#000000; fill-opacity:1.0;  stroke:#000000; stroke-width:0.100000; stroke-opacity:1;  stroke-linecap:round; stroke-linejoin:round;">
<circle cx="9640900.000000" cy="9726000.000000" r="82620.000000"/> 
</g>
<g style="fill:#000000; fill-opacity:1.0;  stroke:#000000; stroke-width:0.100000; stroke-opacity:1;  stroke-linecap:round; stroke-linejoin:round;">
<circle cx="9390900.000000" cy="9726000.000000" r="82620.000000"/> 
</g>
<g style="fill:#000000; fill-opacity:1.0;  stroke:#000000; stroke-width:0.100000; stroke-opacity:1;  stroke-linecap:round; stroke-linejoin:round;">
<circle cx="10397900.000000" cy="9997000.000000" r="182620.000000"/> 
</g>
<g style="fill:#000000; fill-opacity:1.0;  stroke:#000000; stroke-width:0.100000; stroke-opacity:1;  stroke-linecap:round; stroke-linejoin:round;">
<circle cx="9083900.000000" cy="9997000.000000" r="182626.000000"/> 
</g>
</g> 
</mask><mask id="hole-mask"><g><rect x="7612500.0" y="7595000.0" fill="white" width="3190000.0" height="3207500.0"/><polyline stroke-linecap="round" stroke="black" stroke-width="71120.0" points="-0.0 0 0.0 0" transform="translate(10693400.0 8826500.0) rotate(-270.0)"/><polyline stroke-linecap="round" stroke="black" stroke-width="71120.0" points="-0.0 0 0.0 0" transform="translate(10693400.0 8953500.0) rotate(-270.0)"/><polyline stroke-linecap="round" stroke="black" stroke-width="100076.0" points="-0.0 0 0.0 0" transform="translate(9390888.0 8120126.0) rotate(-180.0)"/><polyline stroke-linecap="round" stroke="black" stroke-width="100076.0" points="-0.0 0 0.0 0" transform="translate(9640824.0 8120126.0) rotate(-180.0)"/><polyline stroke-linecap="round" stroke="black" stroke-width="100076.0" points="-0.0 0 0.0 0" transform="translate(9840976.0 8120126.0) rotate(-180.0)"/><polyline stroke-linecap="round" stroke="black" stroke-width="100076.0" points="-0.0 0 0.0 0" transform="translate(10090912.0 8120126.0) rotate(-180.0)"/><polyline stroke-linecap="round" stroke="black" stroke-width="130048.0" points="-0.0 0 0.0 0" transform="translate(9510776.0 7910068.0) rotate(-180.0)"/><polyline stroke-linecap="round" stroke="black" stroke-width="130048.0" points="-0.0 0 0.0 0" transform="translate(9971024.0 7910068.0) rotate(-180.0)"/><polyline stroke-linecap="round" stroke="black" stroke-width="249936.0" points="-0.0 0 0.0 0" transform="translate(9170924.0 7910068.0) rotate(-180.0)"/><polyline stroke-linecap="round" stroke="black" stroke-width="249936.0" points="-0.0 0 0.0 0" transform="translate(10310876.0 7910068.0) rotate(-180.0)"/><polyline stroke-linecap="round" stroke="black" stroke-width="92000.0" points="-0.0 0 0.0 0" transform="translate(10090900.0 9726000.0) rotate(-0.0)"/><polyline stroke-linecap="round" stroke="black" stroke-width="92000.0" points="-0.0 0 0.0 0" transform="translate(9840900.0 9726000.0) rotate(-0.0)"/><polyline stroke-linecap="round" stroke="black" stroke-width="92000.0" points="-0.0 0 0.0 0" transform="translate(9640900.0 9726000.0) rotate(-0.0)"/><polyline stroke-linecap="round" stroke="black" stroke-width="92000.0" points="-0.0 0 0.0 0" transform="translate(9390900.0 9726000.0) rotate(-0.0)"/><polyline stroke-linecap="round" stroke="black" stroke-width="230000.0" points="-0.0 0 0.0 0" transform="translate(10397900.0 9997000.0) rotate(-0.0)"/><polyline stroke-linecap="round" stroke="black" stroke-width="230000.0" points="-0.0 0 0.0 0" transform="translate(9083900.0 9997000.0) rotate(-0.0)"/></g></mask></defs><g transform="" id="boardContainer"><g id="substrate" clip-path="url(#cut-off)" mask="url(#hole-mask)"><g id="substrate-board" style="fill:#4ca06c; stroke:#4ca06c;"><path d=" M 7620000.0 7620000.0 L 10795000.0 7620000.0 L 10795000.0 10795000.0 L 7620000.0 10795000.0 L 7620000.0 7620000.0 " style="fill-rule: evenodd;"/><g style="fill-opacity: 0.0;stroke-width: 15000.000000;stroke-opacity: 1;stroke-linecap: round;stroke-linejoin: round">
<path d="M7620000 10795000 L7620000 7620000 "/>
<path d="M10795000 10795000 L7620000 10795000 "/>
<path d="M10795000 7620000 L10795000 10795000 "/>
<path d="M7620000 7620000 L10795000 7620000 "/>
</g> 
</g><g id="substrate-clad" style="fill:#9c6b28; stroke:#9c6b28;"><g style="fill-opacity: 0.0;stroke-width: 0.000000;stroke-opacity: 1;stroke-linecap: round;stroke-linejoin: round">
<g style="fill-opacity: 1.0;stroke-width: 0.100000;stroke-opacity: 1;stroke-linecap: round;stroke-linejoin: round">
<path style="fill-opacity: 1.0;stroke-width: 0.100000;stroke-opacity: 1;stroke-linecap: round;stroke-linejoin: round;fill-rule: evenodd" d="M 10393680.000000,9090660.000000 10394453.400000,9086771.900000 10396655.800000,9083475.800000 10399951.900000,9081273.400000 10403840.000000,9080500.000000 10454640.000000,9080500.000000 10458528.100000,9081273.400000 10461824.200000,9083475.800000 10464026.600000,9086771.900000 10464800.000000,9090660.000000 10464800.000000,9146540.000000 10464026.600000,9150428.100000 10461824.200000,9153724.200000 10458528.100000,9155926.600000 10454640.000000,9156700.000000 10403840.000000,9156700.000000 10399951.900000,9155926.600000 10396655.800000,9153724.200000 10394453.400000,9150428.100000 10393680.000000,9146540.000000 Z"/> 
<path style="fill-opacity: 1.0;stroke-width: 0.100000;stroke-opacity: 1;stroke-linecap: round;stroke-linejoin: round;fill-rule: evenodd" d="M 10287000.000000,9090660.000000 10287773.400000,9086771.900000 10289975.800000,9083475.800000 10293271.900000,9081273.400000 10297160.000000,9080500.000000 10347960.000000,9080500.000000 10351848.100000,9081273.400000 10355144.200000,9083475.800000 10357346.600000,9086771.900000 10358120.000000,9090660.000000 10358120.000000,9146540.000000 10357346.600000,9150428.100000 10355144.200000,9153724.200000 10351848.100000,9155926.600000 10347960.000000,9156700.000000 10297160.000000,9156700.000000 10293271.900000,9155926.600000 10289975.800000,9153724.200000 10287773.400000,9150428.100000 10287000.000000,9146540.000000 Z"/> 
</g>
<g style="fill-opacity: 1.0;stroke-width: 0.100000;stroke-opacity: 1;stroke-linecap: round;stroke-linejoin: round">
<path style="fill-opacity: 1.0;stroke-width: 0.100000;stroke-opacity: 1;stroke-linecap: round;stroke-linejoin: round;fill-rule: evenodd" d="M 10746740.000000,8765540.000000 10749656.000000,8766120.000000 10752128.200000,8767771.800000 10753780.000000,8770244.000000 10754360.000000,8773160.000000 10754360.000000,8879840.000000 10753780.000000,8882756.000000 10752128.200000,8885228.200000 10749656.000000,8886880.000000 10746740.000000,8887460.000000 10640060.000000,8887460.000000 10637144.000000,8886880.000000 10634671.800000,8885228.200000 10633020.000000,8882756.000000 10632440.000000,8879840.000000 10632440.000000,8773160.000000 10633020.000000,8770244.000000 10634671.800000,8767771.800000 10637144.000000,8766120.000000 10640060.000000,8765540.000000 Z"/> 
<circle cx="10693400.000000" cy="8953500.000000" r="60960.000000"/> 
</g>
<g style="fill-opacity: 1.0;stroke-width: 0.100000;stroke-opacity: 1;stroke-linecap: round;stroke-linejoin: round">
<path style="fill-opacity: 1.0;stroke-width: 0.100000;stroke-opacity: 1;stroke-linecap: round;stroke-linejoin: round;fill-rule: evenodd" d="M 10332180.000000,8955000.000000 10332760.000000,8952084.000000 10334411.800000,8949611.800000 10336884.000000,8947960.000000 10339800.000000,8947380.000000 10439800.000000,8947380.000000 10442716.000000,8947960.000000 10445188.200000,8949611.800000 10446840.000000,8952084.000000 10447420.000000,8955000.000000 10447420.000000,9025000.000000 10446840.000000,9027916.000000 10445188.200000,9030388.200000 10442716.000000,9032040.000000 10439800.000000,9032620.000000 10339800.000000,9032620.000000 10336884.000000,9032040.000000 10334411.800000,9030388.200000 10332760.000000,9027916.000000 10332180.000000,9025000.000000 Z"/> 
<path style="fill-opacity: 1.0;stroke-width: 0.100000;stroke-opacity: 1;stroke-linecap: round;stroke-linejoin: round;fill-rule: evenodd" d="M 10522180.000000,8955000.000000 10522760.000000,8952084.000000 10524411.800000,8949611.800000 10526884.000000,8947960.000000 10529800.000000,8947380.000000 10589800.000000,8947380.000000 10592716.000000,8947960.000000 10595188.200000,8949611.800000 10596840.000000,8952084.000000 10597420.000000,8955000.000000 10597420.000000,9025000.000000 10596840.000000,9027916.000000 10595188.200000,9030388.200000 10592716.000000,9032040.000000 10589800.000000,9032620.000000 10529800.000000,9032620.000000 10526884.000000,9032040.000000 10524411.800000,9030388.200000 10522760.000000,9027916.000000 10522180.000000,9025000.000000 Z"/> 
<path style="fill-opacity: 1.0;stroke-width: 0.100000;stroke-opacity: 1;stroke-linecap: round;stroke-linejoin: round;fill-rule: evenodd" d="M 10522180.000000,8755000.000000 10522760.000000,8752084.000000 10524411.800000,8749611.800000 10526884.000000,8747960.000000 10529800.000000,8747380.000000 10589800.000000,8747380.000000 10592716.000000,8747960.000000 10595188.200000,8749611.800000 10596840.000000,8752084.000000 10597420.000000,8755000.000000 10597420.000000,8825000.000000 10596840.000000,8827916.000000 10595188.200000,8830388.200000 10592716.000000,8832040.000000 10589800.000000,8832620.000000 10529800.000000,8832620.000000 10526884.000000,8832040.000000 10524411.800000,8830388.200000 10522760.000000,8827916.000000 10522180.000000,8825000.000000 Z"/> 
<path style="fill-opacity: 1.0;stroke-width: 0.100000;stroke-opacity: 1;stroke-linecap: round;stroke-linejoin: round;fill-rule: evenodd" d="M 10332180.000000,8755000.000000 10332760.000000,8752084.000000 10334411.800000,8749611.800000 10336884.000000,8747960.000000 10339800.000000,8747380.000000 10399800.000000,8747380.000000 10402716.000000,8747960.000000 10405188.200000,8749611.800000 10406840.000000,8752084.000000 10407420.000000,8755000.000000 10407420.000000,8825000.000000 10406840.000000,8827916.000000 10405188.200000,8830388.200000 10402716.000000,8832040.000000 10399800.000000,8832620.000000 10339800.000000,8832620.000000 10336884.000000,8832040.000000 10334411.800000,8830388.200000 10332760.000000,8827916.000000 10332180.000000,8825000.000000 Z"/> 
</g>
<g style="fill-opacity: 1.0;stroke-width: 0.100000;stroke-opacity: 1;stroke-linecap: round;stroke-linejoin: round">
<circle cx="9390888.000000" cy="8120126.000000" r="82677.000000"/> 
</g>
<g style="fill-opacity: 1.0;stroke-width: 0.100000;stroke-opacity: 1;stroke-linecap: round;stroke-linejoin: round">
<circle cx="9640824.000000" cy="8120126.000000" r="82677.000000"/> 
</g>
<g style="fill-opacity: 1.0;stroke-width: 0.100000;stroke-opacity: 1;stroke-linecap: round;stroke-linejoin: round">
<circle cx="9840976.000000" cy="8120126.000000" r="82677.000000"/> 
</g>
<g style="fill-opacity: 1.0;stroke-width: 0.100000;stroke-opacity: 1;stroke-linecap: round;stroke-linejoin: round">
<circle cx="10090912.000000" cy="8120126.000000" r="82677.000000"/> 
</g>
<g style="fill-opacity: 1.0;stroke-width: 0.100000;stroke-opacity: 1;stroke-linecap: round;stroke-linejoin: round">
<circle cx="9510776.000000" cy="7910068.000000" r="72644.000000"/> 
</g>
<g style="fill-opacity: 1.0;stroke-width: 0.100000;stroke-opacity: 1;stroke-linecap: round;stroke-linejoin: round">
<circle cx="9971024.000000" cy="7910068.000000" r="72644.000000"/> 
</g>
<g style="fill-opacity: 1.0;stroke-width: 0.100000;stroke-opacity: 1;stroke-linecap: round;stroke-linejoin: round">
<circle cx="9170924.000000" cy="7910068.000000" r="182626.000000"/> 
</g>
<g style="fill-opacity: 1.0;stroke-width: 0.100000;stroke-opacity: 1;stroke-linecap: round;stroke-linejoin: round">
<circle cx="10310876.000000" cy="7910068.000000" r="182626.000000"/> 
</g>
<g style="fill-opacity: 1.0;stroke-width: 0.100000;stroke-opacity: 1;stroke-linecap: round;stroke-linejoin: round">
<circle cx="10090900.000000" cy="9726000.000000" r="82620.000000"/> 
</g>
<g style="fill-opacity: 1.0;stroke-width: 0.100000;stroke-opacity: 1;stroke-linecap: round;stroke-linejoin: round">
<circle cx="9840900.000000" cy="9726000.000000" r="82620.000000"/> 
</g>
<g style="fill-opacity: 1.0;stroke-width: 0.100000;stroke-opacity: 1;stroke-linecap: round;stroke-linejoin: round">
<circle cx="9640900.000000" cy="9726000.000000" r="82620.000000"/> 
</g>
<g style="fill-opacity: 1.0;stroke-width: 0.100000;stroke-opacity: 1;stroke-linecap: round;stroke-linejoin: round">
<circle cx="9390900.000000" cy="9726000.000000" r="82620.000000"/> 
</g>
<g style="fill-opacity: 1.0;stroke-width: 0.100000;stroke-opacity: 1;stroke-linecap: round;stroke-linejoin: round">
<circle cx="10397900.000000" cy="9997000.000000" r="182620.000000"/> 
</g>
<g style="fill-opacity: 1.0;stroke-width: 0.100000;stroke-opacity: 1;stroke-linecap: round;stroke-linejoin: round">
<circle cx="9083900.000000" cy="9997000.000000" r="182626.000000"/> 
</g>
</g> 
</g><g id="substrate-copper" style="fill:#417e5a; stroke:#417e5a;"><g style="fill-opacity: 0.0;stroke-width: 0.000000;stroke-opacity: 1;stroke-linecap: round;stroke-linejoin: round">
<g style="fill-opacity: 1.0;stroke-width: 0.100000;stroke-opacity: 1;stroke-linecap: round;stroke-linejoin: round">
<path style="fill-opacity: 1.0;stroke-width: 0.100000;stroke-opacity: 1;stroke-linecap: round;stroke-linejoin: round;fill-rule: evenodd" d="M 10403840.000000,9146540.000000 10403840.000000,9090660.000000 10454640.000000,9090660.000000 10454640.000000,9146540.000000 Z"/> 
<path style="fill-opacity: 1.0;stroke-width: 0.100000;stroke-opacity: 1;stroke-linecap: round;stroke-linejoin: round;fill-rule: evenodd" d="M 10297160.000000,9146540.000000 10297160.000000,9090660.000000 10347960.000000,9090660.000000 10347960.000000,9146540.000000 Z"/> 
</g>
<g style="fill-opacity: 1.0;stroke-width: 0.100000;stroke-opacity: 1;stroke-linecap: round;stroke-linejoin: round">
<path style="fill-opacity: 1.0;stroke-width: 0.100000;stroke-opacity: 1;stroke-linecap: round;stroke-linejoin: round;fill-rule: evenodd" d="M 10640060.000000,8773160.000000 10746740.000000,8773160.000000 10746740.000000,8879840.000000 10640060.000000,8879840.000000 Z"/> 
<circle cx="10693400.000000" cy="8953500.000000" r="53340.000000"/> 
</g>
<g style="fill-opacity: 1.0;stroke-width: 0.100000;stroke-opacity: 1;stroke-linecap: round;stroke-linejoin: round">
<path style="fill-opacity: 1.0;stroke-width: 0.100000;stroke-opacity: 1;stroke-linecap: round;stroke-linejoin: round;fill-rule: evenodd" d="M 10339800.000000,9025000.000000 10339800.000000,8955000.000000 10439800.000000,8955000.000000 10439800.000000,9025000.000000 Z"/> 
<path style="fill-opacity: 1.0;stroke-width: 0.100000;stroke-opacity: 1;stroke-linecap: round;stroke-linejoin: round;fill-rule: evenodd" d="M 10529800.000000,9025000.000000 10529800.000000,8955000.000000 10589800.000000,8955000.000000 10589800.000000,9025000.000000 Z"/> 
<path style="fill-opacity: 1.0;stroke-width: 0.100000;stroke-opacity: 1;stroke-linecap: round;stroke-linejoin: round;fill-rule: evenodd" d="M 10529800.000000,8825000.000000 10529800.000000,8755000.000000 10589800.000000,8755000.000000 10589800.000000,8825000.000000 Z"/> 
<path style="fill-opacity: 1.0;stroke-width: 0.100000;stroke-opacity: 1;stroke-linecap: round;stroke-linejoin: round;fill-rule: evenodd" d="M 10339800.000000,8825000.000000 10339800.000000,8755000.000000 10399800.000000,8755000.000000 10399800.000000,8825000.000000 Z"/> 
</g>
<g style="fill-opacity: 1.0;stroke-width: 0.100000;stroke-opacity: 1;stroke-linecap: round;stroke-linejoin: round">
<circle cx="9390888.000000" cy="8120126.000000" r="75057.000000"/> 
</g>
<g style="fill-opacity: 1.0;stroke-width: 0.100000;stroke-opacity: 1;stroke-linecap: round;stroke-linejoin: round">
<circle cx="9640824.000000" cy="8120126.000000" r="75057.000000"/> 
</g>
<g style="fill-opacity: 1.0;stroke-width: 0.100000;stroke-opacity: 1;stroke-linecap: round;stroke-linejoin: round">
<circle cx="9840976.000000" cy="8120126.000000" r="75057.000000"/> 
</g>
<g style="fill-opacity: 1.0;stroke-width: 0.100000;stroke-opacity: 1;stroke-linecap: round;stroke-linejoin: round">
<circle cx="10090912.000000" cy="8120126.000000" r="75057.000000"/> 
</g>
<g style="fill-opacity: 1.0;stroke-width: 0.100000;stroke-opacity: 1;stroke-linecap: round;stroke-linejoin: round">
<circle cx="9510776.000000" cy="7910068.000000" r="65024.000000"/> 
</g>
<g style="fill-opacity: 1.0;stroke-width: 0.100000;stroke-opacity: 1;stroke-linecap: round;stroke-linejoin: round">
<circle cx="9971024.000000" cy="7910068.000000" r="65024.000000"/> 
</g>
<g style="fill-opacity: 1.0;stroke-width: 0.100000;stroke-opacity: 1;stroke-linecap: round;stroke-linejoin: round">
<circle cx="9170924.000000" cy="7910068.000000" r="175006.000000"/> 
</g>
<g style="fill-opacity: 1.0;stroke-width: 0.100000;stroke-opacity: 1;stroke-linecap: round;stroke-linejoin: round">
<circle cx="10310876.000000" cy="7910068.000000" r="175006.000000"/> 
</g>
<g style="fill-opacity: 1.0;stroke-width: 0.100000;stroke-opacity: 1;stroke-linecap: round;stroke-linejoin: round">
<circle cx="10090900.000000" cy="9726000.000000" r="75000.000000"/> 
</g>
<g style="fill-opacity: 1.0;stroke-width: 0.100000;stroke-opacity: 1;stroke-linecap: round;stroke-linejoin: round">
<circle cx="9840900.000000" cy="9726000.000000" r="75000.000000"/> 
</g>
<g style="fill-opacity: 1.0;stroke-width: 0.100000;stroke-opacity: 1;stroke-linecap: round;stroke-linejoin: round">
<circle cx="9640900.000000" cy="9726000.000000" r="75000.000000"/> 
</g>
<g style="fill-opacity: 1.0;stroke-width: 0.100000;stroke-opacity: 1;stroke-linecap: round;stroke-linejoin: round">
<circle cx="9390900.000000" cy="9726000.000000" r="75000.000000"/> 
</g>
<g style="fill-opacity: 1.0;stroke-width: 0.100000;stroke-opacity: 1;stroke-linecap: round;stroke-linejoin: round">
<circle cx="10397900.000000" cy="9997000.000000" r="175000.000000"/> 
</g>
<g style="fill-opacity: 1.0;stroke-width: 0.100000;stroke-opacity: 1;stroke-linecap: round;stroke-linejoin: round">
<circle cx="9083900.000000" cy="9997000.000000" r="175006.000000"/> 
</g>
<g style="fill-opacity: 0.0;stroke-width: 50800.000000;stroke-opacity: 1;stroke-linecap: round;stroke-linejoin: round">
<path d="M10693400 8826500 L10596300 8826500 "/>
<path d="M10596300 8826500 L10559800 8790000 "/>
<path d="M10259060 8936300 L10259060 9055100 "/>
<path d="M10259060 9055100 L10322560 9118600 "/>
<path d="M10259060 8936300 L10259060 8900740 "/>
<path d="M10259060 8900740 L10369800 8790000 "/>
<path d="M10236200 8959160 L9840976 8959160 "/>
<path d="M9829800 8966200 L9840976 8966200 "/>
<path d="M9833936 8966200 L9829800 8966200 "/>
<path d="M9840976 8959160 L9833936 8966200 "/>
<path d="M9840976 9393500 L9840396 9392920 "/>
<path d="M9839960 9392920 L9840976 9392920 "/>
<path d="M9840396 9392920 L9839960 9392920 "/>
<path d="M9840976 9393500 L9840396 9392920 "/>
</g>
<g style="fill-opacity: 0.0;stroke-width: 162560.000000;stroke-opacity: 1;stroke-linecap: round;stroke-linejoin: round">
<path d="M9840976 8120126 L9840976 8966200 "/>
<path d="M9840976 8966200 L9840976 9392920 "/>
<path d="M9840976 9392920 L9840976 9725924 "/>
<path d="M9840976 9725924 L9840900 9726000 "/>
</g>
<g style="fill-opacity: 0.0;stroke-width: 50800.000000;stroke-opacity: 1;stroke-linecap: round;stroke-linejoin: round">
<path d="M10259060 8936300 L10236200 8959160 "/>
<path d="M10310876 7910068 L10173208 7772400 "/>
<path d="M9308592 7772400 L9170924 7910068 "/>
<path d="M10173208 7772400 L9308592 7772400 "/>
<path d="M10397900 9997000 L9083900 9997000 "/>
<path d="M10389800 8990000 L10412400 8990000 "/>
<path d="M10412400 8990000 L10486100 9063700 "/>
<path d="M10429240 9118600 L10431200 9118600 "/>
<path d="M10431200 9118600 L10486100 9063700 "/>
<path d="M10486100 9063700 L10559800 8990000 "/>
<path d="M10693400 8953500 L10596300 8953500 "/>
<path d="M10596300 8953500 L10559800 8990000 "/>
<path d="M9390888 9725988 L9390900 9726000 "/>
<path d="M9390888 8120126 L9390888 9725988 "/>
</g>
<g style="fill-opacity: 0.0;stroke-width: 162560.000000;stroke-opacity: 1;stroke-linecap: round;stroke-linejoin: round">
<path d="M9640824 8120126 L9640824 9725924 "/>
<path d="M9640824 9725924 L9640900 9726000 "/>
</g>
</g> 
</g><g id="substrate-pads" style="fill:#b5ae30; stroke:#b5ae30;" mask="url(#pads-mask)"><g style="fill-opacity: 0.0;stroke-width: 0.000000;stroke-opacity: 1;stroke-linecap: round;stroke-linejoin: round">
<g style="fill-opacity: 1.0;stroke-width: 0.100000;stroke-opacity: 1;stroke-linecap: round;stroke-linejoin: round">
<path style="fill-opacity: 1.0;stroke-width: 0.100000;stroke-opacity: 1;stroke-linecap: round;stroke-linejoin: round;fill-rule: evenodd" d="M 10403840.000000,9146540.000000 10403840.000000,9090660.000000 10454640.000000,9090660.000000 10454640.000000,9146540.000000 Z"/> 
<path style="fill-opacity: 1.0;stroke-width: 0.100000;stroke-opacity: 1;stroke-linecap: round;stroke-linejoin: round;fill-rule: evenodd" d="M 10297160.000000,9146540.000000 10297160.000000,9090660.000000 10347960.000000,9090660.000000 10347960.000000,9146540.000000 Z"/> 
</g>
<g style="fill-opacity: 1.0;stroke-width: 0.100000;stroke-opacity: 1;stroke-linecap: round;stroke-linejoin: round">
<path style="fill-opacity: 1.0;stroke-width: 0.100000;stroke-opacity: 1;stroke-linecap: round;stroke-linejoin: round;fill-rule: evenodd" d="M 10640060.000000,8773160.000000 10746740.000000,8773160.000000 10746740.000000,8879840.000000 10640060.000000,8879840.000000 Z"/> 
<circle cx="10693400.000000" cy="8953500.000000" r="53340.000000"/> 
</g>
<g style="fill-opacity: 1.0;stroke-width: 0.100000;stroke-opacity: 1;stroke-linecap: round;stroke-linejoin: round">
<path style="fill-opacity: 1.0;stroke-width: 0.100000;stroke-opacity: 1;stroke-linecap: round;stroke-linejoin: round;fill-rule: evenodd" d="M 10339800.000000,9025000.000000 10339800.000000,8955000.000000 10439800.000000,8955000.000000 10439800.000000,9025000.000000 Z"/> 
<path style="fill-opacity: 1.0;stroke-width: 0.100000;stroke-opacity: 1;stroke-linecap: round;stroke-linejoin: round;fill-rule: evenodd" d="M 10529800.000000,9025000.000000 10529800.000000,8955000.000000 10589800.000000,8955000.000000 10589800.000000,9025000.000000 Z"/> 
<path style="fill-opacity: 1.0;stroke-width: 0.100000;stroke-opacity: 1;stroke-linecap: round;stroke-linejoin: round;fill-rule: evenodd" d="M 10529800.000000,8825000.000000 10529800.000000,8755000.000000 10589800.000000,8755000.000000 10589800.000000,8825000.000000 Z"/> 
<path style="fill-opacity: 1.0;stroke-width: 0.100000;stroke-opacity: 1;stroke-linecap: round;stroke-linejoin: round;fill-rule: evenodd" d="M 10339800.000000,8825000.000000 10339800.000000,8755000.000000 10399800.000000,8755000.000000 10399800.000000,8825000.000000 Z"/> 
</g>
<g style="fill-opacity: 1.0;stroke-width: 0.100000;stroke-opacity: 1;stroke-linecap: round;stroke-linejoin: round">
<circle cx="9390888.000000" cy="8120126.000000" r="75057.000000"/> 
</g>
<g style="fill-opacity: 1.0;stroke-width: 0.100000;stroke-opacity: 1;stroke-linecap: round;stroke-linejoin: round">
<circle cx="9640824.000000" cy="8120126.000000" r="75057.000000"/> 
</g>
<g style="fill-opacity: 1.0;stroke-width: 0.100000;stroke-opacity: 1;stroke-linecap: round;stroke-linejoin: round">
<circle cx="9840976.000000" cy="8120126.000000" r="75057.000000"/> 
</g>
<g style="fill-opacity: 1.0;stroke-width: 0.100000;stroke-opacity: 1;stroke-linecap: round;stroke-linejoin: round">
<circle cx="10090912.000000" cy="8120126.000000" r="75057.000000"/> 
</g>
<g style="fill-opacity: 1.0;stroke-width: 0.100000;stroke-opacity: 1;stroke-linecap: round;stroke-linejoin: round">
<circle cx="9510776.000000" cy="7910068.000000" r="65024.000000"/> 
</g>
<g style="fill-opacity: 1.0;stroke-width: 0.100000;stroke-opacity: 1;stroke-linecap: round;stroke-linejoin: round">
<circle cx="9971024.000000" cy="7910068.000000" r="65024.000000"/> 
</g>
<g style="fill-opacity: 1.0;stroke-width: 0.100000;stroke-opacity: 1;stroke-linecap: round;stroke-linejoin: round">
<circle cx="9170924.000000" cy="7910068.000000" r="175006.000000"/> 
</g>
<g style="fill-opacity: 1.0;stroke-width: 0.100000;stroke-opacity: 1;stroke-linecap: round;stroke-linejoin: round">
<circle cx="10310876.000000" cy="7910068.000000" r="175006.000000"/> 
</g>
<g style="fill-opacity: 1.0;stroke-width: 0.100000;stroke-opacity: 1;stroke-linecap: round;stroke-linejoin: round">
<circle cx="10090900.000000" cy="9726000.000000" r="75000.000000"/> 
</g>
<g style="fill-opacity: 1.0;stroke-width: 0.100000;stroke-opacity: 1;stroke-linecap: round;stroke-linejoin: round">
<circle cx="9840900.000000" cy="9726000.000000" r="75000.000000"/> 
</g>
<g style="fill-opacity: 1.0;stroke-width: 0.100000;stroke-opacity: 1;stroke-linecap: round;stroke-linejoin: round">
<circle cx="9640900.000000" cy="9726000.000000" r="75000.000000"/> 
</g>
<g style="fill-opacity: 1.0;stroke-width: 0.100000;stroke-opacity: 1;stroke-linecap: round;stroke-linejoin: round">
<circle cx="9390900.000000" cy="9726000.000000" r="75000.000000"/> 
</g>
<g style="fill-opacity: 1.0;stroke-width: 0.100000;stroke-opacity: 1;stroke-linecap: round;stroke-linejoin: round">
<circle cx="10397900.000000" cy="9997000.000000" r="175000.000000"/> 
</g>
<g style="fill-opacity: 1.0;stroke-width: 0.100000;stroke-opacity: 1;stroke-linecap: round;stroke-linejoin: round">
<circle cx="9083900.000000" cy="9997000.000000" r="175006.000000"/> 
</g>
<g style="fill-opacity: 0.0;stroke-width: 50800.000000;stroke-opacity: 1;stroke-linecap: round;stroke-linejoin: round">
<path d="M10693400 8826500 L10596300 8826500 "/>
<path d="M10596300 8826500 L10559800 8790000 "/>
<path d="M10259060 8936300 L10259060 9055100 "/>
<path d="M10259060 9055100 L10322560 9118600 "/>
<path d="M10259060 8936300 L10259060 8900740 "/>
<path d="M10259060 8900740 L10369800 8790000 "/>
<path d="M10236200 8959160 L9840976 8959160 "/>
<path d="M9829800 8966200 L9840976 8966200 "/>
<path d="M9833936 8966200 L9829800 8966200 "/>
<path d="M9840976 8959160 L9833936 8966200 "/>
<path d="M9840976 9393500 L9840396 9392920 "/>
<path d="M9839960 9392920 L9840976 9392920 "/>
<path d="M9840396 9392920 L9839960 9392920 "/>
<path d="M9840976 9393500 L9840396 9392920 "/>
</g>
<g style="fill-opacity: 0.0;stroke-width: 162560.000000;stroke-opacity: 1;stroke-linecap: round;stroke-linejoin: round">
<path d="M9840976 8120126 L9840976 8966200 "/>
<path d="M9840976 8966200 L9840976 9392920 "/>
<path d="M9840976 9392920 L9840976 9725924 "/>
<path d="M9840976 9725924 L9840900 9726000 "/>
</g>
<g style="fill-opacity: 0.0;stroke-width: 50800.000000;stroke-opacity: 1;stroke-linecap: round;stroke-linejoin: round">
<path d="M10259060 8936300 L10236200 8959160 "/>
<path d="M10310876 7910068 L10173208 7772400 "/>
<path d="M9308592 7772400 L9170924 7910068 "/>
<path d="M10173208 7772400 L9308592 7772400 "/>
<path d="M10397900 9997000 L9083900 9997000 "/>
<path d="M10389800 8990000 L10412400 8990000 "/>
<path d="M10412400 8990000 L10486100 9063700 "/>
<path d="M10429240 9118600 L10431200 9118600 "/>
<path d="M10431200 9118600 L10486100 9063700 "/>
<path d="M10486100 9063700 L10559800 8990000 "/>
<path d="M10693400 8953500 L10596300 8953500 "/>
<path d="M10596300 8953500 L10559800 8990000 "/>
<path d="M9390888 9725988 L9390900 9726000 "/>
<path d="M9390888 8120126 L9390888 9725988 "/>
</g>
<g style="fill-opacity: 0.0;stroke-width: 162560.000000;stroke-opacity: 1;stroke-linecap: round;stroke-linejoin: round">
<path d="M9640824 8120126 L9640824 9725924 "/>
<path d="M9640824 9725924 L9640900 9726000 "/>
</g>
</g> 
</g><g id="substrate-silk" style="fill:#f0f0f0; stroke:#f0f0f0;" mask="url(#pads-mask-silkscreen)"><g style="fill-opacity: 0.0;stroke-width: 10160.000000;stroke-opacity: 1;stroke-linecap: round;stroke-linejoin: round">
<text x="10375900.000000" y="9144000.000000" textLength="79344.900000" font-size="54186.600000" lengthAdjust="spacingAndGlyphs" text-anchor="middle" opacity="0">R2</text>
<g class="stroked-text"><desc>R2</desc>
<path d="M10369126 9142064 L10355580 9122712 "/>
<path d="M10345903 9142064 L10345903 9101424 L10361385 9101424 L10365256 9103360 L10367191 9105295 L10369126 9109165 L10369126 9114971 L10367191 9118841 L10365256 9120777 L10361385 9122712 L10345903 9122712 "/>
<path d="M10384608 9105295 L10386543 9103360 L10390414 9101424 L10400090 9101424 L10403960 9103360 L10405896 9105295 L10407831 9109165 L10407831 9113036 L10405896 9118841 L10382673 9142064 L10407831 9142064 "/>
</g></g>
<g style="fill-opacity: 0.0;stroke-width: 20320.000000;stroke-opacity: 1;stroke-linecap: round;stroke-linejoin: round">
<g transform="rotate(-90.000000 10693400.000000 8890000.000000)">
<text x="10693400.000000" y="8940038.000000" textLength="208594.500000" font-size="133434.600000" lengthAdjust="spacingAndGlyphs" text-anchor="middle" opacity="0">P2</text>
</g>
<g class="stroked-text"><desc>P2</desc>
<path d="M10738672 8963865 L10638596 8963865 L10638596 8925741 L10643362 8916210 L10648127 8911444 L10657658 8906679 L10671955 8906679 L10681486 8911444 L10686251 8916210 L10691017 8925741 L10691017 8963865 "/>
<path d="M10648127 8868555 L10643362 8863789 L10638596 8854258 L10638596 8830430 L10643362 8820899 L10648127 8816134 L10657658 8811368 L10667189 8811368 L10681486 8816134 L10738672 8873320 L10738672 8811368 "/>
</g></g>
<g style="fill-opacity: 0.0;stroke-width: 15000.000000;stroke-opacity: 1;stroke-linecap: round;stroke-linejoin: round">
<text x="10464800.000000" y="8930000.000000" textLength="186416.000000" font-size="106666.600000" lengthAdjust="spacingAndGlyphs" text-anchor="middle" opacity="0">Q1</text>
<g class="stroked-text"><desc>Q1</desc>
<path d="M10457180 8933809 L10449561 8930000 L10441942 8922380 L10430514 8910952 L10422895 8907142 L10415276 8907142 "/>
<path d="M10419085 8926190 L10411466 8922380 L10403847 8914761 L10400038 8899523 L10400038 8872857 L10403847 8857619 L10411466 8850000 L10419085 8846190 L10434323 8846190 L10441942 8850000 L10449561 8857619 L10453371 8872857 L10453371 8899523 L10449561 8914761 L10441942 8922380 L10434323 8926190 L10419085 8926190 "/>
<path d="M10529561 8926190 L10483847 8926190 "/>
<path d="M10506704 8926190 L10506704 8846190 L10499085 8857619 L10491466 8865238 L10483847 8869047 "/>
</g></g>
<g style="fill-opacity: 0.0;stroke-width: 20320.000000;stroke-opacity: 1;stroke-linecap: round;stroke-linejoin: round">
<text x="9740900.000000" y="7789926.000000" textLength="191058.900000" font-size="133434.600000" lengthAdjust="spacingAndGlyphs" text-anchor="middle" opacity="0">J1</text>
<g class="stroked-text"><desc>J1</desc>
<path d="M9707541 7685084 L9707541 7756567 L9702775 7770863 L9693244 7780394 L9678948 7785160 L9669417 7785160 "/>
<path d="M9807617 7785160 L9750431 7785160 "/>
<path d="M9779024 7785160 L9779024 7685084 L9769493 7699381 L9759962 7708912 L9750431 7713677 "/>
</g><text x="9740900.000000" y="10217150.000000" textLength="197974.900000" font-size="133434.600000" lengthAdjust="spacingAndGlyphs" text-anchor="middle" opacity="0">J2</text>
<g class="stroked-text"><desc>J2</desc>
<path d="M9707541 10112308 L9707541 10183791 L9702775 10198087 L9693244 10207618 L9678948 10212384 L9669417 10212384 "/>
<path d="M9750431 10121839 L9755196 10117074 L9764727 10112308 L9788555 10112308 L9798086 10117074 L9802851 10121839 L9807617 10131370 L9807617 10140901 L9802851 10155198 L9745665 10212384 L9807617 10212384 "/>
</g><path d="M10287000 9080500 L10464800 9080500 "/>
<path d="M10287000 9156700 L10287000 9080500 "/>
<path d="M10464800 9156700 L10287000 9156700 "/>
<path d="M10464800 9080500 L10464800 9156700 "/>
</g>
<g style="fill-opacity: 0.0;stroke-width: 15000.000000;stroke-opacity: 1;stroke-linecap: round;stroke-linejoin: round">
<path d="M10314800 8960000 L10314800 8820000 "/>
<path d="M10614800 8960000 L10314800 8960000 "/>
<path d="M10614800 8820000 L10614800 8960000 "/>
<path d="M10314800 8820000 L10614800 8820000 "/>
</g>
<g style="fill-opacity: 0.0;stroke-width: 20320.000000;stroke-opacity: 1;stroke-linecap: round;stroke-linejoin: round">
<path d="M9340850 8005064 L10140950 8005064 "/>
<path d="M10340848 7659878 L10340848 7679944 "/>
<path d="M9140952 7659878 L9140952 7679944 "/>
<g style="fill-opacity: 1.0;stroke-width: 0.100000;stroke-opacity: 1;stroke-linecap: round;stroke-linejoin: round">
<circle cx="9390888.000000" cy="8120126.000000" r="75057.000000"/> 
</g>
<g style="fill-opacity: 1.0;stroke-width: 0.100000;stroke-opacity: 1;stroke-linecap: round;stroke-linejoin: round">
<circle cx="9640824.000000" cy="8120126.000000" r="75057.000000"/> 
</g>
<g style="fill-opacity: 1.0;stroke-width: 0.100000;stroke-opacity: 1;stroke-linecap: round;stroke-linejoin: round">
<circle cx="9840976.000000" cy="8120126.000000" r="75057.000000"/> 
</g>
<g style="fill-opacity: 1.0;stroke-width: 0.100000;stroke-opacity: 1;stroke-linecap: round;stroke-linejoin: round">
<circle cx="10090912.000000" cy="8120126.000000" r="75057.000000"/> 
</g>
<g style="fill-opacity: 1.0;stroke-width: 0.100000;stroke-opacity: 1;stroke-linecap: round;stroke-linejoin: round">
<circle cx="10090900.000000" cy="9726000.000000" r="75000.000000"/> 
</g>
<g style="fill-opacity: 1.0;stroke-width: 0.100000;stroke-opacity: 1;stroke-linecap: round;stroke-linejoin: round">
<circle cx="9840900.000000" cy="9726000.000000" r="75000.000000"/> 
</g>
<g style="fill-opacity: 1.0;stroke-width: 0.100000;stroke-opacity: 1;stroke-linecap: round;stroke-linejoin: round">
<circle cx="9640900.000000" cy="9726000.000000" r="75000.000000"/> 
</g>
<g style="fill-opacity: 1.0;stroke-width: 0.100000;stroke-opacity: 1;stroke-linecap: round;stroke-linejoin: round">
<circle cx="9390900.000000" cy="9726000.000000" r="75000.000000"/> 
</g>
</g> 
</g><g id="substrate-outline" style="fill:#000000; stroke:#000000; stroke-width: 15000.0"><g style="fill-opacity: 0.0;stroke-opacity: 1;stroke-linecap: round;stroke-linejoin: round">
<path d="M7620000 10795000 L7620000 7620000 "/>
<path d="M10795000 10795000 L7620000 10795000 "/>
<path d="M10795000 7620000 L10795000 10795000 "/>
<path d="M7620000 7620000 L10795000 7620000 "/>
</g> 
<path d="M -35560.0 0.0 A 35560.0 35560.0 0 1 1 35560.0 0.0 L 35560.0 -0.0 A 35560.0 35560.0 0 1 1 -35560.0 -0.0 Z" transform="translate(10693400.0 8826500.0) rotate(-270.0)"/><path d="M -35560.0 0.0 A 35560.0 35560.0 0 1 1 35560.0 0.0 L 35560.0 -0.0 A 35560.0 35560.0 0 1 1 -35560.0 -0.0 Z" transform="translate(10693400.0 8953500.0) rotate(-270.0)"/><path d="M -50038.0 0.0 A 50038.0 50038.0 0 1 1 50038.0 0.0 L 50038.0 -0.0 A 50038.0 50038.0 0 1 1 -50038.0 -0.0 Z" transform="translate(9390888.0 8120126.0) rotate(-180.0)"/><path d="M -50038.0 0.0 A 50038.0 50038.0 0 1 1 50038.0 0.0 L 50038.0 -0.0 A 50038.0 50038.0 0 1 1 -50038.0 -0.0 Z" transform="translate(9640824.0 8120126.0) rotate(-180.0)"/><path d="M -50038.0 0.0 A 50038.0 50038.0 0 1 1 50038.0 0.0 L 50038.0 -0.0 A 50038.0 50038.0 0 1 1 -50038.0 -0.0 Z" transform="translate(9840976.0 8120126.0) rotate(-180.0)"/><path d="M -50038.0 0.0 A 50038.0 50038.0 0 1 1 50038.0 0.0 L 50038.0 -0.0 A 50038.0 50038.0 0 1 1 -50038.0 -0.0 Z" transform="translate(10090912.0 8120126.0) rotate(-180.0)"/><path d="M -65024.0 0.0 A 65024.0 65024.0 0 1 1 65024.0 0.0 L 65024.0 -0.0 A 65024.0 65024.0 0 1 1 -65024.0 -0.0 Z" transform="translate(9510776.0 7910068.0) rotate(-180.0)"/><path d="M -65024.0 0.0 A 65024.0 65024.0 0 1 1 65024.0 0.0 L 65024.0 -0.0 A 65024.0 65024.0 0 1 1 -65024.0 -0.0 Z" transform="translate(9971024.0 7910068.0) rotate(-180.0)"/><path d="M -124968.0 0.0 A 124968.0 124968.0 0 1 1 124968.0 0.0 L 124968.0 -0.0 A 124968.0 124968.0 0 1 1 -124968.0 -0.0 Z" transform="translate(9170924.0 7910068.0) rotate(-180.0)"/><path d="M -124968.0 0.0 A 124968.0 124968.0 0 1 1 124968.0 0.0 L 124968.0 -0.0 A 124968.0 124968.0 0 1 1 -124968.0 -0.0 Z" transform="translate(10310876.0 7910068.0) rotate(-180.0)"/><path d="M -46000.0 0.0 A 46000.0 46000.0 0 1 1 46000.0 0.0 L 46000.0 -0.0 A 46000.0 46000.0 0 1 1 -46000.0 -0.0 Z" transform="translate(10090900.0 9726000.0) rotate(-0.0)"/><path d="M -46000.0 0.0 A 46000.0 46000.0 0 1 1 46000.0 0.0 L 46000.0 -0.0 A 46000.0 46000.0 0 1 1 -46000.0 -0.0 Z" transform="translate(9840900.0 9726000.0) rotate(-0.0)"/><path d="M -46000.0 0.0 A 46000.0 46000.0 0 1 1 46000.0 0.0 L 46000.0 -0.0 A 46000.0 46000.0 0 1 1 -46000.0 -0.0 Z" transform="translate(9640900.0 9726000.0) rotate(-0.0)"/><path d="M -46000.0 0.0 A 46000.0 46000.0 0 1 1 46000.0 0.0 L 46000.0 -0.0 A 46000.0 46000.0 0 1 1 -46000.0 -0.0 Z" transform="translate(9390900.0 9726000.0) rotate(-0.0)"/><path d="M -115000.0 0.0 A 115000.0 115000.0 0 1 1 115000.0 0.0 L 115000.0 -0.0 A 115000.0 115000.0 0 1 1 -115000.0 -0.0 Z" transform="translate(10397900.0 9997000.0) rotate(-0.0)"/><path d="M -115000.0 0.0 A 115000.0 115000.0 0 1 1 115000.0 0.0 L 115000.0 -0.0 A 115000.0 115000.0 0 1 1 -115000.0 -0.0 Z" transform="translate(9083900.0 9997000.0) rotate(-0.0)"/></g></g></g></svg>