<!DOCTYPE svg PUBLIC "-//W3C//DTD SVG 1.1//EN" "http://www.w3.org/Graphics/SVG/1.1/DTD/svg11.dtd">
<svg xmlns="http://www.w3.org/2000/svg" version="1.1" width="28.035mm" height="20.415mm" viewBox="13044500.0 3710000.0 2803500.0 2041500.0">
            <title>Picture generated by PcbDraw </title>
            <desc>Picture generated by PcbDraw</desc>
        <defs><clipPath id="cut-off"><path d=" M 13144500.0 3810000.0 L 15748000.0 3810000.0 L 15748000.0 5651500.0 L 13144500.0 5651500.0 L 13144500.0 3810000.0 " style="fill-rule: evenodd;"/></clipPath><mask id="pads-mask"><g style="fill:#ffffff; fill-opacity:0.0;  stroke:#ffffff; stroke-width:0.000000; stroke-opacity:1;  stroke-linecap:round; stroke-linejoin:round;">
<g style="fill:#ffffff; fill-opacity:1.0;  stroke:#ffffff; stroke-width:0.100000; stroke-opacity:1;  stroke-linecap:round; stroke-linejoin:round;">
<path style="fill:#ffffff; fill-opacity:1.0;  stroke:#ffffff; stroke-width:0.100000; stroke-opacity:1;  stroke-linecap:round; stroke-linejoin:round;fill-rule:evenodd;" d="M 13318400.000000,4003640.000000 13319922.400000,3995986.300000 13324257.900000,3989497.900000 13330746.300000,3985162.400000 13338400.000000,3983640.000000 13541600.000000,3983640.000000 13549253.700000,3985162.400000 13555742.100000,3989497.900000 13560077.600000,3995986.300000 13561600.000000,4003640.000000 13561600.000000,4176360.000000 13560077.600000,4184013.700000 13555742.100000,4190502.100000 13549253.700000,4194837.600000 13541600.000000,4196360.000000 13338400.000000,4196360.000000 13330746.300000,4194837.600000 13324257.900000,4190502.100000 13319922.400000,4184013.700000 13318400.000000,4176360.000000 Z"/> 
</g>
<g style="fill:#ffffff; fill-opacity:0.0;  stroke:#ffffff; stroke-width:212720.000000; stroke-opacity:1;  stroke-linecap:round; stroke-linejoin:round;">
<path d="M13424760 4344000 L13455240 4344000 "/>
<path d="M13424760 4598000 L13455240 4598000 "/>
<path d="M13424760 4852000 L13455240 4852000 "/>
<path d="M13424760 5106000 L13455240 5106000 "/>
<path d="M13424760 5360000 L13455240 5360000 "/>
</g>
<g style="fill:#ffffff; fill-opacity:1.0;  stroke:#ffffff; stroke-width:0.100000; stroke-opacity:1;  stroke-linecap:round; stroke-linejoin:round;">
<path style="fill:#ffffff; fill-opacity:1.0;  stroke:#ffffff; stroke-width:0.100000; stroke-opacity:1;  stroke-linecap:round; stroke-linejoin:round;fill-rule:evenodd;" d="M 15338400.000000,4003640.000000 15339922.400000,3995986.300000 15344257.900000,3989497.900000 15350746.300000,3985162.400000 15358400.000000,3983640.000000 15561600.000000,3983640.000000 15569253.700000,3985162.400000 15575742.100000,3989497.900000 15580077.600000,3995986.300000 15581600.000000,4003640.000000 15581600.000000,4176360.000000 15580077.600000,4184013.700000 15575742.100000,4190502.100000 15569253.700000,4194837.600000 15561600.000000,4196360.000000 15358400.000000,4196360.000000 15350746.300000,4194837.600000 15344257.900000,4190502.100000 15339922.400000,4184013.700000 15338400.000000,4176360.000000 Z"/> 
</g>
<g style="fill:#ffffff; fill-opacity:0.0;  stroke:#ffffff; stroke-width:212720.000000; stroke-opacity:1;  stroke-linecap:round; stroke-linejoin:round;">
<path d="M15444760 4344000 L15475240 4344000 "/>
<path d="M15444760 4598000 L15475240 4598000 "/>
<path d="M15444760 4852000 L15475240 4852000 "/>
<path d="M15444760 5106000 L15475240 5106000 "/>
<path d="M15444760 5360000 L15475240 5360000 "/>
</g>
<g style="fill:#ffffff; fill-opacity:1.0;  stroke:#ffffff; stroke-width:0.100000; stroke-opacity:1;  stroke-linecap:round; stroke-linejoin:round;">
<circle cx="13975080.000000" cy="5355844.000000" r="119949.000000"/> 
</g>
<g style="fill:#ffffff; fill-opacity:1.0;  stroke:#ffffff; stroke-width:0.100000; stroke-opacity:1;  stroke-linecap:round; stroke-linejoin:round;">
<circle cx="14625320.000000" cy="4905756.000000" r="119949.000000"/> 
</g>
<g style="fill:#ffffff; fill-opacity:1.0;  stroke:#ffffff; stroke-width:0.100000; stroke-opacity:1;  stroke-linecap:round; stroke-linejoin:round;">
<circle cx="13975080.000000" cy="4905756.000000" r="119949.000000"/> 
</g>
<g style="fill:#ffffff; fill-opacity:1.0;  stroke:#ffffff; stroke-width:0.100000; stroke-opacity:1;  stroke-linecap:round; stroke-linejoin:round;">
<circle cx="14625320.000000" cy="5355844.000000" r="119949.000000"/> 
</g>
<g style="fill:#ffffff; fill-opacity:1.0;  stroke:#ffffff; stroke-width:0.100000; stroke-opacity:1;  stroke-linecap:round; stroke-linejoin:round;">
<circle cx="13975080.000000" cy="4543044.000000" r="119949.000000"/> 
</g>
<g style="fill:#ffffff; fill-opacity:1.0;  stroke:#ffffff; stroke-width:0.100000; stroke-opacity:1;  stroke-linecap:round; stroke-linejoin:round;">
<circle cx="14625320.000000" cy="4092956.000000" r="119949.000000"/> 
</g>
<g style="fill:#ffffff; fill-opacity:1.0;  stroke:#ffffff; stroke-width:0.100000; stroke-opacity:1;  stroke-linecap:round; stroke-linejoin:round;">
<circle cx="13975080.000000" cy="4092956.000000" r="119949.000000"/> 
</g>
<g style="fill:#ffffff; fill-opacity:1.0;  stroke:#ffffff; stroke-width:0.100000; stroke-opacity:1;  stroke-linecap:round; stroke-linejoin:round;">
<circle cx="14625320.000000" cy="4543044.000000" r="119949.000000"/> 
</g>
<g style="fill:#ffffff; fill-opacity:1.0;  stroke:#ffffff; stroke-width:0.100000; stroke-opacity:1;  stroke-linecap:round; stroke-linejoin:round;">
<path style="fill:#ffffff; fill-opacity:1.0;  stroke:#ffffff; stroke-width:0.100000; stroke-opacity:1;  stroke-linecap:round; stroke-linejoin:round;fill-rule:evenodd;" d="M 15096744.000000,5199954.000000 15104397.700000,5201476.400000 15110886.100000,5205811.900000 15115221.600000,5212300.300000 15116744.000000,5219954.000000 15116744.000000,5339842.000000 15115221.600000,5347495.700000 15110886.100000,5353984.100000 15104397.700000,5358319.600000 15096744.000000,5359842.000000 14976856.000000,5359842.000000 14969202.300000,5358319.600000 14962713.900000,5353984.100000 14958378.400000,5347495.700000 14956856.000000,5339842.000000 14956856.000000,5219954.000000 14958378.400000,5212300.300000 14962713.900000,5205811.900000 14969202.300000,5201476.400000 14976856.000000,5199954.000000 Z"/> 
<path style="fill:#ffffff; fill-opacity:1.0;  stroke:#ffffff; stroke-width:0.100000; stroke-opacity:1;  stroke-linecap:round; stroke-linejoin:round;fill-rule:evenodd;" d="M 15096744.000000,5409758.000000 15104397.700000,5411280.400000 15110886.100000,5415615.900000 15115221.600000,5422104.300000 15116744.000000,5429758.000000 15116744.000000,5549646.000000 15115221.600000,5557299.700000 15110886.100000,5563788.100000 15104397.700000,5568123.600000 15096744.000000,5569646.000000 14976856.000000,5569646.000000 14969202.300000,5568123.600000 14962713.900000,5563788.100000 14958378.400000,5557299.700000 14956856.000000,5549646.000000 14956856.000000,5429758.000000 14958378.400000,5422104.300000 14962713.900000,5415615.900000 14969202.300000,5411280.400000 14976856.000000,5409758.000000 Z"/> 
</g>
<g style="fill:#ffffff; fill-opacity:1.0;  stroke:#ffffff; stroke-width:0.100000; stroke-opacity:1;  stroke-linecap:round; stroke-linejoin:round;">
<path style="fill:#ffffff; fill-opacity:1.0;  stroke:#ffffff; stroke-width:0.100000; stroke-opacity:1;  stroke-linecap:round; stroke-linejoin:round;fill-rule:evenodd;" d="M 14976856.000000,4248846.000000 14969202.300000,4247323.600000 14962713.900000,4242988.100000 14958378.400000,4236499.700000 14956856.000000,4228846.000000 14956856.000000,4108958.000000 14958378.400000,4101304.300000 14962713.900000,4094815.900000 14969202.300000,4090480.400000 14976856.000000,4088958.000000 15096744.000000,4088958.000000 15104397.700000,4090480.400000 15110886.100000,4094815.900000 15115221.600000,4101304.300000 15116744.000000,4108958.000000 15116744.000000,4228846.000000 15115221.600000,4236499.700000 15110886.100000,4242988.100000 15104397.700000,4247323.600000 15096744.000000,4248846.000000 Z"/> 
<path style="fill:#ffffff; fill-opacity:1.0;  stroke:#ffffff; stroke-width:0.100000; stroke-opacity:1;  stroke-linecap:round; stroke-linejoin:round;fill-rule:evenodd;" d="M 14976856.000000,4039042.000000 14969202.300000,4037519.600000 14962713.900000,4033184.100000 14958378.400000,4026695.700000 14956856.000000,4019042.000000 14956856.000000,3899154.000000 14958378.400000,3891500.300000 14962713.900000,3885011.900000 14969202.300000,3880676.400000 14976856.000000,3879154.000000 15096744.000000,3879154.000000 15104397.700000,3880676.400000 15110886.100000,3885011.900000 15115221.600000,3891500.300000 15116744.000000,3899154.000000 15116744.000000,4019042.000000 15115221.600000,4026695.700000 15110886.100000,4033184.100000 15104397.700000,4037519.600000 15096744.000000,4039042.000000 Z"/> 
</g>
<g style="fill:#ffffff; fill-opacity:1.0;  stroke:#ffffff; stroke-width:0.100000; stroke-opacity:1;  stroke-linecap:round; stroke-linejoin:round;">
<path style="fill:#ffffff; fill-opacity:1.0;  stroke:#ffffff; stroke-width:0.100000; stroke-opacity:1;  stroke-linecap:round; stroke-linejoin:round;fill-rule:evenodd;" d="M 14991800.000000,5168400.000000 14984146.300000,5166877.600000 14977657.900000,5162542.100000 14973322.400000,5156053.700000 14971800.000000,5148400.000000 14971800.000000,5028400.000000 14973322.400000,5020746.300000 14977657.900000,5014257.900000 14984146.300000,5009922.400000 14991800.000000,5008400.000000 15081800.000000,5008400.000000 15089453.700000,5009922.400000 15095942.100000,5014257.900000 15100277.600000,5020746.300000 15101800.000000,5028400.000000 15101800.000000,5148400.000000 15100277.600000,5156053.700000 15095942.100000,5162542.100000 15089453.700000,5166877.600000 15081800.000000,5168400.000000 Z"/> 
<path style="fill:#ffffff; fill-opacity:1.0;  stroke:#ffffff; stroke-width:0.100000; stroke-opacity:1;  stroke-linecap:round; stroke-linejoin:round;fill-rule:evenodd;" d="M 14991800.000000,4948400.000000 14984146.300000,4946877.600000 14977657.900000,4942542.100000 14973322.400000,4936053.700000 14971800.000000,4928400.000000 14971800.000000,4808400.000000 14973322.400000,4800746.300000 14977657.900000,4794257.900000 14984146.300000,4789922.400000 14991800.000000,4788400.000000 15081800.000000,4788400.000000 15089453.700000,4789922.400000 15095942.100000,4794257.900000 15100277.600000,4800746.300000 15101800.000000,4808400.000000 15101800.000000,4928400.000000 15100277.600000,4936053.700000 15095942.100000,4942542.100000 15089453.700000,4946877.600000 15081800.000000,4948400.000000 Z"/> 
</g>
<g style="fill:#ffffff; fill-opacity:1.0;  stroke:#ffffff; stroke-width:0.100000; stroke-opacity:1;  stroke-linecap:round; stroke-linejoin:round;">
<path style="fill:#ffffff; fill-opacity:1.0;  stroke:#ffffff; stroke-width:0.100000; stroke-opacity:1;  stroke-linecap:round; stroke-linejoin:round;fill-rule:evenodd;" d="M 15081800.000000,4280400.000000 15089453.700000,4281922.400000 15095942.100000,4286257.900000 15100277.600000,4292746.300000 15101800.000000,4300400.000000 15101800.000000,4420400.000000 15100277.600000,4428053.700000 15095942.100000,4434542.100000 15089453.700000,4438877.600000 15081800.000000,4440400.000000 14991800.000000,4440400.000000 14984146.300000,4438877.600000 14977657.900000,4434542.100000 14973322.400000,4428053.700000 14971800.000000,4420400.000000 14971800.000000,4300400.000000 14973322.400000,4292746.300000 14977657.900000,4286257.900000 14984146.300000,4281922.400000 14991800.000000,4280400.000000 Z"/> 
<path style="fill:#ffffff; fill-opacity:1.0;  stroke:#ffffff; stroke-width:0.100000; stroke-opacity:1;  stroke-linecap:round; stroke-linejoin:round;fill-rule:evenodd;" d="M 15081800.000000,4500400.000000 15089453.700000,4501922.400000 15095942.100000,4506257.900000 15100277.600000,4512746.300000 15101800.000000,4520400.000000 15101800.000000,4640400.000000 15100277.600000,4648053.700000 15095942.100000,4654542.100000 15089453.700000,4658877.600000 15081800.000000,4660400.000000 14991800.000000,4660400.000000 14984146.300000,4658877.600000 14977657.900000,4654542.100000 14973322.400000,4648053.700000 14971800.000000,4640400.000000 14971800.000000,4520400.000000 14973322.400000,4512746.300000 14977657.900000,4506257.900000 14984146.300000,4501922.400000 14991800.000000,4500400.000000 Z"/> 
</g>
</g> 
</mask><mask id="pads-mask-silkscreen"><rect x="13137000.0" y="3802500.0" width="2618500.0" height="1856500.0" fill="white"/><g style="fill:#000000; fill-opacity:0.0;  stroke:#000000; stroke-width:0.000000; stroke-opacity:1;  stroke-linecap:round; stroke-linejoin:round;">
<g style="fill:#000000; fill-opacity:1.0;  stroke:#000000; stroke-width:0.100000; stroke-opacity:1;  stroke-linecap:round; stroke-linejoin:round;">
<path style="fill:#000000; fill-opacity:1.0;  stroke:#000000; stroke-width:0.100000; stroke-opacity:1;  stroke-linecap:round; stroke-linejoin:round;fill-rule:evenodd;" d="M 13318400.000000,4003640.000000 13319922.400000,3995986.300000 13324257.900000,3989497.900000 13330746.300000,3985162.400000 13338400.000000,3983640.000000 13541600.000000,3983640.000000 13549253.700000,3985162.400000 13555742.100000,3989497.900000 13560077.600000,3995986.300000 13561600.000000,4003640.000000 13561600.000000,4176360.000000 13560077.600000,4184013.700000 13555742.100000,4190502.100000 13549253.700000,4194837.600000 13541600.000000,4196360.000000 13338400.000000,4196360.000000 13330746.300000,4194837.600000 13324257.900000,4190502.100000 13319922.400000,4184013.700000 13318400.000000,4176360.000000 Z"/> 
</g>
<g style="fill:#000000; fill-opacity:0.0;  stroke:#000000; stroke-width:212720.000000; stroke-opacity:1;  stroke-linecap:round; stroke-linejoin:round;">
<path d="M13424760 4344000 L13455240 4344000 "/>
<path d="M13424760 4598000 L13455240 4598000 "/>
<path d="M13424760 4852000 L13455240 4852000 "/>
<path d="M13424760 5106000 L13455240 5106000 "/>
<path d="M13424760 5360000 L13455240 5360000 "/>
</g>
<g style="fill:#000000; fill-opacity:1.0;  stroke:#000000; stroke-width:0.100000; stroke-opacity:1;  stroke-linecap:round; stroke-linejoin:round;">
<path style="fill:#000000; fill-opacity:1.0;  stroke:#000000; stroke-width:0.100000; stroke-opacity:1;  stroke-linecap:round; stroke-linejoin:round;fill-rule:evenodd;" d="M 15338400.000000,4003640.000000 15339922.400000,3995986.300000 15344257.900000,3989497.900000 15350746.300000,3985162.400000 15358400.000000,3983640.000000 15561600.000000,3983640.000000 15569253.700000,3985162.400000 15575742.100000,3989497.900000 15580077.600000,3995986.300000 15581600.000000,4003640.000000 15581600.000000,4176360.000000 15580077.600000,4184013.700000 15575742.100000,4190502.100000 15569253.700000,4194837.600000 15561600.000000,4196360.000000 15358400.000000,4196360.000000 15350746.300000,4194837.600000 15344257.900000,4190502.100000 15339922.400000,4184013.700000 15338400.000000,4176360.000000 Z"/> 
</g>
<g style="fill:#000000; fill-opacity:0.0;  stroke:#000000; stroke-width:212720.000000; stroke-opacity:1;  stroke-linecap:round; stroke-linejoin:round;">
<path d="M15444760 4344000 L15475240 4344000 "/>
<path d="M15444760 4598000 L15475240 4598000 "/>
<path d="M15444760 4852000 L15475240 4852000 "/>
<path d="M15444760 5106000 L15475240 5106000 "/>
<path d="M15444760 5360000 L15475240 5360000 "/>
</g>
<g style="fill:#000000; fill-opacity:1.0;  stroke:#000000; stroke-width:0.100000; stroke-opacity:1;  stroke-linecap:round; stroke-linejoin:round;">
<circle cx="13975080.000000" cy="5355844.000000" r="119949.000000"/> 
</g>
<g style="fill:#000000; fill-opacity:1.0;  stroke:#000000; stroke-width:0.100000; stroke-opacity:1;  stroke-linecap:round; stroke-linejoin:round;">
<circle cx="14625320.000000" cy="4905756.000000" r="119949.000000"/> 
</g>
<g style="fill:#000000; fill-opacity:1.0;  stroke:#000000; stroke-width:0.100000; stroke-opacity:1;  stroke-linecap:round; stroke-linejoin:round;">
<circle cx="13975080.000000" cy="4905756.000000" r="119949.000000"/> 
</g>
<g style="fill:#000000; fill-opacity:1.0;  stroke:#000000; stroke-width:0.100000; stroke-opacity:1;  stroke-linecap:round; stroke-linejoin:round;">
<circle cx="14625320.000000" cy="5355844.000000" r="119949.000000"/> 
</g>
<g style="fill:#000000; fill-opacity:1.0;  stroke:#000000; stroke-width:0.100000; stroke-opacity:1;  stroke-linecap:round; stroke-linejoin:round;">
<circle cx="13975080.000000" cy="4543044.000000" r="119949.000000"/> 
</g>
<g style="fill:#000000; fill-opacity:1.0;  stroke:#000000; stroke-width:0.100000; stroke-opacity:1;  stroke-linecap:round; stroke-linejoin:round;">
<circle cx="14625320.000000" cy="4092956.000000" r="119949.000000"/> 
</g>
<g style="fill:#000000; fill-opacity:1.0;  stroke:#000000; stroke-width:0.100000; stroke-opacity:1;  stroke-linecap:round; stroke-linejoin:round;">
<circle cx="13975080.000000" cy="4092956.000000" r="119949.000000"/> 
</g>
<g style="fill:#000000; fill-opacity:1.0;  stroke:#000000; stroke-width:0.100000; stroke-opacity:1;  stroke-linecap:round; stroke-linejoin:round;">
<circle cx="14625320.000000" cy="4543044.000000" r="119949.000000"/> 
</g>
<g style="fill:#000000; fill-opacity:1.0;  stroke:#000000; stroke-width:0.100000; stroke-opacity:1;  stroke-linecap:round; stroke-linejoin:round;">
<path style="fill:#000000; fill-opacity:1.0;  stroke:#000000; stroke-width:0.100000; stroke-opacity:1;  stroke-linecap:round; stroke-linejoin:round;fill-rule:evenodd;" d="M 15096744.000000,5199954.000000 15104397.700000,5201476.400000 15110886.100000,5205811.900000 15115221.600000,5212300.300000 15116744.000000,5219954.000000 15116744.000000,5339842.000000 15115221.600000,5347495.700000 15110886.100000,5353984.100000 15104397.700000,5358319.600000 15096744.000000,5359842.000000 14976856.000000,5359842.000000 14969202.300000,5358319.600000 14962713.900000,5353984.100000 14958378.400000,5347495.700000 14956856.000000,5339842.000000 14956856.000000,5219954.000000 14958378.400000,5212300.300000 14962713.900000,5205811.900000 14969202.300000,5201476.400000 14976856.000000,5199954.000000 Z"/> 
<path style="fill:#000000; fill-opacity:1.0;  stroke:#000000; stroke-width:0.100000; stroke-opacity:1;  stroke-linecap:round; stroke-linejoin:round;fill-rule:evenodd;" d="M 15096744.000000,5409758.000000 15104397.700000,5411280.400000 15110886.100000,5415615.900000 15115221.600000,5422104.300000 15116744.000000,5429758.000000 15116744.000000,5549646.000000 15115221.600000,5557299.700000 15110886.100000,5563788.100000 15104397.700000,5568123.600000 15096744.000000,5569646.000000 14976856.000000,5569646.000000 14969202.300000,5568123.600000 14962713.900000,5563788.100000 14958378.400000,5557299.700000 14956856.000000,5549646.000000 14956856.000000,5429758.000000 14958378.400000,5422104.300000 14962713.900000,5415615.900000 14969202.300000,5411280.400000 14976856.000000,5409758.000000 Z"/> 
</g>
<g style="fill:#000000; fill-opacity:1.0;  stroke:#000000; stroke-width:0.100000; stroke-opacity:1;  stroke-linecap:round; stroke-linejoin:round;">
<path style="fill:#000000; fill-opacity:1.0;  stroke:#000000; stroke-width:0.100000; stroke-opacity:1;  stroke-linecap:round; stroke-linejoin:round;fill-rule:evenodd;" d="M 14976856.000000,4248846.000000 14969202.300000,4247323.600000 14962713.900000,4242988.100000 14958378.400000,4236499.700000 14956856.000000,4228846.000000 14956856.000000,4108958.000000 14958378.400000,4101304.300000 14962713.900000,4094815.900000 14969202.300000,4090480.400000 14976856.000000,4088958.000000 15096744.000000,4088958.000000 15104397.700000,4090480.400000 15110886.100000,4094815.900000 15115221.600000,4101304.300000 15116744.000000,4108958.000000 15116744.000000,4228846.000000 15115221.600000,4236499.700000 15110886.100000,4242988.100000 15104397.700000,4247323.600000 15096744.000000,4248846.000000 Z"/> 
<path style="fill:#000000; fill-opacity:1.0;  stroke:#000000; stroke-width:0.100000; stroke-opacity:1;  stroke-linecap:round; stroke-linejoin:round;fill-rule:evenodd;" d="M 14976856.000000,4039042.000000 14969202.300000,4037519.600000 14962713.900000,4033184.100000 14958378.400000,4026695.700000 14956856.000000,4019042.000000 14956856.000000,3899154.000000 14958378.400000,3891500.300000 14962713.900000,3885011.900000 14969202.300000,3880676.400000 14976856.000000,3879154.000000 15096744.000000,3879154.000000 15104397.700000,3880676.400000 15110886.100000,3885011.900000 15115221.600000,3891500.300000 15116744.000000,3899154.000000 15116744.000000,4019042.000000 15115221.600000,4026695.700000 15110886.100000,4033184.100000 15104397.700000,4037519.600000 15096744.000000,4039042.000000 Z"/> 
</g>
<g style="fill:#000000; fill-opacity:1.0;  stroke:#000000; stroke-width:0.100000; stroke-opacity:1;  stroke-linecap:round; stroke-linejoin:round;">
<path style="fill:#000000; fill-opacity:1.0;  stroke:#000000; stroke-width:0.100000; stroke-opacity:1;  stroke-linecap:round; stroke-linejoin:round;fill-rule:evenodd;" d="M 14991800.000000,5168400.000000 14984146.300000,5166877.600000 14977657.900000,5162542.100000 14973322.400000,5156053.700000 14971800.000000,5148400.000000 14971800.000000,5028400.000000 14973322.400000,5020746.300000 14977657.900000,5014257.900000 14984146.300000,5009922.400000 14991800.000000,5008400.000000 15081800.000000,5008400.000000 15089453.700000,5009922.400000 15095942.100000,5014257.900000 15100277.600000,5020746.300000 15101800.000000,5028400.000000 15101800.000000,5148400.000000 15100277.600000,5156053.700000 15095942.100000,5162542.100000 15089453.700000,5166877.600000 15081800.000000,5168400.000000 Z"/> 
<path style="fill:#000000; fill-opacity:1.0;  stroke:#000000; stroke-width:0.100000; stroke-opacity:1;  stroke-linecap:round; stroke-linejoin:round;fill-rule:evenodd;" d="M 14991800.000000,4948400.000000 14984146.300000,4946877.600000 14977657.900000,4942542.100000 14973322.400000,4936053.700000 14971800.000000,4928400.000000 14971800.000000,4808400.000000 14973322.400000,4800746.300000 14977657.900000,4794257.900000 14984146.300000,4789922.400000 14991800.000000,4788400.000000 15081800.000000,4788400.000000 15089453.700000,4789922.400000 15095942.100000,4794257.900000 15100277.600000,4800746.300000 15101800.000000,4808400.000000 15101800.000000,4928400.000000 15100277.600000,4936053.700000 15095942.100000,4942542.100000 15089453.700000,4946877.600000 15081800.000000,4948400.000000 Z"/> 
</g>
<g style="fill:#000000; fill-opacity:1.0;  stroke:#000000; stroke-width:0.100000; stroke-opacity:1;  stroke-linecap:round; stroke-linejoin:round;">
<path style="fill:#000000; fill-opacity:1.0;  stroke:#000000; stroke-width:0.100000; stroke-opacity:1;  stroke-linecap:round; stroke-linejoin:round;fill-rule:evenodd;" d="M 15081800.000000,4280400.000000 15089453.700000,4281922.400000 15095942.100000,4286257.900000 15100277.600000,4292746.300000 15101800.000000,4300400.000000 15101800.000000,4420400.000000 15100277.600000,4428053.700000 15095942.100000,4434542.100000 15089453.700000,4438877.600000 15081800.000000,4440400.000000 14991800.000000,4440400.000000 14984146.300000,4438877.600000 14977657.900000,4434542.100000 14973322.400000,4428053.700000 14971800.000000,4420400.000000 14971800.000000,4300400.000000 14973322.400000,4292746.300000 14977657.900000,4286257.900000 14984146.300000,4281922.400000 14991800.000000,4280400.000000 Z"/> 
<path style="fill:#000000; fill-opacity:1.0;  stroke:#000000; stroke-width:0.100000; stroke-opacity:1;  stroke-linecap:round; stroke-linejoin:round;fill-rule:evenodd;" d="M 15081800.000000,4500400.000000 15089453.700000,4501922.400000 15095942.100000,4506257.900000 15100277.600000,4512746.300000 15101800.000000,4520400.000000 15101800.000000,4640400.000000 15100277.600000,4648053.700000 15095942.100000,4654542.100000 15089453.700000,4658877.600000 15081800.000000,4660400.000000 14991800.000000,4660400.000000 14984146.300000,4658877.600000 14977657.900000,4654542.100000 14973322.400000,4648053.700000 14971800.000000,4640400.000000 14971800.000000,4520400.000000 14973322.400000,4512746.300000 14977657.900000,4506257.900000 14984146.300000,4501922.400000 14991800.000000,4500400.000000 Z"/> 
</g>
</g> 
</mask><mask id="hole-mask"><g><rect x="13137000.0" y="3802500.0" fill="white" width="2618500.0" height="1856500.0"/><polyline stroke-linecap="round" stroke="black" stroke-width="101600.0" points="-0.0 0 0.0 0" transform="translate(13440000.0 4090000.0) rotate(-0.0)"/><polyline stroke-linecap="round" stroke="black" stroke-width="101600.0" points="-0.0 0 0.0 0" transform="translate(13440000.0 4344000.0) rotate(-0.0)"/><polyline stroke-linecap="round" stroke="black" stroke-width="101600.0" points="-0.0 0 0.0 0" transform="translate(13440000.0 4598000.0) rotate(-0.0)"/><polyline stroke-linecap="round" stroke="black" stroke-width="101600.0" points="-0.0 0 0.0 0" transform="translate(13440000.0 4852000.0) rotate(-0.0)"/><polyline stroke-linecap="round" stroke="black" stroke-width="101600.0" points="-0.0 0 0.0 0" transform="translate(13440000.0 5106000.0) rotate(-0.0)"/><polyline stroke-linecap="round" stroke="black" stroke-width="101600.0" points="-0.0 0 0.0 0" transform="translate(13440000.0 5360000.0) rotate(-0.0)"/><polyline stroke-linecap="round" stroke="black" stroke-width="101600.0" points="-0.0 0 0.0 0" transform="translate(15460000.0 4090000.0) rotate(-0.0)"/><polyline stroke-linecap="round" stroke="black" stroke-width="101600.0" points="-0.0 0 0.0 0" transform="translate(15460000.0 4344000.0) rotate(-0.0)"/><polyline stroke-linecap="round" stroke="black" stroke-width="101600.0" points="-0.0 0 0.0 0" transform="translate(15460000.0 4598000.0) rotate(-0.0)"/><polyline stroke-linecap="round" stroke="black" stroke-width="101600.0" points="-0.0 0 0.0 0" transform="translate(15460000.0 4852000.0) rotate(-0.0)"/><polyline stroke-linecap="round" stroke="black" stroke-width="101600.0" points="-0.0 0 0.0 0" transform="translate(15460000.0 5106000.0) rotate(-0.0)"/><polyline stroke-linecap="round" stroke="black" stroke-width="101600.0" points="-0.0 0 0.0 0" transform="translate(15460000.0 5360000.0) rotate(-0.0)"/><polyline stroke-linecap="round" stroke="black" stroke-width="100076.0" points="-0.0 0 0.0 0" transform="translate(13975080.0 5355844.0) rotate(-90.0)"/><polyline stroke-linecap="round" stroke="black" stroke-width="100076.0" points="-0.0 0 0.0 0" transform="translate(14625320.0 4905756.0) rotate(-90.0)"/><polyline stroke-linecap="round" stroke="black" stroke-width="100076.0" points="-0.0 0 0.0 0" transform="translate(13975080.0 4905756.0) rotate(-90.0)"/><polyline stroke-linecap="round" stroke="black" stroke-width="100076.0" points="-0.0 0 0.0 0" transform="translate(14625320.0 5355844.0) rotate(-90.0)"/><polyline stroke-linecap="round" stroke="black" stroke-width="100076.0" points="-0.0 0 0.0 0" transform="translate(13975080.0 4543044.0) rotate(-90.0)"/><polyline stroke-linecap="round" stroke="black" stroke-width="100076.0" points="-0.0 0 0.0 0" transform="translate(14625320.0 4092956.0) rotate(-90.0)"/><polyline stroke-linecap="round" stroke="black" stroke-width="100076.0" points="-0.0 0 0.0 0" transform="translate(13975080.0 4092956.0) rotate(-90.0)"/><polyline stroke-linecap="round" stroke="black" stroke-width="100076.0" points="-0.0 0 0.0 0" transform="translate(14625320.0 4543044.0) rotate(-90.0)"/></g></mask></defs><g transform="" id="boardContainer"><g id="substrate" clip-path="url(#cut-off)" mask="url(#hole-mask)"><g id="substrate-board" style="fill:#4ca06c; stroke:#4ca06c;"><path d=" M 13144500.0 3810000.0 L 15748000.0 3810000.0 L 15748000.0 5651500.0 L 13144500.0 5651500.0 L 13144500.0 3810000.0 " style="fill-rule: evenodd;"/><g style="fill-opacity: 0.0;stroke-width: 15000.000000;stroke-opacity: 1;stroke-linecap: round;stroke-linejoin: round">
<path d="M13144500 5651500 L13144500 3810000 "/>
<path d="M15748000 5651500 L13144500 5651500 "/>
<path d="M15748000 3810000 L15748000 5651500 "/>
<path d="M13144500 3810000 L15748000 3810000 "/>
</g> 
</g><g id="substrate-clad" style="fill:#9c6b28; stroke:#9c6b28;"><g style="fill-opacity: 0.0;stroke-width: 0.000000;stroke-opacity: 1;stroke-linecap: round;stroke-linejoin: round">
<g style="fill-opacity: 1.0;stroke-width: 0.100000;stroke-opacity: 1;stroke-linecap: round;stroke-linejoin: round">
<path style="fill-opacity: 1.0;stroke-width: 0.100000;stroke-opacity: 1;stroke-linecap: round;stroke-linejoin: round;fill-rule: evenodd" d="M 13318400.000000,4003640.000000 13319922.400000,3995986.300000 13324257.900000,3989497.900000 13330746.300000,3985162.400000 13338400.000000,3983640.000000 13541600.000000,3983640.000000 13549253.700000,3985162.400000 13555742.100000,3989497.900000 13560077.600000,3995986.300000 13561600.000000,4003640.000000 13561600.000000,4176360.000000 13560077.600000,4184013.700000 13555742.100000,4190502.100000 13549253.700000,4194837.600000 13541600.000000,4196360.000000 13338400.000000,4196360.000000 13330746.300000,4194837.600000 13324257.900000,4190502.100000 13319922.400000,4184013.700000 13318400.000000,4176360.000000 Z"/> 
</g>
<g style="fill-opacity: 0.0;stroke-width: 212720.000000;stroke-opacity: 1;stroke-linecap: round;stroke-linejoin: round">
<path d="M13424760 4344000 L13455240 4344000 "/>
<path d="M13424760 4598000 L13455240 4598000 "/>
<path d="M13424760 4852000 L13455240 4852000 "/>
<path d="M13424760 5106000 L13455240 5106000 "/>
<path d="M13424760 5360000 L13455240 5360000 "/>
</g>
<g style="fill-opacity: 1.0;stroke-width: 0.100000;stroke-opacity: 1;stroke-linecap: round;stroke-linejoin: round">
<path style="fill-opacity: 1.0;stroke-width: 0.100000;stroke-opacity: 1;stroke-linecap: round;stroke-linejoin: round;fill-rule: evenodd" d="M 15338400.000000,4003640.000000 15339922.400000,3995986.300000 15344257.900000,3989497.900000 15350746.300000,3985162.400000 15358400.000000,3983640.000000 15561600.000000,3983640.000000 15569253.700000,3985162.400000 15575742.100000,3989497.900000 15580077.600000,3995986.300000 15581600.000000,4003640.000000 15581600.000000,4176360.000000 15580077.600000,4184013.700000 15575742.100000,4190502.100000 15569253.700000,4194837.600000 15561600.000000,4196360.000000 15358400.000000,4196360.000000 15350746.300000,4194837.600000 15344257.900000,4190502.100000 15339922.400000,4184013.700000 15338400.000000,4176360.000000 Z"/> 
</g>
<g style="fill-opacity: 0.0;stroke-width: 212720.000000;stroke-opacity: 1;stroke-linecap: round;stroke-linejoin: round">
<path d="M15444760 4344000 L15475240 4344000 "/>
<path d="M15444760 4598000 L15475240 4598000 "/>
<path d="M15444760 4852000 L15475240 4852000 "/>
<path d="M15444760 5106000 L15475240 5106000 "/>
<path d="M15444760 5360000 L15475240 5360000 "/>
</g>
<g style="fill-opacity: 1.0;stroke-width: 0.100000;stroke-opacity: 1;stroke-linecap: round;stroke-linejoin: round">
<circle cx="13975080.000000" cy="5355844.000000" r="119949.000000"/> 
</g>
<g style="fill-opacity: 1.0;stroke-width: 0.100000;stroke-opacity: 1;stroke-linecap: round;stroke-linejoin: round">
<circle cx="14625320.000000" cy="4905756.000000" r="119949.000000"/> 
</g>
<g style="fill-opacity: 1.0;stroke-width: 0.100000;stroke-opacity: 1;stroke-linecap: round;stroke-linejoin: round">
<circle cx="13975080.000000" cy="4905756.000000" r="119949.000000"/> 
</g>
<g style="fill-opacity: 1.0;stroke-width: 0.100000;stroke-opacity: 1;stroke-linecap: round;stroke-linejoin: round">
<circle cx="14625320.000000" cy="5355844.000000" r="119949.000000"/> 
</g>
<g style="fill-opacity: 1.0;stroke-width: 0.100000;stroke-opacity: 1;stroke-linecap: round;stroke-linejoin: round">
<circle cx="13975080.000000" cy="4543044.000000" r="119949.000000"/> 
</g>
<g style="fill-opacity: 1.0;stroke-width: 0.100000;stroke-opacity: 1;stroke-linecap: round;stroke-linejoin: round">
<circle cx="14625320.000000" cy="4092956.000000" r="119949.000000"/> 
</g>
<g style="fill-opacity: 1.0;stroke-width: 0.100000;stroke-opacity: 1;stroke-linecap: round;stroke-linejoin: round">
<circle cx="13975080.000000" cy="4092956.000000" r="119949.000000"/> 
</g>
<g style="fill-opacity: 1.0;stroke-width: 0.100000;stroke-opacity: 1;stroke-linecap: round;stroke-linejoin: round">
<circle cx="14625320.000000" cy="4543044.000000" r="119949.000000"/> 
</g>
<g style="fill-opacity: 1.0;stroke-width: 0.100000;stroke-opacity: 1;stroke-linecap: round;stroke-linejoin: round">
<path style="fill-opacity: 1.0;stroke-width: 0.100000;stroke-opacity: 1;stroke-linecap: round;stroke-linejoin: round;fill-rule: evenodd" d="M 15096744.000000,5199954.000000 15104397.700000,5201476.400000 15110886.100000,5205811.900000 15115221.600000,5212300.300000 15116744.000000,5219954.000000 15116744.000000,5339842.000000 15115221.600000,5347495.700000 15110886.100000,5353984.100000 15104397.700000,5358319.600000 15096744.000000,5359842.000000 14976856.000000,5359842.000000 14969202.300000,5358319.600000 14962713.900000,5353984.100000 14958378.400000,5347495.700000 14956856.000000,5339842.000000 14956856.000000,5219954.000000 14958378.400000,5212300.300000 14962713.900000,5205811.900000 14969202.300000,5201476.400000 14976856.000000,5199954.000000 Z"/> 
<path style="fill-opacity: 1.0;stroke-width: 0.100000;stroke-opacity: 1;stroke-linecap: round;stroke-linejoin: round;fill-rule: evenodd" d="M 15096744.000000,5409758.000000 15104397.700000,5411280.400000 15110886.100000,5415615.900000 15115221.600000,5422104.300000 15116744.000000,5429758.000000 15116744.000000,5549646.000000 15115221.600000,5557299.700000 15110886.100000,5563788.100000 15104397.700000,5568123.600000 15096744.000000,5569646.000000 14976856.000000,5569646.000000 14969202.300000,5568123.600000 14962713.900000,5563788.100000 14958378.400000,5557299.700000 14956856.000000,5549646.000000 14956856.000000,5429758.000000 14958378.400000,5422104.300000 14962713.900000,5415615.900000 14969202.300000,5411280.400000 14976856.000000,5409758.000000 Z"/> 
</g>
<g style="fill-opacity: 1.0;stroke-width: 0.100000;stroke-opacity: 1;stroke-linecap: round;stroke-linejoin: round">
<path style="fill-opacity: 1.0;stroke-width: 0.100000;stroke-opacity: 1;stroke-linecap: round;stroke-linejoin: round;fill-rule: evenodd" d="M 14976856.000000,4248846.000000 14969202.300000,4247323.600000 14962713.900000,4242988.100000 14958378.400000,4236499.700000 14956856.000000,4228846.000000 14956856.000000,4108958.000000 14958378.400000,4101304.300000 14962713.900000,4094815.900000 14969202.300000,4090480.400000 14976856.000000,4088958.000000 15096744.000000,4088958.000000 15104397.700000,4090480.400000 15110886.100000,4094815.900000 15115221.600000,4101304.300000 15116744.000000,4108958.000000 15116744.000000,4228846.000000 15115221.600000,4236499.700000 15110886.100000,4242988.100000 15104397.700000,4247323.600000 15096744.000000,4248846.000000 Z"/> 
<path style="fill-opacity: 1.0;stroke-width: 0.100000;stroke-opacity: 1;stroke-linecap: round;stroke-linejoin: round;fill-rule: evenodd" d="M 14976856.000000,4039042.000000 14969202.300000,4037519.600000 14962713.900000,4033184.100000 14958378.400000,4026695.700000 14956856.000000,4019042.000000 14956856.000000,3899154.000000 14958378.400000,3891500.300000 14962713.900000,3885011.900000 14969202.300000,3880676.400000 14976856.000000,3879154.000000 15096744.000000,3879154.000000 15104397.700000,3880676.400000 15110886.100000,3885011.900000 15115221.600000,3891500.300000 15116744.000000,3899154.000000 15116744.000000,4019042.000000 15115221.600000,4026695.700000 15110886.100000,4033184.100000 15104397.700000,4037519.600000 15096744.000000,4039042.000000 Z"/> 
</g>
<g style="fill-opacity: 1.0;stroke-width: 0.100000;stroke-opacity: 1;stroke-linecap: round;stroke-linejoin: round">
<path style="fill-opacity: 1.0;stroke-width: 0.100000;stroke-opacity: 1;stroke-linecap: round;stroke-linejoin: round;fill-rule: evenodd" d="M 14991800.000000,5168400.000000 14984146.300000,5166877.600000 14977657.900000,5162542.100000 14973322.400000,5156053.700000 14971800.000000,5148400.000000 14971800.000000,5028400.000000 14973322.400000,5020746.300000 14977657.900000,5014257.900000 14984146.300000,5009922.400000 14991800.000000,5008400.000000 15081800.000000,5008400.000000 15089453.700000,5009922.400000 15095942.100000,5014257.900000 15100277.600000,5020746.300000 15101800.000000,5028400.000000 15101800.000000,5148400.000000 15100277.600000,5156053.700000 15095942.100000,5162542.100000 15089453.700000,5166877.600000 15081800.000000,5168400.000000 Z"/> 
<path style="fill-opacity: 1.0;stroke-width: 0.100000;stroke-opacity: 1;stroke-linecap: round;stroke-linejoin: round;fill-rule: evenodd" d="M 14991800.000000,4948400.000000 14984146.300000,4946877.600000 14977657.900000,4942542.100000 14973322.400000,4936053.700000 14971800.000000,4928400.000000 14971800.000000,4808400.000000 14973322.400000,4800746.300000 14977657.900000,4794257.900000 14984146.300000,4789922.400000 14991800.000000,4788400.000000 15081800.000000,4788400.000000 15089453.700000,4789922.400000 15095942.100000,4794257.900000 15100277.600000,4800746.300000 15101800.000000,4808400.000000 15101800.000000,4928400.000000 15100277.600000,4936053.700000 15095942.100000,4942542.100000 15089453.700000,4946877.600000 15081800.000000,4948400.000000 Z"/> 
</g>
<g style="fill-opacity: 1.0;stroke-width: 0.100000;stroke-opacity: 1;stroke-linecap: round;stroke-linejoin: round">
<path style="fill-opacity: 1.0;stroke-width: 0.100000;stroke-opacity: 1;stroke-linecap: round;stroke-linejoin: round;fill-rule: evenodd" d="M 15081800.000000,4280400.000000 15089453.700000,4281922.400000 15095942.100000,4286257.900000 15100277.600000,4292746.300000 15101800.000000,4300400.000000 15101800.000000,4420400.000000 15100277.600000,4428053.700000 15095942.100000,4434542.100000 15089453.700000,4438877.600000 15081800.000000,4440400.000000 14991800.000000,4440400.000000 14984146.300000,4438877.600000 14977657.900000,4434542.100000 14973322.400000,4428053.700000 14971800.000000,4420400.000000 14971800.000000,4300400.000000 14973322.400000,4292746.300000 14977657.900000,4286257.900000 14984146.300000,4281922.400000 14991800.000000,4280400.000000 Z"/> 
<path style="fill-opacity: 1.0;stroke-width: 0.100000;stroke-opacity: 1;stroke-linecap: round;stroke-linejoin: round;fill-rule: evenodd" d="M 15081800.000000,4500400.000000 15089453.700000,4501922.400000 15095942.100000,4506257.900000 15100277.600000,4512746.300000 15101800.000000,4520400.000000 15101800.000000,4640400.000000 15100277.600000,4648053.700000 15095942.100000,4654542.100000 15089453.700000,4658877.600000 15081800.000000,4660400.000000 14991800.000000,4660400.000000 14984146.300000,4658877.600000 14977657.900000,4654542.100000 14973322.400000,4648053.700000 14971800.000000,4640400.000000 14971800.000000,4520400.000000 14973322.400000,4512746.300000 14977657.900000,4506257.900000 14984146.300000,4501922.400000 14991800.000000,4500400.000000 Z"/> 
</g>
</g> 
</g><g id="substrate-copper" style="fill:#417e5a; stroke:#417e5a;"><g style="fill-opacity: 0.0;stroke-width: 0.000000;stroke-opacity: 1;stroke-linecap: round;stroke-linejoin: round">
<g style="fill-opacity: 1.0;stroke-width: 0.100000;stroke-opacity: 1;stroke-linecap: round;stroke-linejoin: round">
<path style="fill-opacity: 1.0;stroke-width: 0.100000;stroke-opacity: 1;stroke-linecap: round;stroke-linejoin: round;fill-rule: evenodd" d="M 13338400.000000,4176360.000000 13338400.000000,4003640.000000 13541600.000000,4003640.000000 13541600.000000,4176360.000000 Z"/> 
</g>
<g style="fill-opacity: 0.0;stroke-width: 172720.000000;stroke-opacity: 1;stroke-linecap: round;stroke-linejoin: round">
<path d="M13424760 4344000 L13455240 4344000 "/>
<path d="M13424760 4598000 L13455240 4598000 "/>
<path d="M13424760 4852000 L13455240 4852000 "/>
<path d="M13424760 5106000 L13455240 5106000 "/>
<path d="M13424760 5360000 L13455240 5360000 "/>
</g>
<g style="fill-opacity: 1.0;stroke-width: 0.100000;stroke-opacity: 1;stroke-linecap: round;stroke-linejoin: round">
<path style="fill-opacity: 1.0;stroke-width: 0.100000;stroke-opacity: 1;stroke-linecap: round;stroke-linejoin: round;fill-rule: evenodd" d="M 15358400.000000,4176360.000000 15358400.000000,4003640.000000 15561600.000000,4003640.000000 15561600.000000,4176360.000000 Z"/> 
</g>
<g style="fill-opacity: 0.0;stroke-width: 172720.000000;stroke-opacity: 1;stroke-linecap: round;stroke-linejoin: round">
<path d="M15444760 4344000 L15475240 4344000 "/>
<path d="M15444760 4598000 L15475240 4598000 "/>
<path d="M15444760 4852000 L15475240 4852000 "/>
<path d="M15444760 5106000 L15475240 5106000 "/>
<path d="M15444760 5360000 L15475240 5360000 "/>
</g>
<g style="fill-opacity: 1.0;stroke-width: 0.100000;stroke-opacity: 1;stroke-linecap: round;stroke-linejoin: round">
<circle cx="13975080.000000" cy="5355844.000000" r="99949.000000"/> 
</g>
<g style="fill-opacity: 1.0;stroke-width: 0.100000;stroke-opacity: 1;stroke-linecap: round;stroke-linejoin: round">
<circle cx="14625320.000000" cy="4905756.000000" r="99949.000000"/> 
</g>
<g style="fill-opacity: 1.0;stroke-width: 0.100000;stroke-opacity: 1;stroke-linecap: round;stroke-linejoin: round">
<circle cx="13975080.000000" cy="4905756.000000" r="99949.000000"/> 
</g>
<g style="fill-opacity: 1.0;stroke-width: 0.100000;stroke-opacity: 1;stroke-linecap: round;stroke-linejoin: round">
<circle cx="14625320.000000" cy="5355844.000000" r="99949.000000"/> 
</g>
<g style="fill-opacity: 1.0;stroke-width: 0.100000;stroke-opacity: 1;stroke-linecap: round;stroke-linejoin: round">
<circle cx="13975080.000000" cy="4543044.000000" r="99949.000000"/> 
</g>
<g style="fill-opacity: 1.0;stroke-width: 0.100000;stroke-opacity: 1;stroke-linecap: round;stroke-linejoin: round">
<circle cx="14625320.000000" cy="4092956.000000" r="99949.000000"/> 
</g>
<g style="fill-opacity: 1.0;stroke-width: 0.100000;stroke-opacity: 1;stroke-linecap: round;stroke-linejoin: round">
<circle cx="13975080.000000" cy="4092956.000000" r="99949.000000"/> 
</g>
<g style="fill-opacity: 1.0;stroke-width: 0.100000;stroke-opacity: 1;stroke-linecap: round;stroke-linejoin: round">
<circle cx="14625320.000000" cy="4543044.000000" r="99949.000000"/> 
</g>
<g style="fill-opacity: 1.0;stroke-width: 0.100000;stroke-opacity: 1;stroke-linecap: round;stroke-linejoin: round">
<path style="fill-opacity: 1.0;stroke-width: 0.100000;stroke-opacity: 1;stroke-linecap: round;stroke-linejoin: round;fill-rule: evenodd" d="M 14976856.000000,5219954.000000 15096744.000000,5219954.000000 15096744.000000,5339842.000000 14976856.000000,5339842.000000 Z"/> 
<path style="fill-opacity: 1.0;stroke-width: 0.100000;stroke-opacity: 1;stroke-linecap: round;stroke-linejoin: round;fill-rule: evenodd" d="M 14976856.000000,5429758.000000 15096744.000000,5429758.000000 15096744.000000,5549646.000000 14976856.000000,5549646.000000 Z"/> 
</g>
<g style="fill-opacity: 1.0;stroke-width: 0.100000;stroke-opacity: 1;stroke-linecap: round;stroke-linejoin: round">
<path style="fill-opacity: 1.0;stroke-width: 0.100000;stroke-opacity: 1;stroke-linecap: round;stroke-linejoin: round;fill-rule: evenodd" d="M 15096744.000000,4228846.000000 14976856.000000,4228846.000000 14976856.000000,4108958.000000 15096744.000000,4108958.000000 Z"/> 
<path style="fill-opacity: 1.0;stroke-width: 0.100000;stroke-opacity: 1;stroke-linecap: round;stroke-linejoin: round;fill-rule: evenodd" d="M 15096744.000000,4019042.000000 14976856.000000,4019042.000000 14976856.000000,3899154.000000 15096744.000000,3899154.000000 Z"/> 
</g>
<g style="fill-opacity: 1.0;stroke-width: 0.100000;stroke-opacity: 1;stroke-linecap: round;stroke-linejoin: round">
<path style="fill-opacity: 1.0;stroke-width: 0.100000;stroke-opacity: 1;stroke-linecap: round;stroke-linejoin: round;fill-rule: evenodd" d="M 15081800.000000,5148400.000000 14991800.000000,5148400.000000 14991800.000000,5028400.000000 15081800.000000,5028400.000000 Z"/> 
<path style="fill-opacity: 1.0;stroke-width: 0.100000;stroke-opacity: 1;stroke-linecap: round;stroke-linejoin: round;fill-rule: evenodd" d="M 15081800.000000,4928400.000000 14991800.000000,4928400.000000 14991800.000000,4808400.000000 15081800.000000,4808400.000000 Z"/> 
</g>
<g style="fill-opacity: 1.0;stroke-width: 0.100000;stroke-opacity: 1;stroke-linecap: round;stroke-linejoin: round">
<path style="fill-opacity: 1.0;stroke-width: 0.100000;stroke-opacity: 1;stroke-linecap: round;stroke-linejoin: round;fill-rule: evenodd" d="M 14991800.000000,4300400.000000 15081800.000000,4300400.000000 15081800.000000,4420400.000000 14991800.000000,4420400.000000 Z"/> 
<path style="fill-opacity: 1.0;stroke-width: 0.100000;stroke-opacity: 1;stroke-linecap: round;stroke-linejoin: round;fill-rule: evenodd" d="M 14991800.000000,4520400.000000 15081800.000000,4520400.000000 15081800.000000,4640400.000000 14991800.000000,4640400.000000 Z"/> 
</g>
<g style="fill-opacity: 0.0;stroke-width: 25000.000000;stroke-opacity: 1;stroke-linecap: round;stroke-linejoin: round">
<path d="M13774836 5106000 L13975080 4905756 "/>
<path d="M13440000 5106000 L13774836 5106000 "/>
<path d="M14625320 5078222 L15036800 5489702 "/>
<path d="M14625320 4905756 L14625320 5078222 "/>
<path d="M14902942 4092956 L15036800 3959098 "/>
<path d="M14625320 4092956 L14902942 4092956 "/>
<path d="M15129244 4267244 L15460000 4598000 "/>
<path d="M15129244 4051542 L15129244 4267244 "/>
<path d="M15036800 3959098 L15129244 4051542 "/>
<path d="M13975080 4092956 L14625320 4092956 "/>
<path d="M14625320 4905756 L13975080 4905756 "/>
<path d="M15594101 4732101 L15460000 4598000 "/>
<path d="M15513632 5489702 L15594101 5409233 "/>
<path d="M15594101 5409233 L15594101 4732101 "/>
<path d="M15036800 5489702 L15513632 5489702 "/>
<path d="M15460000 4852000 L15308400 4852000 "/>
<path d="M15308400 4852000 L15036800 4580400 "/>
<path d="M14654276 5384800 L14625320 5355844 "/>
<path d="M15036800 5088400 L15036800 5279898 "/>
<path d="M15036800 4168902 L15036800 4360400 "/>
<path d="M13440000 4090000 L13589600 4090000 "/>
<path d="M14909800 4741400 L15036800 4868400 "/>
<path d="M14909800 4521200 L14909800 4741400 "/>
<path d="M14706600 4318000 L14909800 4521200 "/>
<path d="M13817600 4318000 L14706600 4318000 "/>
<path d="M13589600 4090000 L13817600 4318000 "/>
</g>
</g> 
</g><g id="substrate-pads" style="fill:#b5ae30; stroke:#b5ae30;" mask="url(#pads-mask)"><g style="fill-opacity: 0.0;stroke-width: 0.000000;stroke-opacity: 1;stroke-linecap: round;stroke-linejoin: round">
<g style="fill-opacity: 1.0;stroke-width: 0.100000;stroke-opacity: 1;stroke-linecap: round;stroke-linejoin: round">
<path style="fill-opacity: 1.0;stroke-width: 0.100000;stroke-opacity: 1;stroke-linecap: round;stroke-linejoin: round;fill-rule: evenodd" d="M 13338400.000000,4176360.000000 13338400.000000,4003640.000000 13541600.000000,4003640.000000 13541600.000000,4176360.000000 Z"/> 
</g>
<g style="fill-opacity: 0.0;stroke-width: 172720.000000;stroke-opacity: 1;stroke-linecap: round;stroke-linejoin: round">
<path d="M13424760 4344000 L13455240 4344000 "/>
<path d="M13424760 4598000 L13455240 4598000 "/>
<path d="M13424760 4852000 L13455240 4852000 "/>
<path d="M13424760 5106000 L13455240 5106000 "/>
<path d="M13424760 5360000 L13455240 5360000 "/>
</g>
<g style="fill-opacity: 1.0;stroke-width: 0.100000;stroke-opacity: 1;stroke-linecap: round;stroke-linejoin: round">
<path style="fill-opacity: 1.0;stroke-width: 0.100000;stroke-opacity: 1;stroke-linecap: round;stroke-linejoin: round;fill-rule: evenodd" d="M 15358400.000000,4176360.000000 15358400.000000,4003640.000000 15561600.000000,4003640.000000 15561600.000000,4176360.000000 Z"/> 
</g>
<g style="fill-opacity: 0.0;stroke-width: 172720.000000;stroke-opacity: 1;stroke-linecap: round;stroke-linejoin: round">
<path d="M15444760 4344000 L15475240 4344000 "/>
<path d="M15444760 4598000 L15475240 4598000 "/>
<path d="M15444760 4852000 L15475240 4852000 "/>
<path d="M15444760 5106000 L15475240 5106000 "/>
<path d="M15444760 5360000 L15475240 5360000 "/>
</g>
<g style="fill-opacity: 1.0;stroke-width: 0.100000;stroke-opacity: 1;stroke-linecap: round;stroke-linejoin: round">
<circle cx="13975080.000000" cy="5355844.000000" r="99949.000000"/> 
</g>
<g style="fill-opacity: 1.0;stroke-width: 0.100000;stroke-opacity: 1;stroke-linecap: round;stroke-linejoin: round">
<circle cx="14625320.000000" cy="4905756.000000" r="99949.000000"/> 
</g>
<g style="fill-opacity: 1.0;stroke-width: 0.100000;stroke-opacity: 1;stroke-linecap: round;stroke-linejoin: round">
<circle cx="13975080.000000" cy="4905756.000000" r="99949.000000"/> 
</g>
<g style="fill-opacity: 1.0;stroke-width: 0.100000;stroke-opacity: 1;stroke-linecap: round;stroke-linejoin: round">
<circle cx="14625320.000000" cy="5355844.000000" r="99949.000000"/> 
</g>
<g style="fill-opacity: 1.0;stroke-width: 0.100000;stroke-opacity: 1;stroke-linecap: round;stroke-linejoin: round">
<circle cx="13975080.000000" cy="4543044.000000" r="99949.000000"/> 
</g>
<g style="fill-opacity: 1.0;stroke-width: 0.100000;stroke-opacity: 1;stroke-linecap: round;stroke-linejoin: round">
<circle cx="14625320.000000" cy="4092956.000000" r="99949.000000"/> 
</g>
<g style="fill-opacity: 1.0;stroke-width: 0.100000;stroke-opacity: 1;stroke-linecap: round;stroke-linejoin: round">
<circle cx="13975080.000000" cy="4092956.000000" r="99949.000000"/> 
</g>
<g style="fill-opacity: 1.0;stroke-width: 0.100000;stroke-opacity: 1;stroke-linecap: round;stroke-linejoin: round">
<circle cx="14625320.000000" cy="4543044.000000" r="99949.000000"/> 
</g>
<g style="fill-opacity: 1.0;stroke-width: 0.100000;stroke-opacity: 1;stroke-linecap: round;stroke-linejoin: round">
<path style="fill-opacity: 1.0;stroke-width: 0.100000;stroke-opacity: 1;stroke-linecap: round;stroke-linejoin: round;fill-rule: evenodd" d="M 14976856.000000,5219954.000000 15096744.000000,5219954.000000 15096744.000000,5339842.000000 14976856.000000,5339842.000000 Z"/> 
<path style="fill-opacity: 1.0;stroke-width: 0.100000;stroke-opacity: 1;stroke-linecap: round;stroke-linejoin: round;fill-rule: evenodd" d="M 14976856.000000,5429758.000000 15096744.000000,5429758.000000 15096744.000000,5549646.000000 14976856.000000,5549646.000000 Z"/> 
</g>
<g style="fill-opacity: 1.0;stroke-width: 0.100000;stroke-opacity: 1;stroke-linecap: round;stroke-linejoin: round">
<path style="fill-opacity: 1.0;stroke-width: 0.100000;stroke-opacity: 1;stroke-linecap: round;stroke-linejoin: round;fill-rule: evenodd" d="M 15096744.000000,4228846.000000 14976856.000000,4228846.000000 14976856.000000,4108958.000000 15096744.000000,4108958.000000 Z"/> 
<path style="fill-opacity: 1.0;stroke-width: 0.100000;stroke-opacity: 1;stroke-linecap: round;stroke-linejoin: round;fill-rule: evenodd" d="M 15096744.000000,4019042.000000 14976856.000000,4019042.000000 14976856.000000,3899154.000000 15096744.000000,3899154.000000 Z"/> 
</g>
<g style="fill-opacity: 1.0;stroke-width: 0.100000;stroke-opacity: 1;stroke-linecap: round;stroke-linejoin: round">
<path style="fill-opacity: 1.0;stroke-width: 0.100000;stroke-opacity: 1;stroke-linecap: round;stroke-linejoin: round;fill-rule: evenodd" d="M 15081800.000000,5148400.000000 14991800.000000,5148400.000000 14991800.000000,5028400.000000 15081800.000000,5028400.000000 Z"/> 
<path style="fill-opacity: 1.0;stroke-width: 0.100000;stroke-opacity: 1;stroke-linecap: round;stroke-linejoin: round;fill-rule: evenodd" d="M 15081800.000000,4928400.000000 14991800.000000,4928400.000000 14991800.000000,4808400.000000 15081800.000000,4808400.000000 Z"/> 
</g>
<g style="fill-opacity: 1.0;stroke-width: 0.100000;stroke-opacity: 1;stroke-linecap: round;stroke-linejoin: round">
<path style="fill-opacity: 1.0;stroke-width: 0.100000;stroke-opacity: 1;stroke-linecap: round;stroke-linejoin: round;fill-rule: evenodd" d="M 14991800.000000,4300400.000000 15081800.000000,4300400.000000 15081800.000000,4420400.000000 14991800.000000,4420400.000000 Z"/> 
<path style="fill-opacity: 1.0;stroke-width: 0.100000;stroke-opacity: 1;stroke-linecap: round;stroke-linejoin: round;fill-rule: evenodd" d="M 14991800.000000,4520400.000000 15081800.000000,4520400.000000 15081800.000000,4640400.000000 14991800.000000,4640400.000000 Z"/> 
</g>
<g style="fill-opacity: 0.0;stroke-width: 25000.000000;stroke-opacity: 1;stroke-linecap: round;stroke-linejoin: round">
<path d="M13774836 5106000 L13975080 4905756 "/>
<path d="M13440000 5106000 L13774836 5106000 "/>
<path d="M14625320 5078222 L15036800 5489702 "/>
<path d="M14625320 4905756 L14625320 5078222 "/>
<path d="M14902942 4092956 L15036800 3959098 "/>
<path d="M14625320 4092956 L14902942 4092956 "/>
<path d="M15129244 4267244 L15460000 4598000 "/>
<path d="M15129244 4051542 L15129244 4267244 "/>
<path d="M15036800 3959098 L15129244 4051542 "/>
<path d="M13975080 4092956 L14625320 4092956 "/>
<path d="M14625320 4905756 L13975080 4905756 "/>
<path d="M15594101 4732101 L15460000 4598000 "/>
<path d="M15513632 5489702 L15594101 5409233 "/>
<path d="M15594101 5409233 L15594101 4732101 "/>
<path d="M15036800 5489702 L15513632 5489702 "/>
<path d="M15460000 4852000 L15308400 4852000 "/>
<path d="M15308400 4852000 L15036800 4580400 "/>
<path d="M14654276 5384800 L14625320 5355844 "/>
<path d="M15036800 5088400 L15036800 5279898 "/>
<path d="M15036800 4168902 L15036800 4360400 "/>
<path d="M13440000 4090000 L13589600 4090000 "/>
<path d="M14909800 4741400 L15036800 4868400 "/>
<path d="M14909800 4521200 L14909800 4741400 "/>
<path d="M14706600 4318000 L14909800 4521200 "/>
<path d="M13817600 4318000 L14706600 4318000 "/>
<path d="M13589600 4090000 L13817600 4318000 "/>
</g>
</g> 
</g><g id="substrate-silk" style="fill:#f0f0f0; stroke:#f0f0f0;" mask="url(#pads-mask-silkscreen)"><g style="fill-opacity: 0.0;stroke-width: 31750.000000;stroke-opacity: 1;stroke-linecap: round;stroke-linejoin: round">
<g transform="rotate(-90.000000 13792200.000000 5130800.000000)">
<text x="13792200.000000" y="5194300.000000" textLength="574523.900000" font-size="169333.300000" lengthAdjust="spacingAndGlyphs" text-anchor="middle" opacity="0">RESET</text>
</g>
<g class="stroked-text"><desc>RESET</desc>
<path d="M13849652 5315252 L13789176 5357585 "/>
<path d="M13849652 5387823 L13722652 5387823 L13722652 5339442 L13728700 5327347 L13734747 5321300 L13746842 5315252 L13764985 5315252 L13777080 5321300 L13783128 5327347 L13789176 5339442 L13789176 5387823 "/>
<path d="M13783128 5260823 L13783128 5218490 "/>
<path d="M13849652 5200347 L13849652 5260823 L13722652 5260823 L13722652 5200347 "/>
<path d="M13843604 5151966 L13849652 5133823 L13849652 5103585 L13843604 5091490 L13837557 5085442 L13825461 5079395 L13813366 5079395 L13801271 5085442 L13795223 5091490 L13789176 5103585 L13783128 5127776 L13777080 5139871 L13771033 5145919 L13758938 5151966 L13746842 5151966 L13734747 5145919 L13728700 5139871 L13722652 5127776 L13722652 5097538 L13728700 5079395 "/>
<path d="M13783128 5024966 L13783128 4982633 "/>
<path d="M13849652 4964490 L13849652 5024966 L13722652 5024966 L13722652 4964490 "/>
<path d="M13722652 4928204 L13722652 4855633 "/>
<path d="M13849652 4891919 L13722652 4891919 "/>
</g><g transform="rotate(-90.000000 13792200.000000 4318000.000000)">
<text x="13792200.000000" y="4381500.000000" textLength="555322.600000" font-size="169333.300000" lengthAdjust="spacingAndGlyphs" text-anchor="middle" opacity="0">PROG</text>
</g>
<g class="stroked-text"><desc>PROG</desc>
<path d="M13849652 4544785 L13722652 4544785 L13722652 4496404 L13728700 4484309 L13734747 4478261 L13746842 4472214 L13764985 4472214 L13777080 4478261 L13783128 4484309 L13789176 4496404 L13789176 4544785 "/>
<path d="M13849652 4345214 L13789176 4387547 "/>
<path d="M13849652 4417785 L13722652 4417785 L13722652 4369404 L13728700 4357309 L13734747 4351261 L13746842 4345214 L13764985 4345214 L13777080 4351261 L13783128 4357309 L13789176 4369404 L13789176 4417785 "/>
<path d="M13722652 4266595 L13722652 4242404 L13728700 4230309 L13740795 4218214 L13764985 4212166 L13807319 4212166 L13831509 4218214 L13843604 4230309 L13849652 4242404 L13849652 4266595 L13843604 4278690 L13831509 4290785 L13807319 4296833 L13764985 4296833 L13740795 4290785 L13728700 4278690 L13722652 4266595 "/>
<path d="M13728700 4091214 L13722652 4103309 L13722652 4121452 L13728700 4139595 L13740795 4151690 L13752890 4157738 L13777080 4163785 L13795223 4163785 L13819414 4157738 L13831509 4151690 L13843604 4139595 L13849652 4121452 L13849652 4109357 L13843604 4091214 L13837557 4085166 L13795223 4085166 L13795223 4109357 "/>
</g></g>
<g style="fill-opacity: 0.0;stroke-width: 15000.000000;stroke-opacity: 1;stroke-linecap: round;stroke-linejoin: round">
<g transform="rotate(-90.000000 14878050.000000 5384800.000000)">
<text x="14878050.000000" y="5434800.000000" textLength="341275.000000" font-size="133333.300000" lengthAdjust="spacingAndGlyphs" text-anchor="middle" opacity="0">USB</text>
</g>
<g class="stroked-text"><desc>USB</desc>
<path d="M14823288 5510990 L14904240 5510990 L14913764 5506228 L14918526 5501466 L14923288 5491942 L14923288 5472895 L14918526 5463371 L14913764 5458609 L14904240 5453847 L14823288 5453847 "/>
<path d="M14918526 5410990 L14923288 5396704 L14923288 5372895 L14918526 5363371 L14913764 5358609 L14904240 5353847 L14894716 5353847 L14885192 5358609 L14880430 5363371 L14875669 5372895 L14870907 5391942 L14866145 5401466 L14861383 5406228 L14851859 5410990 L14842335 5410990 L14832811 5406228 L14828050 5401466 L14823288 5391942 L14823288 5368133 L14828050 5353847 "/>
<path d="M14870907 5277657 L14875669 5263371 L14880430 5258609 L14889954 5253847 L14904240 5253847 L14913764 5258609 L14918526 5263371 L14923288 5272895 L14923288 5310990 L14823288 5310990 L14823288 5277657 L14828050 5268133 L14832811 5263371 L14842335 5258609 L14851859 5258609 L14861383 5263371 L14866145 5268133 L14870907 5277657 L14870907 5310990 "/>
</g><g transform="rotate(-90.000000 14871700.000000 4064000.000000)">
<text x="14871700.000000" y="4114000.000000" textLength="305214.300000" font-size="133333.300000" lengthAdjust="spacingAndGlyphs" text-anchor="middle" opacity="0">ESP</text>
</g>
<g class="stroked-text"><desc>ESP</desc>
<path d="M14864557 4183047 L14864557 4149714 "/>
<path d="M14916938 4135428 L14916938 4183047 L14816938 4183047 L14816938 4135428 "/>
<path d="M14912176 4097333 L14916938 4083047 L14916938 4059238 L14912176 4049714 L14907414 4044952 L14897890 4040190 L14888366 4040190 L14878842 4044952 L14874080 4049714 L14869319 4059238 L14864557 4078285 L14859795 4087809 L14855033 4092571 L14845509 4097333 L14835985 4097333 L14826461 4092571 L14821700 4087809 L14816938 4078285 L14816938 4054476 L14821700 4040190 "/>
<path d="M14916938 3997333 L14816938 3997333 L14816938 3959238 L14821700 3949714 L14826461 3944952 L14835985 3940190 L14850271 3940190 L14859795 3944952 L14864557 3949714 L14869319 3959238 L14869319 3997333 "/>
</g><g transform="rotate(-90.000000 14884400.000000 4978400.000000)">
<text x="14884400.000000" y="5028400.000000" textLength="214738.100000" font-size="133333.300000" lengthAdjust="spacingAndGlyphs" text-anchor="middle" opacity="0">R1</text>
</g>
<g class="stroked-text"><desc>R1</desc>
<path d="M14929638 4995066 L14882019 5028400 "/>
<path d="M14929638 5052209 L14829638 5052209 L14829638 5014114 L14834400 5004590 L14839161 4999828 L14848685 4995066 L14862971 4995066 L14872495 4999828 L14877257 5004590 L14882019 5014114 L14882019 5052209 "/>
<path d="M14929638 4899828 L14929638 4956971 "/>
<path d="M14929638 4928400 L14829638 4928400 L14843923 4937923 L14853447 4947447 L14858209 4956971 "/>
</g><g transform="rotate(-90.000000 14890750.000000 4464050.000000)">
<text x="14890750.000000" y="4514050.000000" textLength="214738.100000" font-size="133333.300000" lengthAdjust="spacingAndGlyphs" text-anchor="middle" opacity="0">R2</text>
</g>
<g class="stroked-text"><desc>R2</desc>
<path d="M14935988 4480716 L14888369 4514050 "/>
<path d="M14935988 4537859 L14835988 4537859 L14835988 4499764 L14840750 4490240 L14845511 4485478 L14855035 4480716 L14869321 4480716 L14878845 4485478 L14883607 4490240 L14888369 4499764 L14888369 4537859 "/>
<path d="M14845511 4442621 L14840750 4437859 L14835988 4428335 L14835988 4404526 L14840750 4395002 L14845511 4390240 L14855035 4385478 L14864559 4385478 L14878845 4390240 L14935988 4447383 L14935988 4385478 "/>
</g><path d="M13567000 4217000 L13567000 5487000 "/>
<path d="M13567000 5487000 L13313000 5487000 "/>
<path d="M13313000 5487000 L13313000 4217000 "/>
<path d="M13595000 3935000 L13595000 4090000 "/>
<path d="M13567000 4217000 L13313000 4217000 "/>
<path d="M13285000 4090000 L13285000 3935000 "/>
<path d="M13285000 3935000 L13595000 3935000 "/>
<path d="M15587000 4217000 L15587000 5487000 "/>
<path d="M15587000 5487000 L15333000 5487000 "/>
<path d="M15333000 5487000 L15333000 4217000 "/>
<path d="M15615000 3935000 L15615000 4090000 "/>
<path d="M15587000 4217000 L15333000 4217000 "/>
<path d="M15305000 4090000 L15305000 3935000 "/>
<path d="M15305000 3935000 L15615000 3935000 "/>
</g>
<g style="fill-opacity: 0.0;stroke-width: 30480.000000;stroke-opacity: 1;stroke-linecap: round;stroke-linejoin: round">
<path d="M13995400 5435600 L13995400 4826000 "/>
<path d="M13995400 4826000 L14605000 4826000 "/>
<path d="M14605000 4826000 L14605000 5435600 "/>
<path d="M14605000 5435600 L13995400 5435600 "/>
</g>
<g style="fill-opacity: 1.0;stroke-width: 0.100000;stroke-opacity: 1;stroke-linecap: round;stroke-linejoin: round">
<circle cx="14300200.000000" cy="5130800.000000" r="207321.900000"/> 
</g>
<g style="fill-opacity: 0.0;stroke-width: 30480.000000;stroke-opacity: 1;stroke-linecap: round;stroke-linejoin: round">
<path d="M13995400 4622800 L13995400 4013200 "/>
<path d="M13995400 4013200 L14605000 4013200 "/>
<path d="M14605000 4013200 L14605000 4622800 "/>
<path d="M14605000 4622800 L13995400 4622800 "/>
</g>
<g style="fill-opacity: 1.0;stroke-width: 0.100000;stroke-opacity: 1;stroke-linecap: round;stroke-linejoin: round">
<circle cx="14300200.000000" cy="4318000.000000" r="207321.900000"/> 
</g>
<g style="fill-opacity: 0.0;stroke-width: 15000.000000;stroke-opacity: 1;stroke-linecap: round;stroke-linejoin: round">
<path d="M15111800 5544800 L15111800 5274800 "/>
<path d="M14961800 5544800 L14961800 5274800 "/>
<path d="M15051800 5394800 L15026800 5394800 "/>
<path d="M15026800 5394800 L15041800 5409800 "/>
<path d="M15001800 5419800 L15071800 5419800 "/>
<path d="M15036800 5384800 L15036800 5349800 "/>
<path d="M15036800 5419800 L15001800 5384800 "/>
<path d="M15001800 5384800 L15071800 5384800 "/>
<path d="M15071800 5384800 L15036800 5419800 "/>
<path d="M14961800 3904000 L14961800 4174000 "/>
<path d="M15111800 3904000 L15111800 4174000 "/>
<path d="M15021800 4054000 L15046800 4054000 "/>
<path d="M15046800 4054000 L15031800 4039000 "/>
<path d="M15071800 4029000 L15001800 4029000 "/>
<path d="M15036800 4064000 L15036800 4099000 "/>
<path d="M15036800 4029000 L15071800 4064000 "/>
<path d="M15071800 4064000 L15001800 4064000 "/>
<path d="M15001800 4064000 L15036800 4029000 "/>
<path d="M15104300 4928400 L15104300 5028400 "/>
<path d="M14969300 5028400 L14969300 4928400 "/>
<path d="M14969300 4520400 L14969300 4420400 "/>
<path d="M15104300 4420400 L15104300 4520400 "/>
<g style="fill-opacity: 1.0;stroke-width: 0.100000;stroke-opacity: 1;stroke-linecap: round;stroke-linejoin: round">
<path style="fill-opacity: 1.0;stroke-width: 0.100000;stroke-opacity: 1;stroke-linecap: round;stroke-linejoin: round;fill-rule: evenodd" d="M 13338400.000000,4176360.000000 13338400.000000,4003640.000000 13541600.000000,4003640.000000 13541600.000000,4176360.000000 Z"/> 
</g>
<g style="fill-opacity: 0.0;stroke-width: 172720.000000;stroke-opacity: 1;stroke-linecap: round;stroke-linejoin: round">
<path d="M13424760 4344000 L13455240 4344000 "/>
<path d="M13424760 4598000 L13455240 4598000 "/>
<path d="M13424760 4852000 L13455240 4852000 "/>
<path d="M13424760 5106000 L13455240 5106000 "/>
<path d="M13424760 5360000 L13455240 5360000 "/>
</g>
<g style="fill-opacity: 1.0;stroke-width: 0.100000;stroke-opacity: 1;stroke-linecap: round;stroke-linejoin: round">
<path style="fill-opacity: 1.0;stroke-width: 0.100000;stroke-opacity: 1;stroke-linecap: round;stroke-linejoin: round;fill-rule: evenodd" d="M 15358400.000000,4176360.000000 15358400.000000,4003640.000000 15561600.000000,4003640.000000 15561600.000000,4176360.000000 Z"/> 
</g>
<g style="fill-opacity: 0.0;stroke-width: 172720.000000;stroke-opacity: 1;stroke-linecap: round;stroke-linejoin: round">
<path d="M15444760 4344000 L15475240 4344000 "/>
<path d="M15444760 4598000 L15475240 4598000 "/>
<path d="M15444760 4852000 L15475240 4852000 "/>
<path d="M15444760 5106000 L15475240 5106000 "/>
<path d="M15444760 5360000 L15475240 5360000 "/>
</g>
<g style="fill-opacity: 1.0;stroke-width: 0.100000;stroke-opacity: 1;stroke-linecap: round;stroke-linejoin: round">
<circle cx="13975080.000000" cy="5355844.000000" r="99949.000000"/> 
</g>
<g style="fill-opacity: 1.0;stroke-width: 0.100000;stroke-opacity: 1;stroke-linecap: round;stroke-linejoin: round">
<circle cx="14625320.000000" cy="4905756.000000" r="99949.000000"/> 
</g>
<g style="fill-opacity: 1.0;stroke-width: 0.100000;stroke-opacity: 1;stroke-linecap: round;stroke-linejoin: round">
<circle cx="13975080.000000" cy="4905756.000000" r="99949.000000"/> 
</g>
<g style="fill-opacity: 1.0;stroke-width: 0.100000;stroke-opacity: 1;stroke-linecap: round;stroke-linejoin: round">
<circle cx="14625320.000000" cy="5355844.000000" r="99949.000000"/> 
</g>
<g style="fill-opacity: 1.0;stroke-width: 0.100000;stroke-opacity: 1;stroke-linecap: round;stroke-linejoin: round">
<circle cx="13975080.000000" cy="4543044.000000" r="99949.000000"/> 
</g>
<g style="fill-opacity: 1.0;stroke-width: 0.100000;stroke-opacity: 1;stroke-linecap: round;stroke-linejoin: round">
<circle cx="14625320.000000" cy="4092956.000000" r="99949.000000"/> 
</g>
<g style="fill-opacity: 1.0;stroke-width: 0.100000;stroke-opacity: 1;stroke-linecap: round;stroke-linejoin: round">
<circle cx="13975080.000000" cy="4092956.000000" r="99949.000000"/> 
</g>
<g style="fill-opacity: 1.0;stroke-width: 0.100000;stroke-opacity: 1;stroke-linecap: round;stroke-linejoin: round">
<circle cx="14625320.000000" cy="4543044.000000" r="99949.000000"/> 
</g>
</g> 
</g><g id="substrate-outline" style="fill:#000000; stroke:#000000; stroke-width: 15000.0"><g style="fill-opacity: 0.0;stroke-opacity: 1;stroke-linecap: round;stroke-linejoin: round">
<path d="M13144500 5651500 L13144500 3810000 "/>
<path d="M15748000 5651500 L13144500 5651500 "/>
<path d="M15748000 3810000 L15748000 5651500 "/>
<path d="M13144500 3810000 L15748000 3810000 "/>
</g> 
<path d="M -50800.0 0.0 A 50800.0 50800.0 0 1 1 50800.0 0.0 L 50800.0 -0.0 A 50800.0 50800.0 0 1 1 -50800.0 -0.0 Z" transform="translate(13440000.0 4090000.0) rotate(-0.0)"/><path d="M -50800.0 0.0 A 50800.0 50800.0 0 1 1 50800.0 0.0 L 50800.0 -0.0 A 50800.0 50800.0 0 1 1 -50800.0 -0.0 Z" transform="translate(13440000.0 4344000.0) rotate(-0.0)"/><path d="M -50800.0 0.0 A 50800.0 50800.0 0 1 1 50800.0 0.0 L 50800.0 -0.0 A 50800.0 50800.0 0 1 1 -50800.0 -0.0 Z" transform="translate(13440000.0 4598000.0) rotate(-0.0)"/><path d="M -50800.0 0.0 A 50800.0 50800.0 0 1 1 50800.0 0.0 L 50800.0 -0.0 A 50800.0 50800.0 0 1 1 -50800.0 -0.0 Z" transform="translate(13440000.0 4852000.0) rotate(-0.0)"/><path d="M -50800.0 0.0 A 50800.0 50800.0 0 1 1 50800.0 0.0 L 50800.0 -0.0 A 50800.0 50800.0 0 1 1 -50800.0 -0.0 Z" transform="translate(13440000.0 5106000.0) rotate(-0.0)"/><path d="M -50800.0 0.0 A 50800.0 50800.0 0 1 1 50800.0 0.0 L 50800.0 -0.0 A 50800.0 50800.0 0 1 1 -50800.0 -0.0 Z" transform="translate(13440000.0 5360000.0) rotate(-0.0)"/><path d="M -50800.0 0.0 A 50800.0 50800.0 0 1 1 50800.0 0.0 L 50800.0 -0.0 A 50800.0 50800.0 0 1 1 -50800.0 -0.0 Z" transform="translate(15460000.0 4090000.0) rotate(-0.0)"/><path d="M -50800.0 0.0 A 50800.0 50800.0 0 1 1 50800.0 0.0 L 50800.0 -0.0 A 50800.0 50800.0 0 1 1 -50800.0 -0.0 Z" transform="translate(15460000.0 4344000.0) rotate(-0.0)"/><path d="M -50800.0 0.0 A 50800.0 50800.0 0 1 1 50800.0 0.0 L 50800.0 -0.0 A 50800.0 50800.0 0 1 1 -50800.0 -0.0 Z" transform="translate(15460000.0 4598000.0) rotate(-0.0)"/><path d="M -50800.0 0.0 A 50800.0 50800.0 0 1 1 50800.0 0.0 L 50800.0 -0.0 A 50800.0 50800.0 0 1 1 -50800.0 -0.0 Z" transform="translate(15460000.0 4852000.0) rotate(-0.0)"/><path d="M -50800.0 0.0 A 50800.0 50800.0 0 1 1 50800.0 0.0 L 50800.0 -0.0 A 50800.0 50800.0 0 1 1 -50800.0 -0.0 Z" transform="translate(15460000.0 5106000.0) rotate(-0.0)"/><path d="M -50800.0 0.0 A 50800.0 50800.0 0 1 1 50800.0 0.0 L 50800.0 -0.0 A 50800.0 50800.0 0 1 1 -50800.0 -0.0 Z" transform="translate(15460000.0 5360000.0) rotate(-0.0)"/><path d="M -50038.0 0.0 A 50038.0 50038.0 0 1 1 50038.0 0.0 L 50038.0 -0.0 A 50038.0 50038.0 0 1 1 -50038.0 -0.0 Z" transform="translate(13975080.0 5355844.0) rotate(-90.0)"/><path d="M -50038.0 0.0 A 50038.0 50038.0 0 1 1 50038.0 0.0 L 50038.0 -0.0 A 50038.0 50038.0 0 1 1 -50038.0 -0.0 Z" transform="translate(14625320.0 4905756.0) rotate(-90.0)"/><path d="M -50038.0 0.0 A 50038.0 50038.0 0 1 1 50038.0 0.0 L 50038.0 -0.0 A 50038.0 50038.0 0 1 1 -50038.0 -0.0 Z" transform="translate(13975080.0 4905756.0) rotate(-90.0)"/><path d="M -50038.0 0.0 A 50038.0 50038.0 0 1 1 50038.0 0.0 L 50038.0 -0.0 A 50038.0 50038.0 0 1 1 -50038.0 -0.0 Z" transform="translate(14625320.0 5355844.0) rotate(-90.0)"/><path d="M -50038.0 0.0 A 50038.0 50038.0 0 1 1 50038.0 0.0 L 50038.0 -0.0 A 50038.0 50038.0 0 1 1 -50038.0 -0.0 Z" transform="translate(13975080.0 4543044.0) rotate(-90.0)"/><path d="M -50038.0 0.0 A 50038.0 50038.0 0 1 1 50038.0 0.0 L 50038.0 -0.0 A 50038.0 50038.0 0 1 1 -50038.0 -0.0 Z" transform="translate(14625320.0 4092956.0) rotate(-90.0)"/><path d="M -50038.0 0.0 A 50038.0 50038.0 0 1 1 50038.0 0.0 L 50038.0 -0.0 A 50038.0 50038.0 0 1 1 -50038.0 -0.0 Z" transform="translate(13975080.0 4092956.0) rotate(-90.0)"/><path d="M -50038.0 0.0 A 50038.0 50038.0 0 1 1 50038.0 0.0 L 50038.0 -0.0 A 50038.0 50038.0 0 1 1 -50038.0 -0.0 Z" transform="translate(14625320.0 4543044.0) rotate(-90.0)"/></g></g></g><g transform="" id="componentContainer"><!--Pin_Headers:Pin_Header_Straight_1x06:USB MODULE--><g transform="translate(13440000.0 4090000.0) scale(99999.98076924187, 100000.0) rotate(-0.0) translate(-1.3000000715255737 -1.299933671951294)"><g id="pref_11_Pin_Headers__Pin_Header_Straight_1x06_CONN_01X06"><g id="pref_12pin">
    <rect style="opacity:1;fill:#000000;fill-opacity:1;fill-rule:nonzero;stroke:#141414;stroke-width:1.15387;stroke-linecap:round;stroke-linejoin:bevel;stroke-miterlimit:4;stroke-dasharray:none;stroke-opacity:1" id="pref_12rect4686" width="1.4461316" height="1.4461316" x="0.57693499" y="0.57693422"/>
    <rect y="1.0419546" x="1.0419546" height="0.51612419" width="0.51612419" id="pref_12rect156830" style="opacity:1;fill:#fcf23a;fill-opacity:1;fill-rule:nonzero;stroke:#eb9d02;stroke-width:0.123876;stroke-linecap:round;stroke-linejoin:bevel;stroke-miterlimit:4;stroke-dasharray:none;stroke-opacity:1"/>
  </g>
  <g transform="translate(0,2.5400008)" id="pref_12g13">
    <rect style="opacity:1;fill:#000000;fill-opacity:1;fill-rule:nonzero;stroke:#141414;stroke-width:1.15387;stroke-linecap:round;stroke-linejoin:bevel;stroke-miterlimit:4;stroke-dasharray:none;stroke-opacity:1" id="pref_12rect9" width="1.4461316" height="1.4461316" x="0.57693499" y="0.57693422"/>
    <rect y="1.0419546" x="1.0419546" height="0.51612419" width="0.51612419" id="pref_12rect11" style="opacity:1;fill:#fcf23a;fill-opacity:1;fill-rule:nonzero;stroke:#eb9d02;stroke-width:0.123876;stroke-linecap:round;stroke-linejoin:bevel;stroke-miterlimit:4;stroke-dasharray:none;stroke-opacity:1"/>
  </g>
  <g transform="translate(0,5.0800008)" id="pref_12g19">
    <rect style="opacity:1;fill:#000000;fill-opacity:1;fill-rule:nonzero;stroke:#141414;stroke-width:1.15387;stroke-linecap:round;stroke-linejoin:bevel;stroke-miterlimit:4;stroke-dasharray:none;stroke-opacity:1" id="pref_12rect15" width="1.4461316" height="1.4461316" x="0.57693499" y="0.57693422"/>
    <rect y="1.0419546" x="1.0419546" height="0.51612419" width="0.51612419" id="pref_12rect17" style="opacity:1;fill:#fcf23a;fill-opacity:1;fill-rule:nonzero;stroke:#eb9d02;stroke-width:0.123876;stroke-linecap:round;stroke-linejoin:bevel;stroke-miterlimit:4;stroke-dasharray:none;stroke-opacity:1"/>
  </g>
  <g transform="translate(0,7.6200008)" id="pref_12g25">
    <rect style="opacity:1;fill:#000000;fill-opacity:1;fill-rule:nonzero;stroke:#141414;stroke-width:1.15387;stroke-linecap:round;stroke-linejoin:bevel;stroke-miterlimit:4;stroke-dasharray:none;stroke-opacity:1" id="pref_12rect21" width="1.4461316" height="1.4461316" x="0.57693499" y="0.57693422"/>
    <rect y="1.0419546" x="1.0419546" height="0.51612419" width="0.51612419" id="pref_12rect23" style="opacity:1;fill:#fcf23a;fill-opacity:1;fill-rule:nonzero;stroke:#eb9d02;stroke-width:0.123876;stroke-linecap:round;stroke-linejoin:bevel;stroke-miterlimit:4;stroke-dasharray:none;stroke-opacity:1"/>
  </g>
  <g transform="translate(0,10.160001)" id="pref_12g31">
    <rect style="opacity:1;fill:#000000;fill-opacity:1;fill-rule:nonzero;stroke:#141414;stroke-width:1.15387;stroke-linecap:round;stroke-linejoin:bevel;stroke-miterlimit:4;stroke-dasharray:none;stroke-opacity:1" id="pref_12rect27" width="1.4461316" height="1.4461316" x="0.57693499" y="0.57693422"/>
    <rect y="1.0419546" x="1.0419546" height="0.51612419" width="0.51612419" id="pref_12rect29" style="opacity:1;fill:#fcf23a;fill-opacity:1;fill-rule:nonzero;stroke:#eb9d02;stroke-width:0.123876;stroke-linecap:round;stroke-linejoin:bevel;stroke-miterlimit:4;stroke-dasharray:none;stroke-opacity:1"/>
  </g>
  <g transform="translate(0,12.700001)" id="pref_12g37">
    <rect style="opacity:1;fill:#000000;fill-opacity:1;fill-rule:nonzero;stroke:#141414;stroke-width:1.15387;stroke-linecap:round;stroke-linejoin:bevel;stroke-miterlimit:4;stroke-dasharray:none;stroke-opacity:1" id="pref_12rect33" width="1.4461316" height="1.4461316" x="0.57693499" y="0.57693422"/>
    <rect y="1.0419546" x="1.0419546" height="0.51612419" width="0.51612419" id="pref_12rect35" style="opacity:1;fill:#fcf23a;fill-opacity:1;fill-rule:nonzero;stroke:#eb9d02;stroke-width:0.123876;stroke-linecap:round;stroke-linejoin:bevel;stroke-miterlimit:4;stroke-dasharray:none;stroke-opacity:1"/>
  </g>
</g></g><!--Pin_Headers:Pin_Header_Straight_1x06:P2--><g transform="translate(15460000.0 4090000.0) scale(99999.98076924187, 100000.0) rotate(-0.0) translate(-1.3000000715255737 -1.299933671951294)"><use xmlns:xlink="http://www.w3.org/1999/xlink" xlink:href="#pref_11_Pin_Headers__Pin_Header_Straight_1x06_CONN_01X06"/></g><!--Resistors_SMD:R_0603_HandSoldering:R1--><g transform="translate(15036800.0 4978400.0) scale(99999.944040291, 100000.0) rotate(-90.0) translate(-0.7870000004768372 -0.4059999883174896)"><g id="pref_11_Resistors_SMD__R_0603_HandSoldering_100ohm"><path xmlns:sodipodi="http://sodipodi.sourceforge.net/DTD/sodipodi-0.dtd" d="M 0.025,0.787 V 0.025 h 0.254 v 0.762 z m 1.524,0 V 0.025 H 1.295 v 0.762 z" id="pref_13leads" style="opacity:1;fill:#d6dcdb;stroke:#99abb0;stroke-width:0.05;stroke-linecap:round;stroke-miterlimit:4;stroke-dasharray:none" sodipodi:nodetypes="cccccccccc"/>
  <path xmlns:sodipodi="http://sodipodi.sourceforge.net/DTD/sodipodi-0.dtd" d="M 0.279,0.787 V 0.025 h 1.016 v 0.762 z" id="pref_13main_body" style="opacity:1;fill:#191919;stroke:#6d6d6d;stroke-width:0.05;stroke-linecap:round;stroke-miterlimit:4;stroke-dasharray:none" sodipodi:nodetypes="ccccc"/>
  </g></g><!--Resistors_SMD:R_0603_HandSoldering:R2--><g transform="translate(15036800.0 4470400.0) scale(99999.944040291, 100000.0) rotate(90.0) translate(-0.7870000004768372 -0.4059999883174896)"><use xmlns:xlink="http://www.w3.org/1999/xlink" xlink:href="#pref_11_Resistors_SMD__R_0603_HandSoldering_100ohm"/></g></g></svg>